<?xml version="1.0" encoding="utf-8"?>
<!-- Generator: Adobe Illustrator 16.0.0, SVG Export Plug-In . SVG Version: 6.00 Build 0)  -->
<!DOCTYPE svg PUBLIC "-//W3C//DTD SVG 1.1//EN" "http://www.w3.org/Graphics/SVG/1.1/DTD/svg11.dtd">
<svg version="1.1" xmlns="http://www.w3.org/2000/svg" xmlns:xlink="http://www.w3.org/1999/xlink" x="0px" y="0px" width="960px"
	 height="560px" viewBox="0 0 960 560" enable-background="new 0 0 960 560" xml:space="preserve">
<g id="Layer_1">
	<rect x="-3" y="-171" fill="#3FA9F5" width="977" height="584"/>
	<g>
		<path fill="#FFFFFF" d="M221.832,50.813c0,8.593-4.059,11.279-23.179,17.011c-10.959,3.286-23.214,7.368-38.181,9.055
			c-12.401,1.398-25.484-2.042-39.596-2.042c-14.111,0-26.979,1.551-39.379,0.153c-14.967-1.687-30.527,6.429-41.487,3.144
			C20.89,72.402,4.769,59.407,4.769,50.813s19.711-9.616,38.83-15.347c10.959-3.286,21.477-20.018,36.443-21.706
			c12.401-1.398,26.722-4.105,40.834-4.105c14.111,0,26.48,20.015,38.88,21.413c14.968,1.688,30.044-7.583,41.004-4.297
			C219.88,32.503,221.832,42.22,221.832,50.813z"/>
	</g>
	<g>
		<path fill="#FFFFFF" d="M937.102,218.268c0,6.896-6.731,9.945-24.067,13.463c-10.008,2.031-21.364,4.12-34.226,4.12
			c-12.86,0-23.93-3.506-33.937-5.538c-17.335-3.518-26.474-5.148-26.474-12.045s7.615-16.035,24.95-19.554
			c10.007-2.031,22.6-3.56,35.46-3.56c12.861,0,24.019,8.602,34.026,10.633C930.171,209.306,937.102,211.372,937.102,218.268z"/>
	</g>
	<g>
		<polygon fill="#4D4D4D" points="284.152,266.006 459.488,273.687 453.775,384.684 274.226,388.648 		"/>
		<polygon fill="#808080" points="471.507,350.876 470.232,380.897 863.957,407.219 865.283,350.74 		"/>
		<polyline fill="#CCCCCC" points="70.006,262.827 262.679,262.537 255.231,382.265 69.186,394.453 		"/>
		<g id="XMLID_1_">
			<g>
				<path d="M962.58,110.272l12.331,31.159l-0.313,0.148c0.023-0.178,0.048-0.347,0.072-0.525l-2.406-0.169l-0.253-0.386
					l-11.681-29.503L932.385,72.83l-30.327-29.672c-2.238-1.407-38.641-24.39-64.927-43.497
					C810.46-19.724,731.916-27.117,731.134-27.186l-64.493-2.636h-56.48l-109.438,2.973h-90.262l-152.276,5.946h-0.902
					c-6.821,0-43.417,0.625-94.208,12.576C109.842,4.2-8.341,107.269-17.749,115.524l3.826,5.897l-1.263,0.555
					c-0.361-0.495-0.722-0.981-1.071-1.466c-0.589-0.823-1.167-1.616-1.732-2.369l-0.59,0.307l-2.093-3.25l0.578-0.516
					c5.149-4.559,126.688-111.77,182.508-124.912c51.104-12.031,87.988-12.655,94.869-12.655c0.578,0,0.866,0,0.866,0l152.252-5.946
					h90.286l109.438-2.973h56.577l64.625,2.646c3.32,0.297,80.156,7.532,107.393,27.333c26.936,19.573,64.529,43.239,64.902,43.477
					l0.192,0.149l30.58,29.939l28.139,38.423L962.58,110.272z"/>
				<path d="M974.671,141.054c-0.024,0.178-0.049,0.347-0.072,0.525l-2.574,1.189c0.096-0.615,0.18-1.249,0.24-1.883
					L974.671,141.054z"/>
				<path d="M972.024,142.769l2.574-1.189c-2.646,22.943-20.499,34.072-21.27,34.538l-0.324,0.148l-53.69,15.193l-0.337-0.813v-0.01
					c0.012-0.396,0.024-0.783,0.036-1.189l53.028-15.004C953.666,173.382,969.076,162.867,972.024,142.769z"/>
				<path d="M972.012,140.499l0.253,0.386c-0.061,0.634-0.145,1.269-0.24,1.883l-4.788,2.22l-0.445-0.079
					c-0.337-0.06-34.707-6.253-63.903-6.253c-0.253,0.02-33.071,1.823-54.484,2.478c-21.39,0.654-67.669,3.439-68.126,3.469H742.49
					l-31.435,0.327l-0.156-0.049c-0.349-0.079-34.538-7.631-41.647-8.929c-2.214-0.406-6.124-0.664-11.609-0.664
					c-8.108,0-16.842,0.396-16.927,0.396h-0.156l-25.708-3.964h-39.579l-60.595-1.655l-186.033-1.318
					c-11.2-0.446-67.031-2.725-70.304-4.063c0-0.01-0.084-0.04-0.325-0.04c-2.959,0-11.946,4.44-16.902,7.235l-0.289,0.168
					l-32.445,0.664l-48.18-1.318l-87.675-6.64l-9.335-1.923l-15.976,3.29l-23.482-2.666l-17.492-1.308l-20.307,1.288
					c-0.373-0.485-0.746-0.971-1.119-1.457l1.263-0.555l0.012,0.01l20.174-1.278l17.744,1.328l23.074,2.626l16.108-3.32l9.829,2.021
					l87.326,6.601l48.048,1.318l31.663-0.654c2.31-1.289,13.522-7.413,17.961-7.413c0.542,0,1.011,0.079,1.408,0.248
					c2.694,0.912,42.923,2.815,69.293,3.855l186.009,1.318l60.583,1.655h39.783l25.624,4.123c1.216-0.06,9.348-0.466,16.927-0.466
					c5.666,0,9.744,0.228,12.126,0.664c6.905,1.259,39.025,8.325,41.588,8.89l31.122-0.327h37.702
					c0.385-0.03,46.701-2.814,68.126-3.468c21.39-0.654,54.172-2.478,54.496-2.478c0.013,0,0.024,0,0.024,0
					c27.705,0,59.861,5.491,64.036,6.224L972.012,140.499z"/>
				<path fill="#9E6332" d="M967.236,144.988l4.788-2.22c-2.948,20.098-18.358,30.613-19.982,31.674l-53.028,15.004
					c0.276-10.336,0.613-20.653,1.07-30.931l0.049-1.149l-1.601,0.139c-0.493,0.049-1.07,0.089-1.648,0.277
					c-7.699-0.02-15.519-0.01-23.218,0.02l-0.806-0.04c0,0.01,0,0.03,0,0.04c-2.31,0.01-4.62,0.02-6.905,0.03
					c-52.884,0.208-107.573,0.416-159.266-10.228l-0.181-0.03c-16.794-1.318-34.298-1.764-51.225-2.19
					c-8.517-0.228-17.323-0.446-25.828-0.783c-90.791-2.656-200.697-5.619-318.255-7.661l-0.433-0.733l-0.084,0.04l-0.024-0.04
					l-1.576,0.704h-0.012c-0.349-0.01-0.686-0.01-1.035-0.02c-1.251-0.03-2.563-0.05-3.813-0.069c-1.155-0.01-2.31-0.03-3.477-0.06
					c-0.337,0-0.662-0.01-0.962-0.02v-0.01l-2.599-0.119l-0.217,0.089c-8.77-0.148-17.588-0.287-26.442-0.416
					c-20.56-0.317-41.311-0.595-62.195-0.833l0.048-2.745l32.445-0.664l0.289-0.168c4.957-2.795,13.943-7.235,16.902-7.235
					c0.241,0,0.325,0.03,0.325,0.04c3.272,1.338,59.104,3.618,70.304,4.063l186.033,1.318l60.595,1.655h39.579l25.708,4.133h0.156
					c0.085-0.01,8.818-0.476,16.927-0.476c5.485,0,9.396,0.208,11.609,0.614c7.109,1.298,41.299,8.83,41.647,8.91l0.156,0.04
					l31.435-0.337h37.787c0.457-0.03,46.736-2.815,68.126-3.469c21.413-0.654,54.231-2.458,54.484-2.478
					c29.196,0,63.566,6.194,63.903,6.253L967.236,144.988z"/>
				<path fill="#F7AA63" d="M960.331,110.996l11.681,29.503l-5.148,2.398c-4.175-0.733-36.331-6.224-64.036-6.224
					c0,0-0.012,0-0.024,0c-0.324,0-33.106,1.824-54.496,2.478c-21.425,0.654-67.741,3.438-68.126,3.468h-37.702l-31.122,0.327
					c-2.563-0.565-34.683-7.631-41.588-8.89c-2.382-0.436-6.46-0.664-12.126-0.664c-7.579,0-15.711,0.406-16.927,0.466
					l-25.624-4.123h-39.783l-60.583-1.655l-186.009-1.318c-26.37-1.041-66.599-2.943-69.293-3.855
					c-0.397-0.168-0.866-0.248-1.408-0.248c-4.439,0-15.651,6.125-17.961,7.413l-31.663,0.654l-48.048-1.318l-87.326-6.601
					l-9.829-2.021l-16.108,3.32l-23.074-2.626l-17.744-1.328l-20.174,1.278l-0.012-0.01l-3.826-5.897
					C-8.341,107.269,109.842,4.2,163.075-8.327c50.791-11.952,87.387-12.576,94.208-12.576h0.902l152.276-5.946h90.262
					l109.438-2.973h56.48l64.493,2.636c0.782,0.069,79.326,7.462,105.997,26.847c26.286,19.107,62.688,42.09,64.927,43.497
					l30.327,29.672L960.331,110.996z"/>
				<path d="M900.133,157.367l-0.049,1.149c-0.457,10.277-0.794,20.594-1.07,30.931l-0.481,0.129v0.01l0.445,1.051v0.01
					c-1.516,57.966-0.554,116.547,0.409,173.512c0.229,13.895,0.457,27.739,0.661,41.574l-2.405-0.029
					c-0.205-13.825-0.434-27.779-0.662-41.674c-1.131-67.094-2.286-136.18,0.638-204.562c-0.072,0-0.145,0-0.217,0h-0.385
					l-4.476,0.188l0.157,0.099c-5.847-0.01-11.729,0-17.564,0.02c0.048-0.634,0.084-1.269,0.133-1.903l-1.601-0.069
					c7.699-0.03,15.519-0.04,23.218-0.02c0.578-0.188,1.155-0.228,1.648-0.277L900.133,157.367z"/>
				<path d="M899.014,189.447c-0.012,0.406-0.024,0.793-0.036,1.189l-0.445-1.051L899.014,189.447z"/>
				<path d="M875.267,157.872c-0.049,0.634-0.085,1.269-0.133,1.903c-0.794,0.01-1.6,0.01-2.406,0.01
					c0.049-0.654,0.085-1.318,0.133-1.982c0.265,0,0.529,0,0.806,0L875.267,157.872z"/>
				<path d="M872.728,159.785c0.807,0,1.612,0,2.406-0.01c-1.937,29.999-3.85,60.662-5.714,90.334
					c-1.228,19.821-2.49,39.91-3.777,60.087l-1.144-0.05v-0.04l0.036-1.942v-0.079l-1.154-0.099c0.12-1.953,0.252-3.905,0.373-5.857
					c0.012-0.317,0.036-0.635,0.06-0.951c0.145-2.24,0.289-4.51,0.434-6.908c0.048-0.793,0.096-1.605,0.144-2.438
					c0.049-0.743,0.097-1.477,0.145-2.21h0.036l-0.012-0.238v-0.089h0.012l-0.012-0.079c0.83-13.201,1.648-26.184,2.466-39.206
					C868.878,220.367,870.791,189.754,872.728,159.785z"/>
				<path d="M873.666,157.803c-0.276,0-0.541,0-0.806,0c0-0.01,0-0.03,0-0.04L873.666,157.803z"/>
				<path d="M872.86,157.803c-0.048,0.664-0.084,1.328-0.133,1.982c-2.262,0.01-4.522,0.02-6.761,0.03
					c-53.004,0.198-107.801,0.416-159.771-10.267c-16.687-1.308-34.13-1.754-50.983-2.19c-8.529-0.218-17.348-0.436-25.865-0.773
					c-45.053-1.308-94.797-2.715-147.861-4.034c-5.63-0.139-11.308-0.277-17.022-0.416c-48.445-1.169-99.464-2.27-152.012-3.181
					l-1.299-2.012c0.012,0,0.036,0,0.048,0c117.558,2.042,227.464,5.005,318.255,7.661c8.505,0.337,17.312,0.555,25.828,0.783
					c16.927,0.426,34.431,0.872,51.225,2.19l0.181,0.03c51.692,10.644,106.382,10.436,159.266,10.228
					C868.24,157.822,870.551,157.813,872.86,157.803z"/>
				<path fill="#F4DFD0" d="M872.728,159.785c-1.937,29.969-3.85,60.583-5.702,90.225c-0.817,13.022-1.636,26.005-2.466,39.206
					l0.012,0.079h-0.012l-0.108-1.655l-68.114,2.676l-12.403,16.778l-170.982-2.26l-96.662-1.278l-1.6-15.331l-9.78-9.256
					l-28.68-3.182l7.615-131.799l-2.406-0.089l0.048-1.348c53.064,1.318,102.809,2.726,147.861,4.034
					c8.518,0.337,17.336,0.555,25.865,0.773c16.854,0.436,34.297,0.882,50.983,2.19c51.97,10.683,106.767,10.465,159.771,10.267
					C868.205,159.805,870.466,159.794,872.728,159.785z"/>
				<path d="M864.499,310.146l1.144,0.05c-0.542,8.671-1.095,17.362-1.66,26.055l-1.155-0.05l0.036-1.982h-0.012l-1.155-0.02
					c0.529-8.027,1.034-16.065,1.552-24.072L864.499,310.146z"/>
				<path d="M864.56,289.384l0.012,0.238h-0.036C864.548,289.543,864.548,289.463,864.56,289.384z"/>
				<path d="M864.56,289.295v0.089c-0.012,0.079-0.012,0.159-0.024,0.238h-0.023c0.012-0.109,0.012-0.219,0.023-0.327H864.56z"/>
				<path d="M864.451,287.64l0.108,1.655h-0.024c-0.012,0.108-0.012,0.218-0.023,0.327l-66.791,2.616l-10.996,14.896l-2.791-0.04
					l12.403-16.778L864.451,287.64z"/>
				<path d="M864.535,289.622c-0.048,0.733-0.096,1.467-0.145,2.21c0.036-0.724,0.085-1.457,0.121-2.21H864.535z"/>
				<path d="M864.535,308.164l-0.036,1.942h-1.251c0.036-0.644,0.084-1.308,0.12-1.962L864.535,308.164z"/>
				<path fill="#999999" d="M797.721,292.238l66.791-2.616c-0.036,0.753-0.085,1.486-0.121,2.21
					c-0.048,0.832-0.096,1.645-0.144,2.438c-0.145,2.3-0.289,4.608-0.434,6.908c-0.023,0.316-0.048,0.634-0.06,0.951
					c-0.133,1.933-0.265,3.865-0.386,5.857h0.013c0,0.049-0.013,0.108-0.013,0.158l-76.644-1.011L797.721,292.238z"/>
				<path d="M864.499,310.106v0.04l-1.251-0.02c0-0.011,0-0.011,0-0.021H864.499z"/>
				<path d="M862.827,336.201l1.155,0.05c-1.42,22.011-2.876,44.012-4.379,65.775l-2.406-0.109
					c1.011-14.559,1.984-29.226,2.959-43.923c0.746,0.02,1.179,0.029,1.228,0.029l0.072-1.981c-0.169,0-0.578-0.01-1.167-0.03
					c0.433-6.6,0.854-13.21,1.287-19.83L862.827,336.201z"/>
				<path d="M863.754,302.129c-0.121,1.952-0.253,3.904-0.373,5.857h-0.013C863.489,305.994,863.621,304.062,863.754,302.129z"/>
				<path d="M863.368,308.145c-0.036,0.654-0.084,1.318-0.12,1.962c0,0.01,0,0.01,0,0.021l-77.63-1.021l0.012-0.495l1.095-1.477
					L863.368,308.145z"/>
				<path fill="#999999" d="M863.248,310.127c-0.518,8.007-1.022,16.045-1.552,24.072v0.01l-91.212-1.477
					c3.14-11.298,1.059-20.515,0.061-23.825l15.073,0.198L863.248,310.127z"/>
				<path d="M862.863,334.219l-0.036,1.982l-1.251-0.02c0.036-0.654,0.084-1.318,0.12-1.973l1.155,0.01H862.863z"/>
				<path d="M861.696,334.209c-0.036,0.654-0.084,1.318-0.12,1.973l-91.465-1.467l0.024-0.773c0.12-0.406,0.24-0.803,0.349-1.209
					L861.696,334.209z"/>
				<path fill="#999999" d="M861.576,336.182c-0.434,6.62-0.854,13.23-1.287,19.83c-10.081-0.237-77.306-1.665-98.045,2.686
					c-4.283,0.902-18.202,1.339-37.799,1.467c-35.488,0.238-89.588-0.555-138.767-1.496h1.624v-8.176l-7.218-10.901v-7.938
					l32.83,0.525l157.196,2.537L861.576,336.182z"/>
				<path d="M861.456,356.042l-0.072,1.981c-0.049,0-0.481-0.01-1.228-0.029c0.036-0.654,0.084-1.318,0.133-1.982
					C860.878,356.032,861.287,356.042,861.456,356.042z"/>
				<path d="M860.289,356.012c-0.049,0.664-0.097,1.328-0.133,1.982c-9.925-0.228-77.196-1.596-97.323,2.626
					c-4.259,0.893-17.491,1.358-36.126,1.517l0.133-0.793l-2.383-0.277l-0.012-0.902c19.597-0.128,33.516-0.564,37.799-1.467
					C782.983,354.347,850.208,355.774,860.289,356.012z"/>
				<polygon points="786.725,307.134 785.63,308.61 783.573,307.579 783.934,307.094 				"/>
				<path d="M785.63,308.61l-0.012,0.495l-15.073-0.198c-0.229-0.772-0.397-1.229-0.434-1.317l-2.285,0.604
					c0,0.01,0.084,0.247,0.229,0.674l-154.767-2.052c-0.192-0.724-0.325-1.169-0.35-1.259l0.013-0.724l170.982,2.26l-0.36,0.485
					L785.63,308.61z"/>
				<path d="M770.545,308.907c0.998,3.311,3.079,12.527-0.061,23.825l-2.466-0.04c3.356-11.664,0.842-21.258,0.036-23.824
					L770.545,308.907z"/>
				<path d="M770.545,308.907l-2.49-0.039c-0.145-0.427-0.229-0.664-0.229-0.674l2.285-0.604
					C770.147,307.679,770.316,308.135,770.545,308.907z"/>
				<path d="M770.484,332.732c-0.108,0.406-0.229,0.803-0.349,1.209l-2.334-0.485c0.072-0.258,0.145-0.506,0.217-0.764
					L770.484,332.732z"/>
				<path d="M770.136,333.941l-0.024,0.773l-157.196-2.537l0.023-0.764c0.133-0.406,0.253-0.813,0.361-1.209l154.719,2.487
					c-0.072,0.258-0.145,0.506-0.217,0.764L770.136,333.941z"/>
				<path fill="#999999" d="M768.055,308.868c0.806,2.566,3.32,12.16-0.036,23.824L613.3,330.205
					c2.839-10.158,0.854-19.97-0.012-23.389L768.055,308.868z"/>
				<path d="M726.84,361.344l-0.133,0.793c-0.806,0-1.612,0.01-2.43,0.02l0.18-1.09L726.84,361.344z"/>
				<path d="M726.707,362.137l-4.764,27.968l-2.382-0.268l4.716-27.681C725.095,362.146,725.901,362.137,726.707,362.137z"/>
				<path d="M724.445,360.164l0.012,0.902l-0.18,1.09c-4.548,0.03-9.396,0.04-14.484,0.04c-39.11,0-92.933-0.882-139.681-1.834
					l-2.455-1.813l0.013-0.237c5.642,0.108,11.404,0.228,17.227,0.337v0.02h0.782C634.857,359.609,688.957,360.402,724.445,360.164z
					"/>
				<path d="M613.288,306.816c0.866,3.419,2.851,13.23,0.012,23.389l-2.466-0.04c3.007-10.297,0.709-20.604-0.024-23.378
					L613.288,306.816z"/>
				<path d="M613.3,330.205c-0.108,0.396-0.229,0.803-0.361,1.209l-2.333-0.495c0.084-0.258,0.156-0.506,0.229-0.754L613.3,330.205z
					"/>
				<path d="M613.288,306.816l-2.479-0.029c-0.12-0.456-0.192-0.714-0.204-0.724l2.333-0.506
					C612.963,305.647,613.096,306.093,613.288,306.816z"/>
				<path d="M612.951,304.834l-0.013,0.724l-2.333,0.506c0.012,0.01,0.084,0.268,0.204,0.724l-136.265-1.804l0.108-1.982
					l39.218,0.525l0.049,0.535l2.405-0.169l-0.036-0.337L612.951,304.834z"/>
				<path d="M612.938,331.414l-0.023,0.764l-32.83-0.525v-0.733h-2.406v0.693l-104.313-1.685l0.048-1.982l137.42,2.22
					c-0.072,0.248-0.145,0.496-0.229,0.754L612.938,331.414z"/>
				<path fill="#999999" d="M610.81,306.787c0.733,2.774,3.031,13.081,0.024,23.378l-137.42-2.22l-0.204-0.01l1.335-22.952
					L610.81,306.787z"/>
				<path d="M587.303,350.492v8.176h-1.624c-0.265,0-0.518-0.01-0.782-0.02v-7.661l-7.218-10.901v-8.474l2.406,0.04v7.938
					L587.303,350.492z"/>
				<path d="M585.679,358.668h-0.782v-0.02C585.161,358.658,585.414,358.668,585.679,358.668z"/>
				<path fill="#999999" d="M584.896,350.987v7.661c-5.822-0.109-11.585-0.229-17.227-0.337c-48.373-0.991-88.638-2.032-96.084-2.23
					l1.625-28.146l0.204,0.01l-0.048,1.982l104.313,1.685v8.474L584.896,350.987z"/>
				<polygon points="580.085,330.919 580.085,331.652 577.679,331.612 577.679,330.919 				"/>
				<path d="M575.272,364.168v10.525l-3.681,8.414l-2.262-0.674l3.537-8.077v-9.296l-6.473-4.777c1.228,0.03,2.466,0.05,3.718,0.079
					L575.272,364.168z"/>
				<path d="M570.112,360.362c-1.252-0.029-2.49-0.049-3.718-0.079l-0.349-0.258l1.611-1.477L570.112,360.362z"/>
				<path d="M567.67,358.312l-0.013,0.237l-1.611,1.477l0.349,0.258c-47.374-0.98-86.761-2.012-94.917-2.229l0.108-1.973
					C479.032,356.279,519.297,357.32,567.67,358.312z"/>
				<polygon points="516.289,303.556 516.325,303.893 513.92,304.062 513.871,303.526 				"/>
				<polygon points="514.689,288.225 516.289,303.556 513.871,303.526 512.355,289.037 503.682,280.831 476.109,277.769 
					476.229,275.787 504.909,278.968 				"/>
				<polygon fill="#999999" points="512.355,289.037 513.871,303.526 474.653,303.001 476.109,277.769 503.682,280.831 				"/>
				<polygon points="483.845,143.987 476.229,275.787 475.989,275.757 475.676,277.719 476.109,277.769 474.653,303.001 
					473.414,302.991 472.248,302.941 481.438,143.898 				"/>
				<polygon points="476.229,275.787 476.109,277.769 475.676,277.719 475.989,275.757 				"/>
				<polygon points="474.653,303.001 474.545,304.983 473.378,304.973 473.414,302.991 				"/>
				<path d="M474.545,304.983l-1.335,22.952l-1.625,28.146c-0.698-0.02-1.119-0.029-1.215-0.039l-0.084,1.981
					c0.265,0.011,0.662,0.021,1.191,0.03l-1.251,21.714l-2.406-0.09l4.427-76.736l1.167,0.05l-0.036,1.981L474.545,304.983z"/>
				<path d="M471.585,356.081l-0.108,1.973c-0.529-0.01-0.926-0.02-1.191-0.03l0.084-1.981
					C470.467,356.052,470.888,356.062,471.585,356.081z"/>
				<polygon points="466.798,143.998 454.287,329.947 453.769,329.928 453.769,327.945 452.025,327.945 463.489,157.485 
					464.596,157.485 464.596,155.503 463.622,155.503 464.404,143.888 				"/>
				<polygon points="464.596,155.503 464.596,157.485 463.489,157.485 463.622,155.503 				"/>
				<path fill="#603813" d="M464.464,142.134l-0.06,1.754l-0.782,11.615H323.267l-10.815-16.55
					C365,139.865,416.019,140.965,464.464,142.134z"/>
				<polygon points="463.622,155.503 463.489,157.485 323.472,157.485 323.544,156.207 323.556,155.939 323.267,155.503 				"/>
				<path fill="#F4DFD0" d="M463.489,157.485l-11.464,170.46h-83.669v-24.32c6.364-0.724,10.995-1.794,12.704-3.319
					c0.938-0.833,1.01-1.675,0.914-2.23c-1.636-9.464-6.544-13.606-6.749-13.775l-0.217-0.179l-57.937-14.38l6.4-112.256H463.489z"
					/>
				<polygon points="454.287,329.947 450.954,379.569 448.56,379.46 449.486,365.605 450.16,365.605 450.16,363.623 
					449.619,363.623 451.893,329.928 453.769,329.928 				"/>
				<polygon points="453.769,327.945 453.769,329.928 451.893,329.928 452.025,327.945 				"/>
				<polygon points="452.025,327.945 451.893,329.928 368.356,329.928 368.356,327.945 				"/>
				<polygon points="450.16,363.623 450.16,365.605 449.486,365.605 449.619,363.623 				"/>
				<polygon points="449.619,363.623 449.486,365.605 368.356,365.605 368.356,363.623 				"/>
				<path d="M381.974,298.075c0.096,0.556,0.024,1.397-0.914,2.23c-1.708,1.525-6.34,2.596-12.704,3.319v-1.446h-2.406l-0.036-0.258
					c6.978-0.645,11.85-1.596,13.377-2.964c0.349-0.307,0.313-0.515,0.301-0.604c-1.335-7.729-5.017-11.645-5.895-12.487
					l-58.045-14.409h1.324l0.096-1.715l57.937,14.38l0.217,0.179C375.429,284.469,380.338,288.611,381.974,298.075z"/>
				<polygon points="368.356,365.605 368.356,380.471 365.95,380.471 365.95,329.928 367.153,329.928 368.356,329.928 
					368.356,363.623 367.153,363.623 367.153,365.605 				"/>
				<rect x="367.153" y="363.623" width="1.203" height="1.982"/>
				<rect x="367.153" y="327.945" width="1.203" height="1.982"/>
				<path d="M368.356,303.625v24.32h-1.203v1.982h-1.203v-26.055C366.78,303.804,367.574,303.715,368.356,303.625z"/>
				<path d="M368.356,302.179v1.446c-0.782,0.09-1.576,0.179-2.406,0.248v-1.694H368.356z"/>
				<path d="M365.95,302.179v1.694c-8.842,0.843-20.367,1.13-31.94,1.13c-20.114,0-40.325-0.862-46.64-1.149l0.144-1.982
					c25.035,1.18,59.465,1.784,78.4,0.05L365.95,302.179z"/>
				<polygon points="323.267,155.503 323.556,155.939 323.544,156.207 323.472,157.485 322.642,157.485 322.642,155.503 				"/>
				<path d="M323.472,157.485l-6.4,112.256l-0.902-0.228l-0.698,1.902l0.18,0.04h-25.96l0.144-1.982h24.842l6.448-113.078
					l-11.429-17.492c0.914,0.01,1.84,0.03,2.755,0.05l10.815,16.55h-0.625v1.982H323.472z"/>
				<path fill="#603813" d="M309.697,138.903l11.429,17.492l-6.448,113.078h-24.842l9.396-130.749
					C302.732,138.785,306.221,138.844,309.697,138.903z"/>
				<polygon points="317.072,269.741 316.976,271.456 315.652,271.456 315.472,271.416 316.169,269.514 				"/>
				<path d="M311.153,136.941l1.299,2.012c-0.915-0.02-1.841-0.04-2.755-0.05l-1.155-1.764l0.529-0.228h0.012
					c0.061,0,0.132,0,0.193,0C309.902,136.921,310.527,136.931,311.153,136.941z"/>
				<path d="M310.684,136.248l0.469,0.693c-0.625-0.01-1.251-0.02-1.876-0.029L310.684,136.248z"/>
				<path d="M310.66,136.208l0.024,0.04l-1.407,0.664c-0.061,0-0.132,0-0.193,0L310.66,136.208z"/>
				<path d="M308.542,137.139l1.155,1.764c-3.477-0.06-6.965-0.119-10.466-0.178l0.145-1.982c0.457,0.01,0.914,0.02,1.372,0.02
					c1.167,0.03,2.322,0.05,3.477,0.06c1.275,0.03,2.55,0.049,3.813,0.069c0.349,0.01,0.686,0.01,1.035,0.02L308.542,137.139z"/>
				<path d="M299.785,136.733v0.01c-0.301,0-0.554-0.01-0.782-0.01c-0.205,0-0.409,0-0.625-0.01c-0.373-0.01-0.698-0.02-1.095-0.02
					l-0.096-0.089L299.785,136.733z"/>
				<path d="M299.375,136.743l-0.145,1.982c-0.794-0.01-1.6-0.03-2.406-0.04l0.144-1.982c0.469,0.01,0.938,0.02,1.408,0.02
					c0.216,0.01,0.421,0.01,0.625,0.01C299.135,136.743,299.255,136.743,299.375,136.743z"/>
				<path d="M299.231,138.725l-9.396,130.749h-0.878v1.982h0.734l-2.178,30.415c-0.409-0.02-0.806-0.04-1.203-0.06l-1.203-0.06
					l11.717-163.066C297.631,138.695,298.437,138.715,299.231,138.725z"/>
				<path d="M296.969,136.703l-0.144,1.982c-7.964-0.129-15.976-0.258-24.012-0.387v-0.02l0.096-1.556l-2.394-0.099l0.012-0.337
					C279.381,136.416,288.2,136.555,296.969,136.703z"/>
				<polygon points="289.835,269.474 289.691,271.456 288.958,271.456 288.958,269.474 				"/>
				<path d="M287.514,301.871l-0.144,1.982c-0.481-0.021-0.891-0.04-1.203-0.06l0.144-1.982
					C286.708,301.831,287.105,301.852,287.514,301.871z"/>
				<path d="M287.37,303.854l-5.594,77.847l-2.406-0.119l5.738-79.829l1.203,0.06l-0.144,1.982
					C286.479,303.813,286.888,303.833,287.37,303.854z"/>
				<path d="M272.909,136.723l-0.096,1.556c-0.794-0.01-1.588-0.109-2.394-0.119l0.096-1.536L272.909,136.723z"/>
				<path d="M272.813,138.279v0.02c-0.794-0.01-1.6-0.02-2.406-0.03l0.012-0.109C271.225,138.17,272.019,138.269,272.813,138.279z"
					/>
				<path d="M272.813,138.299l-7.735,124.297l-1.383-0.059v-1.982h-0.89l7.025-113.039l0.12-1.972l0.458-7.274
					C271.213,138.279,272.019,138.289,272.813,138.299z"/>
				<path d="M270.527,136.287l-0.012,0.337l-0.096,1.536h-0.012l-0.012,0.109c-48.758-0.743-98.562-1.298-148.667-1.596
					c-2.322,0-4.728,0.248-7.062,0.486c-2.37,0.248-4.824,0.496-7.278,0.505c-13.425,1.615-19.621,11.803-25.612,21.654
					c-1.191,1.953-2.31,3.796-3.489,5.58c-1.66,2.726-4.511,4.371-8.036,4.757c-0.084-0.446-0.156-0.892-0.241-1.338
					c0-0.03-0.012-0.06-0.012-0.089l-0.373,0.03l-0.072-0.545c2.334-0.178,4.968-1.06,6.604-3.736
					c1.179-1.784,2.286-3.607,3.465-5.55c5.991-9.841,12.776-21,27.513-22.735l0.168-0.01c2.333,0,4.74-0.248,7.074-0.486
					c2.394-0.248,4.884-0.505,7.362-0.505c29.004,0.168,57.925,0.426,86.592,0.763C229.216,135.692,249.968,135.97,270.527,136.287z
					"/>
				<rect x="270.352" y="138.208" transform="matrix(0.107 -0.9943 0.9943 0.107 104.0509 392.2793)" width="0.11" height="0.012"/>
				<polygon points="270.407,138.269 269.95,145.543 270.395,138.269 				"/>
				<path fill="#F4DFD0" d="M270.395,138.269l-0.445,7.274l-0.12,1.972l-7.038,113.039l-0.012,0.188l-192.877,0.099
					c0-0.099,0-0.188,0-0.288c-0.012-7.026-0.048-14.013-0.072-20.921c-0.084-21.396-0.181-43.458,0.096-65.26h0.144
					c-0.024-0.654-0.036-1.308-0.048-1.962h0.12c0-0.248,0-0.496,0-0.743l0.457-0.06c-0.108-0.654-0.229-1.308-0.349-1.952
					c3.525-0.387,6.376-2.032,8.036-4.757c1.179-1.784,2.298-3.627,3.489-5.58c5.991-9.851,12.187-20.039,25.612-21.654
					c2.454-0.01,4.908-0.258,7.278-0.505c2.334-0.238,4.74-0.486,7.062-0.486C171.833,136.971,221.637,137.526,270.395,138.269z"/>
				<polygon points="269.83,147.516 262.804,260.554 262.792,260.554 				"/>
				<polygon points="265.078,262.596 257.619,382.413 255.225,382.265 262.66,262.725 262.672,262.725 262.684,262.537 
					263.694,262.537 				"/>
				<polygon points="263.694,260.554 263.694,262.537 262.684,262.537 262.792,260.743 262.804,260.554 				"/>
				
					<rect x="262.698" y="260.642" transform="matrix(0.0646 -0.9979 0.9979 0.0646 -14.2961 506.0449)" width="0.189" height="0.012"/>
				
					<rect x="261.833" y="261.634" transform="matrix(0.0603 -0.9982 0.9982 0.0603 -14.278 508.1125)" width="1.797" height="0.012"/>
				<path d="M262.78,260.743l-0.108,1.794l-0.012,0.188l-192.746,0.099c0-0.099,0-0.188,0-0.287c0,0,0-0.05,0-0.129
					c-0.012-0.525-0.012-1.041-0.012-1.566L262.78,260.743z"/>
				
					<rect x="262.577" y="262.625" transform="matrix(0.0622 -0.9981 0.9981 0.0622 -15.7928 508.4533)" width="0.188" height="0.012"/>
				<path fill="#9E6332" d="M208.38,132.709l-0.048,2.745c-28.667-0.337-57.588-0.595-86.592-0.763
					c-2.479,0-4.969,0.258-7.362,0.505c-2.334,0.238-4.74,0.486-7.074,0.486l-0.168,0.01c-14.737,1.734-21.522,12.894-27.513,22.735
					c-1.179,1.942-2.286,3.766-3.465,5.55c-1.636,2.676-4.271,3.558-6.604,3.736c-1.612,0.129-3.068-0.089-3.97-0.268
					c-8.554-2.349-15.567-5.312-22.99-8.443c-1.876-0.793-3.777-1.596-5.726-2.398l-0.156-0.06
					c-1.263-0.347-2.515-0.575-3.729-0.793c-2.37-0.436-4.596-0.842-6.749-2.021c-4.559-2.924-8.746-6.065-12.788-9.098
					c-5.606-4.212-10.899-8.186-17.094-11.615c-0.902-1.338-2.25-2.25-3.669-3.211c-0.794-0.535-1.612-1.09-2.418-1.764
					c-1.672-1.368-3.056-2.963-4.331-4.608l20.307-1.288l17.492,1.308l23.482,2.666l15.976-3.29l9.335,1.923l87.675,6.64
					L208.38,132.709z"/>
				<path d="M70.251,169.656c0.12,0.644,0.241,1.298,0.349,1.952l-0.457,0.06c0-0.01,0-0.01,0-0.02
					c-0.012-0.664-0.024-1.328-0.06-1.982C70.143,169.666,70.191,169.656,70.251,169.656z"/>
				<path d="M70.01,168.318c0.084,0.446,0.157,0.892,0.241,1.338c-0.06,0-0.108,0.01-0.168,0.01
					C70.059,169.22,70.046,168.764,70.01,168.318z"/>
				<path d="M70.143,171.667c0,0.248,0,0.496,0,0.743h-0.12c0-0.02,0-0.04,0-0.06c0,0-0.012-0.426-0.024-0.674L70.143,171.667z"/>
				<path d="M70.083,169.666c0.036,0.654,0.048,1.318,0.06,1.982h-0.144c0,0.01,0,0.02,0,0.03c0.012,0.248,0.024,0.674,0.024,0.674
					H69.95c0,0.02,0,0.04,0,0.06c-0.012,0.922-0.012,1.278-0.024,1.893l-2.262-0.06c-0.072-1.516-0.072-3.033-0.06-4.539
					c0.12,0.01,0.24,0.01,0.349,0.01C68.687,169.755,69.397,169.735,70.083,169.666z"/>
				<path d="M70.083,169.666c-0.686,0.069-1.396,0.089-2.129,0.049c-0.12-0.01-0.229-0.01-0.349-0.02c0-0.109,0-0.208,0-0.317
					c0-0.129,0-0.257,0-0.386c0-0.179,0-0.367,0-0.545l1.083-0.099l1.323-0.029C70.046,168.764,70.059,169.22,70.083,169.666z"/>
				<path d="M70.022,172.411c0.012,0.654,0.024,1.308,0.048,1.962h-0.144c0-0.01,0-0.02,0-0.03s0-0.03,0-0.04
					c0.012-0.615,0.012-0.971,0.024-1.893H70.022z"/>
				<path d="M69.999,168.229c0,0.03,0.012,0.06,0.012,0.089l-1.323,0.029l0.938-0.089L69.999,168.229z"/>
				<path d="M69.926,174.304c0,0.01,0,0.03,0,0.04l-2.262,0.099c0-0.069,0-0.129,0-0.198L69.926,174.304z"/>
				<path d="M69.926,174.373c-0.277,21.803-0.181,43.864-0.096,65.26c0.024,6.908,0.06,13.895,0.072,20.921h-1.095v1.982h1.107
					c0,0.099,0,0.188,0,0.287c0.024,14.767,0,29.176-0.205,43.636c-0.457,33.923-1.78,61.979-4.138,87.995
					c0,0,1.275-54.062,1.732-87.946c0.301-22.318,0.216-45.083,0.12-67.034c-0.096-22.813-0.192-46.093,0.168-69.77c0,0,0,0,0.012,0
					c-0.012,1.506-0.012,3.023,0.06,4.539c0,0.069,0,0.129,0,0.198l2.262-0.099C69.926,174.353,69.926,174.363,69.926,174.373z"/>
				<path d="M69.902,260.842c0,0.674,0,1.308,0.012,1.566c0,0.079,0,0.129,0,0.129h-1.107v-1.982h1.095
					C69.902,260.653,69.902,260.743,69.902,260.842z"/>
				<path d="M69.553,167.713l0.072,0.545l-0.938,0.089l-1.083,0.03c0,0.02,0,0.05,0,0.069c0,0.179,0,0.367,0,0.545
					c-0.012,0.129-0.012,0.257-0.012,0.386c0,0.109,0,0.218,0,0.327c-0.878-0.06-1.769-0.168-2.683-0.357
					c-8.818-2.418-15.904-5.411-23.422-8.582c-1.841-0.783-3.706-1.576-5.618-2.359c-1.119-0.307-2.238-0.505-3.417-0.724
					c-2.466-0.456-5.029-0.921-7.615-2.349c-4.716-3.013-8.926-6.174-13.017-9.237c-5.606-4.212-10.911-8.196-17.059-11.575
					l-0.276-0.148l-0.132-0.228c-0.674-1.09-1.792-1.854-3.2-2.814c-0.806-0.536-1.696-1.15-2.599-1.883
					c-2.863-2.358-4.992-5.322-6.881-7.928c-0.578-0.803-1.143-1.586-1.696-2.319l1.443-0.753l3.284,5.054l1.227-0.069
					c1.275,1.645,2.659,3.241,4.331,4.608c0.806,0.674,1.624,1.229,2.418,1.764c1.419,0.961,2.767,1.873,3.669,3.211
					c6.195,3.429,11.488,7.403,17.094,11.615c4.042,3.032,8.229,6.174,12.788,9.098c2.153,1.179,4.379,1.585,6.749,2.021
					c1.215,0.218,2.466,0.446,3.729,0.793l0.156,0.06c1.949,0.803,3.85,1.605,5.726,2.398c7.423,3.131,14.436,6.095,22.99,8.443
					C66.485,167.624,67.941,167.842,69.553,167.713z"/>
				<path d="M68.687,168.347l-1.083,0.099c0-0.02,0-0.049,0-0.069L68.687,168.347z"/>
				<path d="M67.953,169.715c-0.108,0-0.229,0-0.349-0.01v-0.01C67.725,169.705,67.833,169.705,67.953,169.715z"/>
				<path d="M67.604,169.695v0.01c-0.012,0-0.012,0-0.012,0c0-0.109,0-0.218,0-0.327c0,0,0,0,0.012,0
					C67.604,169.487,67.604,169.586,67.604,169.695z"/>
				<path d="M67.604,168.992c0,0.129,0,0.257,0,0.386c-0.012,0-0.012,0-0.012,0C67.592,169.249,67.592,169.121,67.604,168.992z"/>
				<path d="M-15.187,121.976c0.373,0.486,0.746,0.972,1.119,1.457l-1.227,0.069l-3.284-5.054l0.59-0.307
					c0.565,0.753,1.143,1.546,1.732,2.369C-15.908,120.995-15.547,121.481-15.187,121.976z"/>
			</g>
			<g>
			</g>
		</g>
		
			<line fill="none" stroke="#000000" stroke-width="2" stroke-miterlimit="10" x1="940.191" y1="128.033" x2="949.014" y2="142.196"/>
		<path fill="none" stroke="#000000" stroke-width="2" stroke-miterlimit="10" d="M515.105-27.239c0,0-6.397,153.296-7.201,155.272"
			/>
		<path fill="none" stroke="#000000" stroke-width="2" stroke-miterlimit="10" d="M655.48-29.821c0,0,52.108,81.926,87.006,172.441"
			/>
		<path fill="none" stroke="#000000" stroke-width="2" stroke-miterlimit="10" d="M147.621-3.033c0,0,608.006-7.531,701.095,10.92"
			/>
		<line fill="none" stroke="#000000" stroke-width="2" stroke-miterlimit="10" x1="98.586" y1="24.864" x2="903.817" y2="41.802"/>
		<path fill="none" stroke="#000000" stroke-width="2" stroke-miterlimit="10" d="M54.448,56.563c0,0,821.344,6.63,887.63,29.497"/>
		<line fill="none" stroke="#000000" stroke-width="2" stroke-miterlimit="10" x1="54.448" y1="82.497" x2="6.27" y2="120.154"/>
		<line fill="none" stroke="#000000" stroke-width="2" stroke-miterlimit="10" x1="67.611" y1="101.326" x2="47.087" y2="124.107"/>
		<line fill="none" stroke="#000000" stroke-width="2" stroke-miterlimit="10" x1="110.115" y1="97.032" x2="82.204" y2="123.504"/>
		
			<line fill="none" stroke="#000000" stroke-width="2" stroke-miterlimit="10" x1="138.479" y1="97.032" x2="114.074" y2="125.911"/>
		
			<line fill="none" stroke="#000000" stroke-width="2" stroke-miterlimit="10" x1="166.355" y1="89.764" x2="142.143" y2="128.033"/>
		
			<line fill="none" stroke="#000000" stroke-width="2" stroke-miterlimit="10" x1="317.079" y1="89.764" x2="287.377" y2="125.911"/>
		
			<line fill="none" stroke="#000000" stroke-width="2" stroke-miterlimit="10" x1="328.26" y1="107.839" x2="321.132" y2="125.911"/>
		<path fill="none" stroke="#000000" stroke-width="2" stroke-miterlimit="10" d="M430.116,97.032c0,0-16.047,28.355-10.426,30.377"
			/>
		<path fill="none" stroke="#000000" stroke-width="2" stroke-miterlimit="10" d="M442.947,112.718c0,0-7.244,12.549-4.01,14.691"/>
		
			<line fill="none" stroke="#000000" stroke-width="2" stroke-miterlimit="10" x1="463.496" y1="107.839" x2="457.686" y2="128.033"/>
		
			<line fill="none" stroke="#000000" stroke-width="2" stroke-miterlimit="10" x1="483.851" y1="107.604" x2="478.985" y2="128.033"/>
		
			<line fill="none" stroke="#000000" stroke-width="2" stroke-miterlimit="10" x1="570.843" y1="101.326" x2="569.231" y2="131.554"/>
		<line fill="none" stroke="#000000" stroke-width="2" stroke-miterlimit="10" x1="588" y1="112" x2="588" y2="129"/>
		
			<line fill="none" stroke="#000000" stroke-width="2" stroke-miterlimit="10" x1="614.976" y1="116.441" x2="612.971" y2="131.554"/>
		<path fill="none" stroke="#000000" stroke-width="2" stroke-miterlimit="10" d="M648.664,98.355c0,0,8.821,25.835,6.816,35.051"/>
		<path fill="none" stroke="#000000" stroke-width="2" stroke-miterlimit="10" d="M669.916,120.818c0,0,3.211,10.204,3.011,13.855"
			/>
		<line fill="none" stroke="#000000" stroke-width="2" stroke-miterlimit="10" x1="689" y1="129" x2="689" y2="140"/>
		<path fill="none" stroke="#000000" stroke-width="2" stroke-miterlimit="10" d="M802.246,114.211c0,0,7.301,25.917,6.418,27.37"/>
		<path fill="none" stroke="#000000" stroke-width="2" stroke-miterlimit="10" d="M813.078,117.818c0,0,15.649,17.411,13.236,22.263
			"/>
		
			<line fill="none" stroke="#000000" stroke-width="2" stroke-miterlimit="10" x1="834.727" y1="109.255" x2="848.315" y2="139.15"/>
		
			<line fill="none" stroke="#000000" stroke-width="2" stroke-miterlimit="10" x1="845.156" y1="107.604" x2="871.854" y2="140.211"/>
		
			<line fill="none" stroke="#000000" stroke-width="2" stroke-miterlimit="10" x1="880.443" y1="111.898" x2="894.859" y2="137.09"/>
		
			<line fill="none" stroke="#000000" stroke-width="2" stroke-miterlimit="10" x1="917.334" y1="120.818" x2="922.549" y2="137.996"/>
		
			<line fill="none" stroke="#000000" stroke-width="2" stroke-miterlimit="10" x1="940.191" y1="128.033" x2="949.014" y2="142.196"/>
		<path fill="none" stroke="#000000" stroke-width="2" stroke-miterlimit="10" d="M333.561-23.846
			c0,0-86.457,119.175-85.377,149.757"/>
		
			<line fill="none" stroke="#000000" stroke-width="2" stroke-miterlimit="10" x1="217.988" y1="101.326" x2="208.397" y2="130.729"/>
		<polyline fill="#42210B" points="272.819,138.3 296.831,138.687 281.783,381.7 256.846,383.346 		"/>
		<polyline fill="#42210B" points="463,141 483.851,141 467.826,380.398 449.292,381.229 		"/>
		<polyline fill="#42210B" points="857.203,401.919 900.053,405.732 900.09,158.517 872.734,159.786 		"/>
		<polyline fill="#42210B" points="71.22,169.706 69.186,394.453 44.008,395.496 50.696,163.107 		"/>
	</g>
	<path fill="#C69C6D" stroke="#000000" stroke-width="2" stroke-miterlimit="10" d="M-41.356,391.236
		c0,0,511.667-132.033,1048.356,30.94v269.071L-58.944,702.013L-41.356,391.236z"/>
</g>
<g id="애들">
	<path fill="#93278F" stroke="#000000" stroke-miterlimit="10" d="M350.235,360.252c0,0-26.287,19.356-19.364,64.309
		c0,0,44.196,32.99,88.093-2.538c0,0,6.227-23.286-15.491-57.693"/>
	<g>
		<path fill="#FFFFFF" stroke="#000000" stroke-miterlimit="10" d="M145.348,466.14c0,0,16.937,2.4,14.685,12.002
			c0,0-2.13,12.616-27.261,3.548c0,0-9.364-2.878-4.146-15.39"/>
		<path fill="none" stroke="#8C6239" stroke-width="2" stroke-miterlimit="10" d="M149.635,467.113c0,0,4.864,5.178,0.93,5.107
			c-7.68-0.143-15.009-2.965-22.547-4.318c0,0-2.609,6.504,0.421,10.345c3.028,3.841,6.691,4.986,12.405,5.827
			c5.715,0.839,12.507,3.386,18.587-4.332C159.431,479.742,164.618,471.182,149.635,467.113z"/>
		
			<line fill="none" stroke="#8C6239" stroke-width="2" stroke-miterlimit="10" x1="157.55" y1="481.797" x2="130.598" y2="479.682"/>
		
			<line fill="none" stroke="#8C6239" stroke-width="2" stroke-miterlimit="10" x1="160.343" y1="478.823" x2="127.126" y2="475.395"/>
		
			<line fill="none" stroke="#8C6239" stroke-width="2" stroke-miterlimit="10" x1="160.194" y1="475.197" x2="127.226" y2="470.791"/>
		<line fill="none" stroke="#8C6239" stroke-width="2" stroke-miterlimit="10" x1="157.673" y1="471.494" x2="151.95" y2="470.49"/>
		
			<line fill="none" stroke="#8C6239" stroke-width="2" stroke-miterlimit="10" x1="130.685" y1="468.438" x2="129.796" y2="478.897"/>
		
			<line fill="none" stroke="#8C6239" stroke-width="2" stroke-miterlimit="10" x1="134.749" y1="469.402" x2="134.521" y2="482.638"/>
		
			<line fill="none" stroke="#8C6239" stroke-width="2" stroke-miterlimit="10" x1="139.465" y1="470.346" x2="139.825" y2="484.686"/>
		
			<line fill="none" stroke="#8C6239" stroke-width="2" stroke-miterlimit="10" x1="145.623" y1="472.923" x2="145.429" y2="484.481"/>
		
			<line fill="none" stroke="#8C6239" stroke-width="2" stroke-miterlimit="10" x1="151.631" y1="473.342" x2="152.081" y2="484.469"/>
	</g>
	<g>
		<path fill="#FFFFFF" stroke="#000000" stroke-miterlimit="10" d="M161.667,467.953c0,0,16.937,2.4,14.684,12.001
			c0,0-2.13,12.617-27.261,3.549c0,0-9.364-2.878-4.146-15.39"/>
		<path fill="none" stroke="#8C6239" stroke-width="2" stroke-miterlimit="10" d="M165.955,468.927c0,0,4.865,5.177,0.93,5.107
			c-7.68-0.143-15.009-2.966-22.547-4.318c0,0-2.609,6.503,0.421,10.344c3.028,3.841,6.691,4.987,12.405,5.828
			c5.715,0.838,12.507,3.386,18.587-4.332C175.751,481.556,180.938,472.995,165.955,468.927z"/>
		
			<line fill="none" stroke="#8C6239" stroke-width="2" stroke-miterlimit="10" x1="173.869" y1="483.61" x2="146.917" y2="481.495"/>
		
			<line fill="none" stroke="#8C6239" stroke-width="2" stroke-miterlimit="10" x1="176.663" y1="480.637" x2="143.445" y2="477.208"/>
		
			<line fill="none" stroke="#8C6239" stroke-width="2" stroke-miterlimit="10" x1="176.514" y1="477.011" x2="143.545" y2="472.604"/>
		
			<line fill="none" stroke="#8C6239" stroke-width="2" stroke-miterlimit="10" x1="173.992" y1="473.307" x2="168.27" y2="472.303"/>
		
			<line fill="none" stroke="#8C6239" stroke-width="2" stroke-miterlimit="10" x1="147.004" y1="470.251" x2="146.116" y2="480.711"/>
		<line fill="none" stroke="#8C6239" stroke-width="2" stroke-miterlimit="10" x1="151.068" y1="471.216" x2="150.84" y2="484.45"/>
		
			<line fill="none" stroke="#8C6239" stroke-width="2" stroke-miterlimit="10" x1="155.785" y1="472.158" x2="156.145" y2="486.498"/>
		
			<line fill="none" stroke="#8C6239" stroke-width="2" stroke-miterlimit="10" x1="161.942" y1="474.736" x2="161.749" y2="486.295"/>
		
			<line fill="none" stroke="#8C6239" stroke-width="2" stroke-miterlimit="10" x1="167.951" y1="475.155" x2="168.401" y2="486.282"/>
	</g>
	<circle fill="#FFBC87" stroke="#000000" stroke-miterlimit="10" cx="223.725" cy="376.539" r="10.729"/>
	<path fill="#485B66" stroke="#000000" stroke-miterlimit="10" d="M151.242,341.364c0,0-17.283,0.736-12.284,16.695
		c4.999,15.959,44.464,25.181,44.464,25.181s25.078,3.685,33.078,1.404v-15.308C216.5,369.337,172.767,344.657,151.242,341.364z"/>
	<path fill="#485B66" stroke="#000000" stroke-miterlimit="10" d="M173.066,412.002c0,0-5.951,42.974-19.019,54.439
		c-1.18,1.036-2.418,1.815-3.716,2.282l-19.965-3.364c0,0-15.605-13.783-14.355-58.947c1.249-45.162,70.189-16.586,70.189-16.586
		s22.523,36.918-18.136,78.89c-0.108,0.112-0.217,0.224-0.326,0.336c0,0-9.697,2.579-12.761-3.108"/>
	<path fill="#BDCCD4" stroke="#000000" stroke-miterlimit="10" d="M135.363,342.257c0,0-18.949,23.937-17.656,57.118
		c0,0,23.375,17.273,72.118,0.87c0,0,13.366-17.827-11.62-66.708"/>
	
		<ellipse transform="matrix(0.9921 -0.1251 0.1251 0.9921 -46.5642 9.4532)" stroke="#000000" stroke-miterlimit="10" cx="51.974" cy="375.417" rx="7.329" ry="7.706"/>
	<path stroke="#000000" stroke-miterlimit="10" d="M100.117,305.214c0,0-17.227,4.621-13.67,21.841c0,0-18.513,0.412-18.43,19.183
		c0,0-15.226,4.86-10.934,21.986l2.479,3.953c0,0,16.885-1.368,16.794-15.369c0,0,15.247-8.321,13.714-21.682
		c0,0,19.191-3.845,15.634-15.629"/>
	<g>
		<path fill="#FFBC87" stroke="#000000" stroke-width="2" stroke-miterlimit="10" d="M225.969,260.992
			c0,0,27.594-18.36,16.254,26.473c0,0,1.86,14.936-9.33,14.272l-6.702-0.397"/>
		<path fill="#FFBC87" stroke="#000000" stroke-width="2" stroke-miterlimit="10" d="M99.323,263.849
			c0,0-27.32-18.417-16.795,26.442c0,0-2.192,14.933,9.008,14.296l6.954-0.398"/>
		<path fill="#FFBC87" stroke="#000000" stroke-width="2.134" stroke-miterlimit="10" d="M101.793,259.552
			c-3.045,0.567-3.542,26.122-3.559,28.465c-0.362,53.1,49.589,68.997,97.774,54.975c37.985-11.056,31.449-62.52,28.28-91.407
			C222.69,237.016,101.875,259.537,101.793,259.552z"/>
		<path fill="none" stroke="#000000" stroke-width="3" stroke-miterlimit="10" d="M186.562,268.115c0,0,2.3-2.009,8.65-1.262
			l-1.928,1.482c0,0,5.102-2.912,12.064-1.486l-3.091,1.554c0,0,8.731-3.337,13.513-1.381l-3.063,1.379c0,0,2.891-1.603,9.637-1.324
			l-1.193,1.46"/>
		<path fill="none" stroke="#000000" stroke-width="3" stroke-miterlimit="10" d="M168.397,267.448c0,0-2.357-2.202-9.799-2.044
			l2.009,1.646c0,0-5.462-3.354-13.708-2.577l3.336,1.824c0,0-9.584-4.11-15.393-2.608l3.331,1.65c0,0-3.1-1.855-10.927-2.195
			l1.162,1.558"/>
		<g>
			<path fill="#FDFEFF" stroke="#000000" stroke-miterlimit="10" d="M208.91,279.149c1.07,1.593,1.539,3.573,1.149,5.606
				c-0.296,1.559-1.055,2.929-2.109,3.998c6.291-0.793,10.784-2.94,10.784-2.94C215.32,282.444,212.019,280.355,208.91,279.149z"/>
			<path fill="#FDFEFF" stroke="#000000" stroke-miterlimit="10" d="M195.93,278.715c-5.474,1.749-8.884,5.323-8.884,5.323
				c2.838,2.014,5.8,3.286,8.728,4.05c-1.257-1.652-1.833-3.785-1.416-5.981C194.603,280.828,195.158,279.679,195.93,278.715z"/>
			<path stroke="#000000" stroke-miterlimit="10" d="M208.91,279.149c-4.959-1.925-9.406-1.576-12.979-0.435
				c-0.772,0.964-1.327,2.113-1.572,3.392c-0.417,2.196,0.158,4.329,1.416,5.981c4.313,1.121,8.545,1.126,12.177,0.666
				c1.054-1.069,1.813-2.439,2.109-3.998C210.449,282.723,209.979,280.742,208.91,279.149z"/>
		</g>
		<g>
			<path fill="#FDFEFF" stroke="#000000" stroke-miterlimit="10" d="M139.969,275.79c-1.333,1.485-2.114,3.437-2.028,5.554
				c0.063,1.622,0.629,3.111,1.542,4.333c-6.295-1.606-10.549-4.362-10.549-4.362C132.926,278.323,136.616,276.62,139.969,275.79z"
				/>
			<path fill="#FDFEFF" stroke="#000000" stroke-miterlimit="10" d="M153.275,277.005c5.316,2.476,8.25,6.545,8.25,6.545
				c-3.205,1.683-6.42,2.601-9.521,3.002c1.532-1.52,2.446-3.613,2.354-5.898C154.307,279.322,153.917,278.083,153.275,277.005z"/>
			<path stroke="#000000" stroke-miterlimit="10" d="M139.969,275.79c5.354-1.325,9.837-0.4,13.306,1.216
				c0.642,1.078,1.032,2.317,1.083,3.649c0.092,2.285-0.822,4.378-2.354,5.898c-4.576,0.592-8.889,0.053-12.522-0.876
				c-0.913-1.222-1.478-2.711-1.542-4.333C137.855,279.227,138.637,277.274,139.969,275.79z"/>
		</g>
		<path stroke="#000000" stroke-width="2.134" stroke-miterlimit="10" d="M97.823,291.428c0,0,30.441-43.536,95.965-43.102
			c0,0,27.907,5.281,31.703,20.098c3.794,14.817,13.527-76.852-38.854-76.793c0,0-93.252-17.268-94.045,58.322
			C92.592,249.952,88.598,266.191,97.823,291.428z"/>
		
			<ellipse transform="matrix(0.98 -0.1992 0.1992 0.98 -52.0859 46.8868)" fill="#FFFFFF" cx="206.976" cy="282.301" rx="2.65" ry="2.704"/>
		
			<ellipse transform="matrix(0.9971 -0.0755 0.0755 0.9971 -20.6911 12.1902)" fill="#FFFFFF" cx="150.977" cy="279.916" rx="2.65" ry="2.705"/>
		<path fill="#FCA870" stroke="#000000" stroke-miterlimit="10" d="M177.331,287.684c0,0,12.413,23.495,6.978,25.147
			c0,0-2.501,1.051-4.208-0.48c0,0-3.521,1.988-7.107-0.218c0,0-3.563,1.67-5.385-1.543
			C167.608,310.59,166.054,303.134,177.331,287.684z"/>
		<path stroke="#FFBC87" stroke-width="2.134" stroke-miterlimit="10" d="M185.617,251.117c0,0-1.449-52.988-20.527-61.592"/>
		
			<ellipse transform="matrix(0.9921 -0.1251 0.1251 0.9921 -40.2275 24.6673)" fill="#C1272D" stroke="#000000" stroke-miterlimit="10" cx="176.262" cy="332.584" rx="14.662" ry="12.796"/>
	</g>
	
		<rect x="56.139" y="366.278" transform="matrix(0.7607 -0.6491 0.6491 0.7607 -226.4865 126.2268)" fill="#29ABE2" stroke="#000000" stroke-miterlimit="10" width="3.627" height="8.016"/>
	<circle fill="#FFBC87" stroke="#000000" stroke-miterlimit="10" cx="211.938" cy="333.021" r="10.729"/>
	<path fill="#485B66" stroke="#000000" stroke-miterlimit="10" d="M131.685,343.937c0,0-13.804,10.539-0.567,20.761
		c13.236,10.222,50.956-4.875,50.956-4.875s22.623-11.305,28.006-17.847l-8.764-12.549
		C201.316,329.427,151.217,334.312,131.685,343.937z"/>
	<path fill="#7C507A" stroke="#000000" stroke-miterlimit="10" d="M397.026,321.907c0,0,17.501,25.016,14.246,58.063
		c0,0-24.354,15.859-72.041-3.399c0,0-12.289-18.586,15.544-65.902"/>
	
		<ellipse transform="matrix(-0.998 -0.0635 0.0635 -0.998 865.905 708.7357)" stroke="#000000" stroke-miterlimit="10" cx="444.222" cy="340.6" rx="4.196" ry="5.602"/>
	<path stroke="#000000" stroke-miterlimit="10" d="M414.848,292.384c0,0,9.984,2.405,8.39,15.072c0,0,10.611-0.715,11.046,12.886
		c0,0,8.845,2.688,6.827,15.328l-1.317,2.998c0,0-9.704-0.066-10.013-10.213c0,0-8.945-5.191-8.411-14.954
		c0,0-11.088-1.734-9.354-10.465"/>
	<path fill="none" stroke="#000000" stroke-width="3" stroke-miterlimit="10" d="M359.008,259.761c0,0-2.458-1.812-8.725-0.542
		l2.044,1.317c0,0-5.326-2.481-12.145-0.483l3.208,1.292c0,0-8.976-2.604-13.58-0.261l3.165,1.122c0,0-3.014-1.358-9.713-0.522
		l1.311,1.356"/>
	<g>
		<g>
			<path fill="#FFBC87" stroke="#000000" stroke-width="2" stroke-miterlimit="10" d="M309.801,257.178
				c0,0-25.264-14.638-12.847,24.164c0,0-0.821,13.232,8.98,12.04l5.871-0.716"/>
			<path fill="#FFBC87" stroke="#000000" stroke-width="2" stroke-miterlimit="10" d="M421.311,252.781
				c0,0,23.017-17.683,16.21,22.334c0,0,2.743,13.01-7.14,13.06l-6.136,0.03"/>
			<path fill="#FFBC87" stroke="#000000" stroke-width="2.134" stroke-miterlimit="10" d="M418.905,249.138
				c2.708,0.333,4.539,22.775,4.682,24.834c3.216,46.668-39.837,63.37-82.969,53.671c-34.001-7.649-31.063-53.256-29.852-78.828
				C311.377,235.918,418.832,249.129,418.905,249.138z"/>
			<polyline fill="#FFBC87" stroke="#000000" stroke-width="2.134" stroke-miterlimit="10" points="311.043,255.094 
				319.944,226.539 377.368,234.677 413.04,242.508 421.608,257.923 			"/>
		</g>
		<path fill="none" stroke="#000000" stroke-width="3" stroke-miterlimit="10" d="M378.095,256.945c0,0,2.245-1.744,8.761-1.01
			l-1.894,1.283c0,0,5.059-2.507,12.233-1.166l-3.073,1.334c0,0,8.737-2.841,13.713-1.06l-3.054,1.181c0,0,2.867-1.38,9.762-1.053
			l-1.144,1.273"/>
		<path fill="none" stroke="#000000" stroke-width="3" stroke-miterlimit="10" d="M355.438,256.945c0,0-2.244-1.744-8.761-1.01
			l1.894,1.283c0,0-5.059-2.507-12.233-1.166l3.073,1.334c0,0-8.736-2.841-13.713-1.06l3.054,1.181c0,0-2.867-1.38-9.762-1.053
			l1.145,1.273"/>
		<g>
			<path fill="#FDFEFF" stroke="#000000" stroke-miterlimit="10" d="M336.434,267.829c-0.948,1.4-1.37,3.141-1.036,4.934
				c0.254,1.375,0.917,2.585,1.841,3.532c-5.538-0.726-9.488-2.637-9.488-2.637C330.774,270.705,333.691,268.879,336.434,267.829z"
				/>
			<path fill="#FDFEFF" stroke="#000000" stroke-miterlimit="10" d="M347.871,267.504c4.814,1.563,7.803,4.727,7.803,4.727
				c-2.509,1.761-5.124,2.87-7.706,3.53c1.115-1.451,1.63-3.327,1.272-5.263C349.031,269.37,348.549,268.356,347.871,267.504z"/>
			<path stroke="#000000" stroke-miterlimit="10" d="M336.434,267.829c4.377-1.674,8.294-1.347,11.437-0.325
				c0.678,0.852,1.16,1.866,1.37,2.994c0.357,1.936-0.158,3.813-1.272,5.263c-3.806,0.97-7.532,0.955-10.73,0.534
				c-0.923-0.947-1.586-2.157-1.841-3.532C335.064,270.97,335.486,269.229,336.434,267.829z"/>
		</g>
		<g>
			<path fill="#FDFEFF" stroke="#000000" stroke-miterlimit="10" d="M396.667,267.313c0.986,1.454,1.434,3.251,1.105,5.089
				c-0.25,1.41-0.921,2.641-1.864,3.598c5.687-0.649,9.729-2.547,9.729-2.547C402.51,270.364,399.494,268.438,396.667,267.313z"/>
			<path fill="#FDFEFF" stroke="#000000" stroke-miterlimit="10" d="M384.907,266.781c-4.936,1.525-7.983,4.727-7.983,4.727
				c2.595,1.853,5.292,3.038,7.951,3.759c-1.156-1.51-1.703-3.447-1.35-5.43C383.73,268.679,384.219,267.646,384.907,266.781z"/>
			<path stroke="#000000" stroke-miterlimit="10" d="M396.667,267.313c-4.515-1.799-8.538-1.527-11.76-0.532
				c-0.688,0.865-1.177,1.898-1.382,3.056c-0.353,1.982,0.194,3.92,1.35,5.43c3.921,1.064,7.752,1.108,11.033,0.732
				c0.943-0.957,1.615-2.188,1.864-3.598C398.101,270.564,397.653,268.766,396.667,267.313z"/>
		</g>
		
			<ellipse transform="matrix(-0.998 -0.0634 0.0634 -0.998 667.8135 560.325)" fill="#FFFFFF" cx="342.793" cy="269.571" rx="2.335" ry="2.383"/>
		
			<ellipse transform="matrix(-0.998 -0.0633 0.0633 -0.998 759.7811 561.4293)" fill="#FFFFFF" cx="388.778" cy="268.687" rx="2.335" ry="2.383"/>
		<path fill="#FCA870" stroke="#000000" stroke-miterlimit="10" d="M365.929,272.243c0,0-10.864,20.736-6.071,22.174
			c0,0,2.206,0.918,3.705-0.436c0,0,3.108,1.74,6.26-0.214c0,0,3.145,1.461,4.739-1.376
			C374.562,292.392,375.91,285.818,365.929,272.243z"/>
		
			<ellipse transform="matrix(-0.998 -0.0635 0.0635 -0.998 713.6286 637.7148)" fill="#C1272D" stroke="#000000" stroke-miterlimit="10" cx="366.944" cy="307.521" rx="8.062" ry="11.274"/>
		<path stroke="#000000" stroke-width="2.134" stroke-miterlimit="10" d="M310.142,271.047c0,0,47.234-75.941,112.154-5.083
			c0,0,13.547-66.189-50.748-73.972C371.548,191.992,283.052,182.51,310.142,271.047z"/>
	</g>
	<ellipse fill="#FFBC87" stroke="#000000" stroke-miterlimit="10" cx="414.656" cy="273.275" rx="8.547" ry="10.635"/>
	<path fill="#DDABC0" stroke="#000000" stroke-miterlimit="10" d="M394.919,332.441c0,0,2.012,12.793,13.343,7.77
		c11.333-5.023,14.782-35.057,14.782-35.057s0.596-18.851-1.771-24.668L410,281.773C410,281.773,395.534,316.313,394.919,332.441z"
		/>
	<circle fill="#FFBC87" stroke="#000000" stroke-miterlimit="10" cx="305.919" cy="281.65" r="9.513"/>
	<path fill="#DDABC0" stroke="#000000" stroke-miterlimit="10" d="M351.21,325.223c0,0,4.222,12.242-8.142,13.119
		c-12.365,0.877-29.493-24.032-29.493-24.032s-9.367-16.371-10.004-22.619l10.56-4.148
		C314.131,287.542,343.104,311.266,351.21,325.223z"/>
	<path fill="none" stroke="#000000" stroke-miterlimit="10" d="M369.995,330.293c0,0-6.467,38.034,8.1,55.664"/>
	<path fill="#DDABC0" stroke="#000000" stroke-miterlimit="10" d="M376.924,358.382c0,0,11.317,5.961,28.713-0.257
		c0,0,2.323,12.822-1.87,16.676c0,0-12.806,7.253-22.099,1.359C381.668,376.16,375.127,372.109,376.924,358.382z"/>
	<path fill="#DDABC0" stroke="#000000" stroke-miterlimit="10" d="M341.626,355.088c0,0,8.52,6.176,22.957,2.021
		c0,0,0.74,11.564-2.945,14.656c0,0-10.861,5.436-17.771-0.524C343.868,371.24,338.995,367.132,341.626,355.088z"/>
	
		<line fill="none" stroke="#FF7BAC" stroke-width="2" stroke-miterlimit="10" x1="442.668" y1="334.707" x2="439.082" y2="339.168"/>
	<path stroke="#FFBC87" stroke-width="2.134" stroke-miterlimit="10" d="M362.95,190.841c0,0-9.19,14,0.68,48.269"/>
</g>
<g id="말풍선">
	<path fill="#FFFFFF" stroke="#000000" stroke-miterlimit="10" d="M277.842,71.837c-49.871,14.667-77.328,54.04-61.321,87.944
		c0.688,1.465,1.477,2.884,2.306,4.278l-14.429,12.38l34.996,8.233c24.325,15.563,61.234,20.288,96.403,9.946
		c49.867-14.666,77.322-54.04,61.322-87.943C381.111,72.771,327.711,57.173,277.842,71.837z"/>
	<path fill="#FFFFFF" stroke="#000000" stroke-miterlimit="10" d="M614.801,264.263c50.36,12.889,79.195,51.264,64.4,85.714
		c-0.635,1.49-1.373,2.936-2.151,4.357l14.858,11.861l-34.683,9.467c-23.757,16.417-60.476,22.447-95.99,13.36
		c-50.355-12.89-79.188-51.266-64.399-85.715C511.63,268.856,564.443,251.376,614.801,264.263z"/>
	<text transform="matrix(1 0 0 1 244.9995 115.333)"><tspan x="0" y="0" font-family="'Gungsuh'" font-size="20">아버지!</tspan><tspan x="0" y="24" font-family="'Gungsuh'" font-size="20">제비가 씨앗을 </tspan><tspan x="0" y="48" font-family="'Gungsuh'" font-size="20">물고왔어요!</tspan></text>
	<text transform="matrix(1 0 0 1 522 305)"><tspan x="0" y="0" font-family="'Gungsuh'" font-size="20">이 것은 </tspan><tspan x="0" y="24" font-family="'Gungsuh'" font-size="20">박씨구나.</tspan><tspan x="0" y="48" font-family="'Gungsuh'" font-size="20">고맙다 제비야!</tspan></text>
</g>
<g id="흥부">
	<path fill="#CCCCCC" stroke="#000000" stroke-miterlimit="10" d="M830.5,427.24c0,2.905-2.354,5.26-5.26,5.26h-11.48
		c-2.905,0-5.26-2.354-5.26-5.26v-13.48c0-2.905,2.354-5.26,5.26-5.26h11.48c2.905,0,5.26,2.354,5.26,5.26V427.24z"/>
	<path fill="#B3B3B3" stroke="#000000" stroke-miterlimit="10" d="M756.237,404.109c-0.48,2.864-3.586,4.731-6.935,4.171
		l-13.643-2.285c-3.35-0.561-5.675-3.338-5.194-6.203l2.171-12.968c0.48-2.865,3.584-4.733,6.934-4.174l13.643,2.286
		c3.349,0.561,5.676,3.339,5.195,6.203L756.237,404.109z"/>
	<g>
		<path fill="#FFFFFF" stroke="#000000" stroke-miterlimit="10" d="M743.232,465.504c0,0-25.148,4.274-21.203,17.752
			c0,0,3.944,17.752,40.928,3.616c0,0,13.807-4.561,5.26-22.005"/>
		<path fill="none" stroke="#8C6239" stroke-width="2" stroke-miterlimit="10" d="M736.887,467.104c0,0-6.947,7.581-1.076,7.277
			c11.461-0.595,22.234-4.97,33.409-7.277c0,0,4.29,9.073,0,14.667s-9.692,7.407-18.176,8.891s-18.475,5.44-28.019-5.174
			C723.025,485.488,714.761,473.636,736.887,467.104z"/>
		
			<line fill="none" stroke="#8C6239" stroke-width="2" stroke-miterlimit="10" x1="725.958" y1="488.302" x2="766.08" y2="483.914"/>
		
			<line fill="none" stroke="#8C6239" stroke-width="2" stroke-miterlimit="10" x1="721.609" y1="484.234" x2="771.009" y2="477.668"/>
		
			<line fill="none" stroke="#8C6239" stroke-width="2" stroke-miterlimit="10" x1="721.609" y1="479.093" x2="770.578" y2="471.153"/>
		
			<line fill="none" stroke="#8C6239" stroke-width="2" stroke-miterlimit="10" x1="725.152" y1="473.723" x2="733.638" y2="472.006"/>
		
			<line fill="none" stroke="#8C6239" stroke-width="2" stroke-miterlimit="10" x1="765.269" y1="468.001" x2="767.23" y2="482.764"/>
		
			<line fill="none" stroke="#8C6239" stroke-width="2" stroke-miterlimit="10" x1="759.259" y1="469.578" x2="760.401" y2="488.302"/>
		
			<line fill="none" stroke="#8C6239" stroke-width="2" stroke-miterlimit="10" x1="752.273" y1="471.153" x2="752.602" y2="491.475"/>
		
			<line fill="none" stroke="#8C6239" stroke-width="2" stroke-miterlimit="10" x1="743.232" y1="475.123" x2="744.219" y2="491.475"/>
		<line fill="none" stroke="#8C6239" stroke-width="2" stroke-miterlimit="10" x1="735" y1="476" x2="735" y2="492"/>
	</g>
	<g>
		<path fill="#FFFFFF" stroke="#000000" stroke-miterlimit="10" d="M821.212,464.173c0,0,23.874-0.653,22.831,12.767
			c0,0-0.229,17.444-36.833,11.016c0,0-13.532-1.725-9.026-19.734"/>
		<path fill="none" stroke="#8C6239" stroke-width="2" stroke-miterlimit="10" d="M827.335,464.499c0,0,7.819,5.844,2.378,6.65
			c-10.621,1.57-21.336-0.544-32.021-0.637c0,0-2.201,9.338,2.803,13.807c5.001,4.468,10.3,5.17,18.36,4.989
			c8.061-0.183,17.977,1.685,24.7-10.08C843.555,479.229,848.868,466.533,827.335,464.499z"/>
		
			<line fill="none" stroke="#8C6239" stroke-width="2" stroke-miterlimit="10" x1="841.404" y1="482.42" x2="803.779" y2="485.753"/>
		
			<line fill="none" stroke="#8C6239" stroke-width="2" stroke-miterlimit="10" x1="844.615" y1="477.783" x2="798.07" y2="480.788"/>
		
			<line fill="none" stroke="#8C6239" stroke-width="2" stroke-miterlimit="10" x1="843.633" y1="472.943" x2="797.221" y2="474.575"/>
		
			<line fill="none" stroke="#8C6239" stroke-width="2" stroke-miterlimit="10" x1="839.358" y1="468.547" x2="831.25" y2="468.508"/>
		
			<line fill="none" stroke="#8C6239" stroke-width="2" stroke-miterlimit="10" x1="801.485" y1="470.622" x2="802.506" y2="484.884"/>
		
			<line fill="none" stroke="#8C6239" stroke-width="2" stroke-miterlimit="10" x1="807.296" y1="470.987" x2="809.824" y2="488.826"/>
		
			<line fill="none" stroke="#8C6239" stroke-width="2" stroke-miterlimit="10" x1="814.003" y1="471.173" x2="817.58" y2="490.363"/>
		
			<line fill="none" stroke="#8C6239" stroke-width="2" stroke-miterlimit="10" x1="823.049" y1="473.226" x2="825.266" y2="488.805"/>
		
			<line fill="none" stroke="#8C6239" stroke-width="2" stroke-miterlimit="10" x1="831.425" y1="472.412" x2="834.436" y2="487.267"/>
	</g>
	<path fill="#4D4D4D" stroke="#000000" stroke-miterlimit="10" d="M743.5,462v3.504c0,0,14,9.575,25-0.637V460"/>
	<path fill="#4D4D4D" stroke="#000000" stroke-miterlimit="10" d="M798.5,463v5.135c0,0,14.401,5.629,22.066-3.268l0.606-4.561"/>
	<path fill="#666666" stroke="#000000" stroke-miterlimit="10" d="M730.458,375.174c-5.962,6.085-4.434,30.936-4.461,38.634
		c-0.058,16.827,4.808,50.887,27.876,50.961c28.271,0.09,23.961-41.753,23.213-59.277c0.873,20.443,4.381,68.296,35.89,57.923
		c31.88-10.495,16.752-66.453,11.224-88.24C804.917,299.191,730.488,375.144,730.458,375.174z"/>
	<g>
		<path fill="#B3B3B3" stroke="#000000" stroke-miterlimit="10" d="M735.297,291.66c0,0-24.526,61.195-5.897,85.304
			c0,0,65.586,16.447,93.938-3.935c0,0,13.569-38.71-10.658-81.369S735.297,291.66,735.297,291.66z"/>
		<path fill="none" stroke="#000000" stroke-miterlimit="10" d="M773.678,298.134c0,0,10.52,39.896,1.092,85.01"/>
		<path fill="#666666" stroke="#000000" stroke-miterlimit="10" d="M735.316,342.127c0,0,15.781,7.89,32.437,0
			c0,0,3.069,20.162-2.63,22.354c0,0-15.341,6.795-28.271-2.191C736.852,362.29,733.782,360.097,735.316,342.127z"/>
		<path fill="#666666" stroke="#000000" stroke-miterlimit="10" d="M785.285,342.127c0,0,15.78,7.89,32.436,0
			c0,0,3.069,20.162-2.63,22.354c0,0-15.34,6.795-28.271-2.191C786.819,362.29,783.75,360.097,785.285,342.127z"/>
	</g>
	<path fill="#FFBC87" stroke="#000000" stroke-miterlimit="10" d="M736.782,362.98c0,0,6.247,16.876,15.67,7.014
		c0,0,3.616-2.193-1.314-11.945c0,0,0.328-1.13,4.603,0.586c0,0,3.724-1.589-4.385-6.237c0,0-2.915-1.087-7.232-0.759"/>
	<path fill="#FFBC87" stroke="#000000" stroke-miterlimit="10" d="M812.563,362.847c0,0-8.223,16.007-16.397,5.087
		c0,0-3.326-2.611,2.736-11.701c0,0-0.191-1.162-4.64,0.029c0,0-3.507-2.022,5.1-5.667c0,0,3.023-0.729,7.271,0.112"/>
	<path fill="#333333" stroke="#000000" stroke-miterlimit="10" d="M733.054,363.003l3.246,3.39c0,0,9.524-10.09,6.721-16.557
		l-4.302-1.984"/>
	<path fill="#333333" stroke="#000000" stroke-miterlimit="10" d="M817.708,362.353l-3.259,3.375c0,0-9.486-10.123-6.659-16.58
		l4.31-1.968"/>
	<path fill="#666666" stroke="#000000" stroke-miterlimit="10" d="M725.967,287.174c-5.61-0.345-20.088,26.511-21.903,30.863
		c-7.174,17.209-0.345,31.541,12.427,41.217c25.383,19.231,32.594-13.408,10.707-31.024l16.877-39.935
		C744.074,288.295,726.048,287.18,725.967,287.174z"/>
	<path fill="#666666" stroke="#000000" stroke-miterlimit="10" d="M826.32,285.504c5.609-0.346,20.087,26.509,21.903,30.862
		c7.175,17.209,0.345,31.541-12.428,41.218c-25.382,19.231-32.594-13.41-10.707-31.024l-16.877-39.937
		C808.212,286.623,826.239,285.509,826.32,285.504z"/>
	<path fill="#FFBC87" stroke="#000000" stroke-width="2" stroke-miterlimit="10" d="M849.366,182.752
		c0,0,32.544-25.439,22.463,32.418c0,0,3.686,18.83-10.186,18.83H853"/>
	<path fill="#FFBC87" stroke="#000000" stroke-width="2" stroke-miterlimit="10" d="M693.441,195.961
		c0,0-35.337-21.358-18.424,34.884c0,0-1.402,19.15,12.369,17.496l8.55-1.028"/>
	<path fill="#FFBC87" stroke="#000000" stroke-width="2.134" stroke-miterlimit="10" d="M696.113,190.311
		c-3.708,0.952-2.09,33.48-1.905,36.459c4.192,67.54,67.246,83.991,125.505,62.533c45.927-16.918,33.358-81.859,26.923-118.349
		C843.389,152.551,696.215,190.285,696.113,190.311z"/>
	<path stroke="#000000" stroke-width="2.134" stroke-miterlimit="10" d="M702.305,160.589c0,0,3.07-53.632,69.228-46.836
		c0,0,68.633-5.481,72.217,37.476L702.305,160.589z"/>
	<path fill="#333333" stroke="#000000" stroke-width="2.134" stroke-miterlimit="10" d="M693.6,194.561
		c0,0,70.041-30.467,155.867-14.983l-5.718-28.349c0,0-84.438-11.657-143.099,9.951L693.6,194.561z"/>
	<path stroke="#000000" stroke-width="2" stroke-miterlimit="10" d="M771.532,113.753c0,0-6.165-32.652,17.504-28.27
		c0,0,20.163-0.317,9.644,27.674L771.532,113.753z"/>
	<path fill="none" stroke="#000000" stroke-width="3" stroke-miterlimit="10" d="M788.613,196.528c0,0,2.802-2.915,12.002-3.057
		l-2.398,2.19c0,0,6.58-4.529,16.807-3.92l-4.032,2.479c0,0,11.635-5.68,18.886-4.038l-4.032,2.256c0,0,3.737-2.507,13.39-3.303
		l-1.358,2.038"/>
	<path fill="none" stroke="#000000" stroke-width="3" stroke-miterlimit="10" d="M760.485,196.646c0,0-2.938-2.78-12.134-2.489
		l2.498,2.075c0,0-6.785-4.213-16.972-3.123l4.144,2.286c0,0-11.889-5.125-19.056-3.141l4.136,2.063c0,0-3.852-2.327-13.531-2.667
		l1.453,1.972"/>
	<g>
		<path fill="#FDFEFF" stroke="#000000" stroke-miterlimit="10" d="M818.973,206.848c1.501,2.003,2.275,4.555,1.967,7.238
			c-0.236,2.058-1.076,3.901-2.317,5.375c7.918-1.492,13.431-4.623,13.431-4.623C827.413,210.685,823.027,208.197,818.973,206.848z"
			/>
		<path fill="#FDFEFF" stroke="#000000" stroke-miterlimit="10" d="M802.445,207.226c-6.794,2.681-10.803,7.599-10.803,7.599
			c3.789,2.421,7.666,3.868,11.451,4.651c-1.743-2.067-2.67-4.811-2.337-7.706C800.951,210.08,801.552,208.539,802.445,207.226z"/>
		<path stroke="#000000" stroke-miterlimit="10" d="M818.973,206.848c-6.474-2.155-12.093-1.371-16.527,0.378
			c-0.894,1.313-1.494,2.854-1.688,4.544c-0.333,2.896,0.594,5.639,2.337,7.706c5.584,1.153,10.957,0.848,15.528-0.016
			c1.241-1.474,2.081-3.317,2.317-5.375C821.248,211.403,820.474,208.851,818.973,206.848z"/>
	</g>
	<g>
		<path fill="#FDFEFF" stroke="#000000" stroke-miterlimit="10" d="M730.038,208.317c-1.456,2.035-2.174,4.604-1.807,7.28
			c0.281,2.052,1.162,3.875,2.436,5.321c-7.948-1.316-13.528-4.326-13.528-4.326C721.685,212.339,726.014,209.755,730.038,208.317z"
			/>
		<path fill="#FDFEFF" stroke="#000000" stroke-miterlimit="10" d="M746.57,208.33c6.851,2.533,10.969,7.361,10.969,7.361
			c-3.735,2.503-7.58,4.035-11.348,4.901c1.697-2.104,2.563-4.867,2.168-7.755C748.128,211.151,747.493,209.624,746.57,208.33z"/>
		<path stroke="#000000" stroke-miterlimit="10" d="M730.038,208.317c6.426-2.296,12.061-1.639,16.532,0.013
			c0.923,1.294,1.558,2.821,1.789,4.507c0.395,2.888-0.471,5.65-2.168,7.755c-5.557,1.277-10.935,1.088-15.524,0.326
			c-1.273-1.446-2.154-3.269-2.436-5.321C727.864,212.92,728.582,210.352,730.038,208.317z"/>
	</g>
	<path fill="#FCA870" stroke="#000000" stroke-miterlimit="10" d="M774.751,209.245c0,0-24.164,41.881-14.582,45.501
		c0,0,4.384,2.201,7.563-0.432c0,0,6.132,4.035,12.728,0.362c0,0,6.232,3.456,9.761-2.26
		C790.22,252.417,793.623,238.872,774.751,209.245z"/>
	<path fill="none" stroke="#000000" stroke-width="0.5" stroke-miterlimit="10" d="M712.495,237.688c0,0,15.944,13.972,20.711,35.34
		"/>
	<path fill="none" stroke="#000000" stroke-width="0.5" stroke-miterlimit="10" d="M817.427,270.972c0,0,3.179-20.96,18.612-36.488"
		/>
	<ellipse fill="#FFFFFF" cx="735.625" cy="212.51" rx="2.567" ry="2.107"/>
	<ellipse fill="#FFFFFF" cx="806.317" cy="210.88" rx="2.567" ry="2.107"/>
	<path fill="none" stroke="#C1272D" stroke-width="4" stroke-linecap="round" stroke-miterlimit="10" d="M742.486,267.189
		c0,0,27.276,22.049,68.361,0"/>
</g>
<g id="제비랑_박씨">
	<g>
		<g>
			<polygon fill="#A67C52" points="481.418,115.688 478.531,108.87 480,107.75 494.391,108.87 493.625,111.219 			"/>
			<polyline fill="#A67C52" points="494.212,100.847 492.25,111.906 494.813,111.438 496.531,99.406 			"/>
			<path fill="#A67C52" stroke="#000000" stroke-miterlimit="10" d="M477.434,109.748c-0.74-1.073-0.531-2.482,0.753-3.041
				c2.084-0.904,3.75,1.353,5.587,1.868c0.614,0.172,1.255,0.22,1.89,0.235c1.274,0.031,2.535-0.271,3.807-0.313
				c0.936-0.032,1.88-0.001,2.816,0c0.237,0,0.476,0.005,0.714,0.002"/>
			<path fill="#A67C52" stroke="#000000" stroke-miterlimit="10" d="M478.985,114.656c0,0-2.767-1.031-2.892-2.969
				c0,0,0.094-2.156,2.344-1.688c0,0,6.906,0.866,9.344-0.067"/>
			<line fill="#A67C52" stroke="#000000" stroke-miterlimit="10" x1="494.125" y1="101.326" x2="492.625" y2="110"/>
			<path fill="#A67C52" stroke="#000000" stroke-miterlimit="10" d="M495.74,108.875c0.428-0.026,0.874,0.041,1.283,0.162
				c0.834,0.247,1.541,0.885,1.9,1.68c0.33,0.728,0.14,1.685-0.394,2.27c-0.421,0.462-1.064,0.809-1.666,0.958
				c-0.519,0.128-1.086,0.12-1.614,0.056l-4.125,0.04c-0.715,0.212-1.427,0.439-2.134,0.679c-1.539,0.522-3.117,0.994-4.514,1.847
				c-0.918,0.561-1.892,0.349-2.879,0.126c-1.145-0.257-2.448-0.538-2.33-2.005c0.032-0.401,0.136-0.861,0.3-1.23
				c0.267-0.604,0.85-0.981,1.455-1.208c0.31-0.116,0.636-0.179,0.965-0.213c0.378-0.039,0.765-0.004,1.127,0.112
				c0.365,0.117,0.697,0.335,1.081,0.394c0.609,0.093,1.231,0.077,1.843,0.012c0.859-0.091,1.711-0.303,2.537-0.553"/>
		</g>
		<line fill="#A67C52" stroke="#000000" stroke-miterlimit="10" x1="496.231" y1="101.339" x2="495.25" y2="110"/>
	</g>
	<g>
		<g>
			<polygon fill="#A67C52" points="525.762,115.688 528.648,108.87 527.18,107.75 512.789,108.87 513.555,111.219 			"/>
			<polyline fill="#A67C52" points="512.968,100.847 514.93,111.906 512.367,111.438 510.648,99.406 			"/>
			<path fill="#A67C52" stroke="#000000" stroke-miterlimit="10" d="M529.746,109.748c0.74-1.073,0.531-2.482-0.753-3.041
				c-2.085-0.904-3.75,1.353-5.587,1.868c-0.614,0.172-1.255,0.22-1.89,0.235c-1.274,0.031-2.535-0.271-3.807-0.313
				c-0.936-0.032-1.88-0.001-2.816,0c-0.237,0-0.476,0.005-0.714,0.002"/>
			<path fill="#A67C52" stroke="#000000" stroke-miterlimit="10" d="M528.194,114.656c0,0,2.767-1.031,2.892-2.969
				c0,0-0.094-2.156-2.344-1.688c0,0-6.906,0.866-9.344-0.067"/>
			<line fill="#A67C52" stroke="#000000" stroke-miterlimit="10" x1="513.055" y1="101.326" x2="514.555" y2="110"/>
			<path fill="#A67C52" stroke="#000000" stroke-miterlimit="10" d="M511.439,108.875c-0.428-0.026-0.874,0.041-1.283,0.162
				c-0.834,0.247-1.541,0.885-1.9,1.68c-0.33,0.728-0.14,1.685,0.394,2.27c0.421,0.462,1.064,0.809,1.666,0.958
				c0.519,0.128,1.086,0.12,1.614,0.056l4.125,0.04c0.715,0.212,1.427,0.439,2.134,0.679c1.539,0.522,3.117,0.994,4.514,1.847
				c0.918,0.561,1.892,0.349,2.879,0.126c1.145-0.257,2.448-0.538,2.329-2.005c-0.031-0.401-0.136-0.861-0.299-1.23
				c-0.268-0.604-0.851-0.981-1.455-1.208c-0.31-0.116-0.636-0.179-0.965-0.213c-0.378-0.039-0.765-0.004-1.127,0.112
				c-0.365,0.117-0.697,0.335-1.081,0.394c-0.609,0.093-1.231,0.077-1.843,0.012c-0.859-0.091-1.711-0.303-2.537-0.553"/>
		</g>
		<line fill="#A67C52" stroke="#000000" stroke-miterlimit="10" x1="510.948" y1="101.339" x2="511.93" y2="110"/>
	</g>
	<path fill="#39B54A" stroke="#000000" stroke-linecap="round" stroke-miterlimit="10" d="M805.779,361.649
		c0,0-10.563,13.051-23.593,13.051s-23.593-13.051-23.593-13.051s10.563-13.051,23.593-13.051S805.779,361.649,805.779,361.649z"/>
	<g>
		<path fill="#FBB03B" d="M494.083,50.75l-14.75,16l10,26l13.287,1.083l7.169,0.315c0,0,5.282-0.148,6.205-0.482
			s2.923-2.292,2.923-2.292L502.25,52.314L494.083,50.75z"/>
		<path fill="#FFFFFF" d="M504.667,77.25l-6.834-6.583l0.834-9.167l-0.403-2.989l5.995-2.959c0,0,18.855,0.385,18.882,0
			s5.359-0.468,5.359-0.468l6.667,10.119l1.498,4.215"/>
		<g>
			<polyline fill="#F7931E" stroke="#000000" stroke-miterlimit="10" points="472.301,57.797 488.58,48.603 491.781,52.838 
				482.654,62.5 478,62.5 474.163,61.801 			"/>
			<path fill="#F7931E" stroke="#000000" stroke-miterlimit="10" d="M491.779,52.716c0,0-8.717-9.153-7.654-19.028
				c0,0-9.438-2.188-18.125,5.563c0,0,0.188,2.313,5.875,9.375c0,0-7.259-5.625-7.879-7.313c0,0-3.808,2.438-5.246,8.688
				c0,0,1.406,5.077,9.047,10.882"/>
			<path fill="#F7931E" stroke="#000000" stroke-miterlimit="10" d="M475.265,34.563c0,0-0.11,11.657,11.813,22.766"/>
		</g>
		<path fill="#FBB03B" stroke="#000000" stroke-miterlimit="10" d="M507.904,99.494c0,0,4.417,5.776,8.09-3.109"/>
		<g>
			<polygon fill="#FBB03B" points="491,34 491,30 509,6.667 517.667,1.907 523.141,3.667 530.375,12.206 533.521,24 535.188,29.167 
				536,32.667 536,35 			"/>
			<path fill="#FBB03B" stroke="#000000" stroke-miterlimit="10" d="M490.242,33.103c0,0-1.535-13.632,10.96-20.353
				c0,0,4.798-13.875,19.173-11.75c0,0-1.125,6.375-7.5,4.125"/>
			<path fill="#FBB03B" stroke="#000000" stroke-miterlimit="10" d="M519.97,2.29c0,0,5.772-2.29,13.214,4.335
				c0,0-6.712,5.38-13.214,0"/>
			<path fill="#FBB03B" stroke="#000000" stroke-miterlimit="10" d="M528.625,9.016c0,0,4.742,3.234,4.559,6.359
				c0,0-4.781,0.375-6.607-2.125"/>
			<path fill="#FBB03B" stroke="#000000" stroke-miterlimit="10" d="M536.625,36.125c0.625-13.625-6.25-20.73-6.25-20.73"/>
			<path fill="#FBB03B" stroke="#000000" stroke-miterlimit="10" d="M536.665,34.079c0,0,10.71,14.296-11.415,24.171
				c0,0-22.5,5.625-33.5-8.875c0,0-8.625-9.625,0-17.125"/>
			<path fill="#F7931E" stroke="#000000" stroke-miterlimit="10" d="M513.002,42.17c0,0,0.873,11.08,14.123,10.08
				c0,0,4.182-0.141,6.153-5.008"/>
			<path fill="#F7931E" stroke="#000000" stroke-miterlimit="10" d="M517.679,36.04c0,0,10.026-11.915,18.986,6.96
				c0,0,1.835,3.625,0.71,7.75c0,0-1.234-4.125-7.492-3.875c0,0-9.758,2.58-15.508-5.335"/>
			<path fill="#FBB03B" stroke="#000000" stroke-miterlimit="10" d="M507.125,33.5c0,0,10.75-2.625,11.25,6.625
				c0,0-4.125,6.375-12.375,0.75"/>
		</g>
		<line fill="#FBB03B" stroke="#000000" stroke-miterlimit="10" x1="493.307" y1="51.217" x2="483.845" y2="60.5"/>
		<g>
			<polygon fill="#FBB03B" stroke="#000000" stroke-miterlimit="10" points="475.917,61.5 472.293,65.285 475.583,73.389 
				483.851,75.104 485.5,69.26 480,63.754 476.417,61.5 			"/>
			<path fill="#FBB03B" stroke="#000000" stroke-miterlimit="10" d="M474.552,62.761c0,0,0.711-4.636,2.58-6.198
				c0,0,2.538,1.342,4.287,8.64"/>
			<path fill="#FBB03B" stroke="#000000" stroke-miterlimit="10" d="M481.418,71.312c0,0-3.22-10.187,8.765-14.749
				c0,0,11.983-4.063,12.817,13.104c0,0,2.025,12.167-10.987,19.333c0,0-10.685,7.272-22.846-9.667c0,0-5.748-5.334-5.124-12.167
				c0,0,0.264-0.666,3.777,1.167"/>
			<path fill="#FBB03B" stroke="#000000" stroke-miterlimit="10" d="M471,73.348c0,0-4.859-3.181-3.18-12.014
				c0,0-0.354-3.667,1.413-7.333c0,0,2.171-1.167,7.886,15.833"/>
		</g>
		<path fill="#FBB03B" stroke="#000000" stroke-miterlimit="10" d="M483.851,90.552c0,0,21.316,22.11,40.816-2.052"/>
		<path fill="#FBB03B" stroke="#000000" stroke-miterlimit="10" d="M493.307,94.149c0,0-3.973,4.669,1.86,7.177
			c0,0,6.334,0.507,5.167-5.659"/>
		<g>
			<line fill="#FFFFFF" stroke="#000000" stroke-miterlimit="10" x1="500.892" y1="56.563" x2="499.176" y2="58.511"/>
			<path fill="#FFFFFF" stroke="#000000" stroke-miterlimit="10" d="M529.863,55.858c0,0-2.184-0.192,9.394,12.642
				c0,0-3.967,1-4.778-1"/>
			<path fill="#FFFFFF" stroke="#000000" stroke-miterlimit="10" d="M537.74,68.75c0,0,1.197,6.313-0.553,8.438l-1.688-2.75
				c0,0-0.938,14.688-21.125,16.938c0,0-10.01-11.844-11.755-15.641"/>
		</g>
	</g>
	<path fill="none" stroke="#000000" stroke-width="2" stroke-linecap="round" stroke-miterlimit="10" d="M510.648,29.667
		c0,0,5.124-7,9.321,0"/>
	<path fill="none" stroke="#000000" stroke-width="2" stroke-linecap="round" stroke-miterlimit="10" d="M527.899,29.667
		c0,0,4.437-5.327,8.07,0"/>
</g>
</svg>
