<?xml version="1.0" encoding="utf-8"?>
<!-- Generator: Adobe Illustrator 16.0.0, SVG Export Plug-In . SVG Version: 6.00 Build 0)  -->
<!DOCTYPE svg PUBLIC "-//W3C//DTD SVG 1.1//EN" "http://www.w3.org/Graphics/SVG/1.1/DTD/svg11.dtd">
<svg version="1.1" xmlns="http://www.w3.org/2000/svg" xmlns:xlink="http://www.w3.org/1999/xlink" x="0px" y="0px" width="960px"
	 height="560px" viewBox="0 0 960 560" enable-background="new 0 0 960 560" xml:space="preserve">
<g id="배경">
	<rect x="-50.5" y="-40.5" fill="#754C24" stroke="#000000" stroke-miterlimit="10" width="1039" height="641"/>
</g>
<g id="손">
	<path fill="none" d="M477.167,332.38c-0.026-0.001-0.045-0.001-0.07-0.002c0.025,0.015,0.046,0.031,0.07,0.047
		C477.167,332.41,477.167,332.396,477.167,332.38z"/>
	<path fill="none" d="M484.789,551.506c-0.829-10.188-2.072-19.732-5.855-29.456c-3.554-9.137-6.813-17.953-8.08-27.587
		c-0.765-5.823-1.114-14.929-1.273-21.637c-0.017,0.063-0.03,0.126-0.046,0.188c-8.144,31.267-26.097,60.457-29.336,92.605
		c15.428-0.133,30.856-0.265,46.283-0.396c-0.049-0.327-0.098-0.647-0.149-0.952C485.615,560.021,485.138,555.789,484.789,551.506z"
		/>
	<path fill="#F4A36C" d="M700.357,210.192c-0.071-0.051-0.132-0.114-0.215-0.165c-8.858-5.378-19.309-7.118-23.466-16.898
		c-4.145-9.739-4.3-19.717,8.194-24.286c0.783-0.291,1.152-0.912,1.175-1.513c2.851,2.113,4.431,5.719,5.143,9.386
		c0.867,4.403,0.736,8.9,1.579,13.314C694.098,196.931,697.174,203.759,700.357,210.192z"/>
	<path fill="#F4A36C" d="M288.843,158.99c-1.757,10.858-9.845,20.805-22.884,21.323c0.499-0.933,0.903-1.896,0.985-2.933
		c1.959-4.476,2.458-9.832,3.54-14.287c1.639-6.786,3.123-15.645,8.752-20.918c3.373-3.17,7.506-0.415,8.942,2.829
		C290.078,149.282,289.556,154.545,288.843,158.99z"/>
	<path fill="#FFBC87" d="M716.093,296.933c-2.162,20.131,4.085,41.63-3.089,61.181c-3.563,9.688-7.35,19.25-10.651,29.01
		c-1.771,5.212-3.67,10.382-5.844,15.469c-1.15,2.685-2.458,5.305-3.848,7.906c-0.51,0.963-1.426,1.906-0.998,3.004
		c0.037,0.104,0.084,0.197,0.144,0.28c-3.35,11.572-12.436,22.13-18.586,32.656c-7.173,12.288-13.349,24.307-15.284,38.117
		c-1.899,13.636-0.487,27.601,1.663,41.143c2.031,12.724,4.311,25.788,9.216,37.962c-43.584,0.373-87.167,0.746-130.738,1.119
		c-16.128,0.146-32.267,0.28-48.394,0.414c-0.368-2.476-0.439-5.118-0.63-6.6c-0.534-4.145-0.796-8.319-1.128-12.484
		c-0.701-8.672-2.41-16.743-5.558-25.011c-3.634-9.563-6.876-18.463-8.194-28.523c-1.247-9.501-1.164-19.074-1.164-28.398
		c0-0.851-0.594-1.347-1.307-1.503c2.34-14.173,2.388-28.688,2.993-42.945c0.843-20.058,1.021-40.158-0.499-60.195
		c-0.024-0.374-0.178-0.685-0.403-0.912c0.771-7.792,1.496-15.583,2.137-23.374c0.356-0.021,0.629-0.124,0.998-0.279
		c0.059-0.021,0.071-0.052,0.071-0.073v0.166c6-3.905,14.833-7.242,23.218-7.148c5.842,0.052,11.251,2.372,17.022,2.963
		c6.83,0.704,13.666-0.467,20.34-1.721c7.767-1.449,15.284-3.813,22.623-6.454c7.41-2.673,15.181-4.331,22.889-6.196
		c12.457-3.015,26.01-6.838,37.481-12.101c2.043-0.922,0.24-3.606-1.791-2.673c-11.864,5.429-25.913,9.18-38.775,12.288
		c-15.366,3.719-29.96,9.613-45.552,12.546c-7.993,1.492-15.153,1.845-23.063,0.093c-5.617-1.232-10.829-2.227-16.661-1.595
		c-6.377,0.694-12.968,3.554-18.502,6.548c2.59-32.314,3.764-64.62,1.282-97.049c-1.176-15.324-2.589-30.388-6.531-45.183
		c0.499-0.228,0.867-0.663,0.843-1.316c-0.511-15.386,1.948-36.149,14.394-48.105c0.819,3.025,1.745,6.009,2.637,8.91
		c3.159,10.381,8.253,20.297,11.021,30.72c1.508,5.636,2.268,11.417,3.586,17.095c1.365,5.854,3.326,11.646,4.977,17.437
		c3.324,11.583,6.092,23.094,7.968,34.926c0.902,5.658,2.565,11.118,3.741,16.723c0.559,2.704,1.199,7.905,3.336,10.061
		c0.796,0.809,2.186,0.456,2.791-0.311c0.179-0.228,0.357-0.457,0.523-0.674c0.808-1.026-0.06-2-1.141-2.217
		c-0.179-0.798-0.345-1.803-0.45-2.094c-0.975-2.414-1.496-4.952-2.02-7.459c-0.901-4.352-2.28-8.579-3.04-12.972
		c-1.58-9.117-3.146-18.1-5.547-27.093c-2.422-9.086-5.355-18.059-7.707-27.155c-2.47-9.584-3.503-19.043-7.647-28.274
		c-3.599-8.051-6.045-16.474-8.551-24.814c-2.398-7.957-4.88-16.266-2.445-24.441c1.77-5.937,7.434-10.06,13.182-13.075
		c5.652-2.963,14.678-5.74,16.769,1.896c0.118,0.394,0.344,0.673,0.641,0.85c-0.535,1.451-0.962,2.932-1.271,4.383
		c-2.172,10.04,4.478,19.478,9.288,28.119c6.223,11.179,12.124,22.131,19.736,32.657c3.742,5.16,7.067,10.485,9.479,16.225
		c2.422,5.761,3.313,12.029,4.737,18.018c3.004,12.65,6.199,25.259,8.55,38.013c1.093,5.958,1.676,11.957,2.636,17.925
		c0.583,3.636,0.796,8.433,3.397,11.51c1.342,1.596,4.442,0.042,3.064-1.575c-2.103-2.487-2.305-6.496-2.815-9.46
		c-0.89-5.098-1.366-10.257-2.186-15.365c-1.744-10.868-4.334-21.633-6.922-32.377c-2.459-10.205-3.956-20.949-8.408-30.657
		c-4.312-9.387-11.591-17.385-17.042-26.244c-5.688-9.273-10.558-18.992-15.782-28.472c-5.831-10.588-6.615-23.363,4.062-32.004
		c8.966-7.263,22.22-3.398,30.033,3.046c6.317,5.211,10.319,12.101,15.676,18.007c0.511,0.57,1.175,0.643,1.734,0.425
		c0.808,5.491,3.538,11.023,5.949,16.37c3.159,7.024,5.641,14.277,8.823,21.302c3.075,6.786,7.268,13.168,11.259,19.582
		c8.063,12.951,15.96,25.923,20.069,40.314c2.695,9.429,4.203,19.499,5.605,29.124c1.141,7.843,3.717,20.784-2.839,27.373
		c-0.451,0.425-0.961,0.787-1.555,1.078c-1.925,1.078-0.144,3.761,1.805,2.673c6.223-3.482,6.958-10.745,7.183-16.619
		c0.357-9.294-1.554-18.68-3.336-27.808c-2.113-10.754-4.264-21.177-8.906-31.382c-5.618-12.361-13.55-23.809-20.628-35.548
		c-7.518-12.485-12.611-26.462-18.17-39.703c-2.601-6.206-3.147-12.868,0.986-18.639c6.364-8.91,17.635-7.563,25.853-1.989
		c5.772,3.927,10.356,9.221,15.355,13.842c5.819,5.367,11.722,10.662,16.876,16.536c4.56,5.18,8.36,10.951,12.54,16.38
		c3.646,4.714,7.304,9.5,10.047,14.691c-6.995,4.663-11.829,11.729-14.132,19.043c-3.635,11.49-2.125,24.027-0.132,35.631
		c1.045,6.102,2.566,12.132,3.968,18.183c1.876,8.081,5.046,15.531,3.573,23.913c-2.148,12.371-7.445,24.265-10.318,36.563
		c-14.94,1.192-26.815,11.967-34.916,22.142c-0.415-0.736-1.411-1.254-2.493-0.768c-16.388,7.377-32.966,14.443-49.058,22.317
		c-10.356,5.066-24.368,9.107-32.053,17.293c-1.449,1.532,1.057,3.749,2.518,2.195c7.446-7.926,21.294-11.832,31.329-16.805
		c15.615-7.739,31.79-14.578,47.764-21.736c-11.936,14.919-24.43,29.486-34.726,45.349c-5.046,7.771-9.358,15.893-14.262,23.736
		c-4.881,7.791-9.405,15.707-12.352,24.233c-1.924,5.563-2.815,11.418-4.098,17.106c-1.162,5.159-1.935,12.972-6.078,17.096
		c-1.51,1.501,0.996,3.708,2.517,2.195c2.98-2.963,4.038-7.231,5.118-10.951c1.757-6.05,2.874-12.246,4.275-18.38
		c3.635-15.997,14.215-29.124,22.076-43.618c8.8-16.257,20.938-31.011,32.825-45.619c10.059-12.34,21.66-30.647,40.924-32.604
		c-0.215,1.119-0.429,2.236-0.595,3.367c-1.994,13.51,4.395,25.311,10.747,37.152c0.962,1.813,4.038,0.229,3.064-1.574
		c-3.574-6.673-7.434-12.909-9.181-20.203c-1.888-7.885-1.472-15.21,0.57-23.012c2.008-7.677,4.192-15.323,6.437-22.949
		c1.77-5.957,3.706-11.583,3.896-17.562c4.893-0.321,9.714-1.574,14.31-2.984c3.444-1.067,7.826-2.32,10.096-4.963
		c1.388-1.605-1.712-3.148-3.064-1.574c-2.02,2.341-7.292,3.357-10.273,4.227c-3.563,1.036-7.35,1.937-11.126,2.186
		c-0.036-0.486-0.095-0.983-0.156-1.471c-0.818-6.185-3.146-12.277-4.618-18.37c-1.687-6.931-3.172-13.893-4.132-20.928
		c-1.759-12.723-2.21-27.798,6.602-38.739c4.347-5.377,11.15-9.75,18.525-11.159c2.531-0.487,4.644-0.311,6.426,0.3
		c-11.437,4.362-14.81,12.516-12.054,22.918c1.531,5.823,4.417,11.21,9.702,15.106c5.059,3.729,11.757,5.398,17.172,8.692
		c1.317,0.798,2.577-0.27,2.589-1.368c0.048,0.083,0.083,0.166,0.131,0.249c3.124,6.257,6.911,12.215,10.996,18.027
		c4.762,6.807,9.512,13.8,9.714,21.996c0.179,7.025-2.896,14.06-3.895,21.012C716.721,280.615,716.947,288.894,716.093,296.933z"/>
	<path fill="#FFBC87" d="M474.198,306.692c-0.998,7.822-1.567,15.697-2.054,23.581c-0.131-0.083-0.273-0.154-0.44-0.217
		c-19.832-6.849-42.051-5.159-62.371-10.631c-12.006-3.232-23.205-9.604-33.501-15.769c-4.798-2.86-8.847-6.403-13.443-9.449
		c-4.644-3.066-11.306-5.729-13.538-10.724c-0.832-1.844-4.275-1.046-3.445,0.83c1.485,3.304,4.169,5.635,7.435,7.729
		c5.012,3.212,9.727,6.559,14.548,9.978c9.821,6.983,21.352,13.147,32.872,17.717c22.361,8.857,47.917,5.521,70.493,13.324
		c0.475,0.154,0.879,0.134,1.211,0c-0.535,9.179-1.01,18.38-1.924,27.507c-0.059,0.643,0.262,1.078,0.748,1.306
		c1.283,18.588,1.129,37.206,0.428,55.813c-0.736,19.354-0.855,38.916-6.009,57.824c-8.289,30.45-25.426,58.756-28.573,90.139
		c-40.472,0.352-80.932,0.694-121.404,1.036c-20.688,0.186-41.375,0.362-62.063,0.538c-1.211,0.01-2.411,0.021-3.622,0.031
		c0.036-0.197,0.083-0.591,0.309-1.357c1.521-5.057,5.06-9.677,7.589-14.381c13.277-24.762,19.464-52.633,20.568-79.84
		c0.25-6.134,0.107-12.267-0.355-18.38c-0.035-0.477-0.273-0.839-0.605-1.088c0.023-0.146,0.035-0.301,0.011-0.467
		c-3.016-20.772-13.359-40.272-21.222-59.875c-4.275-10.661-7.422-21.581-11.412-32.304c-4.05-10.921-8.74-21.696-10.771-33.083
		c-0.084-0.445-0.333-0.746-0.653-0.922c0.071-0.311,0.047-0.652-0.119-1.005c-5.308-10.578-0.594-23.663,1.781-34.408
		c2.565-11.572,2.066-23.25,2.672-34.988c0.333-6.548,0.713-13.034,0.464-19.592c-0.25-6.786-0.464-13.572,1.793-20.151
		c2.186-6.382,8.017-11.904,12.588-17.043c1.9-2.124,3.705-4.3,5.285-6.61c1.829-2.683,2.505-5.843,4.821-8.299
		c0.095-0.104,0.178-0.208,0.237-0.311c0.238,0.135,0.534,0.228,0.879,0.249c14.654,0.777,25.058-8.828,28.24-20.639
		c1.366-5.066,3.017-15.676-1.175-21.333c8.408,0.362,12.387,8.102,14.512,14.453c3.468,10.351,3.479,21.633,2.517,32.294
		c-0.938,10.506-3.301,21.354-8.336,31c-4.738,9.076-15.213,17.344-27.136,10.019c-1.889-1.15-3.669,1.543-1.805,2.693
		c6.424,3.937,13.336,3.834,19.214,1.316c6.152,5.699,4.88,16.142,6.033,23.415c1.722,10.858,5.07,21.602,6.258,32.492
		c1.983,18.307-12.767,31.62-24.737,44.976c-1.401,1.555,1.104,3.771,2.518,2.196c12.814-14.288,27.041-27.611,25.793-46.913
		c0.891,0.331,2.138,0.113,2.578-0.912c-0.63,1.472-0.975,0.621,0.664,1.844c1.117,0.84,2.126,1.783,3.147,2.715
		c1.806,1.647,3.503,3.398,5.178,5.16c5.462,5.75,10.735,11.697,15.901,17.644c5.807,6.683,10.699,13.853,16.115,20.753
		c4.644,5.905,9.845,11.47,14.856,17.127c10.415,11.78,18.681,24.088,21.139,39.038c2.98,18.111,6.614,36.688,3.278,54.964
		c-0.356,1.959,3.076,2.808,3.444,0.83c3.432-18.867-0.178-37.921-3.29-56.622c-2.827-17.013-13.063-30.347-24.927-43.63
		c-13.396-15.002-24.726-31.165-38.311-46.053c-1.889-2.072-15.984-19.115-20.011-15.511c-0.119-1.232-0.296-2.455-0.475-3.678
		c16.221,4.973,25.045,19.437,38.382,28.108c8.479,5.513,18.811,8.807,27.599,13.978c4.75,2.797,8.788,6.03,12.909,9.469
		c3.242,2.705,7.458,4.746,10.546,7.45c1.626,1.409,4.144-0.787,2.529-2.207c-0.428-0.363-0.843-0.726-1.259-1.088
		c-0.177-0.155-0.368-0.259-0.569-0.342c-2.791-2.042-6.068-3.813-8.729-6.01c-3.361-2.767-6.615-5.729-10.416-8.071
		c-9.357-5.78-19.879-9.687-29.499-15.063c-15.249-8.548-23.194-24.296-41.232-29.456c-0.297-0.083-0.57-0.093-0.807-0.062
		c-1.687-9.159-4.418-18.277-5.605-27.446c-0.902-6.963-0.345-15.179-5.855-20.731c2.838-1.762,5.32-4.093,7.22-6.776
		c7.162-10.154,9.679-22.938,11.057-34.605c1.413-12.081,1.188-24.969-2.969-36.656c-1.057-3.005-2.636-6.082-4.762-8.693
		c0.024-0.093,0.047-0.187,0.059-0.29c0.926-10.433,5.487-19.965,12.375-28.461c3.491-4.299,7.802-8.081,12.386-11.5
		c6.734-5.025,13.372-6.444,22.029-4.994c2.505,0.425,4.94,1.14,7.351,1.854c3.076,0.902,4.56,5.647,5.391,7.916
		c2.079,5.647,1.295,11.894,0.012,17.582c-2.269,10.112-7.22,19.624-10.343,29.528c-0.071,0.249-0.083,0.477-0.048,0.684
		c-0.155,0.166-0.285,0.363-0.357,0.611c-2.577,8.268-4.976,16.567-7.255,24.897c-0.071,0.28-0.059,0.539,0,0.767
		c-0.167,0.166-0.297,0.363-0.38,0.622c-0.083,0.28-0.167,0.56-0.249,0.839c-1.081,1.399-1.687,2.984-1.722,4.725
		c0,0.28,0.059,0.508,0.178,0.705c-3.646,14.235-4.94,29.083-13.574,41.888c-0.155,0.238-0.226,0.467-0.25,0.684
		c-1.116,3.782-1.449,8.248-3.574,11.698c-1.996,3.232-3.064,6.868-4.097,10.401c-0.558,1.949,2.874,2.766,3.444,0.83
		c1.116-3.855,2.287-7.511,4.459-11.024c1.936-3.16,2.035-7.791,3.035-11.251c0-0.01,0-0.01,0-0.021
		c10-14.515,10.373-31.434,15.266-47.317c0.036-0.031,0.104-0.062,0.139-0.093c0.465-0.477,0.576-1.015,0.409-1.492
		c0.024-0.187,0.025-0.353-0.01-0.508c0.154-0.166,0.28-0.373,0.352-0.622c2.28-8.33,4.683-16.628,7.26-24.896
		c0.083-0.249,0.084-0.477,0.049-0.684c0.154-0.166,0.285-0.363,0.356-0.611c3.824-12.112,9.964-23.633,11.508-36.232
		c0.642-5.211,0-10.993-2.517-15.79c-0.951-1.792-2.269-5.066-4.312-6.113c-1.473-0.746-3.218-1.274-5.034-1.699
		c3.253-14.019,25.604-23.964,39.035-13.677c8.289,6.352,5.914,16.65,2.754,24.556c-1.543,3.875-3.301,7.646-4.251,11.676
		c-0.926,3.927-1.188,7.833-2.684,11.656c-0.309,0.777,0.095,1.368,0.725,1.668c-3.741,15.303-4.204,30.927-4.584,46.53
		c-0.202,8.393-0.487,16.774-1.235,25.135c-0.771,8.672-1.223,17.872-5.118,25.975c-0.143,0.301-0.167,0.57-0.107,0.808
		c-4.833,7.636-8.883,15.624-12.624,23.715c-0.855,1.866,2.589,2.663,3.444,0.83c3.788-8.195,7.921-16.267,12.884-23.976
		c0.286-0.445,0.297-0.88,0.132-1.253c2.944-6.517,3.491-13.417,4.322-20.328c1.009-8.33,1.449-16.681,1.71-25.052
		c0.57-18.183,0.463-36.418,5.297-54.239c0.178-0.663-0.107-1.191-0.583-1.533c1.164-4.092,1.497-8.32,2.743-12.412
		c1.734-5.657,4.738-10.889,6.057-16.67c0.463-2.051,0.594-4.103,0.404-6.113c0.345-0.031,0.689-0.156,1.01-0.404
		c14.654-11.293,30.972,7.729,32.705,19.727c1.568,10.879-2.719,23.446,2.779,33.724c-1.093,0.238-2.209,0.611-3.373,1.17
		c-0.155,0.073-0.273,0.156-0.392,0.249c-0.178,0.072-0.345,0.176-0.511,0.311c-14.405,12.537-13.396,30.046-10.355,46.323
		c0.059,0.301,0.19,0.529,0.356,0.705c-0.107,0.27-0.143,0.569-0.035,0.922c2.98,10.215,2.173,20.69,0.582,31.041
		c-1.211,7.822-3.218,15.293-2.209,23.177c-0.13,9.387-2.232,18.649-2.398,28.047c-0.036,2.011,3.527,1.999,3.563,0
		c0.154-8.92,2.067-17.716,2.364-26.616c0.118-0.249,0.178-0.54,0.118-0.86c-0.036-0.188-0.048-0.374-0.083-0.571
		c0.012-1.005,0.012-2.02-0.023-3.036c-0.012-0.352-0.143-0.642-0.333-0.87c-0.261-8.154,2.244-16.329,3.266-24.41
		c1.14-8.962,1.151-17.956-1.414-26.731c-0.083-0.3-0.249-0.518-0.438-0.694c0.13-0.269,0.189-0.58,0.13-0.922
		c-2.826-15.127-4.002-31.611,9.429-43.297c0-0.011,0.013-0.021,0.013-0.021c0.059-0.021,0.118-0.042,0.178-0.062
		c16.507-7.905,27.54,33.03,29.867,41.785c4.928,18.618,5.237,38.356,6.532,57.378C476.359,269.238,476.538,288.344,474.198,306.692
		z"/>
	<g>
		<g id="XMLID_1_">
			<g>
				<path d="M724.3,244.64c1.771,6.7,0.5,12.97-1.13,19.58c-1.91,7.82-1.81,15.46-2.55,23.379c-0.75,7.801-1.99,15.62-1.82,23.48
					c0.141,6.9,0.75,13.78,0.95,20.68c0.2,6.931,0.23,14.03-1.41,20.86c-1.62,6.77-4.92,13.1-7.25,19.689
					c-2.649,7.511-4.96,15.101-7.75,22.57c-1.27,3.44-2.59,6.87-4.149,10.22c-0.381,0.83-1.99,3.29-3.07,5.2l-2.62-1.39
					c1.08-2.08,2.09-4.18,3.01-6.32c2.17-5.09,4.07-10.26,5.84-15.47c3.301-9.76,7.091-19.32,10.65-29.01
					c7.18-19.551,0.93-41.051,3.09-61.181c0.86-8.04,0.63-16.32,1.78-24.29c1-6.95,4.08-13.99,3.899-21.02
					c-0.199-8.19-4.949-15.18-9.72-21.99c-4.08-5.81-7.87-11.77-10.99-18.03c-0.05-0.08-0.09-0.16-0.13-0.25l-0.569-1.16
					c-3.19-6.43-6.261-13.26-7.591-20.16c-0.85-4.41-0.71-8.91-1.579-13.31c-0.71-3.67-2.29-7.28-5.141-9.39l-2.53-1.33
					c-0.539-0.18-1.109-0.33-1.71-0.43l0.37-2.78c5.49,0.79,10,3.95,11.65,9.74c1.32,4.64,1.38,9.37,1.979,14.1
					c0.86,6.89,3.75,13.92,6.79,20.29c3.521,7.35,7.78,14.34,12.53,21.14C718.72,233.21,722.73,238.68,724.3,244.64z"/>
				<path d="M700.36,210.19l0.569,1.16c-0.01,1.1-1.27,2.17-2.59,1.37c-5.42-3.29-12.12-4.96-17.17-8.69
					c-5.29-3.9-8.17-9.28-9.71-15.11c-2.75-10.4,0.62-18.55,12.06-22.92l2.53,1.33c-0.03,0.6-0.399,1.22-1.18,1.51
					c-12.49,4.57-12.34,14.55-8.19,24.29c4.15,9.78,14.601,11.52,23.46,16.9C700.23,210.08,700.29,210.14,700.36,210.19z"/>
				<path d="M671.64,163.87c3.591-1.18,7.24-1.56,10.54-1.08l-0.37,2.78c-1.39-0.22-2.96-0.2-4.72,0.13
					c-7.37,1.41-14.18,5.78-18.52,11.16c-8.82,10.94-8.36,26.02-6.61,38.74c0.96,7.04,2.45,14,4.14,20.93
					c1.471,6.09,3.801,12.18,4.61,18.37c0.07,0.49,0.12,0.98,0.16,1.47c3.78-0.25,7.56-1.15,11.13-2.19
					c2.98-0.87,8.25-1.88,10.27-4.22c1.351-1.58,4.45-0.03,3.061,1.57c-2.26,2.64-6.65,3.9-10.09,4.96
					c-4.601,1.41-9.42,2.67-14.311,2.99c-0.189,5.92-2.09,11.49-3.85,17.38l-2.85-0.86c1.119-3.8,2.09-7.62,2.77-11.49
					c1.47-8.38-1.7-15.83-3.58-23.91c-1.4-6.05-2.92-12.08-3.96-18.18c-2-11.61-3.51-24.14,0.13-35.63
					c2.3-7.32,7.141-14.38,14.13-19.05c-2.739-5.19-6.399-9.97-10.05-14.69c-4.18-5.43-7.979-11.2-12.54-16.38
					c-5.149-5.87-11.05-11.17-16.87-16.53c-5-4.62-9.59-9.92-15.359-13.85c-8.221-5.57-19.49-6.92-25.851,1.99
					c-4.13,5.78-3.59,12.44-0.99,18.64c1.74,4.14,3.431,8.35,5.16,12.56l-2.72,1.13c-0.56-1.36-1.14-2.72-1.75-4.07
					c-2.41-5.35-5.14-10.88-5.95-16.37c-0.56,0.22-1.22,0.14-1.729-0.43c-4.351-4.79-7.811-10.24-12.351-14.91l2.141-1.86
					c4.21,4.3,7.97,9.19,11.72,13.45c0.13-3.69,1.35-7.34,4.39-10.86c8.03-9.34,21.011-8.41,30.45-1.46
					c6.13,4.52,11.2,10.02,16.71,15.08c5.14,4.71,10.351,9.4,14.89,14.56c4.961,5.66,9.2,11.82,13.73,17.74
					c3.59,4.68,7.22,9.4,9.94,14.5C668.26,165.16,669.91,164.45,671.64,163.87z"/>
				<path d="M657.03,277.04c-2.24,7.63-4.42,15.27-6.431,22.95c-2.04,7.8-2.46,15.13-0.569,23.01c1.739,7.29,5.6,13.53,9.18,20.2
					c0.97,1.81-2.1,3.39-3.07,1.58c-6.35-11.84-12.739-23.641-10.739-37.15c0.159-1.13,0.38-2.25,0.59-3.37
					c-19.26,1.96-30.86,20.26-40.92,32.601c-11.891,14.609-24.03,29.37-32.83,45.62c-7.86,14.5-18.44,27.619-22.07,43.619
					c-1.41,6.131-2.52,12.33-4.28,18.381c-1.08,3.72-2.14,7.989-5.12,10.949c-1.52,1.511-4.02-0.689-2.51-2.189
					c4.141-4.13,4.91-11.94,6.07-17.101c1.29-5.689,2.18-11.54,4.1-17.109c2.95-8.521,7.471-16.44,12.351-24.23
					c4.91-7.84,9.22-15.97,14.26-23.74c10.3-15.859,22.79-30.43,34.729-45.34c-15.97,7.15-32.149,13.99-47.76,21.73
					c-10.04,4.97-23.89,8.88-31.33,16.81c-1.46,1.55-3.97-0.67-2.52-2.2c7.68-8.18,21.7-12.229,32.05-17.29
					c16.09-7.88,32.67-14.939,49.06-22.319c1.08-0.49,2.08,0.03,2.49,0.77c8.101-10.18,19.98-20.95,34.92-22.14
					c1.971-8.46,5.09-16.72,7.551-25.08l2.85,0.86C657.07,276.92,657.05,276.98,657.03,277.04z"/>
				<path d="M631.35,251.72c0.761-0.39,1.181-1.21,1.091-2.02l0.09-0.01c0.47,3.89,0.72,7.79,0.569,11.67
					c-0.22,5.88-0.96,13.14-7.18,16.62c-1.95,1.09-3.729-1.59-1.8-2.67c0.59-0.29,1.1-0.65,1.55-1.08
					c5.11-5.13,4.67-14.12,3.69-21.55C630.03,252.38,630.69,252.05,631.35,251.72z"/>
				<path d="M629.36,252.68c-0.19-1.45-0.4-2.85-0.601-4.14l0.78-0.39c0.979-0.5,2.19-0.1,2.69,0.88c0.109,0.22,0.18,0.45,0.21,0.67
					c0.09,0.81-0.33,1.63-1.091,2.02C630.69,252.05,630.03,252.38,629.36,252.68z"/>
				<path d="M627.6,236.71c0.98-0.52,1.351-1.72,0.841-2.7c-0.41-0.79-1.29-1.19-2.12-1.04c-0.91-5.15-2-10.28-3.42-15.23
					c-4.11-14.4-12-27.37-20.07-40.32c-3.99-6.41-8.18-12.79-11.25-19.58c-2.58-5.68-4.69-11.5-7.08-17.23l2.72-1.13
					c3.82,9.27,7.851,18.56,13.011,27.15c7.079,11.73,15.01,23.18,20.63,35.54c4.64,10.21,6.79,20.63,8.909,31.39
					c1.04,5.31,2.12,10.71,2.761,16.13l-0.09,0.01c-0.03-0.22-0.101-0.45-0.21-0.67c-0.5-0.98-1.711-1.38-2.69-0.88l-0.78,0.39
					c-0.09-0.58-0.17-1.14-0.25-1.68c-0.47-3.25-0.96-6.55-1.5-9.85C627.21,236.91,627.4,236.81,627.6,236.71z"/>
				<path d="M628.44,234.01c0.51,0.98,0.14,2.18-0.841,2.7c-0.199,0.1-0.39,0.2-0.59,0.3c-0.22-1.35-0.45-2.69-0.689-4.04
					C627.15,232.82,628.03,233.22,628.44,234.01z"/>
				<path fill="#45FF69" d="M628.76,248.54c-24.39,11.97-53.76,6.63-54.06,6.58c-0.11-0.02-0.21-0.03-0.32-0.04
					c-0.28-2.22-0.58-4.43-0.93-6.64c-0.23-1.42-0.47-2.84-0.73-4.26c2.07,0.36,8,1.23,15.891,1.23c10.75,0,25.149-1.62,38.399-8.4
					c0.54,3.3,1.03,6.6,1.5,9.85C628.59,247.4,628.67,247.96,628.76,248.54z"/>
				<path d="M572.72,244.18c-0.239-1.35-0.489-2.71-0.76-4.06c0.24-0.05,0.49-0.05,0.75,0c0.29,0.06,29.3,5.49,53.03-6.95
					c0.189-0.1,0.38-0.16,0.58-0.2c0.239,1.35,0.47,2.69,0.689,4.04c-13.25,6.78-27.649,8.4-38.399,8.4
					C580.72,245.41,574.79,244.54,572.72,244.18z"/>
				<path d="M618.78,301.73c2.029-0.931,3.84,1.75,1.79,2.67c-11.471,5.27-25.021,9.09-37.48,12.1c-6.26,1.52-12.57,2.9-18.689,4.79
					l-0.801-2.63c5.42-1.67,10.86-3.3,16.41-4.641C592.87,310.91,606.92,307.16,618.78,301.73z"/>
				<path d="M574.93,259.21c-0.189-1.38-0.37-2.75-0.55-4.13c0.11,0.01,0.21,0.02,0.32,0.04c0.3,0.05,29.67,5.39,54.06-6.58
					c0.2,1.29,0.41,2.69,0.601,4.14c-13.261,6.22-27.5,7.73-38.221,7.73C583.23,260.41,577.22,259.58,574.93,259.21z"/>
				<path d="M574.38,255.08c0.18,1.38,0.36,2.75,0.55,4.13c-0.529-0.08-0.859-0.14-0.97-0.16c-0.83-0.17-1.46-0.82-1.6-1.61
					c-0.04-0.24-0.04-0.48,0.01-0.73C572.55,255.74,573.41,255.06,574.38,255.08z"/>
				<path d="M571.99,263.33c-0.311-1.9-0.57-3.81-0.83-5.72l1.2-0.17c0.14,0.79,0.77,1.44,1.6,1.61c0.11,0.02,0.44,0.08,0.97,0.16
					c0.21,1.54,0.44,3.07,0.71,4.6c0.511,2.96,0.71,6.97,2.811,9.46c1.38,1.62-1.72,3.17-3.061,1.57
					C572.79,271.77,572.58,266.97,571.99,263.33z"/>
				<path d="M571.96,240.12c0.271,1.35,0.521,2.71,0.76,4.06c-0.41-0.07-0.67-0.11-0.77-0.13c-1.08-0.22-1.79-1.27-1.58-2.35
					C570.53,240.88,571.18,240.26,571.96,240.12z"/>
				<path d="M569.36,245.41c-2.351-12.76-5.551-25.36-8.551-38.01c-1.43-5.99-2.319-12.26-4.739-18.02
					c-2.41-5.74-5.74-11.07-9.48-16.23c-7.609-10.52-13.51-21.48-19.74-32.65c-4.81-8.65-11.46-18.08-9.279-28.12
					c0.31-1.45,0.729-2.94,1.27-4.39c-0.3-0.17-0.52-0.45-0.64-0.85c-1.21-4.4-4.72-5.34-8.561-4.77l-0.449-2.96
					c4.79-0.73,9.22,0.21,11.489,4.49c2.771-5.07,7.141-9.4,13.5-11.14c13.59-3.72,22.9,2.25,30.681,10.21l-2.141,1.86
					c-1.04-1.08-2.14-2.11-3.33-3.09c-7.81-6.45-21.06-10.31-30.029-3.05c-10.681,8.64-9.891,21.42-4.061,32
					c5.22,9.48,10.09,19.2,15.78,28.48c5.45,8.85,12.729,16.85,17.04,26.24c4.46,9.71,5.95,20.45,8.41,30.66
					c1.93,7.99,3.85,16,5.43,24.05c-0.78,0.14-1.43,0.76-1.59,1.58c-0.21,1.08,0.5,2.13,1.58,2.35c0.1,0.02,0.359,0.06,0.77,0.13
					c0.261,1.42,0.5,2.84,0.73,4.26c0.35,2.21,0.649,4.42,0.93,6.64c-0.97-0.02-1.83,0.66-2.01,1.63c-0.05,0.25-0.05,0.49-0.01,0.73
					l-1.2,0.17C570.61,253.54,570.1,249.47,569.36,245.41z"/>
				<path d="M475.99,279.74c0.13-9.69-0.23-19.39-0.88-28.91c-1.29-19.02-1.6-38.76-6.53-57.38c-2.33-8.76-13.36-49.69-29.87-41.78
					c-0.06,0.02-0.12,0.04-0.17,0.06c0,0-0.02,0.01-0.02,0.02c-13.43,11.68-12.25,28.17-9.43,43.3c0.06,0.34,0,0.65-0.13,0.92
					c0.19,0.17,0.36,0.39,0.44,0.69c2.57,8.78,2.56,17.77,1.42,26.73c-1.03,8.08-3.53,16.26-3.27,24.41
					c0.19,0.23,0.32,0.52,0.33,0.87c0.04,1.02,0.04,2.03,0.03,3.04c0.03,0.2,0.04,0.38,0.08,0.57c0.06,0.32,0,0.61-0.12,0.86
					c-0.3,8.9-2.21,17.69-2.36,26.61c-0.04,2-3.6,2.02-3.56,0c0.16-9.39,2.26-18.65,2.39-28.04c-1.01-7.89,1-15.36,2.21-23.18
					c1.59-10.35,2.4-20.82-0.58-31.04c-0.11-0.35-0.07-0.65,0.04-0.92c-0.17-0.18-0.3-0.41-0.36-0.71
					c-3.04-16.27-4.05-33.78,10.36-46.32c0.16-0.13,0.33-0.24,0.51-0.31c0.12-0.09,0.23-0.18,0.39-0.25
					c1.16-0.56,2.28-0.93,3.37-1.17c-5.5-10.28-1.21-22.84-2.78-33.72c-1.25-8.68-10.16-21.06-20.53-22.94l0.43-2.86
					c8.03,1.4,15.36,7.59,19.51,14.47c3.81,6.33,4.62,12.68,4.5,19.77c-0.12,7.71-1.87,17.21,2.27,24.34
					c0.13,0.23,0.19,0.45,0.2,0.67c12.07,0.92,19.49,20.07,22.61,28.03c0.63,1.63,1.22,3.27,1.78,4.91
					c0.52-15.14,4.31-32.57,15.95-43.25c0.37-0.34,0.78-0.47,1.19-0.47c-2.66-11.36-2.771-22.81,8.89-31.01
					c3.75-2.64,9.55-5.53,14.891-6.34l0.449,2.96c-2.83,0.41-5.819,1.63-8.21,2.88c-5.75,3.01-11.41,7.14-13.18,13.07
					c-2.44,8.18,0.04,16.49,2.44,24.44c2.51,8.35,4.949,16.77,8.55,24.82c4.149,9.23,5.18,18.69,7.649,28.27
					c2.351,9.1,5.29,18.07,7.71,27.16c2.4,8.99,3.96,17.97,5.54,27.09c0.761,4.4,2.141,8.62,3.04,12.97
					c0.53,2.51,1.051,5.05,2.021,7.46c0.109,0.29,0.28,1.3,0.45,2.1c1.09,0.21,1.949,1.19,1.14,2.21
					c-0.16,0.22-0.34,0.45-0.521,0.68c-0.6,0.76-1.989,1.12-2.789,0.31c-2.141-2.16-2.78-7.36-3.341-10.06
					c-1.17-5.61-2.83-11.07-3.739-16.73c-1.87-11.83-4.641-23.34-7.96-34.92c-1.65-5.79-3.62-11.58-4.98-17.44
					c-1.32-5.68-2.08-11.46-3.59-17.09c-2.76-10.43-7.86-20.34-11.021-30.72c-0.89-2.9-1.81-5.89-2.63-8.91
					c-12.45,11.95-14.91,32.72-14.4,48.1c0.03,0.65-0.34,1.09-0.84,1.32c3.94,14.79,5.35,29.86,6.53,45.18
					c1.15,15.1,1.52,30.17,1.31,45.23L475.99,279.74z"/>
				<path d="M477.17,332.38h-0.07l-0.51-0.96c5.45-2.92,11.9-5.68,18.141-6.36c5.829-0.63,11.039,0.36,16.659,1.601
					c7.91,1.75,15.07,1.399,23.07-0.101c9.96-1.869,19.521-4.949,29.14-7.899l0.801,2.63c-1.41,0.44-2.811,0.91-4.2,1.41
					c-7.34,2.64-14.851,5.01-22.62,6.45c-6.67,1.26-13.51,2.43-20.34,1.729c-5.771-0.6-11.181-2.92-17.021-2.97
					c-7.87-0.08-16.13,2.85-22.08,6.439l-0.97-1.92V332.38z"/>
				<path d="M476.23,331.61c0.12-0.061,0.24-0.13,0.36-0.19l0.51,0.96c0.02,0.01,0.04,0.03,0.07,0.05l0.97,1.92
					c-0.39,0.23-0.77,0.471-1.14,0.71v-0.17c0,0.03-0.01,0.061-0.07,0.08c-0.37,0.15-0.64,0.261-1,0.28
					c-0.64,7.79-1.36,15.58-2.14,23.37c0.23,0.229,0.38,0.54,0.41,0.91c1.52,20.04,1.34,40.14,0.5,60.2
					c-0.61,14.26-0.66,28.77-3,42.939c0.72,0.16,1.31,0.66,1.31,1.51c0,9.32-0.08,18.891,1.16,28.4c1.32,10.06,4.56,18.96,8.2,28.52
					c3.149,8.271,4.85,16.341,5.56,25.011c0.33,4.159,0.59,8.34,1.12,12.479c0.19,1.49,0.271,4.13,0.63,6.601
					c16.13-0.131,32.271-0.271,48.4-0.41c43.57-0.37,87.15-0.75,130.74-1.12c-4.91-12.17-7.19-25.24-9.221-37.96
					c-2.149-13.54-3.56-27.51-1.659-41.141c1.93-13.81,8.109-25.829,15.279-38.119c6.15-10.53,15.24-21.091,18.59-32.66
					c-0.06-0.08-0.109-0.17-0.149-0.28c-0.42-1.1,0.49-2.04,1-3c0.28-0.53,0.56-1.06,0.84-1.59l2.62,1.39
					c-0.36,0.641-0.66,1.21-0.851,1.641c0.32,0.329,0.49,0.79,0.351,1.369c-2.851,11.37-11.47,21.261-17.45,31.48
					c-7.74,13.27-15.34,26.37-16.86,41.43c-1.409,13.94-0.229,28.021,2.271,41.82c2.24,12.37,4.4,24.95,9.479,36.74
					c0.41,0.97-0.649,1.96-1.729,1.97c-22.42,0.2-44.84,0.38-67.26,0.58c-37.9,0.32-75.79,0.64-113.67,0.97
					c0.279,0.811,0.63,1.51,1.09,2.021c1.42,1.55-1.08,3.77-2.521,2.21c-1.029-1.13-1.58-2.641-1.93-4.21
					c-15.7,0.14-31.4,0.27-47.1,0.41c-0.06,0.829-0.11,1.659-0.15,2.489c0.11,0.141,0.22,0.28,0.32,0.44
					c1.13,1.74-1.92,3.29-3.07,1.58c-0.51-0.28-0.87-0.78-0.84-1.311c0.03-1.06,0.09-2.12,0.16-3.17
					c-18.37,0.15-36.75,0.32-55.14,0.48c-44.41,0.38-88.84,0.75-133.25,1.13c-0.58,0-1.29-0.29-1.55-0.76
					c-2.6-4.931,4.28-13.221,6.7-17.41c5.93-10.21,10.16-21.4,13.4-32.49c6.31-21.62,9.25-44.11,7.57-66.41
					c-0.01-0.189,0.02-0.35,0.06-0.5l2.9-0.59c0.33,0.25,0.57,0.61,0.61,1.09c0.46,6.11,0.6,12.24,0.35,18.38
					c-1.1,27.2-7.29,55.08-20.57,79.84c-2.52,4.7-6.06,9.32-7.58,14.381c-0.23,0.77-0.28,1.159-0.31,1.359
					c1.21-0.01,2.41-0.029,3.62-0.04c20.69-0.17,41.37-0.35,62.06-0.529c40.47-0.351,80.93-0.69,121.41-1.04
					c3.14-31.381,20.28-59.69,28.57-90.141c5.15-18.91,5.27-38.47,6.01-57.819c0.7-18.61,0.85-37.23-0.43-55.82
					c-0.49-0.22-0.81-0.66-0.75-1.3c0.92-9.13,1.39-18.33,1.93-27.511c-0.34,0.141-0.74,0.16-1.22,0
					c-22.57-7.8-48.13-4.47-70.49-13.319c-11.52-4.57-23.05-10.74-32.87-17.721c-4.82-3.42-9.54-6.77-14.55-9.979
					c-3.26-2.09-5.95-4.42-7.43-7.73c-0.83-1.869,2.61-2.67,3.44-0.829c2.23,5,8.9,7.659,13.54,10.729
					c4.59,3.04,8.64,6.59,13.44,9.45c10.3,6.16,21.5,12.53,33.5,15.77c20.32,5.471,42.54,3.78,62.37,10.63
					c0.17,0.061,0.31,0.131,0.44,0.21c0.49-7.88,1.06-15.76,2.06-23.579c1.13-8.86,1.68-17.9,1.79-26.95l2.83,0.05
					C478.59,297.08,477.61,314.34,476.23,331.61z M486.48,565.23c-0.051-0.341-0.101-0.66-0.15-0.961
					c-0.72-4.25-1.2-8.479-1.54-12.76c-0.83-10.189-2.08-19.74-5.85-29.46c-3.55-9.14-6.82-17.95-8.08-27.59
					c-0.77-5.82-1.12-14.93-1.28-21.63c-0.01,0.06-0.03,0.12-0.05,0.18c-8.13,31.271-26.09,60.46-29.33,92.61
					C455.62,565.48,471.05,565.36,486.48,565.23z"/>
				<path d="M396.56,339.84c1.61,1.42-0.91,3.61-2.53,2.2c-3.09-2.7-7.31-4.74-10.55-7.45c-4.12-3.43-8.16-6.67-12.91-9.47
					c-8.79-5.17-19.12-8.46-27.6-13.97c-4.17-2.71-7.9-5.98-11.55-9.36l1.98-2.11c3.87,3.53,7.92,6.9,12.68,9.58
					c9.62,5.38,20.15,9.29,29.5,15.07c3.8,2.34,7.06,5.3,10.42,8.07c2.66,2.189,5.94,3.97,8.73,6.01c0.2,0.08,0.39,0.18,0.57,0.34
					C395.71,339.11,396.13,339.47,396.56,339.84z"/>
				<path d="M388.31,391.91c3.11,18.7,6.72,37.76,3.29,56.62c-0.37,1.979-3.8,1.13-3.44-0.83c3.34-18.271-0.3-36.851-3.28-54.96
					c-2.46-14.95-10.72-27.26-21.14-39.04c-5.01-5.66-10.21-11.22-14.85-17.13c-5.42-6.9-10.31-14.07-16.12-20.75
					c-5.16-5.95-10.44-11.891-15.9-17.641c-1.68-1.76-3.37-3.52-5.18-5.16c-1.02-0.939-2.03-1.88-3.15-2.72
					c-1.63-1.22-1.29-0.37-0.66-1.84l0.81-1.63c5.74,2.729,14.89,13.76,16.39,15.4c13.58,14.89,24.91,31.05,38.31,46.05
					C375.25,361.56,385.49,374.9,388.31,391.91z"/>
				<path d="M305.3,289.37c1.25,19.3-12.98,32.63-25.79,46.91c-1.41,1.58-3.92-0.641-2.52-2.19
					c11.97-13.359,26.72-26.67,24.74-44.979c-1.19-10.89-4.54-21.63-6.26-32.49c-1.15-7.27,0.12-17.72-6.03-23.42
					c-5.88,2.52-12.79,2.62-19.22-1.31c-1.86-1.15-0.08-3.85,1.81-2.7c11.92,7.33,22.4-0.94,27.13-10.01c5.04-9.65,7.4-20.5,8.34-31
					c0.96-10.67,0.95-21.95-2.52-32.3c-2.12-6.35-6.1-14.09-14.51-14.45c4.19,5.66,2.54,16.26,1.18,21.33
					c-3.19,11.81-13.59,21.42-28.24,20.64c-0.35-0.02-0.65-0.11-0.88-0.25c-0.06,0.1-0.15,0.21-0.24,0.31
					c-2.32,2.46-2.99,5.62-4.82,8.3c-1.58,2.31-3.39,4.49-5.29,6.61c-4.57,5.14-10.4,10.66-12.58,17.04
					c-2.26,6.58-2.05,13.37-1.8,20.16c0.25,6.55-0.13,13.04-0.46,19.59c-0.61,11.74-0.11,23.41-2.67,34.99
					c-2.38,10.739-7.09,23.83-1.78,34.399c0.16,0.36,0.19,0.7,0.11,1.01c0.32,0.181,0.57,0.48,0.66,0.921
					c2.03,11.39,6.72,22.159,10.77,33.079c3.99,10.73,7.14,21.65,11.41,32.311c7.86,19.6,18.21,39.1,21.22,59.87
					c0.03,0.17,0.01,0.319-0.01,0.47l-2.9,0.59c-0.33-0.25-0.58-0.6-0.65-1.06c-3.06-21.101-14.01-40.9-21.82-60.87
					c-4.15-10.65-7.28-21.561-11.34-32.23c-3.93-10.3-8.2-20.56-10.13-31.33c-0.03-0.239-0.02-0.439,0.04-0.64
					c-0.18-0.14-0.33-0.31-0.45-0.54c-5.1-10.16-1.94-21.87,0.43-32.3c3.19-14.14,2.94-28.14,3.75-42.48
					c0.44-7.65-0.01-15.2,0.09-22.84c0.1-5.89,0.6-11.97,3.71-17.32c3.41-5.87,8.28-10.71,12.71-15.96
					c3.7-4.38,5.39-9.83,9.28-13.96c0.64-0.69,1.49-0.64,2.1-0.24c0.11-0.18,0.24-0.32,0.41-0.45c-0.05-0.26-0.01-0.52,0.08-0.78
					c-0.2-0.38-0.21-0.84,0.1-1.33c5.28-7.98,4.62-45.34,23.11-40.36c0.76,0.21,1.43,0.49,2.05,0.83c0.29-0.33,0.72-0.57,1.32-0.61
					c4.48-0.28,8.11,1.11,11.03,3.39c1.62-11.04,6.9-21.48,15.05-30.08c8.71-9.22,19.39-17.82,34.06-15.35
					c0.91,0.15,1.91,0.31,2.92,0.48c3.17-14.26,25.52-26.18,40.94-17.82c5.37,2.91,8.89,7.44,10.27,12.54
					c4.64-3.22,9.53-4.02,14.19-3.2l-0.43,2.86c-3.96-0.71-8.13,0.09-12.17,3.21c-0.32,0.25-0.67,0.37-1.01,0.4
					c0.19,2.01,0.06,4.07-0.41,6.12c-1.32,5.78-4.32,11.01-6.05,16.67c-1.25,4.09-1.58,8.32-2.75,12.41
					c0.48,0.34,0.76,0.87,0.59,1.53c-4.84,17.82-4.73,36.06-5.3,54.24c-0.26,8.37-0.7,16.72-1.71,25.05
					c-0.83,6.91-1.38,13.81-4.32,20.33c0.16,0.37,0.15,0.81-0.13,1.25c-4.97,7.71-9.1,15.78-12.89,23.98
					c-0.85,1.83-4.3,1.04-3.44-0.83c3.74-8.09,7.79-16.08,12.62-23.72c-0.06-0.23-0.04-0.5,0.11-0.8
					c3.89-8.11,4.34-17.31,5.12-25.98c0.74-8.36,1.03-16.74,1.23-25.13c0.38-15.61,0.84-31.23,4.58-46.53
					c-0.62-0.3-1.03-0.89-0.72-1.67c1.5-3.82,1.76-7.73,2.68-11.66c0.95-4.03,2.71-7.8,4.26-11.67c3.15-7.91,5.53-18.21-2.76-24.56
					c-13.43-10.29-35.78-0.34-39.03,13.68c1.81,0.42,3.56,0.95,5.03,1.7c2.04,1.04,3.36,4.32,4.31,6.11
					c2.52,4.8,3.16,10.58,2.52,15.79c-1.55,12.6-7.69,24.12-11.51,36.23c-0.07,0.25-0.2,0.45-0.36,0.61
					c0.04,0.21,0.04,0.44-0.05,0.69c-2.57,8.26-4.98,16.56-7.26,24.89c-0.07,0.25-0.2,0.46-0.35,0.62c0.04,0.16,0.04,0.33,0.02,0.51
					c0.16,0.48,0.05,1.02-0.42,1.49c-0.03,0.04-0.09,0.07-0.14,0.1c-4.89,15.88-5.26,32.8-15.26,47.31c0,0.02,0,0.02,0,0.03
					c-1,3.46-1.09,8.09-3.04,11.25c-2.16,3.51-3.34,7.17-4.45,11.02c-0.57,1.94-4.01,1.12-3.45-0.83c1.04-3.53,2.1-7.17,4.1-10.4
					c2.12-3.45,2.46-7.92,3.57-11.7c0.03-0.21,0.1-0.44,0.25-0.68c8.64-12.81,9.93-27.65,13.58-41.89c-0.12-0.2-0.18-0.42-0.18-0.7
					c0.03-1.74,0.64-3.33,1.72-4.73c0.08-0.28,0.17-0.56,0.25-0.84c0.08-0.26,0.21-0.45,0.38-0.62c-0.06-0.23-0.07-0.49,0-0.77
					c2.28-8.33,4.68-16.62,7.26-24.89c0.07-0.25,0.2-0.45,0.35-0.61c-0.03-0.21-0.02-0.44,0.05-0.69
					c3.12-9.9,8.07-19.41,10.34-29.53c1.29-5.68,2.07-11.93-0.01-17.58c-0.83-2.27-2.31-7.01-5.39-7.91
					c-2.41-0.72-4.85-1.43-7.35-1.86c-8.66-1.45-15.3-0.03-22.03,5c-4.58,3.41-8.9,7.2-12.39,11.5
					c-6.88,8.49-11.44,18.02-12.37,28.46c-0.01,0.1-0.04,0.19-0.06,0.29c2.13,2.61,3.7,5.68,4.76,8.69
					c4.16,11.69,4.38,24.58,2.97,36.66c-1.38,11.66-3.89,24.45-11.06,34.6c-1.9,2.68-4.38,5.02-7.22,6.78
					c5.51,5.55,4.96,13.77,5.86,20.73c1.19,9.17,3.92,18.29,5.6,27.44c0.24-0.03,0.51-0.02,0.81,0.07
					c12.4,3.55,20.03,12.1,28.55,19.87l-1.98,2.11c-8.02-7.43-15.68-15.33-26.83-18.75c0.18,1.22,0.36,2.44,0.48,3.68
					c0.84-0.75,2.11-0.609,3.62,0.11l-0.81,1.63C307.44,289.48,306.19,289.7,305.3,289.37z M288.84,158.99
					c0.72-4.45,1.24-9.71-0.66-13.99c-1.44-3.24-5.57-6-8.94-2.83c-5.63,5.28-7.12,14.14-8.76,20.92
					c-1.08,4.46-1.58,9.81-3.54,14.29c-0.08,1.04-0.48,2-0.98,2.93C279,179.79,287.09,169.85,288.84,158.99z"/>
			</g>
			<g>
			</g>
		</g>
	</g>
</g>
<g id="제비">
	<g>
		<polygon fill="#FBB03B" points="446.274,260.771 407.458,269.854 417.97,320.129 448.487,284.948 		"/>
		<polygon fill="#FBB03B" points="458.146,286.341 431.106,288.512 409.988,343.104 411.702,370.474 448.528,369.771 
			501.095,327.313 514.029,310.875 514.465,295.926 		"/>
	</g>
	<polyline fill="none" stroke="#42210B" stroke-width="6" stroke-miterlimit="10" points="462.111,380.72 453.699,411.307 
		471.664,421.26 	"/>
	<polyline fill="none" stroke="#42210B" stroke-width="6" stroke-miterlimit="10" points="447.293,436.409 453.699,411.307 
		433.748,419.773 	"/>
	<polyline fill="none" stroke="#603813" stroke-width="6" stroke-miterlimit="10" points="445.331,379.422 436.919,410.01 
		454.885,419.962 	"/>
	<polyline fill="none" stroke="#603813" stroke-width="6" stroke-miterlimit="10" points="430.514,435.113 436.919,410.01 
		416.969,418.476 	"/>
	<path fill="#F15A24" stroke="#000000" stroke-width="3" stroke-miterlimit="10" d="M529.07,213.232c0,0,3.416-20.075,28.361-15.772
		l-16.348,36.083l28.574-2.245c0,0-2.58,23.405-26.391,30.856"/>
	<path fill="#FBB03B" stroke="#000000" stroke-width="3" stroke-miterlimit="10" d="M540.733,272.076
		C530,302.968,497.058,320.128,467.16,310.4c-29.901-9.725-45.441-42.656-34.71-73.547c10.733-30.894,43.675-48.051,73.575-38.327
		C535.928,208.255,551.466,241.187,540.733,272.076z"/>
	<path fill="#FBB03B" stroke="#000000" stroke-width="3" stroke-miterlimit="10" d="M516.166,305.216
		c0,0-19.969,56.746-22.733,59.728"/>
	<path fill="#FBB03B" stroke="#000000" stroke-width="3" stroke-miterlimit="10" d="M499.086,321.106
		c-0.797,2.277,62.566-33.171,89.737-12.262l-26.151,11.576c0,0,40.574,8.875,31.667,25.669c0,0-22.93-3.027-34.288-9.261
		c0,0,10.727,9.83,6.561,21.818c0,0-24.865-2.38-25.637-8.348l-7.252-13.799c0,0,4.192,19.788-5.752,16.554
		c0,0-12.826,3.45-25.137-15.166c0,0-5.458,64.297-71.032,35.343"/>
	<path fill="#FBB03B" stroke="#000000" stroke-width="3" stroke-miterlimit="10" d="M441.534,361.148
		c0,0-13.655,21.608-27.821,16.364l-12.711-4.125l11.7-8.904"/>
	<path fill="#FBB03B" stroke="#000000" stroke-width="3" stroke-miterlimit="10" d="M425.412,343.836
		c-14.406-2.779-20.667-13.076-20.667-13.076c-11.021-21.377-9.734-12.692-9.734-12.692c-7.52,12.794,6.631,26.931,6.631,26.931
		l-17.042-9.357c-0.41,10.037,15.328,19.599,15.328,19.599l-10.495-3.417c-1.995,14.602,12.925,15.009,12.925,15.009l7.453-0.144"/>
	<path fill="#FBB03B" stroke="#000000" stroke-width="3" stroke-miterlimit="10" d="M413.022,338.79c0,0-11.712-11.052,27.67-47.16"
		/>
	<path fill="#FBB03B" stroke="#000000" stroke-width="3" stroke-miterlimit="10" d="M418.75,315.663l-3.869-4.347
		c-3.174-12.983,4.008-11.528,4.008-11.528c-17.362,3.973-21.908,0.22-21.908,0.22c1.914-7.276,9.293-12.587,9.293-12.587
		c-15.285,3.289-17.012-2.358-17.012-2.358c-0.301-11.529,10.807-12.136,10.807-12.136c-27.144-7.315-21.338-12.418-21.338-12.418
		c18.029-7.643,31.059,2.642,31.059,2.642c-12.3-14.164-8.575-23.112-8.575-23.112c10.412,7.197,28.121,22.487,28.121,22.487"/>
	<circle cx="514.385" cy="240.038" r="19.729"/>
	<g>
		<path fill="#FFFFFF" d="M531.281,233.888c0,1.955-4.259,2.724-5.241,4.291c-0.989,1.579,0.232,5.717-1.458,6.62
			c-1.603,0.856-4.396-2.419-6.367-2.419c-1.971,0-4.765,3.275-6.368,2.419c-1.689-0.903-0.468-5.042-1.458-6.621
			c-0.982-1.567-5.241-2.335-5.241-4.29s4.259-2.723,5.241-4.29c0.99-1.579-0.231-5.717,1.458-6.62
			c1.604-0.856,4.397,2.419,6.368,2.419c1.972,0,4.765-3.275,6.367-2.419c1.69,0.903,0.469,5.041,1.458,6.62
			C527.022,231.164,531.281,231.933,531.281,233.888z"/>
	</g>
	<ellipse fill="#FFFFFF" cx="509.671" cy="252.434" rx="6.268" ry="3.948"/>
	<g>
		
			<rect x="436" y="386" transform="matrix(0.9591 0.2829 -0.2829 0.9591 130.0511 -108.5867)" fill="#FFFFFF" stroke="#42210B" stroke-width="2" stroke-miterlimit="10" width="10" height="20"/>
		<line fill="none" stroke="#42210B" stroke-width="2" stroke-miterlimit="10" x1="437.902" y1="388.83" x2="447.494" y2="391.66"/>
		
			<line fill="none" stroke="#42210B" stroke-width="2" stroke-miterlimit="10" x1="436.204" y1="394.585" x2="445.796" y2="397.415"/>
		
			<line fill="none" stroke="#42210B" stroke-width="2" stroke-miterlimit="10" x1="434.79" y1="399.381" x2="444.381" y2="402.211"/>
	</g>
	
		<line fill="none" stroke="#000000" stroke-width="4" stroke-linecap="round" stroke-miterlimit="10" x1="489.333" y1="231" x2="511.667" y2="220.309"/>
	<g>
		<path fill="#29ABE2" d="M533.556,251.118c0.581,1.04-1.391,2.402-2.264,3.865c-0.609,1.021-0.014,3.349-1.174,4.354
			c-0.967,0.837-3.244,0.007-4.511,0.716s-1.751,3.084-2.97,3.47c-1.465,0.463-3.137-1.263-4.327-1.279
			c-1.701-0.022-3.893,0.946-4.474-0.092c-0.582-1.039,1.391-2.402,2.263-3.865c0.609-1.021,0.014-3.349,1.174-4.353
			c0.966-0.837,3.244-0.008,4.51-0.716c1.267-0.708,1.751-3.084,2.971-3.47c1.465-0.463,3.137,1.263,4.326,1.278
			C530.783,251.047,532.975,250.079,533.556,251.118z"/>
	</g>
</g>
</svg>
