<?xml version="1.0" encoding="utf-8"?>
<!-- Generator: Adobe Illustrator 16.0.0, SVG Export Plug-In . SVG Version: 6.00 Build 0)  -->
<!DOCTYPE svg PUBLIC "-//W3C//DTD SVG 1.1//EN" "http://www.w3.org/Graphics/SVG/1.1/DTD/svg11.dtd">
<svg version="1.1" id="Layer_1" xmlns="http://www.w3.org/2000/svg" xmlns:xlink="http://www.w3.org/1999/xlink" x="0px" y="0px"
	 width="960px" height="560px" viewBox="0 0 960 560" enable-background="new 0 0 960 560" xml:space="preserve">
<symbol  id="New_Symbol" viewBox="-31 -29.159 62 58.318">
	<g>
		<polygon fill="#A67C52" points="30.072,-0.406 29.458,-7.932 25.12,-14.091 19.585,-18.604 14.799,-24.055 8.48,-28.566 
			0.792,-24.187 -5.77,-24.001 -12.971,-23.6 -20.527,-21.349 -20.975,-12.48 -24.313,-6.897 -30.004,-0.406 -27.264,6.942 
			-21.67,12.105 -18.565,18.406 -12.255,21.444 -6.413,25.798 0.792,28.625 8.069,26.09 13.772,21.317 18.792,16.931 26.967,14.438 
			28.606,6.872 		"/>
		<polygon fill="none" stroke="#000000" stroke-miterlimit="10" points="30.072,-0.406 29.458,-7.932 25.12,-14.091 19.585,-18.604 
			14.799,-24.055 8.48,-28.566 0.792,-24.187 -5.77,-24.001 -12.971,-23.6 -20.527,-21.349 -20.975,-12.48 -24.313,-6.897 
			-30.004,-0.406 -27.264,6.942 -21.67,12.105 -18.565,18.406 -12.255,21.444 -6.413,25.798 0.792,28.625 8.069,26.09 
			13.772,21.317 18.792,16.931 26.967,14.438 28.606,6.872 		"/>
	</g>
	<polygon display="none" fill="none" points="-31,29 31,29 31,-29 -31,-29 	"/>
</symbol>
<rect x="-9.5" y="-26.5" fill="#754C24" stroke="#000000" stroke-miterlimit="10" width="996" height="605"/>
<path fill="#C69C6D" stroke="#000000" stroke-miterlimit="10" d="M407.573,251.825"/>
<g>
	
		<use xlink:href="#New_Symbol"  width="62" height="58.318" x="-31" y="-29.159" transform="matrix(0.4995 -0.2164 -0.2101 -0.5144 129.1519 203.1904)" overflow="visible" opacity="0.6511"/>
	
		<use xlink:href="#New_Symbol"  width="62" height="58.318" x="-31" y="-29.159" transform="matrix(0.208 -0.3008 -0.2921 -0.2142 94.3911 84.6626)" overflow="visible" opacity="0.8124"/>
	
		<use xlink:href="#New_Symbol"  width="62" height="58.318" x="-31" y="-29.159" transform="matrix(0.2576 -0.2152 -0.2089 -0.2653 204.6157 60.6279)" overflow="visible"/>
	
		<use xlink:href="#New_Symbol"  width="62" height="58.318" x="-31" y="-29.159" transform="matrix(0.2581 0.059 0.0573 -0.2658 344.7275 111.7188)" overflow="visible" opacity="0.8672"/>
	
		<use xlink:href="#New_Symbol"  width="62" height="58.318" x="-31" y="-29.159" transform="matrix(0.4027 0.0846 0.0822 -0.4147 515.5283 108.0396)" overflow="visible"/>
	
		<use xlink:href="#New_Symbol"  width="62" height="58.318" x="-31" y="-29.159" transform="matrix(0.4983 0.2223 0.2158 -0.5131 710.7959 121.1084)" overflow="visible" opacity="0.6557"/>
	
		<use xlink:href="#New_Symbol"  width="62" height="58.318" x="-31" y="-29.159" transform="matrix(0.1496 0.3582 0.3478 -0.154 839.6025 157.3584)" overflow="visible" opacity="0.9897"/>
	
		<use xlink:href="#New_Symbol"  width="62" height="58.318" x="-31" y="-29.159" transform="matrix(0.1043 0.3338 0.3242 -0.1074 867.3613 211.3779)" overflow="visible"/>
	
		<use xlink:href="#New_Symbol"  width="62" height="58.318" x="-31" y="-29.159" transform="matrix(0.2418 0.332 0.3224 -0.249 750.6074 252.3457)" overflow="visible" opacity="0.9908"/>
	
		<use xlink:href="#New_Symbol"  width="62" height="58.318" x="-31" y="-29.159" transform="matrix(0.2475 0.1811 0.1759 -0.2549 594.6855 305.8232)" overflow="visible" opacity="0.6486"/>
	
		<use xlink:href="#New_Symbol"  width="62" height="58.318" x="-31" y="-29.159" transform="matrix(0.3178 -0.0058 -0.0056 -0.3273 372.2715 263.6074)" overflow="visible" opacity="0.9647"/>
	
		<use xlink:href="#New_Symbol"  width="62" height="58.318" x="-31" y="-29.159" transform="matrix(0.1576 0.009 0.0087 -0.1623 325.7568 143.2056)" overflow="visible" opacity="0.9761"/>
	
		<use xlink:href="#New_Symbol"  width="62" height="58.318" x="-31" y="-29.159" transform="matrix(0.0652 -0.2105 -0.2044 -0.0672 223.7207 310.7998)" overflow="visible"/>
	
		<use xlink:href="#New_Symbol"  width="62" height="58.318" x="-31" y="-29.159" transform="matrix(0.0946 -0.3 -0.2913 -0.0974 149.1924 388.2588)" overflow="visible"/>
	
		<use xlink:href="#New_Symbol"  width="62" height="58.318" x="-31" y="-29.159" transform="matrix(0.1464 0.0892 0.0866 -0.1507 299.7061 476.7578)" overflow="visible"/>
	
		<use xlink:href="#New_Symbol"  width="62" height="58.318" x="-31" y="-29.159" transform="matrix(0.3516 0.0183 0.0178 -0.3621 324.1958 395.2607)" overflow="visible" opacity="0.7152"/>
	
		<use xlink:href="#New_Symbol"  width="62" height="58.318" x="-31" y="-29.159" transform="matrix(0.1686 0.1626 0.1579 -0.1736 353.7949 454.7402)" overflow="visible" opacity="0.9632"/>
	
		<use xlink:href="#New_Symbol"  width="62" height="58.318" x="-31" y="-29.159" transform="matrix(0.2465 0.0503 0.0489 -0.2539 552.3457 465.6816)" overflow="visible" opacity="0.4231"/>
	
		<use xlink:href="#New_Symbol"  width="62" height="58.318" x="-31" y="-29.159" transform="matrix(0.1585 -0.2399 -0.2329 -0.1632 719.6865 451.6777)" overflow="visible"/>
	
		<use xlink:href="#New_Symbol"  width="62" height="58.318" x="-31" y="-29.159" transform="matrix(0.2927 0.022 0.0213 -0.3014 821.9209 466.4277)" overflow="visible" opacity="0.8148"/>
	
		<use xlink:href="#New_Symbol"  width="62" height="58.318" x="-31" y="-29.159" transform="matrix(0.1869 -0.0014 -0.0014 -0.1925 859.7617 395.7676)" overflow="visible" opacity="0.7376"/>
	
		<use xlink:href="#New_Symbol"  width="62" height="58.318" x="-31" y="-29.159" transform="matrix(0.0241 0.4438 0.4309 -0.0248 950.8457 352.7021)" overflow="visible" opacity="0.5369"/>
	
		<use xlink:href="#New_Symbol"  width="62" height="58.318" x="-31" y="-29.159" transform="matrix(0.1576 0.009 0.0087 -0.1623 234.9951 161.5488)" overflow="visible" opacity="0.9761"/>
	
		<use xlink:href="#New_Symbol"  width="62" height="58.318" x="-31" y="-29.159" transform="matrix(0.3057 -0.0038 -0.0037 -0.3149 347.6699 243.5435)" overflow="visible" opacity="0.9656"/>
	
		<use xlink:href="#New_Symbol"  width="62" height="58.318" x="-31" y="-29.159" transform="matrix(0.275 0.0043 0.0042 -0.2832 372.1221 204.709)" overflow="visible" opacity="0.9613"/>
	
		<use xlink:href="#New_Symbol"  width="62" height="58.318" x="-31" y="-29.159" transform="matrix(0.1842 -0.179 -0.1738 -0.1897 272.7393 274.8105)" overflow="visible" opacity="0.9856"/>
	
		<use xlink:href="#New_Symbol"  width="62" height="58.318" x="-31" y="-29.159" transform="matrix(0.0975 -0.233 -0.2263 -0.1004 215.2119 344.0928)" overflow="visible" opacity="0.9972"/>
	
		<use xlink:href="#New_Symbol"  width="62" height="58.318" x="-31" y="-29.159" transform="matrix(0.0902 -0.2573 -0.2498 -0.0929 175 379.2832)" overflow="visible" opacity="0.999"/>
	
		<use xlink:href="#New_Symbol"  width="62" height="58.318" x="-31" y="-29.159" transform="matrix(0.2571 0.1145 0.1112 -0.2648 367.1724 410.4531)" overflow="visible" opacity="0.8532"/>
	
		<use xlink:href="#New_Symbol"  width="62" height="58.318" x="-31" y="-29.159" transform="matrix(0.2491 0.0608 0.059 -0.2565 568.3027 402.4941)" overflow="visible" opacity="0.4433"/>
	
		<use xlink:href="#New_Symbol"  width="62" height="58.318" x="-31" y="-29.159" transform="matrix(0.1585 -0.2399 -0.2329 -0.1632 725.2637 371.0557)" overflow="visible"/>
	
		<use xlink:href="#New_Symbol"  width="62" height="58.318" x="-31" y="-29.159" transform="matrix(0.2316 -0.1327 -0.1289 -0.2385 786.0342 404.6514)" overflow="visible" opacity="0.8979"/>
	
		<use xlink:href="#New_Symbol"  width="62" height="58.318" x="-31" y="-29.159" transform="matrix(1.0257 0 0 -1.0563 637.6543 195.5791)" overflow="visible"/>
	
		<use xlink:href="#New_Symbol"  width="62" height="58.318" x="-31" y="-29.159" transform="matrix(0.2516 0.1588 0.1542 -0.2591 558.1523 310.7813)" overflow="visible" opacity="0.6118"/>
	
		<use xlink:href="#New_Symbol"  width="62" height="58.318" x="-31" y="-29.159" transform="matrix(0.3131 0.0492 0.0478 -0.3225 359.9653 344.9619)" overflow="visible" opacity="0.8363"/>
	
		<use xlink:href="#New_Symbol"  width="62" height="58.318" x="-31" y="-29.159" transform="matrix(0.0951 -0.2357 -0.2288 -0.098 189.0317 313.6113)" overflow="visible" opacity="0.9976"/>
	
		<use xlink:href="#New_Symbol"  width="62" height="58.318" x="-31" y="-29.159" transform="matrix(0.2151 0.0327 0.0318 -0.2215 319.5381 77.3965)" overflow="visible" opacity="0.9152"/>
	
		<use xlink:href="#New_Symbol"  width="62" height="58.318" x="-31" y="-29.159" transform="matrix(0.4983 0.2223 0.2158 -0.5131 626.7002 77.8809)" overflow="visible" opacity="0.6557"/>
	
		<use xlink:href="#New_Symbol"  width="62" height="58.318" x="-31" y="-29.159" transform="matrix(0.3203 0.1938 0.1882 -0.3299 599.4619 279.3042)" overflow="visible" opacity="0.6682"/>
	
		<use xlink:href="#New_Symbol"  width="62" height="58.318" x="-31" y="-29.159" transform="matrix(0.2477 0.055 0.0534 -0.2551 543.71 449.2939)" overflow="visible" opacity="0.4323"/>
	
		<use xlink:href="#New_Symbol"  width="62" height="58.318" x="-31" y="-29.159" transform="matrix(0.1797 -0.2183 -0.212 -0.1851 716.8643 384.1406)" overflow="visible" opacity="0.9765"/>
	
		<use xlink:href="#New_Symbol"  width="62" height="58.318" x="-31" y="-29.159" transform="matrix(0.2257 -0.1659 -0.1611 -0.2324 773.6865 441.4209)" overflow="visible" opacity="0.9283"/>
	
		<use xlink:href="#New_Symbol"  width="62" height="58.318" x="-31" y="-29.159" transform="matrix(0.1919 -0.2058 -0.1999 -0.1977 662.4082 395.2246)" overflow="visible" opacity="0.9223"/>
	
		<use xlink:href="#New_Symbol"  width="62" height="58.318" x="-31" y="-29.159" transform="matrix(0.2543 0.0344 0.0334 -0.2619 579.7188 420.8359)" overflow="visible" opacity="0.4838"/>
	
		<use xlink:href="#New_Symbol"  width="62" height="58.318" x="-31" y="-29.159" transform="matrix(0.1807 -0.155 -0.1505 -0.1861 227.2798 444.877)" overflow="visible" opacity="0.9981"/>
	
		<use xlink:href="#New_Symbol"  width="62" height="58.318" x="-31" y="-29.159" transform="matrix(0.1462 -0.2223 -0.2158 -0.1506 185.3447 461.6748)" overflow="visible" opacity="0.9988"/>
	
		<use xlink:href="#New_Symbol"  width="62" height="58.318" x="-31" y="-29.159" transform="matrix(0.0945 -0.2663 -0.2586 -0.0973 117.8804 362.9463)" overflow="visible" opacity="0.9989"/>
</g>
<g>
	<rect x="471.5" y="221.5" fill="#8CC63F" stroke="#000000" stroke-miterlimit="10" width="12" height="121"/>
	<path fill="#603813" stroke="#000000" stroke-miterlimit="10" d="M491.334,353c0,0,15.333-45.667,42.333-1.667"/>
	<path fill="#8CC63F" stroke="#000000" stroke-miterlimit="10" d="M478.339,220.943c1.551,14.831,11.46,24.068,42.861,20.785
		c31.401-3.283,70.853-32.674,70.853-32.674s-45.65-21.054-77.051-17.771C483.6,194.566,476.788,206.112,478.339,220.943z"/>
	<path fill="#8CC63F" stroke="#000000" stroke-miterlimit="10" d="M478.572,226.825c-1.721,14.813-12.044,23.899-44.503,20.129
		c-32.458-3.771-73.039-33.783-73.039-33.783s47.391-20.354,79.849-16.584C473.338,200.357,480.293,212.014,478.572,226.825z"/>
	<g>
		<path d="M477.603,225.067c-0.019-0.07-1.894-7.134-11.077-12.258c-10.045-5.603-30.323-9.665-69.891,2.812l-0.602-1.907
			c40.337-12.72,61.179-8.435,71.56-2.599c9.91,5.57,11.873,13.152,11.952,13.472L477.603,225.067z"/>
	</g>
	<g>
		<path d="M479.974,223.067c0.019-0.07,1.894-7.134,11.077-12.258c10.045-5.603,30.323-9.665,69.891,2.812l0.602-1.907
			c-40.337-12.72-61.179-8.435-71.559-2.599c-9.91,5.57-11.873,13.152-11.952,13.472L479.974,223.067z"/>
	</g>
	<path fill="#603813" stroke="#000000" stroke-miterlimit="10" d="M417.333,342.5c0,0,35-39.5,58.333,10.5"/>
	<path fill="#603813" stroke="#000000" stroke-miterlimit="10" d="M442.333,357.333c0,0,34.823-55.5,65.667,0"/>
</g>
</svg>
