<?xml version="1.0" encoding="utf-8"?>
<!-- Generator: Adobe Illustrator 16.0.0, SVG Export Plug-In . SVG Version: 6.00 Build 0)  -->
<!DOCTYPE svg PUBLIC "-//W3C//DTD SVG 1.1//EN" "http://www.w3.org/Graphics/SVG/1.1/DTD/svg11.dtd">
<svg version="1.1" xmlns="http://www.w3.org/2000/svg" xmlns:xlink="http://www.w3.org/1999/xlink" x="0px" y="0px" width="960px"
	 height="560px" viewBox="0 0 960 560" enable-background="new 0 0 960 560" xml:space="preserve">
<g id="배경2">
	<rect x="-85" y="-95" fill="#3FA9F5" width="1129" height="771"/>
	<g>
		<path fill="#FFFFFF" d="M252.057,73.523c0,9.916,1.808,12.716-11.165,20.774c-8.575,5.326-17.112,11.601-30.023,15.647
			c-10.376,3.252-22.36-0.044-34.919,2.165c-11.068,1.946-21.568,6.583-33.931,7.578c-11.413,0.919-22.657,17.147-34.864,17.147
			c-12.205,0-24.769,0.196-36.18-0.723c-12.364-0.995-21.735-20.969-32.805-22.916c-12.561-2.209-29.1,15.143-39.477,11.891
			c-12.912-4.047-27.781-7.63-36.356-12.957c-12.971-8.057,1.046-28.691,1.046-38.605c0-9.916-8.497-21.665,4.476-29.722
			c8.575-5.326,17.452-19.303,30.363-23.35c10.376-3.252,26.836,12.471,39.396,10.263C48.687,28.767,58.391,9.248,70.753,8.252
			c11.413-0.919,24.195,17.925,36.402,17.925c12.205,0,24.667-14.898,36.079-13.979c12.364,0.995,25.292,0.062,36.361,2.009
			c12.561,2.209,22.962,13.062,33.339,16.314c12.912,4.047,20.204,15.587,28.779,20.913
			C254.684,59.491,252.057,63.608,252.057,73.523z"/>
	</g>
	<g>
		<path fill="#FFFFFF" d="M935.658,74.315c0,8.829-2.923,12.796-17.5,18.876c-9.144,3.814-19.288,7.939-32.139,9.91
			c-10.642,1.632-21.827-0.971-34.031-0.971c-12.203,0-23.149,1.045-33.791-0.587c-12.852-1.971-26.67,3.695-35.813-0.12
			c-14.576-6.081-26.623-18.281-26.623-27.109s16.035-11.467,30.612-17.547c9.144-3.814,17.344-18.324,30.194-20.295
			c10.643-1.632,23.217-4.172,35.421-4.172c12.203,0,22.589,16.808,33.23,18.44c12.853,1.971,26.139-4.73,35.282-0.916
			C935.077,55.906,935.658,65.487,935.658,74.315z"/>
	</g>
	<g>
		<polygon fill="#4D4D4D" points="321,325.5 466.75,333.25 462,445.25 312.75,449.25 		"/>
		<polygon fill="#808080" points="476.738,411.137 475.68,441.43 802.963,467.99 804.064,411.002 		"/>
		<polyline fill="#CCCCCC" points="142.99,322.29 303.15,322 296.96,442.81 142.31,455.11 		"/>
		<g id="XMLID_1_">
			<g>
				<path d="M884.95,168.36l10.25,31.44l-0.26,0.15c0.02-0.18,0.04-0.35,0.06-0.53l-2-0.17l-0.21-0.39l-9.71-29.77l-23.23-38.51
					l-25.21-29.94c-1.859-1.42-32.12-24.61-53.97-43.89c-22.17-19.56-87.46-27.02-88.11-27.09L638.95,27H592l-90.97,3H426l-126.58,6
					h-0.75c-5.67,0-36.09,0.63-78.31,12.69C176.11,61.33,77.87,165.33,70.05,173.66l3.19,5.96l-1.06,0.54
					c-0.3-0.49-0.6-0.98-0.89-1.47c-0.49-0.83-0.97-1.63-1.44-2.39l-0.49,0.31l-1.74-3.28l0.48-0.52
					c4.28-4.6,105.31-112.78,151.71-126.04C262.29,34.63,292.95,34,298.67,34c0.48,0,0.72,0,0.72,0l126.56-6H501l90.97-3H639
					l53.72,2.67c2.761,0.3,66.63,7.6,89.271,27.58c22.39,19.75,53.64,43.63,53.95,43.87l0.159,0.15l25.42,30.21l23.391,38.77
					L884.95,168.36z"/>
				<path d="M895,199.42c-0.02,0.18-0.04,0.35-0.06,0.53l-2.141,1.2c0.08-0.62,0.15-1.26,0.2-1.9L895,199.42z"/>
				<path d="M892.8,201.15l2.141-1.2c-2.2,23.15-17.04,34.38-17.681,34.85l-0.27,0.15l-44.63,15.33l-0.28-0.82v-0.01
					c0.01-0.4,0.02-0.79,0.03-1.2l44.08-15.14C877.54,232.04,890.35,221.43,892.8,201.15z"/>
				<path d="M892.79,198.86l0.21,0.39c-0.05,0.64-0.12,1.28-0.2,1.9l-3.979,2.24l-0.37-0.08c-0.28-0.06-28.851-6.31-53.12-6.31
					c-0.21,0.02-27.49,1.84-45.29,2.5c-17.78,0.66-56.25,3.47-56.63,3.5H702l-26.13,0.33l-0.13-0.05
					c-0.29-0.08-28.71-7.7-34.62-9.01c-1.84-0.41-5.09-0.67-9.65-0.67c-6.739,0-14,0.4-14.069,0.4h-0.131l-21.369-4H563l-50.37-1.67
					L357.99,187c-9.31-0.45-55.72-2.75-58.44-4.1c0-0.01-0.07-0.04-0.27-0.04c-2.46,0-9.93,4.48-14.05,7.3l-0.24,0.17L258.02,191
					l-40.05-1.33l-72.88-6.7l-7.76-1.94l-13.28,3.32l-19.52-2.69l-14.54-1.32l-16.88,1.3c-0.31-0.49-0.62-0.98-0.93-1.48l1.06-0.54
					l16.77-1.29l14.75,1.34l19.18,2.65l13.39-3.35l8.17,2.04l72.59,6.66l39.94,1.33l26.32-0.66c1.92-1.3,11.24-7.48,14.93-7.48
					c0.45,0,0.84,0.08,1.17,0.25c2.24,0.92,35.68,2.84,57.6,3.89l154.62,1.33l50.36,1.67H596.1l21.301,4.16
					c1.01-0.06,7.77-0.47,14.069-0.47c4.71,0,8.101,0.23,10.08,0.67c5.74,1.27,32.44,8.4,34.57,8.97l25.87-0.33h31.34
					c0.32-0.03,38.82-2.84,56.63-3.5c17.78-0.66,45.03-2.5,45.3-2.5c0.01,0,0.021,0,0.021,0c23.029,0,49.76,5.54,53.229,6.28
					L892.79,198.86z"/>
				<path fill="#9E6332" d="M888.82,203.39l3.979-2.24c-2.45,20.28-15.26,30.89-16.609,31.96l-44.08,15.14
					c0.229-10.43,0.51-20.84,0.89-31.21l0.04-1.16l-1.33,0.14c-0.41,0.05-0.89,0.09-1.37,0.28c-6.399-0.02-12.899-0.01-19.3,0.02
					l-0.67-0.04c0,0.01,0,0.03,0,0.04c-1.92,0.01-3.84,0.02-5.74,0.03c-43.96,0.21-89.42,0.42-132.39-10.32l-0.15-0.03
					c-13.96-1.33-28.51-1.78-42.58-2.21c-7.08-0.23-14.399-0.45-21.47-0.79c-75.47-2.68-166.83-5.67-264.55-7.73l-0.36-0.74
					l-0.07,0.04l-0.02-0.04l-1.31,0.71h-0.01c-1.34-0.03-2.68-0.06-4.03-0.08c-0.76-0.02-1.53-0.04-2.3-0.05
					c-0.19-0.01-0.39-0.01-0.59-0.02c-0.28-0.01-0.55-0.01-0.8-0.02v-0.01l-2.16-0.12l-0.18,0.09c-7.29-0.15-14.62-0.29-21.98-0.42
					c-17.09-0.32-34.34-0.6-51.7-0.84l0.04-2.77l26.97-0.67l0.24-0.17c4.12-2.82,11.59-7.3,14.05-7.3c0.2,0,0.27,0.03,0.27,0.04
					c2.72,1.35,49.13,3.65,58.44,4.1l154.64,1.33L563,190h32.9l21.369,4.17h0.131c0.069-0.01,7.33-0.48,14.069-0.48
					c4.561,0,7.811,0.21,9.65,0.62c5.91,1.31,34.33,8.91,34.62,8.99l0.13,0.04L702,203h31.41c0.38-0.03,38.85-2.84,56.63-3.5
					c17.8-0.66,45.08-2.48,45.29-2.5c24.27,0,52.84,6.25,53.12,6.31L888.82,203.39z"/>
				<path fill="#F7AA63" d="M883.08,169.09l9.71,29.77l-4.28,2.42c-3.47-0.74-30.2-6.28-53.229-6.28c0,0-0.011,0-0.021,0
					c-0.27,0-27.52,1.84-45.3,2.5c-17.81,0.66-56.31,3.47-56.63,3.5h-31.34l-25.87,0.33c-2.13-0.57-28.83-7.7-34.57-8.97
					c-1.979-0.44-5.37-0.67-10.08-0.67c-6.3,0-13.06,0.41-14.069,0.47L596.1,188H563.03l-50.36-1.67L358.05,185
					c-21.92-1.05-55.36-2.97-57.6-3.89c-0.33-0.17-0.72-0.25-1.17-0.25c-3.69,0-13.01,6.18-14.93,7.48L258.03,189l-39.94-1.33
					l-72.59-6.66l-8.17-2.04l-13.39,3.35l-19.18-2.65l-14.75-1.34l-16.77,1.29l-3.19-5.96c7.82-8.33,106.06-112.33,150.31-124.97
					C262.58,36.63,293,36,298.67,36h0.75L426,30h75.03L592,27h46.95l53.609,2.66c0.65,0.07,65.94,7.53,88.11,27.09
					c21.85,19.28,52.11,42.47,53.97,43.89l25.21,29.94L883.08,169.09z"/>
				<path d="M833.04,215.88l-0.04,1.16c-0.38,10.37-0.66,20.78-0.89,31.21l-0.4,0.13v0.01l0.37,1.06v0.01
					c-1.26,58.49-0.46,117.6,0.34,175.08c0.19,14.02,0.38,27.99,0.55,41.95l-2-0.03c-0.17-13.95-0.359-28.03-0.55-42.05
					c-0.939-67.7-1.9-137.41,0.53-206.41c-0.061,0-0.12,0-0.181,0h-0.319l-3.72,0.19l0.13,0.1c-4.86-0.01-9.75,0-14.601,0.02
					c0.04-0.64,0.07-1.28,0.11-1.92l-1.33-0.07c6.4-0.03,12.9-0.04,19.3-0.02c0.48-0.19,0.96-0.23,1.37-0.28L833.04,215.88z"/>
				<path d="M832.11,248.25c-0.011,0.41-0.021,0.8-0.03,1.2l-0.37-1.06L832.11,248.25z"/>
				<path d="M812.37,216.39c-0.04,0.64-0.07,1.28-0.11,1.92c-0.66,0.01-1.33,0.01-2,0.01c0.04-0.66,0.07-1.33,0.11-2
					c0.22,0,0.439,0,0.67,0L812.37,216.39z"/>
				<path d="M810.26,218.32c0.67,0,1.34,0,2-0.01c-1.609,30.27-3.2,61.21-4.75,91.15c-1.02,20.01-2.069,40.28-3.14,60.63l-0.95-0.05
					V370l0.03-1.96v-0.08l-0.96-0.1c0.1-1.931,0.2-3.87,0.3-5.801c0.14-2.63,0.28-5.25,0.42-8.04c0.04-0.8,0.08-1.619,0.12-2.46
					c0.04-0.75,0.08-1.489,0.12-2.229h0.03l-0.011-0.24V349h0.011l-0.011-0.08c0.69-13.32,1.37-26.42,2.05-39.56
					C807.06,279.45,808.65,248.56,810.26,218.32z"/>
				<path d="M811.04,216.32c-0.23,0-0.45,0-0.67,0c0-0.01,0-0.03,0-0.04L811.04,216.32z"/>
				<path d="M810.37,216.32c-0.04,0.67-0.07,1.34-0.11,2c-1.88,0.01-3.76,0.02-5.62,0.03c-44.06,0.2-89.609,0.42-132.81-10.36
					c-13.87-1.32-28.37-1.77-42.38-2.21c-7.09-0.22-14.42-0.44-21.5-0.78c-37.45-1.33-78.8-2.74-122.91-4.07
					c-4.68-0.14-9.4-0.28-14.15-0.42c-40.27-1.18-82.68-2.29-126.36-3.21l-1.08-2.03c0.01,0,0.03,0,0.04,0
					c97.72,2.06,189.08,5.05,264.55,7.73c7.07,0.34,14.39,0.56,21.47,0.79c14.07,0.43,28.62,0.88,42.58,2.21l0.15,0.03
					c42.97,10.74,88.43,10.53,132.39,10.32C806.53,216.34,808.45,216.33,810.37,216.32z"/>
				<path fill="#F4DFD0" d="M810.26,218.32c-1.609,30.24-3.2,61.13-4.74,91.041c-0.68,13.14-1.359,26.239-2.05,39.56l0.011,0.08
					h-0.011l-0.09-1.67l-56.62,2.7l-10.31,16.93l-142.13-2.28l-80.351-1.29l-1.33-15.47l-8.13-9.34l-23.84-3.21L487,202.38l-2-0.09
					l0.04-1.36c44.11,1.33,85.46,2.74,122.91,4.07c7.08,0.34,14.41,0.56,21.5,0.78c14.01,0.44,28.51,0.89,42.38,2.21
					c43.2,10.78,88.75,10.56,132.81,10.36C806.5,218.34,808.38,218.33,810.26,218.32z"/>
				<path d="M803.42,370.04l0.95,0.05c-0.45,8.75-0.91,17.521-1.38,26.29l-0.96-0.05l0.029-2h-0.01l-0.96-0.021
					c0.44-8.1,0.86-16.21,1.29-24.29L803.42,370.04z"/>
				<path d="M803.47,349.09l0.011,0.24h-0.03C803.46,349.25,803.46,349.17,803.47,349.09z"/>
				<path d="M803.47,349v0.09c-0.01,0.08-0.01,0.16-0.02,0.24h-0.021c0.011-0.11,0.011-0.22,0.021-0.33H803.47z"/>
				<path d="M803.38,347.33l0.09,1.67h-0.02c-0.01,0.11-0.01,0.22-0.021,0.33l-55.52,2.64L738.77,367l-2.319-0.04l10.31-16.93
					L803.38,347.33z"/>
				<path d="M803.45,349.33c-0.04,0.74-0.08,1.479-0.12,2.229c0.03-0.729,0.07-1.47,0.1-2.229H803.45z"/>
				<path d="M803.45,368.04l-0.03,1.96h-1.04c0.03-0.65,0.07-1.32,0.101-1.98L803.45,368.04z"/>
				<path fill="#999999" d="M747.91,351.97l55.52-2.64c-0.029,0.76-0.069,1.5-0.1,2.229c-0.04,0.841-0.08,1.66-0.12,2.46
					c-0.14,2.681-0.28,5.36-0.42,8.04c-0.1,1.91-0.21,3.82-0.31,5.801h0.01c0,0.05-0.01,0.109-0.01,0.159L738.77,367L747.91,351.97z
					"/>
				<path d="M803.42,370v0.04l-1.04-0.021c0-0.01,0-0.01,0-0.02H803.42z"/>
				<path d="M802.03,396.33l0.96,0.05c-1.181,22.2-2.391,44.41-3.641,66.37l-2-0.11c0.841-14.689,1.65-29.489,2.46-44.319
					c0.62,0.02,0.98,0.029,1.021,0.029l0.06-2c-0.14,0-0.479-0.01-0.97-0.029c0.36-6.66,0.71-13.33,1.07-20.011L802.03,396.33z"/>
				<path d="M802.79,362.06c-0.1,1.931-0.2,3.87-0.3,5.801h-0.01C802.58,365.88,802.69,363.97,802.79,362.06z"/>
				<path d="M802.48,368.02c-0.03,0.66-0.07,1.33-0.101,1.98c0,0.01,0,0.01,0,0.02l-64.53-1.029l0.011-0.5l0.909-1.49L802.48,368.02
					z"/>
				<path fill="#999999" d="M802.38,370.02c-0.43,8.08-0.85,16.19-1.29,24.29v0.011l-75.82-1.49c2.61-11.4,0.881-20.7,0.051-24.04
					l12.529,0.2L802.38,370.02z"/>
				<path d="M802.06,394.33l-0.029,2l-1.04-0.021c0.029-0.659,0.069-1.329,0.1-1.989l0.96,0.01H802.06z"/>
				<path d="M801.09,394.32c-0.03,0.66-0.07,1.33-0.1,1.989l-76.03-1.479l0.021-0.78c0.1-0.41,0.199-0.81,0.289-1.22L801.09,394.32z
					"/>
				<path fill="#999999" d="M800.99,396.31c-0.36,6.681-0.71,13.351-1.07,20.011c-8.38-0.24-64.26-1.681-81.5,2.71
					c-3.56,0.91-15.13,1.35-31.42,1.479c-29.5,0.24-74.47-0.56-115.35-1.51H573v-8.25l-6-11v-8.01l27.29,0.529l130.67,2.561
					L800.99,396.31z"/>
				<path d="M800.89,416.35l-0.06,2c-0.04,0-0.4-0.01-1.021-0.029c0.03-0.66,0.07-1.33,0.11-2
					C800.41,416.34,800.75,416.35,800.89,416.35z"/>
				<path d="M799.92,416.32c-0.04,0.67-0.08,1.34-0.11,2c-8.25-0.23-64.17-1.61-80.899,2.649c-3.54,0.9-14.54,1.37-30.03,1.53
					l0.11-0.8l-1.98-0.28l-0.01-0.91c16.29-0.13,27.86-0.569,31.42-1.479C735.66,414.64,791.54,416.08,799.92,416.32z"/>
				<polygon points="738.77,367 737.86,368.49 736.15,367.45 736.45,366.96 				"/>
				<path d="M737.86,368.49l-0.011,0.5l-12.529-0.2c-0.19-0.78-0.33-1.24-0.36-1.33l-1.9,0.61c0,0.01,0.07,0.25,0.19,0.68
					l-128.65-2.07c-0.159-0.729-0.27-1.18-0.29-1.27l0.011-0.73l142.13,2.28l-0.3,0.49L737.86,368.49z"/>
				<path d="M725.32,368.79c0.83,3.34,2.56,12.64-0.051,24.04l-2.05-0.04c2.79-11.771,0.7-21.45,0.03-24.04L725.32,368.79z"/>
				<path d="M725.32,368.79l-2.07-0.04c-0.12-0.43-0.19-0.67-0.19-0.68l1.9-0.61C724.99,367.55,725.13,368.01,725.32,368.79z"/>
				<path d="M725.27,392.83c-0.09,0.41-0.189,0.81-0.289,1.22l-1.94-0.49c0.06-0.26,0.12-0.51,0.18-0.77L725.27,392.83z"/>
				<path d="M724.98,394.05l-0.021,0.78l-130.67-2.561l0.02-0.77c0.11-0.41,0.21-0.82,0.301-1.22l128.609,2.51
					c-0.06,0.26-0.12,0.51-0.18,0.77L724.98,394.05z"/>
				<path fill="#999999" d="M723.25,368.75c0.67,2.59,2.76,12.27-0.03,24.04l-128.609-2.51c2.359-10.25,0.71-20.15-0.011-23.601
					L723.25,368.75z"/>
				<path d="M688.99,421.7l-0.11,0.8c-0.67,0-1.34,0.01-2.02,0.02l0.149-1.1L688.99,421.7z"/>
				<path d="M688.88,422.5l-3.96,28.22l-1.979-0.27l3.92-27.931C687.54,422.51,688.21,422.5,688.88,422.5z"/>
				<path d="M687,420.51l0.01,0.91l-0.149,1.1c-3.78,0.03-7.811,0.04-12.04,0.04c-32.511,0-77.25-0.89-116.11-1.85l-2.04-1.83
					l0.01-0.24c4.69,0.11,9.48,0.23,14.32,0.341V419h0.65C612.53,419.95,657.5,420.75,687,420.51z"/>
				<path d="M594.6,366.68c0.721,3.45,2.37,13.351,0.011,23.601l-2.051-0.04c2.5-10.391,0.591-20.79-0.02-23.59L594.6,366.68z"/>
				<path d="M594.61,390.28c-0.091,0.399-0.19,0.81-0.301,1.22l-1.939-0.5c0.07-0.26,0.13-0.51,0.189-0.76L594.61,390.28z"/>
				<path d="M594.6,366.68l-2.06-0.029c-0.1-0.46-0.16-0.721-0.17-0.73l1.939-0.51C594.33,365.5,594.44,365.95,594.6,366.68z"/>
				<path d="M594.32,364.68l-0.011,0.73l-1.939,0.51c0.01,0.01,0.07,0.271,0.17,0.73l-113.27-1.82l0.09-2l32.6,0.53l0.04,0.54
					l2-0.17l-0.03-0.341L594.32,364.68z"/>
				<path d="M594.31,391.5l-0.02,0.77L567,391.74V391h-2v0.7l-86.71-1.7l0.04-2l114.229,2.24c-0.06,0.25-0.119,0.5-0.189,0.76
					L594.31,391.5z"/>
				<path fill="#999999" d="M592.54,366.65c0.61,2.8,2.52,13.199,0.02,23.59L478.33,388l-0.17-0.01l1.11-23.16L592.54,366.65z"/>
				<path d="M573,410.75V419h-1.35c-0.221,0-0.431-0.01-0.65-0.02v-7.73l-6-11v-8.55l2,0.04v8.01L573,410.75z"/>
				<path d="M571.65,419H571v-0.02C571.22,418.99,571.43,419,571.65,419z"/>
				<path fill="#999999" d="M571,411.25v7.73c-4.84-0.11-9.63-0.23-14.32-0.341c-40.21-1-73.68-2.05-79.87-2.25l1.35-28.399
					l0.17,0.01l-0.04,2l86.71,1.7v8.55L571,411.25z"/>
				<polygon points="567,391 567,391.74 565,391.7 565,391 				"/>
				<path d="M563,424.55v10.62l-3.06,8.49l-1.881-0.68l2.94-8.15v-9.38l-5.38-4.82c1.02,0.03,2.05,0.05,3.09,0.08L563,424.55z"/>
				<path d="M558.71,420.71c-1.04-0.03-2.07-0.05-3.09-0.08l-0.29-0.26l1.34-1.49L558.71,420.71z"/>
				<path d="M556.68,418.64l-0.01,0.24l-1.34,1.49l0.29,0.26c-39.38-0.99-72.12-2.03-78.9-2.25l0.09-1.99
					C483,416.59,516.47,417.64,556.68,418.64z"/>
				<polygon points="513.97,363.39 514,363.73 512,363.9 511.96,363.36 				"/>
				<polygon points="512.64,347.92 513.97,363.39 511.96,363.36 510.7,348.74 503.49,340.46 480.57,337.37 480.67,335.37 
					504.51,338.58 				"/>
				<polygon fill="#999999" points="510.7,348.74 511.96,363.36 479.36,362.83 480.57,337.37 503.49,340.46 				"/>
				<polygon points="487,202.38 480.67,335.37 480.47,335.34 480.21,337.32 480.57,337.37 479.36,362.83 478.33,362.82 
					477.36,362.77 485,202.29 				"/>
				<polygon points="480.67,335.37 480.57,337.37 480.21,337.32 480.47,335.34 				"/>
				<polygon points="479.36,362.83 479.27,364.83 478.3,364.82 478.33,362.82 				"/>
				<path d="M479.27,364.83l-1.11,23.16l-1.35,28.399c-0.58-0.02-0.93-0.029-1.01-0.04l-0.07,2c0.22,0.011,0.55,0.021,0.99,0.03
					l-1.04,21.91l-2-0.09l3.68-77.431l0.97,0.051l-0.03,2L479.27,364.83z"/>
				<path d="M476.81,416.39l-0.09,1.99c-0.44-0.01-0.77-0.02-0.99-0.03l0.07-2C475.88,416.36,476.23,416.37,476.81,416.39z"/>
				<polygon points="472.83,202.39 462.43,390.02 462,390 462,388 460.55,388 470.08,216 471,216 471,214 470.19,214 470.84,202.28 
									"/>
				<polygon points="471,214 471,216 470.08,216 470.19,214 				"/>
				<path fill="#603813" d="M470.89,200.51l-0.05,1.77L470.19,214H353.52l-8.99-16.7C388.21,198.22,430.62,199.33,470.89,200.51z"/>
				<polygon points="470.19,214 470.08,216 353.69,216 353.75,214.71 353.76,214.44 353.52,214 				"/>
				<path fill="#F4DFD0" d="M470.08,216l-9.53,172H391v-24.54c5.29-0.729,9.14-1.81,10.56-3.35c0.78-0.841,0.84-1.69,0.76-2.25
					c-1.36-9.551-5.44-13.73-5.61-13.9l-0.18-0.18l-48.16-14.511L353.69,216H470.08z"/>
				<polygon points="462.43,390.02 459.66,440.09 457.67,439.98 458.44,426 459,426 459,424 458.55,424 460.44,390 462,390 				"/>
				<polygon points="462,388 462,390 460.44,390 460.55,388 				"/>
				<polygon points="460.55,388 460.44,390 391,390 391,388 				"/>
				<polygon points="459,424 459,426 458.44,426 458.55,424 				"/>
				<polygon points="458.55,424 458.44,426 391,426 391,424 				"/>
				<path d="M402.32,357.86c0.08,0.56,0.02,1.409-0.76,2.25c-1.42,1.54-5.27,2.62-10.56,3.35V362h-2l-0.03-0.26
					c5.8-0.65,9.85-1.61,11.12-2.99c0.29-0.31,0.26-0.52,0.25-0.61c-1.11-7.8-4.17-11.75-4.9-12.6L347.19,331h1.1l0.08-1.73
					l48.16,14.511l0.18,0.18C396.88,344.13,400.96,348.31,402.32,357.86z"/>
				<polygon points="391,426 391,441 389,441 389,390 390,390 391,390 391,424 390,424 390,426 				"/>
				<rect x="390" y="424" width="1" height="2"/>
				<rect x="390" y="388" width="1" height="2"/>
				<path d="M391,363.46V388h-1v2h-1v-26.29C389.69,363.64,390.35,363.55,391,363.46z"/>
				<path d="M391,362v1.46c-0.65,0.09-1.31,0.18-2,0.25V362H391z"/>
				<path d="M389,362v1.71c-7.35,0.85-16.93,1.14-26.55,1.14c-16.72,0-33.52-0.869-38.77-1.159l0.12-2
					c20.81,1.189,49.43,1.8,65.17,0.05L389,362z"/>
				<polygon points="353.52,214 353.76,214.44 353.75,214.71 353.69,216 353,216 353,214 				"/>
				<path d="M353.69,216l-5.32,113.27l-0.75-0.229l-0.58,1.92l0.15,0.04h-21.58l0.12-2h20.65l5.36-114.1l-9.5-17.65
					c0.76,0.01,1.53,0.03,2.29,0.05l8.99,16.7H353v2H353.69z"/>
				<path fill="#603813" d="M342.24,197.25l9.5,17.65L346.38,329h-20.65l7.81-131.93C336.45,197.13,339.35,197.19,342.24,197.25z"/>
				<polygon points="348.37,329.27 348.29,331 347.19,331 347.04,330.96 347.62,329.04 				"/>
				<path d="M343.45,195.27l1.08,2.03c-0.76-0.02-1.53-0.04-2.29-0.05l-0.96-1.78l0.44-0.23h0.01c0.05,0,0.11,0,0.16,0
					C342.41,195.25,342.93,195.26,343.45,195.27z"/>
				<path d="M343.06,194.57l0.39,0.7c-0.52-0.01-1.04-0.02-1.56-0.03L343.06,194.57z"/>
				<path d="M343.04,194.53l0.02,0.04l-1.17,0.67c-0.05,0-0.11,0-0.16,0L343.04,194.53z"/>
				<path d="M341.28,195.47l0.96,1.78c-2.89-0.06-5.79-0.12-8.7-0.18l0.12-2c0.38,0.01,0.76,0.02,1.14,0.02
					c0.2,0.01,0.4,0.01,0.59,0.02c0.71,0.01,1.49,0.03,2.3,0.05c1.35,0.02,2.69,0.05,4.03,0.08L341.28,195.47z"/>
				<path d="M335.39,195.11c0.77,0.01,1.54,0.03,2.3,0.05C336.88,195.14,336.1,195.12,335.39,195.11z"/>
				<path d="M334,195.06v0.01c-0.25,0-0.46-0.01-0.65-0.01c-0.17,0-0.34,0-0.52-0.01c-0.31-0.01-0.58-0.01-0.91-0.02l-0.08-0.09
					L334,195.06z"/>
				<path d="M333.66,195.07l-0.12,2c-0.66-0.01-1.33-0.03-2-0.04l0.12-2c0.39,0.01,0.78,0.02,1.17,0.02
					c0.18,0.01,0.35,0.01,0.52,0.01C333.46,195.07,333.56,195.07,333.66,195.07z"/>
				<path d="M333.54,197.07L325.73,329H325v2h0.61l-1.81,30.69c-0.34-0.021-0.67-0.04-1-0.061l-1-0.06l9.74-164.541
					C332.21,197.04,332.88,197.06,333.54,197.07z"/>
				<path d="M331.66,195.03l-0.12,2c-6.62-0.13-13.28-0.26-19.96-0.39v-0.02l0.08-1.57l-1.99-0.1l0.01-0.34
					C317.04,194.74,324.37,194.88,331.66,195.03z"/>
				<polygon points="325.73,329 325.61,331 325,331 325,329 				"/>
				<path d="M323.8,361.69l-0.12,2c-0.4-0.021-0.74-0.04-1-0.061l0.12-2C323.13,361.65,323.46,361.67,323.8,361.69z"/>
				<path d="M323.68,363.69l-4.65,78.55l-2-0.12l4.77-80.55l1,0.06l-0.12,2C322.94,363.65,323.28,363.67,323.68,363.69z"/>
				<path d="M311.66,195.05l-0.08,1.57c-0.66-0.01-1.32-0.11-1.99-0.12l0.08-1.55L311.66,195.05z"/>
				<path d="M311.58,196.62v0.02c-0.66-0.01-1.33-0.02-2-0.03l0.01-0.11C310.26,196.51,310.92,196.61,311.58,196.62z"/>
				<path d="M311.58,196.64l-6.43,125.419L304,322v-2h-0.74l6.32-123.39C310.25,196.62,310.92,196.63,311.58,196.64z"/>
				<path d="M309.68,194.61l-0.01,0.34l-0.08,1.55h-0.01l-0.01,0.11c-40.53-0.75-81.93-1.31-123.58-1.61
					c-1.93,0-3.93,0.25-5.87,0.49c-1.97,0.25-4.01,0.5-6.05,0.51c-11.16,1.63-16.31,11.91-21.29,21.85
					c-0.99,1.97-1.92,3.83-2.9,5.63c-1.38,2.75-3.75,4.41-6.68,4.8c-0.07-0.45-0.13-0.9-0.2-1.35c0-0.03-0.01-0.06-0.01-0.09
					l-0.31,0.03l-0.06-0.55c1.94-0.18,4.13-1.07,5.49-3.77c0.98-1.8,1.9-3.64,2.88-5.6c4.98-9.93,10.62-21.19,22.87-22.94L174,194
					c1.94,0,3.94-0.25,5.88-0.49c1.99-0.25,4.06-0.51,6.12-0.51c24.11,0.18,48.15,0.43,71.98,0.77
					C275.34,194.01,292.59,194.29,309.68,194.61z"/>
				<rect x="309.525" y="196.55" transform="matrix(0.0885 -0.9961 0.9961 0.0885 86.3867 487.516)" width="0.11" height="0.01"/>
				
					<rect x="244.639" y="258.3" transform="matrix(0.0512 -0.9987 0.9987 0.0512 32.7736 551.1052)" width="123.552" height="0.01"/>
				<path fill="#F4DFD0" d="M309.57,196.61L303.25,320l-0.01,0.19l-160.33,0.1c0-0.1,0-0.19,0-0.29
					c-0.01-7.09-0.04-14.14-0.06-21.11c-0.07-21.59-0.15-43.85,0.08-65.85h0.12c-0.02-0.66-0.03-1.32-0.04-1.98h0.1
					c0-0.25,0-0.5,0-0.75l0.38-0.06c-0.09-0.66-0.19-1.32-0.29-1.97c2.93-0.39,5.3-2.05,6.68-4.8c0.98-1.8,1.91-3.66,2.9-5.63
					c4.98-9.94,10.13-20.22,21.29-21.85c2.04-0.01,4.08-0.26,6.05-0.51c1.94-0.24,3.94-0.49,5.87-0.49
					C227.64,195.3,269.04,195.86,309.57,196.61z"/>
				<polygon points="305.15,322.06 298.95,442.96 296.96,442.81 303.14,322.19 303.15,322.19 303.16,322 304,322 				"/>
				<polygon points="304,320 304,322 303.16,322 303.25,320.19 303.26,320 				"/>
				<rect x="303.155" y="320.09" transform="matrix(0.0512 -0.9987 0.9987 0.0512 -31.956 606.5536)" width="0.191" height="0.01"/>
				
					<rect x="302.294" y="321.09" transform="matrix(0.0496 -0.9988 0.9988 0.0496 -32.5353 607.9996)" width="1.812" height="0.01"/>
				<path d="M303.24,320.19l-0.09,1.81l-0.01,0.19l-160.22,0.1c0-0.1,0-0.19,0-0.29c0,0,0-0.05,0-0.13
					c-0.01-0.53-0.01-1.05-0.01-1.58L303.24,320.19z"/>
				<rect x="303.055" y="322.09" transform="matrix(0.0538 -0.9986 0.9986 0.0538 -34.779 607.4883)" width="0.191" height="0.01"/>
				<path fill="#9E6332" d="M258.02,191l-0.04,2.77c-23.83-0.34-47.87-0.59-71.98-0.77c-2.06,0-4.13,0.26-6.12,0.51
					c-1.94,0.24-3.94,0.49-5.88,0.49l-0.14,0.01c-12.25,1.75-17.89,13.01-22.87,22.94c-0.98,1.96-1.9,3.8-2.88,5.6
					c-1.36,2.7-3.55,3.59-5.49,3.77c-1.34,0.13-2.55-0.09-3.3-0.27c-7.11-2.37-12.94-5.36-19.11-8.52c-1.56-0.8-3.14-1.61-4.76-2.42
					l-0.13-0.06c-1.05-0.35-2.09-0.58-3.1-0.8c-1.97-0.44-3.82-0.85-5.61-2.04c-3.79-2.95-7.27-6.12-10.63-9.18
					c-4.66-4.25-9.06-8.26-14.21-11.72c-0.75-1.35-1.87-2.27-3.05-3.24c-0.66-0.54-1.34-1.1-2.01-1.78
					c-1.39-1.38-2.54-2.99-3.6-4.65l16.88-1.3l14.54,1.32l19.52,2.69l13.28-3.32l7.76,1.94l72.88,6.7L258.02,191z"/>
				<path d="M143.2,228.28c0.1,0.65,0.2,1.31,0.29,1.97l-0.38,0.06c0-0.01,0-0.01,0-0.02c-0.01-0.67-0.02-1.34-0.05-2
					C143.11,228.29,143.15,228.28,143.2,228.28z"/>
				<path d="M143,226.93c0.07,0.45,0.13,0.9,0.2,1.35c-0.05,0-0.09,0.01-0.14,0.01C143.04,227.84,143.03,227.38,143,226.93z"/>
				<path d="M143.11,230.31c0,0.25,0,0.5,0,0.75h-0.1c0-0.02,0-0.04,0-0.06c0,0-0.01-0.43-0.02-0.68L143.11,230.31z"/>
				<path d="M143.06,228.29c0.03,0.66,0.04,1.33,0.05,2h-0.12c0,0.01,0,0.02,0,0.03c0.01,0.25,0.02,0.68,0.02,0.68h-0.06
					c0,0.02,0,0.04,0,0.06c-0.01,0.93-0.01,1.29-0.02,1.91l-1.88-0.06c-0.06-1.53-0.06-3.06-0.05-4.58c0.1,0.01,0.2,0.01,0.29,0.01
					C141.9,228.38,142.49,228.36,143.06,228.29z"/>
				<path d="M143.06,228.29c-0.57,0.07-1.16,0.09-1.77,0.05c-0.1-0.01-0.19-0.01-0.29-0.02c0-0.11,0-0.21,0-0.32
					c0-0.13,0-0.26,0-0.39c0-0.18,0-0.37,0-0.55l0.9-0.1l1.1-0.03C143.03,227.38,143.04,227.84,143.06,228.29z"/>
				<path d="M143.01,231.06c0.01,0.66,0.02,1.32,0.04,1.98h-0.12c0-0.01,0-0.02,0-0.03c0-0.01,0-0.03,0-0.04
					c0.01-0.62,0.01-0.98,0.02-1.91H143.01z"/>
				<path d="M142.99,226.84c0,0.03,0.01,0.06,0.01,0.09l-1.1,0.03l0.78-0.09L142.99,226.84z"/>
				<path d="M142.93,232.97c0,0.01,0,0.03,0,0.04l-1.88,0.1c0-0.07,0-0.13,0-0.2L142.93,232.97z"/>
				<path d="M142.93,233.04c-0.23,22-0.15,44.26-0.08,65.85c0.02,6.971,0.05,14.021,0.06,21.11H142v2h0.92c0,0.1,0,0.19,0,0.29
					c0.02,14.9,0,29.44-0.17,44.03c-0.38,34.229-1.48,62.54-3.44,88.79c0,0,1.06-54.551,1.44-88.74
					c0.25-22.521,0.18-45.49,0.1-67.64c-0.08-23.021-0.16-46.51,0.14-70.4c0,0,0,0,0.01,0c-0.01,1.52-0.01,3.05,0.05,4.58
					c0,0.07,0,0.13,0,0.2l1.88-0.1C142.93,233.02,142.93,233.03,142.93,233.04z"/>
				<path d="M142.91,320.29c0,0.68,0,1.31,0.01,1.58c0,0.08,0,0.13,0,0.13H142v-2h0.91C142.91,320.1,142.91,320.19,142.91,320.29z"
					/>
				<path d="M142.62,226.32l0.06,0.55l-0.78,0.09l-0.9,0.03c0,0.02,0,0.05,0,0.07c0,0.18,0,0.37,0,0.55
					c-0.01,0.13-0.01,0.26-0.01,0.39c0,0.11,0,0.22,0,0.33c-0.73-0.06-1.47-0.17-2.23-0.36c-7.33-2.44-13.22-5.46-19.47-8.66
					c-1.53-0.79-3.08-1.59-4.67-2.38c-0.93-0.31-1.86-0.51-2.84-0.73c-2.05-0.46-4.18-0.93-6.33-2.37
					c-3.92-3.04-7.42-6.23-10.82-9.32c-4.66-4.25-9.07-8.27-14.18-11.68l-0.23-0.15l-0.11-0.23c-0.56-1.1-1.49-1.87-2.66-2.84
					c-0.67-0.54-1.41-1.16-2.16-1.9c-2.38-2.38-4.15-5.37-5.72-8c-0.48-0.81-0.95-1.6-1.41-2.34l1.2-0.76l2.73,5.1l1.02-0.07
					c1.06,1.66,2.21,3.27,3.6,4.65c0.67,0.68,1.35,1.24,2.01,1.78c1.18,0.97,2.3,1.89,3.05,3.24c5.15,3.46,9.55,7.47,14.21,11.72
					c3.36,3.06,6.84,6.23,10.63,9.18c1.79,1.19,3.64,1.6,5.61,2.04c1.01,0.22,2.05,0.45,3.1,0.8l0.13,0.06
					c1.62,0.81,3.2,1.62,4.76,2.42c6.17,3.16,12,6.15,19.11,8.52C140.07,226.23,141.28,226.45,142.62,226.32z"/>
				<path d="M141.9,226.96l-0.9,0.1c0-0.02,0-0.05,0-0.07L141.9,226.96z"/>
				<path d="M141.29,228.34c-0.09,0-0.19,0-0.29-0.01v-0.01C141.1,228.33,141.19,228.33,141.29,228.34z"/>
				<path d="M141,228.32v0.01c-0.01,0-0.01,0-0.01,0c0-0.11,0-0.22,0-0.33c0,0,0,0,0.01,0C141,228.11,141,228.21,141,228.32z"/>
				<path d="M141,227.61c0,0.13,0,0.26,0,0.39c-0.01,0-0.01,0-0.01,0C140.99,227.87,140.99,227.74,141,227.61z"/>
				<path d="M72.18,180.16c0.31,0.5,0.62,0.99,0.93,1.48l-1.02,0.07l-2.73-5.1l0.49-0.31c0.47,0.76,0.95,1.56,1.44,2.39
					C71.58,179.18,71.88,179.67,72.18,180.16z"/>
			</g>
			<g>
			</g>
		</g>
		
			<line fill="none" stroke="#000000" stroke-width="2" stroke-miterlimit="10" x1="866.334" y1="186.281" x2="873.666" y2="200.573"/>
		<path fill="none" stroke="#000000" stroke-width="2" stroke-miterlimit="10" d="M512.98,29.606c0,0-5.318,154.681-5.985,156.675"
			/>
		<path fill="none" stroke="#000000" stroke-width="2" stroke-miterlimit="10" d="M629.667,27c0,0,43.313,82.667,72.323,174"/>
		<path fill="none" stroke="#000000" stroke-width="2" stroke-miterlimit="10" d="M207.509,54.031c0,0,505.408-7.6,582.783,11.018"
			/>
		<line fill="none" stroke="#000000" stroke-width="2" stroke-miterlimit="10" x1="166.75" y1="82.179" x2="836.1" y2="99.27"/>
		<path fill="none" stroke="#000000" stroke-width="2" stroke-miterlimit="10" d="M130.059,114.165
			c0,0,682.744,6.689,737.843,29.762"/>
		<line fill="none" stroke="#000000" stroke-width="2" stroke-miterlimit="10" x1="130.059" y1="140.333" x2="90.01" y2="178.33"/>
		<line fill="none" stroke="#000000" stroke-width="2" stroke-miterlimit="10" x1="141" y1="159.332" x2="123.94" y2="182.32"/>
		<line fill="none" stroke="#000000" stroke-width="2" stroke-miterlimit="10" x1="176.332" y1="155" x2="153.131" y2="181.71"/>
		<line fill="none" stroke="#000000" stroke-width="2" stroke-miterlimit="10" x1="199.91" y1="155" x2="179.622" y2="184.141"/>
		
			<line fill="none" stroke="#000000" stroke-width="2" stroke-miterlimit="10" x1="223.08" y1="147.666" x2="202.955" y2="186.281"/>
		<line fill="none" stroke="#000000" stroke-width="2" stroke-miterlimit="10" x1="348.37" y1="147.666" x2="323.68" y2="184.141"/>
		
			<line fill="none" stroke="#000000" stroke-width="2" stroke-miterlimit="10" x1="357.666" y1="165.903" x2="351.74" y2="184.141"/>
		<path fill="none" stroke="#000000" stroke-width="2" stroke-miterlimit="10" d="M442.332,155c0,0-13.338,28.61-8.667,30.651"/>
		<path fill="none" stroke="#000000" stroke-width="2" stroke-miterlimit="10" d="M452.999,170.826c0,0-6.021,12.663-3.333,14.824"
			/>
		<line fill="none" stroke="#000000" stroke-width="2" stroke-miterlimit="10" x1="470.08" y1="165.903" x2="465.25" y2="186.281"/>
		<line fill="none" stroke="#000000" stroke-width="2" stroke-miterlimit="10" x1="487" y1="165.667" x2="482.955" y2="186.281"/>
		
			<line fill="none" stroke="#000000" stroke-width="2" stroke-miterlimit="10" x1="559.311" y1="159.332" x2="557.973" y2="189.833"/>
		<line fill="none" stroke="#000000" stroke-width="2" stroke-miterlimit="10" x1="574" y1="170" x2="574" y2="188"/>
		<line fill="none" stroke="#000000" stroke-width="2" stroke-miterlimit="10" x1="596" y1="174.583" x2="594.334" y2="189.833"/>
		<path fill="none" stroke="#000000" stroke-width="2" stroke-miterlimit="10" d="M624,156.333c0,0,7.334,26.069,5.667,35.368"/>
		<path fill="none" stroke="#000000" stroke-width="2" stroke-miterlimit="10" d="M641.667,179c0,0,2.671,10.296,2.502,13.981"/>
		<line fill="none" stroke="#000000" stroke-width="2" stroke-miterlimit="10" x1="656" y1="186" x2="656" y2="198"/>
		<path fill="none" stroke="#000000" stroke-width="2" stroke-miterlimit="10" d="M751.667,172.333c0,0,6.066,26.151,5.333,27.617"
			/>
		<path fill="none" stroke="#000000" stroke-width="2" stroke-miterlimit="10" d="M760.667,175.974c0,0,13.012,17.568,11.006,22.464
			"/>
		<line fill="none" stroke="#000000" stroke-width="2" stroke-miterlimit="10" x1="778.667" y1="167.333" x2="789.96" y2="197.5"/>
		
			<line fill="none" stroke="#000000" stroke-width="2" stroke-miterlimit="10" x1="787.334" y1="165.667" x2="809.528" y2="198.569"/>
		<line fill="none" stroke="#000000" stroke-width="2" stroke-miterlimit="10" x1="816.667" y1="170" x2="828.651" y2="195.419"/>
		<line fill="none" stroke="#000000" stroke-width="2" stroke-miterlimit="10" x1="847.334" y1="179" x2="851.667" y2="196.333"/>
		
			<line fill="none" stroke="#000000" stroke-width="2" stroke-miterlimit="10" x1="866.334" y1="186.281" x2="873.666" y2="200.573"/>
		<path fill="none" stroke="#000000" stroke-width="2" stroke-miterlimit="10" d="M362.071,33.03c0,0-71.868,120.251-70.97,151.11"
			/>
		<line fill="none" stroke="#000000" stroke-width="2" stroke-miterlimit="10" x1="266" y1="159.332" x2="258.03" y2="189"/>
		<polyline fill="#42210B" points="311.58,196.64 331.54,197.03 319.03,442.24 298.302,443.898 		"/>
		<polyline fill="#42210B" points="470,200 487,200 473.68,441.243 458.44,442.24 		"/>
		<polyline fill="#42210B" points="797.35,462.64 832.97,466.49 833,217.04 810.26,218.32 		"/>
		<polyline fill="#42210B" points="144,228.33 142.31,455.11 121.381,456.16 126.94,221.671 		"/>
	</g>
</g>
<g id="배경">
	<path fill="#C69C6D" stroke="#000000" stroke-width="2" stroke-miterlimit="10" d="M-24.308,473.872
		C-24.308,473.872,477,388,998,494v175l-1040,7L-24.308,473.872z"/>
</g>
<g id="흥부">
	<g>
		<path fill="#FFFFFF" stroke="#000000" stroke-miterlimit="10" d="M673.516,524.81c0,0-23.938,4.068-20.184,16.897
			c0,0,3.756,16.897,38.959,3.442c0,0,13.143-4.342,5.006-20.946"/>
		<path fill="none" stroke="#8C6239" stroke-width="2" stroke-miterlimit="10" d="M667.475,526.333c0,0-6.612,7.217-1.024,6.927
			c10.909-0.566,21.165-4.73,31.802-6.927c0,0,4.084,8.637,0,13.961c-4.084,5.325-9.227,7.051-17.301,8.463
			c-8.075,1.411-17.586,5.179-26.67-4.925C654.281,543.832,646.414,532.55,667.475,526.333z"/>
		
			<line fill="none" stroke="#8C6239" stroke-width="2" stroke-miterlimit="10" x1="657.072" y1="546.51" x2="695.264" y2="542.333"/>
		
			<line fill="none" stroke="#8C6239" stroke-width="2" stroke-miterlimit="10" x1="652.933" y1="542.639" x2="699.955" y2="536.388"/>
		
			<line fill="none" stroke="#8C6239" stroke-width="2" stroke-miterlimit="10" x1="652.933" y1="537.744" x2="699.545" y2="530.187"/>
		
			<line fill="none" stroke="#8C6239" stroke-width="2" stroke-miterlimit="10" x1="656.305" y1="532.633" x2="664.383" y2="530.998"/>
		
			<line fill="none" stroke="#8C6239" stroke-width="2" stroke-miterlimit="10" x1="694.491" y1="527.186" x2="696.358" y2="541.238"/>
		
			<line fill="none" stroke="#8C6239" stroke-width="2" stroke-miterlimit="10" x1="688.771" y1="528.687" x2="689.858" y2="546.51"/>
		
			<line fill="none" stroke="#8C6239" stroke-width="2" stroke-miterlimit="10" x1="682.121" y1="530.187" x2="682.434" y2="549.53"/>
		
			<line fill="none" stroke="#8C6239" stroke-width="2" stroke-miterlimit="10" x1="673.516" y1="533.965" x2="674.454" y2="549.53"/>
		<line fill="none" stroke="#8C6239" stroke-width="2" stroke-miterlimit="10" x1="665" y1="535" x2="665" y2="550"/>
	</g>
	<g>
		<path fill="#FFFFFF" stroke="#000000" stroke-miterlimit="10" d="M747.742,523.542c0,0,22.724-0.622,21.731,12.152
			c0,0-0.218,16.604-35.061,10.485c0,0-12.881-1.642-8.592-18.785"/>
		<path fill="none" stroke="#8C6239" stroke-width="2" stroke-miterlimit="10" d="M753.57,523.853c0,0,7.442,5.563,2.264,6.33
			c-10.11,1.495-20.31-0.518-30.48-0.605c0,0-2.095,8.889,2.667,13.143c4.761,4.252,9.805,4.921,17.478,4.748
			c7.672-0.173,17.111,1.604,23.511-9.595C769.009,537.873,774.067,525.789,753.57,523.853z"/>
		
			<line fill="none" stroke="#8C6239" stroke-width="2" stroke-miterlimit="10" x1="766.962" y1="540.911" x2="731.148" y2="544.083"/>
		
			<line fill="none" stroke="#8C6239" stroke-width="2" stroke-miterlimit="10" x1="770.019" y1="536.498" x2="725.714" y2="539.357"/>
		
			<line fill="none" stroke="#8C6239" stroke-width="2" stroke-miterlimit="10" x1="769.084" y1="531.891" x2="724.905" y2="533.444"/>
		
			<line fill="none" stroke="#8C6239" stroke-width="2" stroke-miterlimit="10" x1="765.015" y1="527.705" x2="757.297" y2="527.669"/>
		
			<line fill="none" stroke="#8C6239" stroke-width="2" stroke-miterlimit="10" x1="728.965" y1="529.681" x2="729.937" y2="543.256"/>
		
			<line fill="none" stroke="#8C6239" stroke-width="2" stroke-miterlimit="10" x1="734.495" y1="530.029" x2="736.902" y2="547.009"/>
		
			<line fill="none" stroke="#8C6239" stroke-width="2" stroke-miterlimit="10" x1="740.88" y1="530.205" x2="744.285" y2="548.472"/>
		
			<line fill="none" stroke="#8C6239" stroke-width="2" stroke-miterlimit="10" x1="749.49" y1="532.159" x2="751.601" y2="546.989"/>
		
			<line fill="none" stroke="#8C6239" stroke-width="2" stroke-miterlimit="10" x1="757.463" y1="531.385" x2="760.329" y2="545.524"/>
	</g>
	<path fill="#4D4D4D" stroke="#000000" stroke-miterlimit="10" d="M673.5,521v3.81c0,0,14,9.114,24-0.606V520"/>
	<path fill="#4D4D4D" stroke="#000000" stroke-miterlimit="10" d="M726.5,522v5.313c0,0,13.52,5.358,20.815-3.11l0.672-4.554"/>
	<path fill="#666666" stroke="#000000" stroke-miterlimit="10" d="M662.308,438.827c-5.675,5.791-4.221,29.446-4.246,36.773
		c-0.055,16.018,4.576,48.438,26.534,48.509c26.911,0.086,22.808-39.743,22.096-56.424c0.831,19.459,4.17,65.008,34.162,55.134
		c30.346-9.989,15.945-63.254,10.684-83.992C733.183,366.502,662.336,438.798,662.308,438.827z"/>
	<g>
		<path fill="#B3B3B3" stroke="#000000" stroke-miterlimit="10" d="M667.866,359.333c0,0-23.347,58.25-5.614,81.198
			c0,0,62.43,15.655,89.417-3.745c0,0,12.917-36.848-10.146-77.453C718.462,318.727,667.866,359.333,667.866,359.333z"/>
		<path fill="none" stroke="#000000" stroke-miterlimit="10" d="M704.399,365.494c0,0,10.013,37.977,1.039,80.919"/>
		<path fill="#666666" stroke="#000000" stroke-miterlimit="10" d="M667.885,407.37c0,0,15.021,7.51,30.875,0
			c0,0,2.921,19.192-2.504,21.278c0,0-14.602,6.469-26.911-2.085C669.345,426.563,666.424,424.476,667.885,407.37z"/>
		<path fill="#666666" stroke="#000000" stroke-miterlimit="10" d="M715.447,407.37c0,0,15.021,7.51,30.875,0
			c0,0,2.922,19.192-2.503,21.278c0,0-14.602,6.469-26.911-2.085C716.908,426.563,713.987,424.476,715.447,407.37z"/>
	</g>
	<path fill="#FFBC87" stroke="#000000" stroke-miterlimit="10" d="M666.424,416.749c0,0,5.946,16.064,14.916,6.677
		c0,0,3.442-2.088-1.252-11.37c0,0,0.313-1.076,4.381,0.558c0,0,3.545-1.513-4.173-5.938c0,0-2.774-1.034-6.884-0.723"/>
	<path fill="#FFBC87" stroke="#000000" stroke-miterlimit="10" d="M745.362,415.498c0,0-5.947,16.063-14.917,6.676
		c0,0-3.441-2.088,1.252-11.37c0,0-0.313-1.075-4.381,0.558c0,0-3.545-1.512,4.173-5.938c0,0,2.775-1.033,6.885-0.722"/>
	<g>
		<path fill="#333333" stroke="#000000" stroke-miterlimit="10" d="M663.816,413.864l2.294,2.885c0,0,9.387-6.36,7.875-11.473
			l-3.373-1.968"/>
		<path fill="#333333" stroke="#000000" stroke-miterlimit="10" d="M747.998,412.613l-2.294,2.885c0,0-9.386-6.361-7.874-11.474
			l3.372-1.968"/>
		<path fill="#666666" stroke="#000000" stroke-miterlimit="10" d="M658.496,355.465c-4.8-0.259-17.184,19.859-18.737,23.121
			c-6.138,12.892-0.295,23.629,10.63,30.877c21.713,14.408,27.882-10.045,9.159-23.241l14.438-29.918
			C673.985,356.304,658.564,355.469,658.496,355.465z"/>
		<path fill="#666666" stroke="#000000" stroke-miterlimit="10" d="M752.894,354.214c4.8-0.26,17.184,19.858,18.737,23.12
			c6.138,12.892,0.295,23.629-10.631,30.877c-21.712,14.408-27.881-10.045-9.158-23.241l-14.438-29.918
			C737.404,355.052,752.825,354.217,752.894,354.214z"/>
	</g>
	<path fill="#FFBC87" stroke="#000000" stroke-width="2" stroke-miterlimit="10" d="M762.201,245.735
		c0,0,25.161-30.103,27.472,25.752c0,0,7.262,16.905-5.641,19.708l-8.04,1.745"/>
	<path fill="#FFBC87" stroke="#000000" stroke-width="2" stroke-miterlimit="10" d="M619.772,289.253c0,0-37.187-12.729-10.09,36.17
		c0,0,2.563,18.098,15.038,13.776l7.746-2.686"/>
	<path fill="#FFBC87" stroke="#000000" stroke-width="2.134" stroke-miterlimit="10" d="M621.115,283.457
		c-3.256,1.634,4.819,31.564,5.594,34.299c17.545,61.978,79.52,64.541,129.376,32.811c39.303-25.013,14.493-82.881,1.133-115.523
		C750.48,218.582,621.204,283.413,621.115,283.457z"/>
	<path stroke="#000000" stroke-width="2.134" stroke-miterlimit="10" d="M620.871,254.561c0,0-7.979-50.508,54.932-57.553
		c0,0,62.732-18.963,74.745,20.271L620.871,254.561z"/>
	<path fill="#333333" stroke="#000000" stroke-width="2.134" stroke-miterlimit="10" d="M619.637,287.919
		c0,0,58.995-42.49,141.957-45.426l-11.046-25.214c0,0-80.897,6.215-131.097,38.166L619.637,287.919z"/>
	<path stroke="#000000" stroke-width="2" stroke-miterlimit="10" d="M675.803,197.008c0,0-12.332-29.128,10.571-29.832
		c0,0,18.689-4.37,14.562,23.793L675.803,197.008z"/>
	<path fill="none" stroke="#000000" stroke-width="3" stroke-miterlimit="10" d="M708.413,270.554c0,0,2.019-3.277,10.547-5.269
		l-1.788,2.522c0,0,5.205-5.542,14.842-7.042l-3.25,3.121c0,0,9.675-7.634,16.752-7.571l-3.296,2.913c0,0,2.97-3.087,11.788-5.778
		l-0.852,2.171"/>
	<path fill="none" stroke="#000000" stroke-width="3" stroke-miterlimit="10" d="M682.272,276.345c0,0-3.293-1.993-11.789,0.136
		l2.744,1.425c0,0-7.164-2.548-16.418,0.524l4.316,1.29c0,0-12.095-2.365-18.36,0.929l4.263,1.082c0,0-4.052-1.386-13.125,0.252
		l1.751,1.543"/>
	<g>
		<path fill="#FDFEFF" stroke="#000000" stroke-miterlimit="10" d="M738.738,274.02c1.801,1.56,3.036,3.777,3.291,6.334
			c0.196,1.962-0.213,3.847-1.069,5.468c7.064-2.987,11.559-7.013,11.559-7.013C747.364,275.883,742.783,274.455,738.738,274.02z"/>
		<path fill="#FDFEFF" stroke="#000000" stroke-miterlimit="10" d="M723.441,277.71c-5.778,3.866-8.514,9.251-8.514,9.251
			c4.014,1.485,7.912,2.049,11.592,2.013c-2.039-1.571-3.455-3.935-3.73-6.696C722.628,280.666,722.875,279.112,723.441,277.71z"/>
		<path stroke="#000000" stroke-miterlimit="10" d="M738.738,274.02c-6.457-0.697-11.526,1.167-15.297,3.69
			c-0.566,1.402-0.813,2.956-0.652,4.567c0.275,2.762,1.691,5.125,3.73,6.696c5.426-0.055,10.362-1.425,14.44-3.151
			c0.856-1.621,1.266-3.506,1.069-5.468C741.774,277.796,740.539,275.579,738.738,274.02z"/>
	</g>
	<g>
		<path fill="#FDFEFF" stroke="#000000" stroke-miterlimit="10" d="M656.31,293.354c-0.943,2.188-1.092,4.721-0.21,7.136
			c0.676,1.853,1.864,3.37,3.34,4.458c-7.659,0.381-13.457-1.292-13.457-1.292C649.352,298.781,652.856,295.504,656.31,293.354z"/>
		<path fill="#FDFEFF" stroke="#000000" stroke-miterlimit="10" d="M671.689,290.024c6.886,0.972,11.691,4.632,11.691,4.632
			c-2.969,3.082-6.236,5.284-9.565,6.851c1.153-2.3,1.4-5.044,0.449-7.65C673.709,292.334,672.81,291.043,671.689,290.024z"/>
		<path stroke="#000000" stroke-miterlimit="10" d="M656.31,293.354c5.513-3.435,10.888-3.962,15.38-3.329
			c1.12,1.019,2.02,2.31,2.575,3.832c0.951,2.606,0.704,5.351-0.449,7.65c-4.911,2.312-9.952,3.222-14.376,3.44
			c-1.476-1.088-2.664-2.605-3.34-4.458C655.218,298.074,655.366,295.541,656.31,293.354z"/>
	</g>
	<path fill="#FCA870" stroke="#000000" stroke-miterlimit="10" d="M698.088,285.184c0,0-14.016,43.839-4.371,45.271
		c0,0,4.521,1.161,6.947-1.929c0,0,6.519,2.513,11.911-2.235c0,0,6.496,1.954,8.624-4.073
		C721.199,322.217,721.628,308.929,698.088,285.184z"/>
	<path fill="none" stroke="#000000" stroke-width="0.5" stroke-miterlimit="10" d="M645.926,324.217c0,0,17.652,9.775,26.403,28.688
		"/>
	<path fill="none" stroke="#000000" stroke-width="0.5" stroke-miterlimit="10" d="M750.256,333.979c0,0-1.277-20.14,9.94-37.7"/>
	<path fill="#FFFFFF" d="M672.183,293.988c0.234,1.085-0.645,2.193-1.963,2.479c-1.317,0.287-2.578-0.356-2.813-1.44
		c-0.234-1.082,0.645-2.192,1.963-2.479C670.688,292.261,671.947,292.907,672.183,293.988z"/>
	
		<ellipse transform="matrix(0.9772 -0.2122 0.2122 0.9772 -42.2734 162.1288)" fill="#FFFFFF" cx="734.09" cy="277.982" rx="2.443" ry="2.006"/>
	
		<ellipse fill="#C1272D" stroke="#000000" stroke-width="0.5" stroke-miterlimit="10" cx="711.562" cy="348.708" rx="8.162" ry="12.147"/>
</g>
<g id="제비집이랑_뱀">
	<g>
		<ellipse fill="#8C6239" cx="277.5" cy="219.958" rx="64.75" ry="38.292"/>
		<path fill="#8C6239" stroke="#000000" stroke-miterlimit="10" d="M249,257.125c0,0,4.875,6.75,8.75,7.125c0,0-0.75-5.5,1.625-8.25
			l7,8.875c0,0,0.753-5.188,5.251-6.782c0,0,4.407,6.759,4.703,8.333s2.921-4.551,3.171-9.551c0,0,2.25,5.625,2.375,6.25
			s1.396-4.875,1.396-4.875l3.979,6.625c0,0,1.631-5.747,4.065-7.499l2.018,6.749l2.417-8.875c0,0,6.375,5.75,7.625,7L304.5,254
			l4.757,6.339c0,0,1.66-5.089,1.076-8.964l3,6.375l2.167-7.625c0,0,2.125,4.375,1.75,6c0,0,5.375-4.5,4.125-9.125l0.75,5.875
			c0,0,6.625-2,6.125-7.25c0,0,2.179,6.75,0.027,7.25c0,0,8.03-3.838,8.848-11.5l1.625,4.5c0,0,7.311-11.125,5.78-16.75l2.595,4.125
			c0,0,5.208-8.25,2.542-12L352,224c0,0,0.625-12.625-9.125-17.25c0,0,5.333,0.5,6.792,2c0,0-8.042-12.374-16.042-10.75l8.625-1
			c0,0-5.25-5.25-15.875-5.5l5.5-1.875c0,0-1.572-2.75-22.349,0l-69.401-4.458c0,0-10.25,2.958-14,6.708l3.75-0.125
			c0,0-8.125,4.54-14.5,2.145c0,0,0.625,4.231,4.5,4.105c0,0-5,0.875-8.125,10l5.625-3.25c0,0-8.407,5.071-8.875,12.911l6.25-4.161
			c0,0-7.75,8.625-4.25,17.75l4.875-4.25c0,0-7.5,8.875-2.625,19.625c0,0,2.625-5.75,7.125-6.5c0,0-5.125,1.75-4.375,12.5
			c0,0,2.5-4.875,9-5.125c0,0-1.5,4.875,0.625,8.625c0,0,1-3.25,3.375-4.375c0,0-0.625,2.625,2,8.25l3.125-4.25l2.25,4.375l3.75-5.5
			c0,0,2,6.625,9.125,8.75L249,257.125z"/>
	</g>
	<g>
		<g>
			<polygon fill="#FBB03B" points="258.222,174.838 250.893,179.157 256.643,188.478 260.402,179.505 			"/>
			<polygon fill="#FBB03B" points="262.487,179.157 257.085,181.338 256.643,193.564 258.949,198.897 266.468,196.376 
				274.24,184.529 275.725,180.422 274.746,177.42 			"/>
		</g>
		<path fill="#F15A24" stroke="#000000" stroke-miterlimit="10" d="M271.844,160.026c0,0-0.731-4.215,4.703-4.973l-0.784,8.234
			l5.712-2.295c0,0,1.141,4.824-3.22,7.846"/>
		<circle fill="#FBB03B" stroke="#000000" stroke-miterlimit="10" cx="266.057" cy="170.976" r="12.385"/>
		<polyline fill="#FBB03B" stroke="#000000" stroke-miterlimit="10" points="266.057,164.404 272.628,162.888 270.986,168.838 		"/>
		<path fill="#3FA9F5" d="M270.228,173.629c0,1.466-0.651,2.654-1.454,2.654c-0.802,0-1.453-1.188-1.453-2.654
			s1.453-2.654,1.453-2.654S270.228,172.164,270.228,173.629z"/>
		<path fill="#3FA9F5" d="M266.398,171.623c-1.024,0.726-2.121,0.94-2.448,0.478c-0.328-0.462,0.237-1.426,1.261-2.152
			c1.024-0.726,2.448-0.478,2.448-0.478S267.422,170.896,266.398,171.623z"/>
		<path fill="#FBB03B" stroke="#000000" stroke-miterlimit="10" d="M275.759,179.157c0,0-0.052,12.581-0.408,13.353"/>
		<path fill="#FBB03B" stroke="#000000" stroke-miterlimit="10" d="M273.383,183.424c0,0.505,10.491-10.647,17.568-8.246
			l-4.548,3.995c0,0,8.973-0.86,8.341,3.058c0,0-4.929,0.881-7.709,0.375c0,0,2.907,1.262,2.907,3.916c0,0-5.33,1.137-5.915-0.001
			l-2.526-2.276c0,0,2,3.665,0,3.665c0,0-2.339,1.517-6.199-1.39c0,0,3.495,13.143-12.049,11.626"/>
		<path fill="#FBB03B" stroke="#000000" stroke-miterlimit="10" d="M264.415,195.113c0,0-1.264,5.182-4.549,5.055l-2.907,0.002
			l1.77-2.529"/>
		<path fill="#FBB03B" stroke="#000000" stroke-miterlimit="10" d="M259.865,192.711c-3.159,0.379-5.182-1.263-5.182-1.263
			c-3.791-3.539-2.906-1.896-2.906-1.896c-0.632,3.033,3.286,4.929,3.286,4.929l-4.17-0.823c0.632,2.022,4.549,2.842,4.549,2.842
			h-2.401c0.632,3,3.728,2.213,3.728,2.213l1.521-0.478"/>
		<path fill="#FBB03B" stroke="#000000" stroke-miterlimit="10" d="M256.958,192.509c0,0-3.196-1.44,2.319-11.171"/>
		<polyline opacity="0.3" fill="#FBB03B" stroke="#000000" stroke-miterlimit="10" points="275.351,179.157 276.167,181.14 
			275.351,179.157 276.167,181.338 		"/>
		<path fill="#FBB03B" stroke="#000000" stroke-miterlimit="10" d="M256.484,187.54l-1.105-0.616c-1.579-2.376,0-2.553,0-2.553
			c-3.284,1.915-4.486,1.462-4.486,1.462c-0.126-1.571,1.011-3.104,1.011-3.104c-2.906,1.643-3.665,0.632-3.665,0.632
			c-0.884-2.274,1.355-3.113,1.355-3.113c-6.101,0.299-5.272-1.091-5.272-1.091c3.16-2.687,6.571-1.483,6.571-1.483
			c-3.538-2.022-3.412-4.044-3.412-4.044c2.654,0.758,7.386,2.654,7.386,2.654"/>
	</g>
	<g>
		<g>
			<polygon fill="#FBB03B" points="286.667,189.761 277,195.457 284.583,207.75 289.542,195.917 			"/>
			<polygon fill="#FBB03B" points="292.292,195.457 285.167,198.333 284.583,214.458 287.625,221.492 297.542,218.167 
				307.792,202.542 309.75,197.125 308.458,193.167 			"/>
		</g>
		<path fill="#F15A24" stroke="#000000" stroke-miterlimit="10" d="M304.631,170.226c0,0-0.964-5.559,6.202-6.559l-1.034,10.86
			l7.534-3.027c0,0,1.505,6.362-4.248,10.348"/>
		<circle fill="#FBB03B" stroke="#000000" stroke-miterlimit="10" cx="297" cy="184.667" r="16.333"/>
		<polyline fill="#FBB03B" stroke="#000000" stroke-miterlimit="10" points="297,176 305.667,174 303.5,181.848 		"/>
		<path fill="#3FA9F5" d="M302.5,188.167c0,1.933-0.858,3.5-1.917,3.5s-1.917-1.567-1.917-3.5s1.917-3.5,1.917-3.5
			S302.5,186.234,302.5,188.167z"/>
		<path fill="#3FA9F5" d="M297.45,185.521c-1.351,0.958-2.796,1.24-3.229,0.631c-0.433-0.609,0.312-1.88,1.663-2.838
			c1.351-0.958,3.229-0.631,3.229-0.631S298.8,184.563,297.45,185.521z"/>
		<path fill="#FBB03B" stroke="#000000" stroke-miterlimit="10" d="M309.795,195.457c0,0-0.068,16.592-0.538,17.61"/>
		<path fill="#FBB03B" stroke="#000000" stroke-miterlimit="10" d="M306.661,201.084c0,0.666,13.836-14.042,23.169-10.875
			l-5.999,5.269c0,0,11.834-1.134,11.001,4.033c0,0-6.5,1.162-10.167,0.495c0,0,3.834,1.664,3.834,5.164
			c0,0-6.964,1.499-7.735-0.001l-3.265-3.001c0,0,3,4.833,0,4.833c0,0-3.152,2-8.243-1.833c0,0,4.576,17.333-15.924,15.333"/>
		<path fill="#FBB03B" stroke="#000000" stroke-miterlimit="10" d="M294.833,216.5c0,0-1.667,6.834-6,6.667L285,223.17l2.333-3.335"
			/>
		<path fill="#FBB03B" stroke="#000000" stroke-miterlimit="10" d="M288.833,213.333c-4.167,0.5-6.833-1.667-6.833-1.667
			c-5-4.667-3.833-2.5-3.833-2.5c-0.833,4,4.333,6.5,4.333,6.5l-5.5-1c0.833,2.667,6,3.833,6,3.833h-3.167
			c0.833,4,4.917,2.833,4.917,2.833l2.006-0.673"/>
		<path fill="#FBB03B" stroke="#000000" stroke-miterlimit="10" d="M285,213.066c0,0-4.215-1.899,3.059-14.733"/>
		<polyline opacity="0.3" fill="#FBB03B" stroke="#000000" stroke-miterlimit="10" points="309.257,195.457 310.333,198.072 
			309.257,195.457 310.333,198.333 		"/>
		<path fill="#FBB03B" stroke="#000000" stroke-miterlimit="10" d="M284.375,206.512l-1.458-0.812c-2.083-3.133,0-3.367,0-3.367
			c-4.331,2.525-5.917,1.928-5.917,1.928c-0.167-2.072,1.333-4.095,1.333-4.095C274.5,202.334,273.5,201,273.5,201
			c-1.167-3,1.787-4.105,1.787-4.105c-8.046,0.395-6.954-1.438-6.954-1.438C272.5,191.913,277,193.5,277,193.5
			c-4.667-2.667-4.5-5.333-4.5-5.333c3.5,1,9.74,3.5,9.74,3.5"/>
	</g>
	<g>
		<g>
			<polygon fill="#FBB03B" points="260.222,199.838 252.893,204.157 258.643,213.478 262.402,204.505 			"/>
			<polygon fill="#FBB03B" points="264.487,204.157 259.085,206.338 258.643,218.564 260.949,223.897 268.468,221.376 
				276.24,209.529 277.725,205.422 276.746,202.42 			"/>
		</g>
		<path fill="#F15A24" stroke="#000000" stroke-miterlimit="10" d="M273.844,185.026c0,0-0.731-4.215,4.703-4.973l-0.784,8.234
			l5.712-2.295c0,0,1.141,4.824-3.22,7.846"/>
		<circle fill="#FBB03B" stroke="#000000" stroke-miterlimit="10" cx="268.057" cy="195.976" r="12.385"/>
		<polyline fill="#FBB03B" stroke="#000000" stroke-miterlimit="10" points="268.057,189.404 274.628,187.888 272.986,193.838 		"/>
		<path fill="#3FA9F5" d="M272.228,198.629c0,1.466-0.651,2.654-1.454,2.654c-0.802,0-1.453-1.188-1.453-2.654
			s1.453-2.654,1.453-2.654S272.228,197.164,272.228,198.629z"/>
		<path fill="#3FA9F5" d="M268.398,196.623c-1.024,0.726-2.121,0.94-2.448,0.478c-0.328-0.462,0.237-1.426,1.261-2.152
			c1.024-0.726,2.448-0.478,2.448-0.478S269.422,195.896,268.398,196.623z"/>
		<path fill="#FBB03B" stroke="#000000" stroke-miterlimit="10" d="M277.759,204.157c0,0-0.052,12.581-0.408,13.353"/>
		<path fill="#FBB03B" stroke="#000000" stroke-miterlimit="10" d="M275.383,208.424c0,0.505,10.491-10.647,17.568-8.246
			l-4.548,3.995c0,0,8.973-0.86,8.341,3.058c0,0-4.929,0.881-7.709,0.375c0,0,2.907,1.262,2.907,3.916c0,0-5.33,1.137-5.915-0.001
			l-2.526-2.276c0,0,2,3.665,0,3.665c0,0-2.339,1.517-6.199-1.39c0,0,3.495,13.143-12.049,11.626"/>
		<path fill="#FBB03B" stroke="#000000" stroke-miterlimit="10" d="M266.415,220.113c0,0-1.264,5.182-4.549,5.055l-2.907,0.002
			l1.77-2.529"/>
		<path fill="#FBB03B" stroke="#000000" stroke-miterlimit="10" d="M261.865,217.711c-3.159,0.379-5.182-1.263-5.182-1.263
			c-3.791-3.539-2.906-1.896-2.906-1.896c-0.632,3.033,3.286,4.929,3.286,4.929l-4.17-0.823c0.632,2.022,4.549,2.842,4.549,2.842
			h-2.401c0.632,3,3.728,2.213,3.728,2.213l1.521-0.478"/>
		<path fill="#FBB03B" stroke="#000000" stroke-miterlimit="10" d="M258.958,217.509c0,0-3.196-1.44,2.319-11.171"/>
		<polyline opacity="0.3" fill="#FBB03B" stroke="#000000" stroke-miterlimit="10" points="277.351,204.157 278.167,206.14 
			277.351,204.157 278.167,206.338 		"/>
		<path fill="#FBB03B" stroke="#000000" stroke-miterlimit="10" d="M258.484,212.54l-1.105-0.616c-1.579-2.376,0-2.553,0-2.553
			c-3.284,1.915-4.486,1.462-4.486,1.462c-0.126-1.571,1.011-3.104,1.011-3.104c-2.906,1.643-3.665,0.632-3.665,0.632
			c-0.884-2.274,1.355-3.113,1.355-3.113c-6.101,0.299-5.272-1.091-5.272-1.091c3.16-2.687,6.571-1.483,6.571-1.483
			c-3.538-2.022-3.412-4.044-3.412-4.044c2.654,0.758,7.386,2.654,7.386,2.654"/>
	</g>
	<path fill="#FBB03B" stroke="#000000" stroke-miterlimit="10" d="M349.667,210.066"/>
	<path fill="#8C6239" stroke="#000000" stroke-miterlimit="10" d="M249,228.28c0,0,21.437-10.69,42.093,1.015"/>
	<path fill="#8C6239" stroke="#000000" stroke-miterlimit="10" d="M236.5,225.922c0,0,11.123-8.733,26.187-1.578"/>
	<path fill="#8C6239" stroke="#000000" stroke-miterlimit="10" d="M228,210.478c0,0,20.096-1.922,27.673,11.05"/>
	<path fill="#8C6239" stroke="#000000" stroke-miterlimit="10" d="M229,201.157c0,0,8.173-1.157,12.836,3.593"/>
	<path fill="#8C6239" stroke="#000000" stroke-miterlimit="10" d="M240.25,197.03c0,0,5.269,4.47,6.259,16.47"/>
	<path fill="#8C6239" stroke="#000000" stroke-miterlimit="10" d="M280.667,225.13c0,0,9.098-7.791,28.591-2.96"/>
	<path fill="#8C6239" stroke="#000000" stroke-miterlimit="10" d="M301.333,220.897c0,0,8.007-9.242,29.087-4.945"/>
	<path fill="#8C6239" stroke="#000000" stroke-miterlimit="10" d="M314.104,215.231c0,0,1.87-8.828,16.935-8.394"/>
	<path fill="#8C6239" stroke="#000000" stroke-miterlimit="10" d="M314.921,217.855c0,0,18.732,0.994,24.031,14.194"/>
	<path fill="#8C6239" stroke="#000000" stroke-miterlimit="10" d="M252.384,246.5c0,0,5.67-14.88,10.018-15.44"/>
	<path fill="#8C6239" stroke="#000000" stroke-miterlimit="10" d="M222.73,225.13c0,0,9.02-6.097,13.77-5.489"/>
</g>
<g id="말풍선">
	<path fill="#FFFFFF" stroke="#000000" stroke-miterlimit="10" d="M438.669,256.254c-49.458-2.59-88.399-31.485-86.975-64.542
		c0.06-1.427,0.224-2.835,0.432-4.229l-17.354-7.89l27.774-14.44c15.623-18.675,46.396-30.43,81.274-28.604
		c49.455,2.59,88.396,31.487,86.975,64.541C529.371,234.146,488.125,258.843,438.669,256.254z"/>
	
		<text transform="matrix(1 0 0 1 402.3462 221.6709)" fill="#FF0000" stroke="#FF0000" stroke-miterlimit="10" font-family="'HCRDotum'" font-size="80">!!!</text>
	<path fill="#FFFFFF" stroke="#000000" stroke-miterlimit="10" d="M567.083,385.821c32.371,2.915,58.175,29.4,57.633,59.16
		c-0.022,1.284-0.113,2.551-0.233,3.804l11.441,7.312l-17.992,12.68c-9.995,16.638-29.98,26.863-52.808,24.808
		c-32.37-2.915-58.173-29.402-57.633-59.158C508.033,404.667,534.713,382.906,567.083,385.821z"/>
	<text transform="matrix(1 0 0 1 542 464)" font-family="'Gungsuh'" font-size="80">?</text>
</g>
</svg>
