<?xml version="1.0" encoding="utf-8"?>
<!-- Generator: Adobe Illustrator 16.0.0, SVG Export Plug-In . SVG Version: 6.00 Build 0)  -->
<!DOCTYPE svg PUBLIC "-//W3C//DTD SVG 1.1//EN" "http://www.w3.org/Graphics/SVG/1.1/DTD/svg11.dtd">
<svg version="1.1" xmlns="http://www.w3.org/2000/svg" xmlns:xlink="http://www.w3.org/1999/xlink" x="0px" y="0px" width="960px"
	 height="560px" viewBox="0 0 960 560" enable-background="new 0 0 960 560" xml:space="preserve">
<g id="배경">
	<rect x="-224" y="-38" fill="#3FA9F5" width="1384" height="945"/>
	<g>
		<path fill="#FFFFFF" d="M188.926,168.642c0,10.529,3.895,12.92-8.26,21.82c-8.35,6.114-15.971,13.285-28.894,18.22
			c-10.346,3.952-22.88,0.056-35.611,3.062c-11.13,2.627-21.276,8.605-33.88,10.387c-11.53,1.63-21.605,22.101-34.108,22.932
			c-11.756,0.781-24.521,2.08-36.924,2.08c-12.403,0-23.708-23.25-35.463-24.031c-12.503-0.831-27.23,23.229-38.76,21.599
			c-12.606-1.782-26.49-0.993-37.622-3.621c-12.731-3.006-14.34-38.916-24.687-42.868c-12.921-4.937-32.17,8.775-40.519,2.662
			c-12.153-8.899-31.834-21.712-31.834-32.24c0-10.528,26.812-13.605,38.967-22.504c8.35-6.113,9.279-31.432,22.202-36.368
			c10.346-3.952,29.206,15.102,41.937,12.096c11.13-2.628,19.533-23.397,32.138-25.179c11.53-1.63,24.053-6.084,36.556-6.916
			c11.756-0.781,24.684,8.772,37.087,8.772c12.403,0,24.037,9.902,35.792,10.684c12.503,0.831,25.674-9.601,37.204-7.971
			c12.606,1.782,28.078-9.213,39.209-6.585c12.731,3.006,13.551,41.563,23.898,45.515c12.921,4.937,21.863,4.764,30.211,10.877
			C189.717,159.962,188.926,158.114,188.926,168.642z"/>
	</g>
	<g>
		<path fill="#FFFFFF" d="M1027.151,169.613c0,8.731-0.325,12.099-12.441,18.822c-7.933,4.402-16.317,9.35-27.997,12.348
			c-9.491,2.436-19.984,0.017-31.265,1.269c-10.072,1.118-19.855,3.989-30.892,3.989s-22.308,10.531-32.38,9.414
			c-11.281-1.252-22.708-2.808-32.198-5.244c-11.682-2.998-16.789-18.918-24.721-23.32c-12.114-6.723-30.195-8.546-30.195-17.277
			c0-8.731,10.014-25.096,22.131-31.819c7.932-4.401,25.136,9.911,36.815,6.914c9.49-2.436,17.272-16.224,28.554-17.476
			c10.071-1.118,20.959-8.332,31.994-8.332c11.036,0,21.155,14.14,31.228,15.258c11.281,1.252,24.335-9.423,33.826-6.987
			c11.68,2.998,16.992,19.542,24.924,23.943C1026.649,157.836,1027.151,160.883,1027.151,169.613z"/>
	</g>
	<g>
		<polygon fill="#4D4D4D" points="273.463,477.613 452.181,487.116 446.356,624.45 263.347,629.354 		"/>
		<polygon fill="#808080" points="464.428,582.621 463.131,619.766 864.442,652.334 865.793,582.455 		"/>
		<polyline fill="#CCCCCC" points="55.189,473.678 251.576,473.322 243.985,621.458 54.355,636.541 		"/>
		<g id="XMLID_1_">
			<g>
				<path d="M964.974,284.936l12.569,38.539l-0.319,0.196c0.024-0.221,0.049-0.43,0.073-0.65l-2.452-0.208l-0.258-0.479
					l-11.906-36.516l-28.484-47.208l-30.912-36.712c-2.28-1.741-39.385-30.176-66.178-53.817
					c-27.185-23.984-107.242-33.132-108.039-33.218l-65.736-3.261h-57.57l-111.546,3.678h-92.001l-155.211,7.357h-0.92
					c-6.952,0-44.253,0.772-96.023,15.56C95.8,153.696-24.661,281.22-34.25,291.422l3.911,7.32l-1.3,0.662
					c-0.368-0.601-0.735-1.201-1.091-1.814c-0.601-1.006-1.189-1.986-1.766-2.919l-0.601,0.381l-2.134-4.022l0.589-0.638
					c5.248-5.641,129.13-138.29,186.025-154.549c52.088-14.886,89.684-15.659,96.697-15.659c0.589,0,0.883,0,0.883,0l155.187-7.357
					h92.026l111.547-3.679h57.668l65.87,3.274c3.385,0.368,81.701,9.319,109.463,33.818c27.454,24.217,65.772,53.499,66.152,53.793
					l0.196,0.184l31.17,37.043l28.681,47.54L964.974,284.936z"/>
				<path d="M977.297,323.021c-0.024,0.221-0.049,0.43-0.073,0.65l-2.624,1.472c0.098-0.761,0.184-1.546,0.245-2.33L977.297,323.021
					z"/>
				<path d="M974.6,325.143l2.624-1.472c-2.697,28.386-20.895,42.156-21.679,42.732l-0.331,0.185l-54.726,18.797l-0.343-1.005
					v-0.013c0.012-0.503,0.024-0.969,0.036-1.483l54.051-18.553C955.888,363.02,971.596,350.01,974.6,325.143z"/>
				<path d="M974.587,322.334l0.258,0.479c-0.062,0.784-0.147,1.569-0.245,2.33l-4.88,2.746l-0.454-0.098
					c-0.344-0.086-35.376-7.737-65.135-7.737c-0.258,0.024-33.709,2.256-55.535,3.065c-21.801,0.797-68.973,4.255-69.438,4.279
					h-38.515l-32.041,0.417l-0.159-0.062c-0.355-0.098-35.204-9.441-42.451-11.048c-2.256-0.503-6.241-0.821-11.832-0.821
					c-8.265,0-17.167,0.49-17.253,0.49h-0.159l-26.204-4.905h-40.342l-61.763-2.06l-189.619-1.631
					c-11.416-0.539-68.323-3.359-71.659-5.027c0,0-0.085-0.037-0.331-0.037c-3.016,0-12.176,5.493-17.228,8.939l-0.294,0.221
					l-33.071,0.821l-49.109-1.631l-89.365-8.228l-9.515-2.379l-16.284,4.083l-23.936-3.298l-17.829-1.619l-20.698,1.582
					c-0.38-0.601-0.76-1.189-1.141-1.803l1.3-0.662l20.563-1.594l18.086,1.655l23.518,3.249l16.419-4.107l10.018,2.501l89.009,8.167
					l48.974,1.631l32.273-0.81c2.354-1.594,13.783-9.172,18.307-9.172c0.552,0,1.03,0.098,1.435,0.307
					c2.747,1.128,43.751,3.482,70.629,4.77l189.594,1.631l61.751,2.048h40.55l26.118,5.102c1.238-0.074,9.527-0.577,17.253-0.577
					c5.775,0,9.932,0.282,12.359,0.822c7.039,1.557,39.778,10.3,42.39,10.999l31.722-0.405h38.429
					c0.393-0.036,47.601-3.482,69.439-4.304c21.802-0.797,55.216-3.053,55.547-3.053c0.012,0,0.024,0,0.024,0
					c28.239,0,61.015,6.793,65.27,7.7L974.587,322.334z"/>
				<path fill="#9E6332" d="M969.72,327.889l4.88-2.746c-3.004,24.867-18.712,37.877-20.367,39.188l-54.051,18.553
					c0.282-12.777,0.626-25.542,1.092-38.258l0.049-1.422l-1.631,0.172c-0.503,0.061-1.091,0.11-1.68,0.343
					c-7.848-0.024-15.818-0.012-23.666,0.013l-0.821-0.037c0,0.013,0,0.037,0,0.037c-2.354,0.024-4.708,0.036-7.038,0.049
					c-53.903,0.258-109.646,0.503-162.336-12.654l-0.184-0.037c-17.117-1.631-34.959-2.194-52.211-2.722
					c-8.682-0.27-17.657-0.54-26.326-0.969c-92.541-3.274-204.566-6.94-324.39-9.479l-0.441-0.896l-0.086,0.05l-0.024-0.05
					l-1.606,0.871h-0.012c-1.643-0.037-3.286-0.073-4.941-0.099c-0.932-0.024-1.876-0.049-2.82-0.061
					c-0.233-0.013-0.478-0.013-0.723-0.024c-0.344-0.013-0.675-0.013-0.981-0.025v-0.012l-2.649-0.147l-0.221,0.11
					c-8.939-0.184-17.927-0.355-26.952-0.515c-20.956-0.393-42.107-0.736-63.394-1.03l0.049-3.396l33.071-0.821l0.294-0.221
					c5.052-3.446,14.212-8.939,17.228-8.939c0.246,0,0.331,0.037,0.331,0.037c3.335,1.668,60.243,4.488,71.659,5.027l189.619,1.631
					l61.763,2.06h40.342l26.204,5.113h0.159c0.086-0.012,8.988-0.588,17.253-0.588c5.591,0,9.576,0.245,11.832,0.76
					c7.247,1.606,42.096,10.926,42.451,11.023l0.159,0.049l32.041-0.429h38.515c0.466-0.024,47.638-3.482,69.438-4.279
					c21.826-0.81,55.277-3.041,55.535-3.065c29.759,0,64.791,7.651,65.135,7.737L969.72,327.889z"/>
				<path fill="#F7AA63" d="M962.681,285.818l11.906,36.516l-5.248,2.968c-4.255-0.907-37.03-7.7-65.27-7.7c0,0-0.013,0-0.024,0
					c-0.331,0-33.745,2.256-55.547,3.053c-21.839,0.821-69.047,4.268-69.439,4.304H740.63l-31.722,0.405
					c-2.611-0.699-35.351-9.442-42.39-10.999c-2.428-0.54-6.584-0.822-12.359-0.822c-7.726,0-16.015,0.503-17.253,0.577
					l-26.118-5.102h-40.55l-61.751-2.048l-189.594-1.631c-26.878-1.287-67.882-3.642-70.629-4.77
					c-0.404-0.209-0.883-0.307-1.435-0.307c-4.524,0-15.953,7.578-18.307,9.172l-32.273,0.81l-48.974-1.631l-89.009-8.167
					l-10.018-2.501l-16.419,4.107l-23.518-3.249l-18.086-1.655l-20.563,1.594l-3.911-7.32
					c9.588-10.202,130.05-137.726,184.309-153.225c51.77-14.788,89.071-15.56,96.023-15.56h0.92l155.211-7.357h92.001l111.546-3.678
					h57.57l65.736,3.261c0.797,0.086,80.854,9.233,108.039,33.218c26.793,23.641,63.897,52.076,66.178,53.817l30.912,36.712
					L962.681,285.818z"/>
				<path d="M901.322,343.204l-0.049,1.422c-0.466,12.716-0.81,25.48-1.092,38.258l-0.49,0.172v0.012l0.454,1.3v0.013
					c-1.545,71.707-0.564,144.2,0.417,214.682c0.232,17.19,0.466,34.32,0.674,51.438l-2.452-0.037
					c-0.208-17.117-0.441-34.37-0.675-51.562c-1.152-83.013-2.329-168.49,0.65-253.098c-0.073,0-0.147,0-0.221,0h-0.393
					l-4.562,0.221l0.159,0.135c-5.959-0.024-11.955,0-17.902,0.024c0.05-0.785,0.086-1.569,0.135-2.354l-1.631-0.098
					c7.848-0.024,15.818-0.037,23.666-0.013c0.589-0.232,1.177-0.282,1.68-0.343L901.322,343.204z"/>
				<path d="M900.182,382.884c-0.012,0.515-0.024,0.98-0.036,1.483l-0.454-1.3L900.182,382.884z"/>
				<path d="M875.977,343.829c-0.049,0.785-0.085,1.569-0.135,2.354c-0.809,0.013-1.631,0.013-2.452,0.013
					c0.049-0.81,0.086-1.631,0.135-2.465c0.27,0,0.54,0,0.821,0L875.977,343.829z"/>
				<path d="M873.39,346.196c0.821,0,1.644,0,2.452-0.013c-1.974,37.117-3.924,75.056-5.824,111.768
					c-1.251,24.523-2.538,49.379-3.851,74.332l-1.164-0.062v-0.037l0.036-2.403v-0.098l-1.177-0.123
					c0.122-2.366,0.245-4.745,0.368-7.112c0.171-3.225,0.343-6.438,0.515-9.858c0.049-0.98,0.098-1.986,0.147-3.017
					c0.049-0.919,0.098-1.826,0.146-2.734h0.037l-0.013-0.294v-0.11h0.013l-0.013-0.098c0.847-16.333,1.681-32.396,2.514-48.509
					C869.466,421.153,871.416,383.276,873.39,346.196z"/>
				<path d="M874.346,343.731c-0.281,0-0.552,0-0.821,0c0,0,0-0.024,0-0.037L874.346,343.731z"/>
				<path d="M873.524,343.731c-0.049,0.834-0.086,1.655-0.135,2.465c-2.305,0.012-4.61,0.024-6.891,0.036
					c-54.026,0.245-109.88,0.516-162.851-12.703c-17.008-1.631-34.787-2.17-51.967-2.71c-8.693-0.27-17.682-0.539-26.362-0.956
					c-45.921-1.631-96.624-3.36-150.712-4.991c-5.738-0.171-11.526-0.343-17.351-0.515c-49.378-1.447-101.381-2.808-154.941-3.937
					l-1.324-2.501c0.012,0,0.037,0,0.049,0c119.824,2.538,231.849,6.204,324.39,9.479c8.669,0.429,17.645,0.699,26.326,0.969
					c17.252,0.527,35.094,1.091,52.211,2.722l0.184,0.037c52.689,13.157,108.433,12.912,162.336,12.654
					C868.816,343.768,871.17,343.756,873.524,343.731z"/>
				<path fill="#F4DFD0" d="M873.39,346.196c-1.974,37.08-3.924,74.957-5.813,111.632c-0.833,16.112-1.667,32.176-2.514,48.509
					l0.013,0.098h-0.013l-0.11-2.048l-69.427,3.299l-12.642,20.771l-174.279-2.796l-98.524-1.582l-1.631-18.969l-9.969-11.453
					l-29.232-3.936l7.762-163.071l-2.452-0.11l0.049-1.668c54.088,1.631,104.791,3.36,150.712,4.991
					c8.681,0.417,17.669,0.687,26.362,0.956c17.18,0.54,34.959,1.079,51.967,2.71c52.971,13.219,108.824,12.948,162.851,12.703
					C868.779,346.221,871.085,346.208,873.39,346.196z"/>
				<path d="M865.003,532.222l1.164,0.062c-0.552,10.741-1.115,21.495-1.691,32.248l-1.178-0.061l0.037-2.465h-0.037l-1.152-0.013
					c0.54-9.932,1.055-19.876,1.582-29.784L865.003,532.222z"/>
				<path d="M865.063,506.545l0.013,0.294h-0.037C865.052,506.741,865.052,506.644,865.063,506.545z"/>
				<path d="M865.063,506.435v0.11c-0.012,0.099-0.012,0.196-0.024,0.294h-0.024c0.013-0.135,0.013-0.27,0.024-0.404H865.063z"/>
				<path d="M864.953,504.387l0.11,2.048h-0.024c-0.012,0.135-0.012,0.27-0.024,0.404l-68.078,3.237l-11.207,18.43l-2.845-0.049
					l12.642-20.771L864.953,504.387z"/>
				<path d="M865.039,506.839c-0.049,0.908-0.098,1.815-0.146,2.734c0.036-0.895,0.086-1.802,0.122-2.734H865.039z"/>
				<path d="M865.039,529.781l-0.036,2.403h-1.275c0.036-0.797,0.086-1.618,0.122-2.428L865.039,529.781z"/>
				<path fill="#999999" d="M796.937,510.076l68.078-3.237c-0.036,0.933-0.086,1.84-0.122,2.734c-0.05,1.03-0.099,2.036-0.147,3.017
					c-0.172,3.286-0.344,6.572-0.515,9.858c-0.123,2.343-0.258,4.685-0.381,7.112h0.013c0,0.062-0.013,0.135-0.013,0.196
					l-78.12-1.251L796.937,510.076z"/>
				<path d="M865.003,532.185v0.037l-1.275-0.013c0-0.012,0-0.012,0-0.024H865.003z"/>
				<path d="M863.298,564.471l1.178,0.061c-1.447,27.222-2.931,54.455-4.464,81.383l-2.452-0.135
					c1.03-18.013,2.023-36.16,3.017-54.345c0.76,0.024,1.201,0.024,1.251,0.024l0.073-2.44c-0.172,0-0.589-0.012-1.189-0.037
					c0.441-8.166,0.87-16.345,1.312-24.536L863.298,564.471z"/>
				<path d="M864.23,522.448c-0.123,2.367-0.246,4.746-0.368,7.112h-0.013C863.973,527.133,864.107,524.791,864.23,522.448z"/>
				<path d="M863.85,529.757c-0.036,0.81-0.086,1.631-0.122,2.428c0,0.013,0,0.013,0,0.024l-79.126-1.263l0.012-0.613l1.116-1.827
					L863.85,529.757z"/>
				<path fill="#999999" d="M863.728,532.209c-0.527,9.908-1.042,19.853-1.582,29.784v0.013l-92.97-1.827
					c3.2-13.979,1.079-25.382,0.062-29.478l15.364,0.245L863.728,532.209z"/>
				<path d="M863.335,562.006l-0.037,2.465l-1.275-0.025c0.037-0.809,0.086-1.631,0.123-2.439h1.152H863.335z"/>
				<path d="M862.146,562.006c-0.037,0.809-0.086,1.631-0.123,2.439l-93.227-1.814l0.024-0.956c0.122-0.503,0.245-0.993,0.355-1.496
					L862.146,562.006z"/>
				<path fill="#999999" d="M862.022,564.445c-0.441,8.191-0.87,16.37-1.312,24.536c-10.275-0.294-78.795-2.06-99.935,3.323
					c-4.365,1.116-18.553,1.655-38.527,1.814c-36.172,0.295-91.314-0.687-141.441-1.852h1.656v-10.115l-7.357-13.488v-9.822
					l33.463,0.65l160.227,3.139L862.022,564.445z"/>
				<path d="M861.9,589.019l-0.073,2.44c-0.05,0-0.491,0-1.251-0.024c0.037-0.81,0.086-1.631,0.135-2.453
					C861.312,589.007,861.729,589.019,861.9,589.019z"/>
				<path d="M860.711,588.981c-0.049,0.822-0.098,1.644-0.135,2.453c-10.116-0.282-78.685-1.975-99.199,3.249
					c-4.341,1.104-17.829,1.68-36.822,1.876l0.135-0.98l-2.428-0.344l-0.013-1.116c19.975-0.159,34.162-0.698,38.527-1.814
					C781.916,586.922,850.436,588.688,860.711,588.981z"/>
				<polygon points="785.729,528.506 784.613,530.333 782.517,529.058 782.885,528.457 				"/>
				<path d="M784.613,530.333l-0.012,0.613l-15.364-0.245c-0.233-0.957-0.405-1.521-0.441-1.631l-2.33,0.748
					c0,0,0.086,0.307,0.233,0.834l-157.75-2.539c-0.196-0.895-0.331-1.446-0.355-1.557l0.012-0.896l174.279,2.796l-0.368,0.601
					L784.613,530.333z"/>
				<path d="M769.237,530.701c1.018,4.096,3.139,15.499-0.062,29.478l-2.514-0.049c3.421-14.433,0.858-26.302,0.037-29.478
					L769.237,530.701z"/>
				<path d="M769.237,530.701l-2.538-0.049c-0.147-0.527-0.233-0.834-0.233-0.834l2.33-0.748
					C768.832,529.181,769.004,529.744,769.237,530.701z"/>
				<path d="M769.176,560.179c-0.11,0.503-0.233,0.993-0.355,1.496l-2.379-0.601c0.073-0.319,0.147-0.626,0.221-0.944
					L769.176,560.179z"/>
				<path d="M768.82,561.675l-0.024,0.956l-160.227-3.139l0.024-0.944c0.135-0.503,0.258-1.018,0.368-1.496l157.7,3.078
					c-0.073,0.318-0.147,0.625-0.221,0.944L768.82,561.675z"/>
				<path fill="#999999" d="M766.699,530.652c0.821,3.176,3.384,15.045-0.037,29.478l-157.7-3.078
					c2.894-12.568,0.87-24.72-0.013-28.938L766.699,530.652z"/>
				<path d="M724.689,595.579l-0.135,0.98c-0.821,0-1.644,0.013-2.477,0.024l0.184-1.349L724.689,595.579z"/>
				<path d="M724.555,596.56l-4.855,34.604l-2.428-0.331l4.807-34.248C722.911,596.572,723.733,596.56,724.555,596.56z"/>
				<path d="M722.249,594.119l0.013,1.116l-0.184,1.349c-4.636,0.037-9.577,0.049-14.764,0.049
					c-39.863,0-94.724-1.091-142.373-2.268l-2.502-2.244l0.013-0.295c5.751,0.136,11.624,0.282,17.559,0.417v0.024h0.797
					C630.935,593.433,686.077,594.414,722.249,594.119z"/>
				<path d="M608.949,528.113c0.883,4.219,2.906,16.37,0.013,28.938l-2.514-0.049c3.065-12.74,0.723-25.493-0.025-28.926
					L608.949,528.113z"/>
				<path d="M606.448,557.003l2.514,0.049c-0.11,0.479-0.233,0.993-0.368,1.496l-2.379-0.613
					C606.301,557.616,606.374,557.31,606.448,557.003z"/>
				<path d="M608.949,528.113l-2.526-0.036c-0.122-0.564-0.195-0.883-0.208-0.896l2.379-0.625
					C608.618,526.667,608.753,527.219,608.949,528.113z"/>
				<path d="M608.605,525.661l-0.012,0.896l-2.379,0.625c0.013,0.013,0.086,0.331,0.208,0.896l-138.89-2.231l0.11-2.465
					l39.974,0.662l0.049,0.662l2.452-0.221l-0.037-0.405L608.605,525.661z"/>
				<path d="M608.594,558.548l-0.024,0.944l-33.463-0.65v-0.907h-2.452v0.858l-106.323-2.085l0.049-2.452l140.068,2.747
					c-0.074,0.307-0.147,0.613-0.233,0.932L608.594,558.548z"/>
				<path fill="#999999" d="M606.423,528.077c0.748,3.433,3.091,16.186,0.025,28.926l-140.068-2.747l-0.208-0.012l1.361-28.398
					L606.423,528.077z"/>
				<path d="M582.464,582.152v10.115h-1.656c-0.27,0-0.526-0.012-0.797-0.024v-9.479l-7.356-13.487v-10.484l2.452,0.049v9.822
					L582.464,582.152z"/>
				<path d="M580.808,592.268h-0.797v-0.024C580.281,592.256,580.538,592.268,580.808,592.268z"/>
				<path fill="#999999" d="M580.011,582.765v9.479c-5.935-0.135-11.808-0.281-17.559-0.417
					c-49.306-1.238-90.346-2.514-97.936-2.771l1.655-34.812l0.208,0.012l-0.049,2.452l106.323,2.085v10.484L580.011,582.765z"/>
				<polygon points="575.106,557.935 575.106,558.842 572.654,558.793 572.654,557.935 				"/>
				<path d="M570.201,599.073v13.022l-3.752,10.41l-2.305-0.834l3.604-9.993v-11.502l-6.597-5.91
					c1.251,0.037,2.514,0.062,3.789,0.099L570.201,599.073z"/>
				<path d="M564.941,594.365c-1.275-0.037-2.538-0.062-3.789-0.099l-0.355-0.318l1.643-1.827L564.941,594.365z"/>
				<path d="M562.452,591.826l-0.013,0.295l-1.643,1.827l0.355,0.318c-48.287-1.214-88.433-2.489-96.747-2.759l0.11-2.452
					C472.106,589.313,513.146,590.588,562.452,591.826z"/>
				<polygon points="510.081,524.079 510.118,524.484 507.666,524.705 507.617,524.043 				"/>
				<polygon points="508.45,505.11 510.081,524.079 507.617,524.043 506.071,506.116 497.23,495.963 469.126,492.174 
					469.249,489.722 498.481,493.657 				"/>
				<polygon fill="#999999" points="506.071,506.116 507.617,524.043 467.643,523.381 469.126,492.174 497.23,495.963 				"/>
				<polygon points="477.011,326.65 469.249,489.722 469.004,489.673 468.685,492.112 469.126,492.174 467.643,523.381 
					466.38,523.381 465.19,523.319 474.559,326.54 				"/>
				<polygon points="469.249,489.722 469.126,492.174 468.685,492.112 469.004,489.673 				"/>
				<polygon points="467.643,523.381 467.533,525.846 466.343,525.833 466.38,523.381 				"/>
				<path d="M467.533,525.846l-1.361,28.398l-1.655,34.812c-0.711-0.013-1.141-0.024-1.238-0.037l-0.086,2.44
					c0.27,0.024,0.674,0.036,1.214,0.049l-1.275,26.866l-2.452-0.11l4.512-94.944l1.189,0.062l-0.037,2.452L467.533,525.846z"/>
				<path d="M464.516,589.056l-0.11,2.452c-0.54-0.013-0.944-0.024-1.214-0.049l0.086-2.44
					C463.375,589.031,463.805,589.043,464.516,589.056z"/>
				<polygon points="459.636,326.65 446.883,556.733 446.356,556.708 446.356,554.256 444.578,554.256 456.264,343.352 
					457.392,343.352 457.392,340.887 456.398,340.887 457.196,326.516 				"/>
				<polygon points="457.392,340.887 457.392,343.352 456.264,343.352 456.398,340.887 				"/>
				<path fill="#603813" d="M457.257,324.357l-0.061,2.158l-0.797,14.371h-143.06l-11.023-20.466
					C355.875,321.55,407.878,322.91,457.257,324.357z"/>
				<polygon points="456.398,340.887 456.264,343.352 313.547,343.352 313.621,341.77 313.633,341.438 313.339,340.887 				"/>
				<path fill="#F4DFD0" d="M456.264,343.352l-11.686,210.904h-85.282v-30.103c6.487-0.883,11.208-2.207,12.949-4.096
					c0.957-1.042,1.03-2.072,0.932-2.759c-1.668-11.71-6.671-16.836-6.879-17.044l-0.221-0.221l-59.053-17.792l6.523-138.891
					H456.264z"/>
				<polygon points="446.883,556.733 443.487,618.129 441.047,617.993 441.991,600.852 442.678,600.852 442.678,598.399 
					442.126,598.399 444.443,556.708 446.356,556.708 				"/>
				<polygon points="446.356,554.256 446.356,556.708 444.443,556.708 444.578,554.256 				"/>
				<polygon points="444.578,554.256 444.443,556.708 359.296,556.708 359.296,554.256 				"/>
				<polygon points="442.678,598.399 442.678,600.852 441.991,600.852 442.126,598.399 				"/>
				<polygon points="442.126,598.399 441.991,600.852 359.296,600.852 359.296,598.399 				"/>
				<path d="M373.177,517.299c0.098,0.687,0.024,1.717-0.932,2.759c-1.741,1.889-6.462,3.213-12.949,4.096v-1.778h-2.452
					l-0.037-0.331c7.112-0.784,12.078-1.974,13.635-3.666c0.356-0.368,0.319-0.626,0.307-0.736
					c-1.361-9.563-5.113-14.407-6.008-15.449l-59.164-17.829h1.349l0.098-2.121l59.053,17.792l0.221,0.221
					C366.506,500.463,371.509,505.589,373.177,517.299z"/>
				<polygon points="359.296,600.852 359.296,619.244 356.844,619.244 356.844,556.708 358.07,556.708 359.296,556.708 
					359.296,598.399 358.07,598.399 358.07,600.852 				"/>
				<rect x="358.07" y="598.399" width="1.226" height="2.452"/>
				<rect x="358.07" y="554.256" width="1.226" height="2.452"/>
				<path d="M359.296,524.153v30.103h-1.226v2.452h-1.226v-32.236C357.69,524.374,358.5,524.264,359.296,524.153z"/>
				<path d="M359.296,522.375v1.778c-0.797,0.11-1.606,0.221-2.452,0.318v-2.097H359.296z"/>
				<path d="M356.844,522.375v2.097c-9.013,1.043-20.759,1.398-32.556,1.398c-20.502,0-41.102-1.067-47.539-1.423l0.147-2.452
					c25.517,1.459,60.611,2.207,79.911,0.049L356.844,522.375z"/>
				<polygon points="313.339,340.887 313.633,341.438 313.621,341.77 313.547,343.352 312.701,343.352 312.701,340.887 				"/>
				<path d="M313.547,343.352l-6.523,138.891l-0.919-0.282l-0.711,2.354l0.184,0.049h-26.461l0.147-2.452h25.321l6.572-139.921
					l-11.649-21.63c0.932,0.012,1.876,0.024,2.808,0.061l11.023,20.466h-0.638v2.465H313.547z"/>
				<path fill="#603813" d="M299.507,320.36l11.649,21.63l-6.572,139.921h-25.321l9.576-161.771
					C292.408,320.213,295.964,320.286,299.507,320.36z"/>
				<polygon points="307.024,482.242 306.926,484.363 305.577,484.363 305.393,484.314 306.104,481.96 				"/>
				<path d="M300.991,317.92l1.324,2.501c-0.932-0.036-1.876-0.049-2.808-0.061l-1.177-2.183l0.54-0.282h0.012
					c0.062,0,0.135,0,0.196,0C299.716,317.907,300.354,317.92,300.991,317.92z"/>
				<path d="M300.513,317.074l0.479,0.846c-0.638,0-1.275-0.013-1.913-0.024L300.513,317.074z"/>
				<path d="M300.488,317.024l0.024,0.05l-1.435,0.821c-0.061,0-0.135,0-0.196,0L300.488,317.024z"/>
				<path d="M298.33,318.178l1.177,2.183c-3.543-0.074-7.1-0.147-10.668-0.221l0.147-2.453c0.466,0.013,0.932,0.025,1.398,0.025
					c0.245,0.012,0.49,0.012,0.723,0.024c0.871,0.012,1.827,0.036,2.82,0.061c1.655,0.025,3.298,0.062,4.941,0.099L298.33,318.178z"
					/>
				<path d="M291.108,317.736c0.944,0.012,1.889,0.036,2.82,0.061C292.935,317.772,291.979,317.748,291.108,317.736z"/>
				<path d="M289.404,317.675v0.012c-0.307,0-0.564-0.012-0.797-0.012c-0.208,0-0.417,0-0.638-0.013
					c-0.38-0.012-0.711-0.012-1.116-0.024l-0.098-0.11L289.404,317.675z"/>
				<path d="M288.987,317.687l-0.147,2.453c-0.809-0.013-1.631-0.037-2.452-0.062l0.147-2.44c0.479,0.013,0.957,0.024,1.435,0.024
					c0.221,0.013,0.429,0.013,0.638,0.013C288.742,317.687,288.864,317.687,288.987,317.687z"/>
				<path d="M288.839,320.14l-9.576,161.771h-0.896v2.452h0.748l-2.219,37.632c-0.417-0.024-0.822-0.049-1.226-0.073l-1.227-0.074
					l11.943-201.77C287.208,320.103,288.03,320.127,288.839,320.14z"/>
				<path d="M286.534,317.638l-0.147,2.44c-8.117-0.147-16.284-0.307-24.475-0.466v-0.024l0.098-1.938l-2.44-0.11l0.012-0.417
					C268.607,317.282,277.595,317.454,286.534,317.638z"/>
				<polygon points="279.263,481.911 279.116,484.363 278.368,484.363 278.368,481.911 				"/>
				<path d="M276.896,521.995l-0.147,2.452c-0.491-0.024-0.908-0.049-1.227-0.073l0.147-2.452
					C276.075,521.946,276.479,521.971,276.896,521.995z"/>
				<path d="M276.75,524.447l-5.702,96.317l-2.452-0.147l5.849-98.77l1.227,0.074l-0.147,2.452
					C275.842,524.398,276.259,524.423,276.75,524.447z"/>
				<path d="M262.01,317.65l-0.098,1.938c-0.81-0.013-1.619-0.136-2.44-0.147l0.098-1.9L262.01,317.65z"/>
				<path d="M261.913,319.588v0.024c-0.81-0.013-1.631-0.024-2.453-0.037l0.012-0.135
					C260.294,319.452,261.103,319.575,261.913,319.588z"/>
				<path d="M261.913,319.612l-7.885,153.776l-1.41-0.073v-2.44h-0.907l7.75-151.3C260.282,319.588,261.103,319.6,261.913,319.612z"
					/>
				<path d="M259.583,317.123l-0.012,0.417l-0.098,1.9h-0.012l-0.012,0.135c-49.698-0.92-100.462-1.606-151.533-1.974
					c-2.367,0-4.819,0.306-7.198,0.601c-2.416,0.307-4.917,0.601-7.418,0.625c-13.685,1.999-20,14.604-26.106,26.792
					c-1.214,2.416-2.354,4.696-3.556,6.904c-1.692,3.372-4.598,5.407-8.191,5.886c-0.086-0.552-0.16-1.104-0.245-1.656
					c0-0.036-0.013-0.073-0.013-0.11l-0.38,0.037l-0.074-0.674c2.379-0.221,5.064-1.313,6.732-4.623
					c1.202-2.207,2.33-4.464,3.531-6.867c6.106-12.176,13.022-25.982,28.043-28.141h0.172c2.379,0,4.831-0.307,7.21-0.601
					c2.44-0.307,4.979-0.626,7.504-0.626c29.563,0.221,59.041,0.527,88.261,0.944C217.475,316.387,238.627,316.73,259.583,317.123z"
					/>
				
					<rect x="259.392" y="319.502" transform="matrix(0.0902 -0.9959 0.9959 0.0902 -82.1511 549.087)" width="0.135" height="0.012"/>
				
					<rect x="179.83" y="395.219" transform="matrix(0.0512 -0.9987 0.9987 0.0512 -152.2021 630.2529)" width="151.498" height="0.012"/>
				<path fill="#F4DFD0" d="M259.448,319.575l-7.75,151.3l-0.012,0.233L55.091,471.23c0-0.122,0-0.232,0-0.355
					c-0.013-8.706-0.049-17.338-0.074-25.885c-0.086-26.474-0.184-53.769,0.098-80.757h0.147c-0.024-0.797-0.037-1.606-0.049-2.416
					h0.123c0-0.307,0-0.613,0-0.92l0.466-0.073c-0.11-0.81-0.233-1.618-0.355-2.415c3.593-0.479,6.499-2.514,8.191-5.886
					c1.202-2.208,2.342-4.488,3.556-6.904c6.106-12.188,12.421-24.793,26.106-26.792c2.501-0.024,5.003-0.318,7.418-0.625
					c2.379-0.295,4.831-0.601,7.198-0.601C158.986,317.969,209.75,318.655,259.448,319.575z"/>
				<polygon points="254.028,473.389 246.426,621.647 243.985,621.464 251.563,473.561 251.576,473.561 251.588,473.315 
					252.618,473.315 				"/>
				<polygon points="252.618,470.875 252.618,473.315 251.588,473.315 251.698,471.108 251.71,470.875 				"/>
				
					<rect x="251.581" y="470.986" transform="matrix(0.0522 -0.9986 0.9986 0.0522 -231.7968 697.7466)" width="0.234" height="0.012"/>
				
					<rect x="250.532" y="472.206" transform="matrix(0.0499 -0.9988 0.9988 0.0499 -232.552 699.9538)" width="2.21" height="0.012"/>
				<path d="M251.686,471.108l-0.11,2.207l-0.012,0.245l-196.46,0.122c0-0.122,0-0.245,0-0.367c0,0-0.012-0.147,0-0.38
					c-0.012-0.417-0.012-0.822-0.012-1.239c0-0.146,0-0.307,0-0.466L251.686,471.108z"/>
				
					<rect x="251.453" y="473.432" transform="matrix(0.0497 -0.9988 0.9988 0.0497 -233.7895 701.1539)" width="0.245" height="0.012"/>
				<path fill="#9E6332" d="M196.237,312.696l-0.049,3.396c-29.22-0.417-58.698-0.724-88.261-0.944
					c-2.526,0-5.064,0.319-7.504,0.626c-2.379,0.294-4.831,0.601-7.21,0.601h-0.172c-15.021,2.158-21.937,15.965-28.043,28.141
					c-1.202,2.403-2.33,4.66-3.531,6.867c-1.667,3.311-4.353,4.402-6.732,4.623c-1.643,0.159-3.126-0.11-4.046-0.331
					c-8.718-2.906-15.867-6.573-23.433-10.447c-1.913-0.981-3.85-1.975-5.836-2.968l-0.16-0.073
					c-1.287-0.43-2.563-0.712-3.801-0.981c-2.416-0.539-4.684-1.042-6.879-2.501c-4.647-3.617-8.914-7.517-13.034-11.257
					c-5.714-5.211-11.109-10.128-17.424-14.371c-0.919-1.655-2.293-2.783-3.74-3.973c-0.809-0.662-1.643-1.349-2.465-2.183
					c-1.704-1.704-3.114-3.666-4.414-5.714l20.698-1.582l17.829,1.619l23.936,3.298l16.284-4.083l9.515,2.379l89.365,8.228
					L196.237,312.696z"/>
				<path d="M55.446,358.409c0.123,0.797,0.245,1.605,0.355,2.415l-0.466,0.073c0-0.012,0-0.024,0-0.036
					c-0.012-0.81-0.024-1.631-0.062-2.44C55.336,358.421,55.385,358.409,55.446,358.409z"/>
				<path d="M55.201,356.753c0.085,0.552,0.159,1.104,0.245,1.656c-0.062,0-0.11,0.012-0.172,0.012
					C55.25,357.869,55.238,357.305,55.201,356.753z"/>
				<path d="M55.336,360.897c0,0.307,0,0.613,0,0.92h-0.123c0-0.024,0-0.049,0-0.073c0,0-0.012-0.516-0.025-0.834L55.336,360.897z"
					/>
				<path d="M55.274,358.421c0.037,0.81,0.049,1.631,0.062,2.44h-0.147c0,0.012,0,0.036,0,0.049
					c0.013,0.318,0.025,0.834,0.025,0.834H55.14c0,0.024,0,0.049,0,0.073c-0.012,1.141-0.012,1.582-0.024,2.342l-2.305-0.073
					c-0.074-1.876-0.074-3.765-0.062-5.628C53.619,358.531,54.465,358.52,55.274,358.421z"/>
				<path d="M55.274,358.421c-0.809,0.099-1.655,0.11-2.526,0.037c0-0.123,0-0.258,0-0.393c0-0.159,0-0.318,0-0.479
					c0-0.221,0-0.453,0-0.674l1.104-0.123l1.349-0.037C55.238,357.305,55.25,357.869,55.274,358.421z"/>
				<path d="M55.213,361.817c0.012,0.81,0.024,1.619,0.049,2.416h-0.147c0-0.013,0-0.013,0-0.024c0-0.013,0-0.037,0-0.05
					c0.012-0.76,0.012-1.201,0.024-2.342H55.213z"/>
				<path d="M55.188,356.643c0,0.037,0.013,0.074,0.013,0.11l-1.349,0.037l0.957-0.11L55.188,356.643z"/>
				<path d="M55.115,364.159c0,0.013,0,0.037,0,0.05l-2.305,0.122c0-0.086,0-0.159,0-0.245L55.115,364.159z"/>
				<path d="M55.115,364.233c-0.282,26.988-0.184,54.283-0.098,80.757c0.024,8.547,0.061,17.179,0.074,25.885h-1.116v2.44h1.128
					c0,0.122,0,0.245,0,0.367c0.024,18.283,0,36.111-0.208,53.989c-0.466,41.961-1.815,76.687-4.218,108.874
					c0,0,1.3-66.889,1.766-108.813c0.307-27.613,0.221-55.779,0.123-82.939c-0.098-28.239-0.196-57.042,0.172-86.336
					c0,0,0,0,0.012,0c-0.012,1.863-0.012,3.752,0.062,5.628c0,0.086,0,0.159,0,0.245l2.305-0.122
					C55.115,364.221,55.115,364.221,55.115,364.233z"/>
				<path d="M55.103,472.936c-0.012,0.232,0,0.38,0,0.38h-1.128v-2.44h1.116c0,0.123,0,0.233,0,0.355c0,0.159,0,0.319,0,0.466
					C55.091,472.199,55.091,472.641,55.103,472.936z"/>
				<path d="M54.735,356.006l0.074,0.674l-0.957,0.11l-1.104,0.037c0,0.024,0,0.062,0,0.086c0,0.221,0,0.453,0,0.674
					c-0.012,0.16-0.012,0.319-0.012,0.479c0,0.123,0,0.258,0,0.393c-0.895-0.062-1.803-0.196-2.734-0.441
					c-8.988-2.979-16.21-6.683-23.874-10.606c-1.876-0.969-3.777-1.95-5.726-2.919c-1.141-0.38-2.281-0.625-3.482-0.895
					c-2.514-0.564-5.125-1.141-7.762-2.906c-4.807-3.728-9.098-7.651-13.267-11.44c-5.714-5.199-11.122-10.141-17.388-14.31
					l-0.282-0.196l-0.135-0.27c-0.687-1.361-1.827-2.293-3.262-3.482c-0.822-0.662-1.729-1.423-2.649-2.33
					c-2.918-2.918-5.088-6.585-7.014-9.81c-0.588-0.993-1.165-1.962-1.729-2.869l1.472-0.932l3.347,6.241l1.251-0.086
					c1.3,2.048,2.71,4.01,4.414,5.714c0.822,0.834,1.656,1.521,2.465,2.183c1.447,1.189,2.82,2.317,3.74,3.973
					c6.315,4.243,11.71,9.16,17.424,14.371c4.12,3.74,8.387,7.64,13.034,11.257c2.195,1.459,4.463,1.962,6.879,2.501
					c1.238,0.27,2.514,0.552,3.801,0.981l0.16,0.073c1.986,0.993,3.924,1.986,5.836,2.968c7.566,3.874,14.714,7.541,23.433,10.447
					C51.608,355.896,53.092,356.165,54.735,356.006z"/>
				<path d="M53.852,356.79l-1.104,0.123c0-0.024,0-0.062,0-0.086L53.852,356.79z"/>
				<path d="M52.749,358.065c0,0.135,0,0.27,0,0.393c-0.012,0-0.012,0-0.012,0c0-0.135,0-0.27,0-0.393
					C52.736,358.065,52.736,358.065,52.749,358.065z"/>
				<path d="M52.749,357.587c0,0.16,0,0.319,0,0.479c-0.012,0-0.012,0-0.012,0C52.736,357.906,52.736,357.747,52.749,357.587z"/>
				<path d="M-31.638,299.404c0.38,0.613,0.76,1.202,1.141,1.803l-1.251,0.086l-3.347-6.241l0.601-0.381
					c0.577,0.933,1.165,1.913,1.766,2.919C-32.374,298.203-32.006,298.804-31.638,299.404z"/>
			</g>
			<g>
			</g>
		</g>
		
			<line fill="none" stroke="#000000" stroke-width="2" stroke-miterlimit="10" x1="942.147" y1="306.904" x2="951.138" y2="324.429"/>
		<path fill="none" stroke="#000000" stroke-width="2" stroke-miterlimit="10" d="M508.868,114.791c0,0-6.521,189.668-7.339,192.113
			"/>
		<path fill="none" stroke="#000000" stroke-width="2" stroke-miterlimit="10" d="M651.948,111.595
			c0,0,53.11,101.366,88.683,213.358"/>
		<path fill="none" stroke="#000000" stroke-width="2" stroke-miterlimit="10" d="M134.301,144.74c0,0,619.727-9.318,714.604,13.51"
			/>
		
			<line fill="none" stroke="#000000" stroke-width="2" stroke-miterlimit="10" x1="84.323" y1="179.256" x2="905.074" y2="200.212"/>
		<path fill="none" stroke="#000000" stroke-width="2" stroke-miterlimit="10" d="M39.333,218.477c0,0,837.175,8.203,904.737,36.494
			"/>
		<line fill="none" stroke="#000000" stroke-width="2" stroke-miterlimit="10" x1="39.333" y1="250.564" x2="-9.775" y2="297.155"/>
		<line fill="none" stroke="#000000" stroke-width="2" stroke-miterlimit="10" x1="52.749" y1="273.86" x2="31.83" y2="302.047"/>
		<line fill="none" stroke="#000000" stroke-width="2" stroke-miterlimit="10" x1="96.073" y1="268.547" x2="67.624" y2="301.299"/>
		
			<line fill="none" stroke="#000000" stroke-width="2" stroke-miterlimit="10" x1="124.984" y1="268.547" x2="100.107" y2="304.279"/>
		
			<line fill="none" stroke="#000000" stroke-width="2" stroke-miterlimit="10" x1="153.395" y1="259.555" x2="128.717" y2="306.904"/>
		
			<line fill="none" stroke="#000000" stroke-width="2" stroke-miterlimit="10" x1="307.024" y1="259.555" x2="276.75" y2="304.279"/>
		
			<line fill="none" stroke="#000000" stroke-width="2" stroke-miterlimit="10" x1="318.422" y1="281.918" x2="311.157" y2="304.279"/>
		<path fill="none" stroke="#000000" stroke-width="2" stroke-miterlimit="10" d="M422.24,268.547c0,0-16.355,35.082-10.627,37.583"
			/>
		<path fill="none" stroke="#000000" stroke-width="2" stroke-miterlimit="10" d="M435.319,287.954c0,0-7.383,15.527-4.087,18.177"
			/>
		
			<line fill="none" stroke="#000000" stroke-width="2" stroke-miterlimit="10" x1="456.264" y1="281.918" x2="450.341" y2="306.904"/>
		
			<line fill="none" stroke="#000000" stroke-width="2" stroke-miterlimit="10" x1="477.011" y1="281.627" x2="472.051" y2="306.904"/>
		
			<line fill="none" stroke="#000000" stroke-width="2" stroke-miterlimit="10" x1="565.678" y1="273.86" x2="564.037" y2="311.261"/>
		<line fill="none" stroke="#000000" stroke-width="2" stroke-miterlimit="10" x1="584" y1="287" x2="584" y2="309"/>
		
			<line fill="none" stroke="#000000" stroke-width="2" stroke-miterlimit="10" x1="610.666" y1="292.561" x2="608.623" y2="311.261"/>
		<path fill="none" stroke="#000000" stroke-width="2" stroke-miterlimit="10" d="M644.999,270.183c0,0,8.993,31.965,6.949,43.368"
			/>
		<path fill="none" stroke="#000000" stroke-width="2" stroke-miterlimit="10" d="M666.662,297.977c0,0,3.275,12.625,3.068,17.145"
			/>
		<line fill="none" stroke="#000000" stroke-width="2" stroke-miterlimit="10" x1="684" y1="307" x2="684" y2="321"/>
		<path fill="none" stroke="#000000" stroke-width="2" stroke-miterlimit="10" d="M801.544,289.803c0,0,7.438,32.065,6.539,33.863"
			/>
		<path fill="none" stroke="#000000" stroke-width="2" stroke-miterlimit="10" d="M812.579,294.266c0,0,15.955,21.541,13.495,27.545
			"/>
		
			<line fill="none" stroke="#000000" stroke-width="2" stroke-miterlimit="10" x1="834.65" y1="283.672" x2="848.498" y2="320.661"/>
		
			<line fill="none" stroke="#000000" stroke-width="2" stroke-miterlimit="10" x1="845.278" y1="281.627" x2="872.493" y2="321.972"/>
		
			<line fill="none" stroke="#000000" stroke-width="2" stroke-miterlimit="10" x1="881.246" y1="286.941" x2="895.941" y2="318.109"/>
		<line fill="none" stroke="#000000" stroke-width="2" stroke-miterlimit="10" x1="918.85" y1="297.977" x2="924.163" y2="319.23"/>
		
			<line fill="none" stroke="#000000" stroke-width="2" stroke-miterlimit="10" x1="942.147" y1="306.904" x2="951.138" y2="324.429"/>
		<path fill="none" stroke="#000000" stroke-width="2" stroke-miterlimit="10" d="M323.825,118.99c0,0-88.125,147.451-87.022,185.29
			"/>
		<line fill="none" stroke="#000000" stroke-width="2" stroke-miterlimit="10" x1="206.023" y1="273.86" x2="196.25" y2="310.238"/>
		<polyline fill="#42210B" points="261.913,319.607 286.387,320.084 271.047,620.76 245.631,622.793 		"/>
		<polyline fill="#42210B" points="456,324 477.011,324 460.679,619.674 441.908,620.965 		"/>
		<polyline fill="#42210B" points="857.56,645.773 901.236,650.495 901.273,344.621 873.39,346.19 		"/>
		<polyline fill="#42210B" points="56.427,358.465 54.355,636.541 28.692,637.828 35.508,350.299 		"/>
	</g>
	<path fill="#C69C6D" stroke="#000000" stroke-width="2" stroke-miterlimit="10" d="M-149.748,659.546
		c0,0,614.748-105.295,1253.748,24.681v214.584l-1275.341,8.583L-149.748,659.546z"/>
</g>
<g id="제비">
	<g>
		<ellipse fill="#8C6239" cx="227.241" cy="345.984" rx="91.046" ry="53.843"/>
		<path fill="#8C6239" stroke="#000000" stroke-miterlimit="10" d="M187.167,398.246c0,0,6.854,9.49,12.303,10.018
			c0,0-1.054-7.733,2.285-11.6l9.843,12.479c0,0,1.059-7.296,7.384-9.536c0,0,6.196,9.504,6.612,11.716
			c0.417,2.214,4.107-6.398,4.459-13.43c0,0,3.164,7.91,3.339,8.789c0.176,0.879,1.962-6.855,1.962-6.855l5.596,9.316
			c0,0,2.293-8.081,5.716-10.543l2.838,9.488l3.397-12.48c0,0,8.964,8.086,10.722,9.843l1.582-11.601l6.689,8.914
			c0,0,2.333-7.156,1.513-12.604l4.219,8.964l3.046-10.721c0,0,2.988,6.151,2.46,8.436c0,0,7.558-6.327,5.8-12.83l1.054,8.261
			c0,0,9.316-2.813,8.613-10.194c0,0,3.064,9.491,0.038,10.194c0,0,11.291-5.396,12.442-16.171l2.285,6.328
			c0,0,10.279-15.643,8.128-23.553l3.648,5.801c0,0,7.323-11.601,3.573-16.874l3.281,3.867c0,0,0.879-17.752-12.831-24.255
			c0,0,7.499,0.703,9.549,2.812c0,0-11.307-17.398-22.556-15.115l12.128-1.406c0,0-7.382-7.382-22.322-7.733l7.733-2.637
			c0,0-2.21-3.866-31.424,0l-97.586-6.269c0,0-14.413,4.159-19.686,9.432l5.273-0.175c0,0-11.425,6.383-20.389,3.015
			c0,0,0.879,5.95,6.327,5.773c0,0-7.03,1.23-11.424,14.062l7.91-4.57c0,0-11.821,7.131-12.479,18.153l8.788-5.851
			c0,0-10.897,12.128-5.976,24.959l6.855-5.977c0,0-10.546,12.48-3.691,27.595c0,0,3.691-8.084,10.018-9.139
			c0,0-7.206,2.461-6.151,17.576c0,0,3.516-6.854,12.655-7.206c0,0-2.109,6.854,0.879,12.127c0,0,1.406-4.569,4.745-6.151
			c0,0-0.879,3.69,2.812,11.601l4.395-5.976l3.164,6.151l5.273-7.733c0,0,2.812,9.315,12.83,12.303L187.167,398.246z"/>
	</g>
	<g>
		<g>
			<polygon fill="#FBB03B" points="200.134,282.541 189.829,288.613 197.914,301.721 203.2,289.104 			"/>
			<polygon fill="#FBB03B" points="206.132,288.613 198.536,291.681 197.914,308.872 201.156,316.371 211.729,312.826 
				222.657,296.168 224.745,290.393 223.368,286.172 			"/>
		</g>
		<path fill="#F15A24" stroke="#000000" stroke-miterlimit="10" d="M219.288,261.712c0,0-1.029-5.926,6.613-6.992l-1.103,11.578
			l8.032-3.227c0,0,1.604,6.784-4.527,11.031"/>
		<circle fill="#FBB03B" stroke="#000000" stroke-miterlimit="10" cx="211.152" cy="277.11" r="17.414"/>
		<polyline fill="#FBB03B" stroke="#000000" stroke-miterlimit="10" points="211.151,267.87 220.391,265.737 218.082,274.104 		"/>
		<path fill="#3FA9F5" d="M217.016,280.841c0,2.063-0.915,3.731-2.044,3.731c-1.128,0-2.043-1.669-2.043-3.731
			c0-2.06,2.043-3.731,2.043-3.731S217.016,278.781,217.016,280.841z"/>
		<path fill="#3FA9F5" d="M211.631,278.02c-1.44,1.022-2.981,1.323-3.442,0.673c-0.461-0.651,0.333-2.005,1.773-3.026
			c1.44-1.021,3.442-0.673,3.442-0.673S213.071,276.999,211.631,278.02z"/>
		<path fill="#FBB03B" stroke="#000000" stroke-miterlimit="10" d="M224.794,288.613c0,0-0.073,17.69-0.574,18.776"/>
		<path fill="#FBB03B" stroke="#000000" stroke-miterlimit="10" d="M221.452,294.613c0,0.711,14.752-14.971,24.703-11.595
			l-6.396,5.618c0,0,12.617-1.21,11.729,4.299c0,0-6.931,1.238-10.84,0.527c0,0,4.087,1.774,4.087,5.507c0,0-7.177,1.598-8-0.002
			l-3.235-3.201c0,0,2,5.153,0,5.153c0,0-3.606,2.133-9.034-1.954c0,0,4.756,18.48-17.101,16.348"/>
		<path fill="#FBB03B" stroke="#000000" stroke-miterlimit="10" d="M208.842,311.051c0,0-1.777,7.285-6.397,7.107l-4.087,0.002
			l2.488-3.556"/>
		<path fill="#FBB03B" stroke="#000000" stroke-miterlimit="10" d="M202.445,307.673c-4.442,0.533-7.286-1.776-7.286-1.776
			c-5.331-4.975-4.086-2.665-4.086-2.665c-0.89,4.265,4.62,6.929,4.62,6.929l-5.864-0.905c0.888,2.844,6.396,4.245,6.396,4.245
			h-3.375c0.888,4,5.242,2.862,5.242,2.862l2.139-0.799"/>
		<path fill="#FBB03B" stroke="#000000" stroke-miterlimit="10" d="M198.357,307.39c0,0-4.494-2.026,3.262-15.709"/>
		<polyline opacity="0.3" fill="#FBB03B" stroke="#000000" stroke-miterlimit="10" points="224.22,288.613 225.367,291.403 
			224.22,288.613 225.367,291.681 		"/>
		<path fill="#FBB03B" stroke="#000000" stroke-miterlimit="10" d="M197.691,300.399l-1.554-0.864c-2.22-3.342,0-3.589,0-3.589
			c-4.617,2.69-6.308,2.056-6.308,2.056c-0.177-2.211,1.422-4.366,1.422-4.366c-4.087,2.311-5.154,0.889-5.154,0.889
			c-1.243-3.198,1.906-4.377,1.906-4.377c-8.579,0.421-7.414-1.534-7.414-1.534c4.443-3.778,9.24-2.085,9.24-2.085
			c-4.975-2.846-4.798-5.688-4.798-5.688c3.731,1.067,10.385,3.731,10.385,3.731"/>
	</g>
	<g>
		<g>
			<polygon fill="#FBB03B" points="240.13,303.525 226.539,311.534 237.202,328.819 244.173,312.18 			"/>
			<polygon fill="#FBB03B" points="248.04,311.534 238.021,315.578 237.202,338.253 241.479,348.143 255.422,343.465 
				269.834,321.494 272.589,313.879 270.773,308.312 			"/>
		</g>
		<path fill="#F15A24" stroke="#000000" stroke-miterlimit="10" d="M265.391,276.055c0,0-1.356-7.815,8.721-9.222l-1.454,15.271
			l10.593-4.257c0,0,2.117,8.946-5.973,14.55"/>
		<circle fill="#FBB03B" stroke="#000000" stroke-miterlimit="10" cx="254.661" cy="296.361" r="22.967"/>
		<polyline fill="#FBB03B" stroke="#000000" stroke-miterlimit="10" points="254.661,284.175 266.847,281.362 263.8,292.397 		"/>
		<path fill="#3FA9F5" d="M262.394,301.283c0,2.717-1.207,4.921-2.695,4.921c-1.489,0-2.695-2.204-2.695-4.921
			s2.695-4.922,2.695-4.922S262.394,298.566,262.394,301.283z"/>
		<path fill="#3FA9F5" d="M255.293,297.562c-1.9,1.347-3.932,1.744-4.54,0.887c-0.608-0.856,0.438-2.644,2.338-3.99
			s4.539-0.887,4.539-0.887S257.192,296.215,255.293,297.562z"/>
		<path fill="#FBB03B" stroke="#000000" stroke-miterlimit="10" d="M272.653,311.534c0,0-0.097,23.329-0.757,24.76"/>
		<path fill="#FBB03B" stroke="#000000" stroke-miterlimit="10" d="M268.245,319.446c0,0.936,19.456-19.745,32.579-15.292
			l-8.434,7.408c0,0,16.641-1.595,15.468,5.67c0,0-9.14,1.634-14.296,0.697c0,0,5.391,2.34,5.391,7.261
			c0,0-9.785,2.107-10.869-0.002l-4.584-4.22c0,0,4,6.795,0,6.795c0,0-4.439,2.813-11.597-2.577c0,0,6.43,24.372-22.395,21.56"/>
		<path fill="#FBB03B" stroke="#000000" stroke-miterlimit="10" d="M251.614,341.122c0,0-2.343,9.609-8.437,9.375l-5.391,0.004
			l3.281-4.689"/>
		<path fill="#FBB03B" stroke="#000000" stroke-miterlimit="10" d="M243.178,336.671c-5.859,0.703-9.608-2.345-9.608-2.345
			c-7.031-6.563-5.391-3.516-5.391-3.516c-1.172,5.626,6.093,9.141,6.093,9.141l-7.733-1.624c1.171,3.75,8.437,5.173,8.437,5.173
			h-4.452c1.172,6,6.913,4.201,6.913,4.201l2.821-0.838"/>
		<path fill="#FBB03B" stroke="#000000" stroke-miterlimit="10" d="M237.787,336.294c0,0-5.927-2.67,4.302-20.716"/>
		<polyline opacity="0.3" fill="#FBB03B" stroke="#000000" stroke-miterlimit="10" points="271.896,311.534 273.409,315.211 
			271.896,311.534 273.409,315.578 		"/>
		<path fill="#FBB03B" stroke="#000000" stroke-miterlimit="10" d="M236.908,327.078l-2.05-1.142c-2.929-4.406,0-4.732,0-4.732
			c-6.09,3.549-8.32,2.71-8.32,2.71c-0.234-2.914,1.875-5.758,1.875-5.758c-5.39,3.048-6.796,1.171-6.796,1.171
			c-1.641-4.216,2.513-5.772,2.513-5.772c-11.314,0.557-9.777-2.021-9.777-2.021c5.859-4.983,12.186-2.753,12.186-2.753
			c-6.562-3.75-6.328-7.498-6.328-7.498c4.921,1.405,13.696,4.921,13.696,4.921"/>
	</g>
	<g>
		<g>
			<polygon fill="#FBB03B" points="202.947,317.693 192.641,323.767 200.726,336.874 206.012,324.257 			"/>
			<polygon fill="#FBB03B" points="208.944,323.767 201.348,326.833 200.726,344.025 203.968,351.524 214.542,347.978 
				225.47,331.321 227.557,325.545 226.181,321.324 			"/>
		</g>
		<path fill="#F15A24" stroke="#000000" stroke-miterlimit="10" d="M222.101,296.866c0,0-1.028-5.927,6.612-6.992l-1.103,11.578
			l8.032-3.228c0,0,1.604,6.784-4.527,11.033"/>
		<path fill="#FBB03B" stroke="#000000" stroke-miterlimit="10" d="M231.378,312.263c0,9.618-7.797,17.415-17.415,17.415
			s-17.414-7.797-17.414-17.415c0-9.615,7.796-17.413,17.414-17.413S231.378,302.647,231.378,312.263z"/>
		<polyline fill="#FBB03B" stroke="#000000" stroke-miterlimit="10" points="213.964,303.022 223.204,300.891 220.894,309.258 		"/>
		<path fill="#3FA9F5" d="M219.828,315.993c0,2.063-0.915,3.732-2.043,3.732c-1.128,0-2.044-1.669-2.044-3.732
			c0-2.06,2.044-3.73,2.044-3.73S219.828,313.934,219.828,315.993z"/>
		<path fill="#3FA9F5" d="M214.444,313.173c-1.441,1.021-2.982,1.322-3.442,0.674c-0.461-0.651,0.333-2.006,1.772-3.027
			c1.44-1.021,3.442-0.673,3.442-0.673S215.883,312.151,214.444,313.173z"/>
		<path fill="#FBB03B" stroke="#000000" stroke-miterlimit="10" d="M227.606,323.767c0,0-0.073,17.689-0.574,18.776"/>
		<path fill="#FBB03B" stroke="#000000" stroke-miterlimit="10" d="M224.265,329.766c0,0.711,14.751-14.971,24.702-11.594
			l-6.396,5.616c0,0,12.618-1.209,11.729,4.3c0,0-6.931,1.239-10.84,0.527c0,0,4.087,1.774,4.087,5.507c0,0-7.583,1.598-8.406-0.002
			l-3.642-3.2c0,0,3,5.153,0,5.153c0,0-3.2,2.132-8.627-1.954c0,0,4.958,18.479-16.898,16.348"/>
		<path fill="#FBB03B" stroke="#000000" stroke-miterlimit="10" d="M211.654,346.203c0,0-1.777,7.286-6.396,7.107l-4.087,0.002
			l2.488-3.556"/>
		<path fill="#FBB03B" stroke="#000000" stroke-miterlimit="10" d="M205.257,342.825c-4.442,0.534-7.286-1.775-7.286-1.775
			c-5.331-4.976-4.086-2.666-4.086-2.666c-0.889,4.266,4.62,6.93,4.62,6.93l-5.864-0.982c0.888,2.843,6.397,4.169,6.397,4.169
			h-3.376c0.889,4,5.242,2.938,5.242,2.938l2.139-0.761"/>
		<path fill="#FBB03B" stroke="#000000" stroke-miterlimit="10" d="M201.17,342.543c0,0-4.495-2.028,3.261-15.71"/>
		<polyline opacity="0.3" fill="#FBB03B" stroke="#000000" stroke-miterlimit="10" points="227.032,323.767 228.179,326.556 
			227.032,323.767 228.179,326.833 		"/>
		<path fill="#FBB03B" stroke="#000000" stroke-miterlimit="10" d="M200.503,335.553l-1.555-0.865c-2.22-3.341,0-3.59,0-3.59
			c-4.617,2.691-6.308,2.057-6.308,2.057c-0.177-2.21,1.422-4.366,1.422-4.366c-4.086,2.31-5.153,0.89-5.153,0.89
			c-1.244-3.199,1.905-4.377,1.905-4.377c-8.579,0.421-7.414-1.534-7.414-1.534c4.443-3.778,9.24-2.086,9.24-2.086
			c-4.975-2.845-4.798-5.688-4.798-5.688c3.731,1.067,10.385,3.732,10.385,3.732"/>
	</g>
	<path fill="#FBB03B" stroke="#000000" stroke-miterlimit="10" d="M328.715,332.076"/>
	<path fill="#8C6239" stroke="#000000" stroke-miterlimit="10" d="M187.167,357.686c0,0,30.142-15.031,59.188,1.428"/>
	<path fill="#8C6239" stroke="#000000" stroke-miterlimit="10" d="M169.591,354.371c0,0,15.641-12.28,36.821-2.218"/>
	<path fill="#8C6239" stroke="#000000" stroke-miterlimit="10" d="M157.639,332.655c0,0,28.256-2.703,38.911,15.536"/>
	<path fill="#8C6239" stroke="#000000" stroke-miterlimit="10" d="M159.045,319.548c0,0,11.492-1.627,18.049,5.053"/>
	<path fill="#8C6239" stroke="#000000" stroke-miterlimit="10" d="M174.864,313.744c0,0,7.408,6.287,8.801,23.159"/>
	<path fill="#8C6239" stroke="#000000" stroke-miterlimit="10" d="M231.694,353.259c0,0,12.792-10.955,40.202-4.163"/>
	<path fill="#8C6239" stroke="#000000" stroke-miterlimit="10" d="M260.753,347.306c0,0,11.258-12.995,40.899-6.952"/>
	<path fill="#8C6239" stroke="#000000" stroke-miterlimit="10" d="M278.711,339.339c0,0,2.629-12.413,23.813-11.803"/>
	<path fill="#8C6239" stroke="#000000" stroke-miterlimit="10" d="M279.859,343.028c0,0,26.34,1.398,33.79,19.959"/>
	<path fill="#8C6239" stroke="#000000" stroke-miterlimit="10" d="M191.925,383.306c0,0,7.972-20.923,14.086-21.71"/>
	<path fill="#8C6239" stroke="#000000" stroke-miterlimit="10" d="M150.229,353.259c0,0,12.683-8.574,19.362-7.72"/>
</g>
<g id="뱀">
	<g>
		<path fill="#C1272D" stroke="#000000" stroke-miterlimit="10" d="M372.409,224.974c0,0-7.239,22.932-31.642,25.774
			c2.602-0.299,5.488,3.088,3.125,5.185c4.596-4.08,11.018-5.079,15.825-8.817c6.79-5.28,12.519-12.088,14.91-20.491"/>
		<polyline fill="#FFFFFF" stroke="#000000" stroke-miterlimit="10" points="346.032,235.833 351.583,238.833 348.808,232.833 		"/>
		<polyline fill="#FFFFFF" stroke="#000000" stroke-miterlimit="10" points="373.51,243.721 366.083,244.25 372.416,248.437 		"/>
		<path fill="#C7B299" stroke="#000000" stroke-miterlimit="10" d="M516.423,168.143c0,0-2.956-25.778,13.936-33.21
			s-7.237-13.182-7.237-13.182l-21.371,7.75l2.5,24L516.423,168.143z"/>
		<g>
			<path fill="none" d="M536.205,136.766c-0.467-4.616-3.391-9.266-13.205-9.432c0,0-16.64,7.987-9.682,18.642
				c1.526,8.281,6.593,16.985,9.576,23.911C529.399,161.896,540.21,147.927,536.205,136.766z"/>
			<path fill="none" d="M535.629,186.416l-12.48-16.842C522.538,172.41,532.32,182.707,535.629,186.416z"/>
			<path fill="#662D91" stroke="#000000" stroke-miterlimit="10" d="M484.387,172.746c-0.477-0.247-0.943-0.5-1.397-0.77
				c-15.937-9.477-32.907,7.901-43.502,18.024c-6.847,6.667-17.153,4.667-17.154,4.667c-9.766,0-18.38-6.739-28.114-6.469
				c-7.308,0.203-13.681,4.033-19.885,7.136C334,220,344.334,239,344.334,239c-0.167-2.5,10.916-13,10.916-13
				c0.014-0.007,0.027-0.015,0.045-0.023c3.068-1.599,18.146-3.61,19.205,1.023c2,8.75-3.166,25.334-3.166,25.334
				c3.333-4.667,13.31-18.667,13.31-18.667c7.978-17.333,18.022-18.333,18.022-18.333C412.333,215,417,221.667,417,221.667
				c8,12,27.047,2.813,27.066,2.803c14.389-6.741,21.438-26.647,35.945-17.137c10.678,7,14.689,6.333,14.689,6.333
				c5.953-1.011,12.991-4.515,19.438-8.474C512.166,203.744,495.213,190.986,484.387,172.746z"/>
			<path fill="#662D91" stroke="#000000" stroke-miterlimit="10" d="M517.66,170.838c-0.007-0.134,0.001-0.258,0.025-0.37
				l12.48,16.842c0.542,0.608,0.906,1.036,1.025,1.228c2.06-3.828,5.967-8.191,8.509-12.309c2.597-4.207,5-8.533,7.189-12.966
				c4.292-8.694,7.738-17.792,10.332-27.133c4.722-17,9.1-37.678-7.252-50.02c-14.143-10.674-35.728-5.727-48.891,4.016
				c-13.929,10.309-26.079,27.21-29.662,44.271c-2.833,13.485,0.339,27.245,7.55,38.848l29.71,32.843
				c6.225,6.25,14.625,7.748,22.86,9.807c11,3,22,0,32.015-4.006c16.417-6.573,32.831-20.915,40.205-37.146
				c-1.253,2.759-12.016,6.009-14.683,7.145c-6.82,2.904-13.84,5.338-21.016,7.29c-11.747,3.194-25.771,6.197-36.918-0.551
				 M507.635,146.916c-1.997-10.423,10.509-23.099,19.966-15.171c6.454,5.411,4.931,13.583,2.032,20.285
				c-2.507,5.785-7.875,13.158-12.222,17.484C512.909,163.596,509.061,154.358,507.635,146.916z"/>
		</g>
		<path fill="#C7B299" stroke="#000000" stroke-miterlimit="10" d="M531.584,188.887c0,0,8.041,8.363,21.541,8.488
			s27.504-9.058,32.564-14.091c0,0-16.439,5.501-24.939,7.046S544.168,192.399,531.584,188.887z"/>
		<path fill="#C7B299" stroke="#000000" stroke-miterlimit="10" d="M403,215.328c1.676,0.344,4.693-1.047,6.532-1.039
			c15.066,0.074,24.149,14.525,38.968,4.628c0.004-0.003,13.013-8.691,13.019-8.695c-6.118,4.085-9.461,10.862-16.568,14.235
			c-6.212,2.949-13.955,4.41-20.647,2.62c0,0-4.47-0.827-9.97-7.327C414.333,219.75,411.917,217.155,403,215.328z"/>
		<line fill="#C7B299" stroke="#000000" stroke-miterlimit="10" x1="414.333" y1="219.75" x2="416.191" y2="215.226"/>
		<line fill="#C7B299" stroke="#000000" stroke-miterlimit="10" x1="418.625" y1="223.75" x2="421.6" y2="217.113"/>
		<line fill="#C7B299" stroke="#000000" stroke-miterlimit="10" x1="425.875" y1="227.625" x2="429.338" y2="220.432"/>
		<line fill="#C7B299" stroke="#000000" stroke-miterlimit="10" x1="436.5" y1="227" x2="436.5" y2="222"/>
		<line fill="#C7B299" stroke="#000000" stroke-miterlimit="10" x1="445.786" y1="224.028" x2="444.711" y2="220.99"/>
		<line fill="#C7B299" stroke="#000000" stroke-miterlimit="10" x1="543.5" y1="191" x2="543.5" y2="196"/>
		<line fill="#C7B299" stroke="#000000" stroke-miterlimit="10" x1="552.5" y1="191" x2="552.5" y2="197"/>
		<line fill="#C7B299" stroke="#000000" stroke-miterlimit="10" x1="559.5" y1="191" x2="559.5" y2="197"/>
		<line fill="#C7B299" stroke="#000000" stroke-miterlimit="10" x1="568.998" y1="188.37" x2="568.128" y2="194.258"/>
		<path fill="#C7B299" stroke="#000000" stroke-miterlimit="10" d="M522.588,129.375c0,0-3.641,3.454,4.448,7.414"/>
		<path fill="#C7B299" stroke="#000000" stroke-miterlimit="10" d="M511.618,134.145c0,0,3.169,6.795,9.275,9.388"/>
		<path fill="#C7B299" stroke="#000000" stroke-miterlimit="10" d="M507.462,145.519c0,0,3.632,6.356,10.022,6.793"/>
		<line fill="#C7B299" stroke="#000000" stroke-miterlimit="10" x1="511.618" y1="159.358" x2="516.353" y2="159.974"/>
		<path fill="#FCEE21" stroke="#000000" stroke-miterlimit="10" d="M357,219.04c0,0,1.667-8.873,9.083-10.207
			C366.083,208.833,365.333,214.247,357,219.04z"/>
		<circle stroke="#000000" stroke-miterlimit="10" cx="360.833" cy="213.937" r="1.103"/>
		<g>
			<g>
				<path fill="#93278F" d="M395.679,196.524c0.219,0.989,1.423,1.494,2.297,1.735c0.788,0.217,1.628-0.26,1.845-1.047
					c0.217-0.788-0.26-1.628-1.047-1.845c-0.16-0.044-0.314-0.103-0.468-0.164c0.367,0.146,0.032,0.005-0.037-0.03
					c-0.059-0.031-0.116-0.064-0.171-0.1c0.236,0.149,0.395,0.368,0.474,0.654c-0.176-0.798-1.088-1.256-1.845-1.047
					C395.909,194.903,395.502,195.726,395.679,196.524L395.679,196.524z"/>
			</g>
		</g>
		<g>
			<g>
				<path fill="#93278F" d="M404.063,196.875c0.271,0,0.542,0,0.813,0c1.935,0,1.935-3,0-3c-0.271,0-0.542,0-0.813,0
					C402.128,193.875,402.128,196.875,404.063,196.875L404.063,196.875z"/>
			</g>
		</g>
		<g>
			<g>
				<path fill="#93278F" d="M402.205,200.257c0.396,0.823,1.244,1.445,2.016,1.885c0.808,0.459,2.209,0.967,3.074,0.351
					c1.022-0.729,1.292-2.003,0.643-3.093c-0.334-0.562-0.896-0.878-1.491-1.093c-0.193-0.07-0.407-0.095-0.607-0.135
					c-0.102-0.021-0.202-0.048-0.3-0.082c0.05,0.01,0.099,0.022,0.146,0.038c-1.331-1.409-3.448,0.716-2.121,2.121
					c0.441,0.467,1.01,0.721,1.63,0.847c0.103,0.019,0.204,0.041,0.306,0.064c0.313,0.068,0.071,0.03,0.001-0.036
					c-0.151-0.145-0.219-0.313-0.205-0.505c-0.062-0.503,1.562-0.878,0.902-0.866c0.352-0.006-0.133-0.049-0.252-0.09
					c0.122,0.056,0.099,0.044-0.069-0.036c-0.147-0.071-0.286-0.157-0.425-0.242c-0.284-0.174-0.209-0.128-0.443-0.346
					c-0.067-0.065-0.131-0.133-0.192-0.205c0.204,0.228,0.012-0.02-0.021-0.09c-0.354-0.737-1.391-0.926-2.052-0.539
					C401.996,198.643,401.851,199.52,402.205,200.257L402.205,200.257z"/>
			</g>
		</g>
		<g>
			<g>
				<path fill="#93278F" d="M410.438,195.938c-0.61-0.015-1.214,0.252-1.532,0.795c-0.342,0.584-0.238,1.193,0.038,1.774
					c0.391,0.823,1.408,1.262,2.234,1.469c1.111,0.278,2.366-0.18,2.649-1.383c0.297-1.263-0.485-2.457-1.74-2.726
					c-0.799-0.171-1.619,0.226-1.845,1.047c-0.208,0.754,0.248,1.674,1.047,1.845c0.175,0.049,0.183,0.041,0.024-0.025
					c-0.339-0.873-0.481-1.093-0.426-0.66c0.157-0.644,0.486-0.981,0.988-1.012c0.262-0.016-0.14-0.046-0.205-0.067
					c0.159,0.051-0.292-0.136-0.351-0.166c0.213,0.174,0.26,0.202,0.141,0.083c0.04,0.052,0.08,0.104,0.121,0.157
					c-0.193-0.338-0.17-0.065,0.066,0.819c-0.23,0.299-0.459,0.598-0.689,0.896c-0.173,0.051-0.347,0.102-0.521,0.153
					c0.818,0.02,1.5-0.698,1.5-1.5C411.938,196.604,411.255,195.958,410.438,195.938L410.438,195.938z"/>
			</g>
		</g>
		<g>
			<g>
				<path fill="#93278F" d="M415.813,204.625c0.948-0.016,1.84-0.355,2.295-1.243c0.317-0.618,0.25-1.305-0.235-1.817
					c-0.483-0.512-1.126-0.685-1.811-0.689c-0.818-0.005-1.5,0.687-1.5,1.5c0,0.822,0.683,1.495,1.5,1.5
					c0.075-0.001,0.15,0.001,0.225,0.006c-0.198,0.006-0.377-0.059-0.536-0.195c-0.078-0.606-0.156-1.212-0.235-1.817
					c-0.186,0.362,0.217-0.184,0.384-0.24c0.319-0.107,0.045-0.006-0.088-0.003c-0.817,0.014-1.5,0.672-1.5,1.5
					C414.313,203.932,414.995,204.639,415.813,204.625L415.813,204.625z"/>
			</g>
		</g>
		<g>
			<g>
				<path fill="#93278F" d="M422.375,197.125c-0.656,0.017-1.239,0.147-1.819,0.455c-0.917,0.486-1.043,2.145,0,2.591
					c1.045,0.447,2.263,0.602,3.205-0.149c1.308-1.044,0.54-3.195-1.136-3.146c-0.817,0.024-1.5,0.665-1.5,1.5
					c0,0.8,0.682,1.524,1.5,1.5c-0.167-0.05-0.335-0.101-0.502-0.151c-0.18-0.18-0.359-0.359-0.539-0.539
					c-0.498-0.714-0.018-1.391,0.575-1.607c0.335-0.123,0.187-0.023-0.008-0.031c-0.401-0.014,0.305,0.062-0.082-0.011
					c-0.11-0.021-0.443-0.147,0,0.043c0,0.864,0,1.727,0,2.591c-0.126,0.034-0.102,0.025,0.073-0.026
					c0.394-0.12-0.184-0.009,0.232-0.02c0.817-0.021,1.5-0.667,1.5-1.5C423.875,197.823,423.193,197.104,422.375,197.125
					L422.375,197.125z"/>
			</g>
		</g>
		<g>
			<g>
				<path fill="#93278F" d="M438.375,219.25c1.935,0,1.935-3,0-3S436.44,219.25,438.375,219.25L438.375,219.25z"/>
			</g>
		</g>
		<g>
			<g>
				<path fill="#93278F" d="M441.563,216.125c1.935,0,1.935-3,0-3S439.628,216.125,441.563,216.125L441.563,216.125z"/>
			</g>
		</g>
		<g>
			<g>
				<path fill="#93278F" d="M443.007,219.233c-0.199,0.058-0.214,0.064-0.044,0.02c-0.19,0.028-0.194,0.038-0.014,0.029
					c0.204,0,0.409,0.025,0.613,0.03c0.818,0.021,1.5-0.698,1.5-1.5c0-0.833-0.683-1.479-1.5-1.5
					c-0.718-0.018-1.432-0.079-2.069,0.33c-0.688,0.44-0.964,1.326-0.539,2.052C441.355,219.378,442.318,219.674,443.007,219.233
					L443.007,219.233z"/>
			</g>
		</g>
		<g>
			<g>
				<path fill="#93278F" d="M446.25,216.25c1.935,0,1.935-3,0-3S444.315,216.25,446.25,216.25L446.25,216.25z"/>
			</g>
		</g>
		<g>
			<g>
				<path fill="#93278F" d="M466.571,178.774c0.005-0.018,0.011-0.036,0.016-0.054c-0.128,0.22-0.257,0.441-0.386,0.662
					c0.086-0.1,0.055-0.081-0.093,0.059c0.006-0.004,0.391-0.18,0.184-0.098c0.315-0.126,0.642-0.227,0.967-0.326
					c0.878-0.27,1.719-0.665,2.561-1.034c0.75-0.329,0.915-1.409,0.539-2.052c-0.449-0.766-1.304-0.867-2.052-0.539
					c-0.894,0.392-1.589,0.634-2.484,0.938c-0.875,0.297-1.857,0.668-2.143,1.646C463.135,179.838,466.031,180.627,466.571,178.774
					L466.571,178.774z"/>
			</g>
		</g>
		<g>
			<g>
				<path fill="#93278F" d="M465.375,180.563c1.59-0.13,3.06-0.751,4.444-1.517c1.693-0.937,0.18-3.528-1.514-2.591
					c-0.888,0.492-1.904,1.024-2.931,1.108c-0.814,0.066-1.5,0.632-1.5,1.5C463.875,179.83,464.559,180.629,465.375,180.563
					L465.375,180.563z"/>
			</g>
		</g>
		<g>
			<g>
				<path fill="#93278F" d="M457.25,181.625c0.612-0.069,1.212-0.157,1.805-0.326c0.309-0.088,0.612-0.219,0.906-0.347
					c0.14-0.061,0.143-0.062,0.01-0.004c0.291-0.082,0.174-0.103-0.35-0.063c-0.299-0.229-0.598-0.459-0.896-0.689
					c-0.027-0.062-0.055-0.123-0.083-0.184c0-0.266,0-0.531,0-0.797c0.142-0.188,0.283-0.375,0.425-0.562
					c0.156-0.063,0.153-0.068-0.007-0.017c-0.19,0.039-0.148,0.035,0.127-0.01c-0.218,0.018-0.433,0.054-0.644,0.108
					c-0.614,0.136-1.228,0.195-1.856,0.205c-1.933,0.029-1.936,3.029,0,3c1.024-0.016,2.214-0.255,2.966-0.371
					c0.821-0.126,1.72-0.683,1.882-1.555c0.235-1.272-0.808-2.354-2.101-2.035c-0.138,0.034-0.265,0.079-0.396,0.132
					c0.169-0.068-0.903,0.363-0.313,0.132c-0.472,0.185-0.971,0.327-1.476,0.384c-0.812,0.092-1.5,0.613-1.5,1.5
					C455.75,180.873,456.436,181.717,457.25,181.625L457.25,181.625z"/>
			</g>
		</g>
		<g>
			<g>
				<path fill="#93278F" d="M461.688,185.563c0.626-0.018,1.24-0.151,1.864-0.194c0.129-0.007,0.258-0.004,0.386,0.006
					c-0.736-0.075-0.813-0.744-0.229-2.006c0.249-0.089,0.294-0.111,0.137-0.064c0.389-0.106,0.145-0.019,0-0.016
					c-0.157,0.003-0.313-0.014-0.469-0.029c0.389,0.039-0.231-0.041-0.323-0.058c-0.26-0.047-0.518-0.11-0.78-0.147
					c-0.809-0.117-1.608,0.186-1.845,1.047c-0.196,0.713,0.237,1.729,1.047,1.845c1.229,0.177,3.112,0.854,4.106-0.264
					c0.856-0.963,0.627-2.367-0.486-3.024c-1.026-0.606-2.312-0.127-3.409-0.096C459.757,182.617,459.752,185.617,461.688,185.563
					L461.688,185.563z"/>
			</g>
		</g>
		<g>
			<g>
				<path fill="#93278F" d="M474.414,178.366c-2.001,0.66-3.661,1.623-5.444,2.713c-1.362,0.833-2.659,2.816-0.606,3.79
					c1.439,0.683,3.56,0.486,5.011-0.044c1.383-0.505,3.073-2.002,3.733-3.318c0.366-0.729,0.201-1.621-0.539-2.052
					c-0.373-0.218-0.704-0.294-1.132-0.33c-1.929-0.161-1.914,2.84,0,3c-0.127-0.026-0.255-0.053-0.382-0.08
					c-0.18-0.684-0.359-1.368-0.539-2.052c-0.354,0.705-1.304,1.522-1.974,1.936c-0.432,0.266-2.508,0.57-2.707,0.333
					c0.146,0.354,0.293,0.707,0.439,1.061c0.006-0.065,0.013-0.13,0.02-0.196c-0.146,0.354-0.293,0.708-0.439,1.061
					c0.584-0.716,1.707-1.25,2.503-1.718c0.896-0.527,1.87-0.886,2.853-1.21C477.04,180.656,476.256,177.758,474.414,178.366
					L474.414,178.366z"/>
			</g>
		</g>
		<g>
			<g>
				<path fill="#93278F" d="M550.25,103.75c-0.01,0.962-0.083,1.877,0.054,2.836c0.116,0.811,1.133,1.243,1.845,1.047
					c0.862-0.237,1.164-1.036,1.048-1.845c0.042,0.294,0-0.233,0-0.233c-0.008-0.224,0.002-0.448,0.01-0.671
					c0.015-0.378,0.04-0.755,0.044-1.134c0.009-0.818-0.688-1.5-1.5-1.5C550.926,102.25,550.259,102.933,550.25,103.75
					L550.25,103.75z"/>
			</g>
		</g>
		<g>
			<g>
				<path fill="#93278F" d="M550.125,110.625c0.005,1.417,0.058,2.833,0.063,4.25c0.006,1.934,3.006,1.935,3,0
					c-0.005-1.417-0.058-2.833-0.063-4.25C553.118,108.691,550.118,108.69,550.125,110.625L550.125,110.625z"/>
			</g>
		</g>
		<g>
			<g>
				<path fill="#93278F" d="M549.375,118.813c0,0.927,0.001,1.83-0.259,2.726c-0.539,1.863,2.355,2.652,2.893,0.798
					c0.332-1.146,0.365-2.339,0.366-3.524C552.376,116.878,549.376,116.878,549.375,118.813L549.375,118.813z"/>
			</g>
		</g>
		<g>
			<g>
				<path fill="#93278F" d="M547.866,128.211c0.116,0.334,0.075,0.766,0.025,1.269c-0.021,0.217-0.026,0.435-0.048,0.652
					c0.017-0.136,0.009-0.114-0.023,0.068c-0.082,0.393,0.127-0.128-0.053,0.105c-0.5,0.65-0.101,1.678,0.538,2.052
					c0.772,0.453,1.555,0.108,2.052-0.539c0.432-0.561,0.486-1.418,0.516-2.096c0.034-0.775,0.148-1.554-0.114-2.31
					c-0.269-0.771-1.017-1.275-1.845-1.047C548.165,126.572,547.597,127.438,547.866,128.211L547.866,128.211z"/>
			</g>
		</g>
		<g>
			<g>
				<path fill="#93278F" d="M546.116,136.149c-0.021-0.115,0.022-0.366-0.055-0.056c-0.049,0.194-0.116,0.383-0.17,0.576
					c-0.129,0.466-0.253,0.957-0.338,1.432c-0.145,0.804,0.206,1.614,1.048,1.845c0.733,0.202,1.7-0.242,1.845-1.047
					c0.213-1.186,0.787-2.326,0.563-3.548c-0.147-0.805-1.109-1.25-1.845-1.047C546.325,134.534,545.969,135.345,546.116,136.149
					L546.116,136.149z"/>
			</g>
		</g>
		<g>
			<g>
				<path fill="#93278F" d="M550.507,146.108c0.998-0.614,1.428-1.685,1.762-2.76c0.379-1.22,0.614-2.642,0.731-3.911
					c0.118-1.28-1.738-2.021-2.561-1.061c-1.316,1.538-2.535,4.376-1.359,6.317c0.47,0.777,1.712,1.057,2.355,0.304
					c1-1.169,0.905-2.876,1.386-4.287c0.626-1.836-2.272-2.618-2.893-0.798c-0.185,0.543-0.282,1.105-0.418,1.662
					c-0.055,0.225-0.136,1.231-0.196,1.302c0.785,0.101,1.57,0.202,2.355,0.304c-0.376-0.622,0.466-2.187,0.891-2.683
					c-0.854-0.354-1.707-0.707-2.561-1.061c-0.076,0.821-0.328,1.655-0.446,2.476c-0.048,0.332-0.258,1.417-0.561,1.604
					C547.349,144.528,548.854,147.124,550.507,146.108L550.507,146.108z"/>
			</g>
		</g>
		<g>
			<g>
				<path fill="#93278F" d="M551.563,131.125c-0.022,0.763-0.276,1.458-0.479,2.183c-0.348,1.245,0.463,2.454,1.789,2.441
					c2.147-0.021,2.953-2.935,2.814-4.624c-0.126-1.526-1.914-1.996-2.795-0.757c-0.41,0.577-0.808,1.345-0.768,2.069
					c0.045,0.816,0.648,1.5,1.5,1.5c0.784,0,1.545-0.683,1.5-1.5c-0.055,0.232-0.058,0.254-0.009,0.064
					c-0.064,0.13-0.056,0.111,0.026-0.057c0.096-0.197,0.214-0.385,0.34-0.563c-0.932-0.252-1.863-0.504-2.795-0.757
					c0.043,0.522-0.007,0.949-0.164,1.446c-0.055,0.146-0.053,0.142,0.006-0.014c-0.042,0.086-0.089,0.17-0.139,0.252
					c-0.099,0.148-0.108,0.165-0.027,0.049c-0.033,0.033-0.066,0.066-0.1,0.1c0.188-0.203,0.445-0.265,0.77-0.188
					c0.221,0.128,0.441,0.257,0.662,0.386c0.112,0.996,0.219,1.267,0.319,0.812c0.029-0.091,0.062-0.182,0.096-0.271
					c0.079-0.216,0.126-0.428,0.176-0.653c0.14-0.633,0.258-1.27,0.276-1.919C554.619,129.189,551.619,129.195,551.563,131.125
					L551.563,131.125z"/>
			</g>
		</g>
		<g>
			<g>
				<path fill="#93278F" d="M554.189,122.189c-0.607,0.574-0.948,1.534-1.125,2.327c-0.268,1.195,0.023,2.539,1.368,2.889
					c2.539,0.661,3.429-2.986,2.675-4.725c-0.299-0.689-1.454-0.993-2.052-0.539c-0.324,0.247-0.597,0.487-0.788,0.851
					c-0.382,0.723-0.189,1.626,0.538,2.052c0.682,0.399,1.671,0.184,2.052-0.539c0.037-0.083,0.085-0.161,0.144-0.231
					c-0.179,0.18-0.358,0.359-0.538,0.539c0.036-0.027,0.071-0.054,0.106-0.081c-0.684-0.18-1.368-0.359-2.052-0.539
					c-0.229-0.526-0.05,0.143-0.115-0.393c0.012,0.094,0.01,0.189,0.01,0.284c-0.001,0.086-0.041,0.438,0.016,0.021
					c-0.015,0.109-0.04,0.216-0.064,0.324c-0.024,0.106-0.06,0.209-0.095,0.313c0.123-0.361,0.029-0.074-0.019,0.014
					c-0.158,0.287,0.227-0.236,0.015-0.021c0.221-0.225,0.578-0.324,0.884-0.244c0.23,0.18,0.461,0.36,0.691,0.54
					c0.093,0.258,0.119,0.311,0.078,0.156c0.097,0.412,0.035,0.191,0.045,0.041c-0.027,0.423-0.004,0.078,0.019-0.022
					c0.025-0.112,0.06-0.222,0.093-0.332c0.034-0.11,0.076-0.218,0.117-0.326c-0.137,0.358-0.01,0.032,0.023-0.038
					c0.04-0.084,0.086-0.165,0.133-0.245c0.191-0.329-0.15,0.153-0.037,0.046c0.595-0.562,0.565-1.556,0-2.121
					C555.721,121.599,554.783,121.628,554.189,122.189L554.189,122.189z"/>
			</g>
		</g>
		<g>
			<g>
				<path fill="#93278F" d="M554.813,113.063c0.023,0.752-0.171,1.545-0.217,2.306c-0.046,0.767-0.072,1.534,0.146,2.281
					c0.251,0.859,1.025,1.165,1.845,1.047c1.946-0.279,1.851-3.397,1.852-4.821c0.001-1.74-2.427-1.981-2.946-0.399
					c-0.217,0.66-0.329,1.346-0.563,2c-0.584,1.639,1.896,2.585,2.741,1.156c0.552-0.932,0.721-2.008,0.83-3.069
					c0.084-0.815-0.746-1.5-1.5-1.5c-0.881,0-1.416,0.687-1.5,1.5c-0.054,0.526-0.149,1.097-0.42,1.556
					c0.914,0.385,1.827,0.771,2.741,1.156c0.233-0.654,0.346-1.34,0.563-2c-0.982-0.133-1.964-0.266-2.946-0.399
					c0,0.463-0.013,0.925-0.043,1.387c-0.019,0.293-0.046,0.473-0.078,0.646c-0.028,0.15-0.071,0.295-0.118,0.44
					c0.076-0.236,0.354-0.511,0.591-0.544c0.615,0.349,1.229,0.698,1.845,1.047c-0.355-1.215,0.216-2.566,0.179-3.789
					C557.753,111.133,554.753,111.127,554.813,113.063L554.813,113.063z"/>
			</g>
		</g>
		<g>
			<g>
				<path fill="#93278F" d="M556.898,104.304c-1.456-0.231-2.506,0.715-2.853,2.086c-0.311,1.226,0.012,2.791,1.397,3.167
					c0.841,0.229,1.639-0.181,2.256-0.717c0.697-0.607,0.952-1.631,0.993-2.513c0.042-0.893-0.296-1.936-1.144-2.362
					c-1.158-0.582-2.382,0.105-2.683,1.323c-0.329,1.329,1.033,2.279,2.203,1.694c0.042-0.021,0.084-0.042,0.125-0.063
					c0.731-0.366,0.931-1.382,0.538-2.052c-0.433-0.739-1.32-0.904-2.052-0.539c-0.042,0.021-0.084,0.042-0.125,0.063
					c0.734,0.565,1.469,1.129,2.203,1.694c0.011-0.045,0.022-0.089,0.033-0.134c-0.844,0.902-1.524,1.001-2.04,0.299
					c-0.078-0.206-0.094-0.221-0.047-0.044c-0.021-0.188-0.026-0.193-0.013-0.013c0.003,0.089,0.001,0.179-0.006,0.268
					c0.029-0.174,0.026-0.173-0.007,0.003c-0.021,0.087-0.046,0.174-0.077,0.258c0.066-0.153,0.061-0.154-0.02-0.001
					c0.162-0.285-0.172,0.111,0.098-0.08c-0.327,0.232,0.161-0.032-0.008,0.015c0.325-0.091,0.563-0.026,0.789,0.103
					c0.323,0.184,0.382,0.347,0.479,0.601c-0.021-0.058-0.033-0.119-0.045-0.18c0.099,0.505,0.031,0.205,0.034,0.054
					c0.008-0.394-0.058,0.289-0.009,0.027c0.02-0.1,0.049-0.198,0.08-0.294c0.089-0.277-0.161,0.34-0.036,0.084
					c0.059-0.119,0.273-0.372-0.044,0.016c0.221-0.27-0.248,0.146-0.066,0.038c-0.272,0.101-0.338,0.131-0.195,0.09
					c-0.187,0.055-0.373,0.056-0.559,0.001c0.807,0.128,1.61-0.194,1.845-1.047C558.145,105.428,557.707,104.432,556.898,104.304
					L556.898,104.304z"/>
			</g>
		</g>
		<g>
			<g>
				<path fill="#93278F" d="M553.116,98.039c-0.366,1.519,0.163,4.223,2.196,4.086c1.275-0.085,1.896-1.178,1.922-2.348
					c0.023-1.036-0.404-2.015-1.228-2.635c-0.824-0.62-1.919,0.073-2.203,0.896c-0.092,0.266-0.112,0.556-0.116,0.836
					c-0.022,1.665,2.615,2.083,2.946,0.399c0.15-0.764,0.278-1.667-0.214-2.343c-0.479-0.66-1.293-0.983-2.052-0.539
					c-0.652,0.382-1.021,1.39-0.538,2.052c-0.045-0.062-0.048-0.484-0.061-0.111c0.01-0.283-0.019,0.095-0.028,0.143
					c0.982,0.133,1.964,0.266,2.946,0.399c-0.001-0.212,0.002-0.225,0.009-0.039c-0.734,0.299-1.469,0.598-2.203,0.896
					c-0.132-0.069-0.239-0.167-0.32-0.291c0.071,0.14,0.063,0.116-0.023-0.073c0.031,0.082,0.122,0.571,0.071,0.173
					c0.014,0.103-0.024,0.598,0.04,0.165c-0.044,0.162-0.023,0.134,0.063-0.085c0.226-0.507,0.993-0.592,1.433-0.358
					c0.352,0.405,0.455,0.497,0.313,0.277c0.078,0.209,0.09,0.234,0.033,0.074c-0.022-0.071-0.042-0.144-0.058-0.216
					c-0.091-0.377,0.025,0.329-0.015-0.059c-0.015-0.145-0.017-0.291-0.017-0.436c0.001-0.063,0.004-0.126,0.009-0.189
					c0.018-0.313-0.071,0.363-0.013,0.121C556.462,96.956,553.569,96.158,553.116,98.039L553.116,98.039z"/>
			</g>
		</g>
	</g>
</g>
<g id="흥부">
	<g>
		<polygon fill="#42210B" stroke="#000000" stroke-width="2" stroke-miterlimit="10" points="502,224.5 503.537,250.969 
			504.458,266.833 520.956,290.62 609.031,342.543 629.349,354.371 635.675,345.985 533.671,288.97 514.267,266 502,204.75 		"/>
		<polygon fill="#42210B" stroke="#000000" stroke-width="2" stroke-miterlimit="10" points="447.5,229.5 483,255.933 
			503.537,250.969 503.335,247.48 484,250.5 		"/>
		<path fill="#009245" stroke="#000000" stroke-width="2" stroke-miterlimit="10" d="M546.333,254.333c0,0-8.171,6.167-18.25,6.167
			s-18.25-6.167-18.25-6.167s8.171-6.167,18.25-6.167S546.333,254.333,546.333,254.333z"/>
	</g>
	
		<ellipse fill="#FFBC87" stroke="#000000" stroke-width="2" stroke-miterlimit="10" cx="571.479" cy="325.079" rx="22.854" ry="24.68"/>
	<path fill="#666666" stroke="#000000" stroke-width="2.134" stroke-miterlimit="10" d="M547.592,476.492
		c0,0,56.075-39.914,41.408-135.37c0,0-21.208-15.136-39.938-10.629c0,0-19.979,39.32-19.688,72.58S507.462,455,507.462,455"/>
	<path fill="#666666" stroke="#000000" stroke-width="2.134" stroke-miterlimit="10" d="M408.343,455.81
		c0,0-52.036,45.054-28.379,138.688c0,0,22.548,13.056,40.766,6.792c0,0,16.159-41.038,12.713-74.12
		c-3.446-33.082,16.888-53.771,16.888-53.771"/>
	<path fill="#B3B3B3" stroke="#000000" stroke-width="2.134" stroke-miterlimit="10" d="M443.563,463.667
		c0,0-30.813,37.999-17.688,116.666s142.048-32,142.253-14s24.896-38.666-43.783-122.666
		C455.667,359.667,443.563,463.667,443.563,463.667z"/>
	<g>
		<path fill="#FFBC87" stroke="#000000" stroke-width="2" stroke-miterlimit="10" d="M526.201,352.735
			c0,0,25.161-30.103,27.472,25.752c0,0,7.262,16.905-5.641,19.708l-8.04,1.745"/>
		<path fill="#FFBC87" stroke="#000000" stroke-width="2" stroke-miterlimit="10" d="M383.772,396.253
			c0,0-37.187-12.729-10.09,36.17c0,0,2.563,18.098,15.038,13.776l7.746-2.686"/>
		<path stroke="#000000" stroke-width="2.134" stroke-miterlimit="10" d="M385.115,390.457c-3.256,1.634,4.819,31.564,5.594,34.299
			c17.545,61.978,79.52,64.541,129.376,32.811c39.303-25.013,14.493-82.881,1.133-115.523
			C514.48,325.582,385.204,390.413,385.115,390.457z"/>
		<path stroke="#000000" stroke-width="2.134" stroke-miterlimit="10" d="M384.871,361.561c0,0-7.979-50.508,54.932-57.553
			c0,0,62.732-18.963,74.745,20.271L384.871,361.561z"/>
		<path fill="#333333" stroke="#000000" stroke-width="2.134" stroke-miterlimit="10" d="M383.637,394.919
			c0,0,58.995-42.489,141.957-45.427l-11.046-25.213c0,0-80.897,6.215-131.097,38.165L383.637,394.919z"/>
		<path stroke="#000000" stroke-width="2" stroke-miterlimit="10" d="M439.803,304.008c0,0-12.332-29.128,10.571-29.832
			c0,0,18.689-4.37,14.562,23.792L439.803,304.008z"/>
	</g>
</g>
<g id="말풍선">
	<path fill="#FFFFFF" stroke="#000000" stroke-miterlimit="10" d="M735.836,356.963c-56.063,12.98-108.657-6.422-117.469-43.341
		c-0.383-1.593-0.643-3.199-0.849-4.804l-21.869-3.146l26.482-24.822c11.574-25.601,42.251-48.421,81.786-57.575
		c56.061-12.979,108.654,6.425,117.469,43.339C830.199,303.533,791.897,343.982,735.836,356.963z"/>
	<text transform="matrix(1 0 0 1 651 270)"><tspan x="0" y="0" stroke="#000000" stroke-width="0.5" stroke-miterlimit="10" font-family="'Gungsuh'" font-size="23">구렁이 이놈이!</tspan><tspan x="0" y="27.6" stroke="#000000" stroke-width="0.5" stroke-miterlimit="10" font-family="'Gungsuh'" font-size="23">저리가거라!!</tspan><tspan x="0" y="55.2" stroke="#000000" stroke-width="0.5" stroke-miterlimit="10" font-family="'Gungsuh'" font-size="23">훠이~훠이~!</tspan></text>
</g>
</svg>
