<?xml version="1.0" encoding="utf-8"?>
<!-- Generator: Adobe Illustrator 16.0.0, SVG Export Plug-In . SVG Version: 6.00 Build 0)  -->
<!DOCTYPE svg PUBLIC "-//W3C//DTD SVG 1.1//EN" "http://www.w3.org/Graphics/SVG/1.1/DTD/svg11.dtd">
<svg version="1.1" xmlns="http://www.w3.org/2000/svg" xmlns:xlink="http://www.w3.org/1999/xlink" x="0px" y="0px" width="960px"
	 height="560px" viewBox="0 0 960 560" enable-background="new 0 0 960 560" xml:space="preserve">
<g id="배경">
	<rect x="-212" y="-396" fill="#3FA9F5" width="1384" height="945"/>
	<g>
		<path fill="#FFFFFF" d="M200.926-189.358c0,10.529,3.895,12.92-8.26,21.82c-8.35,6.114-15.971,13.285-28.894,18.22
			c-10.346,3.952-22.88,0.056-35.611,3.062c-11.13,2.627-21.276,8.605-33.88,10.387c-11.53,1.63-21.605,22.101-34.108,22.932
			c-11.756,0.781-24.521,2.08-36.924,2.08c-12.403,0-23.708-23.25-35.463-24.031c-12.503-0.831-27.23,23.229-38.76,21.599
			c-12.606-1.782-26.49-0.993-37.622-3.621c-12.731-3.006-14.34-38.916-24.687-42.868c-12.921-4.937-32.17,8.775-40.519,2.662
			c-12.153-8.899-31.834-21.712-31.834-32.24c0-10.528,26.812-13.605,38.967-22.504c8.35-6.113,9.279-31.432,22.202-36.368
			c10.346-3.952,29.206,15.102,41.937,12.096c11.13-2.627,19.533-23.397,32.138-25.179c11.53-1.63,24.053-6.084,36.556-6.916
			c11.756-0.781,24.684,8.772,37.087,8.772c12.403,0,24.037,9.902,35.792,10.684c12.503,0.831,25.674-9.601,37.204-7.971
			c12.606,1.782,28.078-9.213,39.209-6.585c12.731,3.006,13.551,41.563,23.898,45.515c12.921,4.937,21.863,4.764,30.211,10.877
			C201.717-198.038,200.926-199.886,200.926-189.358z"/>
	</g>
	<g>
		<path fill="#FFFFFF" d="M1039.151-188.387c0,8.731-0.325,12.099-12.441,18.822c-7.933,4.402-16.317,9.35-27.997,12.348
			c-9.49,2.436-19.984,0.017-31.265,1.269c-10.072,1.118-19.855,3.989-30.892,3.989s-22.308,10.531-32.38,9.414
			c-11.281-1.252-22.709-2.808-32.199-5.244c-11.68-2.998-16.787-18.918-24.72-23.32c-12.114-6.723-30.195-8.546-30.195-17.277
			c0-8.731,10.014-25.096,22.131-31.819c7.932-4.401,25.136,9.911,36.815,6.914c9.49-2.436,17.272-16.224,28.554-17.476
			c10.071-1.118,20.959-8.332,31.994-8.332c11.036,0,21.156,14.14,31.228,15.258c11.281,1.252,24.335-9.423,33.826-6.987
			c11.68,2.998,16.992,19.542,24.924,23.943C1038.649-200.164,1039.151-197.117,1039.151-188.387z"/>
	</g>
	<g>
		<polygon fill="#4D4D4D" points="285.463,103.613 464.181,113.116 458.356,250.45 275.347,255.354 		"/>
		<polygon fill="#808080" points="476.428,208.621 475.131,245.766 876.442,278.334 877.793,208.455 		"/>
		<polyline fill="#CCCCCC" points="67.189,99.678 263.576,99.322 255.985,247.458 66.355,262.541 		"/>
		<g id="XMLID_1_">
			<g>
				<path d="M976.979-89.067l12.568,38.539l-0.318,0.196c0.024-0.221,0.049-0.429,0.073-0.65l-2.452-0.208l-0.258-0.479
					l-11.906-36.516l-28.484-47.208l-30.912-36.712c-2.281-1.741-39.386-30.176-66.178-53.817
					c-27.185-23.984-107.243-33.132-108.04-33.218l-65.736-3.261h-57.569l-111.547,3.678h-92.001l-155.211,7.357h-0.92
					c-6.952,0-44.253,0.772-96.023,15.56C107.805-220.307-12.657-92.783-22.245-82.581l3.911,7.32l-1.287,0.662
					c-0.38-0.601-0.736-1.214-1.104-1.814c-0.601-1.006-1.189-1.987-1.766-2.918l-0.601,0.38l-2.134-4.022l0.589-0.637
					c5.248-5.641,129.13-138.29,186.025-154.549c52.089-14.886,89.684-15.659,96.697-15.659c0.589,0,0.883,0,0.883,0l155.187-7.357
					h92.025l111.547-3.679h57.668l65.871,3.274c3.385,0.368,81.701,9.319,109.462,33.818c27.455,24.217,65.773,53.499,66.153,53.793
					l0.196,0.184l31.17,37.043l28.681,47.539L976.979-89.067z"/>
				<path d="M989.302-50.982c-0.024,0.221-0.049,0.429-0.073,0.65l-2.624,1.471c0.098-0.76,0.184-1.545,0.245-2.33L989.302-50.982z"
					/>
				<path d="M986.604-48.861l2.624-1.471C986.53-21.946,968.334-8.176,967.549-7.6l-0.331,0.184l-54.725,18.797l-0.344-1.005v-0.012
					c0.013-0.503,0.024-0.969,0.037-1.483l54.051-18.553C967.893-10.984,983.6-23.994,986.604-48.861z"/>
				<path d="M986.592-51.669l0.258,0.479c-0.062,0.785-0.147,1.569-0.245,2.33l-4.881,2.747l-0.453-0.098
					c-0.344-0.085-35.376-7.737-65.136-7.737c-0.258,0.024-33.708,2.256-55.534,3.065c-21.802,0.797-68.974,4.255-69.439,4.279
					h-38.515l-32.04,0.417l-0.159-0.062c-0.356-0.098-35.204-9.441-42.451-11.048c-2.256-0.503-6.241-0.822-11.833-0.822
					c-8.265,0-17.166,0.491-17.252,0.491h-0.16l-26.203-4.905h-40.342l-61.764-2.06l-189.618-1.631
					c-11.416-0.54-68.323-3.36-71.659-5.027c0,0-0.085-0.037-0.331-0.037c-3.016,0-12.176,5.493-17.228,8.939l-0.294,0.221
					l-33.07,0.821l-49.109-1.631l-89.365-8.228l-9.515-2.379l-16.284,4.083l-23.936-3.298L2.205-74.378l-20.698,1.582
					c-0.393-0.589-0.76-1.202-1.128-1.803l1.287-0.662l20.563-1.594l18.086,1.655l23.518,3.249l16.419-4.107l10.018,2.501
					l89.009,8.167l48.974,1.631l32.273-0.81c2.354-1.594,13.782-9.172,18.307-9.172c0.552,0,1.03,0.098,1.435,0.307
					c2.747,1.128,43.751,3.482,70.629,4.77l189.594,1.631l61.751,2.047h40.55l26.118,5.101c1.238-0.074,9.527-0.576,17.252-0.576
					c5.775,0,9.933,0.282,12.36,0.821c7.038,1.558,39.777,10.3,42.39,10.999l31.722-0.405h38.429
					c0.393-0.037,47.601-3.482,69.439-4.304c21.801-0.797,55.215-3.053,55.546-3.053c0.013,0,0.024,0,0.024,0
					c28.239,0,61.016,6.793,65.271,7.701L986.592-51.669z"/>
				<path fill="#9E6332" d="M981.724-46.114l4.881-2.747c-3.005,24.867-18.712,37.877-20.367,39.189L912.187,8.881
					c0.282-12.777,0.625-25.542,1.091-38.257l0.05-1.422l-1.631,0.171c-0.503,0.062-1.092,0.11-1.681,0.343
					c-7.847-0.024-15.805-0.012-23.652,0.013h-0.013l-0.821-0.037c0,0.012,0,0.037,0,0.037c-2.354,0.024-4.709,0.037-7.039,0.049
					c-53.903,0.257-109.646,0.503-162.335-12.654l-0.184-0.037c-17.118-1.631-34.959-2.195-52.212-2.722
					c-8.682-0.27-17.657-0.54-26.326-0.969c-92.541-3.274-204.565-6.94-324.389-9.479l-0.441-0.895l-0.086,0.049l-0.024-0.049
					l-1.606,0.871h-0.013c-0.355-0.012-0.699-0.012-1.054-0.024c-1.275-0.037-2.612-0.062-3.887-0.086
					c-1.177-0.012-2.354-0.037-3.543-0.074c-0.344,0-0.675-0.012-0.981-0.024v-0.012l-2.649-0.147l-0.221,0.11
					c-8.939-0.184-17.927-0.355-26.952-0.515c-20.956-0.393-42.107-0.736-63.394-1.03l0.049-3.396l33.07-0.821l0.294-0.221
					c5.052-3.446,14.212-8.939,17.228-8.939c0.246,0,0.331,0.037,0.331,0.037c3.335,1.667,60.243,4.488,71.659,5.027l189.618,1.631
					l61.764,2.06h40.342l26.203,5.113h0.16c0.086-0.012,8.987-0.589,17.252-0.589c5.592,0,9.577,0.246,11.833,0.76
					c7.247,1.606,42.095,10.925,42.451,11.023l0.159,0.049l32.04-0.429h38.515c0.466-0.024,47.638-3.482,69.439-4.279
					c21.826-0.81,55.276-3.041,55.534-3.065c29.76,0,64.792,7.651,65.136,7.737L981.724-46.114z"/>
				<path fill="#F7AA63" d="M974.686-88.185l11.906,36.516l-5.248,2.968c-4.255-0.908-37.031-7.701-65.271-7.701
					c0,0-0.012,0-0.024,0c-0.331,0-33.745,2.256-55.546,3.053c-21.839,0.822-69.047,4.267-69.439,4.304h-38.429l-31.722,0.405
					c-2.612-0.699-35.352-9.441-42.39-10.999c-2.428-0.54-6.585-0.821-12.36-0.821c-7.725,0-16.014,0.502-17.252,0.576
					l-26.118-5.101h-40.55l-61.751-2.047l-189.594-1.631c-26.878-1.288-67.882-3.642-70.629-4.77
					c-0.404-0.208-0.883-0.307-1.435-0.307c-4.524,0-15.953,7.578-18.307,9.172l-32.273,0.81L159.28-65.39l-89.009-8.167
					l-10.018-2.501L43.834-71.95l-23.518-3.249L2.229-76.854l-20.563,1.594l-3.911-7.32
					c9.588-10.202,130.05-137.726,184.309-153.225c51.77-14.788,89.071-15.56,96.023-15.56h0.92l155.211-7.357h92.001l111.547-3.678
					h57.569l65.736,3.261c0.797,0.086,80.855,9.233,108.04,33.218c26.792,23.641,63.896,52.076,66.178,53.817l30.912,36.712
					L974.686-88.185z"/>
				<path d="M913.327-30.799l-0.05,1.422c-0.466,12.715-0.809,25.48-1.091,38.257l-0.49,0.171v0.012l0.453,1.3v0.012
					c-1.545,71.708-0.563,144.2,0.417,214.682c0.233,17.191,0.466,34.321,0.675,51.439l-2.452-0.037
					c-0.209-17.118-0.441-34.371-0.675-51.562c-1.152-83.013-2.33-168.491,0.649-253.098c-0.073,0-0.146,0-0.221,0h-0.392
					l-4.562,0.221l0.159,0.135c-5.959-0.024-11.955,0-17.902,0.024c0.049-0.785,0.086-1.569,0.135-2.354l-1.618-0.098
					c7.848-0.025,15.806-0.037,23.652-0.013c0.589-0.233,1.178-0.282,1.681-0.343L913.327-30.799z"/>
				<path d="M911.696,9.064l0.49-0.184c-0.013,0.515-0.024,0.98-0.037,1.483L911.696,9.064z"/>
				<path d="M887.981-30.174c-0.049,0.785-0.086,1.57-0.135,2.354c-0.81,0.012-1.631,0.012-2.452,0.012
					c0.049-0.809,0.086-1.631,0.135-2.464c0.27,0,0.539,0,0.821,0h0.013L887.981-30.174z"/>
				<path d="M885.395-27.807c0.821,0,1.643,0,2.452-0.012c-1.975,37.117-3.924,75.055-5.824,111.768
					c-1.264,24.523-2.538,49.378-3.851,74.332l-1.165-0.061v-0.037l0.037-2.403v-0.098l-1.178-0.123
					c0.025-0.515,0.05-1.018,0.074-1.533c0.122-2.33,0.245-4.598,0.367-6.891c0.147-2.771,0.295-5.579,0.442-8.546
					c0.049-0.981,0.098-1.987,0.146-3.017c0.049-0.92,0.099-1.827,0.147-2.734h0.037l-0.013-0.294v-0.11h0.013l-0.013-0.098
					c0.846-16.333,1.68-32.396,2.514-48.508C881.471,47.15,883.42,9.273,885.395-27.807z"/>
				<path d="M886.351-30.271c-0.282,0-0.552,0-0.821,0c0,0,0-0.025,0-0.037L886.351-30.271z"/>
				<path d="M885.529-30.271c-0.049,0.833-0.086,1.655-0.135,2.464c-2.306,0.012-4.611,0.024-6.892,0.037
					c-54.026,0.245-109.879,0.515-162.851-12.704c-17.007-1.631-34.787-2.17-51.966-2.71c-8.693-0.27-17.682-0.54-26.363-0.957
					c-45.908-1.618-96.624-3.359-150.711-4.99c-5.739-0.172-11.526-0.343-17.351-0.515c-49.378-1.447-101.369-2.808-154.941-3.936
					l-1.324-2.501c0.012,0,0.037,0,0.049,0c119.824,2.538,231.848,6.205,324.389,9.479c8.669,0.429,17.645,0.699,26.326,0.969
					c17.253,0.527,35.094,1.091,52.212,2.722l0.184,0.037C768.845-29.72,824.587-29.965,878.49-30.223
					C880.82-30.235,883.175-30.247,885.529-30.271z"/>
				<path fill="#F4DFD0" d="M885.395-27.807c-1.975,37.08-3.924,74.957-5.813,111.633c-0.834,16.112-1.668,32.175-2.514,48.508
					l0.013,0.098h-0.013l-0.11-2.048l-69.427,3.299l-12.643,20.771l-174.278-2.796l-98.524-1.582l-1.631-18.969l-9.969-11.453
					l-29.232-3.936l7.762-163.071l-2.452-0.11l0.049-1.667c54.087,1.631,104.803,3.372,150.711,4.99
					c8.682,0.417,17.67,0.687,26.363,0.957c17.179,0.54,34.959,1.079,51.966,2.71c52.972,13.218,108.824,12.949,162.851,12.704
					C880.783-27.783,883.089-27.795,885.395-27.807z"/>
				<path d="M877.007,158.219l1.165,0.061c-0.552,10.742-1.116,21.495-1.692,32.249l-1.177-0.062l0.037-2.464h-0.037l-1.152-0.013
					c0.539-9.932,1.054-19.876,1.581-29.784L877.007,158.219z"/>
				<path d="M877.068,132.542l0.013,0.294h-0.037C877.056,132.738,877.056,132.64,877.068,132.542z"/>
				<path d="M877.068,132.432v0.11c-0.013,0.098-0.013,0.196-0.024,0.294h-0.024c0.012-0.135,0.012-0.27,0.024-0.405H877.068z"/>
				<path d="M876.958,130.384l0.11,2.048h-0.024c-0.013,0.135-0.013,0.27-0.024,0.405l-68.078,3.237l-11.208,18.429l-2.845-0.049
					l12.643-20.771L876.958,130.384z"/>
				<path d="M877.044,132.836c-0.049,0.907-0.099,1.814-0.147,2.734c0.037-0.895,0.086-1.803,0.123-2.734H877.044z"/>
				<path d="M877.044,155.778l-0.037,2.403h-1.275c0.037-0.797,0.086-1.619,0.123-2.428L877.044,155.778z"/>
				<path fill="#999999" d="M808.941,136.074l68.078-3.237c-0.037,0.932-0.086,1.839-0.123,2.734
					c-0.049,1.03-0.098,2.036-0.146,3.017c-0.147,2.845-0.295,5.702-0.442,8.546c-0.122,2.293-0.245,4.562-0.367,6.891
					c-0.024,0.503-0.062,1.018-0.086,1.533h0.012c0,0.062-0.012,0.135-0.012,0.196l-78.121-1.251L808.941,136.074z"/>
				<path d="M877.007,158.182v0.037l-1.275-0.013c0-0.012,0-0.012,0-0.024H877.007z"/>
				<path d="M875.303,190.467l1.177,0.062c-1.446,27.233-2.931,54.455-4.463,81.382l-2.452-0.135
					c1.029-18.013,2.022-36.161,3.016-54.345c0.761,0.025,1.202,0.025,1.251,0.025l0.073-2.44c-0.171,0-0.588-0.012-1.188-0.037
					c0.441-8.167,0.87-16.345,1.312-24.536L875.303,190.467z"/>
				<path d="M875.94,154.025c-0.024,0.515-0.049,1.018-0.074,1.533h-0.012C875.879,155.042,875.916,154.528,875.94,154.025z"/>
				<path d="M875.854,155.754c-0.037,0.809-0.086,1.631-0.123,2.428c0,0.012,0,0.012,0,0.024l-79.126-1.263l0.013-0.613l1.115-1.827
					L875.854,155.754z"/>
				<path fill="#999999" d="M875.731,158.206c-0.527,9.908-1.042,19.852-1.581,29.784v0.013l-92.971-1.827
					c3.201-13.979,1.079-25.382,0.062-29.478l15.364,0.245L875.731,158.206z"/>
				<path d="M875.34,188.003l-0.037,2.464l-1.275-0.024c0.037-0.809,0.086-1.631,0.123-2.44h1.152H875.34z"/>
				<path d="M874.15,188.003c-0.037,0.809-0.086,1.631-0.123,2.44l-93.228-1.815l0.024-0.956c0.123-0.503,0.245-0.994,0.355-1.496
					L874.15,188.003z"/>
				<path fill="#999999" d="M874.027,190.443c-0.441,8.191-0.87,16.37-1.312,24.536c-10.276-0.294-78.796-2.06-99.936,3.323
					c-4.365,1.116-18.552,1.656-38.526,1.815c-36.173,0.294-91.314-0.687-141.441-1.852h1.655v-10.116l-7.357-13.488v-9.822
					l33.463,0.65l160.227,3.139L874.027,190.443z"/>
				<path d="M873.904,215.016l-0.073,2.44c-0.049,0-0.49,0-1.251-0.025c0.037-0.809,0.086-1.631,0.136-2.452
					C873.316,215.003,873.733,215.016,873.904,215.016z"/>
				<path d="M872.716,214.979c-0.05,0.821-0.099,1.643-0.136,2.452c-10.115-0.282-78.685-1.974-99.198,3.25
					c-4.341,1.104-17.829,1.68-36.823,1.876l0.136-0.981l-2.429-0.343l-0.012-1.116c19.975-0.159,34.161-0.699,38.526-1.815
					C793.92,212.919,862.439,214.685,872.716,214.979z"/>
				<polygon points="797.733,154.503 796.618,156.33 794.521,155.055 794.889,154.454 				"/>
				<path d="M796.618,156.33l-0.013,0.613l-15.364-0.245c-0.232-0.957-0.404-1.521-0.441-1.631l-2.329,0.748
					c0,0,0.085,0.306,0.232,0.833l-157.749-2.538c-0.196-0.895-0.332-1.447-0.356-1.557l0.013-0.896l174.278,2.796l-0.367,0.601
					L796.618,156.33z"/>
				<path d="M781.241,156.698c1.018,4.095,3.14,15.499-0.062,29.478l-2.514-0.049c3.422-14.432,0.858-26.302,0.037-29.478
					L781.241,156.698z"/>
				<path d="M781.241,156.698l-2.538-0.049c-0.147-0.527-0.232-0.833-0.232-0.833l2.329-0.748
					C780.837,155.178,781.009,155.742,781.241,156.698z"/>
				<path d="M781.18,186.176c-0.11,0.502-0.232,0.993-0.355,1.496l-2.379-0.601c0.074-0.319,0.147-0.625,0.221-0.944L781.18,186.176
					z"/>
				<path d="M780.824,187.672l-0.024,0.956l-160.227-3.139l0.024-0.944c0.135-0.503,0.258-1.018,0.368-1.496l157.7,3.078
					c-0.073,0.319-0.146,0.625-0.221,0.944L780.824,187.672z"/>
				<path fill="#999999" d="M778.703,156.649c0.821,3.176,3.385,15.045-0.037,29.478l-157.7-3.078
					c2.894-12.568,0.871-24.72-0.012-28.938L778.703,156.649z"/>
				<path d="M736.694,221.576l-0.136,0.981c-0.821,0-1.643,0.012-2.477,0.025l0.184-1.349L736.694,221.576z"/>
				<path d="M736.559,222.557l-4.855,34.604l-2.428-0.331l4.807-34.248C734.916,222.569,735.737,222.557,736.559,222.557z"/>
				<path d="M734.254,220.117l0.012,1.116l-0.184,1.349c-4.635,0.037-9.576,0.049-14.764,0.049
					c-39.863,0-94.723-1.091-142.373-2.269l-2.501-2.244l0.012-0.307c5.751,0.147,11.625,0.294,17.56,0.429v0.024h0.797
					C642.939,219.43,698.081,220.411,734.254,220.117z"/>
				<path d="M620.954,154.111c0.883,4.218,2.905,16.37,0.012,28.938L618.452,183c3.065-12.74,0.724-25.493-0.024-28.926
					L620.954,154.111z"/>
				<path d="M618.452,183l2.514,0.049c-0.11,0.479-0.233,0.993-0.368,1.496l-2.379-0.613
					C618.305,183.613,618.379,183.307,618.452,183z"/>
				<path d="M620.954,154.111l-2.526-0.037c-0.123-0.564-0.196-0.883-0.209-0.896l2.379-0.625
					C620.622,152.664,620.758,153.216,620.954,154.111z"/>
				<path d="M620.61,151.658l-0.013,0.896l-2.379,0.625c0.013,0.012,0.086,0.331,0.209,0.896l-138.891-2.232l0.11-2.465
					l39.974,0.663l0.049,0.662l2.453-0.221l-0.037-0.405L620.61,151.658z"/>
				<path d="M620.598,184.545l-0.024,0.944l-33.463-0.65v-0.908h-2.452v0.858l-106.323-2.084l0.049-2.452L618.452,183
					c-0.073,0.307-0.147,0.613-0.233,0.932L620.598,184.545z"/>
				<path fill="#999999" d="M618.428,154.074c0.748,3.433,3.09,16.186,0.024,28.926l-140.068-2.747l-0.208-0.013l1.361-28.398
					L618.428,154.074z"/>
				<path d="M594.468,208.149v10.116h-1.655c-0.27,0-0.527-0.012-0.797-0.024v-9.479l-7.357-13.488V184.79l2.452,0.049v9.822
					L594.468,208.149z"/>
				<path d="M592.813,218.265h-0.797v-0.024C592.285,218.253,592.543,218.265,592.813,218.265z"/>
				<path fill="#999999" d="M592.016,208.762v9.479c-5.935-0.135-11.809-0.282-17.56-0.429c-49.317-1.226-90.346-2.501-97.936-2.759
					l1.655-34.812l0.208,0.013l-0.049,2.452l106.323,2.084v10.484L592.016,208.762z"/>
				<polygon points="587.11,183.932 587.11,184.839 584.658,184.79 584.658,183.932 				"/>
				<path d="M582.206,225.07v13.022l-3.752,10.41l-2.306-0.833l3.605-9.994v-11.501l-6.598-5.911
					c1.251,0.037,2.514,0.062,3.789,0.098L582.206,225.07z"/>
				<path d="M576.945,220.362c-1.275-0.037-2.538-0.061-3.789-0.098l-0.355-0.319l1.644-1.827L576.945,220.362z"/>
				<path d="M574.456,217.812l-0.012,0.307l-1.644,1.827l0.355,0.319c-48.287-1.214-88.433-2.489-96.746-2.759l0.11-2.452
					C484.11,215.31,525.139,216.585,574.456,217.812z"/>
				<polygon points="522.086,150.077 522.123,150.481 519.67,150.702 519.621,150.04 				"/>
				<polygon points="520.455,131.107 522.086,150.077 519.621,150.04 518.076,132.113 509.235,121.96 481.131,118.171 
					481.254,115.719 510.486,119.655 				"/>
				<polygon fill="#999999" points="518.076,132.113 519.621,150.04 479.647,149.377 481.131,118.171 509.235,121.96 				"/>
				<polygon points="489.016,-47.353 481.254,115.719 481.009,115.669 480.689,118.11 481.131,118.171 479.647,149.377 
					478.384,149.377 477.195,149.316 486.563,-47.463 				"/>
				<polygon points="481.254,115.719 481.131,118.171 480.689,118.11 481.009,115.669 				"/>
				<polygon points="479.647,149.377 479.537,151.842 478.348,151.83 478.384,149.377 				"/>
				<path d="M479.537,151.842l-1.361,28.398l-1.655,34.812c-0.711-0.013-1.141-0.025-1.238-0.037l-0.086,2.44
					c0.27,0.024,0.674,0.037,1.214,0.049l-1.275,26.866l-2.452-0.11l4.512-94.944l1.189,0.061l-0.037,2.453L479.537,151.842z"/>
				<path d="M476.521,215.053l-0.11,2.452c-0.54-0.012-0.944-0.024-1.214-0.049l0.086-2.44
					C475.38,215.028,475.809,215.04,476.521,215.053z"/>
				<polygon points="471.64,-47.353 458.888,182.73 458.36,182.706 458.36,180.253 456.583,180.253 468.268,-30.652 
					469.396,-30.652 469.396,-33.116 468.403,-33.116 469.2,-47.487 				"/>
				<polygon points="469.396,-33.116 469.396,-30.652 468.268,-30.652 468.403,-33.116 				"/>
				<path fill="#603813" d="M469.261-49.646l-0.061,2.158l-0.797,14.371h-143.06L314.32-53.582
					C367.892-52.454,419.883-51.092,469.261-49.646z"/>
				<polygon points="468.403,-33.116 468.268,-30.652 325.552,-30.652 325.625,-32.233 325.638,-32.564 325.343,-33.116 				"/>
				<path fill="#F4DFD0" d="M468.268-30.652l-11.686,210.905h-85.282V150.15c6.487-0.883,11.208-2.208,12.949-4.096
					c0.957-1.042,1.03-2.072,0.932-2.759c-1.668-11.71-6.671-16.836-6.879-17.044l-0.221-0.221l-59.054-17.792l6.523-138.891
					H468.268z"/>
				<polygon points="458.888,182.73 455.491,244.125 453.051,243.991 453.995,226.849 454.682,226.849 454.682,224.396 
					454.13,224.396 456.448,182.706 458.36,182.706 				"/>
				<polygon points="458.36,180.253 458.36,182.706 456.448,182.706 456.583,180.253 				"/>
				<polygon points="456.583,180.253 456.448,182.706 371.301,182.706 371.301,180.253 				"/>
				<polygon points="454.682,224.396 454.682,226.849 453.995,226.849 454.13,224.396 				"/>
				<polygon points="454.13,224.396 453.995,226.849 371.301,226.849 371.301,224.396 				"/>
				<path d="M385.182,143.296c0.098,0.687,0.024,1.716-0.932,2.759c-1.741,1.888-6.462,3.212-12.949,4.096v-1.778h-2.452
					l-0.037-0.331c7.112-0.785,12.078-1.974,13.635-3.666c0.355-0.368,0.318-0.625,0.306-0.736
					c-1.361-9.564-5.113-14.408-6.008-15.45l-59.164-17.829h1.349l0.098-2.122l59.054,17.792l0.221,0.221
					C378.511,126.46,383.514,131.585,385.182,143.296z"/>
				<polygon points="371.301,226.849 371.301,245.241 368.849,245.241 368.849,182.706 370.075,182.706 371.301,182.706 
					371.301,224.396 370.075,224.396 370.075,226.849 				"/>
				<rect x="370.075" y="224.396" width="1.226" height="2.453"/>
				<rect x="370.075" y="180.253" width="1.226" height="2.452"/>
				<path d="M371.301,150.15v30.103h-1.226v2.452h-1.226v-32.237C369.695,150.371,370.504,150.261,371.301,150.15z"/>
				<path d="M371.301,148.372v1.778c-0.797,0.11-1.606,0.221-2.452,0.318v-2.097H371.301z"/>
				<path d="M368.849,148.372v2.097c-9.013,1.042-20.759,1.398-32.556,1.398c-20.502,0-41.102-1.066-47.539-1.422l0.147-2.452
					c25.517,1.459,60.611,2.207,79.911,0.049L368.849,148.372z"/>
				<polygon points="325.343,-33.116 325.638,-32.564 325.625,-32.233 325.552,-30.652 324.706,-30.652 324.706,-33.116 				"/>
				<path d="M325.552-30.652l-6.523,138.891l-0.919-0.282l-0.711,2.354l0.184,0.049H291.12l0.147-2.453h25.321l6.572-139.92
					l-11.649-21.63c0.932,0.012,1.876,0.025,2.808,0.062l11.023,20.465h-0.638v2.464H325.552z"/>
				<path fill="#603813" d="M311.512-53.643l11.649,21.63l-6.572,139.92h-25.321l9.576-161.771
					C304.412-53.79,307.968-53.716,311.512-53.643z"/>
				<polygon points="319.028,108.239 318.93,110.36 317.582,110.36 317.397,110.311 318.109,107.957 				"/>
				<path d="M312.996-56.083l1.324,2.501c-0.932-0.037-1.876-0.049-2.808-0.062l-1.177-2.183l0.54-0.282h0.013
					c0.061,0,0.135,0,0.196,0C311.72-56.095,312.358-56.083,312.996-56.083z"/>
				<path d="M312.517-56.929l0.479,0.846c-0.638,0-1.275-0.012-1.913-0.024L312.517-56.929z"/>
				<path d="M312.493-56.978l0.024,0.049l-1.435,0.822c-0.061,0-0.135,0-0.196,0L312.493-56.978z"/>
				<path d="M310.334-55.826l1.177,2.183c-3.543-0.073-7.1-0.147-10.668-0.221l0.147-2.452c0.466,0.012,0.932,0.024,1.398,0.024
					c1.189,0.037,2.366,0.062,3.543,0.074c1.3,0.037,2.6,0.061,3.887,0.086c0.355,0.012,0.699,0.012,1.054,0.024L310.334-55.826z"/>
				<path d="M301.408-56.328v0.012c-0.307,0-0.564-0.012-0.797-0.012c-0.208,0-0.417,0-0.638-0.012
					c-0.38-0.013-0.711-0.025-1.116-0.025l-0.098-0.11L301.408-56.328z"/>
				<path d="M300.991-56.316l-0.147,2.452c-0.809-0.012-1.63-0.037-2.452-0.061l0.147-2.44c0.479,0.012,0.957,0.025,1.435,0.025
					c0.221,0.012,0.429,0.012,0.638,0.012C300.746-56.316,300.869-56.316,300.991-56.316z"/>
				<path d="M300.844-53.864l-9.576,161.771h-0.896v2.453h0.748l-2.219,37.632c-0.417-0.024-0.822-0.049-1.226-0.074l-1.227-0.074
					l11.943-201.77C299.213-53.9,300.035-53.876,300.844-53.864z"/>
				<path d="M298.539-56.365l-0.147,2.44c-8.117-0.147-16.284-0.307-24.475-0.466v-0.024l0.098-1.938l-2.44-0.11l0.012-0.417
					C280.612-56.721,289.6-56.549,298.539-56.365z"/>
				<polygon points="291.268,107.908 291.12,110.36 290.372,110.36 290.372,107.908 				"/>
				<path d="M288.901,147.992l-0.147,2.452c-0.491-0.024-0.908-0.049-1.227-0.073l0.147-2.453
					C288.079,147.943,288.484,147.968,288.901,147.992z"/>
				<path d="M288.754,150.444l-5.702,96.317l-2.452-0.147l5.849-98.77l1.227,0.074l-0.147,2.453
					C287.846,150.396,288.263,150.42,288.754,150.444z"/>
				<path d="M274.015-56.353l-0.098,1.938c-0.81-0.012-1.619-0.135-2.44-0.147l0.098-1.901L274.015-56.353z"/>
				<path d="M273.917-54.416v0.024c-0.81-0.012-1.631-0.024-2.453-0.037l0.012-0.135C272.298-54.55,273.107-54.428,273.917-54.416z"
					/>
				<path d="M273.917-54.391l-7.885,153.777l-1.41-0.073v-2.44h-0.907l7.75-151.3C272.286-54.416,273.107-54.403,273.917-54.391z"/>
				<path d="M271.587-56.88l-0.012,0.417l-0.098,1.901h-0.012l-0.012,0.135c-49.698-0.919-100.462-1.606-151.533-1.974
					c-2.367,0-4.819,0.307-7.198,0.601c-2.416,0.306-4.917,0.601-7.418,0.625c-13.685,1.999-19.999,14.604-26.105,26.792
					c-1.214,2.416-2.354,4.696-3.556,6.903c-1.692,3.372-4.598,5.408-8.191,5.886c-0.086-0.552-0.16-1.104-0.245-1.655
					c0-0.037-0.013-0.074-0.013-0.11l-0.38,0.037l-0.074-0.674c2.379-0.221,5.064-1.312,6.732-4.623
					c1.202-2.208,2.33-4.463,3.531-6.867c6.106-12.176,13.022-25.983,28.043-28.141h0.172c2.379,0,4.831-0.307,7.21-0.601
					c2.44-0.307,4.979-0.625,7.504-0.625c29.563,0.208,59.041,0.527,88.261,0.944C229.479-57.616,250.631-57.272,271.587-56.88z"/>
				
					<rect x="271.397" y="-54.501" transform="matrix(0.0902 -0.9959 0.9959 0.0902 301.2484 220.7784)" width="0.135" height="0.012"/>
				
					<rect x="191.834" y="21.216" transform="matrix(0.0512 -0.9987 0.9987 0.0512 232.7015 287.3698)" width="151.498" height="0.012"/>
				<path fill="#F4DFD0" d="M271.452-54.428l-7.75,151.3l-0.012,0.233L67.095,97.228c0-0.123,0-0.233,0-0.355
					c-0.013-8.706-0.049-17.338-0.074-25.885C66.936,44.514,66.837,17.219,67.12-9.77h0.147c-0.024-0.797-0.037-1.606-0.049-2.416
					h0.123c0-0.306,0-0.613,0-0.919l0.466-0.074c-0.11-0.809-0.233-1.619-0.355-2.416c3.593-0.478,6.499-2.514,8.191-5.886
					c1.202-2.207,2.342-4.488,3.556-6.903c6.106-12.188,12.421-24.793,26.105-26.792c2.501-0.024,5.003-0.319,7.418-0.625
					c2.379-0.294,4.831-0.601,7.198-0.601C170.99-56.034,221.754-55.347,271.452-54.428z"/>
				<polygon points="266.032,99.386 258.43,247.645 255.99,247.461 263.568,99.558 263.58,99.558 263.592,99.313 264.622,99.313 
									"/>
				<polygon points="264.622,96.872 264.622,99.313 263.592,99.313 263.703,97.105 263.715,96.872 				"/>
				
					<rect x="263.586" y="96.982" transform="matrix(0.0523 -0.9986 0.9986 0.0523 153.0451 355.2534)" width="0.233" height="0.012"/>
				
					<rect x="262.536" y="98.203" transform="matrix(0.0499 -0.9988 0.9988 0.0499 152.3924 356.6181)" width="2.21" height="0.012"/>
				<path d="M263.69,97.105l-0.11,2.208l-0.012,0.245L67.107,99.68c0-0.123,0-0.245,0-0.368c0,0-0.012-0.062,0-0.16
					c-0.012-0.638-0.012-1.275-0.012-1.925L263.69,97.105z"/>
				
					<rect x="263.457" y="99.429" transform="matrix(0.0497 -0.9988 0.9988 0.0497 151.1578 357.7431)" width="0.245" height="0.012"/>
				<path fill="#9E6332" d="M208.242-61.307l-0.049,3.396c-29.22-0.417-58.698-0.736-88.261-0.944c-2.526,0-5.064,0.318-7.504,0.625
					c-2.379,0.294-4.831,0.601-7.21,0.601h-0.172C90.025-55.47,83.109-41.663,77.002-29.487c-1.202,2.403-2.33,4.659-3.531,6.867
					c-1.667,3.311-4.353,4.402-6.732,4.623c-1.643,0.16-3.126-0.11-4.046-0.331c-8.718-2.906-15.867-6.572-23.433-10.447
					c-1.913-0.981-3.85-1.974-5.836-2.967l-0.16-0.074c-1.287-0.429-2.563-0.711-3.801-0.981c-2.416-0.54-4.684-1.042-6.879-2.501
					c-4.647-3.617-8.915-7.516-13.035-11.256C3.836-51.767-1.56-56.684-7.875-60.926c-0.919-1.656-2.293-2.784-3.74-3.973
					c-0.809-0.662-1.643-1.349-2.465-2.183c-1.704-1.704-3.114-3.666-4.414-5.714l20.698-1.582l17.829,1.619l23.936,3.298
					l16.284-4.083l9.515,2.379l89.365,8.228L208.242-61.307z"/>
				<path d="M67.451-15.594c0.123,0.797,0.245,1.606,0.355,2.416l-0.466,0.074c0-0.012,0-0.024,0-0.037
					c-0.012-0.81-0.024-1.631-0.062-2.44C67.34-15.582,67.389-15.594,67.451-15.594z"/>
				<path d="M67.206-17.25c0.085,0.552,0.159,1.104,0.245,1.655c-0.062,0-0.11,0.012-0.172,0.012
					C67.254-16.134,67.242-16.698,67.206-17.25z"/>
				<path d="M67.34-13.105c0,0.307,0,0.613,0,0.919h-0.123c0-0.024,0-0.049,0-0.073c0,0-0.012-0.515-0.025-0.834L67.34-13.105z"/>
				<path d="M67.279-15.582c0.037,0.81,0.049,1.631,0.062,2.44h-0.147c0,0.012,0,0.037,0,0.049c0.013,0.319,0.025,0.834,0.025,0.834
					h-0.074c0,0.024,0,0.049,0,0.073c-0.012,1.141-0.012,1.582-0.024,2.342l-2.305-0.074c-0.074-1.876-0.074-3.764-0.062-5.628
					C65.624-15.472,66.47-15.484,67.279-15.582z"/>
				<path d="M67.279-15.582c-0.809,0.098-1.655,0.11-2.526,0.037c0-0.123,0-0.258,0-0.393c0-0.159,0-0.319,0-0.478
					c0-0.221,0-0.454,0-0.675l1.104-0.123l1.349-0.037C67.242-16.698,67.254-16.134,67.279-15.582z"/>
				<path d="M67.218-12.186c0.012,0.81,0.024,1.619,0.049,2.416H67.12c0-0.013,0-0.013,0-0.025s0-0.037,0-0.049
					c0.012-0.76,0.012-1.202,0.024-2.342H67.218z"/>
				<path d="M67.193-17.36c0,0.037,0.013,0.074,0.013,0.11l-1.349,0.037l0.957-0.11L67.193-17.36z"/>
				<path d="M67.12-9.843c0,0.012,0,0.037,0,0.049l-2.305,0.123c0-0.085,0-0.159,0-0.245L67.12-9.843z"/>
				<path d="M67.12-9.77c-0.282,26.988-0.184,54.283-0.098,80.757c0.024,8.546,0.061,17.179,0.074,25.885h-1.116v2.44h1.128
					c0,0.123,0,0.245,0,0.368c0.024,18.283,0,36.111-0.208,53.989c-0.466,41.96-1.815,76.686-4.218,108.874
					c0,0,1.3-66.889,1.766-108.813c0.307-27.614,0.221-55.779,0.123-82.939c-0.098-28.239-0.196-57.042,0.172-86.336
					c0,0,0,0,0.012,0c-0.012,1.864-0.012,3.752,0.062,5.628c0,0.086,0,0.16,0,0.245l2.305-0.123C67.12-9.782,67.12-9.782,67.12-9.77
					z"/>
				<path d="M67.095,97.228c0,0.834,0,1.606,0.012,1.925c-0.012,0.098,0,0.16,0,0.16h-1.128v-2.44h1.116
					C67.095,96.995,67.095,97.105,67.095,97.228z"/>
				<path d="M66.739-17.998l0.074,0.674l-0.957,0.11l-1.104,0.037c0,0.024,0,0.061,0,0.085c0,0.221,0,0.454,0,0.675
					c-0.012,0.159-0.012,0.319-0.012,0.478c0,0.123,0,0.257,0,0.393c-0.895-0.062-1.803-0.196-2.734-0.441
					c-8.988-2.98-16.21-6.683-23.874-10.607c-1.876-0.969-3.777-1.95-5.726-2.918c-1.141-0.38-2.281-0.625-3.482-0.896
					c-2.514-0.564-5.125-1.14-7.762-2.906c-4.807-3.728-9.099-7.651-13.268-11.44C2.18-49.952-3.227-54.894-9.493-59.063
					l-0.282-0.196l-0.135-0.27c-0.687-1.361-1.827-2.293-3.262-3.482c-0.822-0.662-1.729-1.422-2.649-2.33
					c-2.918-2.918-5.088-6.584-7.014-9.81c-0.588-0.993-1.165-1.962-1.729-2.869l1.472-0.932l3.348,6.242l1.25-0.086
					c1.3,2.048,2.71,4.01,4.414,5.714c0.822,0.834,1.656,1.521,2.465,2.183c1.447,1.189,2.82,2.317,3.74,3.973
					c6.315,4.242,11.71,9.16,17.424,14.371c4.12,3.74,8.387,7.639,13.035,11.256c2.195,1.459,4.463,1.962,6.879,2.501
					c1.238,0.27,2.514,0.552,3.801,0.981l0.16,0.074c1.986,0.993,3.924,1.986,5.836,2.967c7.566,3.875,14.714,7.541,23.433,10.447
					C63.613-18.108,65.096-17.838,66.739-17.998z"/>
				<path d="M65.856-17.213l-1.104,0.123c0-0.024,0-0.061,0-0.085L65.856-17.213z"/>
				<path d="M64.753-15.938c0,0.135,0,0.27,0,0.393c-0.012,0-0.012,0-0.012,0c0-0.135,0-0.27,0-0.393
					C64.741-15.938,64.741-15.938,64.753-15.938z"/>
				<path d="M64.753-16.416c0,0.159,0,0.319,0,0.478c-0.012,0-0.012,0-0.012,0C64.741-16.097,64.741-16.256,64.753-16.416z"/>
				<path d="M-19.621-74.599c0.368,0.601,0.735,1.214,1.128,1.803l-1.25,0.086l-3.348-6.242l0.601-0.38
					c0.577,0.932,1.165,1.913,1.766,2.918C-20.357-75.813-20.001-75.199-19.621-74.599z"/>
			</g>
			<g>
			</g>
		</g>
		
			<line fill="none" stroke="#000000" stroke-width="2" stroke-miterlimit="10" x1="954.147" y1="-67.096" x2="963.138" y2="-49.571"/>
		<path fill="none" stroke="#000000" stroke-width="2" stroke-miterlimit="10" d="M520.868-259.209c0,0-6.521,189.668-7.339,192.113
			"/>
		<path fill="none" stroke="#000000" stroke-width="2" stroke-miterlimit="10" d="M663.948-262.405
			c0,0,53.11,101.366,88.683,213.358"/>
		<path fill="none" stroke="#000000" stroke-width="2" stroke-miterlimit="10" d="M146.301-229.26c0,0,619.727-9.318,714.604,13.51"
			/>
		
			<line fill="none" stroke="#000000" stroke-width="2" stroke-miterlimit="10" x1="96.323" y1="-194.744" x2="917.074" y2="-173.788"/>
		<path fill="none" stroke="#000000" stroke-width="2" stroke-miterlimit="10" d="M51.333-155.523c0,0,837.175,8.203,904.737,36.494
			"/>
		<line fill="none" stroke="#000000" stroke-width="2" stroke-miterlimit="10" x1="51.333" y1="-123.436" x2="2.225" y2="-76.845"/>
		<line fill="none" stroke="#000000" stroke-width="2" stroke-miterlimit="10" x1="64.749" y1="-100.14" x2="43.83" y2="-71.953"/>
		
			<line fill="none" stroke="#000000" stroke-width="2" stroke-miterlimit="10" x1="108.073" y1="-105.453" x2="79.624" y2="-72.701"/>
		
			<line fill="none" stroke="#000000" stroke-width="2" stroke-miterlimit="10" x1="136.984" y1="-105.453" x2="112.107" y2="-69.721"/>
		
			<line fill="none" stroke="#000000" stroke-width="2" stroke-miterlimit="10" x1="165.395" y1="-114.445" x2="140.717" y2="-67.096"/>
		
			<line fill="none" stroke="#000000" stroke-width="2" stroke-miterlimit="10" x1="319.024" y1="-114.445" x2="288.75" y2="-69.721"/>
		
			<line fill="none" stroke="#000000" stroke-width="2" stroke-miterlimit="10" x1="330.422" y1="-92.082" x2="323.157" y2="-69.721"/>
		<path fill="none" stroke="#000000" stroke-width="2" stroke-miterlimit="10" d="M434.24-105.453c0,0-16.355,35.082-10.627,37.583"
			/>
		<path fill="none" stroke="#000000" stroke-width="2" stroke-miterlimit="10" d="M447.319-86.046c0,0-7.383,15.527-4.087,18.177"/>
		
			<line fill="none" stroke="#000000" stroke-width="2" stroke-miterlimit="10" x1="468.264" y1="-92.082" x2="462.341" y2="-67.096"/>
		
			<line fill="none" stroke="#000000" stroke-width="2" stroke-miterlimit="10" x1="489.012" y1="-92.373" x2="484.051" y2="-67.096"/>
		
			<line fill="none" stroke="#000000" stroke-width="2" stroke-miterlimit="10" x1="577.678" y1="-100.14" x2="576.037" y2="-62.739"/>
		<line fill="none" stroke="#000000" stroke-width="2" stroke-miterlimit="10" x1="596" y1="-87" x2="596" y2="-65"/>
		
			<line fill="none" stroke="#000000" stroke-width="2" stroke-miterlimit="10" x1="622.666" y1="-81.439" x2="620.623" y2="-62.739"/>
		<path fill="none" stroke="#000000" stroke-width="2" stroke-miterlimit="10" d="M656.999-103.817c0,0,8.993,31.965,6.949,43.368"
			/>
		<path fill="none" stroke="#000000" stroke-width="2" stroke-miterlimit="10" d="M678.662-76.023c0,0,3.275,12.625,3.068,17.145"/>
		<line fill="none" stroke="#000000" stroke-width="2" stroke-miterlimit="10" x1="696" y1="-67" x2="696" y2="-53"/>
		<path fill="none" stroke="#000000" stroke-width="2" stroke-miterlimit="10" d="M813.544-84.197c0,0,7.438,32.065,6.539,33.863"/>
		<path fill="none" stroke="#000000" stroke-width="2" stroke-miterlimit="10" d="M824.579-79.734c0,0,15.955,21.541,13.495,27.545"
			/>
		
			<line fill="none" stroke="#000000" stroke-width="2" stroke-miterlimit="10" x1="846.65" y1="-90.328" x2="860.498" y2="-53.339"/>
		
			<line fill="none" stroke="#000000" stroke-width="2" stroke-miterlimit="10" x1="857.278" y1="-92.373" x2="884.493" y2="-52.028"/>
		
			<line fill="none" stroke="#000000" stroke-width="2" stroke-miterlimit="10" x1="893.246" y1="-87.059" x2="907.941" y2="-55.891"/>
		<line fill="none" stroke="#000000" stroke-width="2" stroke-miterlimit="10" x1="930.85" y1="-76.023" x2="936.163" y2="-54.77"/>
		
			<line fill="none" stroke="#000000" stroke-width="2" stroke-miterlimit="10" x1="954.147" y1="-67.096" x2="963.138" y2="-49.571"/>
		<path fill="none" stroke="#000000" stroke-width="2" stroke-miterlimit="10" d="M335.825-255.01c0,0-88.125,147.451-87.022,185.29
			"/>
		
			<line fill="none" stroke="#000000" stroke-width="2" stroke-miterlimit="10" x1="218.023" y1="-100.14" x2="208.25" y2="-63.762"/>
		<polyline fill="#42210B" points="273.913,-54.393 298.387,-53.916 283.047,246.76 257.631,248.793 		"/>
		<polyline fill="#42210B" points="468,-50 489.012,-50 472.679,245.674 453.908,246.965 		"/>
		<polyline fill="#42210B" points="869.56,271.773 913.236,276.495 913.273,-29.379 885.39,-27.81 		"/>
		<polyline fill="#42210B" points="68.427,-15.535 66.355,262.541 40.692,263.828 47.508,-23.701 		"/>
	</g>
	<path fill="#C69C6D" stroke="#000000" stroke-width="2" stroke-miterlimit="10" d="M-85.748,277.537
		c0,0,614.748-127.088,1253.748,29.789v258.995l-1275.341,10.359L-85.748,277.537z"/>
</g>
<g id="흥부">
	<g>
		<path fill="#FFFFFF" stroke="#000000" stroke-miterlimit="10" d="M827.162,444.986c0,0,9.061,25.907,23.092,19.449
			c0,0,18.7-7.184-3.198-43.953c0,0-7.392-13.848-24.949-1.844"/>
		<path fill="none" stroke="#8C6239" stroke-width="2" stroke-miterlimit="10" d="M830.02,451.436c0,0,9.491,6.073,8.135-0.093
			c-2.65-12.034-9.311-22.701-13.781-34.145c0,0,9.161-6.08,16.021-2.482c6.856,3.595,9.781,9.008,12.884,17.74
			c3.1,8.731,9.168,18.643-0.759,30.544C852.519,463,841.017,473.759,830.02,451.436z"/>
		
			<line fill="none" stroke="#8C6239" stroke-width="2" stroke-miterlimit="10" x1="855.078" y1="459.419" x2="843.28" y2="417.676"/>
		
			<line fill="none" stroke="#8C6239" stroke-width="2" stroke-miterlimit="10" x1="851.396" y1="464.713" x2="835.598" y2="413.516"/>
		
			<line fill="none" stroke="#8C6239" stroke-width="2" stroke-miterlimit="10" x1="845.781" y1="465.584" x2="828.558" y2="415.074"/>
		
			<line fill="none" stroke="#8C6239" stroke-width="2" stroke-miterlimit="10" x1="839.295" y1="462.741" x2="835.938" y2="454.047"/>
		<line fill="none" stroke="#8C6239" stroke-width="2" stroke-miterlimit="10" x1="826.04" y1="421.23" x2="841.821" y2="416.652"/>
		
			<line fill="none" stroke="#8C6239" stroke-width="2" stroke-miterlimit="10" x1="828.813" y1="427.327" x2="849.064" y2="422.947"/>
		
			<line fill="none" stroke="#8C6239" stroke-width="2" stroke-miterlimit="10" x1="831.755" y1="434.457" x2="853.891" y2="430.67"/>
		
			<line fill="none" stroke="#8C6239" stroke-width="2" stroke-miterlimit="10" x1="837.669" y1="443.358" x2="855.356" y2="439.547"/>
		
			<line fill="none" stroke="#8C6239" stroke-width="2" stroke-miterlimit="10" x1="840.146" y1="452.256" x2="857.38" y2="449.585"/>
	</g>
	<path fill="#4D4D4D" stroke="#000000" stroke-miterlimit="10" d="M754.186,381.65c0,0,14.042,39.74,1.449,58.365
		c0,0,29.679-14.637,47.131-8.802c0,0,14.105,15.077-0.384,26.639c0,0-29.447,22.014-69.834,18.786c0,0-22.386-0.844-35.612-18.958
		c0,0-10.542-14.545-15.887-37.72c0,0-3.617-15.12-2.226-22.081"/>
	<g>
		<path fill="#FFFFFF" stroke="#000000" stroke-miterlimit="10" d="M830.244,447.194c0,0,6.641,24.788,20.579,19.716
			c0,0,18.466-5.43,0.389-41.224c0,0-5.989-13.427-23.742-3.419"/>
		<path fill="none" stroke="#8C6239" stroke-width="2" stroke-miterlimit="10" d="M832.474,453.404c0,0,8.61,6.315,7.796,0.471
			c-1.596-11.409-7.135-21.816-10.515-32.798c0,0,9.245-5.049,15.53-1.225c6.285,3.821,8.657,9.07,10.943,17.427
			c2.282,8.359,7.313,18.016-3.122,28.449C853.106,465.729,841.251,474.983,832.474,453.404z"/>
		<line fill="none" stroke="#8C6239" stroke-width="2" stroke-miterlimit="10" x1="855.837" y1="462.56" x2="847.818" y2="422.81"/>
		
			<line fill="none" stroke="#8C6239" stroke-width="2" stroke-miterlimit="10" x1="851.896" y1="467.251" x2="840.788" y2="418.407"/>
		
			<line fill="none" stroke="#8C6239" stroke-width="2" stroke-miterlimit="10" x1="846.453" y1="467.679" x2="833.927" y2="419.381"/>
		
			<line fill="none" stroke="#8C6239" stroke-width="2" stroke-miterlimit="10" x1="840.465" y1="464.587" x2="837.935" y2="456.246"/>
		
			<line fill="none" stroke="#8C6239" stroke-width="2" stroke-miterlimit="10" x1="831.034" y1="424.952" x2="846.503" y2="421.756"/>
		
			<line fill="none" stroke="#8C6239" stroke-width="2" stroke-miterlimit="10" x1="833.209" y1="430.83" x2="852.941" y2="428.121"/>
		
			<line fill="none" stroke="#8C6239" stroke-width="2" stroke-miterlimit="10" x1="835.468" y1="437.684" x2="856.957" y2="435.653"/>
		
			<line fill="none" stroke="#8C6239" stroke-width="2" stroke-miterlimit="10" x1="840.428" y1="446.39" x2="857.663" y2="444.033"/>
		
			<line fill="none" stroke="#8C6239" stroke-width="2" stroke-miterlimit="10" x1="842.137" y1="455.261" x2="858.845" y2="453.939"/>
	</g>
	<path fill="#4D4D4D" stroke="#000000" stroke-miterlimit="10" d="M779.257,366.198c0,0,14.967,44.391,2.729,64.803
		c0,0,29.48-15.636,47.131-8.801c0,0,14.491,17.02,0.195,29.554c0,0-29.087,23.825-69.709,19.416c0,0-22.494-1.396-36.17-21.769
		c0,0-10.903-16.36-16.776-42.188"/>
	<path fill="#FFBC87" stroke="#000000" stroke-miterlimit="10" d="M615.932,325.797c0,0-2.051-2.85-8.264-3.363
		c-6.212-0.514-12.531,4.074-13.43,4.96c-0.898,0.888-2.208,7.653,0.186,11.934c2.395,4.28,9.295,5.026,12.653,3.98
		c3.359-1.048,9.796-3.745,9.796-3.745"/>
	<path fill="#4D4D4D" stroke="#000000" stroke-miterlimit="10" d="M706.931,292.107c0,0-37.305,25.635-82.962,28.18
		c0,0-9.881,1.13-10.972,11.843c-1.521,15.053,38.06,15.764,47.362,13.848c16.721-3.444,51.659-25.506,56.762-41.412
		C717.129,304.544,721.609,290.56,706.931,292.107z"/>
	<g>
		<g>
			<path fill="#999999" stroke="#000000" stroke-miterlimit="10" d="M665.038,310.563c0,0-10.803,48.348,13.785,87.317
				c0,0,68.479-1.301,103.789-22.256c0,0,0.028-53.155-40.711-76.173"/>
			<path fill="#999999" stroke="#000000" stroke-miterlimit="10" d="M684.67,311.824c0,0,6.671,62.504,16.813,84.619"/>
		</g>
		<path fill="#4D4D4D" stroke="#000000" stroke-miterlimit="10" d="M753.198,347.131c0,0-15.276,12.428-47.579,8.887
			c0,0,1.686,29.602,13.523,29.546c0,0,22.156-0.31,36.098-8.418C755.24,377.146,762.376,368.634,753.198,347.131z"/>
		<path fill="#4D4D4D" stroke="#000000" stroke-miterlimit="10" d="M677.294,361.309c0,0-7.679,2.869-11.951,2.231
			c0,0,0.992,15.914,9.203,26.794c0,0,5.075-1.156,5.83-1.088C681.129,389.313,684.258,377.72,677.294,361.309z"/>
	</g>
	<path fill="#FFBC87" stroke="#000000" stroke-width="2" stroke-miterlimit="10" d="M604.228,203.588
		c0,0-40.574-20.185-17.52,38.693c0,0,0.031,20.577,15.097,17.764l9.023-1.686"/>
	<path fill="#FFBC87" stroke="#000000" stroke-width="2" stroke-miterlimit="10" d="M776.516,185.796
		c0,0,33.91-29.658,27.308,32.996c0,0,5.529,19.88-9.773,20.932l-9.501,0.65"/>
	<path fill="#FFBC87" stroke="#000000" stroke-width="2.134" stroke-miterlimit="10" d="M772.431,180.389
		c4.227,0.249,9.274,34.83,9.698,38.005c9.576,71.968-55.465,102.081-123.229,91.303c-53.42-8.497-53.357-79.43-54.002-119.159
		C604.574,170.502,772.315,180.382,772.431,180.389z"/>
	<path stroke="#000000" stroke-width="2.134" stroke-miterlimit="10" d="M759.489,150.348c0,0-14.557-55.851-84.989-35.276
		c0,0-75.688,8.151-70.592,54.111L759.489,150.348z"/>
	<path fill="#333333" stroke="#000000" stroke-width="2.134" stroke-miterlimit="10" d="M776.051,184.354
		c0,0-82.445-17.875-172.423,15.839l0.28-31.01c0,0,89.268-29.402,157.5-18.549L776.051,184.354z"/>
	<path stroke="#000000" stroke-width="2" stroke-miterlimit="10" d="M674.5,115.072c0,0-0.135-35.633-24.926-26.217
		c0,0-21.964,3.756-4.683,31.096L674.5,115.072z"/>
	<path fill="none" stroke="#000000" stroke-width="3" stroke-miterlimit="10" d="M658.139,202.647c0,0-3.791-1.748-11.833,1.68
		l3.101,1.201c0,0-7.816-1.853-16.398,2.704l4.653,0.846c0,0-12.739-1.012-18.258,3.397l4.548,0.63c0,0-4.41-0.988-13.15,1.98
		l2.129,1.455"/>
	<path fill="none" stroke="#000000" stroke-width="3" stroke-miterlimit="10" d="M682.771,198.231c0,0,3.304-2.923,13.47-2.429
		l-2.807,2.175c0,0,7.59-4.382,18.833-3.012l-4.629,2.368c0,0,13.253-5.259,21.137-2.99l-4.614,2.129c0,0,4.307-2.419,15.018-2.592
		l-1.647,2.085"/>
	<g>
		<path fill="#FDFEFF" stroke="#000000" stroke-miterlimit="10" d="M630.143,225.992c-0.997,2.427-1.086,5.207-0.012,7.825
			c0.822,2.009,2.213,3.637,3.916,4.784c-8.644,0.651-15.25-1.001-15.25-1.001C622.453,232.154,626.309,228.456,630.143,225.992z"/>
		<path fill="#FDFEFF" stroke="#000000" stroke-miterlimit="10" d="M647.417,221.877c7.811,0.851,13.354,4.712,13.354,4.712
			c-3.256,3.47-6.877,5.982-10.59,7.803c1.232-2.558,1.423-5.572,0.266-8.399C649.771,224.344,648.716,222.956,647.417,221.877z"/>
		<path stroke="#000000" stroke-miterlimit="10" d="M630.143,225.992c6.121-3.93,12.177-4.672,17.274-4.115
			c1.299,1.079,2.354,2.467,3.03,4.115c1.157,2.827,0.967,5.842-0.266,8.399c-5.476,2.679-11.144,3.834-16.135,4.209
			c-1.703-1.146-3.094-2.774-3.916-4.784C629.057,231.199,629.146,228.419,630.143,225.992z"/>
	</g>
	<g>
		<path fill="#FDFEFF" stroke="#000000" stroke-miterlimit="10" d="M723.794,209.292c1.971,1.885,3.237,4.468,3.339,7.363
			c0.081,2.22-0.536,4.308-1.654,6.067c8.416-2.84,13.932-7.04,13.932-7.04C733.657,212.018,728.452,210.078,723.794,209.292z"/>
		<path fill="#FDFEFF" stroke="#000000" stroke-miterlimit="10" d="M705.777,212.322c-6.991,3.925-10.571,9.777-10.571,9.777
			c4.543,1.964,9.021,2.882,13.29,3.109c-2.246-1.914-3.708-4.675-3.819-7.798C704.61,215.585,705.015,213.858,705.777,212.322z"/>
		<path stroke="#000000" stroke-miterlimit="10" d="M723.794,209.292c-7.436-1.255-13.453,0.469-18.017,3.03
			c-0.763,1.536-1.167,3.263-1.101,5.088c0.111,3.124,1.573,5.884,3.819,7.798c6.299,0.336,12.125-0.845,16.982-2.487
			c1.118-1.76,1.735-3.847,1.654-6.067C727.031,213.76,725.765,211.177,723.794,209.292z"/>
	</g>
	<path fill="#FCA870" stroke="#000000" stroke-miterlimit="10" d="M672.418,219.745c0,0,35.007,39.199,25.357,44.955
		c0,0-4.301,3.206-8.305,1.08c0,0-5.814,5.492-13.747,2.962c0,0-6.046,4.902-11.073-0.4
		C664.65,268.342,658.119,254.77,672.418,219.745z"/>
	<path fill="#FCA870" stroke="#000000" stroke-miterlimit="10" d="M672.418,219.745c0,0,35.007,39.199,25.357,44.955
		c0,0-4.301,3.206-8.305,1.08c0,0-5.814,5.492-13.747,2.962c0,0-6.046,4.902-11.073-0.4
		C664.65,268.342,658.119,254.77,672.418,219.745z"/>
	<path fill="none" stroke="#000000" stroke-width="0.5" stroke-miterlimit="10" d="M753.125,235.732c0,0-14.393,17.947-15.1,41.413"
		/>
	<path fill="none" stroke="#000000" stroke-width="0.5" stroke-miterlimit="10" d="M657.549,289.932c0,0-7.838-21.426-27.849-34.646
		"/>
	<path fill="#FFFFFF" d="M708.163,215.04c0.218,1.23,1.648,2.017,3.194,1.758c1.544-0.259,2.621-1.464,2.402-2.695
		c-0.22-1.229-1.65-2.017-3.196-1.758C709.018,212.603,707.944,213.81,708.163,215.04z"/>
	<path fill="#FFFFFF" d="M634.203,228.206c0.325,1.173,1.784,1.809,3.257,1.424c1.472-0.387,2.401-1.648,2.075-2.822
		c-0.325-1.17-1.786-1.81-3.258-1.422C634.805,225.771,633.875,227.035,634.203,228.206z"/>
	<path fill="#C1272D" stroke="#000000" stroke-width="0.5" stroke-miterlimit="10" d="M672.951,297.244
		c-1.788-0.459-0.602-12.063-0.25-13.162c5.408-16.898,28.512-4.459,30.365,8.094C703.066,292.176,689.964,301.382,672.951,297.244z
		"/>
	<path fill="#FFBC87" stroke="#000000" stroke-miterlimit="10" d="M659.824,330.523c0,0-2.051-2.85-8.262-3.363
		c-6.213-0.514-12.532,4.073-13.431,4.962c-0.899,0.887-2.208,7.651,0.186,11.932c2.394,4.281,9.294,5.026,12.653,3.979
		s9.797-3.744,9.797-3.744"/>
	<path fill="#4D4D4D" stroke="#000000" stroke-miterlimit="10" d="M745.689,297.792c0,0-34.714,25.151-77.553,27.171
		c0,0-9.262,1.014-10.158,11.69c-1.244,15,35.927,16.161,44.641,14.356c15.654-3.245,48.193-24.859,52.79-40.671
		C755.416,310.316,759.451,296.416,745.689,297.792z"/>
</g>
<g id="애들">
	<path fill="#93278F" stroke="#000000" stroke-miterlimit="10" d="M425.567,375.203c0,0-39.234,17.798-28.901,59.131
		c0,0,65.963,30.334,131.482-2.333c0,0,9.293-21.412-23.121-53.049"/>
	<g>
		<g>
			<path fill="#FFFFFF" stroke="#000000" stroke-miterlimit="10" d="M191.719,467.995c0,0,18.681,2.647,16.196,13.237
				c0,0-2.349,13.916-30.068,3.914c0,0-10.328-3.175-4.573-16.975"/>
			<path fill="none" stroke="#8C6239" stroke-width="2" stroke-miterlimit="10" d="M196.448,469.069c0,0,5.365,5.71,1.026,5.633
				c-8.471-0.157-16.555-3.271-24.869-4.763c0,0-2.878,7.173,0.464,11.409c3.34,4.236,7.38,5.5,13.683,6.428
				c6.304,0.925,13.795,3.734,20.501-4.778C207.252,482.998,212.973,473.557,196.448,469.069z"/>
			
				<line fill="none" stroke="#8C6239" stroke-width="2" stroke-miterlimit="10" x1="205.177" y1="485.265" x2="175.45" y2="482.932"/>
			
				<line fill="none" stroke="#8C6239" stroke-width="2" stroke-miterlimit="10" x1="208.258" y1="481.984" x2="171.62" y2="478.203"/>
			
				<line fill="none" stroke="#8C6239" stroke-width="2" stroke-miterlimit="10" x1="208.094" y1="477.985" x2="171.73" y2="473.125"/>
			
				<line fill="none" stroke="#8C6239" stroke-width="2" stroke-miterlimit="10" x1="205.313" y1="473.9" x2="199.001" y2="472.793"/>
			
				<line fill="none" stroke="#8C6239" stroke-width="2" stroke-miterlimit="10" x1="175.546" y1="470.529" x2="174.565" y2="482.066"/>
			
				<line fill="none" stroke="#8C6239" stroke-width="2" stroke-miterlimit="10" x1="180.028" y1="471.594" x2="179.776" y2="486.191"/>
			
				<line fill="none" stroke="#8C6239" stroke-width="2" stroke-miterlimit="10" x1="185.23" y1="472.634" x2="185.627" y2="488.45"/>
			
				<line fill="none" stroke="#8C6239" stroke-width="2" stroke-miterlimit="10" x1="192.021" y1="475.477" x2="191.809" y2="488.226"/>
			
				<line fill="none" stroke="#8C6239" stroke-width="2" stroke-miterlimit="10" x1="198.649" y1="475.938" x2="199.146" y2="488.212"/>
		</g>
		<g>
			<path fill="#FFFFFF" stroke="#000000" stroke-miterlimit="10" d="M209.719,469.995c0,0,18.681,2.647,16.196,13.237
				c0,0-2.349,13.916-30.068,3.914c0,0-10.328-3.175-4.573-16.975"/>
			<path fill="none" stroke="#8C6239" stroke-width="2" stroke-miterlimit="10" d="M214.448,471.069c0,0,5.365,5.71,1.026,5.633
				c-8.471-0.157-16.555-3.271-24.869-4.763c0,0-2.878,7.173,0.464,11.409c3.34,4.236,7.38,5.5,13.683,6.428
				c6.304,0.925,13.795,3.734,20.501-4.778C225.252,484.998,230.973,475.557,214.448,471.069z"/>
			
				<line fill="none" stroke="#8C6239" stroke-width="2" stroke-miterlimit="10" x1="223.177" y1="487.265" x2="193.45" y2="484.932"/>
			
				<line fill="none" stroke="#8C6239" stroke-width="2" stroke-miterlimit="10" x1="226.258" y1="483.984" x2="189.62" y2="480.203"/>
			
				<line fill="none" stroke="#8C6239" stroke-width="2" stroke-miterlimit="10" x1="226.094" y1="479.985" x2="189.73" y2="475.125"/>
			
				<line fill="none" stroke="#8C6239" stroke-width="2" stroke-miterlimit="10" x1="223.313" y1="475.9" x2="217.001" y2="474.793"/>
			
				<line fill="none" stroke="#8C6239" stroke-width="2" stroke-miterlimit="10" x1="193.546" y1="472.529" x2="192.565" y2="484.066"/>
			
				<line fill="none" stroke="#8C6239" stroke-width="2" stroke-miterlimit="10" x1="198.028" y1="473.594" x2="197.776" y2="488.191"/>
			
				<line fill="none" stroke="#8C6239" stroke-width="2" stroke-miterlimit="10" x1="203.23" y1="474.634" x2="203.627" y2="490.45"/>
			
				<line fill="none" stroke="#8C6239" stroke-width="2" stroke-miterlimit="10" x1="210.021" y1="477.477" x2="209.809" y2="490.226"/>
			
				<line fill="none" stroke="#8C6239" stroke-width="2" stroke-miterlimit="10" x1="216.649" y1="477.938" x2="217.146" y2="490.212"/>
		</g>
		<circle fill="#FFBC87" stroke="#000000" stroke-miterlimit="10" cx="291.167" cy="369.167" r="11.833"/>
		<path fill="#485B66" stroke="#000000" stroke-miterlimit="10" d="M211.371,330.37c0,0-19.138,0.813-13.625,18.415
			s49.157,27.773,49.157,27.773s27.597,4.064,36.597,1.549v-16.884C283.5,361.224,235.112,334.002,211.371,330.37z"/>
		<path fill="#485B66" stroke="#000000" stroke-miterlimit="10" d="M178.336,404.641c0,0-1.403,47.831,10.709,62.697
			c1.094,1.343,2.298,2.417,3.623,3.162H215c0,0,19.499-12.132,26.416-61.482s-73.302-30.902-73.302-30.902
			s-31.263,36.026,5.269,89.127c0.097,0.142,0.195,0.283,0.293,0.425c0,0,10.074,4.583,14.449-1.042"/>
		<path fill="#BDCCD4" stroke="#000000" stroke-miterlimit="10" d="M208.921,327.12c0,0-29.318,16.563-41.807,50.995
			c0,0,16.688,27.372,73.302,30.902c0,0,21.072-12.646,15.894-72.974"/>
		<ellipse stroke="#000000" stroke-miterlimit="10" cx="110.75" cy="352.833" rx="8.083" ry="8.5"/>
		<path stroke="#000000" stroke-miterlimit="10" d="M173.123,282.653c0,0-19.49,2.681-17.973,22.014c0,0-20.316-2.104-22.816,18.448
			c0,0-17.333,3.219-15,22.552l2.167,4.667c0,0,18.667,0.834,20.5-14.5c0,0,17.833-7.001,18-21.834c0,0,21.532-1.558,19.266-14.945"
			/>
		<g>
			<path fill="#FFBC87" stroke="#000000" stroke-width="2" stroke-miterlimit="10" d="M316.947,251.632
				c0,0,32.73-16.283,14.133,31.214c0,0-0.025,16.6-12.179,14.33l-7.279-1.36"/>
			<path fill="#FFBC87" stroke="#000000" stroke-width="2" stroke-miterlimit="10" d="M177.963,237.279
				c0,0-27.355-23.925-22.029,26.618c0,0-4.46,16.038,7.884,16.886l7.665,0.525"/>
			<path fill="#FFBC87" stroke="#000000" stroke-width="2.134" stroke-miterlimit="10" d="M181.259,232.917
				c-3.41,0.201-7.482,28.097-7.823,30.658c-7.725,58.057,44.743,82.348,99.407,73.654c43.094-6.855,43.043-64.076,43.563-96.125
				C316.667,224.942,181.352,232.912,181.259,232.917z"/>
			<path fill="none" stroke="#000000" stroke-width="3" stroke-miterlimit="10" d="M273.457,250.873c0,0,3.059-1.411,9.546,1.355
				l-2.501,0.969c0,0,6.306-1.494,13.229,2.181l-3.753,0.682c0,0,10.276-0.816,14.729,2.741l-3.669,0.508
				c0,0,3.558-0.797,10.608,1.597l-1.717,1.174"/>
			<path fill="none" stroke="#000000" stroke-width="3" stroke-miterlimit="10" d="M253.587,247.311c0,0-2.665-2.358-10.866-1.959
				l2.265,1.754c0,0-6.123-3.535-15.193-2.429l3.734,1.91c0,0-10.691-4.243-17.05-2.412l3.722,1.718c0,0-3.474-1.952-12.114-2.091
				l1.329,1.682"/>
			<g>
				<path fill="#FDFEFF" stroke="#000000" stroke-miterlimit="10" d="M296.042,269.705c0.804,1.958,0.876,4.2,0.009,6.312
					c-0.663,1.621-1.785,2.934-3.159,3.858c6.973,0.526,12.302-0.807,12.302-0.807C302.245,274.676,299.134,271.692,296.042,269.705
					z"/>
				<path fill="#FDFEFF" stroke="#000000" stroke-miterlimit="10" d="M282.106,266.385c-6.3,0.687-10.772,3.801-10.772,3.801
					c2.626,2.799,5.547,4.826,8.543,6.294c-0.995-2.063-1.148-4.495-0.215-6.775C280.207,268.375,281.059,267.256,282.106,266.385z"
					/>
				<path stroke="#000000" stroke-miterlimit="10" d="M296.042,269.705c-4.938-3.17-9.823-3.769-13.936-3.32
					c-1.047,0.871-1.899,1.99-2.444,3.32c-0.933,2.28-0.78,4.712,0.215,6.775c4.417,2.161,8.989,3.093,13.016,3.395
					c1.374-0.925,2.496-2.238,3.159-3.858C296.917,273.905,296.846,271.663,296.042,269.705z"/>
			</g>
			<g>
				<path fill="#FDFEFF" stroke="#000000" stroke-miterlimit="10" d="M220.494,256.233c-1.59,1.521-2.612,3.604-2.694,5.939
					c-0.065,1.791,0.433,3.475,1.334,4.895c-6.789-2.291-11.238-5.679-11.238-5.679
					C212.537,258.432,216.736,256.867,220.494,256.233z"/>
				<path fill="#FDFEFF" stroke="#000000" stroke-miterlimit="10" d="M235.027,258.677c5.64,3.166,8.528,7.888,8.528,7.888
					c-3.665,1.584-7.278,2.325-10.721,2.508c1.812-1.544,2.991-3.771,3.081-6.291C235.969,261.31,235.643,259.917,235.027,258.677z"
					/>
				<path stroke="#000000" stroke-miterlimit="10" d="M220.494,256.233c5.999-1.012,10.852,0.378,14.534,2.444
					c0.615,1.239,0.941,2.633,0.888,4.105c-0.089,2.52-1.269,4.747-3.081,6.291c-5.082,0.271-9.781-0.682-13.7-2.006
					c-0.902-1.419-1.399-3.104-1.334-4.895C217.882,259.837,218.904,257.753,220.494,256.233z"/>
			</g>
		</g>
		<path stroke="#000000" stroke-width="2.134" stroke-miterlimit="10" d="M172.516,267.25c0,0,39.319-43.439,110.964-33.92
			c0,0,29.81,9.631,31.918,26.369c2.108,16.737,25.411-82.232-31.918-89.398c0,0-99.663-31.768-110.964,50.842
			C172.516,221.143,165.903,238.361,172.516,267.25z"/>
		<ellipse fill="#FFFFFF" cx="293.257" cy="272.688" rx="2.923" ry="2.983"/>
		<ellipse fill="#FFFFFF" cx="232.257" cy="261.688" rx="2.923" ry="2.983"/>
		<path fill="#FCA870" stroke="#000000" stroke-miterlimit="10" d="M260.038,274.128c0,0,10.341,27.424,4.165,28.481
			c0,0-2.881,0.805-4.538-1.106c0,0-4.128,1.689-7.748-1.219c0,0-4.13,1.336-5.68-2.432
			C246.237,297.853,245.565,289.479,260.038,274.128z"/>
		<path stroke="#FFBC87" stroke-width="2.134" stroke-miterlimit="10" d="M274.153,235.256c0,0,5.728-58.185-13.963-70.234"/>
		<ellipse fill="#C1272D" stroke="#000000" stroke-miterlimit="10" cx="252.671" cy="323.115" rx="16.171" ry="14.114"/>
		
			<rect x="116" y="343.623" transform="matrix(0.836 -0.5488 0.5488 0.836 -171.641 121.8436)" fill="#29ABE2" stroke="#000000" stroke-miterlimit="10" width="4" height="8.841"/>
		<circle fill="#FFBC87" stroke="#000000" stroke-miterlimit="10" cx="279.167" cy="366.167" r="11.833"/>
		<path fill="#485B66" stroke="#000000" stroke-miterlimit="10" d="M198.371,327.37c0,0-19.138,0.813-13.625,18.415
			s49.157,27.773,49.157,27.773s27.597,4.064,36.597,1.549v-16.884C270.5,358.224,222.112,331.002,198.371,327.37z"/>
	</g>
	<path fill="#7C507A" stroke="#000000" stroke-miterlimit="10" d="M489.314,314.91c0,0,19.304,27.591,15.713,64.042
		c0,0-26.862,17.493-79.46-3.749c0,0-13.554-20.5,17.146-72.689"/>
	
		<ellipse transform="matrix(-0.998 -0.0635 0.0635 -0.998 1121.926 751.0414)" stroke="#000000" stroke-miterlimit="10" cx="572.894" cy="357.698" rx="8.084" ry="8.5"/>
	<path stroke="#000000" stroke-miterlimit="10" d="M515.1,283.701c0,0,19.281,3.912,16.541,23.11c0,0,20.408-0.811,21.599,19.858
		c0,0,17.095,4.313,13.539,23.459l-2.458,4.52c0,0-18.682-0.352-19.539-15.771c0,0-17.354-8.118-16.578-22.933
		c0,0-21.39-2.921-18.278-16.138"/>
	<path fill="#FFBC87" stroke="#000000" stroke-width="2" stroke-miterlimit="10" d="M388.534,226.616
		c0,0-31.631-18.328-16.085,30.254c0,0-1.028,16.567,11.245,15.074l7.35-0.896"/>
	<path fill="#FFBC87" stroke="#000000" stroke-width="2" stroke-miterlimit="10" d="M528.148,221.112
		c0,0,28.818-22.141,20.296,27.962c0,0,3.434,16.288-8.94,16.352l-7.682,0.037"/>
	<path fill="#FFBC87" stroke="#000000" stroke-width="2.134" stroke-miterlimit="10" d="M525.137,216.549
		c3.391,0.417,5.684,28.515,5.862,31.093c4.025,58.43-49.878,79.342-103.881,67.197c-42.572-9.576-38.891-66.678-37.376-98.695
		C390.507,199.998,525.045,216.538,525.137,216.549z"/>
	<path fill="none" stroke="#000000" stroke-width="3" stroke-miterlimit="10" d="M440.381,240.364c0,0-2.711-1.999-9.623-0.599
		l2.254,1.454c0,0-5.874-2.736-13.396-0.534l3.539,1.425c0,0-9.9-2.873-14.979-0.287l3.491,1.238c0,0-3.324-1.499-10.713-0.576
		l1.445,1.496"/>
	<path fill="none" stroke="#000000" stroke-width="3" stroke-miterlimit="10" d="M474.041,240.324c0,0,2.81-2.184,10.969-1.266
		l-2.371,1.607c0,0,6.334-3.139,15.316-1.46l-3.848,1.669c0,0,10.938-3.556,17.169-1.325l-3.823,1.478c0,0,3.59-1.728,12.222-1.318
		l-1.433,1.594"/>
	<g>
		<path fill="#FDFEFF" stroke="#000000" stroke-miterlimit="10" d="M421.879,249.952c-1.187,1.753-1.715,3.933-1.297,6.177
			c0.318,1.722,1.149,3.236,2.304,4.421c-6.933-0.908-11.878-3.3-11.878-3.3C414.793,253.552,418.446,251.266,421.879,249.952z"/>
		<path fill="#FDFEFF" stroke="#000000" stroke-miterlimit="10" d="M436.199,249.545c6.027,1.958,9.77,5.919,9.77,5.919
			c-3.142,2.205-6.416,3.592-9.648,4.418c1.395-1.816,2.041-4.166,1.592-6.589C437.651,251.881,437.046,250.611,436.199,249.545z"/>
		<path stroke="#000000" stroke-miterlimit="10" d="M421.879,249.952c5.481-2.096,10.385-1.686,14.32-0.407
			c0.847,1.066,1.452,2.336,1.714,3.749c0.449,2.423-0.197,4.773-1.592,6.589c-4.764,1.214-9.431,1.195-13.435,0.668
			c-1.155-1.185-1.986-2.7-2.304-4.421C420.164,253.884,420.692,251.705,421.879,249.952z"/>
	</g>
	<g>
		<path fill="#FDFEFF" stroke="#000000" stroke-miterlimit="10" d="M497.294,249.304c1.234,1.82,1.795,4.072,1.384,6.372
			c-0.313,1.765-1.154,3.307-2.334,4.504c7.12-0.813,12.182-3.189,12.182-3.189C504.61,253.125,500.833,250.713,497.294,249.304z"/>
		<path fill="#FDFEFF" stroke="#000000" stroke-miterlimit="10" d="M482.569,248.639c-6.179,1.91-9.994,5.918-9.994,5.918
			c3.25,2.319,6.626,3.803,9.954,4.706c-1.447-1.89-2.132-4.315-1.69-6.797C481.097,251.016,481.708,249.722,482.569,248.639z"/>
		<path stroke="#000000" stroke-miterlimit="10" d="M497.294,249.304c-5.653-2.251-10.69-1.911-14.725-0.665
			c-0.861,1.083-1.473,2.376-1.73,3.827c-0.442,2.482,0.243,4.908,1.69,6.797c4.91,1.333,9.706,1.388,13.814,0.917
			c1.18-1.198,2.021-2.739,2.334-4.504C499.089,253.376,498.528,251.125,497.294,249.304z"/>
	</g>
	
		<ellipse transform="matrix(-0.998 -0.0635 0.0635 -0.998 842.4917 541.0336)" fill="#FFFFFF" cx="429.841" cy="257.133" rx="2.923" ry="2.983"/>
	
		<ellipse transform="matrix(-0.998 -0.0634 0.0634 -0.998 957.6241 542.4332)" fill="#FFFFFF" cx="487.417" cy="256.026" rx="2.923" ry="2.983"/>
	<path fill="#FCA870" stroke="#000000" stroke-miterlimit="10" d="M458.808,252.478c0,0-13.602,25.962-7.601,27.763
		c0,0,2.762,1.15,4.639-0.546c0,0,3.892,2.179,7.838-0.267c0,0,3.937,1.829,5.934-1.723
		C469.618,277.706,471.305,269.476,458.808,252.478z"/>
	
		<ellipse transform="matrix(-0.998 -0.0635 0.0635 -0.998 900.0874 631.8879)" fill="#C1272D" stroke="#000000" stroke-miterlimit="10" cx="460.08" cy="301.648" rx="10.094" ry="14.114"/>
	
		<rect x="563.962" y="348.037" transform="matrix(-0.7995 -0.6006 0.6006 -0.7995 806.7721 974.1901)" fill="#29ABE2" stroke="#000000" stroke-miterlimit="10" width="4.001" height="8.841"/>
	<polyline fill="#FFBC87" stroke="#000000" stroke-width="2.134" stroke-miterlimit="10" points="391.044,216.007 402,180.253 
		472.683,190.443 516.591,200.249 527.137,219.549 	"/>
	<path stroke="#000000" stroke-width="2.134" stroke-miterlimit="10" d="M529.488,239.199
		c7.709-32.352-128.892-49.538-141.354-6.313c-22.993-99.556,106.954-112.36,141.041-34.339
		C529.202,198.613,535.798,213.752,529.488,239.199z"/>
	<path stroke="#FFBC87" stroke-width="2.134" stroke-miterlimit="10" d="M461.549,212.651c0,0-5.959-51.395,13.208-62.182"/>
	<path fill="#DDABC0" stroke="#000000" stroke-miterlimit="10" d="M487.598,314.44c0,0,10.518-9.665,16.854,2.449
		c6.337,12.116-11.299,40.413-11.299,40.413s-12.424,16.686-18.46,20.084l-8.849-8.849
		C465.843,368.538,477.058,328.787,487.598,314.44z"/>
	<path fill="#DDABC0" stroke="#000000" stroke-miterlimit="10" d="M437.07,319.44c0,0-10.518-9.665-16.854,2.449
		c-6.337,12.116,11.299,40.413,11.299,40.413s12.424,16.686,18.46,20.084l8.849-8.849C458.825,373.538,447.61,333.787,437.07,319.44
		z"/>
</g>
<g id="제비">
	<g>
		<polyline fill="none" stroke="#603813" stroke-width="2" stroke-miterlimit="10" points="539.385,418.027 556.361,423.099 
			555.757,434.554 		"/>
		<polyline fill="none" stroke="#603813" stroke-width="2" stroke-miterlimit="10" points="570.146,427.496 556.361,423.099 
			566.277,416.156 		"/>
		<polyline fill="none" stroke="#603813" stroke-width="2" stroke-miterlimit="10" points="543.737,409.696 560.715,414.768 
			560.109,426.223 		"/>
		<polyline fill="none" stroke="#603813" stroke-width="2" stroke-miterlimit="10" points="574.5,419.165 560.715,414.768 
			570.63,407.825 		"/>
		<g>
			<g>
				<polygon fill="#FBB03B" points="487.264,375.018 503.057,359.323 523.756,379.185 498.06,383.223 				"/>
				<polygon fill="#FBB03B" points="495.859,388.21 504.893,376.046 537,382.206 549.455,391.12 538.221,408.354 502.55,420.681 
					490.936,421.94 483.727,417.721 				"/>
			</g>
			<path fill="#F15A24" stroke="#000000" stroke-miterlimit="10" d="M440.239,400.158c0,0-10.52-4.325-15.867,8.763l21.929,2.939
				l-9.522,12.868c0,0,11.849,5.707,22.426-3.364"/>
			<path fill="#FBB03B" stroke="#000000" stroke-miterlimit="10" d="M464.654,423.102c17.809,4.062,35.688-6.46,39.932-23.5
				c4.246-17.04-6.75-34.149-24.557-38.212c-17.81-4.063-35.688,6.46-39.933,23.5C435.851,401.932,446.847,419.04,464.654,423.102z"
				/>
			<polyline fill="#FBB03B" stroke="#000000" stroke-miterlimit="10" points="455.231,388.342 447.205,403.815 463.718,403.256 			
				"/>
			<path fill="#3FA9F5" d="M476.663,404.211c3.816,0.872,7.313-0.046,7.812-2.044c0.498-2-2.193-4.326-6.007-5.196
				c-3.815-0.87-7.812,2.042-7.812,2.042S472.846,403.341,476.663,404.211z"/>
			<path fill="#3FA9F5" d="M473.815,393.479c2.527-2.121,3.765-4.725,2.764-5.814c-1-1.092-3.858-0.257-6.385,1.861
				c-2.527,2.122-2.765,5.817-2.765,5.817S471.289,395.6,473.815,393.479z"/>
			<path fill="#FBB03B" stroke="#000000" stroke-miterlimit="10" d="M487.623,421.276c0,0,32.787,7.342,35.018,6.915"/>
			<path fill="#FBB03B" stroke="#000000" stroke-miterlimit="10" d="M500.205,417.892c1.314,0.297-34.233,19.813-32.373,38.871
				l13.225-8.959c0,0-7.808,21.844,2.782,22.597c0,0,5.354-11.756,5.765-18.98c0,0,1.48,7.99,8.392,9.566
				c0,0,6.233-12.481,3.636-14.613l-4.389-7.52c0,0,8.131,7.844,9.543,2.176c0,0,5.431-5.053,0.259-16.395
				c0,0,32.067,16.449,37.767-23.179"/>
			<path fill="#FBB03B" stroke="#000000" stroke-miterlimit="10" d="M536.207,402.488c0,0,14.276-0.07,15.986-8.332l1.81-7.241
				l-7.681,2.905"/>
			<path fill="#FBB03B" stroke="#000000" stroke-miterlimit="10" d="M532.78,389.728c2.948-7.646-0.075-13.659-0.075-13.659
				c-6.861-11.548-3.129-8.367-3.129-8.367c8.285,0.226,10.791,11.112,10.791,11.112l0.613-10.841
				c4.875,2.777,4.745,13.062,4.745,13.062l1.488-5.982c7.506,3.378,3.282,10.564,3.282,10.564l-2.274,3.487"/>
			<path fill="#FBB03B" stroke="#000000" stroke-miterlimit="10" d="M534.059,382.366c0,0-1.768-8.819-30.527-0.856"/>
			<polyline opacity="0.3" fill="#FBB03B" stroke="#000000" stroke-miterlimit="10" points="487.875,420.262 492.53,423.472 
				487.875,420.262 493.049,423.591 			"/>
			<path fill="#FBB03B" stroke="#000000" stroke-miterlimit="10" d="M521.409,378.232l-0.913-3.119
				c-5.209-5.347-6.646-1.515-6.646-1.515c7.021-7.047,6.59-10.311,6.59-10.311c-4.013-1.248-8.713,0.675-8.713,0.675
				c6.083-6.266,3.92-8.755,3.92-8.755c-5.372-3.556-8.947,1.525-8.947,1.525c4.57-15.021,0.436-13.782,0.436-13.782
				c-8.957,6.276-7.943,15.492-7.943,15.492c-3.067-10.019-8.408-10.903-8.408-10.903c0.326,7.062,2.325,19.976,2.325,19.976"/>
		</g>
		<path fill="#C1272D" d="M560.002,407.672c0.857-1.706,0.203-2.293-0.747-2.73s-1.901-0.242-2.758,1.465
			c-0.857,1.706-0.346,4.714-0.346,4.714S559.145,409.379,560.002,407.672z"/>
		<path fill="#C1272D" d="M554.645,406.391c-0.258-1.42-0.934-1.505-1.726-1.374c-0.79,0.132-1.29,0.655-1.029,2.076
			c0.259,1.42,1.966,3.065,1.966,3.065S554.904,407.813,554.645,406.391z"/>
	</g>
</g>
<g id="말풍선">
	<path fill="#FFFFFF" stroke="#000000" stroke-miterlimit="10" d="M467.819,214.652c-62.84,13.871-122.916-11.716-134.178-57.154
		c-0.49-1.961-0.84-3.933-1.129-5.902l-24.805-4.623l29.018-29.398c12.159-30.879,45.984-57.682,90.297-67.464
		c62.836-13.87,122.912,11.72,134.178,57.153C572.463,152.703,530.657,200.781,467.819,214.652z"/>
	<text transform="matrix(1 0 0 1 349.333 109.6665)"><tspan x="0" y="0" stroke="#000000" stroke-width="0.5" stroke-miterlimit="10" font-family="'Gungsuh'" font-size="17">아버지!</tspan><tspan x="0" y="20.4" stroke="#000000" stroke-width="0.5" stroke-miterlimit="10" font-family="'Gungsuh'" font-size="17">제비 다리가 부러진 것</tspan><tspan x="0" y="40.8" stroke="#000000" stroke-width="0.5" stroke-miterlimit="10" font-family="'Gungsuh'" font-size="17">같아요...</tspan><tspan x="0" y="61.2" stroke="#000000" stroke-width="0.5" stroke-miterlimit="10" font-family="'Gungsuh'" font-size="17">치료 해줘야 할 것 같아요</tspan></text>
</g>
</svg>
