<?xml version="1.0" encoding="utf-8"?>
<!-- Generator: Adobe Illustrator 16.0.0, SVG Export Plug-In . SVG Version: 6.00 Build 0)  -->
<!DOCTYPE svg PUBLIC "-//W3C//DTD SVG 1.1//EN" "http://www.w3.org/Graphics/SVG/1.1/DTD/svg11.dtd">
<svg version="1.1" xmlns="http://www.w3.org/2000/svg" xmlns:xlink="http://www.w3.org/1999/xlink" x="0px" y="0px" width="960px"
	 height="560px" viewBox="0 0 960 560" enable-background="new 0 0 960 560" xml:space="preserve">
<g id="배경">
	<rect x="-14.5" y="-13.5" fill="#C69C6D" stroke="#000000" stroke-miterlimit="10" width="981" height="583"/>
</g>
<g id="손">
	<path fill="none" d="M476,336.793c-0.022-0.001-0.038-0.001-0.059-0.002c0.021,0.014,0.039,0.03,0.059,0.045
		C476,336.822,476,336.808,476,336.793z"/>
	<path fill="none" d="M482.419,548.289c-0.698-9.833-1.745-19.046-4.93-28.431c-2.993-8.818-5.738-17.328-6.804-26.627
		c-0.644-5.62-0.938-14.408-1.073-20.883c-0.014,0.061-0.025,0.121-0.039,0.182c-6.857,30.178-21.975,58.353-24.703,89.381
		c12.991-0.128,25.982-0.255,38.974-0.383c-0.041-0.315-0.082-0.624-0.126-0.919C483.114,556.508,482.712,552.423,482.419,548.289z"
		/>
	<path d="M684.1,252.11c-1.319-5.75-4.699-11.03-7.72-16c-4-6.57-7.59-13.31-10.55-20.41c-2.561-6.15-4.99-12.93-5.72-19.58
		c-0.5-4.57-0.551-9.13-1.67-13.61c-2.221-8.95-10.631-11.39-18.681-8.36c-1.46,0.56-2.85,1.25-4.17,2.04
		c-2.29-4.93-5.35-9.48-8.37-14c-3.81-5.71-7.38-11.66-11.56-17.12c-3.82-4.98-8.21-9.51-12.54-14.05
		c-4.64-4.89-8.91-10.2-14.07-14.56c-7.95-6.71-18.88-7.6-25.64,1.41c-2.561,3.4-3.59,6.92-3.7,10.48
		c-8.99-11.71-18.07-28.36-35.7-22.83c-5.359,1.68-9.04,5.86-11.37,10.75c-4.04-8.75-16.229-3.05-22.21,1.78
		c-9.82,7.92-9.729,18.97-7.489,29.93c-0.341,0-0.69,0.13-1,0.46c-9.8,10.31-12.99,27.13-13.431,41.74
		c-0.47-1.58-0.97-3.16-1.5-4.74c-2.63-7.68-8.88-26.16-19.04-27.05c-0.01-0.21-0.06-0.43-0.17-0.65
		c-3.48-6.88-2.01-16.05-1.91-23.49c0.1-6.84-0.58-12.97-3.79-19.08c-5.52-10.5-17.75-19.33-28.38-10.88
		c-1.16-4.92-4.12-9.29-8.64-12.1c-12.99-8.07-31.81,3.43-34.48,17.2c-0.85-0.17-1.69-0.32-2.46-0.47
		c-12.35-2.38-21.34,5.92-28.68,14.82c-6.86,8.3-11.31,18.38-12.67,29.03c-2.46-2.2-5.52-3.54-9.29-3.27
		c-0.5,0.04-0.87,0.27-1.11,0.59c-0.52-0.33-1.09-0.6-1.73-0.8c-15.57-4.81-15.01,31.25-19.46,38.95c-0.26,0.47-0.25,0.92-0.08,1.29
		c-0.08,0.25-0.11,0.5-0.07,0.75c-0.14,0.12-0.25,0.26-0.34,0.43c-0.52-0.38-1.23-0.43-1.77,0.23c-3.28,3.99-4.7,9.25-7.82,13.48
		c-3.73,5.07-7.83,9.74-10.7,15.4c-2.62,5.17-3.04,11.03-3.12,16.72c-0.09,7.37,0.29,14.66-0.08,22.04
		c-0.68,13.85-0.47,27.36-3.16,41c-1.99,10.07-4.65,21.37-0.36,31.18c0.1,0.221,0.23,0.391,0.38,0.521
		c-0.05,0.189-0.06,0.39-0.03,0.62c1.62,10.39,5.22,20.3,8.53,30.239c3.42,10.301,6.05,20.83,9.55,31.11
		c6.57,19.27,15.79,38.38,18.37,58.75c0.06,0.44,0.27,0.78,0.55,1.02c-0.04,0.141-0.06,0.301-0.05,0.48
		c1.41,21.53-1.06,43.23-6.38,64.1c-2.73,10.7-6.29,21.5-11.28,31.36c-2.04,4.04-7.83,12.04-5.64,16.8c0.22,0.46,0.81,0.74,1.3,0.74
		c37.4-0.37,74.81-0.73,112.21-1.1c15.48-0.15,30.96-0.311,46.43-0.46c-0.06,1.02-0.11,2.04-0.14,3.06c-0.02,0.51,0.28,1,0.71,1.27
		c0.97,1.65,3.54,0.15,2.59-1.529c-0.09-0.15-0.18-0.29-0.27-0.42c0.03-0.801,0.07-1.61,0.12-2.41
		c13.22-0.13,26.44-0.26,39.66-0.391c0.301,1.511,0.761,2.971,1.631,4.061c1.21,1.51,3.319-0.64,2.119-2.13
		c-0.39-0.49-0.68-1.17-0.92-1.95c31.9-0.32,63.811-0.63,95.721-0.94c18.88-0.189,37.76-0.369,56.64-0.56
		c0.91-0.01,1.8-0.96,1.45-1.9c-4.271-11.38-6.09-23.52-7.98-35.46c-2.1-13.319-3.1-26.909-1.91-40.359
		c1.28-14.54,7.681-27.181,14.2-39.99c5.03-9.87,12.29-19.41,14.69-30.39c0.12-0.551-0.021-1-0.29-1.32
		c0.609-1.67,2.87-5.53,3.3-6.6c1.31-3.23,2.42-6.54,3.49-9.86c2.35-7.21,4.3-14.54,6.53-21.79c1.96-6.36,4.739-12.47,6.1-19
		c1.38-6.59,1.36-13.45,1.189-20.14c-0.17-6.66-0.68-13.301-0.8-19.96c-0.14-7.58,0.9-15.131,1.53-22.66
		c0.63-7.641,0.54-15.021,2.15-22.561C684.52,264.63,685.59,258.57,684.1,252.11z M651.89,177.49c2.4,2.04,3.73,5.52,4.33,9.06
		c0.73,4.25,0.62,8.59,1.33,12.85c1.12,6.66,3.71,13.25,6.391,19.46c-0.061-0.05-0.11-0.11-0.181-0.16
		c-7.46-5.19-16.26-6.87-19.76-16.31c-3.49-9.4-3.62-19.03,6.9-23.44C651.56,178.67,651.87,178.07,651.89,177.49z M298.98,187.19
		c1.65-4.32,2.07-9.49,2.98-13.79c1.38-6.55,2.63-15.1,7.37-20.19c2.84-3.06,6.32-0.4,7.53,2.73c1.6,4.13,1.16,9.21,0.56,13.5
		c-1.48,10.48-8.29,20.08-19.27,20.58C298.57,189.12,298.91,188.19,298.98,187.19z M441.87,561.94c-34.08,0.34-68.15,0.67-102.23,1
		c-17.42,0.18-34.84,0.35-52.26,0.52c-1.02,0.01-2.03,0.021-3.05,0.03c0.03-0.19,0.07-0.57,0.26-1.311
		c1.28-4.88,4.26-9.34,6.39-13.88c11.18-23.899,16.39-50.8,17.32-77.06c0.21-5.92,0.09-11.84-0.3-17.74
		c-0.03-0.46-0.23-0.81-0.51-1.05c0.02-0.141,0.03-0.29,0.01-0.45c-2.54-20.05-11.25-38.87-17.87-57.79
		c-3.6-10.29-6.25-20.83-9.61-31.18c-3.41-10.54-7.36-20.94-9.07-31.931c-0.07-0.43-0.28-0.72-0.55-0.89
		c0.06-0.3,0.04-0.63-0.1-0.97c-4.47-10.21-0.5-22.84,1.5-33.21c2.16-11.17,1.74-22.44,2.25-33.771c0.28-6.32,0.6-12.58,0.39-18.91
		c-0.21-6.55-0.39-13.1,1.51-19.45c1.84-6.16,6.75-11.49,10.6-16.45c1.6-2.05,3.12-4.15,4.45-6.38c1.54-2.59,2.11-5.64,4.06-8.01
		c0.08-0.1,0.15-0.2,0.2-0.3c0.2,0.13,0.45,0.22,0.74,0.24c12.34,0.75,21.1-8.52,23.78-19.92c1.15-4.89,2.54-15.13-0.99-20.59
		c7.08,0.35,10.43,7.82,12.22,13.95c2.92,9.99,2.93,20.88,2.12,31.17c-0.79,10.14-2.78,20.61-7.02,29.92
		c-3.99,8.76-12.81,16.74-22.85,9.67c-1.59-1.11-3.09,1.49-1.52,2.6c5.41,3.8,11.23,3.7,16.18,1.27c5.18,5.5,4.11,15.58,5.08,22.6
		c1.45,10.48,4.27,20.85,5.27,31.36c1.67,17.67-10.75,30.52-20.83,43.41c-1.18,1.5,0.93,3.64,2.12,2.119
		c10.79-13.79,22.77-26.649,21.72-45.279c0.75,0.319,1.8,0.109,2.17-0.88c-0.53,1.42-0.82,0.6,0.56,1.779
		c0.94,0.811,1.79,1.721,2.65,2.62c1.52,1.59,2.95,3.28,4.36,4.98c4.6,5.55,9.04,11.29,13.39,17.029
		c4.89,6.45,9.01,13.37,13.57,20.03c3.91,5.7,8.29,11.07,12.51,16.53c8.77,11.37,15.73,23.25,17.8,37.68
		c2.51,17.48,5.57,35.41,2.76,53.05c-0.3,1.891,2.59,2.71,2.9,0.801c2.89-18.21-0.15-36.601-2.77-54.65
		c-2.38-16.42-11-29.29-20.99-42.11c-11.28-14.479-20.82-30.08-32.26-44.449c-1.59-2-13.46-18.45-16.85-14.971
		c-0.1-1.189-0.25-2.37-0.4-3.55c13.66,4.8,21.09,18.76,32.32,27.13c7.14,5.32,15.84,8.5,23.24,13.49c4,2.7,7.4,5.82,10.87,9.14
		c2.73,2.61,6.28,4.58,8.88,7.19c1.37,1.36,3.49-0.76,2.13-2.13c-0.36-0.351-0.71-0.7-1.06-1.05c-0.15-0.15-0.31-0.25-0.48-0.33
		c-2.35-1.971-5.11-3.681-7.35-5.801c-2.83-2.67-5.57-5.529-8.77-7.79c-7.88-5.579-16.74-9.35-24.84-14.539
		c-12.84-8.25-19.53-23.45-34.72-28.431c-0.25-0.08-0.48-0.09-0.68-0.06c-1.42-8.84-3.72-17.64-4.72-26.49
		c-0.76-6.72-0.29-14.65-4.93-20.01c2.39-1.7,4.48-3.95,6.08-6.54c6.03-9.8,8.15-22.14,9.31-33.4c1.19-11.66,1-24.1-2.5-35.38
		c-0.89-2.9-2.22-5.87-4.01-8.39c0.02-0.09,0.04-0.18,0.05-0.28c0.78-10.07,4.62-19.27,10.42-27.47c2.94-4.15,6.57-7.8,10.43-11.1
		c5.67-4.85,11.26-6.22,18.55-4.82c2.11,0.41,4.16,1.1,6.19,1.79c2.59,0.87,3.84,5.45,4.54,7.64c1.75,5.45,1.09,11.48,0.01,16.97
		c-1.91,9.76-6.08,18.94-8.71,28.5c-0.06,0.24-0.07,0.46-0.04,0.66c-0.13,0.16-0.24,0.35-0.3,0.59c-2.17,7.98-4.19,15.99-6.11,24.03
		c-0.06,0.27-0.05,0.52,0,0.74c-0.14,0.16-0.25,0.35-0.32,0.6c-0.07,0.27-0.14,0.54-0.21,0.81c-0.91,1.35-1.42,2.88-1.45,4.56
		c0,0.27,0.05,0.49,0.15,0.68c-3.07,13.74-4.16,28.07-11.43,40.43c-0.13,0.23-0.19,0.45-0.21,0.66c-0.94,3.65-1.22,7.96-3.01,11.29
		c-1.68,3.12-2.58,6.63-3.45,10.04c-0.47,1.88,2.42,2.67,2.9,0.8c0.94-3.72,2.05-7.25,3.87-10.64c1.64-3.05,1.68-7.52,2.68-10.86
		c0-0.01,0-0.01,0-0.02c8-14.01,8.61-30.34,12.73-45.67c0.04-0.03,0.03-0.06,0.06-0.09c0.39-0.46,0.46-0.98,0.32-1.44
		c0.02-0.18,0-0.34-0.03-0.49c0.13-0.16,0.23-0.36,0.29-0.6c1.92-8.04,3.94-16.05,6.11-24.03c0.07-0.24,0.07-0.46,0.04-0.66
		c0.13-0.16,0.24-0.35,0.3-0.59c3.22-11.69,8.39-22.81,9.69-34.97c0.54-5.03,0-10.61-2.12-15.24c-0.8-1.73-1.91-4.89-3.63-5.9
		c-1.24-0.72-2.71-1.23-4.24-1.64c2.74-13.53,21.56-23.13,32.87-13.2c6.98,6.13,4.98,16.07,2.32,23.7
		c-1.3,3.74-2.78,7.38-3.58,11.27c-0.78,3.79-1,7.56-2.26,11.25c-0.26,0.75,0.08,1.32,0.61,1.61c-3.15,14.77-3.54,29.85-3.86,44.91
		c-0.17,8.1-0.41,16.19-1.04,24.26c-0.65,8.37-1.03,17.25-4.31,25.07c-0.12,0.29-0.14,0.55-0.09,0.78
		c-4.07,7.37-7.48,15.08-10.63,22.89c-0.72,1.8,2.18,2.57,2.9,0.8c3.19-7.91,6.67-15.7,10.85-23.14c0.24-0.43,0.25-0.85,0.11-1.21
		c2.48-6.29,2.94-12.95,3.64-19.62c0.85-8.04,1.22-16.1,1.44-24.18c0.48-17.55,0.39-35.15,4.46-52.35c0.15-0.64-0.09-1.15-0.49-1.48
		c0.98-3.95,1.26-8.03,2.31-11.98c1.46-5.46,3.99-10.51,5.1-16.09c0.39-1.98,0.5-3.96,0.34-5.9c0.29-0.03,0.58-0.15,0.85-0.39
		c12.34-10.9,26.08,7.46,27.54,19.04c1.32,10.5-2.29,22.63,2.34,32.55c-0.92,0.23-1.86,0.59-2.84,1.13
		c-0.13,0.07-0.23,0.15-0.33,0.24c-0.15,0.07-0.29,0.17-0.43,0.3c-12.13,12.1-11.28,29-8.72,44.71c0.05,0.29,0.16,0.51,0.3,0.68
		c-0.09,0.26-0.12,0.55-0.03,0.89c2.51,9.86,1.83,19.97,0.49,29.96c-1.02,7.55-2.71,14.76-1.86,22.37c-0.11,9.06-1.88,18-2.02,27.07
		c-0.03,1.94,2.97,1.93,3,0c0.13-8.61,1.74-17.1,1.99-25.69c0.1-0.24,0.15-0.52,0.1-0.83c-0.03-0.18-0.04-0.36-0.07-0.55
		c0.01-0.97,0.01-1.95-0.02-2.93c-0.01-0.34-0.12-0.62-0.28-0.84c-0.22-7.87,1.89-15.76,2.75-23.56c0.96-8.65,0.97-17.33-1.19-25.8
		c-0.07-0.29-0.21-0.5-0.37-0.67c0.11-0.26,0.16-0.56,0.11-0.89c-2.38-14.6-3.37-30.51,7.94-41.79c0-0.01,0.01-0.02,0.01-0.02
		c0.05-0.02,0.1-0.04,0.15-0.06c13.9-7.63,23.19,31.88,25.15,40.33c4.15,17.97,4.41,37.02,5.5,55.38
		c1.05,17.77,1.2,36.21-0.77,53.92c-0.84,7.55-1.32,15.15-1.73,22.76c-0.11-0.08-0.23-0.149-0.37-0.21
		c-16.7-6.609-35.41-4.979-52.52-10.26c-10.11-3.12-19.54-9.271-28.21-15.22c-4.04-2.761-7.45-6.181-11.32-9.12
		c-3.91-2.96-9.52-5.53-11.4-10.351c-0.7-1.779-3.6-1.01-2.9,0.801c1.25,3.189,3.51,5.439,6.26,7.46c4.22,3.1,8.19,6.33,12.25,9.63
		c8.27,6.74,17.98,12.689,27.68,17.1c18.83,8.55,40.35,5.33,59.36,12.86c0.4,0.149,0.74,0.13,1.02,0
		c-0.45,8.859-0.85,17.74-1.62,26.55c-0.05,0.62,0.22,1.04,0.63,1.26c1.08,17.94,0.95,35.91,0.36,53.87
		c-0.62,18.68-0.72,37.561-5.06,55.811C458.95,504.33,444.52,531.65,441.87,561.94z M444.87,561.91
		c2.73-31.03,17.85-59.2,24.7-89.38c0.02-0.061,0.03-0.12,0.04-0.181c0.14,6.471,0.43,15.261,1.08,20.881
		c1.06,9.3,3.81,17.81,6.8,26.63c3.18,9.38,4.229,18.6,4.93,28.43c0.29,4.13,0.69,8.22,1.3,12.32c0.04,0.29,0.08,0.6,0.12,0.92
		C470.85,561.66,457.86,561.78,444.87,561.91z M678.69,279.13c-0.971,7.7-0.78,15.69-1.5,23.45c-1.82,19.43,3.439,40.18-2.601,59.05
		c-3,9.351-6.189,18.58-8.97,28c-1.49,5.03-3.09,10.021-4.92,14.93c-0.97,2.591-2.07,5.12-3.24,7.631
		c-0.43,0.93-1.2,1.84-0.84,2.899c0.03,0.101,0.07,0.19,0.12,0.271c-2.82,11.17-10.471,21.359-15.65,31.52
		c-6.04,11.86-11.24,23.46-12.87,36.79c-1.6,13.16-0.41,26.64,1.4,39.71c1.71,12.28,3.63,24.89,7.76,36.64
		c-36.7,0.36-73.399,0.721-110.09,1.08c-13.58,0.141-27.17,0.271-40.75,0.4c-0.31-2.39-0.37-4.94-0.53-6.37
		c-0.45-4-0.67-8.03-0.95-12.05c-0.59-8.37-2.029-16.16-4.68-24.14c-3.06-9.23-5.79-17.82-6.9-27.53
		c-1.05-9.17-0.98-18.41-0.98-27.41c0-0.82-0.5-1.3-1.1-1.45c1.97-13.68,2.01-27.689,2.52-41.45c0.71-19.359,0.86-38.76-0.42-58.1
		c-0.02-0.36-0.15-0.66-0.34-0.88c0.65-7.521,1.26-15.04,1.8-22.561c0.3-0.02,0.6-0.119,0.91-0.27c0.05-0.021,0.09-0.05,0.13-0.07
		v0.16c5-3.77,12.42-6.99,19.48-6.899c4.92,0.05,9.439,2.289,14.3,2.859c5.75,0.68,11.489-0.45,17.109-1.66
		c6.54-1.399,12.86-3.68,19.04-6.229c6.24-2.58,12.78-4.181,19.271-5.98c10.49-2.91,21.899-6.6,31.56-11.68
		c1.721-0.89,0.2-3.48-1.51-2.58c-9.99,5.24-21.82,8.86-32.65,11.86c-12.939,3.59-25.229,9.279-38.359,12.109
		c-6.73,1.44-12.76,1.78-19.42,0.09c-4.73-1.189-9.12-2.149-14.03-1.539c-5.37,0.67-10.92,3.43-15.58,6.319
		c2.18-31.189,3.17-62.37,1.08-93.67c-0.99-14.79-2.18-29.33-5.5-43.61c0.42-0.22,0.73-0.64,0.71-1.27
		c-0.43-14.85,1.64-34.89,12.12-46.43c0.689,2.92,1.47,5.8,2.22,8.6c2.66,10.02,6.95,19.59,9.28,29.65
		c1.27,5.44,1.91,11.02,3.02,16.5c1.15,5.65,2.801,11.24,4.19,16.83c2.8,11.18,5.13,22.29,6.71,33.71
		c0.76,5.46,2.16,10.73,3.15,16.14c0.47,2.61,1.01,7.63,2.81,9.71c0.67,0.78,1.84,0.44,2.35-0.3c0.15-0.22,0.301-0.44,0.44-0.65
		c0.68-0.99-0.05-1.93-0.96-2.14c-0.15-0.77-0.29-1.74-0.38-2.02c-0.82-2.33-1.26-4.78-1.7-7.2c-0.76-4.2-1.92-8.28-2.56-12.52
		c-1.33-8.8-2.65-17.47-4.671-26.15c-2.039-8.77-4.51-17.43-6.489-26.21c-2.08-9.25-2.95-18.38-6.44-27.29
		c-3.03-7.77-5.09-15.9-7.2-23.95c-2.02-7.68-4.109-15.7-2.06-23.59c1.49-5.73,6.26-9.71,11.1-12.62
		c4.761-2.86,12.36-5.54,14.12,1.83c0.101,0.38,0.29,0.65,0.54,0.82c-0.45,1.4-0.81,2.83-1.07,4.23
		c-1.829,9.69,3.771,18.8,7.82,27.14c5.24,10.79,10.21,21.36,16.62,31.52c3.15,4.98,5.95,10.12,7.98,15.66
		c2.04,5.56,2.79,11.61,3.989,17.39c2.53,12.21,5.221,24.38,7.2,36.69c0.92,5.75,1.41,11.54,2.22,17.3
		c0.49,3.51,0.67,8.14,2.86,11.11c1.13,1.54,3.74,0.04,2.58-1.52c-1.771-2.4-1.94-6.27-2.37-9.13c-0.75-4.92-1.15-9.9-1.84-14.83
		c-1.47-10.49-3.65-20.88-5.83-31.25c-2.07-9.85-3.33-20.22-7.08-29.59c-3.63-9.06-9.76-16.78-14.35-25.33
		c-4.79-8.95-8.891-18.33-13.29-27.48c-4.91-10.22-5.57-22.55,3.42-30.89c7.55-7.01,18.71-3.28,25.29,2.94
		c5.319,5.03,8.689,11.68,13.2,17.38c0.43,0.55,0.989,0.62,1.46,0.41c0.68,5.3,2.979,10.64,5.01,15.8
		c2.66,6.78,4.75,13.78,7.43,20.56c2.59,6.55,6.12,12.71,9.48,18.9c6.79,12.5,13.439,25.02,16.899,38.91
		c2.271,9.1,3.54,18.82,4.721,28.11c0.96,7.57,3.13,20.06-2.391,26.42c-0.38,0.41-0.81,0.76-1.31,1.04
		c-1.62,1.04-0.12,3.63,1.52,2.58c5.24-3.36,5.86-10.37,6.05-16.04c0.301-8.97-1.31-18.03-2.81-26.84
		c-1.78-10.38-3.59-20.44-7.5-30.29c-4.73-11.93-11.41-22.98-17.37-34.31c-6.33-12.05-10.62-25.54-15.3-38.32
		c-2.19-5.99-2.65-12.42,0.83-17.99c5.359-8.6,14.85-7.3,21.77-1.92c4.86,3.79,8.721,8.9,12.931,13.36
		c4.899,5.18,9.87,10.29,14.21,15.96c3.84,5,7.04,10.57,10.56,15.81c3.07,4.55,6.15,9.17,8.46,14.18
		c-5.89,4.5-9.96,11.32-11.899,18.38c-3.061,11.09-1.79,23.19-0.11,34.39c0.88,5.89,2.16,11.71,3.34,17.55
		c1.58,7.8,4.25,14.99,3.01,23.08c-1.81,11.94-6.27,23.42-8.689,35.29c-12.58,1.15-22.58,11.55-29.4,21.37
		c-0.35-0.71-1.189-1.21-2.1-0.74c-13.8,7.12-27.76,13.94-41.311,21.54c-8.72,4.89-20.52,8.79-26.989,16.69
		c-1.221,1.479,0.89,3.619,2.119,2.119c6.271-7.649,17.931-11.42,26.381-16.22c13.149-7.47,26.77-14.07,40.22-20.979
		c-10.05,14.399-20.57,28.46-29.24,43.77c-4.25,7.5-7.88,15.34-12.01,22.91c-4.11,7.52-7.92,15.16-10.4,23.39
		c-1.62,5.37-2.37,11.021-3.45,16.511c-0.979,4.979-1.63,12.52-5.119,16.5c-1.271,1.449,0.84,3.579,2.119,2.119
		c2.511-2.859,3.4-6.979,4.311-10.569c1.479-5.84,2.42-11.82,3.6-17.74c3.061-15.44,11.971-28.11,18.59-42.1
		c7.41-15.69,17.631-29.931,27.641-44.03c8.47-11.91,18.24-29.58,34.46-31.47c-0.18,1.08-0.36,2.159-0.5,3.25
		c-1.68,13.04,3.7,24.43,9.05,35.859c0.81,1.75,3.4,0.221,2.58-1.52c-3.01-6.44-6.26-12.46-7.73-19.5
		c-1.59-7.61-1.239-14.681,0.48-22.21c1.69-7.41,3.53-14.79,5.42-22.15c1.49-5.75,3.12-11.18,3.28-16.95
		c4.12-0.31,8.18-1.52,12.05-2.88c2.9-1.03,6.59-2.24,8.5-4.79c1.17-1.55-1.44-3.04-2.58-1.52c-1.7,2.26-6.14,3.24-8.65,4.08
		c-3,1-6.189,1.87-9.369,2.11c-0.03-0.47-0.08-0.95-0.131-1.42c-0.689-5.97-2.649-11.85-3.89-17.73
		c-1.42-6.69-2.67-13.41-3.479-20.2c-1.48-12.28-1.86-26.83,5.56-37.39c3.66-5.19,9.39-9.41,15.6-10.77
		c2.131-0.47,3.91-0.3,5.41,0.29c-9.63,4.21-12.47,12.08-10.149,22.12c1.29,5.62,3.72,10.82,8.17,14.58
		c4.26,3.6,9.899,5.21,14.46,8.39c1.109,0.77,2.17-0.26,2.18-1.32c0.04,0.08,0.07,0.16,0.11,0.24c2.63,6.04,5.819,11.79,9.26,17.4
		c4.01,6.57,8.01,13.32,8.18,21.23C682.12,265.63,679.53,272.42,678.69,279.13z M475.94,336.79H476v0.05
		C475.98,336.82,475.96,336.8,475.94,336.79z"/>
	<path fill="#F4A36C" d="M663.94,218.86c-0.061-0.05-0.11-0.11-0.181-0.16c-7.46-5.19-16.26-6.87-19.76-16.31
		c-3.49-9.4-3.62-19.03,6.9-23.44c0.659-0.28,0.97-0.88,0.989-1.46c2.4,2.04,3.73,5.52,4.33,9.06c0.73,4.25,0.62,8.59,1.33,12.85
		C658.67,206.06,661.26,212.65,663.94,218.86z"/>
	<path fill="#F4A36C" d="M317.42,169.44c-1.48,10.48-8.29,20.08-19.27,20.58c0.42-0.9,0.76-1.83,0.83-2.83
		c1.65-4.32,2.07-9.49,2.98-13.79c1.38-6.55,2.63-15.1,7.37-20.19c2.84-3.06,6.32-0.4,7.53,2.73
		C318.46,160.07,318.02,165.15,317.42,169.44z"/>
	<path fill="#FFBC87" d="M677.19,302.58c-1.82,19.43,3.439,40.18-2.601,59.05c-3,9.351-6.189,18.58-8.97,28
		c-1.49,5.03-3.09,10.021-4.92,14.93c-0.97,2.591-2.07,5.12-3.24,7.631c-0.43,0.93-1.2,1.84-0.84,2.899
		c0.03,0.101,0.07,0.19,0.12,0.271c-2.82,11.17-10.471,21.359-15.65,31.52c-6.04,11.86-11.24,23.46-12.87,36.79
		c-1.6,13.16-0.41,26.64,1.4,39.71c1.71,12.28,3.63,24.89,7.76,36.64c-36.7,0.36-73.399,0.721-110.09,1.08
		c-13.58,0.141-27.17,0.271-40.75,0.4c-0.31-2.39-0.37-4.94-0.53-6.37c-0.45-4-0.67-8.03-0.95-12.05
		c-0.59-8.37-2.029-16.16-4.68-24.14c-3.06-9.23-5.79-17.82-6.9-27.53c-1.05-9.17-0.98-18.41-0.98-27.41c0-0.82-0.5-1.3-1.1-1.45
		c1.97-13.68,2.01-27.689,2.52-41.45c0.71-19.359,0.86-38.76-0.42-58.1c-0.02-0.36-0.15-0.66-0.34-0.88
		c0.65-7.521,1.26-15.04,1.8-22.561c0.3-0.02,0.6-0.119,0.91-0.27c0.05-0.021,0.09-0.05,0.13-0.07v0.16
		c5-3.77,12.42-6.99,19.48-6.899c4.92,0.05,9.439,2.289,14.3,2.859c5.75,0.68,11.489-0.45,17.109-1.66
		c6.54-1.399,12.86-3.68,19.04-6.229c6.24-2.58,12.78-4.181,19.271-5.98c10.49-2.91,21.899-6.6,31.56-11.68
		c1.721-0.89,0.2-3.48-1.51-2.58c-9.99,5.24-21.82,8.86-32.65,11.86c-12.939,3.59-25.229,9.279-38.359,12.109
		c-6.73,1.44-12.76,1.78-19.42,0.09c-4.73-1.189-9.12-2.149-14.03-1.539c-5.37,0.67-10.92,3.43-15.58,6.319
		c2.18-31.189,3.17-62.37,1.08-93.67c-0.99-14.79-2.18-29.33-5.5-43.61c0.42-0.22,0.73-0.64,0.71-1.27
		c-0.43-14.85,1.64-34.89,12.12-46.43c0.689,2.92,1.47,5.8,2.22,8.6c2.66,10.02,6.95,19.59,9.28,29.65
		c1.27,5.44,1.91,11.02,3.02,16.5c1.15,5.65,2.801,11.24,4.19,16.83c2.8,11.18,5.13,22.29,6.71,33.71
		c0.76,5.46,2.16,10.73,3.15,16.14c0.47,2.61,1.01,7.63,2.81,9.71c0.67,0.78,1.84,0.44,2.35-0.3c0.15-0.22,0.301-0.44,0.44-0.65
		c0.68-0.99-0.05-1.93-0.96-2.14c-0.15-0.77-0.29-1.74-0.38-2.02c-0.82-2.33-1.26-4.78-1.7-7.2c-0.76-4.2-1.92-8.28-2.56-12.52
		c-1.33-8.8-2.65-17.47-4.671-26.15c-2.039-8.77-4.51-17.43-6.489-26.21c-2.08-9.25-2.95-18.38-6.44-27.29
		c-3.03-7.77-5.09-15.9-7.2-23.95c-2.02-7.68-4.109-15.7-2.06-23.59c1.49-5.73,6.26-9.71,11.1-12.62
		c4.761-2.86,12.36-5.54,14.12,1.83c0.101,0.38,0.29,0.65,0.54,0.82c-0.45,1.4-0.81,2.83-1.07,4.23
		c-1.829,9.69,3.771,18.8,7.82,27.14c5.24,10.79,10.21,21.36,16.62,31.52c3.15,4.98,5.95,10.12,7.98,15.66
		c2.04,5.56,2.79,11.61,3.989,17.39c2.53,12.21,5.221,24.38,7.2,36.69c0.92,5.75,1.41,11.54,2.22,17.3
		c0.49,3.51,0.67,8.14,2.86,11.11c1.13,1.54,3.74,0.04,2.58-1.52c-1.771-2.4-1.94-6.27-2.37-9.13c-0.75-4.92-1.15-9.9-1.84-14.83
		c-1.47-10.49-3.65-20.88-5.83-31.25c-2.07-9.85-3.33-20.22-7.08-29.59c-3.63-9.06-9.76-16.78-14.35-25.33
		c-4.79-8.95-8.891-18.33-13.29-27.48c-4.91-10.22-5.57-22.55,3.42-30.89c7.55-7.01,18.71-3.28,25.29,2.94
		c5.319,5.03,8.689,11.68,13.2,17.38c0.43,0.55,0.989,0.62,1.46,0.41c0.68,5.3,2.979,10.64,5.01,15.8
		c2.66,6.78,4.75,13.78,7.43,20.56c2.59,6.55,6.12,12.71,9.48,18.9c6.79,12.5,13.439,25.02,16.899,38.91
		c2.271,9.1,3.54,18.82,4.721,28.11c0.96,7.57,3.13,20.06-2.391,26.42c-0.38,0.41-0.81,0.76-1.31,1.04
		c-1.62,1.04-0.12,3.63,1.52,2.58c5.24-3.36,5.86-10.37,6.05-16.04c0.301-8.97-1.31-18.03-2.81-26.84
		c-1.78-10.38-3.59-20.44-7.5-30.29c-4.73-11.93-11.41-22.98-17.37-34.31c-6.33-12.05-10.62-25.54-15.3-38.32
		c-2.19-5.99-2.65-12.42,0.83-17.99c5.359-8.6,14.85-7.3,21.77-1.92c4.86,3.79,8.721,8.9,12.931,13.36
		c4.899,5.18,9.87,10.29,14.21,15.96c3.84,5,7.04,10.57,10.56,15.81c3.07,4.55,6.15,9.17,8.46,14.18
		c-5.89,4.5-9.96,11.32-11.899,18.38c-3.061,11.09-1.79,23.19-0.11,34.39c0.88,5.89,2.16,11.71,3.34,17.55
		c1.58,7.8,4.25,14.99,3.01,23.08c-1.81,11.94-6.27,23.42-8.689,35.29c-12.58,1.15-22.58,11.55-29.4,21.37
		c-0.35-0.71-1.189-1.21-2.1-0.74c-13.8,7.12-27.76,13.94-41.311,21.54c-8.72,4.89-20.52,8.79-26.989,16.69
		c-1.221,1.479,0.89,3.619,2.119,2.119c6.271-7.649,17.931-11.42,26.381-16.22c13.149-7.47,26.77-14.07,40.22-20.979
		c-10.05,14.399-20.57,28.46-29.24,43.77c-4.25,7.5-7.88,15.34-12.01,22.91c-4.11,7.52-7.92,15.16-10.4,23.39
		c-1.62,5.37-2.37,11.021-3.45,16.511c-0.979,4.979-1.63,12.52-5.119,16.5c-1.271,1.449,0.84,3.579,2.119,2.119
		c2.511-2.859,3.4-6.979,4.311-10.569c1.479-5.84,2.42-11.82,3.6-17.74c3.061-15.44,11.971-28.11,18.59-42.1
		c7.41-15.69,17.631-29.931,27.641-44.03c8.47-11.91,18.24-29.58,34.46-31.47c-0.18,1.08-0.36,2.159-0.5,3.25
		c-1.68,13.04,3.7,24.43,9.05,35.859c0.81,1.75,3.4,0.221,2.58-1.52c-3.01-6.44-6.26-12.46-7.73-19.5
		c-1.59-7.61-1.239-14.681,0.48-22.21c1.69-7.41,3.53-14.79,5.42-22.15c1.49-5.75,3.12-11.18,3.28-16.95
		c4.12-0.31,8.18-1.52,12.05-2.88c2.9-1.03,6.59-2.24,8.5-4.79c1.17-1.55-1.44-3.04-2.58-1.52c-1.7,2.26-6.14,3.24-8.65,4.08
		c-3,1-6.189,1.87-9.369,2.11c-0.03-0.47-0.08-0.95-0.131-1.42c-0.689-5.97-2.649-11.85-3.89-17.73
		c-1.42-6.69-2.67-13.41-3.479-20.2c-1.48-12.28-1.86-26.83,5.56-37.39c3.66-5.19,9.39-9.41,15.6-10.77
		c2.131-0.47,3.91-0.3,5.41,0.29c-9.63,4.21-12.47,12.08-10.149,22.12c1.29,5.62,3.72,10.82,8.17,14.58
		c4.26,3.6,9.899,5.21,14.46,8.39c1.109,0.77,2.17-0.26,2.18-1.32c0.04,0.08,0.07,0.16,0.11,0.24c2.63,6.04,5.819,11.79,9.26,17.4
		c4.01,6.57,8.01,13.32,8.18,21.23c0.15,6.78-2.439,13.57-3.279,20.28C677.72,286.83,677.91,294.82,677.19,302.58z"/>
	<path fill="#FFBC87" d="M473.5,312c-0.84,7.55-1.32,15.15-1.73,22.76c-0.11-0.08-0.23-0.149-0.37-0.21
		c-16.7-6.609-35.41-4.979-52.52-10.26c-10.11-3.12-19.54-9.271-28.21-15.22c-4.04-2.761-7.45-6.181-11.32-9.12
		c-3.91-2.96-9.52-5.53-11.4-10.351c-0.7-1.779-3.6-1.01-2.9,0.801c1.25,3.189,3.51,5.439,6.26,7.46c4.22,3.1,8.19,6.33,12.25,9.63
		c8.27,6.74,17.98,12.689,27.68,17.1c18.83,8.55,40.35,5.33,59.36,12.86c0.4,0.149,0.74,0.13,1.02,0
		c-0.45,8.859-0.85,17.74-1.62,26.55c-0.05,0.62,0.22,1.04,0.63,1.26c1.08,17.94,0.95,35.91,0.36,53.87
		c-0.62,18.68-0.72,37.561-5.06,55.811c-6.98,29.39-21.41,56.71-24.06,87c-34.08,0.34-68.15,0.67-102.23,1
		c-17.42,0.18-34.84,0.35-52.26,0.52c-1.02,0.01-2.03,0.021-3.05,0.03c0.03-0.19,0.07-0.57,0.26-1.311
		c1.28-4.88,4.26-9.34,6.39-13.88c11.18-23.899,16.39-50.8,17.32-77.06c0.21-5.92,0.09-11.84-0.3-17.74
		c-0.03-0.46-0.23-0.81-0.51-1.05c0.02-0.141,0.03-0.29,0.01-0.45c-2.54-20.05-11.25-38.87-17.87-57.79
		c-3.6-10.29-6.25-20.83-9.61-31.18c-3.41-10.54-7.36-20.94-9.07-31.931c-0.07-0.43-0.28-0.72-0.55-0.89
		c0.06-0.3,0.04-0.63-0.1-0.97c-4.47-10.21-0.5-22.84,1.5-33.21c2.16-11.17,1.74-22.44,2.25-33.771c0.28-6.32,0.6-12.58,0.39-18.91
		c-0.21-6.55-0.39-13.1,1.51-19.45c1.84-6.16,6.75-11.49,10.6-16.45c1.6-2.05,3.12-4.15,4.45-6.38c1.54-2.59,2.11-5.64,4.06-8.01
		c0.08-0.1,0.15-0.2,0.2-0.3c0.2,0.13,0.45,0.22,0.74,0.24c12.34,0.75,21.1-8.52,23.78-19.92c1.15-4.89,2.54-15.13-0.99-20.59
		c7.08,0.35,10.43,7.82,12.22,13.95c2.92,9.99,2.93,20.88,2.12,31.17c-0.79,10.14-2.78,20.61-7.02,29.92
		c-3.99,8.76-12.81,16.74-22.85,9.67c-1.59-1.11-3.09,1.49-1.52,2.6c5.41,3.8,11.23,3.7,16.18,1.27c5.18,5.5,4.11,15.58,5.08,22.6
		c1.45,10.48,4.27,20.85,5.27,31.36c1.67,17.67-10.75,30.52-20.83,43.41c-1.18,1.5,0.93,3.64,2.12,2.119
		c10.79-13.79,22.77-26.649,21.72-45.279c0.75,0.319,1.8,0.109,2.17-0.88c-0.53,1.42-0.82,0.6,0.56,1.779
		c0.94,0.811,1.79,1.721,2.65,2.62c1.52,1.59,2.95,3.28,4.36,4.98c4.6,5.55,9.04,11.29,13.39,17.029
		c4.89,6.45,9.01,13.37,13.57,20.03c3.91,5.7,8.29,11.07,12.51,16.53c8.77,11.37,15.73,23.25,17.8,37.68
		c2.51,17.48,5.57,35.41,2.76,53.05c-0.3,1.891,2.59,2.71,2.9,0.801c2.89-18.21-0.15-36.601-2.77-54.65
		c-2.38-16.42-11-29.29-20.99-42.11c-11.28-14.479-20.82-30.08-32.26-44.449c-1.59-2-13.46-18.45-16.85-14.971
		c-0.1-1.189-0.25-2.37-0.4-3.55c13.66,4.8,21.09,18.76,32.32,27.13c7.14,5.32,15.84,8.5,23.24,13.49c4,2.7,7.4,5.82,10.87,9.14
		c2.73,2.61,6.28,4.58,8.88,7.19c1.37,1.36,3.49-0.76,2.13-2.13c-0.36-0.351-0.71-0.7-1.06-1.05c-0.15-0.15-0.31-0.25-0.48-0.33
		c-2.35-1.971-5.11-3.681-7.35-5.801c-2.83-2.67-5.57-5.529-8.77-7.79c-7.88-5.579-16.74-9.35-24.84-14.539
		c-12.84-8.25-19.53-23.45-34.72-28.431c-0.25-0.08-0.48-0.09-0.68-0.06c-1.42-8.84-3.72-17.64-4.72-26.49
		c-0.76-6.72-0.29-14.65-4.93-20.01c2.39-1.7,4.48-3.95,6.08-6.54c6.03-9.8,8.15-22.14,9.31-33.4c1.19-11.66,1-24.1-2.5-35.38
		c-0.89-2.9-2.22-5.87-4.01-8.39c0.02-0.09,0.04-0.18,0.05-0.28c0.78-10.07,4.62-19.27,10.42-27.47c2.94-4.15,6.57-7.8,10.43-11.1
		c5.67-4.85,11.26-6.22,18.55-4.82c2.11,0.41,4.16,1.1,6.19,1.79c2.59,0.87,3.84,5.45,4.54,7.64c1.75,5.45,1.09,11.48,0.01,16.97
		c-1.91,9.76-6.08,18.94-8.71,28.5c-0.06,0.24-0.07,0.46-0.04,0.66c-0.13,0.16-0.24,0.35-0.3,0.59c-2.17,7.98-4.19,15.99-6.11,24.03
		c-0.06,0.27-0.05,0.52,0,0.74c-0.14,0.16-0.25,0.35-0.32,0.6c-0.07,0.27-0.14,0.54-0.21,0.81c-0.91,1.35-1.42,2.88-1.45,4.56
		c0,0.27,0.05,0.49,0.15,0.68c-3.07,13.74-4.16,28.07-11.43,40.43c-0.13,0.23-0.19,0.45-0.21,0.66c-0.94,3.65-1.22,7.96-3.01,11.29
		c-1.68,3.12-2.58,6.63-3.45,10.04c-0.47,1.88,2.42,2.67,2.9,0.8c0.94-3.72,2.045-7.25,3.875-10.64
		c1.63-3.05,1.675-7.52,2.675-10.86c0-0.01,0-0.01,0-0.02c8-14.01,8.615-30.34,12.735-45.67c0.03-0.03,0.028-0.06,0.057-0.09
		c0.391-0.46,0.455-0.98,0.314-1.44c0.02-0.18,0.006-0.34-0.023-0.49c0.13-0.16,0.229-0.36,0.289-0.6
		c1.92-8.04,3.939-16.05,6.109-24.03c0.07-0.24,0.069-0.46,0.04-0.66c0.13-0.16,0.239-0.35,0.299-0.59
		c3.22-11.69,8.39-22.81,9.69-34.97c0.54-5.03,0-10.61-2.12-15.24c-0.8-1.73-1.91-4.89-3.63-5.9c-1.24-0.72-2.71-1.23-4.24-1.64
		c2.74-13.53,21.56-23.13,32.87-13.2c6.98,6.13,4.98,16.07,2.32,23.7c-1.3,3.74-2.78,7.38-3.58,11.27c-0.78,3.79-1,7.56-2.26,11.25
		c-0.26,0.75,0.08,1.32,0.61,1.61c-3.15,14.77-3.54,29.85-3.86,44.91c-0.17,8.1-0.41,16.19-1.04,24.26
		c-0.65,8.37-1.03,17.25-4.31,25.07c-0.12,0.29-0.14,0.55-0.09,0.78c-4.07,7.37-7.48,15.08-10.63,22.89c-0.72,1.8,2.18,2.57,2.9,0.8
		c3.19-7.91,6.67-15.7,10.85-23.14c0.24-0.43,0.25-0.85,0.11-1.21c2.48-6.29,2.94-12.95,3.64-19.62c0.85-8.04,1.22-16.1,1.44-24.18
		c0.48-17.55,0.39-35.15,4.46-52.35c0.15-0.64-0.09-1.15-0.49-1.48c0.98-3.95,1.26-8.03,2.31-11.98c1.46-5.46,3.99-10.51,5.1-16.09
		c0.39-1.98,0.5-3.96,0.34-5.9c0.29-0.03,0.58-0.15,0.85-0.39c12.34-10.9,26.08,7.46,27.54,19.04c1.32,10.5-2.29,22.63,2.34,32.55
		c-0.92,0.23-1.86,0.59-2.84,1.13c-0.13,0.07-0.23,0.15-0.33,0.24c-0.15,0.07-0.29,0.17-0.43,0.3c-12.13,12.1-11.28,29-8.72,44.71
		c0.05,0.29,0.16,0.51,0.3,0.68c-0.09,0.26-0.12,0.55-0.03,0.89c2.51,9.86,1.83,19.97,0.49,29.96c-1.02,7.55-2.71,14.76-1.86,22.37
		c-0.11,9.06-1.88,18-2.02,27.07c-0.03,1.94,2.97,1.93,3,0c0.13-8.61,1.74-17.1,1.99-25.69c0.1-0.24,0.15-0.52,0.1-0.83
		c-0.03-0.18-0.04-0.36-0.07-0.55c0.01-0.97,0.01-1.95-0.02-2.93c-0.01-0.34-0.12-0.62-0.28-0.84c-0.22-7.87,1.89-15.76,2.75-23.56
		c0.96-8.65,0.97-17.33-1.19-25.8c-0.07-0.29-0.21-0.5-0.37-0.67c0.11-0.26,0.16-0.56,0.11-0.89c-2.38-14.6-3.37-30.51,7.94-41.79
		c0-0.01,0.01-0.02,0.01-0.02c0.05-0.02,0.1-0.04,0.15-0.06c13.9-7.63,23.19,31.88,25.15,40.33c4.15,17.97,4.41,37.02,5.5,55.38
		C475.32,275.85,475.47,294.29,473.5,312z"/>
</g>
<g id="제비">
	<g>
		<polygon fill="#FBB03B" points="450.274,263.771 411.458,272.854 421.97,323.129 452.487,287.948 		"/>
		<polygon fill="#FBB03B" points="462.146,289.341 435.106,291.512 413.988,346.104 415.702,373.474 452.528,372.771 
			505.095,330.313 518.029,313.875 518.465,298.926 		"/>
	</g>
	<polyline fill="none" stroke="#42210B" stroke-width="6" stroke-miterlimit="10" points="466.111,383.72 457.699,414.307 
		475.664,424.26 	"/>
	<polyline fill="none" stroke="#42210B" stroke-width="6" stroke-miterlimit="10" points="451.293,439.409 457.699,414.307 
		437.748,422.773 	"/>
	<polyline fill="none" stroke="#603813" stroke-width="6" stroke-miterlimit="10" points="449.331,382.422 440.919,413.01 
		458.885,422.962 	"/>
	<polyline fill="none" stroke="#603813" stroke-width="6" stroke-miterlimit="10" points="434.514,438.113 440.919,413.01 
		420.969,421.476 	"/>
	<path fill="#F15A24" stroke="#000000" stroke-width="3" stroke-miterlimit="10" d="M533.07,216.232c0,0,3.416-20.075,28.361-15.772
		l-16.348,36.083l28.574-2.245c0,0-2.58,23.405-26.391,30.856"/>
	<path fill="#FBB03B" stroke="#000000" stroke-width="3" stroke-miterlimit="10" d="M544.733,275.076
		C534,305.968,501.058,323.128,471.16,313.4c-29.901-9.725-45.441-42.656-34.71-73.547c10.733-30.894,43.675-48.051,73.575-38.327
		C539.928,211.255,555.466,244.187,544.733,275.076z"/>
	<path fill="#FBB03B" stroke="#000000" stroke-width="3" stroke-miterlimit="10" d="M520.166,308.216
		c0,0-19.969,56.746-22.733,59.728"/>
	<path fill="#FBB03B" stroke="#000000" stroke-width="3" stroke-miterlimit="10" d="M503.086,324.106
		c-0.797,2.277,62.566-33.171,89.737-12.262l-26.151,11.576c0,0,40.574,8.875,31.667,25.669c0,0-22.93-3.027-34.288-9.261
		c0,0,10.727,9.83,6.561,21.818c0,0-24.865-2.38-25.637-8.348l-7.252-13.799c0,0,4.192,19.788-5.752,16.554
		c0,0-12.826,3.45-25.137-15.166c0,0-5.458,64.297-71.032,35.343"/>
	<path fill="#FBB03B" stroke="#000000" stroke-width="3" stroke-miterlimit="10" d="M445.534,364.148
		c0,0-13.655,21.608-27.821,16.364l-12.711-4.125l11.7-8.904"/>
	<path fill="#FBB03B" stroke="#000000" stroke-width="3" stroke-miterlimit="10" d="M429.412,346.836
		c-14.406-2.779-20.667-13.076-20.667-13.076c-11.021-21.377-9.734-12.692-9.734-12.692c-7.52,12.794,6.631,26.931,6.631,26.931
		l-17.042-9.357c-0.41,10.037,15.328,19.599,15.328,19.599l-10.495-3.417c-1.995,14.602,12.925,15.009,12.925,15.009l7.453-0.144"/>
	<path fill="#FBB03B" stroke="#000000" stroke-width="3" stroke-miterlimit="10" d="M417.022,341.79c0,0-11.712-11.052,27.67-47.16"
		/>
	<polyline opacity="0.3" fill="#FBB03B" stroke="#000000" stroke-width="3" stroke-miterlimit="10" points="518.385,307.636 
		518.841,317.749 518.385,307.636 518.53,318.65 	"/>
	<path fill="#FBB03B" stroke="#000000" stroke-width="3" stroke-miterlimit="10" d="M422.75,318.663l-3.869-4.347
		c-3.174-12.983,4.008-11.528,4.008-11.528c-17.362,3.973-21.908,0.22-21.908,0.22c1.914-7.276,9.293-12.587,9.293-12.587
		c-15.285,3.289-17.012-2.358-17.012-2.358c-0.301-11.53,10.807-12.136,10.807-12.136c-27.144-7.316-21.338-12.418-21.338-12.418
		c18.029-7.643,31.059,2.642,31.059,2.642c-12.3-14.164-8.575-23.112-8.575-23.112c10.412,7.197,28.121,22.487,28.121,22.487"/>
	<circle cx="518.385" cy="243.038" r="22.613"/>
	<g>
		<path fill="#FFFFFF" d="M537.459,235.989c0,2.241-4.341,3.276-5.467,5.073c-1.135,1.81-0.12,6.14-2.058,7.175
			c-1.837,0.981-4.9-2.223-7.16-2.223c-2.259,0-5.323,3.204-7.16,2.223c-1.938-1.035-0.923-5.365-2.058-7.175
			c-1.126-1.796-5.467-2.832-5.467-5.072s4.341-3.276,5.468-5.072c1.135-1.81,0.119-6.14,2.057-7.175
			c1.837-0.981,4.901,2.223,7.16,2.223c2.26,0,5.323-3.204,7.16-2.223c1.938,1.035,0.923,5.365,2.058,7.175
			C533.118,232.712,537.459,233.748,537.459,235.989z"/>
	</g>
	<ellipse fill="#FFFFFF" cx="512.982" cy="257.246" rx="7.184" ry="4.525"/>
	<g>
		
			<rect x="440" y="389" transform="matrix(0.9591 0.2829 -0.2829 0.9591 131.0632 -109.5958)" fill="#FFFFFF" stroke="#42210B" stroke-width="2" stroke-miterlimit="10" width="10" height="20"/>
		<line fill="none" stroke="#42210B" stroke-width="2" stroke-miterlimit="10" x1="441.902" y1="391.83" x2="451.494" y2="394.66"/>
		
			<line fill="none" stroke="#42210B" stroke-width="2" stroke-miterlimit="10" x1="440.204" y1="397.585" x2="449.796" y2="400.415"/>
		
			<line fill="none" stroke="#42210B" stroke-width="2" stroke-miterlimit="10" x1="438.79" y1="402.381" x2="448.381" y2="405.211"/>
	</g>
</g>
<g id="말풍선">
	<path fill="#FFFFFF" stroke="#000000" stroke-width="2" stroke-miterlimit="10" d="M822.5,321.567
		c62.704,16.736,104.671,66.512,93.729,111.179c-0.469,1.93-1.066,3.806-1.72,5.649l20.078,15.387l-39.596,12.261
		c-25.181,21.277-67.88,29.08-112.098,17.278c-62.699-16.735-104.664-66.513-93.731-111.176
		C700.105,327.478,759.798,304.834,822.5,321.567z"/>
	<path fill="#FFFFFF" stroke="#000000" stroke-width="2" stroke-miterlimit="10" d="M175.226,184.013
		c-64.582-6.41-114.023-48.77-110.425-94.616c0.152-1.98,0.439-3.928,0.787-5.853l-22.295-11.95l37.101-18.482
		c21.422-25.058,62.305-39.642,107.847-35.122c64.577,6.41,114.016,48.772,110.426,94.613
		C295.068,158.45,239.806,190.42,175.226,184.013z"/>
	<text transform="matrix(1 0 0 1 724.334 387.9941)"><tspan x="0" y="0" font-family="'Gungsuh'" font-size="18">그래~치료는 끝났다.</tspan><tspan x="0" y="21.6" font-family="'Gungsuh'" font-size="18">이제 다 자랄 때까지</tspan><tspan x="0" y="43.199" font-family="'Gungsuh'" font-size="18">잘 보살펴주거라</tspan><tspan x="131.994" y="43.199" font-family="'AdobeMyungjoStd-Medium-KSCpc-EUC-H'" font-size="12">.</tspan></text>
	<text transform="matrix(1 0 0 1 80.333 89.5166)"><tspan x="0" y="0" font-family="'Gungsuh'" font-size="18">아버지!</tspan><tspan x="0" y="21.6" font-family="'Gungsuh'" font-size="18">이제 제비 안아픈거 맞죠?</tspan></text>
</g>
</svg>
