<?xml version="1.0" encoding="utf-8"?>
<!-- Generator: Adobe Illustrator 16.0.0, SVG Export Plug-In . SVG Version: 6.00 Build 0)  -->
<!DOCTYPE svg PUBLIC "-//W3C//DTD SVG 1.1//EN" "http://www.w3.org/Graphics/SVG/1.1/DTD/svg11.dtd">
<svg version="1.1" xmlns="http://www.w3.org/2000/svg" xmlns:xlink="http://www.w3.org/1999/xlink" x="0px" y="0px" width="960px"
	 height="560px" viewBox="0 0 960 560" enable-background="new 0 0 960 560" xml:space="preserve">
<symbol  id="New_Symbol" viewBox="-31 -29.159 62 58.318">
	<g>
		<polygon fill="#A67C52" points="30.072,-0.406 29.458,-7.932 25.12,-14.091 19.585,-18.604 14.799,-24.055 8.48,-28.566 
			0.792,-24.187 -5.77,-24.001 -12.971,-23.6 -20.527,-21.349 -20.975,-12.48 -24.313,-6.897 -30.004,-0.406 -27.264,6.942 
			-21.67,12.105 -18.565,18.406 -12.255,21.444 -6.413,25.798 0.792,28.625 8.069,26.09 13.772,21.317 18.792,16.931 26.967,14.438 
			28.606,6.872 		"/>
		<polygon fill="none" stroke="#000000" stroke-miterlimit="10" points="30.072,-0.406 29.458,-7.932 25.12,-14.091 19.585,-18.604 
			14.799,-24.055 8.48,-28.566 0.792,-24.187 -5.77,-24.001 -12.971,-23.6 -20.527,-21.349 -20.975,-12.48 -24.313,-6.897 
			-30.004,-0.406 -27.264,6.942 -21.67,12.105 -18.565,18.406 -12.255,21.444 -6.413,25.798 0.792,28.625 8.069,26.09 
			13.772,21.317 18.792,16.931 26.967,14.438 28.606,6.872 		"/>
	</g>
	<polygon display="none" fill="none" points="-31,29 31,29 31,-29 -31,-29 	"/>
</symbol>
<g id="Layer_1">
	<rect x="-9.5" y="-26.5" fill="#C69C6D" stroke="#000000" stroke-miterlimit="10" width="996" height="605"/>
	<path fill="#C69C6D" stroke="#000000" stroke-miterlimit="10" d="M407.573,251.825"/>
	<g>
		
			<use xlink:href="#New_Symbol"  width="62" height="58.318" x="-31" y="-29.159" transform="matrix(0.4995 -0.2164 -0.2101 -0.5144 60.0513 119.4604)" overflow="visible" opacity="0.6511"/>
		
			<use xlink:href="#New_Symbol"  width="62" height="58.318" x="-31" y="-29.159" transform="matrix(0.208 -0.3008 -0.2921 -0.2142 84.064 63.8696)" overflow="visible" opacity="0.8124"/>
		
			<use xlink:href="#New_Symbol"  width="62" height="58.318" x="-31" y="-29.159" transform="matrix(0.2576 -0.2152 -0.2089 -0.2653 190.6851 44.3662)" overflow="visible"/>
		
			<use xlink:href="#New_Symbol"  width="62" height="58.318" x="-31" y="-29.159" transform="matrix(0.2581 0.059 0.0573 -0.2658 344.7852 115.499)" overflow="visible" opacity="0.8672"/>
		
			<use xlink:href="#New_Symbol"  width="62" height="58.318" x="-31" y="-29.159" transform="matrix(0.4027 0.0846 0.0822 -0.4147 490.5967 92.1191)" overflow="visible"/>
		
			<use xlink:href="#New_Symbol"  width="62" height="58.318" x="-31" y="-29.159" transform="matrix(0.4983 0.2223 0.2158 -0.5131 697.1582 112.6157)" overflow="visible" opacity="0.6557"/>
		
			<use xlink:href="#New_Symbol"  width="62" height="58.318" x="-31" y="-29.159" transform="matrix(0.1496 0.3582 0.3478 -0.154 824.0576 146.1685)" overflow="visible" opacity="0.9897"/>
		
			<use xlink:href="#New_Symbol"  width="62" height="58.318" x="-31" y="-29.159" transform="matrix(0.1043 0.3338 0.3242 -0.1074 851.9482 199.7754)" overflow="visible"/>
		
			<use xlink:href="#New_Symbol"  width="62" height="58.318" x="-31" y="-29.159" transform="matrix(0.2418 0.332 0.3224 -0.249 744.7568 253.9771)" overflow="visible" opacity="0.9908"/>
		
			<use xlink:href="#New_Symbol"  width="62" height="58.318" x="-31" y="-29.159" transform="matrix(0.2475 0.1811 0.1759 -0.2549 601.9121 293.5508)" overflow="visible" opacity="0.6486"/>
		
			<use xlink:href="#New_Symbol"  width="62" height="58.318" x="-31" y="-29.159" transform="matrix(0.3178 -0.0058 -0.0056 -0.3273 374.6816 266.1152)" overflow="visible" opacity="0.9647"/>
		
			<use xlink:href="#New_Symbol"  width="62" height="58.318" x="-31" y="-29.159" transform="matrix(0.1576 0.009 0.0087 -0.1623 326.8813 147.3867)" overflow="visible" opacity="0.9761"/>
		
			<use xlink:href="#New_Symbol"  width="62" height="58.318" x="-31" y="-29.159" transform="matrix(0.0652 -0.2105 -0.2044 -0.0672 215.2456 275.9668)" overflow="visible"/>
		
			<use xlink:href="#New_Symbol"  width="62" height="58.318" x="-31" y="-29.159" transform="matrix(0.0946 -0.3 -0.2913 -0.0974 142.1353 351.8525)" overflow="visible"/>
		
			<use xlink:href="#New_Symbol"  width="62" height="58.318" x="-31" y="-29.159" transform="matrix(0.1464 0.0892 0.0866 -0.1507 304.2437 478.4746)" overflow="visible"/>
		
			<use xlink:href="#New_Symbol"  width="62" height="58.318" x="-31" y="-29.159" transform="matrix(0.3516 0.0183 0.0178 -0.3621 327.7378 395.0938)" overflow="visible" opacity="0.7152"/>
		
			<use xlink:href="#New_Symbol"  width="62" height="58.318" x="-31" y="-29.159" transform="matrix(0.1686 0.1626 0.1579 -0.1736 362.644 463.4521)" overflow="visible" opacity="0.9632"/>
		
			<use xlink:href="#New_Symbol"  width="62" height="58.318" x="-31" y="-29.159" transform="matrix(0.2465 0.0503 0.0489 -0.2539 540.6787 452.4639)" overflow="visible" opacity="0.4231"/>
		
			<use xlink:href="#New_Symbol"  width="62" height="58.318" x="-31" y="-29.159" transform="matrix(0.1585 -0.2399 -0.2329 -0.1632 740.2891 511.2939)" overflow="visible"/>
		
			<use xlink:href="#New_Symbol"  width="62" height="58.318" x="-31" y="-29.159" transform="matrix(0.2927 0.022 0.0213 -0.3014 832.1855 487.0781)" overflow="visible" opacity="0.8148"/>
		
			<use xlink:href="#New_Symbol"  width="62" height="58.318" x="-31" y="-29.159" transform="matrix(0.1869 -0.0014 -0.0014 -0.1925 877.3076 408.8438)" overflow="visible" opacity="0.7376"/>
		
			<use xlink:href="#New_Symbol"  width="62" height="58.318" x="-31" y="-29.159" transform="matrix(0.0241 0.4438 0.4309 -0.0248 946.7109 352.4131)" overflow="visible" opacity="0.5369"/>
	</g>
</g>
<g id="Layer_2">
	<g>
		<rect x="471.5" y="221.5" fill="#8CC63F" stroke="#000000" stroke-miterlimit="10" width="12" height="121"/>
		<path fill="#603813" stroke="#000000" stroke-miterlimit="10" d="M491.334,353c0,0,15.333-45.667,42.333-1.667"/>
		<path fill="#8CC63F" stroke="#000000" stroke-miterlimit="10" d="M478.339,220.943c1.551,14.831,11.46,24.068,42.861,20.785
			c31.401-3.283,70.853-32.674,70.853-32.674s-45.65-21.054-77.051-17.771C483.6,194.566,476.788,206.112,478.339,220.943z"/>
		<path fill="#8CC63F" stroke="#000000" stroke-miterlimit="10" d="M478.572,226.825c-1.721,14.813-12.044,23.899-44.503,20.129
			c-32.458-3.771-73.039-33.783-73.039-33.783s47.391-20.354,79.849-16.584C473.338,200.357,480.293,212.014,478.572,226.825z"/>
		<g>
			<path d="M477.603,225.067c-0.019-0.07-1.894-7.134-11.077-12.258c-10.045-5.603-30.323-9.665-69.891,2.812l-0.602-1.907
				c40.337-12.72,61.179-8.435,71.56-2.599c9.91,5.57,11.873,13.152,11.952,13.472L477.603,225.067z"/>
		</g>
		<g>
			<path d="M479.974,223.067c0.019-0.07,1.894-7.134,11.077-12.258c10.045-5.603,30.323-9.665,69.891,2.812l0.602-1.907
				c-40.337-12.72-61.179-8.435-71.559-2.599c-9.91,5.57-11.873,13.152-11.952,13.472L479.974,223.067z"/>
		</g>
		<path fill="#603813" stroke="#000000" stroke-miterlimit="10" d="M417.333,342.5c0,0,35-39.5,58.333,10.5"/>
		<path fill="#603813" stroke="#000000" stroke-miterlimit="10" d="M442.333,357.333c0,0,34.823-55.5,65.667,0"/>
	</g>
</g>
</svg>
