<?xml version="1.0" encoding="utf-8"?>
<!-- Generator: Adobe Illustrator 16.0.0, SVG Export Plug-In . SVG Version: 6.00 Build 0)  -->
<!DOCTYPE svg PUBLIC "-//W3C//DTD SVG 1.1//EN" "http://www.w3.org/Graphics/SVG/1.1/DTD/svg11.dtd">
<svg version="1.1" xmlns="http://www.w3.org/2000/svg" xmlns:xlink="http://www.w3.org/1999/xlink" x="0px" y="0px" width="960px"
	 height="560px" viewBox="0 0 960 560" enable-background="new 0 0 960 560" xml:space="preserve">
<g id="배경">
	<rect x="-26" y="-26" fill="#3FA9F5" width="1008" height="662"/>
	<g>
		<path fill="#FFFFFF" d="M302.788,108.084c0,10.194-0.603,13.473-16.751,21.223c-10.083,4.839-20.834,10.608-35.431,13.894
			c-11.834,2.664-24.876-0.691-38.864,0.676c-12.493,1.221-24.721,4.754-38.38,4.754c-13.659,0-27.542,13.397-40.035,12.176
			c-13.987-1.366-28.071-2.962-39.906-5.626c-14.597-3.285-21.689-23.043-31.772-27.883c-16.146-7.75-39.033-9.02-39.033-19.213
			s13.81-30.377,29.958-38.127c10.083-4.839,30.739,14.254,45.336,10.969c11.835-2.663,21.858-19.829,35.845-21.196
			c12.493-1.221,25.949-10.214,39.607-10.214c13.659,0,26.26,17.743,38.753,18.964c13.988,1.367,29.881-12.501,41.716-9.837
			c14.597,3.285,21.925,23.798,32.007,28.637C301.986,95.03,302.788,97.891,302.788,108.084z"/>
	</g>
	<g>
		<path fill="#FFFFFF" d="M885.376,149.765c0,7.644-2.677,10.935-15.89,16.17c-8.16,3.234-17.225,6.802-28.637,8.472
			c-9.448,1.382-19.385-0.983-30.206-0.983c-10.82,0-20.553,0.972-30.002-0.41c-11.413-1.669-23.617,3.562-31.779,0.327
			c-13.212-5.236-24.17-15.933-24.17-23.576s14.368-9.738,27.582-14.974c8.161-3.234,15.567-16.095,26.979-17.765
			c9.447-1.382,20.569-3.603,31.39-3.603s20.075,14.979,29.523,16.36c11.413,1.669,23.161-4.474,31.322-1.239
			C884.702,133.781,885.376,142.122,885.376,149.765z"/>
	</g>
	<path fill="#C69C6D" stroke="#000000" stroke-width="2" stroke-miterlimit="10" d="M-33.764,462.839
		c0,0,498.98-73.731,1020.764,17.283v150.262l-1038.159,6.01L-33.764,462.839z"/>
</g>
<g id="집">
	<g>
		<g id="XMLID_1_">
			<g>
				<path fill="#1B1464" d="M834.25,111.17c0,0,7.75,3.41,7,5.25c0,0-21.56,22.08-24.4,22.25c0,0-1.04,0.24-2.35,0.24
					c-1.04,0-2.25-0.14-3.25-0.66c0,0-0.67-0.31-1.72-0.74c-0.011,0-0.021-0.01-0.03-0.01c-1.66-0.69-4.24-1.69-6.58-2.25
					l-3.86-1.74c2.051,0.31,4.23,0.72,6.62,1.27c0.54,0.13,1.09,0.26,1.65,0.4c0,0,0.979,0.33,2.189-0.09
					c0.82-0.29,1.75-0.9,2.561-2.21c0,0,0.14-0.38,0.41-0.38h0.01c0.02-0.01,0.03-0.03,0.05-0.04c2.11-2.1,10.95-11.23,16.72-16.81
					c0.011-0.01,0.011-0.01,0.021-0.02C831.8,113.22,833.72,111.42,834.25,111.17z"/>
				<path fill="#2E3192" d="M829.29,115.63c-0.01,0.01-0.01,0.01-0.021,0.02c-5.77,5.58-14.609,14.71-16.72,16.81l-0.05-0.05
					l-20.23-4.49l0.41-1.84c1.94-3.18,6.49-9.64,11.74-10.58l-0.25-0.25l0.25-0.25l24.85,0.61L829.29,115.63z"/>
				<path fill="#1B1464" d="M809.5,137.51v-0.01c0.01,0,0.02,0.01,0.03,0.01c1.05,0.43,1.72,0.74,1.72,0.74
					c1,0.52,2.21,0.66,3.25,0.66v0.17c-11.88,17.46-35.25,13.82-35.25,13.82c-8.5-0.23-9.25,8.48-9.25,8.48l-6-0.26l-0.37-1.73
					c0.32-0.07,0.61-0.14,0.87-0.22c0,0,0.38-1.07,1.2-2.54l0.09,0.05c1.92-3.32,6.02-8.63,13.03-8.18c0,0,18.83-1,22.489-3.33
					C801.31,145.17,809.5,139.95,809.5,137.51z"/>
				<path fill="#2E3192" d="M792.27,127.92l20.23,4.49l0.05,0.05c-0.02,0.01-0.03,0.03-0.05,0.04h-0.01
					c-0.271,0-0.41,0.38-0.41,0.38c-0.811,1.31-1.74,1.92-2.561,2.21c-1.21,0.42-2.189,0.09-2.189,0.09
					c-0.561-0.14-1.11-0.27-1.65-0.4c-2.39-0.55-4.569-0.96-6.62-1.27c-10.329-1.56-17.67-0.73-34.479-3.34
					c-4.88-0.76-9.42-1.49-13.5-2.17c-2.9-0.48-5.58-0.93-7.99-1.34h-0.01c-8.74-1.5-14-2.49-14-2.49l0.66-0.75
					c1.41-0.79,1.79-1.94,1.83-2.08l0.01-0.01c0.11,0,0.229,0,0.34,0.01c0,0,51,7.33,59.75,6.49c0,0,0.36-0.69,1.01-1.75
					L792.27,127.92z"/>
				<path fill="#2E3192" d="M809.5,137.5v0.01c0,2.44-8.19,7.66-8.19,7.66c-3.659,2.33-22.489,3.33-22.489,3.33
					c-7.011-0.45-11.11,4.86-13.03,8.18l-0.09-0.05L751.08,128c4.08,0.68,8.62,1.41,13.5,2.17c16.81,2.61,24.15,1.78,34.479,3.34
					l3.86,1.74C805.26,135.81,807.84,136.81,809.5,137.5z"/>
				<path fill="#2E3192" d="M804.17,115.25l0.25,0.25c-5.25,0.94-9.8,7.4-11.74,10.58c-0.649,1.06-1.01,1.75-1.01,1.75
					c-8.75,0.84-59.75-6.49-59.75-6.49c13.061,0.22,26.49-0.92,26.49-0.92c2.93-6.27,6.42-9.13,7.89-10.12
					c5.48,1.79,37.2,4.28,37.2,4.28L804.17,115.25z"/>
				<path fill="#2E3192" d="M767,109.87c0,0-0.26,0.13-0.7,0.43c-1.47,0.99-4.96,3.85-7.89,10.12c0,0-13.43,1.14-26.49,0.92
					c-0.11-0.01-0.229-0.01-0.34-0.01c1.29-5.73,7.38-13.26,10.9-17.25c0,0,2.479,2.51,12.109,4.32
					C757.84,109.01,761.92,109.54,767,109.87z"/>
				<path fill="#2E3192" d="M673.77,139.08l-11.819-33.22c0,0,4.05-6.03,10.55-6.03s14.3-0.18,16.4-1.59l0.069-0.09
					c0.04,0.03,0.08,0.06,0.12,0.09c3.8,2.75,7.28,5.57,12.13,8.38l-0.09,0.16c0,0,5.51,14.34,10.55,27.7c0,0,4.65-8.23,20.99-4.6
					c0,0,5.83-1.06,10.41-3.22h0.01c2.41,0.41,5.09,0.86,7.99,1.34l14.62,28.63c-0.82,1.47-1.2,2.54-1.2,2.54
					c-0.26,0.08-0.55,0.15-0.87,0.22c-5.75,1.19-21.3,0.44-21.3,0.44c-7.16-0.66-10.41-3.16-10.41-3.16c-4.08-2-8.75,6.66-8.75,6.66
					c-5,8.34-23.34,3.57-23.34,3.57c-6.83-4.94-9.33-1.4-9.33-1.4c-1.17,4.33-6.5,2.33-6.5,2.33L673.77,139.08z"/>
				<path fill="#1B1464" d="M575.5,182.04c-8.78-6.55-15.75-0.16-15.75-0.16c-3.57,3.18-8.04,4.43-12.29,4.72
					c-7.39,0.5-14.08-1.86-14.08-1.86c-5.88-7.26-11.76-2.12-11.76-2.12c-9.5,8.63-25.5,7.16-25.5,7.16
					c-10.87-5.1-17.37-3.78-17.37-3.78c-3.63,3.62-6.63,2.12-6.63,2.12c-3.67-3.94-6.26-3.92-7.38-3.63l-0.47-1.63
					c0.57-0.17,1.15-0.34,1.73-0.53c0,0,5.33-6.83,20.5,0c0,0,20.83,6.39,27-1.64c0,0,12.33-7.36,24.33-1.19c0,0,9.5,4.08,19-2.46
					c0,0,9-8.21,23.17-0.87c0,0,11.5,5,15.5-1c0,0,9.33-7.17,13.17-5.34c0,0,9.83,5.2,16.33,2.52c0,0,7.5-4.52,10.83-3.52
					c0,0,5.34,2.5,9.17-3c0,0,8.17-5,15.83,0c0,0,7.84,5.97,13.84,3.57c0,0,5.83-3.4,9.33-1.57c0,0,5.33,2,6.5-2.33
					c0,0,2.5-3.54,9.33,1.4c0,0,18.34,4.77,23.34-3.57c0,0,4.67-8.66,8.75-6.66c0,0,3.25,2.5,10.41,3.16c0,0,15.55,0.75,21.3-0.44
					l0.37,1.73c-1.62,2.76-7.88,2.63-7.88,2.63c-21.12-3.87-24.2-1.12-24.2-1.12c-2.34,2.85-4.88,4.99-7.42,6.6
					c-8.83,5.56-17.62,4.65-17.62,4.65c-3.06-1.82-6-2.58-8.38-2.86c-3.36-0.37-5.62,0.23-5.62,0.23l-2.38,2.87c0,0-2.38,2-3-0.37
					s-2.75-2.5-2.75-2.5c-1.87,8.75-17.37,3.92-17.37,3.92c-17-5.84-17-2.42-17-2.42c-5.13,4.13-6.16,3.13-6.16,3.13
					c-4.16-5.5-7.22-2.63-7.22-2.63c-4.42,4.38-14.88,6.25-14.88,6.25c-8.12-3.88-14.87-2.62-14.87-2.62c-4.75,0.5-6.13,5-6.13,5
					l-2.74,0.12c-1.5-2.25-2.88-1.88-2.88-1.88c-1.62,7.38-19.25,2.5-19.25,2.5C576,182.41,575.75,182.22,575.5,182.04z"/>
				<path fill="#999999" d="M737.91,396.51l23.42,11.51c-12.66,7.69-159.33,9.65-159.33,9.65c-7.33,0-119-3.33-119-3.33
					c-31-0.99-150.88-4.01-150.88-4.01c-95.2,7.67-163.79,1.979-163.79,1.979l51.4-24.92c-0.18,3.601,0.44,7.08,2.86,10.07
					c5.55,6.85,14.43,5.1,22.15,4.73c5.3-0.24,10.58,0.319,15.85,0.14c3.47-0.12,6.63-1.561,7.95-4.92
					c1.69-4.29,1.34-9.01,1.84-13.51c0.27-2.42,0.48-4.4-0.22-6.761c-0.6-1.989-1.69-3.84-2.71-5.64c0.04-0.24,0.05-0.5,0.02-0.78
					c-0.01-0.08-0.02-0.149-0.04-0.22h111.15c-1.91,1.17-3.56,2.52-3.69,3.79c-0.24-0.07-0.53,0.02-0.62,0.33
					c-0.6,1.97-1.13,3.93-1.37,5.979c-0.3,2.53,0.31,5.141,0.24,7.69c-0.1,4.27-1.43,8.16,1.29,11.94
					c2.12,2.939,6.17,3.609,9.53,3.68c4.85,0.09,9.86-0.86,14.65-1.55c2.34-0.341,4.66-0.73,7-1.101c2.79-0.43,5.41-0.16,8.2-0.01
					c3.63,0.2,6.96-1.51,8.16-5.1c1.4-4.16-0.41-7.75-0.32-11.931c0.04-2.21,1.03-4.25,0.66-6.489c-0.31-1.841-1.04-3.421-1.95-5
					c22.05-0.521,44.11-1.061,66.16-1.58c21.351-0.511,42.69-1.021,64.03-1.53h0.01l0.141,8.14c-0.021-0.01-0.05,0-0.08,0.01
					c-1.7,0.591-8.03,2.461-9.91,5.07c-0.09,0.04-0.16,0.141-0.19,0.28v0.01c-0.289,0.48-0.42,1-0.31,1.53
					c-1.52,7.53-3.11,16.55,2.14,22.87c2.19,2.64,4.99,4.41,8.36,5.08c2.05,0.409,4.15,0.069,6.2-0.04
					c2.74-0.141,5.479-0.13,8.21-0.301c6.92-0.439,15.57-2.699,20.07-8.38c2.46-3.09,2.369-6.89,2.439-10.64
					c0.04-2.48,0.12-4.62-0.58-7.02c-0.479-1.66-1.27-3.24-2.09-4.78c-0.05-2.33-2-3.38-4.33-3.851l102.98-1.899
					c-4.681,7.83-10.49,18.42-6.101,27.399c3.431,7.04,14.681,4.87,20.84,4.91c6.681,0.05,13.36,0.13,20.04,0.26
					c5.21,0.101,9.641,0.57,13.811-3.119C734.7,402.94,736.66,399.79,737.91,396.51z"/>
				<path fill="#666666" d="M761.33,408.02c0,0-1.66,53.65-6.33,55.65l-10.67,3c0,0-186-4.67-230.83,1.66c0,0-116.67,1.67-152.25-3
					c0,0-161.92,2-179.58,0.34c0,0-8,2.29-13.34-53.36c0,0,68.59,5.69,163.79-1.979c0,0,119.88,3.02,150.88,4.01
					c0,0,111.67,3.33,119,3.33C602,417.67,748.67,415.71,761.33,408.02z"/>
				<path fill="#2E3192" d="M724.5,121.32V108c0,0,2.86-3.61,6.87-6.87c3.3-2.68,7.39-5.13,11.3-5.13c0,0,17-3.67,15.66,10.33
					l-3.66,1.67l-1-7.33c0,0-6.75-0.75-8.67,0.66c0,0-1.03,1.05-2.52,2.75c-3.521,3.99-9.61,11.52-10.9,17.25l-0.01,0.01l-1.83,2.08
					c-1.061,0.6-2.71,1-5.24,0.58V121.32z"/>
				<path fill="#2E3192" d="M753.67,100.67l1,7.33l-0.08,0.4c-9.63-1.81-12.109-4.32-12.109-4.32c1.489-1.7,2.52-2.75,2.52-2.75
					C746.92,99.92,753.67,100.67,753.67,100.67z"/>
				<path d="M737.91,396.51c-1.25,3.28-3.21,6.431-5.71,8.641c-4.17,3.689-8.601,3.22-13.811,3.119
					c-6.68-0.13-13.359-0.21-20.04-0.26c-6.159-0.04-17.409,2.13-20.84-4.91c-4.39-8.979,1.42-19.569,6.101-27.399l0.31-0.01
					c-0.3,0.64-0.39,1.279-0.29,1.899c-2.18,3.7-4.27,7.53-5.42,11.66c-1.18,4.19-2.3,10.94,0.97,14.56
					c2.41,2.66,6.09,3.25,9.521,3.33c3.85,0.101,7.7-0.159,11.56-0.109c5.431,0.069,10.86,0.21,16.29,0.22
					c5.19,0.01,10.8,1.24,14.94-2.8c3.43-3.351,6.399-8.44,6.779-13.28c0.32-4.12-1.039-7.91-2.3-11.74
					c0.41-1.06,0.36-2.31-0.16-3.569c0.08,0.06,0.141,0.14,0.171,0.26c1.46,5.2,4.18,10.479,3.159,16.03
					C738.88,393.58,738.47,395.06,737.91,396.51z"/>
				<path fill="#B3B3B3" d="M735.97,379.43c1.261,3.83,2.62,7.62,2.3,11.74c-0.38,4.84-3.35,9.93-6.779,13.28
					c-4.141,4.04-9.75,2.81-14.94,2.8c-5.43-0.01-10.859-0.15-16.29-0.22c-3.859-0.05-7.71,0.21-11.56,0.109
					c-3.431-0.08-7.11-0.67-9.521-3.33c-3.27-3.619-2.149-10.369-0.97-14.56c1.15-4.13,3.24-7.96,5.42-11.66
					c0.14,0.91,0.68,1.79,1.55,2.57c2.71,2.47,8.07,2.13,11.471,2.52c6.069,0.69,12.109,1.181,18.21,1.59
					c3.199,0.221,6.47,0.471,9.68,0.15c2.76-0.28,5.78-1.45,8.41-2.31C734.51,381.59,735.52,380.62,735.97,379.43z M727.25,395.25
					c0.64,0,0.64-1,0-1S726.61,395.25,727.25,395.25z M720.73,395.38c0.119-0.63-0.851-0.899-0.961-0.26
					c-0.239,1.28-0.27,2.58-0.27,3.88c0,0.64,1,0.64,1,0C720.5,397.79,720.51,396.58,720.73,395.38z M709,390c0.64,0,0.64-1,0-1
					S708.36,390,709,390z M702.75,397c0-1.06-0.03-2.1-0.27-3.13c-0.141-0.63-1.11-0.37-0.961,0.26c0.221,0.95,0.23,1.9,0.23,2.87
					C701.75,397.64,702.75,397.64,702.75,397z"/>
				<path fill="#2E3192" d="M743.08,126.66c-4.58,2.16-10.41,3.22-10.41,3.22c-16.34-3.63-20.99,4.6-20.99,4.6
					c-5.04-13.36-10.55-27.7-10.55-27.7l0.09-0.16c0.09,0.05,0.181,0.11,0.28,0.16c0,0,0,0,0,0.01c6.99,5.01,15.11,10.01,23,14.53
					V124c2.53,0.42,4.18,0.02,5.24-0.58l-0.66,0.75C729.08,124.17,734.34,125.16,743.08,126.66z"/>
				<path d="M735.81,375.86c0.521,1.26,0.57,2.51,0.16,3.569c-0.27-0.81-0.529-1.609-0.77-2.43c-0.01-0.01-0.01-0.03-0.021-0.05
					c-0.05-0.19-0.109-0.38-0.16-0.57c-0.14-0.5,0.45-0.76,0.78-0.53L735.81,375.86z"/>
				<path d="M735.6,375.39c0.08,0.15,0.15,0.311,0.2,0.46c-0.33-0.229-0.92,0.03-0.78,0.53c0.051,0.19,0.11,0.38,0.16,0.57
					c-0.149-0.521-0.43-1.08-0.859-1.7c-2.34-3.35-6.17-4.77-9.82-6.22v-1.04c0.04,0,0.08,0.01,0.13,0.029
					C728.6,369.6,733.54,371.29,735.6,375.39z"/>
				<path d="M735.2,377c0.24,0.82,0.5,1.62,0.77,2.43c-0.45,1.19-1.46,2.16-3.02,2.681c-2.63,0.859-5.65,2.029-8.41,2.31
					c-3.21,0.32-6.48,0.07-9.68-0.15c-6.101-0.409-12.141-0.899-18.21-1.59c-3.4-0.39-8.761-0.05-11.471-2.52
					c-0.87-0.78-1.41-1.66-1.55-2.57c0.521-0.87,1.04-1.729,1.55-2.59c0.2-0.33-0.029-0.63-0.31-0.72c3.17-3.63,9.2-5.2,13.63-6.641
					v1.04c-3.96,1.311-8.19,2.65-11.56,5.16c-2.28,1.71-3.671,4.58-0.181,6.16c3.25,1.47,7.221,1.32,10.721,1.78
					c4.51,0.59,9.02,0.89,13.55,1.22c4.8,0.35,10.5,1.41,15.189,0.04C729.41,382.11,736.32,381.06,735.2,377z"/>
				<path fill="#B3B3B3" d="M735.2,377c1.12,4.06-5.79,5.11-8.98,6.04c-4.689,1.37-10.39,0.31-15.189-0.04
					c-4.53-0.33-9.04-0.63-13.55-1.22c-3.5-0.46-7.471-0.311-10.721-1.78c-3.49-1.58-2.1-4.45,0.181-6.16
					c3.369-2.51,7.6-3.85,11.56-5.16V372c0,0,20,5.5,26-2.5v-0.47c3.65,1.45,7.48,2.87,9.82,6.22c0.43,0.62,0.71,1.18,0.859,1.7
					C735.19,376.97,735.19,376.99,735.2,377z"/>
				<path fill="#2E3192" d="M674.45,78.64c7.069,6.56,17.189,15.19,29.59,23.65c1.99-2.55,5.57-6.91,6.63-6.72
					c1.5,0.26,7.16-1.89,7.16-1.89c5.5,3.52,10.35,6.24,13.17,6.99l0.37,0.46c-4.01,3.26-6.87,6.87-6.87,6.87v13.32
					c-7.89-4.52-16.01-9.52-23-14.53c0-0.01,0-0.01,0-0.01c-0.1-0.05-0.19-0.11-0.28-0.16c-4.85-2.81-8.33-5.63-12.13-8.38
					c-0.04-0.03-0.08-0.06-0.12-0.09C670.17,84.63,656.33,73,656.33,73s-3.68-2.36-5.47-5.12c-1.57-2.43-1.681-5.16,3.47-6.88
					c0,0,6-2,11-3.67L675.52,58c0,0,5.48,9.33,10.15,12.67c0,0,1.85,1.43,4.83,3.67c0,0-7.17,0.49-10,0.66
					C678.96,75.09,676.43,76.96,674.45,78.64z"/>
				<path d="M727.25,394.25c0.64,0,0.64,1,0,1S726.61,394.25,727.25,394.25z"/>
				<path fill="#754C24" d="M724.5,369.03v0.47c-6,8-26,2.5-26,2.5v-3.32c0.21-0.06,0.42-0.13,0.63-0.199
					c0.61-0.2,0.351-1.171-0.26-0.961c-0.12,0.04-0.25,0.08-0.37,0.12v-7.31v-5.66V235.5v-10.83v-53.65
					c2.38,0.28,5.32,1.04,8.38,2.86c0,0,8.79,0.91,17.62-4.65v198.76c-0.5-0.07-0.68,0.779-0.13,0.99
					C724.41,369,724.46,369.01,724.5,369.03z M720.38,326.88c0.061-0.649-0.939-0.64-1,0c-0.25,2.41-0.37,4.82-0.38,7.24
					c0,0.649,1,0.649,1,0C720.01,331.7,720.13,329.29,720.38,326.88z M715.17,197.67c0.03,0.64,1.03,0.64,1,0
					c-0.06-1.14-0.64-2.18-0.67-3.34c-0.02-0.64-1.02-0.64-1,0c0.02,0.59,0.12,1.17,0.26,1.74
					C714.9,196.59,715.14,197.12,715.17,197.67z M715,360.5c0.01,0.64,1.01,0.65,1,0c-0.02-2.21-0.23-4.41-0.25-6.62
					c0-0.649-1-0.649-1,0C714.77,356.09,714.98,358.29,715,360.5z M713,251c0-3.56,0-7,0-11h-1c0,0,0,7.44,0,11
					C712,251.65,713,251.65,713,251z M710.88,368h1c0-1-0.02-1.49-0.149-2.2c-0.11-0.63-1.08-0.42-0.961,0.21
					C710.88,366.62,710.88,367,710.88,368z M707,354.25c0.03-0.64-0.97-0.64-1,0c-0.1,1.86-0.13,3.72-0.21,5.58
					c-0.06,1.24-0.37,2.49,0.1,3.68c0.24,0.59,1.21,0.33,0.971-0.27c-0.49-1.2-0.101-2.811-0.04-4.09
					C706.89,357.52,706.91,355.88,707,354.25z M705.83,216c0,1,1,1,1,0c0-2-0.11-3.58-0.68-5.38c-0.2-0.62-1.16-0.27-0.971,0.35
					C705.73,212.69,705.83,215,705.83,216z M703.85,285.13c0.2,0.61,1.17,0.351,0.971-0.26c-0.69-2.11-1.28-4.31-1.32-6.54
					c-0.01-0.64-1.01-0.64-1,0C702.55,280.65,703.13,282.94,703.85,285.13z"/>
				<path d="M724.5,367.99v1.04c-0.04-0.021-0.09-0.03-0.13-0.05C723.82,368.77,724,367.92,724.5,367.99z"/>
				<path d="M719.77,395.12c0.11-0.64,1.08-0.37,0.961,0.26c-0.221,1.2-0.23,2.41-0.23,3.62c0,0.64-1,0.64-1,0
					C719.5,397.7,719.53,396.4,719.77,395.12z"/>
				<path d="M719.38,326.88c0.061-0.64,1.061-0.649,1,0c-0.25,2.41-0.37,4.82-0.38,7.24c0,0.649-1,0.649-1,0
					C719.01,331.7,719.13,329.29,719.38,326.88z"/>
				<path d="M716.17,197.67c0.03,0.64-0.97,0.64-1,0c-0.03-0.55-0.27-1.08-0.41-1.6c-0.14-0.57-0.24-1.15-0.26-1.74
					c-0.02-0.64,0.98-0.64,1,0C715.53,195.49,716.11,196.53,716.17,197.67z"/>
				<path d="M716,360.5c0.01,0.65-0.99,0.64-1,0c-0.02-2.21-0.23-4.41-0.25-6.62c0-0.649,1-0.649,1,0
					C715.77,356.09,715.98,358.29,716,360.5z"/>
				<path d="M713,240c0,4,0,7.44,0,11c0,0.65-1,0.65-1,0c0-3.56,0-11,0-11H713z"/>
				<path d="M711.88,368h-1c0-1,0-1.38-0.11-1.99c-0.119-0.63,0.851-0.84,0.961-0.21C711.86,366.51,711.88,367,711.88,368z"/>
				<path fill="#2E3192" d="M717.83,93.68c0,0-5.66,2.15-7.16,1.89c-1.06-0.19-4.64,4.17-6.63,6.72
					c-12.4-8.46-22.521-17.09-29.59-23.65c1.979-1.68,4.51-3.55,6.05-3.64c2.83-0.17,10-0.66,10-0.66
					C696.85,79.13,708.32,87.59,717.83,93.68z"/>
				<path d="M709,389c0.64,0,0.64,1,0,1S708.36,389,709,389z"/>
				<path d="M706,354.25c0.03-0.64,1.03-0.64,1,0c-0.09,1.63-0.11,3.27-0.18,4.9c-0.061,1.279-0.45,2.89,0.04,4.09
					c0.239,0.6-0.73,0.859-0.971,0.27c-0.47-1.189-0.159-2.439-0.1-3.68C705.87,357.97,705.9,356.11,706,354.25z"/>
				<path d="M706.83,216c0,1-1,1-1,0s-0.1-3.31-0.65-5.03c-0.189-0.62,0.771-0.97,0.971-0.35C706.72,212.42,706.83,214,706.83,216z"
					/>
				<path d="M704.82,284.87c0.199,0.61-0.771,0.87-0.971,0.26c-0.72-2.189-1.3-4.48-1.35-6.8c-0.01-0.64,0.99-0.64,1,0
					C703.54,280.56,704.13,282.76,704.82,284.87z"/>
				<path d="M702.48,393.87c0.239,1.03,0.27,2.07,0.27,3.13c0,0.64-1,0.64-1,0c0-0.97-0.01-1.92-0.23-2.87
					C701.37,393.5,702.34,393.24,702.48,393.87z"/>
				<path d="M698.87,367.52c0.61-0.21,0.87,0.761,0.26,0.961c-0.21,0.069-0.42,0.14-0.63,0.199v-1.04
					C698.62,367.6,698.75,367.56,698.87,367.52z"/>
				<path fill="#F7F6DA" d="M698.5,360.33v7.31c-4.43,1.44-10.46,3.011-13.63,6.641c-0.19-0.05-0.42,0-0.55,0.22
					c-0.23,0.39-0.471,0.79-0.71,1.2L580.63,377.6c-1.71-0.34-3.62-0.369-5.13-0.359v-15.91h0.17l122.33-1H698.5z"/>
				<polygon fill="#603813" points="599.5,356.81 609.51,356.6 656,355.59 663.77,355.42 698.5,354.67 698.5,360.33 698,360.33 
					575.67,361.33 575.5,361.33 575.5,357.33 575.67,357.33 				"/>
				<polygon fill="#F7F6DA" points="698.5,235.5 698.5,354.67 663.77,355.42 663.75,354.67 662.5,235.5 698,235.5 				"/>
				<polygon fill="#603813" points="698.5,224.67 698.5,235.5 698,235.5 662.5,235.5 654,235.5 612.25,235.5 599.5,235.5 
					575.5,235.5 575.5,225.5 575.67,225.5 				"/>
				<path fill="#F7F6DA" d="M698.5,171.02v53.65l-122.83,0.83h-0.17v-43.46c0.25,0.18,0.5,0.37,0.75,0.58c0,0,17.63,4.88,19.25-2.5
					c0,0,1.38-0.37,2.88,1.88l2.74-0.12c0,0,1.38-4.5,6.13-5c0,0,6.75-1.26,14.87,2.62c0,0,10.46-1.87,14.88-6.25
					c0,0,3.06-2.87,7.22,2.63c0,0,1.03,1,6.16-3.13c0,0,0-3.42,17,2.42c0,0,15.5,4.83,17.37-3.92c0,0,2.13,0.13,2.75,2.5
					s3,0.37,3,0.37l2.38-2.87C692.88,171.25,695.14,170.65,698.5,171.02z"/>
				<path fill="#2E3192" d="M688.97,98.15l-0.069,0.09c-2.101,1.41-9.9,1.59-16.4,1.59s-10.55,6.03-10.55,6.03L648.83,69l-2.22-0.17
					c1.489-0.18,2.96-0.47,4.25-0.95c1.79,2.76,5.47,5.12,5.47,5.12S670.17,84.63,688.97,98.15z"/>
				<path d="M683.92,375.69c0.12-0.29,0.3-0.58,0.521-0.881c0.14-0.18,0.279-0.359,0.43-0.529c0.28,0.09,0.51,0.39,0.31,0.72
					c-0.51,0.86-1.029,1.72-1.55,2.59C683.53,376.97,683.62,376.33,683.92,375.69z"/>
				<path d="M684.32,374.5c0.13-0.22,0.359-0.27,0.55-0.22c-0.15,0.17-0.29,0.35-0.43,0.529c-0.221,0.301-0.4,0.591-0.521,0.881
					l-0.31,0.01C683.85,375.29,684.09,374.89,684.32,374.5z"/>
				<path fill="#2E3192" d="M628.52,142.15l-10.31-37.62l-8.27-30.22l-0.11,0.03c0,0-4.33-6.67,2.5-7.01c0,0,9.5-2.33,25.34,1.5
					c0,0,4.51,0.52,8.94,0l2.22,0.17l13.12,36.86l11.819,33.22L684,167.83c-3.5-1.83-9.33,1.57-9.33,1.57
					c-6,2.4-13.84-3.57-13.84-3.57c-7.66-5-15.83,0-15.83,0c-3.83,5.5-9.17,3-9.17,3L628.52,142.15z"/>
				<path fill="#1B1464" d="M597.53,59.56c17.229-2.35,33.09-5.01,45.97-7.99V46l-0.39-1.79c9.859-2.18,19.83-4.58,29.89-7.21
					c0,0,5.67-1,0,8.33l-7.67,12c-5,1.67-11,3.67-11,3.67c-5.15,1.72-5.04,4.45-3.47,6.88c-1.29,0.48-2.761,0.77-4.25,0.95
					c-4.431,0.52-8.94,0-8.94,0c-15.84-3.83-25.34-1.5-25.34-1.5c-6.83,0.34-2.5,7.01-2.5,7.01c-4.16,0.35-17.66-1.34-17.66-1.34
					c-6.34-4.33-15-3.26-15-3.26c-7.34,0.23-5,9.26-5,9.26c-3.84,2.33-15.34,0.15-15.34,0.15c-8.66-3.68-13.5-1.38-13.5-1.38
					c-3,0.11-2.16,5.73-2.16,5.73c-4.17,0.83-10.34,0-10.34,0c-8.16-3.83-8.5-3.5-8.5-3.5c-7-1.5-15.04,0.17-15.04,0.17
					c-3.03,0-1.62,5.64-1.62,5.64c-2.5-1.03-12.34-0.12-12.34-0.12c-10,0.85-11.83-3.19-11.83-3.19c-3.67-3.67-10.67-1.5-10.67-1.5
					c-6-2.5-4.5,4.67-4.5,4.67c-2.5,0.16-14.5-0.72-14.5-0.72c-7.33,0.45-12.16-3.45-12.16-3.45c-1.96-1.5-4.33-1.82-6.33-1.71
					L433.17,77l0.44-6.51c14.41,0.73,28.07,0.91,39.89,0.26c1.96-0.11,3.96-0.22,6-0.34c17.42-1.01,37.74-2.45,58.57-4.31
					C558.12,64.31,578.64,62.13,597.53,59.56z"/>
				<polygon fill="#A67C52" points="655.78,342.5 655.66,335.5 655.55,328.5 655.13,303.5 655,295.5 654.88,288.5 654.54,268.49 
					654.43,261.49 654.29,253.5 654,236 654,235.5 662.5,235.5 663.75,354.67 663.77,355.42 656,355.59 				"/>
				<path fill="#A84000" d="M655.78,342.5l0.22,13.09l-46.49,1.01l-0.01-0.6l0.31-13.5H610H655.78z M650.39,353.88
					c0.19,0.62,1.15,0.36,0.971-0.26c-0.32-1.07-0.24-2.15-0.24-3.24c0.01-0.649-0.99-0.649-1,0
					C650.12,351.56,650.04,352.73,650.39,353.88z M642.48,352.13c0.06-0.42-0.351-0.68-0.66-0.62c-0.17-0.92,0.01-2-0.07-2.89
					c-0.06-0.63-1.06-0.64-1,0c0.12,1.36-0.19,2.87,0.44,4.13c0.119,0.25,0.46,0.31,0.689,0.18
					C642.21,352.74,642.43,352.52,642.48,352.13z M629.75,351.12c-0.01-1.29-0.12-2.58-0.25-3.87c-0.06-0.64-1.06-0.64-1,0
					c0.13,1.29,0.24,2.58,0.25,3.87C628.75,351.77,629.75,351.77,629.75,351.12z M620.12,347.75c0.05-0.64-0.95-0.64-1,0
					c-0.13,1.72-0.21,3.42,0.02,5.13c0.091,0.64,1.051,0.37,0.971-0.26C619.89,351,620,349.37,620.12,347.75z"/>
				<polygon fill="#8C6239" points="655.66,335.5 655.78,342.5 610,342.5 609.81,342.5 609.97,335.5 610,335.5 				"/>
				<polygon fill="#8C6239" points="655.55,328.5 655.66,335.5 610,335.5 609.97,335.5 610.13,328.5 				"/>
				<path fill="#A84000" d="M655.13,303.5l0.42,25h-45.42l0.57-25.01l0.3,0.01h44H655.13z M645.64,320.26
					c0.15,0.62,1.12,0.36,0.971-0.27c-0.48-1.96-0.37-3.99-0.49-5.99c-0.03-0.64-1.03-0.64-1,0
					C645.25,316.09,645.15,318.21,645.64,320.26z M636.39,320.26c0.21,0.61,1.17,0.34,0.971-0.27c-0.41-1.2-0.11-2.71-0.11-3.96
					c0-1.601-0.04-3.19-0.13-4.78c-0.03-0.64-1.03-0.64-1,0c0.11,1.82,0.13,3.63,0.13,5.45C636.25,317.89,636,319.11,636.39,320.26z
					 M629.31,316.88c0.15-0.33-0.06-0.64-0.319-0.74c-0.25-1.37-0.23-2.909-0.24-4.26c-0.01-0.649-1.01-0.649-1,0
					c0.01,0.87,0.06,1.75,0.14,2.62c0.07,0.83,0.061,1.7,0.25,2.51c0.08,0.34,0.46,0.42,0.74,0.3
					C629.12,317.2,629.2,317.12,629.31,316.88z M617.75,319.12c0.05,0.64,1.05,0.649,1,0c-0.17-1.96-0.74-3.83-1.14-5.75
					c-0.13-0.63-1.101-0.37-0.971,0.26C617.03,315.46,617.59,317.26,617.75,319.12z"/>
				<polygon fill="#8C6239" points="655,295.5 655.13,303.5 655,303.5 611,303.5 610.7,303.49 610.88,295.5 611,295.5 				"/>
				<polygon fill="#8C6239" points="655,295.5 611,295.5 610.88,295.5 611.04,288.5 654.88,288.5 				"/>
				<path fill="#A84000" d="M654.54,268.49l0.34,20.01h-43.84l0.46-20.01l0.5,0.01h42L654.54,268.49z M643.38,281.88
					c0-1.55,0.101-3.09,0-4.63c-0.05-0.64-1.05-0.64-1,0c0.101,1.54,0,3.08,0,4.63C642.37,282.52,643.37,282.52,643.38,281.88z
					 M636.48,282.38c0.029-0.24-0.08-0.42-0.24-0.53c-0.16-0.659-0.13-1.37-0.19-2.04c-0.09-1.02-0.2-2.04-0.3-3.06
					c-0.06-0.64-1.06-0.64-1,0c0.1,1.02,0.2,2.04,0.3,3.06c0.08,0.9,0.01,1.85,0.34,2.7c0.11,0.28,0.32,0.391,0.62,0.351
					c0.03-0.011,0.07-0.011,0.11-0.021c0.149-0.02,0.33-0.2,0.35-0.35C636.47,282.46,636.48,282.42,636.48,282.38z M630.06,280.13
					c0.131-0.29-0.01-0.56-0.22-0.69c-0.06-0.9,0-1.8-0.09-2.69c-0.07-0.63-1.07-0.64-1,0c0.09,0.82,0.05,1.64,0.07,2.47
					c0.02,0.56,0.04,1.24,0.77,1.24c0.16,0,0.36-0.09,0.43-0.25C630.03,280.18,630.04,280.16,630.06,280.13z M619.73,276.38
					c0.159-0.62-0.811-0.89-0.961-0.26c-0.38,1.53-0.739,3.06-0.89,4.63c-0.07,0.64,0.93,0.64,1,0
					C619.02,279.27,619.37,277.83,619.73,276.38z"/>
				<polygon fill="#8C6239" points="654.43,261.49 654.54,268.49 654,268.5 612,268.5 611.5,268.49 611.66,261.49 612,261.5 
					654,261.5 				"/>
				<polygon fill="#8C6239" points="654.29,253.5 654.43,261.49 654,261.5 612,261.5 611.66,261.49 611.84,253.5 612,253.5 
					654,253.5 				"/>
				<path fill="#A84000" d="M654,236l0.29,17.5H654h-42h-0.16l0.41-18H654V236z M649.62,243.25c0.01-1.17,0.12-2.33,0.13-3.5
					c0-0.65-1-0.64-1,0c-0.01,1.17-0.12,2.33-0.13,3.5C648.62,243.9,649.62,243.89,649.62,243.25z M642.25,239.81
					c0.04-0.64-0.96-0.58-1,0.07c-0.12,1.74-0.13,3.12-0.13,5.12c0,1,1,1,1,0C642.12,243,642.13,241.56,642.25,239.81z
					 M631.64,246.38c0.17,0.63,1.13,0.36,0.971-0.26c-0.44-1.69-0.37-3.39-0.36-5.12c0-0.65-1-0.64-1,0
					C631.24,242.82,631.18,244.61,631.64,246.38z M624.39,246.26c0.19,0.62,1.15,0.35,0.971-0.27c-0.23-0.76-0.141-1.58-0.24-2.37
					c-0.07-0.63-1.07-0.63-1,0C624.23,244.5,624.14,245.4,624.39,246.26z M617.62,245c0-1,0-2.24-0.12-3.41
					c-0.07-0.63-1.07-0.54-1,0.1c0.12,1.16,0.12,2.31,0.12,3.31S617.62,246,617.62,245z"/>
				<path d="M651.36,353.62c0.18,0.62-0.78,0.88-0.971,0.26c-0.35-1.149-0.27-2.32-0.27-3.5c0.01-0.649,1.01-0.649,1,0
					C651.12,351.47,651.04,352.55,651.36,353.62z"/>
				<path d="M649.75,239.75c-0.01,1.17-0.12,2.33-0.13,3.5c0,0.64-1,0.65-1,0c0.01-1.17,0.12-2.33,0.13-3.5
					C648.75,239.11,649.75,239.1,649.75,239.75z"/>
				<path d="M646.61,319.99c0.149,0.63-0.82,0.89-0.971,0.27c-0.489-2.05-0.39-4.17-0.52-6.26c-0.03-0.64,0.97-0.64,1,0
					C646.24,316,646.13,318.03,646.61,319.99z"/>
				<path fill="#1B1464" d="M643.5,46v5.57c-12.88,2.98-28.74,5.64-45.97,7.99c-1.08-2.03-2.03-3.56-2.03-3.56l-0.43-2.69
					c15.689-2.48,31.72-5.49,48.04-9.1L643.5,46z"/>
				<path d="M643.38,277.25c0.101,1.54,0,3.08,0,4.63c-0.01,0.64-1.01,0.64-1,0c0-1.55,0.101-3.09,0-4.63
					C642.33,276.61,643.33,276.61,643.38,277.25z"/>
				<path d="M641.82,351.51c0.31-0.06,0.72,0.2,0.66,0.62c-0.051,0.39-0.271,0.61-0.601,0.8c-0.229,0.13-0.57,0.07-0.689-0.18
					c-0.631-1.26-0.32-2.77-0.44-4.13c-0.06-0.64,0.94-0.63,1,0C641.83,349.51,641.65,350.59,641.82,351.51
					c-0.15,0.03-0.271,0.15-0.301,0.36c-0.05,0.06-0.1,0.13-0.149,0.2c0.229,0.06,0.46,0.12,0.689,0.18
					C641.95,352.02,641.87,351.77,641.82,351.51z"/>
				<path d="M641.25,239.88c0.04-0.65,1.04-0.71,1-0.07c-0.12,1.75-0.13,3.19-0.13,5.19c0,1-1,1-1,0
					C641.12,243,641.13,241.62,641.25,239.88z"/>
				<path d="M642.06,352.25c-0.229-0.06-0.46-0.12-0.689-0.18c0.05-0.07,0.1-0.141,0.149-0.2c0.03-0.21,0.15-0.33,0.301-0.36
					C641.87,351.77,641.95,352.02,642.06,352.25z"/>
				<path d="M637.36,319.99c0.199,0.609-0.761,0.88-0.971,0.27c-0.39-1.149-0.14-2.37-0.14-3.56c0-1.82-0.02-3.63-0.13-5.45
					c-0.03-0.64,0.97-0.64,1,0c0.09,1.59,0.13,3.18,0.13,4.78C637.25,317.28,636.95,318.79,637.36,319.99z"/>
				<path d="M636.24,281.85c0.16,0.11,0.27,0.29,0.24,0.53c0,0.04-0.011,0.08-0.011,0.11c-0.02,0.149-0.2,0.33-0.35,0.35
					c-0.04,0.01-0.08,0.01-0.11,0.021c-0.3,0.04-0.51-0.07-0.62-0.351c-0.33-0.85-0.26-1.8-0.34-2.7c-0.1-1.02-0.2-2.04-0.3-3.06
					c-0.06-0.64,0.94-0.64,1,0c0.1,1.02,0.21,2.04,0.3,3.06C636.11,280.48,636.08,281.19,636.24,281.85
					c-0.271-0.17-0.66-0.13-0.721,0.271c-0.01,0.03-0.01,0.07-0.02,0.11c0.1-0.101,0.21-0.211,0.3-0.301
					c0.19,0.101,0.37,0.21,0.561,0.311C636.31,282.11,636.27,281.98,636.24,281.85z"/>
				<path d="M636.36,282.24c-0.19-0.101-0.37-0.21-0.561-0.311c0.021-0.02,0.03-0.029,0.05-0.05c-0.029,0-0.069,0.01-0.109,0.01
					c0.02,0.011,0.04,0.021,0.06,0.04c-0.09,0.09-0.2,0.2-0.3,0.301c0.01-0.04,0.01-0.08,0.02-0.11c0.061-0.4,0.45-0.44,0.721-0.271
					C636.27,281.98,636.31,282.11,636.36,282.24z"/>
				<path d="M635.85,281.88c-0.02,0.021-0.029,0.03-0.05,0.05c-0.02-0.02-0.04-0.029-0.06-0.04
					C635.78,281.89,635.82,281.88,635.85,281.88z"/>
				<path fill="#2E3192" d="M586.76,146.3c-2.529-9.14-5.319-19.92-7.91-31.52c-0.21-0.96-0.43-1.91-0.64-2.88
					c-2.3-10.55-4.42-21.71-6.04-32.9c0,0-2.34-9.03,5-9.26c0,0,8.66-1.07,15,3.26c0,0,13.5,1.69,17.66,1.34l0.11-0.03l8.27,30.22
					l10.31,37.62l7.311,26.68c-3.33-1-10.83,3.52-10.83,3.52c-6.5,2.68-16.33-2.52-16.33-2.52c-3.84-1.83-13.17,5.34-13.17,5.34
					S591.58,163.69,586.76,146.3z"/>
				<path d="M632.61,246.12c0.159,0.62-0.801,0.89-0.971,0.26c-0.46-1.77-0.399-3.56-0.39-5.38c0-0.64,1-0.65,1,0
					C632.24,242.73,632.17,244.43,632.61,246.12z"/>
				<path d="M629.84,279.44c0.21,0.13,0.351,0.4,0.22,0.69c-0.02,0.03-0.029,0.05-0.04,0.08c-0.069,0.16-0.27,0.25-0.43,0.25
					c-0.729,0-0.75-0.68-0.77-1.24c-0.021-0.83,0.02-1.65-0.07-2.47c-0.07-0.64,0.93-0.63,1,0
					C629.84,277.64,629.78,278.54,629.84,279.44c-0.22-0.14-0.51-0.12-0.649,0.18c-0.011,0.03-0.021,0.06-0.03,0.09
					c0.14-0.09,0.28-0.17,0.43-0.25c0.01-0.01,0.021-0.01,0.04-0.02c0.08,0.15,0.16,0.29,0.25,0.44
					C629.86,279.73,629.85,279.59,629.84,279.44z"/>
				<path d="M629.88,279.88c-0.09-0.15-0.17-0.29-0.25-0.44c-0.02,0.01-0.03,0.01-0.04,0.02c-0.149,0.08-0.29,0.16-0.43,0.25
					c0.01-0.03,0.02-0.06,0.03-0.09c0.14-0.3,0.43-0.32,0.649-0.18C629.85,279.59,629.86,279.73,629.88,279.88z"/>
				<path d="M629.5,347.25c0.13,1.29,0.24,2.58,0.25,3.87c0,0.649-1,0.649-1,0c-0.01-1.29-0.12-2.58-0.25-3.87
					C628.44,346.61,629.44,346.61,629.5,347.25z"/>
				<path d="M628.99,316.14c0.26,0.101,0.47,0.41,0.319,0.74c-0.109,0.24-0.189,0.32-0.43,0.43c-0.28,0.12-0.66,0.04-0.74-0.3
					c-0.189-0.81-0.18-1.68-0.25-2.51c-0.08-0.87-0.13-1.75-0.14-2.62c-0.01-0.649,0.99-0.649,1,0
					C628.76,313.23,628.74,314.77,628.99,316.14c-0.2-0.069-0.431-0.02-0.55,0.23c-0.021,0.03-0.04,0.05-0.07,0.07
					c0.25,0.1,0.49,0.199,0.74,0.3C629.06,316.54,629.02,316.35,628.99,316.14z"/>
				<path d="M629.11,316.74c-0.25-0.101-0.49-0.2-0.74-0.3c0.03-0.021,0.05-0.04,0.07-0.07c0.119-0.25,0.35-0.3,0.55-0.23
					C629.02,316.35,629.06,316.54,629.11,316.74z"/>
				<path d="M625.36,245.99c0.18,0.62-0.78,0.89-0.971,0.27c-0.25-0.86-0.159-1.76-0.27-2.64c-0.07-0.63,0.93-0.63,1,0
					C625.22,244.41,625.13,245.23,625.36,245.99z"/>
				<path d="M619.12,347.75c0.05-0.64,1.05-0.64,1,0c-0.12,1.62-0.23,3.25-0.01,4.87c0.08,0.63-0.88,0.899-0.971,0.26
					C618.91,351.17,618.99,349.47,619.12,347.75z"/>
				<path d="M618.77,276.12c0.15-0.63,1.12-0.36,0.961,0.26c-0.36,1.45-0.711,2.89-0.851,4.37c-0.07,0.64-1.07,0.64-1,0
					C618.03,279.18,618.39,277.65,618.77,276.12z"/>
				<path d="M618.75,319.12c0.05,0.649-0.95,0.64-1,0c-0.16-1.86-0.72-3.66-1.11-5.49c-0.13-0.63,0.841-0.89,0.971-0.26
					C618.01,315.29,618.58,317.16,618.75,319.12z"/>
				<path d="M617.5,241.59c0.12,1.17,0.12,2.41,0.12,3.41s-1,1-1,0s0-2.15-0.12-3.31C616.43,241.05,617.43,240.96,617.5,241.59z"/>
				<polygon fill="#A67C52" points="611.04,288.5 610.88,295.5 610.7,303.49 610.13,328.5 609.97,335.5 609.81,342.5 609.5,356 
					609.51,356.6 599.5,356.81 599.5,236 599.5,235.5 612.25,235.5 611.84,253.5 611.66,261.49 611.5,268.49 				"/>
				<polygon fill="#F7F6DA" points="599.5,236 599.5,356.81 575.67,357.33 575.5,357.33 575.5,235.5 599.5,235.5 				"/>
				<path fill="#1B1464" d="M595.5,56c0,0,0.95,1.53,2.03,3.56c-18.891,2.57-39.41,4.75-59.46,6.54c-0.13-1.74-0.24-2.93-0.24-2.93
					l-0.25-2.81c18.52-1.62,37.729-3.92,57.49-7.05L595.5,56z"/>
				<path fill="#2E3192" d="M547.84,145.65c-1.84-10.49-3.3-22.84-4.37-33.75c0,0,15.28-7.92,25.7-0.9c0,0,7.08,2.96,9.04,0.9
					c0.21,0.97,0.43,1.92,0.64,2.88c2.591,11.6,5.381,22.38,7.91,31.52c4.82,17.39,8.74,28.87,8.74,28.87c-4,6-15.5,1-15.5,1
					c-14.17-7.34-23.17,0.87-23.17,0.87c-9.5,6.54-19,2.46-19,2.46c-12-6.17-24.33,1.19-24.33,1.19s-0.52-14.26-1.56-32.1
					c0.319-0.44,7.819-10.55,19.56-0.76c0,0,11,3.8,16.33-2.18H547.84z"/>
				<path d="M587.05,386.23c0.7,2.399,0.62,4.539,0.58,7.02c-0.07,3.75,0.021,7.55-2.439,10.64c-4.5,5.681-13.15,7.94-20.07,8.38
					c-2.73,0.171-5.47,0.16-8.21,0.301c-2.05,0.109-4.15,0.449-6.2,0.04c-3.37-0.67-6.17-2.44-8.36-5.08
					c-5.25-6.32-3.659-15.34-2.14-22.87c0.07,0.46,0.3,0.92,0.73,1.399c-1.4,7.12-2.631,15.58,2.529,21.271
					c2.4,2.63,5.73,4.54,9.391,4.479c3.76-0.06,7.59-0.25,11.35-0.479c6.39-0.41,15-2.1,19.48-7.19
					c3.06-3.479,2.779-7.449,2.96-11.819c0.14-3.41-0.65-6.23-1.971-9.09c0.051-0.101,0.08-0.211,0.11-0.32
					c0.13-0.53,0.19-1.021,0.17-1.46C585.78,382.99,586.57,384.57,587.05,386.23z"/>
				<path fill="#B3B3B3" d="M584.68,383.23c1.32,2.859,2.11,5.68,1.971,9.09c-0.181,4.37,0.1,8.34-2.96,11.819
					c-4.48,5.091-13.091,6.78-19.48,7.19c-3.76,0.229-7.59,0.42-11.35,0.479c-3.66,0.061-6.99-1.85-9.391-4.479
					c-5.16-5.69-3.93-14.15-2.529-21.271c0.18,0.21,0.39,0.41,0.64,0.62c1.03,0.86,2.65,0.92,3.9,1.13
					c2.52,0.44,5.06,0.78,7.579,1.19c4.721,0.75,9.261,1.47,14.07,1.3c4.18-0.149,8.03-1.64,12-2.819
					C581.13,386.89,583.93,385.39,584.68,383.23z M575.52,401.38c0.2,0.61,1.16,0.351,0.961-0.26c-0.25-0.771-0.461-1.561-0.48-2.37
					c-0.01-0.64-1.01-0.65-1,0C575.02,399.65,575.24,400.53,575.52,401.38z M567.27,400.13c0.221,0.601,1.19,0.34,0.961-0.26
					c-0.45-1.22-0.54-2.53-1-3.75c-0.221-0.601-1.19-0.34-0.961,0.26C566.72,397.6,566.81,398.91,567.27,400.13z M555.75,404h1
					c0-1-0.03-1.73-0.27-2.51c-0.19-0.61-1.15-0.48-0.961,0.14C555.73,402.33,555.75,403,555.75,404z"/>
				<path d="M584.96,381.45c0.021,0.439-0.04,0.93-0.17,1.46c-0.03,0.109-0.06,0.22-0.11,0.32c-0.239-0.561-0.51-1.11-0.8-1.671
					c-0.05-0.52-0.27-0.989-0.62-1.409c0,0,0,0,0-0.011c0.11-0.38,0.69-0.58,0.92-0.14C584.44,380.48,584.7,380.97,584.96,381.45z"
					/>
				<path d="M580.63,377.6c2.33,0.471,4.28,1.521,4.33,3.851c-0.26-0.48-0.52-0.97-0.78-1.45c-0.229-0.44-0.81-0.24-0.92,0.14
					c-0.81-1-2.31-1.67-3.91-1.81c-1.29-0.11-2.569-0.1-3.85-0.09v-1C577.01,377.23,578.92,377.26,580.63,377.6z"/>
				<path d="M583.88,381.56c0.29,0.561,0.561,1.11,0.8,1.671c-0.75,2.159-3.55,3.659-5.55,4.25c-3.97,1.18-7.82,2.67-12,2.819
					c-4.81,0.17-9.35-0.55-14.07-1.3c-2.52-0.41-5.06-0.75-7.579-1.19c-1.25-0.21-2.87-0.27-3.9-1.13
					c-0.25-0.21-0.46-0.41-0.64-0.62c0.18-0.92,0.369-1.819,0.54-2.68c0.1-0.49-0.461-0.76-0.771-0.54
					c1.88-2.609,8.21-4.479,9.91-5.07c0.03-0.01,0.06-0.02,0.08-0.01l0.01,1.03c-2.42,0.82-5.18,1.35-7.32,2.8
					c-2.27,1.53-2.699,4.351,0.49,4.93c1.57,0.28,3.13,0.54,4.7,0.78c6.14,0.94,12.29,2.351,18.55,2c3.24-0.18,6.23-1.05,9.311-2.03
					c2.149-0.689,4.619-1.21,6.239-2.939C583.62,383.34,583.96,382.39,583.88,381.56z"/>
				<path fill="#B3B3B3" d="M583.88,381.56c0.08,0.83-0.26,1.78-1.2,2.771c-1.62,1.729-4.09,2.25-6.239,2.939
					c-3.08,0.98-6.07,1.851-9.311,2.03c-6.26,0.351-12.41-1.06-18.55-2c-1.57-0.24-3.13-0.5-4.7-0.78
					c-3.189-0.579-2.76-3.399-0.49-4.93c2.141-1.45,4.9-1.979,7.32-2.8l0.04,2.2c0,0,9.5,11.76,24.75,0.01v-2.76
					c1.28-0.01,2.56-0.021,3.85,0.09c1.601,0.14,3.101,0.81,3.91,1.81c0,0.011,0,0.011,0,0.011c-0.02,0.109-0.01,0.229,0.061,0.35
					C583.51,380.86,583.7,381.21,583.88,381.56z"/>
				<path d="M583.88,381.56c-0.18-0.35-0.37-0.699-0.56-1.06c-0.07-0.12-0.08-0.24-0.061-0.35
					C583.61,380.57,583.83,381.04,583.88,381.56z"/>
				<path d="M576.48,401.12c0.199,0.61-0.761,0.87-0.961,0.26c-0.279-0.85-0.5-1.729-0.52-2.63c-0.01-0.65,0.99-0.64,1,0
					C576.02,399.56,576.23,400.35,576.48,401.12z"/>
				<path fill="#2E3192" d="M578.21,111.9c-1.96,2.06-9.04-0.9-9.04-0.9c-10.42-7.02-25.7,0.9-25.7,0.9
					c-1.54-15.68-2.3-28.4-2.3-28.4s-0.84-5.62,2.16-5.73c0,0,4.84-2.3,13.5,1.38c0,0,11.5,2.18,15.34-0.15
					C573.79,90.19,575.91,101.35,578.21,111.9z"/>
				<path fill="#754C24" d="M575.5,235.5v121.83v4v15.91c-0.36,0-0.7,0.01-1,0.01c-0.64,0-0.65,1,0,1c0.33,0,0.67,0,1-0.01V381
					c-15.25,11.75-24.75-0.01-24.75-0.01l-0.04-2.2c0.06-0.021,0.11-0.04,0.17-0.06c0.58-0.2,0.37-1.091-0.18-0.971l-0.141-8.14
					c0.631-0.021,0.641-1.01-0.01-1h-0.01l-0.19-11.29L549.9,330.5l-0.181-11.17l-1.609-95.83l-0.12-7.02l-0.49-29.37l-0.04-0.51
					c4.25-0.29,8.72-1.54,12.29-4.72c0,0,6.97-6.39,15.75,0.16v43.46V235.5z M570.14,375.13c0.141,0.63,1.11,0.37,0.971-0.26
					c-0.341-1.521-0.13-3.08-0.11-4.62c0.01-0.65-0.99-0.64-1,0C569.98,371.89,569.79,373.52,570.14,375.13z M566.5,350.75
					c0.33-2.83,0.04-5.66,0.12-8.5c0.02-0.65-0.98-0.64-1,0c-0.08,2.84,0.21,5.67-0.12,8.5
					C565.43,351.39,566.43,351.38,566.5,350.75z M563.75,376.75c0.05,0.64,1.05,0.64,1,0c-0.13-1.79-0.25-3.58-0.37-5.37
					c-0.05-0.64-1.05-0.649-1,0C563.5,373.17,563.62,374.96,563.75,376.75z M561.5,258.88c0.64,0,0.64-1,0-1
					S560.86,258.88,561.5,258.88z M558,358.38c0.01,0.64,1.01,0.64,1,0c-0.02-1.43-0.24-2.84-0.38-4.26c-0.061-0.63-1.061-0.64-1,0
					C557.76,355.54,557.98,356.95,558,358.38z M558,303.62c0.64,0,0.64-1,0-1S557.36,303.62,558,303.62z M557.23,223.73
					c0.109-0.63-0.86-0.81-0.961-0.18c-0.359,2.2-0.39,4.45-0.39,6.45c0,1,1,1,1,0C556.88,228,556.89,225.84,557.23,223.73z
					 M555.12,377.62c0.01,0.649,1.01,0.649,1,0c0-1.34-0.13-2.68-0.39-4c-0.12-0.64-1.08-0.37-0.961,0.26
					C555,375.12,555.12,376.37,555.12,377.62z M554.77,280.38c0.141,0.63,1.101,0.37,0.961-0.26c-0.101-0.46-0.12-0.93-0.25-1.38
					c-0.171-0.62-1.141-0.35-0.961,0.27C554.65,279.46,554.67,279.93,554.77,280.38z"/>
				<path d="M575.5,377.24v1c-0.33,0.01-0.67,0.01-1,0.01c-0.65,0-0.64-1,0-1C574.8,377.25,575.14,377.24,575.5,377.24z"/>
				<path d="M571.11,374.87c0.14,0.63-0.83,0.89-0.971,0.26c-0.35-1.61-0.159-3.24-0.14-4.88c0.01-0.64,1.01-0.65,1,0
					C570.98,371.79,570.77,373.35,571.11,374.87z"/>
				<path d="M568.23,399.87c0.229,0.6-0.74,0.86-0.961,0.26c-0.46-1.22-0.55-2.53-1-3.75c-0.229-0.6,0.74-0.86,0.961-0.26
					C567.69,397.34,567.78,398.65,568.23,399.87z"/>
				<path d="M566.62,342.25c-0.08,2.84,0.21,5.67-0.12,8.5c-0.07,0.63-1.07,0.64-1,0c0.33-2.83,0.04-5.66,0.12-8.5
					C565.64,341.61,566.64,341.6,566.62,342.25z"/>
				<path d="M564.75,376.75c0.05,0.64-0.95,0.64-1,0c-0.13-1.79-0.25-3.58-0.37-5.37c-0.05-0.649,0.95-0.64,1,0
					C564.5,373.17,564.62,374.96,564.75,376.75z"/>
				<path d="M561.5,257.88c0.64,0,0.64,1,0,1S560.86,257.88,561.5,257.88z"/>
				<path d="M559,358.38c0.01,0.64-0.99,0.64-1,0c-0.02-1.43-0.24-2.84-0.38-4.26c-0.061-0.64,0.939-0.63,1,0
					C558.76,355.54,558.98,356.95,559,358.38z"/>
				<path d="M558,302.62c0.64,0,0.64,1,0,1S557.36,302.62,558,302.62z"/>
				<path d="M556.27,223.55c0.101-0.63,1.07-0.45,0.961,0.18c-0.341,2.11-0.351,4.27-0.351,6.27c0,1-1,1-1,0
					C555.88,228,555.91,225.75,556.27,223.55z"/>
				<path d="M556.75,404h-1c0-1-0.02-1.67-0.23-2.37c-0.189-0.62,0.771-0.75,0.961-0.14C556.72,402.27,556.75,403,556.75,404z"/>
				<path d="M556.12,377.62c0.01,0.649-0.99,0.649-1,0c0-1.25-0.12-2.5-0.351-3.74c-0.119-0.63,0.841-0.899,0.961-0.26
					C555.99,374.94,556.12,376.28,556.12,377.62z"/>
				<path d="M555.73,280.12c0.14,0.63-0.82,0.89-0.961,0.26c-0.1-0.45-0.119-0.92-0.25-1.37c-0.18-0.62,0.79-0.89,0.961-0.27
					C555.61,279.19,555.63,279.66,555.73,280.12z"/>
				<path d="M550.7,377.76c0.55-0.12,0.76,0.771,0.18,0.971c-0.06,0.02-0.11,0.039-0.17,0.06L550.7,377.76z"/>
				<path d="M550.55,368.62c0.65-0.01,0.641,0.979,0.01,1l-0.02-1H550.55z"/>
				<path d="M550.54,368.62l0.02,1h-0.01c-21.34,0.51-42.68,1.02-64.03,1.53c-22.049,0.52-44.109,1.06-66.16,1.58
					c-0.14-0.24-0.28-0.49-0.43-0.73c-0.02,0.03-0.03,0.06-0.05,0.09c-0.05-0.12-0.12-0.229-0.2-0.34
					c21.28-0.51,42.57-1.02,63.85-1.53C505.87,369.69,528.2,369.16,550.54,368.62z"/>
				<path fill="#603813" d="M550.35,357.33l0.19,11.29c-22.34,0.54-44.67,1.07-67.01,1.6c-21.28,0.511-42.57,1.021-63.85,1.53
					c-0.17-0.24-0.4-0.47-0.68-0.68c-2.34-1.78-5.35-1.75-8.12-2.301c-0.07-0.01-0.13-0.02-0.18,0l-0.08-10.39h0.1L550.35,357.33z"
					/>
				<path fill="#A84000" d="M549.9,330.5l0.449,26.83l-139.629,1.05h-0.1l-0.23-27.88H549.9z M536.12,349.98
					c0.59,0.25,0.85-0.721,0.26-0.961c-1.689-0.699-3.49-1.02-5.25-1.5c-0.62-0.17-0.88,0.79-0.26,0.961
					C532.63,348.97,534.42,349.29,536.12,349.98z M532.62,340.23c0.61,0.199,0.88-0.771,0.26-0.961c-1.58-0.51-3.22-0.75-4.88-0.77
					c-0.65-0.01-0.64,0.99,0,1C529.57,339.52,531.12,339.75,532.62,340.23z M505,350.25c1,0,1-1,0-1c-4,0-8.77-0.02-13.19-0.25
					c-0.64-0.03-0.579,0.97,0.07,1C496.29,350.23,501,350.25,505,350.25z M499,338.75c1,0,1-1,0-1c-3,0-7.54-0.01-11.38-0.25
					c-0.64-0.04-0.51,0.96,0.13,1C491.58,338.74,496,338.75,499,338.75z M471,341.5v-1c-2,0-2.82,0.05-4.2,0.27
					c-0.63,0.101-0.42,1.061,0.21,0.961C468.29,341.53,469,341.5,471,341.5z M455.13,346.73c0.64-0.11,0.37-1.07-0.26-0.961
					c-2.76,0.49-5.59,0.261-8.37,0.48c-0.64,0.05-0.64,1.05,0,1C449.38,347.02,452.28,347.24,455.13,346.73z M438.25,339.75
					c0.64-0.01,0.65-1.01,0-1c-1.14,0.02-2.28,0.25-3.38,0.52c-0.63,0.15-0.36,1.12,0.26,0.961
					C436.16,339.98,437.19,339.77,438.25,339.75z M423.25,348.25c0.64-0.01,0.65-1.01,0-1c-0.84,0.02-1.66,0.24-2.5,0.25
					c-0.64,0.01-0.65,1.01,0,1C421.59,348.49,422.41,348.27,423.25,348.25z"/>
				<polygon fill="#603813" points="437.5,322.56 444.51,322.36 479,321.37 513.5,320.37 519.51,320.2 549.72,319.33 549.9,330.5 
					410.39,330.5 410.33,323.33 410.72,323.33 				"/>
				<polygon fill="#F7F6DA" points="548.11,223.5 549.72,319.33 519.51,320.2 519.5,320 519.5,224 519.5,223.5 548,223.5 				"/>
				<polygon fill="#603813" points="547.99,216.48 548.11,223.5 548,223.5 519.5,223.5 515.25,223.5 480.22,223.5 444.5,223.5 
					437.5,223.5 410,223.5 409.52,223.5 409.47,216.5 547,216.5 				"/>
				<path fill="#F7F6DA" d="M547.5,187.11l0.49,29.37L547,216.5H409.47l-0.22-26.63l-0.02-0.78c4.59-0.13,9.35-0.99,12.02-3.6
					c0,0,1.5-0.87,2.63,3.13c0,0,2.12,0.99,10.5-3.13c0,0,3.74-0.82,10,4.28c0,0,11.45,0.29,19.74-5.03c0,0,0.21-0.14,0.62-0.25
					c1.12-0.29,3.71-0.31,7.38,3.63c0,0,3,1.5,6.63-2.12c0,0,6.5-1.32,17.37,3.78c0,0,16,1.47,25.5-7.16c0,0,5.88-5.14,11.76,2.12
					c0,0,6.69,2.36,14.08,1.86L547.5,187.11z"/>
				<path fill="#2E3192" d="M509.23,111.9c-1.011-10.61-2.2-20.04-3.561-26.09c0,0-1.41-5.64,1.62-5.64c0,0,8.04-1.67,15.04-0.17
					c0,0,0.34-0.33,8.5,3.5c0,0,6.17,0.83,10.34,0c0,0,0.76,12.72,2.3,28.4c1.07,10.91,2.53,23.26,4.37,33.75h-0.01
					c-5.33,5.98-16.33,2.18-16.33,2.18c-11.74-9.79-19.24,0.32-19.56,0.76C511.25,136.9,510.35,123.67,509.23,111.9z"/>
				<path d="M540.71,382.84c0.31-0.22,0.87,0.05,0.771,0.54c-0.171,0.86-0.36,1.76-0.54,2.68c-0.431-0.479-0.66-0.939-0.73-1.399
					c0.1-0.51,0.21-1.03,0.31-1.53v-0.01C540.57,383.03,540.64,382.93,540.71,382.84z"/>
				<path d="M540.52,383.12c0.03-0.14,0.101-0.24,0.19-0.28C540.64,382.93,540.57,383.03,540.52,383.12z"/>
				<path d="M540.52,383.13c-0.1,0.5-0.21,1.021-0.31,1.53C540.1,384.13,540.23,383.61,540.52,383.13z"/>
				<path fill="#1B1464" d="M479.5,70.41c-2.04,0.12-4.04,0.23-6,0.34c-11.82,0.65-25.48,0.47-39.89-0.26
					c-15.28-0.77-31.42-2.15-47.11-3.8c-14.37-1.52-28.37-3.26-41-4.98V58l0.44-2.88c43.43,6.41,111,12.28,191.64,5.24l0.25,2.81
					c0,0,0.11,1.19,0.24,2.93C517.24,67.96,496.92,69.4,479.5,70.41z"/>
				<path d="M536.38,349.02c0.59,0.24,0.33,1.211-0.26,0.961c-1.7-0.69-3.49-1.011-5.25-1.5c-0.62-0.171-0.36-1.131,0.26-0.961
					C532.89,348,534.69,348.32,536.38,349.02z"/>
				<path d="M532.88,339.27c0.62,0.19,0.351,1.16-0.26,0.961c-1.5-0.48-3.05-0.711-4.62-0.73c-0.64-0.01-0.65-1.01,0-1
					C529.66,338.52,531.3,338.76,532.88,339.27z"/>
				<polygon fill="#A67C52" points="514.98,238.5 515.25,223.5 519.5,223.5 519.5,224 519.5,320 519.51,320.2 513.5,320.37 
					513.5,320.33 513.75,306.25 				"/>
				<polygon fill="#FFFFFF" points="515.25,223.5 514.98,238.5 480.03,238.5 480.22,223.5 				"/>
				<polygon fill="#FFFFFF" points="514.98,238.5 513.75,306.25 513.5,306.25 479.18,307 480.03,238.5 				"/>
				<polygon fill="#FFFFFF" points="513.75,306.25 513.5,320.33 513.5,320.37 479,321.37 479.18,307 513.5,306.25 				"/>
				<path fill="#2E3192" d="M511.94,148.59c1.04,17.84,1.56,32.1,1.56,32.1c-6.17,8.03-27,1.64-27,1.64c-15.17-6.83-20.5,0-20.5,0
					c-0.58,0.19-1.16,0.36-1.73,0.53c-12.9,3.67-21.77,0.31-21.77,0.31c-11.83-7.84-21.25,0-21.25,0s-0.14-15.03,0.73-30.67
					c0.62-11.17,1.77-22.64,3.85-29.17c0,0,3.34-30.66,1.34-38.83c0,0-0.5-5,1.83-3.83c0,0,1.9-0.75,4.34-0.88
					c2-0.11,4.37,0.21,6.33,1.71c0,0,4.83,3.9,12.16,3.45c0,0,12,0.88,14.5,0.72c0,0-1.5-7.17,4.5-4.67c0,0,7-2.17,10.67,1.5
					c0,0,1.83,4.04,11.83,3.19c0,0,9.84-0.91,12.34,0.12c1.36,6.05,2.55,15.48,3.561,26.09
					C510.35,123.67,511.25,136.9,511.94,148.59z"/>
				<path d="M505,349.25c1,0,1,1,0,1c-4,0-8.71-0.02-13.12-0.25c-0.649-0.03-0.71-1.03-0.07-1C496.23,349.23,501,349.25,505,349.25z
					"/>
				<path d="M499,337.75c1,0,1,1,0,1c-3,0-7.42-0.01-11.25-0.25c-0.64-0.04-0.77-1.04-0.13-1C491.46,337.74,496,337.75,499,337.75z"
					/>
				<polygon fill="#FFFFFF" points="480.22,223.5 480.03,238.5 444.5,238.5 444.5,224 444.5,223.5 				"/>
				<polygon fill="#FFFFFF" points="480.03,238.5 479.18,307 444.5,307.75 444.5,238.5 				"/>
				<polygon fill="#FFFFFF" points="479.18,307 479,321.37 444.51,322.36 444.5,322 444.5,307.75 				"/>
				<path d="M471,340.5v1c-2,0-2.71,0.03-3.99,0.23c-0.63,0.1-0.84-0.86-0.21-0.961C468.18,340.55,469,340.5,471,340.5z"/>
				<path fill="#1B1464" d="M464.27,182.86l0.47,1.63c-0.41,0.11-0.62,0.25-0.62,0.25c-8.29,5.32-19.74,5.03-19.74,5.03
					c-6.26-5.1-10-4.28-10-4.28c-8.38,4.12-10.5,3.13-10.5,3.13c-1.13-4-2.63-3.13-2.63-3.13l-2.2-1.73
					c0.72-0.18,1.45-0.38,2.2-0.59c0,0,9.42-7.84,21.25,0C442.5,183.17,451.37,186.53,464.27,182.86z"/>
				<path d="M454.87,345.77c0.63-0.109,0.9,0.851,0.26,0.961c-2.85,0.51-5.75,0.289-8.63,0.52c-0.64,0.05-0.64-0.95,0-1
					C449.28,346.03,452.11,346.26,454.87,345.77z"/>
				<polygon fill="#A67C52" points="444.5,238.5 444.5,307.75 444.5,322 444.51,322.36 437.5,322.56 437.5,224 437.5,223.5 
					444.5,223.5 444.5,224 				"/>
				<path d="M438.25,338.75c0.65-0.01,0.64,0.99,0,1c-1.06,0.02-2.09,0.23-3.12,0.48c-0.62,0.159-0.89-0.811-0.26-0.961
					C435.97,339,437.11,338.77,438.25,338.75z"/>
				<polygon fill="#F7F6DA" points="437.5,224 437.5,322.56 410.72,323.33 410.33,323.33 409.52,223.5 410,223.5 437.5,223.5 				
					"/>
				<path fill="#1B1464" d="M386.5,66.69c15.69,1.65,31.83,3.03,47.11,3.8L433.17,77l0.17,2.79c-2.44,0.13-4.34,0.88-4.34,0.88
					c-2.33-1.17-1.83,3.83-1.83,3.83c-3.5,1.67-13.17-1.83-13.17-1.83c-14.67-6.84-17.17-3.74-17.17-3.74
					c-3.5,0.93-2.33,5.57-2.33,5.57c-3.5,2.17-12.5-4.17-12.5-4.17c-5.83-6.83-10.67-1.18-10.67-1.18c0.5,4.32-3.33,3.02-3.33,3.02
					c-4-4.5-9.33-6.67-9.33-6.67c-5.23-3.12-9.56-2.11-12.16-0.82L345.5,72V61.71C358.13,63.43,372.13,65.17,386.5,66.69z"/>
				<path fill="#2E3192" d="M384.54,149.52c1.62-8.7,3.34-18.4,4.91-28.19c-2.71,0.99-5.95-1.33-5.95-1.33
					c-9.17-7.67-25.84-2.73-25.84-2.73c-3.91,9.74-8.65,20.86-12.98,30.83c-0.01,0.01-0.01,0.01-0.01,0.01
					c-5.97,13.7-11.16,25.22-12.39,27.95c-0.18,0.4-0.28,0.61-0.28,0.61c-9.17,3.5-22.33-3.34-22.33-3.34
					c-5-3.33-12.43,1.05-12.43,1.05c-4.44-1.11-16.48-0.21-16.48-0.21c-8.58,1.5-14-5.29-14-5.29c-5.41-3.95-8.19-3.47-8.19-3.47
					c0.11-0.33,0.2-0.69,0.26-1.08c0,0,5.82-9.65,12.67-21.48c0.15-0.27,0.31-0.54,0.47-0.81l-2.3-1.54c0,0-10.5-0.67-12.02-0.83
					c-1.53-0.17-8.53-8.29-8.53-8.29s-0.09-0.87-0.39-2.17l0.39-0.09c2-0.37,1.88-2.62,1.88-2.62s1.38,0,3.38,0s1.18-2.5,1.18-2.5
					l0.06-0.38l20.52-16.66l21.88-17.75l20.73-16.83l-1.13-1.51c0,0,10.71-5.37,20.55,7.3c0,0,3.16,3.33,5.66-1.67
					c0,0,0.97-0.97,2.68-1.82c2.6-1.29,6.93-2.3,12.16,0.82c0,0,5.33,2.17,9.33,6.67c0,0,3.83,1.3,3.33-3.02
					c0,0,4.84-5.65,10.67,1.18c0,0,9,6.34,12.5,4.17c0,0-1.17-4.64,2.33-5.57c0,0,2.5-3.1,17.17,3.74c0,0,9.67,3.5,13.17,1.83
					c2,8.17-1.34,38.83-1.34,38.83c-2.08,6.53-3.23,18-3.85,29.17c-0.87,15.64-0.73,30.67-0.73,30.67c-0.75,0.21-1.48,0.41-2.2,0.59
					c-18.82,4.74-24.39-1.61-25.28-2.86c-0.1-0.13-0.14-0.21-0.14-0.21c-4.63-6.75-15.8,2.48-15.8,2.48S380.95,168.76,384.54,149.52
					z"/>
				<path d="M423.25,347.25c0.65-0.01,0.64,0.99,0,1c-0.84,0.02-1.66,0.24-2.5,0.25c-0.65,0.01-0.64-0.99,0-1
					C421.59,347.49,422.41,347.27,423.25,347.25z"/>
				<path d="M422.31,377.73c0.37,2.239-0.62,4.279-0.66,6.489c-0.09,4.181,1.72,7.771,0.32,11.931c-1.2,3.59-4.53,5.3-8.16,5.1
					c-2.79-0.15-5.41-0.42-8.2,0.01c-2.34,0.37-4.66,0.76-7,1.101c-4.79,0.689-9.8,1.64-14.65,1.55c-3.36-0.07-7.41-0.74-9.53-3.68
					c-2.72-3.78-1.39-7.671-1.29-11.94c0.07-2.55-0.54-5.16-0.24-7.69c0.24-2.05,0.77-4.01,1.37-5.979
					c0.09-0.311,0.38-0.4,0.62-0.33c-0.03,0.33,0.03,0.65,0.23,0.96c-0.61,2-1.26,4.09-1.27,6.18c-0.01,2.021,0.36,4.011,0.31,6.03
					c-0.09,3.75-1.7,8.33,0.73,11.7c2.76,3.84,7.86,4.03,12.16,3.59c4.09-0.42,8.15-0.93,12.22-1.49c3.75-0.51,7.66-1.63,11.48-1.26
					c1.9,0.18,4.11,0.59,5.98,0c2.49-0.8,4.22-2.9,4.68-5.48c0.68-3.77-1.01-7.3-0.7-11.09c0.17-2.069,1.04-4.02,0.51-6.14
					c-0.3-1.2-0.77-2.3-1.35-3.37c0.19-0.38,0.26-0.78,0.21-1.18c0.09-0.01,0.19-0.01,0.28-0.01
					C421.27,374.31,422,375.89,422.31,377.73z"/>
				<path fill="#B3B3B3" d="M420.71,383.43c-0.31,3.79,1.38,7.32,0.7,11.09c-0.46,2.58-2.19,4.681-4.68,5.48
					c-1.87,0.59-4.08,0.18-5.98,0c-3.82-0.37-7.73,0.75-11.48,1.26c-4.07,0.561-8.13,1.07-12.22,1.49c-4.3,0.44-9.4,0.25-12.16-3.59
					c-2.43-3.37-0.82-7.95-0.73-11.7c0.05-2.02-0.32-4.01-0.31-6.03c0.01-2.09,0.66-4.18,1.27-6.18c0.17,0.3,0.47,0.59,0.9,0.87
					c1.05,0.67,2.83,0.46,3.98,0.38c2.37-0.16,4.64,0.32,6.94,0.81c3.86,0.811,7.74,1.681,11.65,2.21
					c4.04,0.54,7.76-0.239,11.62-1.43c1.98-0.609,3.93-1.29,5.92-1.859c0.98-0.28,2.07-0.601,2.87-1.25
					c0.39-0.32,0.69-0.681,0.87-1.061c0.58,1.07,1.05,2.17,1.35,3.37C421.75,379.41,420.88,381.36,420.71,383.43z M412,397
					c0-2,0-4,0-6h-1c0,0,0,4,0,6H412z M400.5,392h1c0-1-0.01-2.33-0.27-3.45c-0.14-0.62-1.11-0.42-0.96,0.21
					C400.5,389.78,400.5,391,400.5,392z M390.02,389.63c0.1,0.64,1.07,0.37,0.96-0.26c-0.25-1.53-0.46-3.07-0.48-4.62
					c-0.01-0.64-1.01-0.65-1,0C389.52,386.39,389.75,388.02,390.02,389.63z M388.27,398.88c0.16,0.63,1.12,0.36,0.96-0.26
					c-0.22-0.87-0.46-1.72-0.48-2.62c-0.01-0.64-1.01-0.65-1,0C387.77,396.99,388.03,397.93,388.27,398.88z M383.25,391.75
					c0.65,0,0.65-1,0-1S382.6,391.75,383.25,391.75z"/>
				<path fill="#1B1464" d="M393.77,180.9c0.89,1.25,6.46,7.6,25.28,2.86l2.2,1.73c-2.67,2.61-7.43,3.47-12.02,3.6
					c-6.15,0.18-11.98-0.97-11.98-0.97c-7.5-6.24-12.5-2.63-12.5-2.63c-0.51,0.63-1.18,1.18-1.99,1.64
					c-6.96,4.04-23.64,2.25-23.64,2.25c-5.87-5-13.24-6.88-13.24-6.88c-5.5-1-24.88,2-24.88,2h-3c-5.38-5-11.88-4.69-11.88-4.69
					c-2.5,0-5,2.19-5,2.19l-4.87-2.88c-4,1.13-24.94,0-24.94,0l-4.93-5.62c-1.76-1.5-6.76,1.12-7.81,0.88
					c-1.05-0.24-2.84-2.13-2.84-2.13l-1.56,0.07l-4.11,0.18c-10.57,1.42-17.42-0.12-20.52-1.13c-1.28-0.42-1.92-0.75-1.92-0.75
					c-3.74-6.5-16-3.63-16-3.63c-23.87,1.5-32.72-8.76-32.72-8.76c-7.47-3.5-10.73,1.6-10.73,1.6l-5.29-5.92
					c-30.88,6-38.63-18.51-38.63-18.51l-0.01-0.22c2.68-0.21,6.06-0.5,9.26-0.83v0.01c0,0,4.83,16.14,34.67,16.64
					c0,0,7.16-5.17,16.16,2.67c0,0,22.67,10,26.84,8.83l4.16-5.6c0,0,0,0,0.01,0c0.41,0.07,9.43,1.55,13.66,6.93
					c0,0,6,4.84,15.33,2.5c0,0,3.84-0.66,7.84,2.5c0,0,5,0.72,6.4-3.42c0,0,2.78-0.48,8.19,3.47c0,0,5.42,6.79,14,5.29
					c0,0,12.04-0.9,16.48,0.21c0,0,7.43-4.38,12.43-1.05c0,0,13.16,6.84,22.33,3.34c0,0,0.1-0.21,0.28-0.61
					c0.41-0.12,11.97-3.31,16.39,1.6c0,0,16.83,9.67,29.16,5.51c0,0,11.17-9.23,15.8-2.48C393.63,180.69,393.67,180.77,393.77,180.9
					z"/>
				<path d="M420.36,372.73c-0.09,0-0.19,0-0.28,0.01c-0.02-0.221-0.09-0.44-0.2-0.65c0.02-0.03,0.03-0.06,0.05-0.09
					C420.08,372.24,420.22,372.49,420.36,372.73z"/>
				<path d="M420.08,372.74c0.05,0.399-0.02,0.8-0.21,1.18c-0.24-0.479-0.52-0.95-0.8-1.42c-0.2-0.33,0.06-0.74,0.43-0.75
					c0.06,0,0.12,0,0.18,0c0.08,0.11,0.15,0.22,0.2,0.34c-0.13,0.22-0.26,0.44-0.38,0.66C419.69,372.75,419.89,372.74,420.08,372.74
					z"/>
				<path d="M420.08,372.74c-0.19,0-0.39,0.01-0.58,0.01c0.12-0.22,0.25-0.44,0.38-0.66C419.99,372.3,420.06,372.52,420.08,372.74z"
					/>
				<path d="M378.58,370.5c2.37-1.43,5.13-2.58,5.92-2.93c0.4-0.181,0.76,0.17,0.76,0.489c0,0.15-0.07,0.29-0.26,0.37
					c-2.07,0.92-4.32,1.7-6.19,3.03c-0.7,0.5-1.65,1.17-2.24,1.85c-0.36,1.771,0.23,2.53,1.79,2.261
					c1.08-0.021,2.21-0.23,3.28-0.141c5.17,0.42,10.21,2.051,15.32,2.851c3.25,0.51,6.32,0.63,9.54-0.181
					c2.6-0.659,5.12-1.56,7.68-2.33c1.2-0.369,2.64-0.6,3.73-1.279c2.07-1.29,0.04-3.24-1.54-3.69c-1.86-0.53-3.77-0.689-5.66-1.05
					l-0.01-0.98c0.05-0.02,0.11-0.01,0.18,0c2.77,0.551,5.78,0.521,8.12,2.301c0.28,0.21,0.51,0.439,0.68,0.68
					c-0.06,0-0.12,0-0.18,0c-0.37,0.01-0.63,0.42-0.43,0.75c0.28,0.47,0.56,0.94,0.8,1.42c-0.18,0.38-0.48,0.74-0.87,1.061
					c-0.8,0.649-1.89,0.97-2.87,1.25c-1.99,0.569-3.94,1.25-5.92,1.859c-3.86,1.19-7.58,1.97-11.62,1.43
					c-3.91-0.529-7.79-1.399-11.65-2.21c-2.3-0.489-4.57-0.97-6.94-0.81c-1.15,0.08-2.93,0.29-3.98-0.38
					c-0.43-0.28-0.73-0.57-0.9-0.87c0.04-0.13,0.07-0.25,0.11-0.37c0.1-0.31-0.1-0.53-0.34-0.59
					C375.02,373.02,376.67,371.67,378.58,370.5z"/>
				<path fill="#B3B3B3" d="M416.37,370.8c1.58,0.45,3.61,2.4,1.54,3.69c-1.09,0.68-2.53,0.91-3.73,1.279
					c-2.56,0.771-5.08,1.671-7.68,2.33c-3.22,0.811-6.29,0.69-9.54,0.181c-5.11-0.8-10.15-2.431-15.32-2.851
					c-1.07-0.09-2.2,0.12-3.28,0.141c-1.56,0.27-2.15-0.49-1.79-2.261c0.59-0.68,1.54-1.35,2.24-1.85c1.87-1.33,4.12-2.11,6.19-3.03
					c0.19-0.08,0.26-0.22,0.26-0.37l0.49-0.01l0.08,4.7c0,0,19.36,4.25,24.89-1.75l-0.01-1.25
					C412.6,370.11,414.51,370.27,416.37,370.8z"/>
				<path d="M412,391c0,2,0,4,0,6h-1c0-2,0-6,0-6H412z"/>
				<path fill="#754C24" d="M400,260v2c0,1,1,1,1,0c0,0,0-1,0-2S400,259,400,260z M409.47,216.5l0.05,7l0.81,99.83l0.06,7.17
					l0.23,27.88l0.08,10.39c-0.5,0.061-0.65,0.851-0.08,0.961c0.03,0.01,0.06,0.01,0.09,0.02l0.01,1.25
					c-5.53,6-24.89,1.75-24.89,1.75l-0.08-4.7l-0.16-9.81l-0.41-24.74l-0.17-10.17l-1.63-98.67l-0.12-7l-0.5-30.53
					c0.81-0.46,1.48-1.01,1.99-1.64c0,0,5-3.61,12.5,2.63c0,0,5.83,1.15,11.98,0.97l0.02,0.78L409.47,216.5z M402.75,284.25
					c-0.01-1.5-0.12-3-0.13-4.5c0-0.64-1-0.65-1,0c0.01,1.5,0.12,3,0.13,4.5C401.75,284.89,402.75,284.89,402.75,284.25z
					 M400.52,363.51c0.13,0.63,1.1,0.36,0.96-0.27c-0.23-1.08-0.39-2.17-0.62-3.25c-0.14-0.63-1.1-0.36-0.97,0.27
					C400.13,361.34,400.28,362.43,400.52,363.51z M400,239.88c0.06,0.63,1.06,0.64,1,0c-0.12-1.38-0.25-2.76-0.38-4.13
					c-0.05-0.64-1.05-0.64-1,0C399.75,237.12,399.88,238.5,400,239.88z M398.73,323.63c0.11-0.63-0.85-0.899-0.96-0.26
					c-0.24,1.41-0.27,2.84-0.5,4.25c-0.11,0.63,0.85,0.899,0.96,0.26C398.47,326.47,398.5,325.04,398.73,323.63z M397.14,303.76
					c0.2,0.61,1.17,0.351,0.97-0.27c-0.58-1.74-0.62-3.561-0.86-5.37c-0.08-0.62-1.08-0.63-1,0
					C396.5,300.01,396.54,301.93,397.14,303.76z M393.14,369.26c0.1,0.63,1.06,0.36,0.97-0.27c-0.14-0.88-0.37-1.74-0.5-2.62
					c-0.1-0.64-1.06-0.37-0.97,0.26C392.78,367.51,393.01,368.38,393.14,369.26z M393.11,227.23c0.1-0.63-0.87-0.81-0.97-0.18
					C392.03,227.76,392,229,392,229c0,1,1,1,1,0C393,229,393.01,227.85,393.11,227.23z M391.39,261.38c0.22,0.6,1.19,0.34,0.97-0.26
					c-0.47-1.29-0.37-2.65-0.36-4c0-0.64-1-0.64-1,0C390.99,258.55,390.9,260.02,391.39,261.38z"/>
				<path d="M410.7,368.77l0.01,0.98c-0.03-0.01-0.06-0.01-0.09-0.02C410.05,369.62,410.2,368.83,410.7,368.77z"/>
				<path d="M402.62,279.75c0.01,1.5,0.12,3,0.13,4.5c0,0.64-1,0.64-1,0c-0.01-1.5-0.12-3-0.13-4.5
					C401.62,279.1,402.62,279.11,402.62,279.75z"/>
				<path d="M401.5,392h-1c0-1,0-2.22-0.23-3.24c-0.15-0.63,0.82-0.83,0.96-0.21C401.49,389.67,401.5,391,401.5,392z"/>
				<path d="M401.48,363.24c0.14,0.63-0.83,0.899-0.96,0.27c-0.24-1.08-0.39-2.17-0.63-3.25c-0.13-0.63,0.83-0.899,0.97-0.27
					C401.09,361.07,401.25,362.16,401.48,363.24z"/>
				<path d="M401,260c0,1,0,2,0,2c0,1-1,1-1,0v-2C400,259,401,259,401,260z"/>
				<path d="M401,239.88c0.06,0.64-0.94,0.63-1,0c-0.12-1.38-0.25-2.76-0.38-4.13c-0.05-0.64,0.95-0.64,1,0
					C400.75,237.12,400.88,238.5,401,239.88z"/>
				<path d="M397.77,323.37c0.11-0.64,1.07-0.37,0.96,0.26c-0.23,1.41-0.26,2.84-0.5,4.25c-0.11,0.64-1.07,0.37-0.96-0.26
					C397.5,326.21,397.53,324.78,397.77,323.37z"/>
				<path d="M398.11,303.49c0.2,0.62-0.77,0.88-0.97,0.27c-0.6-1.83-0.64-3.75-0.89-5.64c-0.08-0.63,0.92-0.62,1,0
					C397.49,299.93,397.53,301.75,398.11,303.49z"/>
				<path d="M394.11,368.99c0.09,0.63-0.87,0.899-0.97,0.27c-0.13-0.88-0.36-1.75-0.5-2.63c-0.09-0.63,0.87-0.899,0.97-0.26
					C393.74,367.25,393.97,368.11,394.11,368.99z"/>
				<path d="M392.14,227.05c0.1-0.63,1.07-0.45,0.97,0.18c-0.1,0.62-0.11,1.77-0.11,1.77c0,1-1,1-1,0
					C392,229,392.03,227.76,392.14,227.05z"/>
				<path d="M392.36,261.12c0.22,0.6-0.75,0.86-0.97,0.26c-0.49-1.36-0.4-2.83-0.39-4.26c0-0.64,1-0.64,1,0
					C391.99,258.47,391.89,259.83,392.36,261.12z"/>
				<path d="M390.98,389.37c0.11,0.63-0.86,0.899-0.96,0.26c-0.27-1.61-0.5-3.24-0.52-4.88c-0.01-0.65,0.99-0.64,1,0
					C390.52,386.3,390.73,387.84,390.98,389.37z"/>
				<path d="M389.23,398.62c0.16,0.62-0.8,0.89-0.96,0.26c-0.24-0.95-0.5-1.89-0.52-2.88c-0.01-0.65,0.99-0.64,1,0
					C388.77,396.9,389.01,397.75,389.23,398.62z"/>
				<path fill="#2E3192" d="M384.54,149.52c-3.59,19.24-6.71,33.65-6.71,33.65c-12.33,4.16-29.16-5.51-29.16-5.51
					c-4.42-4.91-15.98-1.72-16.39-1.6c1.23-2.73,6.42-14.25,12.39-27.95c0,0,0,0,0.01-0.01c4.33-9.97,9.07-21.09,12.98-30.83
					c0,0,16.67-4.94,25.84,2.73c0,0,3.24,2.32,5.95,1.33C387.88,131.12,386.16,140.82,384.54,149.52z"/>
				<path fill="#603813" d="M385.59,358.24l0.16,9.81l-0.49,0.01c0-0.319-0.36-0.67-0.76-0.489c-0.79,0.35-3.55,1.5-5.92,2.93
					H267.43c-0.73-3.78-10.67-2.22-13.05-1.73l-0.01-8.649h0.01L385,358.25L385.59,358.24z"/>
				<path fill="#A84000" d="M350,349c0,0,3,0,4,0s1-1,0-1s-3,0-4,0S349,349,350,349z M385.18,333.5l0.41,24.74l-0.59,0.01
					l-130.62,1.87h-0.01l-0.03-26.62H385H385.18z M370,353c0.65,0,0.65-1,0-1c-1.92,0-4,0-6,0v1C364,353,368.08,353,370,353z
					 M366,340.5c0.65,0,0.65-1,0-1c-1.54,0-3.09,0-4.62-0.23c-0.63-0.1-0.9,0.86-0.26,0.961C362.74,340.48,364.37,340.5,366,340.5z
					 M335.25,354.25c0.65,0.01,0.64-0.99,0-1c-2.09-0.02-4.17-0.24-6.25-0.5c-0.64-0.08-0.63,0.92,0,1
					C331.08,354.01,333.16,354.23,335.25,354.25z M322,346.5c0.65,0,0.65-1,0-1c-3,0-6-0.02-9-0.25c-0.64-0.05-0.64,0.95,0,1
					C316,346.48,319,346.5,322,346.5z M297.13,351.73c0.6-0.221,0.22-1.19-0.39-0.961c-2.46,0.91-4.74,0.98-7.74,0.98v1
					C289,352.75,294.59,352.68,297.13,351.73z M288,343.5c0.65,0,0.65-1,0-1c-2.98,0-5.93,0.06-8.88,0.52
					c-0.64,0.101-0.37,1.061,0.26,0.961C282.24,343.54,285.11,343.5,288,343.5z"/>
				<polygon fill="#603813" points="358.5,323.81 365.76,323.68 365.76,323.67 385.01,323.33 385.18,333.5 385,333.5 254.34,333.5 
					254.33,325.67 254.38,325.67 280.5,325.2 290.5,325.02 323.51,324.43 				"/>
				<polygon fill="#F7F6DA" points="383.38,224.66 385.01,323.33 365.76,323.67 365.75,323.33 364.5,225 364.5,224.91 
					382.76,224.67 				"/>
				<polygon fill="#603813" points="323.5,225.44 290.5,225.86 280.5,225.99 254.38,226.33 254.23,226.33 254.22,219.5 
					254.38,219.5 382.76,217.67 383.26,217.66 383.38,224.66 382.76,224.67 364.5,224.91 358.5,224.98 				"/>
				<path d="M383.25,390.75c0.65,0,0.65,1,0,1S382.6,390.75,383.25,390.75z"/>
				<path fill="#F7F6DA" d="M382.76,187.13l0.5,30.53l-0.5,0.01l-128.38,1.83h-0.16l-0.05-47.18l1.56-0.07c0,0,1.79,1.89,2.84,2.13
					c1.05,0.24,6.05-2.38,7.81-0.88l4.93,5.62c0,0,20.94,1.13,24.94,0l4.87,2.88c0,0,2.5-2.19,5-2.19c0,0,6.5-0.31,11.88,4.69h3
					c0,0,19.38-3,24.88-2c0,0,7.37,1.88,13.24,6.88C359.12,189.38,375.8,191.17,382.76,187.13z"/>
				<path d="M374.89,374.29c0.24,0.06,0.44,0.28,0.34,0.59c-0.04,0.12-0.07,0.24-0.11,0.37
					C374.92,374.94,374.86,374.62,374.89,374.29z"/>
				<path d="M370,352c0.65,0,0.65,1,0,1c-1.92,0-6,0-6,0v-1C366,352,368.08,352,370,352z"/>
				<path d="M366,339.5c0.65,0,0.65,1,0,1c-1.63,0-3.26-0.02-4.88-0.27c-0.64-0.101-0.37-1.061,0.26-0.961
					C362.91,339.5,364.46,339.5,366,339.5z"/>
				<polygon fill="#A67C52" points="365.76,323.67 365.76,323.68 358.5,323.81 358.5,310.5 358.5,239.5 358.5,225 358.5,224.98 
					364.5,224.91 364.5,225 365.75,323.33 				"/>
				<polygon fill="#FFFFFF" points="358.5,310.5 358.5,323.81 323.51,324.43 323.5,324 323.5,310.5 358,310.5 				"/>
				<polygon fill="#FFFFFF" points="358.5,239.5 358.5,310.5 358,310.5 323.5,310.5 323.5,239.5 358,239.5 				"/>
				<polygon fill="#FFFFFF" points="358.5,225 358.5,239.5 358,239.5 323.5,239.5 323.5,225.44 358.5,224.98 				"/>
				<path d="M354,348c1,0,1,1,0,1s-4,0-4,0c-1,0-1-1,0-1S353,348,354,348z"/>
				<path fill="#1B1464" d="M301.72,61.11c-0.02,0-0.04,0.02-0.06,0.05c-0.72,0.62-2.27,1.97-4.42,3.84l-5.49-11.5
					c0,0,22.78,4.01,53.75,8.21V72l1.01,2.68c-1.71,0.85-2.68,1.82-2.68,1.82c-2.5,5-5.66,1.67-5.66,1.67
					c-9.84-12.67-20.55-7.3-20.55-7.3l-5.5-7.37C306.65,58.02,302.29,60.72,301.72,61.11z"/>
				<path fill="#1B1464" d="M345.94,55.12L345.5,58v3.71c-30.97-4.2-53.75-8.21-53.75-8.21c-4.25-6.5,1.92-8.5,1.92-8.5
					S312.75,50.22,345.94,55.12z"/>
				<path d="M335.25,353.25c0.64,0.01,0.65,1.01,0,1c-2.09-0.02-4.17-0.24-6.25-0.5c-0.63-0.08-0.64-1.08,0-1
					C331.08,353.01,333.16,353.23,335.25,353.25z"/>
				<polygon fill="#FFFFFF" points="323.5,324 323.51,324.43 290.5,325.02 290.5,325 290.5,310.5 323.5,310.5 				"/>
				<rect x="290.5" y="239.5" fill="#FFFFFF" width="33" height="71"/>
				<polygon fill="#FFFFFF" points="323.5,225.44 323.5,239.5 290.5,239.5 290.5,226 290.5,225.86 				"/>
				<path d="M322,345.5c0.65,0,0.65,1,0,1c-3,0-6-0.02-9-0.25c-0.64-0.05-0.64-1.05,0-1C316,345.48,319,345.5,322,345.5z"/>
				<path fill="#2E3192" d="M295.81,85.32c-2.45-3.32-7.15-7.38-15.05-6.17c6.55-5.57,12.53-10.73,16.48-14.15
					c2.15-1.87,3.7-3.22,4.42-3.84c0,0,0.02-0.02,0.06-0.05c0.57-0.39,4.93-3.09,10.4,2.39l5.5,7.37l1.13,1.51l-20.73,16.83
					C298.02,89.21,297.37,87.41,295.81,85.32z"/>
				<path fill="#2E3192" d="M298.02,89.21l-21.88,17.75l-0.26-0.32c0,0,0.04-2.03-1.87-4.1l21.8-17.22
					C297.37,87.41,298.02,89.21,298.02,89.21z"/>
				<path d="M296.74,350.77c0.61-0.229,0.99,0.74,0.39,0.961c-2.54,0.949-8.13,1.02-8.13,1.02v-1
					C292,351.75,294.28,351.68,296.74,350.77z"/>
				<path fill="#2E3192" d="M295.81,85.32l-21.8,17.22c-2.13-2.29-6.67-4.62-16.36-4.2c6.94-5.55,15.43-12.65,23.11-19.19
					C288.66,77.94,293.36,82,295.81,85.32z"/>
				<polygon fill="#A67C52" points="290.5,239.5 290.5,310.5 290.5,325 290.5,325.02 280.5,325.2 280.5,325 280.5,226 280.5,225.99 
					290.5,225.86 290.5,226 				"/>
				<path d="M288,342.5c0.65,0,0.65,1,0,1c-2.89,0-5.76,0.04-8.62,0.48c-0.63,0.1-0.9-0.86-0.26-0.961
					C282.07,342.56,285.02,342.5,288,342.5z"/>
				<polygon fill="#F7F6DA" points="280.5,325 280.5,325.2 254.38,325.67 254.33,325.67 254.23,226.33 254.38,226.33 280.5,225.99 
					280.5,226 				"/>
				<path fill="#2E3192" d="M276.14,106.96l-20.52,16.66c0,0-0.51-2.05-2.13-4.87l20.52-16.21c1.91,2.07,1.87,4.1,1.87,4.1
					L276.14,106.96z"/>
				<path fill="#2E3192" d="M274.01,102.54l-20.52,16.21c-1.76-3.07-4.84-7.06-10.01-10.28l0.14-0.22
					c1.38-0.15,6.89-4.21,14.03-9.91C267.34,97.92,271.88,100.25,274.01,102.54z"/>
				<path fill="#2E3192" d="M269.67,140.5l2.3,1.54c-0.16,0.27-0.32,0.54-0.47,0.81c-6.85,11.83-12.67,21.48-12.67,21.48
					c-0.06,0.39-0.15,0.75-0.26,1.08c-1.4,4.14-6.4,3.42-6.4,3.42c-4-3.16-7.84-2.5-7.84-2.5c-9.33,2.34-15.33-2.5-15.33-2.5
					c-4.23-5.38-13.25-6.86-13.66-6.93l19.33-25.98l0.02-0.72c5.75,0.14,11.68,0.46,14.43,1.18c0,0,7,8.12,8.53,8.29
					C259.17,139.83,269.67,140.5,269.67,140.5z"/>
				<path d="M219.73,387.39c0.24-4.729,1.85-9.67,2.54-14.02c0.08-0.54,0.78-0.43,0.94-0.01c0,0.02,0.01,0.05,0.02,0.08
					c0.01,0.06,0.01,0.119,0,0.189c-1.18,7.43-5.39,17.18,0.5,23.66c5.3,5.83,13.09,4.28,20.07,3.95
					c4.64-0.221,9.27-0.181,13.9,0.06c4.54,0.23,9.03-0.51,10.38-5.56c1.04-3.86,0.84-7.891,1.3-11.84c0.25-2.21,0.6-4.33-0.19-6.5
					c-0.59-1.641-1.38-3.16-2.21-4.69c0.25-0.36,0.41-0.76,0.47-1.21c1.02,1.8,2.11,3.65,2.71,5.64c0.7,2.36,0.49,4.341,0.22,6.761
					c-0.5,4.5-0.15,9.22-1.84,13.51c-1.32,3.359-4.48,4.8-7.95,4.92c-5.27,0.18-10.55-0.38-15.85-0.14
					c-7.72,0.369-16.6,2.119-22.15-4.73C220.17,394.47,219.55,390.99,219.73,387.39z"/>
				<path fill="#B3B3B3" d="M269.19,377.4c0.79,2.17,0.44,4.29,0.19,6.5c-0.46,3.949-0.26,7.979-1.3,11.84
					c-1.35,5.05-5.84,5.79-10.38,5.56c-4.63-0.24-9.26-0.28-13.9-0.06c-6.98,0.33-14.77,1.88-20.07-3.95
					c-5.89-6.48-1.68-16.23-0.5-23.66c0.01-0.07,0.01-0.13,0-0.189c0.33,1.279,2.47,2.069,3.57,2.31c4.04,0.89,8.43,0.93,12.53,0.99
					c5.02,0.069,10.1,0.35,15.1-0.141c2.63-0.26,10.5-0.739,12.55-3.89C267.81,374.24,268.6,375.76,269.19,377.4z M249,386.75
					c0.65,0,0.65-1,0-1S248.35,386.75,249,386.75z M243.25,397c0.65,0.01,0.64-0.99,0-1c-0.81-0.02-1.6-0.23-2.37-0.48
					c-0.61-0.199-0.87,0.761-0.26,0.961C241.47,396.76,242.35,396.98,243.25,397z M229.25,386.5c0.65,0,0.65-1,0-1
					S228.6,386.5,229.25,386.5z"/>
				<path d="M267.43,370.5c0.02,0.07,0.03,0.14,0.04,0.22c0.03,0.28,0.02,0.54-0.02,0.78c-0.09-0.17-0.18-0.33-0.27-0.5
					c-0.17-0.31-0.49-0.3-0.71-0.15c-0.59-2.88-9.89-1.52-11.84-1.119c-0.09,0.02-0.18,0.01-0.25-0.011v-0.95
					C256.76,368.28,266.7,366.72,267.43,370.5z"/>
				<path d="M267.18,371c0.09,0.17,0.18,0.33,0.27,0.5c-0.06,0.45-0.22,0.85-0.47,1.21c-0.18-0.33-0.36-0.67-0.55-1.01
					c0.07-0.22,0.09-0.45,0.07-0.7c-0.01-0.05-0.01-0.1-0.03-0.15C266.69,370.7,267.01,370.69,267.18,371z"/>
				<path d="M266.43,371.7c0.19,0.34,0.37,0.68,0.55,1.01c-2.05,3.15-9.92,3.63-12.55,3.89c-5,0.49-10.08,0.21-15.1,0.141
					c-4.1-0.061-8.49-0.101-12.53-0.99c-1.1-0.24-3.24-1.03-3.57-2.31c-0.01-0.03-0.02-0.061-0.02-0.08
					c-0.08-0.4,0.01-0.841,0.37-1.33c1.65-2.3,4.8-2.99,7.29-4.011c0.36-0.149,0.59,0.141,0.59,0.45c0,0.21-0.1,0.42-0.33,0.511
					c-0.9,0.369-9.21,3.449-6.16,5.09c1.98,1.06,4.51,1.069,6.71,1.29c4.13,0.399,8.26,0.319,12.4,0.399
					c3.2,0.05,6.39,0.21,9.58-0.09C255.81,375.46,265.48,374.85,266.43,371.7z"/>
				<path d="M266.5,371c0.02,0.25,0,0.48-0.07,0.7c-0.04-0.07-0.07-0.13-0.11-0.2c-0.14-0.26-0.04-0.51,0.15-0.65
					C266.49,370.9,266.49,370.95,266.5,371z"/>
				<path fill="#B3B3B3" d="M266.32,371.5c0.04,0.07,0.07,0.13,0.11,0.2c-0.95,3.149-10.62,3.76-12.77,3.97
					c-3.19,0.3-6.38,0.14-9.58,0.09c-4.14-0.08-8.27,0-12.4-0.399c-2.2-0.221-4.73-0.23-6.71-1.29c-3.05-1.641,5.26-4.721,6.16-5.09
					c0.23-0.091,0.33-0.301,0.33-0.511h0.19l0.02,1.53c0,0,0.08,4.25,7.33,3.75s13.75-1,13.75-1l1.63-1.25v-1.78
					c0.07,0.021,0.16,0.03,0.25,0.011c1.95-0.4,11.25-1.761,11.84,1.119C266.28,370.99,266.18,371.24,266.32,371.5z"/>
				<path fill="#2E3192" d="M255.62,123.62l-0.06,0.38c0,0,0.82,2.5-1.18,2.5s-3.38,0-3.38,0s-3.18-15.23-24.34-19.86
					c2.31-1.89,5.09-2.76,5.09-2.76c4.78,1.01,8.63,2.67,11.73,4.59c5.17,3.22,8.25,7.21,10.01,10.28
					C255.11,121.57,255.62,123.62,255.62,123.62z"/>
				<path fill="#754C24" d="M254.34,333.5l0.03,26.62l0.01,8.649h-0.01c-0.54,0.11-0.43,0.83,0.01,0.95v1.78l-1.63,1.25
					c0,0-6.5,0.5-13.75,1s-7.33-3.75-7.33-3.75l-0.02-1.53l-2.11-197.1c3.1,1.01,9.95,2.55,20.52,1.13l4.11-0.18l0.05,47.18
					l0.01,6.83l0.1,99.34L254.34,333.5z M248.12,363.38c0.01,0.64,1.01,0.64,1,0c0-1.71-0.11-3.42-0.12-5.13c0-0.64-1-0.64-1,0
					C248.01,359.96,248.12,361.67,248.12,363.38z M245.38,207.88c0.04,0.64,1.04,0.64,1,0c-0.15-2.26-0.49-4.5-0.63-6.76
					c-0.04-0.64-1.04-0.64-1,0C244.89,203.38,245.23,205.62,245.38,207.88z M245.88,243.75c0.04-0.64-0.96-0.64-1,0
					c-0.11,1.32,0.25,2.73-0.24,3.99c-0.23,0.6,0.74,0.86,0.97,0.27C246.13,246.65,245.77,245.16,245.88,243.75z M244.27,335.01
					c0.1,0.63,1.06,0.36,0.96-0.27c-0.38-2.38-0.35-4.46-1.26-6.721c-0.52-1.279-1-3.359-2.26-4.109c-2.71-1.58-2.89,4.52-2.96,5.59
					c-0.04,0.64,0.96,0.64,1,0c0.05-0.79,0.06-1.59,0.13-2.38c0.01-0.19,0.68-3.54,1.81-1.74c0.45,0.7,0.76,1.51,1.06,2.271
					c0.5,1.239,1,2.399,1.16,3.739C244.06,332.6,244.07,333.8,244.27,335.01z M243.5,357.62c0.07,0.64,1.07,0.649,1,0
					c-0.25-2.29-0.5-4.58-0.75-6.87c-0.07-0.63-1.07-0.64-1,0C243,353.04,243.25,355.33,243.5,357.62z M242.39,228.38
					c0.21,0.61,1.18,0.35,0.97-0.26c-0.5-1.43-0.77-2.91-1.13-4.38c-0.15-0.62-1.12-0.36-0.96,0.27
					C241.63,225.47,241.9,226.96,242.39,228.38z M241,366c0-1,0-2,0-3h-1c0,0,0,2,0,3S241,367,241,366z M240.75,280
					c0-1-0.01-2.11-0.13-3.19c-0.06-0.63-1.06-0.58-1,0.07c0.12,1.08,0.13,2.12,0.13,3.12S240.75,281,240.75,280z M237.73,260.01
					c0.24-1.4,0.02-2.77-0.25-4.14c-0.12-0.64-1.09-0.37-0.96,0.26c0.23,1.19,0.45,2.4,0.25,3.61
					C236.66,260.37,237.62,260.64,237.73,260.01z M234.75,362c0.06,0.64,1.06,0.64,1,0c-0.12-1.25-0.13-2.5-0.25-3.75
					c-0.06-0.64-1.06-0.64-1,0C234.62,359.5,234.63,360.75,234.75,362z"/>
				<path d="M254.38,368.77v0.95c-0.44-0.12-0.55-0.84-0.01-0.95H254.38z"/>
				<path fill="#2E3192" d="M251,126.5c0,0,0.12,2.25-1.88,2.62l-0.39,0.09c-0.69-3.04-2.51-8.41-6.98-10.33
					c0,0-7.37,0.19-16.88,0.42l-0.99-8.92c0.51-1.53,1.58-2.77,2.78-3.74C247.82,111.27,251,126.5,251,126.5z"/>
				<path d="M249.12,363.38c0.01,0.64-0.99,0.64-1,0c0-1.71-0.11-3.42-0.12-5.13c0-0.64,1-0.64,1,0
					C249.01,359.96,249.12,361.67,249.12,363.38z"/>
				<path d="M249,385.75c0.65,0,0.65,1,0,1S248.35,385.75,249,385.75z"/>
				<path fill="#2E3192" d="M202.5,125.43V120v-0.18c7.23-0.16,15.38-0.35,22.37-0.52c9.51-0.23,16.88-0.42,16.88-0.42
					c4.47,1.92,6.29,7.29,6.98,10.33c0.3,1.3,0.39,2.17,0.39,2.17c-2.75-0.72-8.68-1.04-14.43-1.18
					c-7.23-0.16-14.19-0.03-14.19-0.03s-8.85,1.49-17.94,1.75L202.5,129V125.43z"/>
				<path d="M246.38,207.88c0.04,0.64-0.96,0.64-1,0c-0.15-2.26-0.49-4.5-0.63-6.76c-0.04-0.64,0.96-0.64,1,0
					C245.89,203.38,246.23,205.62,246.38,207.88z"/>
				<path d="M244.88,243.75c0.04-0.64,1.04-0.64,1,0c-0.11,1.41,0.25,2.9-0.27,4.26c-0.23,0.59-1.2,0.33-0.97-0.27
					C245.13,246.48,244.77,245.07,244.88,243.75z"/>
				<path d="M245.23,334.74c0.1,0.63-0.86,0.899-0.96,0.27c-0.2-1.21-0.21-2.41-0.36-3.62c-0.16-1.34-0.66-2.5-1.16-3.739
					c-0.3-0.761-0.61-1.57-1.06-2.271c-1.13-1.8-1.8,1.55-1.81,1.74c-0.07,0.79-0.08,1.59-0.13,2.38c-0.04,0.64-1.04,0.64-1,0
					c0.07-1.07,0.25-7.17,2.96-5.59c1.26,0.75,1.74,2.83,2.26,4.109C244.88,330.28,244.85,332.36,245.23,334.74z"/>
				<path d="M244.5,357.62c0.07,0.649-0.93,0.64-1,0c-0.25-2.29-0.5-4.58-0.75-6.87c-0.07-0.64,0.93-0.63,1,0
					C244,353.04,244.25,355.33,244.5,357.62z"/>
				<path d="M243.36,228.12c0.21,0.61-0.76,0.87-0.97,0.26c-0.49-1.42-0.76-2.91-1.12-4.37c-0.16-0.63,0.81-0.89,0.96-0.27
					C242.59,225.21,242.86,226.69,243.36,228.12z"/>
				<path d="M243.25,396c0.64,0.01,0.65,1.01,0,1c-0.9-0.02-1.78-0.24-2.63-0.52c-0.61-0.2-0.35-1.16,0.26-0.961
					C241.65,395.77,242.44,395.98,243.25,396z"/>
				<path d="M241,363c0,1,0,2,0,3s-1,1-1,0s0-3,0-3H241z"/>
				<path d="M240.62,276.81c0.12,1.08,0.13,2.19,0.13,3.19s-1,1-1,0s-0.01-2.04-0.13-3.12
					C239.56,276.23,240.56,276.18,240.62,276.81z"/>
				<path d="M237.48,255.87c0.27,1.37,0.49,2.74,0.25,4.14c-0.11,0.63-1.07,0.36-0.96-0.27c0.2-1.21-0.02-2.42-0.25-3.61
					C236.39,255.5,237.36,255.23,237.48,255.87z"/>
				<path d="M235.75,362c0.06,0.64-0.94,0.64-1,0c-0.12-1.25-0.13-2.5-0.25-3.75c-0.06-0.64,0.94-0.64,1,0
					C235.62,359.5,235.63,360.75,235.75,362z"/>
				<path fill="#2E3192" d="M181.46,131.72c6.09-0.08,11.38-0.07,14.37,0.11c2.17,0.13,4.46,0.15,6.73,0.09
					c9.09-0.26,17.94-1.75,17.94-1.75s6.96-0.13,14.19,0.03l-0.02,0.72l-19.33,25.98c-0.01,0-0.01,0-0.01,0l-4.16,5.6
					c-4.17,1.17-26.84-8.83-26.84-8.83c-9-7.84-16.16-2.67-16.16-2.67c-29.84-0.5-34.67-16.64-34.67-16.64v-0.01
					c5.13-0.51,9.83-1.09,10.58-1.6C144.08,132.75,165.51,131.92,181.46,131.72z"/>
				<path d="M229.25,385.5c0.65,0,0.65,1,0,1S228.6,385.5,229.25,385.5z"/>
				<path fill="#2E3192" d="M150.4,126.73c1.75-0.2,3.56-0.31,5.27-0.23c0,0,11.66-1.17,27.16-1c0,0,13.6-0.11,19.67-0.07V129
					l0.06,2.92c-2.27,0.06-4.56,0.04-6.73-0.09c-2.99-0.18-8.28-0.19-14.37-0.11c-15.95,0.2-37.38,1.03-37.38,1.03
					c-0.75,0.51-5.45,1.09-10.58,1.6c-3.2,0.33-6.58,0.62-9.26,0.83c-3.02,0.25-5.16,0.4-5.16,0.4l-0.66-2.66
					c-9.5-22.17-1.42-28.17-1.42-28.17c10.42-2.17,13.12,8.5,13.12,8.5c4.96-0.38,13.28,0.48,20.26,1.43
					C150.34,115.04,149.58,122.69,150.4,126.73z"/>
				<path fill="#2E3192" d="M202.5,120v5.43c-6.07-0.04-19.67,0.07-19.67,0.07c-15.5-0.17-27.16,1-27.16,1
					c-1.71-0.08-3.52,0.03-5.27,0.23c-0.82-4.04-0.06-11.69-0.02-12.05c6.75,0.91,12.24,1.89,12.24,1.89s21,3.31,20.5,3.55
					c-0.19,0.1,8.58-0.06,19.38-0.3V120z"/>
			</g>
			<g>
				<path fill="none" stroke="#000000" stroke-miterlimit="10" d="M297.24,65l-5.49-11.5c-4.25-6.5,1.92-8.5,1.92-8.5
					s19.08,5.22,52.27,10.12c43.43,6.41,111,12.28,191.64,5.24c18.52-1.62,37.729-3.92,57.49-7.05c15.689-2.48,31.72-5.49,48.04-9.1
					c9.859-2.18,19.83-4.58,29.89-7.21c0,0,5.67-1,0,8.33l-7.67,12c-5,1.67-11,3.67-11,3.67c-5.15,1.72-5.04,4.45-3.47,6.88"/>
				<path fill="none" stroke="#000000" stroke-miterlimit="10" d="M301.72,61.11c-0.02,0-0.04,0.02-0.06,0.05"/>
				<path fill="none" stroke="#000000" stroke-miterlimit="10" d="M572.17,79c-3.84,2.33-15.34,0.15-15.34,0.15
					c-8.66-3.68-13.5-1.38-13.5-1.38c-3,0.11-2.16,5.73-2.16,5.73c-4.17,0.83-10.34,0-10.34,0c-8.16-3.83-8.5-3.5-8.5-3.5
					c-7-1.5-15.04,0.17-15.04,0.17c-3.03,0-1.62,5.64-1.62,5.64c-2.5-1.03-12.34-0.12-12.34-0.12c-10,0.85-11.83-3.19-11.83-3.19
					c-3.67-3.67-10.67-1.5-10.67-1.5c-6-2.5-4.5,4.67-4.5,4.67c-2.5,0.16-14.5-0.72-14.5-0.72c-7.33,0.45-12.16-3.45-12.16-3.45
					c-1.96-1.5-4.33-1.82-6.33-1.71c-2.44,0.13-4.34,0.88-4.34,0.88c-2.33-1.17-1.83,3.83-1.83,3.83
					c-3.5,1.67-13.17-1.83-13.17-1.83c-14.67-6.84-17.17-3.74-17.17-3.74c-3.5,0.93-2.33,5.57-2.33,5.57
					c-3.5,2.17-12.5-4.17-12.5-4.17c-5.83-6.83-10.67-1.18-10.67-1.18c0.5,4.32-3.33,3.02-3.33,3.02c-4-4.5-9.33-6.67-9.33-6.67
					c-5.23-3.12-9.56-2.11-12.16-0.82c-1.71,0.85-2.68,1.82-2.68,1.82c-2.5,5-5.66,1.67-5.66,1.67c-9.84-12.67-20.55-7.3-20.55-7.3"
					/>
				<path fill="none" stroke="#000000" stroke-miterlimit="10" d="M671.5,41.75c-5.35,3.58-15.21,6.86-28,9.82
					c-12.88,2.98-28.74,5.64-45.97,7.99c-18.891,2.57-39.41,4.75-59.46,6.54c-20.83,1.86-41.15,3.3-58.57,4.31
					c-2.04,0.12-4.04,0.23-6,0.34c-11.82,0.65-25.48,0.47-39.89-0.26c-15.28-0.77-31.42-2.15-47.11-3.8
					c-14.37-1.52-28.37-3.26-41-4.98c-30.97-4.2-53.75-8.21-53.75-8.21"/>
				<path fill="none" stroke="#000000" stroke-miterlimit="10" d="M724.52,121.33c-0.01,0-0.01-0.01-0.02-0.01"/>
				<path fill="none" stroke="#000000" stroke-miterlimit="10" d="M731,100.67c-2.82-0.75-7.67-3.47-13.17-6.99"/>
				<path fill="none" stroke="#000000" stroke-miterlimit="10" d="M665.33,57.33L675.52,58c0,0,5.48,9.33,10.15,12.67
					c0,0,1.85,1.43,4.83,3.67"/>
				<path fill="none" stroke="#000000" stroke-miterlimit="10" d="M724.5,121.32V108c0,0,2.86-3.61,6.87-6.87
					c3.3-2.68,7.39-5.13,11.3-5.13c0,0,17-3.67,15.66,10.33l-3.66,1.67l-1-7.33c0,0-6.75-0.75-8.67,0.66c0,0-1.03,1.05-2.52,2.75
					c-3.521,3.99-9.61,11.52-10.9,17.25"/>
				<path fill="none" stroke="#000000" stroke-miterlimit="10" d="M731.57,121.34c-0.04,0.14-0.42,1.29-1.83,2.08"/>
				<path fill="none" stroke="#000000" stroke-miterlimit="10" d="M743.09,126.66c2.41,0.41,5.09,0.86,7.99,1.34l14.62,28.63
					c-0.82,1.47-1.2,2.54-1.2,2.54c-0.26,0.08-0.55,0.15-0.87,0.22c-5.75,1.19-21.3,0.44-21.3,0.44
					c-7.16-0.66-10.41-3.16-10.41-3.16c-4.08-2-8.75,6.66-8.75,6.66c-5,8.34-23.34,3.57-23.34,3.57c-6.83-4.94-9.33-1.4-9.33-1.4
					c-1.17,4.33-6.5,2.33-6.5,2.33c-3.5-1.83-9.33,1.57-9.33,1.57c-6,2.4-13.84-3.57-13.84-3.57c-7.66-5-15.83,0-15.83,0
					c-3.83,5.5-9.17,3-9.17,3c-3.33-1-10.83,3.52-10.83,3.52c-6.5,2.68-16.33-2.52-16.33-2.52c-3.84-1.83-13.17,5.34-13.17,5.34
					s-3.92-11.48-8.74-28.87c-2.529-9.14-5.319-19.92-7.91-31.52c-0.21-0.96-0.43-1.91-0.64-2.88c-2.3-10.55-4.42-21.71-6.04-32.9
					c0,0-2.34-9.03,5-9.26c0,0,8.66-1.07,15,3.26c0,0,13.5,1.69,17.66,1.34c0,0-4.33-6.67,2.5-7.01c0,0,9.5-2.33,25.34,1.5
					c0,0,4.51,0.52,8.94,0c1.489-0.18,2.96-0.47,4.25-0.95c1.79,2.76,5.47,5.12,5.47,5.12s13.84,11.63,32.64,25.15
					c0.04,0.03,0.08,0.06,0.12,0.09c3.8,2.75,7.28,5.57,12.13,8.38c0.09,0.05,0.181,0.11,0.28,0.16c0,0,0,0,0,0.01
					c6.99,5.01,15.11,10.01,23,14.53V124c2.53,0.42,4.18,0.02,5.24-0.58l-0.66,0.75c0,0,5.26,0.99,14,2.49"/>
				<path fill="none" stroke="#000000" stroke-miterlimit="10" d="M798.91,133.44l0.149,0.07l3.86,1.74
					c2.34,0.56,4.92,1.56,6.58,2.25c0.01,0,0.02,0.01,0.03,0.01c1.05,0.43,1.72,0.74,1.72,0.74c1,0.52,2.21,0.66,3.25,0.66
					c1.31,0,2.35-0.24,2.35-0.24c2.841-0.17,24.4-22.25,24.4-22.25c0.75-1.84-7-5.25-7-5.25c-0.53,0.25-2.45,2.05-4.96,4.46
					c-0.01,0.01-0.01,0.01-0.021,0.02c-5.77,5.58-14.609,14.71-16.72,16.81c-0.02,0.01-0.03,0.03-0.05,0.04h-0.01
					c-0.271,0-0.41,0.38-0.41,0.38c-0.811,1.31-1.74,1.92-2.561,2.21c-1.21,0.42-2.189,0.09-2.189,0.09
					c-0.561-0.14-1.11-0.27-1.65-0.4c-2.39-0.55-4.569-0.96-6.62-1.27c-10.329-1.56-17.67-0.73-34.479-3.34
					c-4.88-0.76-9.42-1.49-13.5-2.17"/>
				<path fill="none" stroke="#000000" stroke-miterlimit="10" d="M729.74,123.42l1.83-2.08l0.01-0.01c0.11,0,0.229,0,0.34,0.01
					c13.061,0.22,26.49-0.92,26.49-0.92c2.93-6.27,6.42-9.13,7.89-10.12c0.44-0.3,0.7-0.43,0.7-0.43
					c-5.08-0.33-9.16-0.86-12.41-1.47c-9.63-1.81-12.109-4.32-12.109-4.32"/>
				<path fill="none" stroke="#000000" stroke-miterlimit="10" d="M731.92,121.34c0,0,51,7.33,59.75,6.49c0,0,0.36-0.69,1.01-1.75
					c1.94-3.18,6.49-9.64,11.74-10.58l-0.25-0.25l-0.67-0.67c0,0-31.72-2.49-37.2-4.28"/>
				<polyline fill="none" stroke="#000000" stroke-miterlimit="10" points="792.17,127.9 792.27,127.92 812.5,132.41 				"/>
				<line fill="none" stroke="#000000" stroke-miterlimit="10" x1="804.42" y1="115" x2="829.27" y2="115.61"/>
				<path fill="none" stroke="#000000" stroke-miterlimit="10" d="M717.83,111c-4.85-2.82-9.46-5.75-13.79-8.71"/>
				<path fill="none" stroke="#000000" stroke-miterlimit="10" d="M674.45,78.64c-7.25-6.74-11.28-11.31-11.28-11.31"/>
				<path fill="none" stroke="#000000" stroke-miterlimit="10" d="M717.83,93.68c0,0-5.66,2.15-7.16,1.89
					c-1.06-0.19-4.64,4.17-6.63,6.72c-12.4-8.46-22.521-17.09-29.59-23.65c1.979-1.68,4.51-3.55,6.05-3.64
					c2.83-0.17,10-0.66,10-0.66C696.85,79.13,708.32,87.59,717.83,93.68z"/>
				<path fill="none" stroke="#000000" stroke-miterlimit="10" d="M674.45,78.64c-1.67,1.41-2.95,2.69-2.95,2.69"/>
				<path fill="none" stroke="#000000" stroke-miterlimit="10" d="M704.04,102.29c-0.82,1.05-1.37,1.79-1.37,1.79"/>
				<path fill="none" stroke="#000000" stroke-miterlimit="10" d="M280.76,79.15c6.55-5.57,12.53-10.73,16.48-14.15
					c2.15-1.87,3.7-3.22,4.42-3.84c0,0,0.02-0.02,0.06-0.05c0.57-0.39,4.93-3.09,10.4,2.39l5.5,7.37l1.13,1.51l-20.73,16.83"/>
				<path fill="none" stroke="#000000" stroke-miterlimit="10" d="M274.01,102.54c-2.13-2.29-6.67-4.62-16.36-4.2
					c6.94-5.55,15.43-12.65,23.11-19.19c7.9-1.21,12.6,2.85,15.05,6.17"/>
				<path fill="none" stroke="#000000" stroke-miterlimit="10" d="M243.62,108.25c1.38-0.15,6.89-4.21,14.03-9.91"/>
				<path fill="none" stroke="#000000" stroke-miterlimit="10" d="M302.12,60.75c0,0-0.14,0.12-0.4,0.36"/>
				<path fill="none" stroke="#000000" stroke-miterlimit="10" d="M224.87,119.3l-0.99-8.92c0.51-1.53,1.58-2.77,2.78-3.74
					c2.31-1.89,5.09-2.76,5.09-2.76c4.78,1.01,8.63,2.67,11.73,4.59c5.17,3.22,8.25,7.21,10.01,10.28"/>
				<path fill="none" stroke="#000000" stroke-miterlimit="10" d="M255.56,124c0,0,0.82,2.5-1.18,2.5s-3.38,0-3.38,0
					s-3.18-15.23-24.34-19.86"/>
				<path fill="none" stroke="#000000" stroke-miterlimit="10" d="M251,126.5c0,0,0.12,2.25-1.88,2.62"/>
				<path fill="none" stroke="#000000" stroke-miterlimit="10" d="M249.12,131.38c-2.75-0.72-8.68-1.04-14.43-1.18
					c-7.23-0.16-14.19-0.03-14.19-0.03s-8.85,1.49-17.94,1.75c-2.27,0.06-4.56,0.04-6.73-0.09c-2.99-0.18-8.28-0.19-14.37-0.11
					c-15.95,0.2-37.38,1.03-37.38,1.03c-0.75,0.51-5.45,1.09-10.58,1.6c-3.2,0.33-6.58,0.62-9.26,0.83c-3.02,0.25-5.16,0.4-5.16,0.4
					l-0.66-2.66c-9.5-22.17-1.42-28.17-1.42-28.17c10.42-2.17,13.12,8.5,13.12,8.5c4.96-0.38,13.28,0.48,20.26,1.43
					c6.75,0.91,12.24,1.89,12.24,1.89s21,3.31,20.5,3.55c-0.19,0.1,8.58-0.06,19.38-0.3c7.23-0.16,15.38-0.35,22.37-0.52
					c9.51-0.23,16.88-0.42,16.88-0.42c4.47,1.92,6.29,7.29,6.98,10.33C249.03,130.51,249.12,131.38,249.12,131.38z"/>
				<path fill="none" stroke="#000000" stroke-miterlimit="10" d="M240.33,125.17l-18.83,1.33c-5.33-1.33-15-0.83-16.17-1
					c-0.24-0.04-1.29-0.06-2.83-0.07c-6.07-0.04-19.67,0.07-19.67,0.07c-15.5-0.17-27.16,1-27.16,1c-1.71-0.08-3.52,0.03-5.27,0.23
					c-5.61,0.68-10.73,2.39-10.73,2.39c-5.17,3.13-16.84,1.21-16.84,1.21c-2.83-3.66-5.16-15.33-5.16-15.33
					c-1.67-13.5,7.83-3.67,7.83-3.67"/>
				<path fill="none" stroke="#000000" stroke-miterlimit="10" d="M150.38,114.67c0,0,0,0,0,0.01c-0.04,0.36-0.8,8.01,0.02,12.05
					c0.25,1.25,0.65,2.15,1.27,2.39"/>
				<polyline fill="none" stroke="#000000" stroke-miterlimit="10" points="202.5,120 202.5,125.43 202.5,129 				"/>
				<path fill="none" stroke="#000000" stroke-miterlimit="10" d="M298.02,89.21l-21.88,17.75l-20.52,16.66c0,0-0.51-2.05-2.13-4.87
					l20.52-16.21l21.8-17.22C297.37,87.41,298.02,89.21,298.02,89.21z"/>
				<line fill="none" stroke="#000000" stroke-miterlimit="10" x1="310.62" y1="73.62" x2="295.81" y2="85.32"/>
				<polyline fill="none" stroke="#000000" stroke-miterlimit="10" points="345.5,72 345.5,61.71 345.5,58 				"/>
				<polyline fill="none" stroke="#000000" stroke-miterlimit="10" points="386.5,63 386.5,66.69 386.5,79 				"/>
				<polyline fill="none" stroke="#000000" stroke-miterlimit="10" points="433.83,67.33 433.61,70.49 433.17,77 				"/>
				<polyline fill="none" stroke="#000000" stroke-miterlimit="10" points="479.5,67 479.5,70.41 479.5,78 				"/>
				<path fill="none" stroke="#000000" stroke-miterlimit="10" d="M537.83,63.17c0,0,0.11,1.19,0.24,2.93
					c0.31,4.24,0.71,11.74-0.24,13.05"/>
				<path fill="none" stroke="#000000" stroke-miterlimit="10" d="M595.5,56c0,0,0.95,1.53,2.03,3.56c1.7,3.22,3.72,7.71,2.8,9.44"
					/>
				<polyline fill="none" stroke="#000000" stroke-miterlimit="10" points="643.5,46 643.5,51.57 643.5,64 				"/>
				<line fill="none" stroke="#000000" stroke-miterlimit="10" x1="168.17" y1="145.83" x2="181.46" y2="131.72"/>
				<line fill="none" stroke="#000000" stroke-miterlimit="10" x1="215.34" y1="156.9" x2="234.67" y2="130.92"/>
				<path fill="none" stroke="#000000" stroke-miterlimit="10" d="M133.5,134.36c0,0,4.83,16.14,34.67,16.64
					c0,0,7.16-5.17,16.16,2.67c0,0,22.67,10,26.84,8.83l4.16-5.6"/>
				<path fill="none" stroke="#000000" stroke-miterlimit="10" d="M215.33,156.9c0,0,0,0,0.01,0c0.41,0.07,9.43,1.55,13.66,6.93
					c0,0,6,4.84,15.33,2.5c0,0,3.84-0.66,7.84,2.5c0,0,5,0.72,6.4-3.42c0.11-0.33,0.2-0.69,0.26-1.08c0,0,5.82-9.65,12.67-21.48
					c0.15-0.27,0.31-0.54,0.47-0.81c6.14-10.64,13-22.89,17.18-31.43c2.18-4.46,3.62-7.91,3.85-9.61"/>
				<path fill="none" stroke="#000000" stroke-miterlimit="10" d="M329.04,108.24c3.04-7.66,5.64-14.95,6.96-20.41"/>
				<path fill="none" stroke="#000000" stroke-miterlimit="10" d="M258.57,165.41c0,0,2.78-0.48,8.19,3.47c0,0,5.42,6.79,14,5.29
					c0,0,12.04-0.9,16.48,0.21c0,0,0.01-7.71,13.38-24.88c0,0,0.38-0.77,1.05-2.16c2.87-5.97,11.07-23.3,17.36-39.09"/>
				<path fill="none" stroke="#000000" stroke-miterlimit="10" d="M366,93.33c-0.61,3.88-3.96,13.05-8.34,23.94"/>
				<path fill="none" stroke="#000000" stroke-miterlimit="10" d="M297.24,174.38c0,0,7.43-4.38,12.43-1.05
					c0,0,13.16,6.84,22.33,3.34c0,0,0.1-0.21,0.28-0.61"/>
				<path fill="none" stroke="#000000" stroke-miterlimit="10" d="M389.45,121.33c-1.57,9.79-3.29,19.49-4.91,28.19
					c-3.59,19.24-6.71,33.65-6.71,33.65c-12.33,4.16-29.16-5.51-29.16-5.51c-4.42-4.91-15.98-1.72-16.39-1.6
					c1.23-2.73,6.42-14.25,12.39-27.95c0,0,0,0,0.01-0.01c4.33-9.97,9.07-21.09,12.98-30.83c0,0,16.67-4.94,25.84,2.73
					C383.5,120,386.74,122.32,389.45,121.33z"/>
				<path fill="none" stroke="#000000" stroke-miterlimit="10" d="M393.83,89.21c-0.64,6.14-1.48,12.72-2.44,19.43
					c-0.61,4.2-1.26,8.45-1.94,12.69"/>
				<path fill="none" stroke="#000000" stroke-miterlimit="10" d="M393.77,180.9c0.02,0.03,0.04,0.07,0.06,0.1"/>
				<path fill="none" stroke="#000000" stroke-miterlimit="10" d="M377.83,183.17c0,0,11.17-9.23,15.8-2.48"/>
				<path fill="none" stroke="#000000" stroke-miterlimit="10" d="M393.63,180.69c0,0,0.04,0.08,0.14,0.21
					c0.89,1.25,6.46,7.6,25.28,2.86c0.72-0.18,1.45-0.38,2.2-0.59c0,0-0.14-15.03,0.73-30.67c0.62-11.17,1.77-22.64,3.85-29.17
					c0,0,3.34-30.66,1.34-38.83"/>
				<path fill="none" stroke="#000000" stroke-miterlimit="10" d="M468.67,92.67l-1.64,55.17L466,182.33
					c-0.58,0.19-1.16,0.36-1.73,0.53c-12.9,3.67-21.77,0.31-21.77,0.31c-11.83-7.84-21.25,0-21.25,0"/>
				<path fill="none" stroke="#000000" stroke-miterlimit="10" d="M466,182.33c0,0,5.33-6.83,20.5,0c0,0,20.83,6.39,27-1.64
					c0,0-0.52-14.26-1.56-32.1c-0.69-11.69-1.591-24.92-2.71-36.69c-1.011-10.61-2.2-20.04-3.561-26.09"/>
				<path fill="none" stroke="#000000" stroke-miterlimit="10" d="M513.5,180.69c0,0,12.33-7.36,24.33-1.19c0,0,9.5,4.08,19-2.46
					c0,0,9-8.21,23.17-0.87c0,0,11.5,5,15.5-1"/>
				<polyline fill="none" stroke="#000000" stroke-miterlimit="10" points="609.67,73.34 609.94,74.31 618.21,104.53 628.52,142.15 
					635.83,168.83 				"/>
				<polyline fill="none" stroke="#000000" stroke-miterlimit="10" points="648.83,69 661.95,105.86 673.77,139.08 684,167.83 				
					"/>
				<path fill="none" stroke="#000000" stroke-miterlimit="10" d="M809.5,138v-0.49c0,2.44-8.19,7.66-8.19,7.66
					c-3.659,2.33-22.489,3.33-22.489,3.33c-7.011-0.45-11.11,4.86-13.03,8.18c-0.03,0.07-0.07,0.13-0.11,0.2"/>
				<path fill="none" stroke="#000000" stroke-miterlimit="10" d="M249.12,131.38c0,0,7,8.12,8.53,8.29
					c1.52,0.16,12.02,0.83,12.02,0.83"/>
				<path fill="none" stroke="#000000" stroke-miterlimit="10" d="M271.5,142.85c0,0,14.44-2.18,17.89,2.48
					c0,0,6.36,4.34,12.73,2.17"/>
				<path fill="none" stroke="#000000" stroke-miterlimit="10" d="M321,113.5h-6.17c-4,0-9.5-5.42-9.5-5.42
					c-6.17-2.13-14.34,1.61-16.18,2.53c-0.25,0.12-0.38,0.19-0.38,0.19"/>
				<path fill="none" stroke="#000000" stroke-miterlimit="10" d="M311.67,147.34c0,0,15.21-0.51,20.6,1.49"/>
				<path fill="none" stroke="#000000" stroke-miterlimit="10" d="M329.03,108.25c0,0,0,0,0.01-0.01c0.36-0.12,8.95-3.17,16.46,0.01
					c0,0,3.1,2.36,9,2.22"/>
				<path fill="none" stroke="#000000" stroke-miterlimit="10" d="M344.68,148.1c0.44-0.17,11.5-4.49,20.32,0.73
					c0,0,8.17,1.34,12.83,0"/>
				<path fill="none" stroke="#000000" stroke-miterlimit="10" d="M391.39,108.64c0,0,8.5-4.76,21.78,1.83c0,0,7.5,1.7,9.66,0.86"/>
				<path fill="none" stroke="#000000" stroke-miterlimit="10" d="M384.22,149.57c0,0,0.11-0.02,0.32-0.05
					c1.99-0.28,12.87-1.54,22.57,2.98H409"/>
				<path fill="none" stroke="#000000" stroke-miterlimit="10" d="M426.92,111.56c0,0,5.25-9.02,16.41-2.29c0,0,8.5,6.73,16.67,3.4"
					/>
				<path fill="none" stroke="#000000" stroke-miterlimit="10" d="M421.98,152.5c0,0,11.85-7.52,29.35-1.68c0,0,6.5,2.2,8.67-1.39"
					/>
				<path fill="none" stroke="#000000" stroke-miterlimit="10" d="M468.67,111.56c0,0,6.66-7.28,20.5-1.09c0,0,9.33,6.27,13.66,5.23
					"/>
				<path fill="none" stroke="#000000" stroke-miterlimit="10" d="M467.03,147.84c0,0,5.28-8.63,25.31,0c0,0,4.66,3.18,9.49,1.59"/>
				<path fill="none" stroke="#000000" stroke-miterlimit="10" d="M541.17,83.5c0,0,0.76,12.72,2.3,28.4
					c1.07,10.91,2.53,23.26,4.37,33.75c0.51,2.96,1.061,5.76,1.641,8.35c1.47,6.58,3.14,11.75,5.02,14.29"/>
				<path fill="none" stroke="#000000" stroke-miterlimit="10" d="M509.23,111.9c0,0,9.27-7.73,22.939-0.9c0,0,6.5,1,7.66,0"/>
				<path fill="none" stroke="#000000" stroke-miterlimit="10" d="M511.93,148.6c0,0,0,0,0.011-0.01
					c0.319-0.44,7.819-10.55,19.56-0.76c0,0,11,3.8,16.33-2.18"/>
				<path fill="none" stroke="#000000" stroke-miterlimit="10" d="M543.47,111.9c0,0,15.28-7.92,25.7-0.9c0,0,7.08,2.96,9.04,0.9"/>
				<path fill="none" stroke="#000000" stroke-miterlimit="10" d="M549.48,154c0,0,6.189-7.9,17.52-3.45c0,0,6.83,2.98,8.67,1.05"/>
				<path fill="none" stroke="#000000" stroke-miterlimit="10" d="M578.85,114.78c0,0,0.48-9.92,23.48-6.6c0,0,9.5,1.04,12.17-1.4"
					/>
				<path fill="none" stroke="#000000" stroke-miterlimit="10" d="M586.76,146.3c0,0,5.57-13.63,18.74-5.97c0,0,3.83,2.3,14,1.82"/>
				<path fill="none" stroke="#000000" stroke-miterlimit="10" d="M618.21,104.53c0,0,7.29-9.86,20.62-6.53c0,0,10.5,2.83,13,1.17"
					/>
				<path fill="none" stroke="#000000" stroke-miterlimit="10" d="M628.52,142.15c0,0,4.811-8.15,18.311-5.65
					c0,0,10.84,3.24,13.09,2.12"/>
				<path fill="none" stroke="#000000" stroke-miterlimit="10" d="M661.95,105.86c0,0,4.05-6.03,10.55-6.03s14.3-0.18,16.4-1.59"/>
				<path fill="none" stroke="#000000" stroke-miterlimit="10" d="M673.77,139.08c0,0-1.939-10.43,16.73-6.67
					c18.67,3.76,15.33-2.53,15.33-2.53"/>
				<path fill="none" stroke="#000000" stroke-miterlimit="10" d="M701.13,106.78c0,0,5.51,14.34,10.55,27.7
					c4.21,11.14,8.08,21.61,8.15,22.52"/>
				<path fill="none" stroke="#000000" stroke-miterlimit="10" d="M711.68,134.48c0,0,4.65-8.23,20.99-4.6c0,0,5.83-1.06,10.41-3.22
					h0.01"/>
				<path fill="none" stroke="#000000" stroke-miterlimit="10" d="M124.25,135.4c0,0,7.75,24.51,38.63,18.51l5.29,5.92
					c0,0,3.26-5.1,10.73-1.6c0,0,8.85,10.26,32.72,8.76c0,0,12.26-2.87,16,3.63c0,0,0.64,0.33,1.92,0.75
					c3.1,1.01,9.95,2.55,20.52,1.13l4.11-0.18l1.56-0.07c0,0,1.79,1.89,2.84,2.13c1.05,0.24,6.05-2.38,7.81-0.88l4.93,5.62
					c0,0,20.94,1.13,24.94,0l4.87,2.88c0,0,2.5-2.19,5-2.19c0,0,6.5-0.31,11.88,4.69h3c0,0,19.38-3,24.88-2
					c0,0,7.37,1.88,13.24,6.88c0,0,16.68,1.79,23.64-2.25c0.81-0.46,1.48-1.01,1.99-1.64c0,0,5-3.61,12.5,2.63
					c0,0,5.83,1.15,11.98,0.97c4.59-0.13,9.35-0.99,12.02-3.6c0,0,1.5-0.87,2.63,3.13c0,0,2.12,0.99,10.5-3.13
					c0,0,3.74-0.82,10,4.28c0,0,11.45,0.29,19.74-5.03c0,0,0.21-0.14,0.62-0.25c1.12-0.29,3.71-0.31,7.38,3.63c0,0,3,1.5,6.63-2.12
					c0,0,6.5-1.32,17.37,3.78c0,0,16,1.47,25.5-7.16c0,0,5.88-5.14,11.76,2.12c0,0,6.69,2.36,14.08,1.86
					c4.25-0.29,8.72-1.54,12.29-4.72c0,0,6.97-6.39,15.75,0.16c0.25,0.18,0.5,0.37,0.75,0.58c0,0,17.63,4.88,19.25-2.5
					c0,0,1.38-0.37,2.88,1.88l2.74-0.12c0,0,1.38-4.5,6.13-5c0,0,6.75-1.26,14.87,2.62c0,0,10.46-1.87,14.88-6.25
					c0,0,3.06-2.87,7.22,2.63c0,0,1.03,1,6.16-3.13c0,0,0-3.42,17,2.42c0,0,15.5,4.83,17.37-3.92c0,0,2.13,0.13,2.75,2.5
					s3,0.37,3,0.37l2.38-2.87c0,0,2.26-0.6,5.62-0.23c2.38,0.28,5.32,1.04,8.38,2.86c0,0,8.79,0.91,17.62-4.65
					c2.54-1.61,5.08-3.75,7.42-6.6c0,0,3.08-2.75,24.2,1.12c0,0,6.26,0.13,7.88-2.63l6,0.26c0,0,0.75-8.71,9.25-8.48
					c0,0,23.37,3.64,35.25-13.82"/>
				<polyline fill="none" stroke="#000000" stroke-miterlimit="10" points="254.38,368.77 254.37,360.12 254.34,333.5 
					254.33,325.67 254.23,226.33 254.22,219.5 254.17,172.32 				"/>
				<path fill="none" stroke="#000000" stroke-miterlimit="10" d="M229.54,171.37l2.11,197.1l0.02,1.53c0,0,0.08,4.25,7.33,3.75
					s13.75-1,13.75-1l1.63-1.25v-1.78"/>
				<polyline fill="none" stroke="#000000" stroke-miterlimit="10" points="410.7,368.77 410.62,358.38 410.39,330.5 410.33,323.33 
					409.52,223.5 409.47,216.5 409.25,189.87 				"/>
				<path fill="none" stroke="#000000" stroke-miterlimit="10" d="M382.76,187.13l0.5,30.53l0.12,7l1.63,98.67l0.17,10.17
					l0.41,24.74l0.16,9.81l0.08,4.7c0,0,19.36,4.25,24.89-1.75l-0.01-1.25"/>
				<polyline fill="none" stroke="#000000" stroke-miterlimit="10" points="575.5,377.24 575.5,361.33 575.5,357.33 575.5,235.5 
					575.5,225.5 575.5,182.04 575.5,182 				"/>
				<path fill="none" stroke="#000000" stroke-miterlimit="10" d="M550.71,378.79l0.04,2.2c0,0,9.5,11.76,24.75,0.01v-2.76"/>
				<line fill="none" stroke="#000000" stroke-miterlimit="10" x1="550.56" y1="369.62" x2="550.7" y2="377.76"/>
				<polyline fill="none" stroke="#000000" stroke-miterlimit="10" points="547.5,187.11 547.99,216.48 548.11,223.5 549.72,319.33 
					549.9,330.5 550.35,357.33 550.54,368.62 				"/>
				<polyline fill="none" stroke="#000000" stroke-miterlimit="10" points="724.5,367.99 724.5,169.23 724.5,169 				"/>
				<path fill="none" stroke="#000000" stroke-miterlimit="10" d="M698.5,368.68V372c0,0,20,5.5,26-2.5v-0.47"/>
				<polyline fill="none" stroke="#000000" stroke-miterlimit="10" points="698.5,171 698.5,171.02 698.5,224.67 698.5,235.5 
					698.5,354.67 698.5,360.33 698.5,367.64 				"/>
				<line fill="none" stroke="#000000" stroke-miterlimit="10" x1="254.38" y1="219.5" x2="382.76" y2="217.67"/>
				<polyline fill="none" stroke="#000000" stroke-miterlimit="10" points="254.38,226.33 280.5,225.99 290.5,225.86 323.5,225.44 
					358.5,224.98 364.5,224.91 382.76,224.67 				"/>
				<polyline fill="none" stroke="#000000" stroke-miterlimit="10" points="409,216.5 409.47,216.5 547,216.5 				"/>
				<polyline fill="none" stroke="#000000" stroke-miterlimit="10" points="410,223.5 437.5,223.5 444.5,223.5 480.22,223.5 
					515.25,223.5 519.5,223.5 548,223.5 				"/>
				<line fill="none" stroke="#000000" stroke-miterlimit="10" x1="575.67" y1="225.5" x2="698.5" y2="224.67"/>
				<polyline fill="none" stroke="#000000" stroke-miterlimit="10" points="575,235.5 575.5,235.5 599.5,235.5 612.25,235.5 
					654,235.5 662.5,235.5 698,235.5 				"/>
				<polyline fill="none" stroke="#000000" stroke-miterlimit="10" points="254.38,325.67 280.5,325.2 290.5,325.02 323.51,324.43 
					358.5,323.81 365.76,323.68 365.76,323.67 385.01,323.33 385.02,323.33 				"/>
				<polyline fill="none" stroke="#000000" stroke-miterlimit="10" points="254,333.5 254.34,333.5 385,333.5 				"/>
				<polyline fill="none" stroke="#000000" stroke-miterlimit="10" points="410.72,323.33 437.5,322.56 444.51,322.36 479,321.37 
					513.5,320.37 519.51,320.2 549.72,319.33 				"/>
				<polyline fill="none" stroke="#000000" stroke-miterlimit="10" points="410,330.5 410.39,330.5 549.9,330.5 550,330.5 				"/>
				<polyline fill="none" stroke="#000000" stroke-miterlimit="10" points="575.67,357.33 599.5,356.81 609.51,356.6 656,355.59 
					663.77,355.42 698.5,354.67 				"/>
				<line fill="none" stroke="#000000" stroke-miterlimit="10" x1="575.67" y1="361.33" x2="698" y2="360.33"/>
				<line fill="none" stroke="#000000" stroke-miterlimit="10" x1="280.5" y1="226" x2="280.5" y2="325"/>
				<polyline fill="none" stroke="#000000" stroke-miterlimit="10" points="290.5,226 290.5,239.5 290.5,310.5 290.5,325 				"/>
				<polyline fill="none" stroke="#000000" stroke-miterlimit="10" points="358.5,225 358.5,239.5 358.5,310.5 358.5,323.81 
					358.5,324 				"/>
				<line fill="none" stroke="#000000" stroke-miterlimit="10" x1="364.5" y1="225" x2="365.75" y2="323.33"/>
				<polyline fill="none" stroke="#000000" stroke-miterlimit="10" points="437.5,224 437.5,322.56 437.5,323 				"/>
				<polyline fill="none" stroke="#000000" stroke-miterlimit="10" points="444.5,224 444.5,238.5 444.5,307.75 444.5,322 				"/>
				<polyline fill="none" stroke="#000000" stroke-miterlimit="10" points="515.25,223.5 514.98,238.5 513.75,306.25 513.5,320.33 
									"/>
				<line fill="none" stroke="#000000" stroke-miterlimit="10" x1="519.5" y1="224" x2="519.5" y2="320"/>
				<polyline fill="none" stroke="#000000" stroke-miterlimit="10" points="323.5,225 323.5,225.44 323.5,239.5 323.5,310.5 
					323.5,324 				"/>
				<polyline fill="none" stroke="#000000" stroke-miterlimit="10" points="480.22,223.5 480.03,238.5 479.18,307 479,321.37 				
					"/>
				<polyline fill="none" stroke="#000000" stroke-miterlimit="10" points="290,239.5 290.5,239.5 323.5,239.5 358,239.5 				"/>
				<polyline fill="none" stroke="#000000" stroke-miterlimit="10" points="290,310.5 290.5,310.5 323.5,310.5 358,310.5 				"/>
				<polyline fill="none" stroke="#000000" stroke-miterlimit="10" points="444,238.5 444.5,238.5 480.03,238.5 514.98,238.5 
					515,238.5 				"/>
				<polyline fill="none" stroke="#000000" stroke-miterlimit="10" points="444.5,307.75 479.18,307 513.5,306.25 				"/>
				<polyline fill="none" stroke="#000000" stroke-miterlimit="10" points="599.5,236 599.5,356.81 599.5,357 				"/>
				<polyline fill="none" stroke="#000000" stroke-miterlimit="10" points="612.25,235.5 611.84,253.5 611.66,261.49 611.5,268.49 
					611.04,288.5 610.88,295.5 610.7,303.49 610.13,328.5 609.97,335.5 609.81,342.5 609.5,356 				"/>
				<polyline fill="none" stroke="#000000" stroke-miterlimit="10" points="654,236 654.29,253.5 654.43,261.49 654.54,268.49 
					654.88,288.5 655,295.5 655.13,303.5 655.55,328.5 655.66,335.5 655.78,342.5 656,355.59 				"/>
				<line fill="none" stroke="#000000" stroke-miterlimit="10" x1="662.5" y1="235.5" x2="663.75" y2="354.67"/>
				<line fill="none" stroke="#000000" stroke-miterlimit="10" x1="612" y1="253.5" x2="654" y2="253.5"/>
				<line fill="none" stroke="#000000" stroke-miterlimit="10" x1="612" y1="261.5" x2="654" y2="261.5"/>
				<line fill="none" stroke="#000000" stroke-miterlimit="10" x1="612" y1="268.5" x2="654" y2="268.5"/>
				<polyline fill="none" stroke="#000000" stroke-miterlimit="10" points="611,288.5 611.04,288.5 654.88,288.5 655,288.5 				"/>
				<line fill="none" stroke="#000000" stroke-miterlimit="10" x1="611" y1="295.5" x2="655" y2="295.5"/>
				<line fill="none" stroke="#000000" stroke-miterlimit="10" x1="611" y1="303.5" x2="655" y2="303.5"/>
				<polyline fill="none" stroke="#000000" stroke-miterlimit="10" points="610,328.5 610.13,328.5 655.55,328.5 656,328.5 				"/>
				<polyline fill="none" stroke="#000000" stroke-miterlimit="10" points="610,335.5 655.66,335.5 656,335.5 				"/>
				<polyline fill="none" stroke="#000000" stroke-miterlimit="10" points="610,342.5 655.78,342.5 656,342.5 				"/>
				<line fill="none" stroke="#000000" stroke-miterlimit="10" x1="254.38" y1="360.12" x2="385" y2="358.25"/>
				<line fill="none" stroke="#000000" stroke-miterlimit="10" x1="410.72" y1="358.38" x2="550.35" y2="357.33"/>
				<polyline fill="none" stroke="#000000" stroke-miterlimit="10" points="267,370.5 267.43,370.5 378.58,370.5 380,370.5 				"/>
				<polyline fill="none" stroke="#000000" stroke-miterlimit="10" points="579.67,377.62 580.63,377.6 683.61,375.7 683.92,375.69 
					684.02,375.69 				"/>
				<path fill="none" stroke="#000000" stroke-miterlimit="10" d="M220.29,387.12l-0.56,0.27l-51.4,24.92
					c0,0,68.59,5.69,163.79-1.979c0,0,119.88,3.02,150.88,4.01c0,0,111.67,3.33,119,3.33c0,0,146.67-1.96,159.33-9.65l-23.42-11.51
					l-0.47-0.229"/>
				<path fill="none" stroke="#000000" stroke-miterlimit="10" d="M761.33,408.02c0,0-1.66,53.65-6.33,55.65l-10.67,3
					c0,0-186-4.67-230.83,1.66c0,0-116.67,1.67-152.25-3c0,0-161.92,2-179.58,0.34c0,0-8,2.29-13.34-53.36"/>
			</g>
		</g>
	</g>
</g>
</svg>
