<?xml version="1.0" encoding="utf-8"?>
<!-- Generator: Adobe Illustrator 16.0.0, SVG Export Plug-In . SVG Version: 6.00 Build 0)  -->
<!DOCTYPE svg PUBLIC "-//W3C//DTD SVG 1.1//EN" "http://www.w3.org/Graphics/SVG/1.1/DTD/svg11.dtd">
<svg version="1.1" xmlns="http://www.w3.org/2000/svg" xmlns:xlink="http://www.w3.org/1999/xlink" x="0px" y="0px" width="960px"
	 height="560px" viewBox="0 0 960 560" enable-background="new 0 0 960 560" xml:space="preserve">
<symbol  id="_x12_509112576_1721368448_12_x00_" viewBox="-1.5 -1.5 3 3">
	<path fill="#F3622D" d="M1.5,0c0-0.828-0.671-1.5-1.5-1.5S-1.5-0.828-1.5,0c0,0.829,0.671,1.5,1.5,1.5S1.5,0.829,1.5,0z"/>
</symbol>
<symbol  id="_x12_509112576_1721368448_19_x00_" viewBox="-1.5 -1.5 3 3">
	<path fill="#F46731" d="M1.5,0c0-0.828-0.671-1.5-1.5-1.5S-1.5-0.828-1.5,0c0,0.829,0.671,1.5,1.5,1.5S1.5,0.829,1.5,0z"/>
</symbol>
<symbol  id="_x12_509112576_1721368448_25_x00_" viewBox="-1.5 -1.5 3 3">
	<path fill="#F56A35" d="M1.5,0c0-0.828-0.671-1.5-1.5-1.5S-1.5-0.828-1.5,0c0,0.829,0.671,1.5,1.5,1.5S1.5,0.829,1.5,0z"/>
</symbol>
<symbol  id="_x12_509112576_1721368448_3_x00_" viewBox="-1.5 -1.5 3 3">
	<path fill="#F15C26" d="M1.5,0c0-0.828-0.671-1.5-1.5-1.5S-1.5-0.828-1.5,0c0,0.829,0.671,1.5,1.5,1.5S1.5,0.829,1.5,0z"/>
</symbol>
<symbol  id="_x12_509112576_1721368448_38_x00_" viewBox="-1.5 -1.5 3 3">
	<path fill="#F6733E" d="M1.5,0c0-0.828-0.671-1.5-1.5-1.5S-1.5-0.828-1.5,0c0,0.829,0.671,1.5,1.5,1.5S1.5,0.829,1.5,0z"/>
</symbol>
<symbol  id="_x12_509112576_1721368448_49_x00_" viewBox="-1.5 -1.5 3 3">
	<path fill="#F87A46" d="M1.5,0c0-0.828-0.671-1.5-1.5-1.5S-1.5-0.828-1.5,0c0,0.829,0.671,1.5,1.5,1.5S1.5,0.829,1.5,0z"/>
</symbol>
<symbol  id="_x12_509112576_677311104_7_x00_" viewBox="-1.5 -1.5 3 3">
	<path fill="#F15B25" d="M1.5,0c0-0.828-0.671-1.5-1.5-1.5S-1.5-0.828-1.5,0c0,0.829,0.671,1.5,1.5,1.5S1.5,0.829,1.5,0z"/>
</symbol>
<symbol  id="New_Symbol" viewBox="-2 -1.5 4 3">
	<path fill="#F15A24" d="M1.5,0c0-0.828-0.671-1.5-1.5-1.5S-1.5-0.828-1.5,0c0,0.829,0.671,1.5,1.5,1.5S1.5,0.829,1.5,0z"/>
	<polygon display="none" fill="none" points="-2,1 2,1 2,-1 -2,-1 	"/>
</symbol>
<pattern  width="72" height="72" patternUnits="userSpaceOnUse" id="Grid_1_pica_Lines" viewBox="72.25 -144.25 72 72" overflow="visible">
	<g>
		<polygon fill="none" points="72.25,-144.25 144.25,-144.25 144.25,-72.25 72.25,-72.25 		"/>
		<g>
			<line fill="none" stroke="#231815" stroke-width="0.3" x1="78.25" y1="-72.5" x2="78.25" y2="0"/>
			<line fill="none" stroke="#231815" stroke-width="0.3" x1="102.25" y1="-72.5" x2="102.25" y2="0"/>
			<line fill="none" stroke="#231815" stroke-width="0.3" x1="126.25" y1="-72.5" x2="126.25" y2="0"/>
			<line fill="none" stroke="#231815" stroke-width="0.3" x1="90.25" y1="-72.5" x2="90.25" y2="0"/>
			<line fill="none" stroke="#231815" stroke-width="0.3" x1="114.25" y1="-72.5" x2="114.25" y2="0"/>
			<line fill="none" stroke="#231815" stroke-width="0.3" x1="138.25" y1="-72.5" x2="138.25" y2="0"/>
		</g>
		<g>
			<line fill="none" stroke="#231815" stroke-width="0.3" x1="144" y1="-78.25" x2="216.5" y2="-78.25"/>
			<line fill="none" stroke="#231815" stroke-width="0.3" x1="144" y1="-102.25" x2="216.5" y2="-102.25"/>
			<line fill="none" stroke="#231815" stroke-width="0.3" x1="144" y1="-126.25" x2="216.5" y2="-126.25"/>
			<line fill="none" stroke="#231815" stroke-width="0.3" x1="144" y1="-90.25" x2="216.5" y2="-90.25"/>
			<line fill="none" stroke="#231815" stroke-width="0.3" x1="144" y1="-114.25" x2="216.5" y2="-114.25"/>
			<line fill="none" stroke="#231815" stroke-width="0.3" x1="144" y1="-138.25" x2="216.5" y2="-138.25"/>
		</g>
		<g>
			<line fill="none" stroke="#231815" stroke-width="0.3" x1="78.25" y1="-144.5" x2="78.25" y2="-72"/>
			<line fill="none" stroke="#231815" stroke-width="0.3" x1="102.25" y1="-144.5" x2="102.25" y2="-72"/>
			<line fill="none" stroke="#231815" stroke-width="0.3" x1="126.25" y1="-144.5" x2="126.25" y2="-72"/>
			<line fill="none" stroke="#231815" stroke-width="0.3" x1="72" y1="-78.25" x2="144.5" y2="-78.25"/>
			<line fill="none" stroke="#231815" stroke-width="0.3" x1="72" y1="-102.25" x2="144.5" y2="-102.25"/>
			<line fill="none" stroke="#231815" stroke-width="0.3" x1="72" y1="-126.25" x2="144.5" y2="-126.25"/>
			<line fill="none" stroke="#231815" stroke-width="0.3" x1="72" y1="-90.25" x2="144.5" y2="-90.25"/>
			<line fill="none" stroke="#231815" stroke-width="0.3" x1="72" y1="-114.25" x2="144.5" y2="-114.25"/>
			<line fill="none" stroke="#231815" stroke-width="0.3" x1="72" y1="-138.25" x2="144.5" y2="-138.25"/>
			<line fill="none" stroke="#231815" stroke-width="0.3" x1="90.25" y1="-144.5" x2="90.25" y2="-72"/>
			<line fill="none" stroke="#231815" stroke-width="0.3" x1="114.25" y1="-144.5" x2="114.25" y2="-72"/>
			<line fill="none" stroke="#231815" stroke-width="0.3" x1="138.25" y1="-144.5" x2="138.25" y2="-72"/>
		</g>
		<g>
			<line fill="none" stroke="#231815" stroke-width="0.3" x1="0" y1="-78.25" x2="72.5" y2="-78.25"/>
			<line fill="none" stroke="#231815" stroke-width="0.3" x1="0" y1="-102.25" x2="72.5" y2="-102.25"/>
			<line fill="none" stroke="#231815" stroke-width="0.3" x1="0" y1="-126.25" x2="72.5" y2="-126.25"/>
			<line fill="none" stroke="#231815" stroke-width="0.3" x1="0" y1="-90.25" x2="72.5" y2="-90.25"/>
			<line fill="none" stroke="#231815" stroke-width="0.3" x1="0" y1="-114.25" x2="72.5" y2="-114.25"/>
			<line fill="none" stroke="#231815" stroke-width="0.3" x1="0" y1="-138.25" x2="72.5" y2="-138.25"/>
		</g>
		<g>
			<line fill="none" stroke="#231815" stroke-width="0.3" x1="78.25" y1="-216.5" x2="78.25" y2="-144"/>
			<line fill="none" stroke="#231815" stroke-width="0.3" x1="102.25" y1="-216.5" x2="102.25" y2="-144"/>
			<line fill="none" stroke="#231815" stroke-width="0.3" x1="126.25" y1="-216.5" x2="126.25" y2="-144"/>
			<line fill="none" stroke="#231815" stroke-width="0.3" x1="90.25" y1="-216.5" x2="90.25" y2="-144"/>
			<line fill="none" stroke="#231815" stroke-width="0.3" x1="114.25" y1="-216.5" x2="114.25" y2="-144"/>
			<line fill="none" stroke="#231815" stroke-width="0.3" x1="138.25" y1="-216.5" x2="138.25" y2="-144"/>
		</g>
	</g>
</pattern>
<g id="배경">
	<rect x="-26" y="-15" fill="#668A9E" width="1012" height="610"/>
	<g>
		<g>
			
				<rect x="408.21" y="102.832" transform="matrix(0.9912 0.1322 -0.1322 0.9912 23.8105 -67.502)" fill="#42210B" width="224.255" height="85.522"/>
			
				<rect x="423.559" y="108.815" transform="matrix(0.9912 0.1322 -0.1322 0.9912 23.7964 -67.4284)" fill="#FFFFE6" width="192.389" height="73.401"/>
		</g>
		<g>
			<path fill="#1B1464" stroke="#000000" stroke-miterlimit="10" d="M386.39,92.289c0,0,174.591,33.699,273.063,36.415
				c0,0-50.899-35.208-37.673-51.786L439.852,52.656C439.852,52.656,441.805,70.013,386.39,92.289z"/>
			<g>
				<path fill="none" stroke="#0071BC" stroke-width="4" stroke-miterlimit="10" d="M454.006,55.903c0,0-7.119,24.356-35.167,40.488
					"/>
				<path fill="none" stroke="#0071BC" stroke-width="4" stroke-miterlimit="10" d="M469.777,55.968c0,0-9.923,47.596-22.093,47.33"
					/>
				<path fill="none" stroke="#0071BC" stroke-width="4" stroke-miterlimit="10" d="M490.541,58.737c0,0-2.236,50.238-10.359,50.892
					"/>
				<path fill="none" stroke="#0071BC" stroke-width="4" stroke-miterlimit="10" d="M514.234,61.896c0,0-2.396,46.99-6.851,51.36"/>
				<line fill="none" stroke="#0071BC" stroke-width="4" stroke-miterlimit="10" x1="537.634" y1="65.017" x2="535.464" y2="117"/>
				<path fill="none" stroke="#0071BC" stroke-width="4" stroke-miterlimit="10" d="M560.447,68.059c0,0,1.43,49.538,6.604,53.154"
					/>
				<path fill="none" stroke="#0071BC" stroke-width="4" stroke-miterlimit="10" d="M582.091,70.945c0,0,5.571,47.146,20.441,54.122
					"/>
				<path fill="none" stroke="#0071BC" stroke-width="4" stroke-miterlimit="10" d="M606.95,74.26c0,0-2.291,32.819,32.607,54.625"
					/>
			</g>
			<path fill="#29ABE2" stroke="#000000" stroke-miterlimit="10" d="M624.119,77.229c-0.102,0.737-1.224,1.195-2.518,1.023
				L439.089,53.914c-1.293-0.173-2.261-0.911-2.16-1.647l0.179-1.335c0.096-0.737,1.224-1.196,2.516-1.023l182.513,24.34
				c1.29,0.171,2.258,0.909,2.16,1.646L624.119,77.229z"/>
			<path fill="none" stroke="#29ABE2" stroke-width="8" stroke-miterlimit="10" d="M383.739,91.71
				c0,0,180.438,35.441,280.494,37.405"/>
		</g>
	</g>
	<g>
		<g>
			
				<rect x="683.746" y="188.138" transform="matrix(0.9295 0.3689 -0.3689 0.9295 145.3838 -282.1537)" fill="#42210B" width="253.462" height="101.88"/>
			
				<rect x="701.135" y="195.112" transform="matrix(0.9295 0.3689 -0.3689 0.9295 145.2498 -281.9428)" fill="#FFFFE6" width="217.447" height="87.441"/>
		</g>
		<g>
			<path fill="#1B1464" stroke="#000000" stroke-miterlimit="10" d="M679.038,141.878c0,0,181.94,85.455,289.393,114.874
				c0,0-45.509-54.17-26.046-69.748l-192.808-76.535C749.577,110.469,746.572,130.996,679.038,141.878z"/>
			<g>
				<path fill="none" stroke="#0071BC" stroke-width="4" stroke-miterlimit="10" d="M764.175,117.989
					c0,0-15.056,26.173-50.681,37.278"/>
				<path fill="none" stroke="#0071BC" stroke-width="4" stroke-miterlimit="10" d="M781.493,122.274
					c0,0-25.036,52.212-38.338,48.657"/>
				<path fill="none" stroke="#0071BC" stroke-width="4" stroke-miterlimit="10" d="M803.498,131.01
					c0,0-17.368,57.309-26.492,55.895"/>
				<path fill="none" stroke="#0071BC" stroke-width="4" stroke-miterlimit="10" d="M828.608,140.977
					c0,0-16.581,53.523-22.774,57.371"/>
				
					<line fill="none" stroke="#0071BC" stroke-width="4" stroke-miterlimit="10" x1="853.408" y1="150.821" x2="835.594" y2="210.16"/>
				<path fill="none" stroke="#0071BC" stroke-width="4" stroke-miterlimit="10" d="M877.584,160.418c0,0-13.13,57.482-8.513,63.031
					"/>
				<path fill="none" stroke="#0071BC" stroke-width="4" stroke-miterlimit="10" d="M900.522,169.523c0,0-7.867,55.83,6.411,67.84"
					/>
				<path fill="none" stroke="#0071BC" stroke-width="4" stroke-miterlimit="10" d="M926.869,179.981
					c0,0-12.258,37.218,19.638,71.668"/>
			</g>
			<path fill="#29ABE2" stroke="#000000" stroke-miterlimit="10" d="M944.863,187.987c-0.328,0.823-1.699,1.051-3.069,0.507
				l-193.43-76.78c-1.369-0.544-2.216-1.652-1.886-2.476l0.594-1.492c0.323-0.823,1.7-1.051,3.07-0.508l193.427,76.782
				c1.367,0.542,2.212,1.65,1.886,2.475L944.863,187.987z"/>
			<path fill="none" stroke="#29ABE2" stroke-width="8" stroke-miterlimit="10" d="M676.297,140.502
				c0,0,187.852,89.023,297.268,118.001"/>
		</g>
	</g>
	<g>
		<path fill="#FFFFFF" d="M891.122,44.342c0,5.644,0.397,9.469-3.194,14.439c-3.07,4.247-6.265,8.091-11.49,11.599
			c-4.434,2.977-7.037,10.823-12.737,13.115c-5.061,2.035-10.941,4.643-16.804,6.034c-5.385,1.277-12.417-4.902-18.329-4.248
			c-5.555,0.615-11.003,2.048-16.901,2.048c-5.897,0-11.99,4.402-17.545,3.788c-5.911-0.654-12.174-0.83-17.559-2.107
			c-5.863-1.39-10.548-6.76-15.609-8.795c-5.7-2.292-9.606-6.881-14.041-9.858c-5.226-3.508-9.614-6.477-12.685-10.724
			c-3.593-4.971-5.288-9.647-5.288-15.291s2.197-9.957,5.79-14.927c3.069-4.247,3.819-12.252,9.045-15.76
			c4.434-2.977,10.685-4.864,16.385-7.156c5.061-2.035,10.596-5.19,16.458-6.581c5.385-1.277,12.167,3.52,18.079,2.865
			c5.555-0.615,11.071,1.395,16.97,1.395c5.897,0,12.07-7.948,17.625-7.334c5.911,0.654,10.596,7.872,15.98,9.149
			c5.863,1.39,10.205,5.021,15.267,7.056c5.7,2.292,10.049,4.384,14.483,7.361c5.226,3.508,9.075,5.795,12.146,10.042
			C890.76,35.423,891.122,38.699,891.122,44.342z"/>
	</g>
	<g>
		<path fill="#FFFFFF" d="M977.639,62.697c0,4.992-1.777,8.52-7.187,12.151c-3.993,2.681-8.682,4.972-14.628,6.382
			c-4.981,1.182-10.28,4.575-16.088,4.575c-5.809,0-11.825-0.372-16.808-1.554c-5.947-1.411-9.889-6.768-13.882-9.449
			c-5.408-3.631-8.584-7.114-8.584-12.105c0-4.992,1.616-10.801,7.025-14.433c3.994-2.681,9.555-5.464,15.501-6.875
			c4.982-1.182,10.939-0.114,16.747-0.114c5.809,0,11.104,1.721,16.088,2.903c5.946,1.411,11.023,3.113,15.017,5.795
			C976.249,53.604,977.639,57.706,977.639,62.697z"/>
	</g>
	<g>
		<g>
			
				<rect x="600.435" y="91.035" transform="matrix(0.9608 0.2774 -0.2774 0.9608 70.1658 -186.858)" fill="#42210B" width="189.999" height="127"/>
			
				<rect x="613.455" y="99.897" transform="matrix(0.9607 0.2774 -0.2774 0.9607 70.11 -186.7328)" fill="#FFFFE6" width="163" height="109"/>
		</g>
		<g>
			<path fill="#1B1464" stroke="#000000" stroke-miterlimit="10" d="M596.098,71.553c0,0,140.24,56.453,224.236,64.749
				c0,0-33.25-53.143-16.873-76.517L654.063,16.646C654.063,16.646,650.524,41.817,596.098,71.553z"/>
			<g>
				<path fill="none" stroke="#0071BC" stroke-width="4" stroke-miterlimit="10" d="M665.278,21.966
					c0,0-13.456,34.886-42.467,56.955"/>
				<path fill="none" stroke="#0071BC" stroke-width="4" stroke-miterlimit="10" d="M678.841,22.76c0,0-22.859,68.349-33.261,67.423
					"/>
				<path fill="none" stroke="#0071BC" stroke-width="4" stroke-miterlimit="10" d="M695.894,27.684
					c0,0-17.033,72.509-24.228,73.092"/>
				<path fill="none" stroke="#0071BC" stroke-width="4" stroke-miterlimit="10" d="M715.349,33.302
					c0,0-16.196,67.807-21.346,73.924"/>
				
					<line fill="none" stroke="#0071BC" stroke-width="4" stroke-miterlimit="10" x1="734.564" y1="38.85" x2="717.062" y2="113.884"/>
				<path fill="none" stroke="#0071BC" stroke-width="4" stroke-miterlimit="10" d="M753.299,44.26c0,0-13.667,71.66-10.297,77.114"
					/>
				<path fill="none" stroke="#0071BC" stroke-width="4" stroke-miterlimit="10" d="M771.071,49.392c0,0-9.379,68.386,1.331,79.127"
					/>
				<path fill="none" stroke="#0071BC" stroke-width="4" stroke-miterlimit="10" d="M791.487,55.287c0,0-11.844,47.33,11.656,80.393
					"/>
			</g>
			<path fill="#29ABE2" stroke="#000000" stroke-miterlimit="10" d="M805.382,60.34c-0.307,1.061-1.414,1.673-2.477,1.367
				L653.028,18.43c-1.061-0.307-1.672-1.416-1.366-2.477l0.556-1.922c0.306-1.061,1.414-1.673,2.476-1.367l149.876,43.277
				c1.062,0.306,1.674,1.415,1.367,2.476L805.382,60.34z"/>
			<path fill="none" stroke="#29ABE2" stroke-width="8" stroke-miterlimit="10" d="M593.989,70.598c0,0,144.75,59.23,230.339,66.511
				"/>
		</g>
	</g>
	<path fill="#754C24" stroke="#000000" stroke-miterlimit="10" d="M-7.165,150.917c0,0,943.665-84.925,984.665,327.079V576.5H-33"/>
	<polygon fill="url(#Grid_1_pica_Lines)" stroke="#42210B" stroke-width="5" stroke-miterlimit="10" points="672.795,178.292 
		627.321,166.418 644.714,99.809 690.188,111.683 	"/>
	<line fill="none" stroke="#42210B" stroke-width="13" stroke-miterlimit="10" x1="607.5" y1="157.68" x2="770.402" y2="205.5"/>
	<g>
		<path fill="#FFFFFF" d="M205.122,52.342c0,5.644,0.398,9.469-3.195,14.439c-3.07,4.247-6.265,8.091-11.49,11.599
			c-4.435,2.977-7.038,10.823-12.737,13.115c-5.061,2.035-10.941,4.644-16.804,6.034c-5.385,1.277-12.416-4.902-18.328-4.248
			c-5.555,0.615-11.004,2.048-16.902,2.048c-5.897,0-11.99,4.402-17.544,3.787c-5.912-0.654-12.175-0.83-17.56-2.107
			c-5.863-1.39-10.547-6.76-15.609-8.795c-5.7-2.292-9.606-6.881-14.041-9.858c-5.226-3.508-9.615-6.477-12.685-10.724
			c-3.593-4.971-5.288-9.647-5.288-15.291s2.198-9.957,5.791-14.927c3.07-4.247,3.819-12.252,9.043-15.759
			c4.435-2.977,10.686-4.864,16.385-7.156c5.061-2.035,10.595-5.191,16.458-6.582c5.385-1.277,12.167,3.52,18.079,2.865
			c5.555-0.615,11.072,1.395,16.97,1.395c5.897,0,12.07-7.948,17.625-7.333c5.912,0.654,10.596,7.872,15.98,9.149
			c5.863,1.39,10.205,5.021,15.267,7.056c5.7,2.292,10.05,4.384,14.484,7.361c5.226,3.508,9.075,5.794,12.145,10.042
			C204.76,43.423,205.122,46.699,205.122,52.342z"/>
	</g>
	<g>
		<path fill="#FFFFFF" d="M291.638,70.697c0,4.992-1.777,8.52-7.187,12.151c-3.994,2.681-8.681,4.972-14.627,6.382
			c-4.982,1.182-10.28,4.575-16.088,4.575c-5.809,0-11.825-0.372-16.808-1.554c-5.947-1.411-9.888-6.768-13.882-9.45
			c-5.408-3.631-8.583-7.114-8.583-12.105c0-4.992,1.616-10.801,7.026-14.432c3.993-2.681,9.554-5.465,15.5-6.875
			c4.982-1.182,10.938-0.114,16.746-0.114c5.809,0,11.104,1.721,16.087,2.903c5.947,1.411,11.024,3.113,15.018,5.794
			C290.249,61.604,291.638,65.706,291.638,70.697z"/>
	</g>
</g>
<g id="놀부">
	<g>
		<g>
			<path fill="#1B1464" stroke="#000000" stroke-miterlimit="10" d="M671.224,434.02c8.718,6.501,3.104,14.628,3.104,14.628
				s-19.949,11.231-32.954,8.572c-13.002-2.661-8.422-11.231-8.422-11.231c2.808-6.354,13.3-9.449,13.3-9.449
				s-12.709,5.572-7.094,9.283c5.614,3.712,23.495-7.729,24.381-9.396"/>
			<path fill="#1B1464" stroke="#000000" stroke-miterlimit="10" d="M618.07,434.522c7.075,5.746,2.159,12.457,2.159,12.457
				s-16.951,8.921-27.709,6.3c-10.76-2.623-6.692-9.736-6.692-9.736c2.525-5.291,11.357-7.608,11.357-7.608
				s-10.751,4.346-6.182,7.646c4.572,3.299,19.805-5.861,20.593-7.244"/>
			<g>
				<path fill="#0071BC" stroke="#000000" stroke-miterlimit="10" d="M645.5,433v2.793c0,0,12.861,2.549,25.718-1.773l0.273-3.723"
					/>
				<path fill="#0071BC" stroke="#000000" stroke-miterlimit="10" d="M596.816,431.641l-0.189,3.54c0,0,11.091,3.146,22.548-0.568
					l0.461-4.08"/>
				<g>
					<path fill="#5DC8ED" stroke="#000000" stroke-miterlimit="10" d="M586.563,358.066c0,0-15.272,53.488,9.646,74.471
						c0,0,12.723,1.478,20.595,0c7.872-1.477,9.699-21.733,8.966-23.137c-0.733-1.404,59.661-53.828,59.661-53.828"/>
					<path fill="#5DC8ED" stroke="#000000" stroke-miterlimit="10" d="M685.03,352.451c0,0,10.737,73.289-17.717,78.904
						c0,0-17.197,2.661-24.893,0c-7.696-2.659-21.63-29.297-28.384-48.763"/>
				</g>
			</g>
		</g>
		<g>
			<path fill="#FF7BAC" stroke="#000000" stroke-miterlimit="10" d="M588.634,282.023c0,0-34.582,15.31-14.934,33.707
				c19.649,18.397,28.273-30.084,28.273-30.084L588.634,282.023z"/>
			<path fill="#D4145A" stroke="#000000" stroke-miterlimit="10" d="M601.297,285.521c0,0-59.352,40.037-14.734,72.546
				c0,0,8.699,3.104,21.906,5.258c20.027,3.268,50.42,4.354,76.562-10.873c0,0,12.999-18.666-7.939-74.503"/>
			<path fill="#F9C5DD" stroke="#000000" stroke-miterlimit="10" d="M631.104,325.742c0,0,10.751,4.212,39.122-2.66
				c0,0,5.319,23.938-5.541,26.377c0,0-20.614,3.879-29.037,0C635.647,349.459,626.006,344.25,631.104,325.742z"/>
			<path fill="none" stroke="#000000" stroke-miterlimit="10" d="M617.834,286.638c0,0-21.138,48.992-9.365,76.687"/>
			<path fill="#FFBC87" stroke="#000000" stroke-miterlimit="10" d="M612.723,319.897c0,0-15.416-1.875-12.666,8.912
				c0,0,0.238,10.479,13.98,3.612"/>
			<path fill="#F9C5DD" stroke="#000000" stroke-miterlimit="10" d="M617.834,331.616l-3.797,0.806c0,0-2.513-6.807-0.591-12.524
				l4.086-1.919"/>
			<path fill="#FF7BAC" stroke="#000000" stroke-miterlimit="10" d="M685.452,275.122c0,0,33.656,40.535-32.844,54.721
				c0,0-22.88,4.327-34.774,1.773c0,0-3.593-6.502,0-14.334c0,0,11.087-9.457,42.508-18.175c0,0,12.861-19.645,17.118-20.166
				C681.715,278.42,685.452,275.122,685.452,275.122z"/>
			<path fill="#FFBC87" stroke="#000000" stroke-width="2.134" stroke-miterlimit="10" d="M579.286,187.966
				c0,0-18.935-17.283-22.167,1.727c0,0-24.407,11.134-6.758,19.281c17.653,8.147,15.219,1.918,15.219,1.918"/>
			<path fill="#FFBC87" stroke="#000000" stroke-width="2.134" stroke-miterlimit="10" d="M684.703,189.736
				c0,0,17.496-18.743,22.233-0.053c0,0,25.224,9.146,8.28,18.677c-16.941,9.533-15.016,3.132-15.016,3.132"/>
			<g>
				<path fill="#FFBC87" d="M581.82,185.675c0,0-36.446,46.093-19.295,74.499c17.149,28.409,49.845,26.8,62.173,26.8
					c12.327,0,48.773-2.144,63.78-13.934c15.008-11.791,14.472-13.935,17.688-33.232c3.214-19.294-13.937-40.732-14.472-43.949
					c-0.538-3.216-6.967-10.183-6.967-10.183"/>
				<path d="M582.214,185.984c0,0-0.663,1.042-1.907,2.994c-1.243,1.953-3.058,4.82-5.318,8.491
					c-2.245,3.678-4.908,8.196-7.49,13.608c-1.309,2.696-2.582,5.621-3.766,8.76c-1.182,3.136-2.293,6.488-3.121,10.058
					c-0.836,3.564-1.44,7.341-1.555,11.259c-0.112,3.91,0.282,7.974,1.503,11.911c0.16,0.489,0.274,0.997,0.474,1.475l0.595,1.44
					c0.354,0.984,0.893,1.886,1.385,2.819l0.373,0.698c0.093,0.184,0.281,0.449,0.417,0.67l0.895,1.393
					c0.588,0.95,1.251,1.766,1.877,2.665c2.62,3.509,5.809,6.709,9.399,9.5c7.223,5.575,16.245,9.116,25.722,10.764
					c9.482,1.717,19.441,1.496,29.294,1.247c9.86-0.394,19.714-1.419,29.25-3.19c4.759-0.923,9.431-2.068,13.926-3.528
					c4.486-1.466,8.785-3.367,12.479-5.928c0.46-0.323,0.938-0.623,1.381-0.961l1.355-1.079c0.912-0.713,1.783-1.439,2.649-2.162
					c1.733-1.446,3.401-2.937,4.888-4.523c1.509-1.572,2.792-3.274,3.733-5.135c0.955-1.854,1.594-3.849,2.106-5.87
					c0.957-4.075,1.554-8.19,2.229-12.144c0.083-0.495,0.165-0.988,0.246-1.479c0.051-0.475,0.102-0.948,0.151-1.419
					c0.051-0.49,0.102-0.978,0.152-1.464l0.076-0.727c0.008-0.237-0.005-0.466-0.006-0.698c-0.012-0.926-0.023-1.844-0.035-2.752
					c-0.083-0.918-0.203-1.832-0.3-2.734c-0.523-3.596-1.382-7.014-2.552-10.15c-0.137-0.395-0.273-0.787-0.408-1.177
					c-0.155-0.383-0.31-0.764-0.463-1.142c-0.309-0.755-0.613-1.5-0.913-2.235c-0.675-1.44-1.273-2.863-1.97-4.191
					c-1.315-2.692-2.713-5.136-4.004-7.397c-1.299-2.27-2.567-4.271-3.595-6.303c-0.131-0.229-0.248-0.543-0.351-0.868l-0.149-0.47
					c0.021,0.112-0.001,0.004,0.001,0.017l-0.012-0.047l-0.023-0.094l-0.047-0.188c-0.054-0.273-0.14-0.443-0.212-0.629
					c-0.06-0.178-0.163-0.387-0.265-0.59c-0.394-0.812-0.867-1.56-1.321-2.243c-0.895-1.384-1.75-2.521-2.452-3.432
					c-0.69-0.923-1.241-1.617-1.615-2.082c-0.37-0.465-0.561-0.706-0.561-0.706l0.734-0.678c0,0,0.915,0.861,2.481,2.611
					c0.769,0.89,1.704,1.997,2.722,3.391c0.495,0.708,1.011,1.483,1.482,2.402c0.222,0.403,0.511,1.076,0.633,1.548l0.115,0.438
					l0.111,0.271c0.064,0.177,0.126,0.367,0.27,0.609c0.943,1.836,2.245,3.906,3.556,6.168c1.31,2.277,2.731,4.745,4.08,7.482
					c0.712,1.348,1.331,2.8,2.022,4.267c0.31,0.751,0.624,1.513,0.942,2.285c0.158,0.387,0.317,0.776,0.478,1.168
					c0.141,0.4,0.282,0.803,0.424,1.208c1.211,3.215,2.118,6.751,2.676,10.508c0.106,0.946,0.232,1.897,0.322,2.868
					c0.015,0.99,0.029,1.989,0.044,2.999c0,0.251,0.011,0.508,0.002,0.756l-0.073,0.728c-0.049,0.486-0.098,0.974-0.147,1.464
					c-0.054,0.509-0.107,1.021-0.162,1.534c-0.079,0.49-0.16,0.982-0.24,1.477c-0.665,3.954-1.241,8.06-2.219,12.292
					c-0.526,2.109-1.201,4.259-2.245,6.301c-1.028,2.05-2.439,3.924-4.022,5.584c-1.57,1.684-3.279,3.218-5.047,4.704
					c-0.886,0.744-1.775,1.49-2.678,2.2l-1.353,1.083c-0.475,0.367-0.979,0.688-1.47,1.036c-3.94,2.75-8.392,4.715-12.986,6.237
					c-4.604,1.513-9.354,2.692-14.179,3.644c-9.665,1.826-19.595,2.895-29.558,3.321c-1.245,0.059-2.502,0.078-3.751,0.118
					l-3.725,0.03c-2.474,0.015-4.967,0.027-7.456-0.037c-4.979-0.119-9.954-0.54-14.83-1.401c-4.869-0.871-9.651-2.164-14.152-4.04
					c-4.517-1.831-8.736-4.268-12.51-7.149c-3.75-2.916-7.072-6.255-9.809-9.921c-0.655-0.937-1.39-1.861-1.966-2.795l-0.893-1.393
					c-0.152-0.247-0.288-0.428-0.454-0.729l-0.402-0.75c-0.53-1.001-1.103-1.974-1.486-3.028c-0.213-0.517-0.425-1.032-0.636-1.546
					c-0.212-0.513-0.337-1.054-0.508-1.578c-1.305-4.213-1.713-8.516-1.594-12.611c0.121-4.103,0.753-8.018,1.616-11.693
					c0.856-3.681,1.996-7.114,3.206-10.32c1.21-3.207,2.51-6.187,3.841-8.929c2.639-5.498,5.311-10.095,7.628-13.797
					c2.343-3.69,4.401-6.443,5.879-8.261c1.48-1.813,2.352-2.726,2.351-2.726L582.214,185.984z"/>
			</g>
			<path d="M683.461,165.901c5.95-10.108,6.924-37.489,6.924-37.489c-4.017,4.842-8.202,8.09-12.425,10.116
				c2.362-12.053,2.82-28.04,2.82-28.04c-22.478,33.552-51.516-9.068-51.516-9.068c-29.614,32.415-40.121,4.908-40.121,4.908
				c-3.254,7.82-1.78,18.89,0.56,28.137c-9.032-2.376-12.737-10.213-12.737-10.213c-5.479,10.635-0.144,27.277,4.008,37.168
				c-7.398-2.25-10.516-6.642-10.516-6.642c-9.37,11.407,8.961,32.222,8.961,32.222s36.188,0,107.131,0
				c11.775,0,13.441-29.243,13.441-29.243C694.663,161.788,689.075,164.54,683.461,165.901z"/>
			<g>
				<path d="M594.963,250.398c-2.177,0.938-4.391,1.398-6.512,1.398c-3.516,0-6.784-1.261-9.231-3.7
					c-3.854-3.844-4.558-7.5-2.088-10.867c1.1-1.498,5.547-3.858,7.909-2.957c0.562,0.214,1.173,0.688,1.429,1.669
					c0.509-2.182-0.037-3.729-1.628-4.483c-2.694-1.273-7.414,0.183-9.176,2.841c-3.235,4.868-3.565,13.344,1.133,17.717
					c4.817,4.486,10.459,6.065,15.888,4.439c5.767-1.725,10.54-6.752,12.91-13.41C602.714,246.208,596.982,249.531,594.963,250.398z
					"/>
				<path d="M606.799,240.474l-0.392-0.121c-0.929,3.035-8.63,7.947-11.768,9.296c-5.473,2.356-11.16,1.541-14.844-2.128
					c-3.526-3.515-4.202-6.815-2.006-9.808c0.935-1.276,5.057-3.405,6.957-2.68c0.806,0.308,1.136,1.096,1.007,2.413l0.811,0.078
					c0.033-0.332,0.029-0.62,0.011-0.892l0.517,0.158c1.208-3.923-0.674-5.484-1.902-6.068c-3.063-1.45-8.21,0.126-10.205,3.127
					c-3.415,5.141-3.736,14.114,1.259,18.764c3.739,3.482,7.964,5.283,12.229,5.283c1.483,0,2.973-0.219,4.449-0.659
					c6.787-2.031,12.257-8.417,14.272-16.669L606.799,240.474z M592.687,256.456c-5.429,1.626-11.07,0.047-15.888-4.439
					c-4.698-4.373-4.368-12.849-1.133-17.717c1.762-2.658,6.481-4.114,9.176-2.841c1.591,0.755,2.137,2.302,1.628,4.483
					c-0.256-0.98-0.867-1.455-1.429-1.669c-2.362-0.901-6.81,1.458-7.909,2.957c-2.47,3.367-1.766,7.022,2.088,10.867
					c2.447,2.439,5.716,3.7,9.231,3.7c2.121,0,4.335-0.46,6.512-1.398c2.02-0.868,7.751-4.19,10.634-7.352
					C603.227,249.704,598.453,254.731,592.687,256.456z"/>
			</g>
			<g>
				<path d="M654.961,250.398c2.176,0.938,4.39,1.398,6.511,1.398c3.515,0,6.783-1.261,9.229-3.7c3.856-3.844,4.559-7.5,2.09-10.867
					c-1.1-1.498-5.548-3.858-7.906-2.957c-0.566,0.214-1.176,0.688-1.43,1.669c-0.511-2.182,0.036-3.729,1.627-4.483
					c2.691-1.273,7.41,0.183,9.176,2.841c3.236,4.868,3.565,13.344-1.133,17.717c-4.818,4.486-10.461,6.065-15.89,4.439
					c-5.763-1.725-10.539-6.752-12.911-13.41C647.211,246.208,652.941,249.531,654.961,250.398z"/>
				<path d="M642.729,240.568c2.015,8.252,7.486,14.638,14.271,16.669c1.477,0.439,2.966,0.659,4.45,0.659
					c4.267,0,8.489-1.8,12.229-5.283c4.998-4.65,4.672-13.623,1.256-18.764c-1.99-3.001-7.139-4.577-10.205-3.127
					c-1.227,0.584-3.107,2.145-1.899,6.068l0.516-0.158c-0.019,0.272-0.021,0.56,0.012,0.892l0.811-0.078
					c-0.128-1.317,0.201-2.105,1.005-2.413c1.901-0.726,6.023,1.404,6.961,2.68c2.194,2.992,1.52,6.293-2.009,9.808
					c-3.682,3.669-9.37,4.484-14.845,2.128c-3.136-1.35-10.836-6.262-11.768-9.296l-0.389,0.121L642.729,240.568z M644.324,243.046
					c2.887,3.162,8.617,6.484,10.637,7.352c2.176,0.938,4.39,1.398,6.511,1.398c3.515,0,6.783-1.261,9.229-3.7
					c3.856-3.844,4.559-7.5,2.09-10.867c-1.1-1.498-5.548-3.858-7.906-2.957c-0.566,0.214-1.176,0.688-1.43,1.669
					c-0.511-2.182,0.036-3.729,1.627-4.483c2.691-1.273,7.41,0.183,9.176,2.841c3.236,4.868,3.565,13.344-1.133,17.717
					c-4.818,4.486-10.461,6.065-15.89,4.439C651.473,254.731,646.696,249.704,644.324,243.046z"/>
			</g>
			<g>
				<g>
					<g>
						<path d="M570.213,265.159c2.37,2.126,4.41,4.494,6.071,7.218c1.095,1.795,1.79,3.845,1.371,5.949
							c-0.781,3.926-7.257,3.709-9.699,2.671c-0.771-0.399-1.485-0.884-2.146-1.456c-1.296-0.739-1.227-1.705,0.209-2.897
							c1.865,0.259,3.774,1.303,5.154,2.538c2.795,2.501,2.357,7.286-0.556,9.317c-1.615,1.127-3.975,1.367-5.861,1.525
							c-1.913,0.16-1.929,3.161,0,3c6.832-0.572,14.724-5.536,10.215-13.522c-1.975-3.497-5.296-5.355-9.231-5.901
							c-2.264-0.313-5.01,1.139-4.604,3.778c1.234,8.017,13.27,9.235,18.104,4.175c5.422-5.677-2.851-14.878-6.906-18.518
							C570.898,261.75,568.77,263.865,570.213,265.159L570.213,265.159z"/>
					</g>
				</g>
				<g>
					<g>
						<path d="M577.546,269.232c2.37,2.126,4.41,4.494,6.071,7.218c1.095,1.795,1.789,3.845,1.37,5.948
							c-0.782,3.927-7.255,3.712-9.698,2.673c-0.771-0.398-1.486-0.884-2.146-1.454c-1.296-0.739-1.227-1.705,0.209-2.897
							c1.866,0.258,3.774,1.302,5.156,2.538c2.795,2.501,2.355,7.284-0.558,9.315c-1.616,1.128-3.977,1.369-5.864,1.528
							c-1.913,0.161-1.929,3.163,0,3c6.829-0.576,14.73-5.536,10.219-13.523c-1.976-3.497-5.297-5.355-9.233-5.9
							c-2.263-0.313-5.008,1.141-4.603,3.779c1.233,8.02,13.271,9.226,18.104,4.17c5.424-5.675-2.851-14.877-6.905-18.515
							C578.231,265.823,576.104,267.938,577.546,269.232L577.546,269.232z"/>
					</g>
				</g>
				<g>
					<g>
						<path d="M595.468,274.122c2.37,2.126,4.411,4.493,6.072,7.216c1.095,1.796,1.789,3.845,1.37,5.948
							c-0.782,3.928-7.254,3.713-9.698,2.674c-0.771-0.399-1.486-0.884-2.146-1.455c-1.296-0.739-1.227-1.705,0.207-2.898
							c1.865,0.259,3.774,1.302,5.155,2.537c2.795,2.5,2.354,7.286-0.558,9.317c-1.615,1.127-3.974,1.367-5.861,1.524
							c-1.913,0.159-1.929,3.161,0,3c6.833-0.57,14.722-5.537,10.216-13.521c-1.974-3.497-5.296-5.354-9.231-5.899
							c-2.264-0.314-5.009,1.141-4.603,3.779c1.236,8.019,13.269,9.23,18.103,4.172c5.424-5.677-2.849-14.876-6.905-18.515
							C596.153,270.713,594.024,272.827,595.468,274.122L595.468,274.122z"/>
					</g>
				</g>
				<g>
					<g>
						<path d="M615.834,281.452c2.37,2.127,4.412,4.494,6.073,7.218c1.095,1.796,1.79,3.846,1.371,5.949
							c-0.782,3.929-7.258,3.709-9.701,2.672c-0.771-0.399-1.485-0.884-2.146-1.455c-1.296-0.739-1.226-1.705,0.209-2.897
							c1.865,0.259,3.775,1.302,5.155,2.538c2.793,2.5,2.354,7.286-0.558,9.318c-1.615,1.127-3.975,1.367-5.861,1.525
							c-1.913,0.16-1.929,3.161,0,3c6.834-0.572,14.72-5.538,10.215-13.522c-1.973-3.498-5.295-5.356-9.23-5.901
							c-2.264-0.313-5.006,1.143-4.602,3.78c1.229,8.019,13.273,9.228,18.103,4.172c5.424-5.678-2.851-14.879-6.907-18.518
							C616.52,278.043,614.391,280.158,615.834,281.452L615.834,281.452z"/>
					</g>
				</g>
				<g>
					<g>
						<path fill="#808080" d="M640.274,281.452c2.37,2.127,4.411,4.494,6.073,7.218c1.095,1.796,1.79,3.846,1.371,5.949
							c-0.781,3.927-7.255,3.71-9.698,2.672c-0.771-0.399-1.487-0.884-2.146-1.455c-1.296-0.738-1.227-1.704,0.208-2.897
							c1.865,0.259,3.773,1.303,5.154,2.538c2.795,2.501,2.355,7.286-0.558,9.318c-1.615,1.127-3.974,1.367-5.861,1.525
							c-1.913,0.16-1.929,3.162,0,3c6.832-0.572,14.724-5.538,10.216-13.522c-1.974-3.497-5.295-5.356-9.23-5.901
							c-2.264-0.313-5.005,1.144-4.602,3.78c1.227,8.019,13.273,9.226,18.102,4.172c5.424-5.678-2.852-14.879-6.907-18.518
							C640.96,278.043,638.832,280.158,640.274,281.452L640.274,281.452z"/>
					</g>
				</g>
				<g>
					<g>
						<path d="M658.197,283.084c2.37,2.126,4.411,4.492,6.073,7.216c1.095,1.795,1.79,3.844,1.372,5.947
							c-0.781,3.926-7.26,3.712-9.702,2.675c-0.771-0.399-1.485-0.885-2.145-1.456c-1.296-0.739-1.226-1.705,0.209-2.897
							c1.865,0.258,3.773,1.302,5.154,2.537c2.795,2.501,2.356,7.287-0.557,9.318c-1.616,1.127-3.975,1.367-5.861,1.525
							c-1.913,0.16-1.929,3.162,0,3c6.833-0.572,14.722-5.537,10.216-13.522c-1.975-3.498-5.296-5.355-9.231-5.9
							c-2.264-0.313-5.008,1.141-4.603,3.778c1.231,8.021,13.271,9.229,18.104,4.171c5.424-5.676-2.853-14.876-6.908-18.513
							C658.883,279.675,656.754,281.79,658.197,283.084L658.197,283.084z"/>
					</g>
				</g>
				<g>
					<g>
						<path d="M678.563,274.122c2.37,2.126,4.412,4.493,6.073,7.216c1.096,1.795,1.791,3.845,1.373,5.948
							c-0.782,3.929-7.259,3.712-9.702,2.674c-0.771-0.399-1.485-0.885-2.145-1.455c-1.296-0.739-1.227-1.705,0.208-2.898
							c1.865,0.259,3.774,1.302,5.155,2.537c2.796,2.501,2.355,7.286-0.558,9.317c-1.616,1.127-3.975,1.367-5.862,1.524
							c-1.913,0.159-1.929,3.161,0,3c6.832-0.57,14.726-5.537,10.217-13.521c-1.975-3.497-5.297-5.354-9.232-5.899
							c-2.264-0.314-5.008,1.141-4.602,3.779c1.234,8.019,13.271,9.231,18.104,4.172c5.423-5.678-2.853-14.877-6.909-18.515
							C679.249,270.713,677.12,272.828,678.563,274.122L678.563,274.122z"/>
					</g>
				</g>
				<g>
					<g>
						<path d="M686.711,271.677c2.37,2.127,4.411,4.494,6.072,7.218c1.095,1.795,1.791,3.844,1.372,5.948
							c-0.78,3.927-7.26,3.709-9.701,2.673c-0.771-0.398-1.485-0.884-2.145-1.455c-1.296-0.739-1.227-1.705,0.208-2.898
							c1.865,0.259,3.775,1.303,5.155,2.538c2.795,2.501,2.356,7.286-0.557,9.317c-1.616,1.127-3.976,1.367-5.862,1.524
							c-1.913,0.16-1.929,3.161,0,3c6.833-0.571,14.725-5.535,10.217-13.521c-1.975-3.497-5.297-5.356-9.232-5.901
							c-2.264-0.314-5.009,1.141-4.603,3.779c1.235,8.017,13.271,9.232,18.104,4.172c5.422-5.677-2.854-14.877-6.908-18.516
							C687.396,268.268,685.269,270.382,686.711,271.677L686.711,271.677z"/>
					</g>
				</g>
				<g>
					<g>
						<path fill="#808080" d="M694.043,260.27c2.37,2.127,4.412,4.495,6.073,7.219c1.095,1.795,1.79,3.845,1.37,5.949
							c-0.781,3.925-7.256,3.711-9.699,2.674c-0.771-0.399-1.485-0.885-2.146-1.457c-1.295-0.739-1.226-1.705,0.209-2.898
							c1.867,0.259,3.773,1.3,5.155,2.537c2.793,2.501,2.356,7.286-0.558,9.317c-1.615,1.127-3.974,1.367-5.86,1.526
							c-1.913,0.161-1.929,3.162,0,3c6.832-0.575,14.722-5.537,10.215-13.523c-1.976-3.499-5.295-5.354-9.232-5.9
							c-2.264-0.313-5.008,1.141-4.602,3.779c1.234,8.019,13.269,9.231,18.102,4.172c5.425-5.677-2.851-14.879-6.906-18.518
							C694.729,256.86,692.6,258.975,694.043,260.27L694.043,260.27z"/>
					</g>
				</g>
				<g>
					<g>
						<path fill="#808080" d="M667.974,277.379c2.37,2.127,4.411,4.495,6.073,7.218c1.095,1.795,1.79,3.845,1.371,5.948
							c-0.781,3.927-7.258,3.71-9.701,2.673c-0.771-0.4-1.485-0.886-2.146-1.456c-1.295-0.739-1.226-1.705,0.209-2.897
							c1.866,0.259,3.774,1.301,5.155,2.537c2.796,2.501,2.355,7.286-0.558,9.318c-1.615,1.127-3.974,1.368-5.861,1.526
							c-1.913,0.161-1.929,3.162,0,3c6.832-0.574,14.725-5.539,10.216-13.524c-1.975-3.497-5.296-5.354-9.231-5.899
							c-2.264-0.314-5.011,1.14-4.604,3.778c1.236,8.02,13.27,9.231,18.104,4.173c5.425-5.676-2.853-14.878-6.907-18.516
							C668.659,273.97,666.531,276.085,667.974,277.379L667.974,277.379z"/>
					</g>
				</g>
				<g>
					<g>
						<path d="M628.055,281.452c2.369,2.127,4.41,4.494,6.071,7.218c1.096,1.796,1.79,3.846,1.372,5.949
							c-0.782,3.928-7.257,3.71-9.7,2.672c-0.771-0.399-1.485-0.885-2.145-1.455c-1.296-0.738-1.227-1.704,0.209-2.897
							c1.865,0.259,3.773,1.302,5.154,2.538c2.794,2.501,2.356,7.285-0.558,9.318c-1.615,1.127-3.974,1.367-5.861,1.525
							c-1.913,0.16-1.929,3.162,0,3c6.833-0.572,14.724-5.538,10.216-13.522c-1.975-3.498-5.295-5.356-9.231-5.901
							c-2.263-0.313-5.011,1.142-4.604,3.78c1.238,8.015,13.271,9.231,18.104,4.172c5.423-5.678-2.851-14.878-6.906-18.518
							C628.741,278.043,626.612,280.158,628.055,281.452L628.055,281.452z"/>
					</g>
				</g>
				<g>
					<g>
						<path d="M650.049,279.009c2.371,2.126,4.412,4.493,6.074,7.218c1.095,1.795,1.79,3.845,1.371,5.948
							c-0.781,3.927-7.256,3.711-9.699,2.675c-0.771-0.4-1.485-0.886-2.146-1.457c-1.296-0.739-1.227-1.705,0.208-2.897
							c1.866,0.259,3.774,1.302,5.156,2.537c2.796,2.501,2.355,7.285-0.558,9.317c-1.616,1.127-3.975,1.367-5.862,1.525
							c-1.913,0.16-1.929,3.161,0,3c6.831-0.572,14.727-5.537,10.217-13.521c-1.975-3.498-5.297-5.354-9.232-5.9
							c-2.266-0.314-5.006,1.14-4.602,3.777c1.23,8.021,13.271,9.231,18.103,4.173c5.423-5.677-2.853-14.878-6.909-18.516
							C650.734,275.6,648.605,277.715,650.049,279.009L650.049,279.009z"/>
					</g>
				</g>
				<g>
					<g>
						<path fill="#808080" d="M607.688,280.637c2.369,2.127,4.411,4.495,6.072,7.22c1.095,1.795,1.79,3.844,1.371,5.947
							c-0.781,3.929-7.259,3.711-9.702,2.674c-0.77-0.399-1.484-0.885-2.144-1.455c-1.295-0.74-1.226-1.706,0.209-2.897
							c1.866,0.258,3.774,1.3,5.155,2.535c2.795,2.501,2.356,7.287-0.557,9.318c-1.617,1.128-3.977,1.367-5.864,1.525
							c-1.913,0.16-1.929,3.161,0,3c6.834-0.571,14.727-5.535,10.218-13.522c-1.975-3.498-5.296-5.354-9.231-5.898
							c-2.265-0.313-5.008,1.139-4.602,3.778c1.232,8.02,13.269,9.23,18.103,4.171c5.424-5.676-2.854-14.878-6.907-18.517
							C608.374,277.228,606.245,279.342,607.688,280.637L607.688,280.637z"/>
					</g>
				</g>
				<g>
					<g>
						<path d="M587.663,275.123c2.077,2.488,3.81,5.244,4.989,8.269c2.322,5.953-2.137,9.089-7.896,7.762
							c-1.177-0.404-2.185-1.045-3.024-1.922c-1.937-1.265-1.647-2.313,0.869-3.145c2.195,0.938,3.836,2.415,4.727,4.715
							c2.537,6.559-4.336,8.25-9.004,7.963c-1.933-0.119-1.922,2.882,0,3c3.851,0.237,7.612-0.193,10.433-3.048
							c2.395-2.426,2.486-7.469,0.843-10.285c-1.641-2.812-4.926-5.568-8.322-5.886c-2.417-0.226-5.413,1.45-4.445,4.383
							c2.348,7.111,12.583,10.675,18.016,4.76c4.862-5.293-1.614-14.557-5.063-18.687
							C588.543,271.515,586.433,273.649,587.663,275.123L587.663,275.123z"/>
					</g>
				</g>
				<g>
					<g>
						<path d="M571.814,267.061c1.994,2.553,3.613,5.381,4.691,8.438c2.251,6.381-3.229,9.553-9.062,7.072
							c-0.787-0.452-1.485-1.011-2.093-1.678c-1.899-1.358-1.55-2.376,1.049-3.053c2.18,1.018,3.719,2.545,4.538,4.889
							c2.311,6.614-4.69,8.052-9.323,7.615c-1.927-0.182-1.909,2.82,0,3c3.869,0.364,7.588,0.032,10.512-2.738
							c2.48-2.351,2.665-7.408,1.124-10.262c-1.555-2.877-4.766-5.684-8.149-6.114c-2.45-0.312-5.393,1.334-4.525,4.282
							c2.122,7.218,12.279,10.972,17.873,5.27c5.02-5.117-1.233-14.642-4.514-18.842
							C572.746,263.416,570.639,265.556,571.814,267.061L571.814,267.061z"/>
					</g>
				</g>
				<g>
					<g>
						<path fill="#808080" d="M570.213,265.159c2.37,2.126,4.41,4.494,6.071,7.218c1.095,1.795,1.79,3.845,1.371,5.949
							c-0.781,3.926-7.257,3.709-9.699,2.671c-0.771-0.399-1.485-0.884-2.146-1.456c-1.296-0.739-1.227-1.705,0.209-2.897
							c1.865,0.259,3.774,1.303,5.154,2.538c2.795,2.501,2.357,7.286-0.556,9.317c-1.615,1.127-3.975,1.367-5.861,1.525
							c-1.913,0.16-1.929,3.161,0,3c6.832-0.572,14.724-5.536,10.215-13.522c-1.975-3.497-5.296-5.355-9.231-5.901
							c-2.264-0.313-5.01,1.139-4.604,3.778c1.234,8.017,13.27,9.235,18.104,4.175c5.422-5.677-2.851-14.878-6.906-18.518
							C570.898,261.75,568.77,263.865,570.213,265.159L570.213,265.159z"/>
					</g>
				</g>
			</g>
			<path fill="#FF9966" stroke="#000000" stroke-width="2.134" stroke-miterlimit="10" d="M620.995,210.473
				c0,0-36.287,32.236-14.988,41.978c0,0,0.777-8.648,7.634-7.056c6.856,1.595,1.536,7.935,1.643,8.535
				c0.107,0.6,10.653,3.669,14.186,0.562c0,0-3.352-8.583,4.97-8.242s2.576,8.334,3.579,7.248c0,0,9.39,3.369,6.606-12.365
				c0,0-7.236-27.502-15.199-32.283C629.425,208.85,623.553,206.093,620.995,210.473z"/>
			<path fill="#FF9966" d="M597.856,200.745c-8.608-1.615-16.473,1.655-17.917,7.328l31.959,5.998
				C612.611,208.256,606.467,202.361,597.856,200.745z"/>
			<path fill="#FF9966" d="M656.408,201.559c8.609-1.615,16.473,1.655,17.916,7.329l-31.957,5.997
				C641.657,209.072,647.799,203.177,656.408,201.559z"/>
			<g>
				<g>
					<path fill="#FFFFFF" stroke="#000000" stroke-miterlimit="10" d="M582.448,209.685c0,0,18.786-8.761,28.832,6.63
						C611.28,216.315,593.296,219.644,582.448,209.685z"/>
					<g>
						<path stroke="#000000" stroke-miterlimit="10" d="M604.009,212.413c-0.309,2.28-3.041,3.943-6.101,3.714
							c-3.063-0.229-5.293-2.265-4.986-4.545c0.308-2.278,3.039-3.942,6.101-3.713C602.084,208.099,604.316,210.133,604.009,212.413
							z"/>
						<path fill="#F2F2F2" stroke="#000000" stroke-miterlimit="10" d="M602.551,211.085c-0.129,0.946-1.263,1.637-2.533,1.54
							c-1.271-0.094-2.197-0.939-2.069-1.885c0.127-0.945,1.261-1.635,2.531-1.542C601.752,209.294,602.678,210.139,602.551,211.085
							z"/>
					</g>
				</g>
				<g>
					<line fill="none" stroke="#000000" stroke-miterlimit="10" x1="582.448" y1="209.685" x2="576.819" y2="207.85"/>
					<line fill="none" stroke="#000000" stroke-miterlimit="10" x1="582.448" y1="209.685" x2="574.854" y2="209.19"/>
					<line fill="none" stroke="#000000" stroke-miterlimit="10" x1="582.448" y1="209.685" x2="577.635" y2="210.476"/>
				</g>
			</g>
			<g>
				<g>
					<path fill="#FFFFFF" stroke="#000000" stroke-miterlimit="10" d="M672.573,210.016c0,0-18.785-8.355-28.83,6.324
						C643.743,216.339,661.729,219.514,672.573,210.016z"/>
					<g>
						<path stroke="#000000" stroke-miterlimit="10" d="M651.018,212.617c0.306,2.176,3.038,3.762,6.098,3.542
							c3.063-0.219,5.295-2.159,4.986-4.331c-0.308-2.176-3.039-3.76-6.098-3.544C652.94,208.504,650.708,210.443,651.018,212.617z"
							/>
						<path fill="#F2F2F2" stroke="#000000" stroke-miterlimit="10" d="M652.475,211.354c0.127,0.9,1.261,1.558,2.531,1.466
							c1.27-0.092,2.197-0.897,2.069-1.799c-0.128-0.901-1.261-1.557-2.531-1.467C653.271,209.642,652.347,210.449,652.475,211.354z
							"/>
					</g>
				</g>
				<g>
					<line fill="none" stroke="#000000" stroke-miterlimit="10" x1="672.573" y1="210.016" x2="678.204" y2="208.266"/>
					<line fill="none" stroke="#000000" stroke-miterlimit="10" x1="672.573" y1="210.016" x2="680.169" y2="209.544"/>
					<line fill="none" stroke="#000000" stroke-miterlimit="10" x1="672.573" y1="210.016" x2="677.392" y2="210.771"/>
				</g>
			</g>
			<path fill="none" stroke="#333333" stroke-width="5" stroke-miterlimit="10" d="M617.05,203.859
				c-0.379-0.358-0.879-1.021-1.389-1.615c-0.252-0.296-0.508-0.582-0.744-0.814c-2.485,0.405-5.101,0.679-7.602,0.423
				c-0.502-0.051-0.998-0.121-1.486-0.218c-0.526-0.505-0.672-1.008-0.616-1.46c0.44-1.816,0.784-3.409-0.183-2.784
				c-1.588,0.411-3.288,0.644-4.953,0.625c-0.526-0.02-1.051-0.068-1.47-0.203c-2.51-1.507,1.703-5.602-1.827-4.693
				c-0.598-0.128-1.387,0.64-2.489,1.224c-0.367,0.193-0.768,0.367-1.21,0.482c-0.355-0.286-0.728-0.546-1.114-0.784
				c-0.387-0.24-0.786-0.458-1.108-0.767c-0.072-2.078-0.499-4.339-2.108-5.16c-0.404-0.206-0.883-0.38-1.429-0.937
				c-0.837-0.437-1.634-0.606-2.257-1.574c0.538,1.365,0.682,2.645,0.367,3.62c-0.102,0.309-0.255,0.584-0.457,0.76
				c-2.531,0.057-5.374-2.223-7.622-1.913"/>
			<path fill="none" stroke="#333333" stroke-width="5" stroke-miterlimit="10" d="M636.463,203.859
				c0.378-0.358,0.881-1.021,1.386-1.615c0.256-0.296,0.51-0.582,0.744-0.814c2.486,0.405,5.104,0.679,7.604,0.423
				c0.501-0.051,0.998-0.121,1.486-0.218c0.528-0.505,0.671-1.008,0.616-1.46c-0.443-1.816-0.785-3.409,0.183-2.784
				c1.589,0.411,3.289,0.644,4.953,0.625c0.527-0.02,1.05-0.068,1.47-0.203c2.512-1.507-1.702-5.602,1.826-4.693
				c0.598-0.128,1.388,0.64,2.487,1.224c0.369,0.193,0.772,0.367,1.213,0.482c0.354-0.286,0.726-0.546,1.114-0.784
				c0.388-0.24,0.784-0.458,1.108-0.767c0.069-2.078,0.499-4.339,2.109-5.16c0.401-0.206,0.883-0.38,1.429-0.937
				c0.836-0.437,1.632-0.606,2.258-1.574c-0.543,1.365-0.682,2.645-0.367,3.62c0.102,0.309,0.255,0.584,0.457,0.76
				c2.529,0.057,5.374-2.223,7.625-1.913"/>
			<g>
				
					<use xlink:href="#_x12_509112576_677311104_7_x00_"  width="3" height="3" x="-1.5" y="-1.5" transform="matrix(0.9952 0 0 -0.9952 627.3389 230.6606)" overflow="visible" opacity="0.5033"/>
				
					<use xlink:href="#New_Symbol"  width="4" height="3" x="-2" y="-1.5" transform="matrix(0.9051 0 0 -0.9051 619.1533 231.4609)" overflow="visible" opacity="0.4171"/>
				
					<use xlink:href="#_x12_509112576_1721368448_19_x00_"  width="3" height="3" x="-1.5" y="-1.5" transform="matrix(0.9702 0 0 -0.9702 617.5215 221.894)" overflow="visible"/>
				
					<use xlink:href="#_x12_509112576_1721368448_49_x00_"  width="3" height="3" x="-1.5" y="-1.5" transform="matrix(1.0721 0 0 -1.0721 628.0391 223.4746)" overflow="visible"/>
				
					<use xlink:href="#New_Symbol"  width="4" height="3" x="-2" y="-1.5" transform="matrix(0.8147 0 0 -0.8147 621.6465 224.7974)" overflow="visible" opacity="0.8812"/>
				
					<use xlink:href="#_x12_509112576_1721368448_38_x00_"  width="3" height="3" x="-1.5" y="-1.5" transform="matrix(1.3522 0 0 -1.3522 616.7871 240.3105)" overflow="visible" opacity="0.8118"/>
				
					<use xlink:href="#_x12_509112576_1721368448_12_x00_"  width="3" height="3" x="-1.5" y="-1.5" transform="matrix(0.9881 0 0 -0.9881 606.666 238.7803)" overflow="visible"/>
				
					<use xlink:href="#_x12_509112576_1721368448_25_x00_"  width="3" height="3" x="-1.5" y="-1.5" transform="matrix(0.9074 0 0 -0.9074 612.6328 230.6758)" overflow="visible" opacity="0.9685"/>
				
					<use xlink:href="#New_Symbol"  width="4" height="3" x="-2" y="-1.5" transform="matrix(1.926 0 0 -1.926 626.6973 238.7104)" overflow="visible" opacity="0.5463"/>
				
					<use xlink:href="#_x12_509112576_1721368448_3_x00_"  width="3" height="3" x="-1.5" y="-1.5" transform="matrix(0.8147 0 0 -0.8147 625.5938 214.7808)" overflow="visible"/>
				
					<use xlink:href="#New_Symbol"  width="4" height="3" x="-2" y="-1.5" transform="matrix(0.928 0 0 -0.928 637.2207 236.2319)" overflow="visible"/>
			</g>
			<g>
				
					<use xlink:href="#New_Symbol"  width="4" height="3" x="-2" y="-1.5" transform="matrix(0.8147 0 0 -0.8147 576.5801 226.7603)" overflow="visible"/>
				
					<use xlink:href="#New_Symbol"  width="4" height="3" x="-2" y="-1.5" transform="matrix(0.8147 0 0 -0.8147 567.6621 250.2495)" overflow="visible"/>
				
					<use xlink:href="#New_Symbol"  width="4" height="3" x="-2" y="-1.5" transform="matrix(0.8147 0 0 -0.8147 565.0771 233.7476)" overflow="visible"/>
				
					<use xlink:href="#New_Symbol"  width="4" height="3" x="-2" y="-1.5" transform="matrix(0.8147 0 0 -0.8147 574.9746 247.8613)" overflow="visible"/>
				
					<use xlink:href="#New_Symbol"  width="4" height="3" x="-2" y="-1.5" transform="matrix(0.8147 0 0 -0.8147 693.1455 223.3325)" overflow="visible"/>
				
					<use xlink:href="#New_Symbol"  width="4" height="3" x="-2" y="-1.5" transform="matrix(0.8147 0 0 -0.8147 691.2979 250.8423)" overflow="visible"/>
				
					<use xlink:href="#New_Symbol"  width="4" height="3" x="-2" y="-1.5" transform="matrix(0.8147 0 0 -0.8147 699.248 239.6279)" overflow="visible"/>
				
					<use xlink:href="#New_Symbol"  width="4" height="3" x="-2" y="-1.5" transform="matrix(0.8147 0 0 -0.8147 677.1943 260.9517)" overflow="visible"/>
				
					<use xlink:href="#New_Symbol"  width="4" height="3" x="-2" y="-1.5" transform="matrix(0.8147 0 0 -0.8147 665.3418 228.6533)" overflow="visible"/>
			</g>
			<path fill="#C1272D" stroke="#000000" stroke-miterlimit="10" d="M602.853,276.319c0,0,19.751-36.979,45.834-2.256
				C648.687,274.063,634.718,277.851,602.853,276.319z"/>
			<path fill="#F9C5DD" stroke="#000000" stroke-miterlimit="10" d="M570.954,321.647c0,0-1.101,4.523,22.101,3.334
				c0,0,2.807,14.836-4.509,15.169c0,0-11.357,1.661-17.592-1.22C570.954,338.931,568.545,331.517,570.954,321.647z"/>
		</g>
	</g>
	<g>
		
			<rect x="530.659" y="320.186" transform="matrix(0.9925 0.1224 -0.1224 0.9925 43.7316 -67.359)" fill="#42210B" stroke="#000000" stroke-miterlimit="10" width="79.061" height="4.247"/>
		
			<ellipse transform="matrix(0.9925 0.1224 -0.1224 0.9925 42.4409 -60.9359)" fill="#999999" stroke="#000000" stroke-miterlimit="10" cx="517.247" cy="315.007" rx="9.152" ry="7.491"/>
		
			<rect x="526.412" y="313.653" transform="matrix(0.9924 0.1227 -0.1227 0.9924 42.9107 -62.4693)" fill="#999999" stroke="#000000" stroke-miterlimit="10" width="4.561" height="7.078"/>
		<path fill="#999999" stroke="#000000" stroke-miterlimit="10" d="M508.971,311.519c0,0,10.332,5.092,16.932,1.457"/>
	</g>
</g>
<g id="흥부_1_">
	<g>
		<path fill="#FFFFFF" stroke="#000000" stroke-miterlimit="10" d="M185.21,458.097c0,0-2.641,19.219-12.981,16.546
			c0,0-13.589-2.57-3.737-31.022c0,0,3.133-10.604,16.599-4.529"/>
		<path fill="none" stroke="#8C6239" stroke-width="2" stroke-miterlimit="10" d="M184.147,462.959c0,0-5.595,5.464-5.505,0.994
			c0.175-8.726,3.24-17.021,4.724-25.57c0,0-7-3.042-11.148,0.354c-4.148,3.396-5.396,7.546-6.318,14.029
			c-0.922,6.484-3.689,14.175,4.609,21.172C170.508,473.938,179.717,479.935,184.147,462.959z"/>
		
			<line fill="none" stroke="#8C6239" stroke-width="2" stroke-miterlimit="10" x1="168.299" y1="471.777" x2="170.665" y2="441.175"/>
		
			<line fill="none" stroke="#8C6239" stroke-width="2" stroke-miterlimit="10" x1="171.495" y1="474.985" x2="175.293" y2="437.278"/>
		
			<line fill="none" stroke="#8C6239" stroke-width="2" stroke-miterlimit="10" x1="175.403" y1="474.861" x2="180.255" y2="437.448"/>
		<line fill="none" stroke="#8C6239" stroke-width="2" stroke-miterlimit="10" x1="179.4" y1="472.038" x2="180.5" y2="465.547"/>
		
			<line fill="none" stroke="#8C6239" stroke-width="2" stroke-miterlimit="10" x1="182.78" y1="441.407" x2="171.512" y2="440.272"/>
		
			<line fill="none" stroke="#8C6239" stroke-width="2" stroke-miterlimit="10" x1="181.727" y1="446.014" x2="167.467" y2="445.598"/>
		
			<line fill="none" stroke="#8C6239" stroke-width="2" stroke-miterlimit="10" x1="180.698" y1="451.361" x2="165.244" y2="451.603"/>
		
			<line fill="none" stroke="#8C6239" stroke-width="2" stroke-miterlimit="10" x1="177.899" y1="458.329" x2="165.446" y2="457.975"/>
		
			<line fill="none" stroke="#8C6239" stroke-width="2" stroke-miterlimit="10" x1="177.42" y1="464.848" x2="165.426" y2="465.229"/>
	</g>
	<path fill="#4D4D4D" stroke="#000000" stroke-miterlimit="10" d="M225.983,404.5c0,0-4.15,29.5,6.85,40.833c0,0-22-6.333-33,0
		c0,0-7.5,12.333,3.833,18.5c0,0,22.834,11.5,49.667,4c0,0,15-3.499,21.5-17.833c0,0,5.167-11.501,5.667-28.334
		c0,0,0.414-10.999-1.46-15.666"/>
	<g>
		<path fill="#FFFFFF" stroke="#000000" stroke-miterlimit="10" d="M183.426,460.035c0,0-1.158,18.125-11.25,16.406
			c0,0-13.195-1.381-5.792-28.657c0,0,2.243-10.129,15.571-5.469"/>
		<path fill="none" stroke="#8C6239" stroke-width="2" stroke-miterlimit="10" d="M182.754,464.649c0,0-4.967,5.518-5.201,1.341
			c-0.454-8.152,1.89-16.12,2.7-24.206c0,0-6.919-2.313-10.65,1.166c-3.729,3.479-4.628,7.442-5.049,13.56
			c-0.42,6.117-2.521,13.497,5.924,19.404C170.477,475.914,179.723,480.817,182.754,464.649z"/>
		<line fill="none" stroke="#8C6239" stroke-width="2" stroke-miterlimit="10" x1="168.208" y1="474.063" x2="168.29" y2="445.34"/>
		
			<line fill="none" stroke="#8C6239" stroke-width="2" stroke-miterlimit="10" x1="171.498" y1="476.817" x2="172.445" y2="441.359"/>
		
			<line fill="none" stroke="#8C6239" stroke-width="2" stroke-miterlimit="10" x1="175.231" y1="476.408" x2="177.208" y2="441.146"/>
		
			<line fill="none" stroke="#8C6239" stroke-width="2" stroke-miterlimit="10" x1="178.857" y1="473.476" x2="179.447" y2="467.338"/>
		
			<line fill="none" stroke="#8C6239" stroke-width="2" stroke-miterlimit="10" x1="179.908" y1="444.649" x2="169.036" y2="444.435"/>
		
			<line fill="none" stroke="#8C6239" stroke-width="2" stroke-miterlimit="10" x1="179.228" y1="449.024" x2="165.544" y2="449.704"/>
		
			<line fill="none" stroke="#8C6239" stroke-width="2" stroke-miterlimit="10" x1="178.624" y1="454.091" x2="163.843" y2="455.472"/>
		<line fill="none" stroke="#8C6239" stroke-width="2" stroke-miterlimit="10" x1="176.442" y1="460.799" x2="164.49" y2="461.4"/>
		
			<line fill="none" stroke="#8C6239" stroke-width="2" stroke-miterlimit="10" x1="176.479" y1="467.199" x2="165.021" y2="468.451"/>
	</g>
	<path fill="#4D4D4D" stroke="#000000" stroke-miterlimit="10" d="M206.983,397c0,0-4.15,32.858,6.85,45.482c0,0-22-7.055-33,0
		c0,0-7.5,13.737,3.833,20.606c0,0,22.834,12.809,49.667,4.455c0,0,15-3.897,21.5-19.863c0,0,5.167-12.811,5.667-31.561"/>
	<path fill="#FFBC87" stroke="#000000" stroke-miterlimit="10" d="M311.832,347.625c0,0,1.002-2.251,5.127-3.417
		s9.007,1.207,9.733,1.708s2.518,5.042,1.476,8.334s-5.601,4.709-8.009,4.417s-7.116-1.334-7.116-1.334"/>
	<path fill="#4D4D4D" stroke="#000000" stroke-miterlimit="10" d="M245.875,335.999c0,0,28.625,13,59.792,8.834
		c0,0,6.822-0.498,8.996,6.82c3.045,10.284-23.582,15.927-30.12,15.803c-11.749-0.224-38.297-11.043-43.876-21.456
		C240.658,345.985,235.758,336.83,245.875,335.999z"/>
	<g>
		<g>
			<path fill="#999999" stroke="#000000" stroke-miterlimit="10" d="M276.634,343.402c0,0,13.779,32.264,2.406,62.598
				c0,0-46.407,8-73.057-2c0,0-7.15-37.012,17.267-58.339"/>
			<path fill="#999999" stroke="#000000" stroke-miterlimit="10" d="M263.548,346.834c0,0,3.881,44.394,0,61.113"/>
		</g>
		<path fill="#4D4D4D" stroke="#000000" stroke-miterlimit="10" d="M222.02,380.334c0,0,11.98,6.667,33.313,0
			c0,0,2.833,20.833-5.167,22.333c0,0-15,2.666-25.5-1.167C224.667,401.5,218.707,396.501,222.02,380.334z"/>
		<path fill="#4D4D4D" stroke="#000000" stroke-miterlimit="10" d="M275.167,380.334c0,0,5.569,1,8.368,0
			c0,0,1.465,11.211-2.618,19.855c0,0-3.583-0.145-4.083,0S272.667,392.668,275.167,380.334z"/>
	</g>
	<path fill="#FFBC87" stroke="#000000" stroke-width="2" stroke-miterlimit="10" d="M303.225,261c0,0,24.743-19.333,17.076,24.667
		c0,0,2.797,14.333-7.752,14.333H306"/>
	<path fill="#FFBC87" stroke="#000000" stroke-width="2" stroke-miterlimit="10" d="M184.635,271.018
		c0,0-26.873-16.243-14.011,26.528c0,0-1.066,14.563,9.406,13.306l6.502-0.782"/>
	<path fill="#FFBC87" stroke="#000000" stroke-width="2.134" stroke-miterlimit="10" d="M186.667,266.721
		c-2.82,0.724-1.59,25.461-1.449,27.727c3.188,51.362,51.14,63.873,95.444,47.555c34.926-12.865,25.368-62.252,20.474-90.002
		C298.667,238.005,186.744,266.701,186.667,266.721z"/>
	<path stroke="#000000" stroke-width="2.134" stroke-miterlimit="10" d="M191.375,244.118c0,0,2.335-40.786,52.646-35.618
		c0,0,52.193-4.168,54.919,28.5L191.375,244.118z"/>
	<path fill="#333333" stroke="#000000" stroke-width="2.134" stroke-miterlimit="10" d="M184.755,269.953
		c0,0,53.265-23.17,118.534-11.395L298.94,237c0,0-64.213-8.865-108.823,7.567L184.755,269.953z"/>
	<path stroke="#000000" stroke-width="2" stroke-miterlimit="10" d="M244.021,208.5c0,0-4.688-24.832,13.312-21.499
		c0,0,15.333-0.241,7.333,21.046L244.021,208.5z"/>
	<path fill="none" stroke="#000000" stroke-width="3" stroke-miterlimit="10" d="M266.816,267.356c0,0,2.324-1.71,8.214-0.369
		l-1.933,1.239c0,0,5.029-2.307,11.435-0.25l-3.028,1.195c0,0,8.464-2.361,12.782-0.009l-2.986,1.03c0,0,2.845-1.262,9.144-0.332
		l-1.242,1.29"/>
	<path fill="none" stroke="#000000" stroke-width="3" stroke-miterlimit="10" d="M249.594,267.485c0,0-2.623-1.605-9.419,0.061
		l2.186,1.15c0,0-5.712-2.065-13.119,0.352l3.443,1.047c0,0-9.653-1.939-14.672,0.667l3.401,0.883c0,0-3.232-1.125-10.487,0.148
		l1.392,1.238"/>
	<g>
		<path fill="#FDFEFF" stroke="#000000" stroke-miterlimit="10" d="M288.849,279.973c0.999,1.56,1.432,3.484,1.058,5.447
			c-0.286,1.506-1.006,2.82-2.002,3.84c5.923-0.67,10.161-2.68,10.161-2.68C294.868,283.263,291.768,281.189,288.849,279.973z"/>
		<path fill="#FDFEFF" stroke="#000000" stroke-miterlimit="10" d="M276.634,279.353c-5.159,1.608-8.384,5.019-8.384,5.019
			c2.665,1.993,5.446,3.271,8.197,4.056c-1.174-1.62-1.708-3.694-1.305-5.813C275.376,281.377,275.903,280.273,276.634,279.353z"/>
		<path stroke="#000000" stroke-miterlimit="10" d="M288.849,279.973c-4.659-1.942-8.848-1.669-12.215-0.62
			c-0.731,0.92-1.258,2.024-1.493,3.261c-0.403,2.119,0.131,4.193,1.305,5.813c4.057,1.154,8.038,1.222,11.458,0.833
			c0.996-1.02,1.716-2.334,2.002-3.84C290.28,283.457,289.847,281.532,288.849,279.973z"/>
	</g>
	<g>
		<path fill="#FDFEFF" stroke="#000000" stroke-miterlimit="10" d="M223.38,280.522c-1.077,1.569-1.585,3.532-1.266,5.562
			c0.244,1.557,0.94,2.93,1.93,4.01c-6.063-0.883-10.35-3.09-10.35-3.09C217.088,283.703,220.342,281.676,223.38,280.522z"/>
		<path fill="#FDFEFF" stroke="#000000" stroke-miterlimit="10" d="M235.951,280.289c5.246,1.825,8.449,5.435,8.449,5.435
			c-2.804,1.958-5.704,3.18-8.556,3.894c1.26-1.625,1.877-3.738,1.534-5.928C237.177,282.41,236.672,281.26,235.951,280.289z"/>
		<path stroke="#000000" stroke-miterlimit="10" d="M223.38,280.522c4.852-1.84,9.146-1.423,12.57-0.234
			c0.721,0.971,1.226,2.122,1.426,3.401c0.343,2.189-0.274,4.303-1.534,5.928c-4.206,1.053-8.298,0.988-11.799,0.477
			c-0.99-1.08-1.687-2.453-1.93-4.01C221.795,284.055,222.303,282.092,223.38,280.522z"/>
	</g>
	<path fill="#FCA870" stroke="#000000" stroke-miterlimit="10" d="M259.469,281.12c0,0-18.376,31.85-11.089,34.603
		c0,0,3.334,1.674,5.751-0.328c0,0,4.663,3.068,9.679,0.275c0,0,4.74,2.628,7.423-1.719
		C271.232,313.951,273.821,303.65,259.469,281.12z"/>
	<path fill="none" stroke="#000000" stroke-width="0.5" stroke-miterlimit="10" d="M207.125,302.75c0,0,12.125,10.625,15.75,26.875"
		/>
	<path fill="none" stroke="#000000" stroke-width="0.5" stroke-miterlimit="10" d="M278.923,328.062c0,0,2.418-15.939,14.154-27.748
		"/>
	<path fill="#29ABE2" d="M223.846,299.544c0,3.881-2.316,7.026-5.173,7.026s-5.173-3.146-5.173-7.026s5.173-8.364,5.173-8.364
		S223.846,295.663,223.846,299.544z"/>
	<path fill="#29ABE2" d="M300.852,291.936c0,2.008-1.198,3.635-2.676,3.635s-2.676-1.627-2.676-3.635s2.676-4.326,2.676-4.326
		S300.852,289.928,300.852,291.936z"/>
	
		<ellipse transform="matrix(0.9998 -0.0193 0.0193 0.9998 -5.3979 4.5349)" fill="#FFFFFF" cx="232.753" cy="282.53" rx="1.952" ry="1.602"/>
	
		<ellipse transform="matrix(0.9973 0.0735 -0.0735 0.9973 21.4986 -20.1572)" fill="#FFFFFF" cx="284.511" cy="281.901" rx="1.899" ry="1.56"/>
	<path fill="#C1272D" stroke="#000000" stroke-width="0.5" stroke-miterlimit="10" d="M269.505,335.157
		c1.146-0.552-1.212-8.479-1.597-9.198c-5.918-11.064-19.848,0.604-19.415,9.586C248.493,335.545,258.575,340.251,269.505,335.157z"
		/>
	<path fill="#F7931E" stroke="#000000" stroke-miterlimit="10" d="M294.875,357.5c-3.976,36.178,58.451,37.968,50.875-0.625"/>
	<path fill="#C69C6D" stroke="#000000" stroke-miterlimit="10" d="M294.875,356.875c0,0,22.875,16.625,50.875,0
		C345.75,356.875,318.25,339.125,294.875,356.875z"/>
	<path fill="#FFBC87" stroke="#000000" stroke-miterlimit="10" d="M282.832,356.625c0,0,1.002-2.251,5.127-3.417
		s9.007,1.207,9.733,1.708s2.518,5.042,1.476,8.334s-5.601,4.709-8.009,4.417s-7.116-1.334-7.116-1.334"/>
	<path fill="#4D4D4D" stroke="#000000" stroke-miterlimit="10" d="M220.47,344.999c0,0,26.811,13,56.004,8.834
		c0,0,6.39-0.498,8.426,6.82c2.853,10.284-22.088,15.927-28.212,15.803c-11.005-0.224-35.872-11.043-41.097-21.456
		C215.583,354.985,210.994,345.83,220.47,344.999z"/>
</g>
<g id="말풍선">
	<path fill="#FFFFFF" stroke="#000000" stroke-miterlimit="10" d="M813.784,300.302c-44.063,2.097-78.702,26.533-77.366,54.583
		c0.057,1.211,0.205,2.406,0.394,3.589l-15.447,6.659l24.777,12.308c13.958,15.877,41.402,25.912,72.476,24.434
		c44.062-2.097,78.699-26.535,77.366-54.582C894.647,319.243,857.846,298.205,813.784,300.302z"/>
	<text transform="matrix(1 0 0 1 764.7949 346.5)"><tspan x="0" y="0" stroke="#000000" stroke-width="0.5" stroke-miterlimit="10" font-family="'Gungsuh'" font-size="17">썩 꺼지거라! </tspan><tspan x="14.16" y="20.4" stroke="#000000" stroke-width="0.5" stroke-miterlimit="10" font-family="'Gungsuh'" font-size="17">거지녀석!</tspan></text>
	<path fill="#FFFFFF" stroke="#000000" stroke-miterlimit="10" d="M429.303,176.519c-47.856,2.278-85.271,33.166-83.565,68.995
		c0.073,1.547,0.245,3.073,0.46,4.586l-16.723,8.363l27.033,15.94c15.311,20.4,45.221,33.463,78.969,31.859
		c47.855-2.278,85.269-33.169,83.565-68.995C517.336,201.439,477.159,174.241,429.303,176.519z"/>
	<text transform="matrix(1 0 0 1 349.5498 237)"><tspan x="0" y="0" font-family="'Gungsuh'" font-size="14">먹을거 조금만 주세요 형님</tspan><tspan x="23.331" y="16.8" font-family="'Gungsuh'" font-size="14">아내와 아이들 모두</tspan><tspan x="32.669" y="33.6" font-family="'Gungsuh'" font-size="14"> 굶고 있습니다..</tspan></text>
</g>
</svg>
