<?xml version="1.0" encoding="utf-8"?>
<!-- Generator: Adobe Illustrator 16.0.0, SVG Export Plug-In . SVG Version: 6.00 Build 0)  -->
<!DOCTYPE svg PUBLIC "-//W3C//DTD SVG 1.1//EN" "http://www.w3.org/Graphics/SVG/1.1/DTD/svg11.dtd">
<svg version="1.1" id="Layer_1" xmlns="http://www.w3.org/2000/svg" xmlns:xlink="http://www.w3.org/1999/xlink" x="0px" y="0px"
	 width="960px" height="560px" viewBox="0 0 960 560" enable-background="new 0 0 960 560" xml:space="preserve">
<symbol  id="Grass_4" viewBox="-22.384 -11.915 44.766 23.829">
	<g>
		<path fill="#00A73C" d="M8.129-5.523L9.65-6.459c0,0-0.352,14.745,0.584,18.373C10.234,11.914,7.66,4.775,8.129-5.523z"/>
	</g>
	<g>
		<path fill="#00A73C" d="M11.406-5.289l1.168,0.818c0,0-0.232,11.587,0.234,12.757C12.809,8.286,11.055-0.373,11.406-5.289z"/>
	</g>
	<g>
		<path fill="#00A73C" d="M1.133-10.627l-1.316,0.818c0,0,0.263,11.588-0.264,12.757C-0.447,2.948,1.528-5.711,1.133-10.627z"/>
	</g>
	<g>
		<path fill="#7FBE26" d="M15.266-5.758l0.82,0.819l0.117,9.597C16.203,4.658,14.916-2.947,15.266-5.758z"/>
	</g>
	<g>
		<path fill="#009032" d="M6.373-5.758c0,0,0,9.595-1.053,11.938c0,0-0.002-9.012-0.352-10.768L6.373-5.758z"/>
	</g>
	<g>
		<path fill="#009032" d="M22.383-9.639c0,0,0,9.596-1.053,11.937c0,0-0.002-9.011-0.352-10.767L22.383-9.639z"/>
	</g>
	<g>
		<path fill="#009032" d="M13.16-7.279c0,0,1.053,6.904,3.861,8.66c0,0-3.043-6.084-2.691-9.596L13.16-7.279z"/>
	</g>
	<g>
		<path fill="#009032" d="M13.041-7.643c0,0,1.053,6.904,3.861,8.66c0,0-3.045-6.087-2.693-9.597L13.041-7.643z"/>
	</g>
	<g>
		<path fill="#7FBE26" d="M11.289-5.426c0,0,0.115,8.309-2.342,10.299c0,0,1.639-7.957,1.17-11.937L11.289-5.426z"/>
	</g>
	<g>
		<path fill="#00A73C" d="M6.139-7.981c0,0-0.35,9.479,1.17,13.341c0,0-0.584-12.755,0-14.979L6.139-7.981z"/>
	</g>
	<g>
		<path fill="#7FBE26" d="M4.028-4.059c0,0,0.116,6.553-0.585,9.127c0,0-0.117-9.946-0.82-12.756L4.028-4.059z"/>
	</g>
	<g>
		<path fill="#00A73C" d="M4.852-7.864c0,0-0.586,6.437-3.745,9.245c0,0,3.277-8.309,2.81-11L4.852-7.864z"/>
	</g>
	<g>
		<path fill="#00A73C" d="M20.74-6.166c0,0-0.586,6.437-3.744,9.246c0,0,3.275-8.31,2.809-11L20.74-6.166z"/>
	</g>
	<g>
		<path fill="#00A73C" d="M16.672-7.161c0,0-0.35,2.573,1.404,4.914c0,0-0.818-5.734-0.352-7.606L16.672-7.161z"/>
	</g>
	<g>
		<path fill="#009032" d="M15.951-8.623c0,0,0,7.52,2.063,10.309c0,0-1.578-9.581-1.092-13.22L15.951-8.623z"/>
	</g>
	<g>
		<path fill="#7FBE26" d="M2.725-6.342c0,0-1.254,10.488-1.911,11.486c0,0,0.835-10.928,0.316-12.982L2.725-6.342z"/>
	</g>
	<g>
		<path fill="#7FBE26" d="M11.949-7.896c0,0,0.848,8.854,2.063,11.401c0,0-0.486-7.157-0.486-9.098L11.949-7.896z"/>
	</g>
	<g>
		<path fill="#7FBE26" d="M18.135-8.381c0,0,0.848,8.854,2.063,11.399c0,0-0.486-7.155-0.486-9.096L18.135-8.381z"/>
	</g>
	<g>
		<path fill="#7FBE26" d="M7.219-5.834c0,0,1.336,10.309,0.365,13.705c0,0,1.939-10.188,0.971-15.525L7.219-5.834z"/>
	</g>
	<g>
		<path fill="#00A73C" d="M-19.223-6.074l-1.521-0.766c0,0,0.352,12.053-0.586,15.018C-21.33,8.178-18.756,2.344-19.223-6.074z"/>
	</g>
	<g>
		<path fill="#00A73C" d="M-10.869-5.669l1.168,1.044c0,0-0.232,14.781,0.234,16.274C-9.467,11.649-11.221,0.602-10.869-5.669z"/>
	</g>
	<g>
		<path fill="#00A73C" d="M-12.228-11.006l1.315,0.818c0,0-0.262,11.586,0.265,12.757C-10.647,2.569-12.623-6.092-12.228-11.006z"/>
	</g>
	<g>
		<path fill="#7FBE26" d="M-7.01-6.137l0.82,0.818l0.117,9.598C-6.072,4.279-7.359-3.328-7.01-6.137z"/>
	</g>
	<g>
		<path fill="#009032" d="M-17.469-6.137c0,0,0,9.596,1.055,11.935c0,0,0-9.009,0.351-10.765L-17.469-6.137z"/>
	</g>
	<g>
		<path fill="#009032" d="M0.107-10.019c0,0,0,9.595-1.053,11.937c0,0-0.002-9.011-0.352-10.767L0.107-10.019z"/>
	</g>
	<g>
		<path fill="#009032" d="M-9.115-7.658c0,0,1.053,6.904,3.861,8.66c0,0-3.043-6.086-2.691-9.597L-9.115-7.658z"/>
	</g>
	<g>
		<path fill="#7FBE26" d="M-22.383-5.805c0,0-0.115,8.309,2.342,10.297c0,0-1.639-7.956-1.172-11.936L-22.383-5.805z"/>
	</g>
	<g>
		<path fill="#00A73C" d="M-17.234-8.362c0,0,0.352,9.481-1.17,13.343c0,0,0.584-12.756,0-14.979L-17.234-8.362z"/>
	</g>
	<g>
		<path fill="#7FBE26" d="M-15.123-4.439c0,0-0.117,6.555,0.586,9.129c0,0,0.115-9.947,0.818-12.756L-15.123-4.439z"/>
	</g>
	<g>
		<path fill="#00A73C" d="M-1.535-6.545c0,0-0.586,6.436-3.744,9.245c0,0,3.275-8.309,2.809-11.001L-1.535-6.545z"/>
	</g>
	<g>
		<path fill="#00A73C" d="M-5.604-7.541c0,0-0.35,2.574,1.404,4.914c0,0-0.818-5.732-0.352-7.605L-5.604-7.541z"/>
	</g>
	<g>
		<path fill="#009032" d="M-6.324-9.003c0,0,0,7.518,2.063,10.309c0,0-1.578-9.581-1.093-13.221L-6.324-9.003z"/>
	</g>
	<g>
		<path fill="#7FBE26" d="M-13.82-6.722c0,0,1.254,10.487,1.912,11.485c0,0-0.836-10.928-0.316-12.98L-13.82-6.722z"/>
	</g>
	<g>
		<path fill="#7FBE26" d="M-10.326-8.275c0,0,0.848,8.854,2.063,11.401c0,0-0.486-7.157-0.486-9.097L-10.326-8.275z"/>
	</g>
	<g>
		<path fill="#7FBE26" d="M-4.141-8.762c0,0,0.848,8.855,2.063,11.402c0,0-0.486-7.158-0.486-9.098L-4.141-8.762z"/>
	</g>
	<g>
		<path fill="#7FBE26" d="M-18.314-6.215c0,0-1.336,10.309-0.365,13.706c0,0-1.939-10.189-0.969-15.525L-18.314-6.215z"/>
	</g>
	<g>
		<path fill="#009032" d="M-12.26-8.023c0,0-1.054,6.905-3.861,8.66c0,0,3.043-6.084,2.691-9.596L-12.26-8.023z"/>
	</g>
	<g>
		<path fill="#00A73C" d="M-5.549-8.244c0,0-0.586,6.436-3.745,9.246c0,0,3.277-8.309,2.81-11.001L-5.549-8.244z"/>
	</g>
</symbol>
<symbol  id="Trees_1" viewBox="-41.326 -55.933 82.59 111.745">
	<g>
		<g>
			<g>
				<g>
					<path fill="#035649" d="M-20.757-51.691c0,0-0.895,12.675-0.634,14.744c0.256,2.066,0.256,5.99,0.256,5.99l0.564,5.287
						c0,0,0.467,2.982,0.158,3.688c-0.306,0.709-0.565,2.566-0.565,2.566s-0.289,5.092-0.238,6.244
						c0.049,1.152-0.526,4.795-0.526,4.795l-0.325,2.939c0,0-0.1,0.621-0.031,2.232c0.043,0.979,0.207,7.073-0.498,6.412
						c-0.705-0.662-1.081-7.787-1.081-7.787s-0.282-0.68-0.173-2.07c0.11-1.391,0.223-2.664,0.223-2.664l-0.138-4.207l0.736-6.498
						l0.02-3.466l-0.318-7.376c0,0-0.822-7.354-0.684-8.051c0.141-0.699-1.128-11.867-1.128-11.867S-24.592-52.238-20.757-51.691z"
						/>
					<path fill="#90543B" d="M-21.122-51.602c0,0-1.088,11.379-1.014,13.068l1.313,14.877l-0.562,2.639l-0.318,8.328
						c0,0-0.073,3.545-0.396,3.865c-0.326,0.322-0.603,4.338-0.577,4.953c0,0,0.054,3.846-0.204,3.088
						c-0.259-0.76-0.33-5.066-0.252-5.84c0.078-0.771,0.106-2.775,0.078-3.391c-0.024-0.613-0.31-1.988-0.117-2.768
						c0.192-0.775,1-8.201,0.841-9.271s-0.071-4.307-0.071-4.307s-0.768-9.975-0.798-10.74c-0.034-0.77-0.11-5.83-0.292-6.762
						c-1.648-8.47-1.712-7.197,0.542-7.74C-21.389-51.977-21.122-51.602-21.122-51.602z"/>
					<g>
						<path fill="#035649" d="M-3.638-22.863l-1.177,1.436c1.341-0.211-0.314,1.246-0.314,1.246
							c-1.098,0.664-1.378-0.021-1.44,0.523c-0.125,1.044-2.517,2.18-1.959,1.624c-0.325,0.323-0.719,0.958-0.719,0.958
							s-0.473,0.135-1.23,0.82c-0.085,0.075-0.162,0.102-0.235,0.109l-0.275,1.145c0,0,0.887-0.347,1.224-0.36
							c0.337-0.015,0.291-1.089,0.826-1.729c0.535-0.639,0.756-0.801,0.756-0.801l-0.128,2.313c0,0,1-0.353,1.084-0.972
							c0.088-0.619,1.495-1.91,1.495-1.91l-0.807,2.191l1.203-0.824c0,0,0.3-0.938,1.086-0.972c0.787-0.034-0.504,1.407-0.504,1.407
							s-1.607,1.918-2.705,2.582c-0.696,0.42-3.034,1.684-7.463,2.896l0.026,0.329c0,0-0.426,1.301-1.702,1.691l-0.085,0.256
							l0.283,0.354c0,0,0.45-0.02,0.886-0.348c0.436-0.324,0.839-1.42,0.839-1.42l0.854,1.502l0.984-0.658
							c0,0-0.257-0.76,0.291-1.091c0.55-0.332,0.723,1.044,0.723,1.044s0.41-0.939,0.713-1.723c0.305-0.781,0.192,1.84,0.192,1.84
							l0.733-1.262c-0.026-0.617,0.86-0.963,0.86-0.963l-0.476,2.021l1.296-1.285c0.985-0.66,0.581,0.436,0.581,0.436l1.296-1.287
							c1.786-0.388-0.702,2.028-0.702,2.028l-1.313,0.827c0.674-0.029,1.486,0.555,0.377,0.907c-1.113,0.356-2.143-0.06-2.143-0.06
							c-0.648,0.643-4.545,1.736-4.545,1.736c-0.765,0.033-0.798,0.734-1.269,0.613c0.037,0.855-0.693,1.374-1.089,1.898
							c0.82,0,1.528-0.057,1.724-0.232C-15.045-4.513-14.39-5-14.39-5l-0.727,1.416l0.351,0.293c0,0,0.443-0.174,0.971-0.967
							c0.529-0.794,1.535-0.989,1.535-0.989l-0.933,1.888l1.112-0.357c0,0,0.747-0.955,1.527-1.143
							c0.779-0.189-0.721,1.57-0.721,1.57l0.977-0.813c0.88-0.5,0.801,0.273,0.801,0.273l-1.944,1.931l-3.003,0.901
							c-1.336,0.364-5.265,3.307-5.265,3.307s-0.093,0.174-0.154,0.593l1.974-0.229l0.628,1.512c0,0,0.749-0.955,1.058-1.584
							c0.312-0.629,1.211-0.668,1.211-0.668l-0.594,1.873c0,0,0.436-0.328,1.196-0.977c0.759-0.648,1.436-0.676,1.436-0.676
							l-1.178,1.434c0,0,0.555-0.178,1.786-0.385c1.229-0.205,0.699,0.586,0.13,0.457c-0.568-0.129-1.545,0.684-1.545,0.684
							s-1.074,1.276-2.19,1.479c-1.118,0.203-3.175,2.139-3.175,2.139s-1.841,3.025-1.682,4.096c0.157,1.07-0.72,2.957-0.72,2.957
							l-0.812-3.198l-0.601-1.828c-1.341-1.636-4.125-4.952-4.766-5.097c-0.854-0.195-2.956-1.949-2.956-1.949
							s0.675-0.031,1.19,0.178c0.517,0.209,1.885,0.611,1.885,0.611l-1.081-1.57c0,0,2.641-0.757,2.657,0.295
							c0.011,0.701,1.041,1.263,1.729,1.563c-0.27-0.673-0.283-1.619-0.282-1.896c-1.565-1.645-4.24-4.334-5.263-4.608
							C-31.305-2.881-33.5-4.172-33.5-4.172l-0.749-1.66c0,0,0.656-0.49,1.713,0.539l0.826,0.889l-1.216-2.102
							c0,0,0.906,0.113,1.271,0.715c0.362,0.6,0.825,0.889,0.825,0.889l-0.052-1.23l0.925,0.574l0.615,1.205l0.653-0.488
							l1.487,1.161c0.044-0.053,0.093-0.093,0.154-0.103l-0.589-1.385c-0.662-0.152-1.282-0.377-1.659-0.707
							c-1.172-1.027-2.843-3.264-2.843-3.264s-3.037-2.484-3.954-2.906c-0.92-0.423,0.396-1.248,1.462-0.064l1.402,1.172
							c0,0-1.078-1.495-0.629-1.513c0.446-0.019,1.421,1.63,1.421,1.63l1.62,1.007c0,0-0.769-2.12-0.305-1.833
							c0.462,0.289,1.209,1.951,1.209,1.951l0.696,0.381c-0.313-0.959-0.524-1.779-0.364-1.879c0.185-0.115,0.436,0.371,0.653,0.936
							c-0.017-0.797,0.02-1.637,0.284-1.178c0.006-0.016,0.013-0.033,0.022-0.047c0.367-0.539,1.275,2.613,1.275,2.613l0.348,0.834
							l0.32,0.199c0,0,0-0.023,0-0.062c-0.155-0.751-0.256-1.507-0.028-1.493c0.028,0.004,0.057,0.014,0.085,0.028
							c0.037-0.396,0.097-0.636,0.201-0.331c0.259,0.758,0.727,1.199,0.727,1.199l-0.162,0.822c0.004,0.006,0.009,0.014,0.011,0.02
							l0.675-1.789c0,0,0.425,0.543,0.377,1.375c0.041,0.127,0.085,0.26,0.127,0.395c0.104-0.539,0.097-1.195-0.175-1.957
							l-1.487-1.451l-2.953-1.609l-2.307-1.285c0,0,1.777,0.488,3.498,1.066c-0.291-0.34-0.575-0.701-0.766-1.01
							c-0.545-0.9-4.115-1.438-4.115-1.438s-2.251-1.289-3.641-2.152c-1.387-0.863-1.755-1.54-1.755-1.54l2.231,0.827l2.093,1.525
							l-0.038-0.923l2.251,1.287c-1.061-1.104-0.776-2.274,0.298-0.935c0.224,0.281,0.597,0.449,1.038,0.549
							c-0.152-0.504-0.205-1.045-0.137-1.433l-0.783-0.276c0,0-0.362-0.6-0.386-1.061c-0.019-0.461-0.852-0.213-0.852-0.213
							s-1.415-0.152-1.764-0.443c0.603,0.504-1.105-0.566-2.109-1.143c-0.384-0.221-0.141-0.301-1.292-0.867
							c0,0-2.815-1.848-1.148-1.729l-0.364-0.512c0,0-2.719-2.961-1.818-3c0.898-0.04,1.641,1.467,1.641,1.467
							s-0.502-1.209,0.39-1.402c0.893-0.191,1.871,1.612,1.871,1.612l1.415,1.478c0,0-1.131-2.721-0.224-2.605
							c0.766,0.096,0.631,1.658,1.189,2.299c0.097-0.275,0.384-0.463,0.891-0.428l-1.297-1.328c0,0-2.717-2.964-1.819-3
							c0.899-0.039,1.642,1.467,1.642,1.467s-0.505-1.209,0.391-1.402c0.892-0.191,1.87,1.613,1.87,1.613l1.415,1.479
							c0,0-1.13-2.723-0.225-2.609c0.907,0.115,0.549,2.286,1.572,2.549c1.027,0.264,2.185,0.982,2.185,0.982
							s-0.048-0.126-0.11-0.309c-0.149-0.008-0.295-0.07-0.427-0.225c-0.766-0.891-0.972-3.135-0.091-2.942l-0.888-2.038
							c0,0-1.869-4.535-1.287-4.563c0.58-0.022,1.115,2.263,1.115,2.263s-0.371-1.832,0.201-2.088
							c0.572-0.255,1.271,2.484,1.271,2.484l0.971,2.268c0,0-0.832-4.121-0.24-3.914c0.591,0.203,0.439,3.443,1.111,3.877
							c0.676,0.432,1.449,1.553,1.449,1.553s-0.667-3.666-0.264-2.758c0.402,0.906,1.351,4.326,1.713,4.313
							c0.362-0.018-0.653-5.053,0.968-1.197c0.319,0.76,0.551,1.328,0.722,1.76c0.142-0.67,0.473-0.502,0.473-0.502l1.067-0.318
							c0,0,0.145-0.582,0.655-2.452c0.644-2.353,0.848-1.987,0.939-1.112l0.195-0.073l0.386,1.101
							c0.173-0.746,0.357-1.736,0.544-2.303c0.337-1.008,0.263,1.479,0.263,1.479s-0.181,0.314,0.337-0.014
							c0.516-0.326,0.555-2.168,1.002-2.236c0.444-0.068-0.133,3.002-0.133,3.002l0.815-2.537c0,0,0.634-3.225,1.044-2.717
							c0.413,0.506,0.063,2.689,0.063,2.689s0.492-2.701,0.92-2.484c0.306,0.156-0.403,2.789-0.838,4.289
							c0.287,0.389,0.481,1.129,0.605,1.84c0.02-0.01,0.041-0.027,0.063-0.037c0.703-0.271,0.996-2.947,1.599-3.012
							c0.32-0.035,0.388,0.66,0.385,1.32c0.185,0.166,0.377,0.398,0.554,0.641l0.28-0.227c0,0,0.29-2.479,0.833-2.092
							c0.544,0.389,0.018,2.111,0.018,2.111s0.729-2.137,1.302-1.973c0.362,0.102-0.4,1.756-1.012,2.957l1.116-0.537
							c0,0,0.737-1.143,1.633-1.854c2.949-2.334,0.948,0.266,0.948,0.266l-1.577,1.732l1.004,0.143l1.291-1.73
							c2.563-2.083,0.743,1.023,0.743,1.023l-1.795,1.42l-2.058,2.295c-0.868,0.604-1.944,0.834-2.682,0.922
							c-0.086,0.189-0.233,0.402-0.42,0.615c-0.153,0.425-0.605,0.953-0.605,0.953c-0.356,0.171-0.736,0.316-1.121,0.441
							c0.145,1.562-1.421,1.842-1.013,1.261c-0.275,0.392-0.866,0.796-0.866,0.796s-0.674,0.049-0.765,0.727
							c-0.089,0.678-0.591,0.662-0.591,0.662l-1.146,0.658c0.082,0.191,0.164,0.378,0.24,0.572l1.597,0.361
							c0.085-0.184,0.433-0.701,1.484-2.035c2.135-2.711,1.046,0.725,1.604,0.699c0.564-0.025,1.702-2.383,2.237-3.021
							c0.536-0.641-0.145,1.854-0.145,1.854s1.089-0.818,2.089-1.171c0.999-0.35,0.457-2.479,1.35-2.673
							c0.894-0.191,0,2.617,0,2.617L-5.828-24c0,0,0.821-1.881,1.727-1.769c0.905,0.114,0.51,1.364,0.51,1.364
							s0.608-1.566,1.507-1.605C-1.184-26.049-3.638-22.863-3.638-22.863z"/>
					</g>
				</g>
				<path fill="#179164" d="M-17.287,5.912c0,0-2.375,0.73-2.74,2.006c-0.364,1.279-1.278,2.193-1.278,2.924l-0.182,2.191
					l-0.762-3.293l-1.43-1.271l-2.558-3.287l-2.737-1.279l2.191,0.73l-0.185-0.912c0,0,0.891,0.529,1.724,0.812l1.017,1.015
					c0,0,0.183-1.096,0.729-0.365l0.183,1.643c0,0,0.75,0.154,1.146,0.986l0.863-0.986c0,0-1.77-0.465-1.096-1.461l0.73-1.827
					c0,0,0.73-0.181,0.549,0.549c0,0,0.182,1.097,1.095,0.182c0,0,1.826-1.276,1.826-0.364l0.181,1.279l1.828-0.73l1.093,0.364
					L-17.287,5.912z"/>
				<path fill="#179164" d="M-21.83,0.074c0,0,2.35-0.37,1.803,0.543c0,0-0.913,1.277,1.095,0c0,0,2.557-2.191,3.833-2.191
					c0,0,2.924-0.365,3.653-1.279c0,0-1.46-0.182-2.19,0.186c-0.731,0.365-2.193,0.18-2.193,0.18s-0.546-1.459-1.825,0.549
					l-1.095,1.096c0,0-1.461-1.096-2.007,0C-21.306,0.252-21.83,0.074-21.83,0.074z"/>
				<path fill="#179164" d="M-26.054-0.114c0,0-0.163-2.276,0.649-1.595l1.438,1.877c0,0,2.069-0.527,1.087-0.951l-1.08-1.211
					l-1.18-1.771c0,0-0.83-1.326-0.548,0.367c0.283,1.689-0.549,0.545-0.549,0.545l-0.366-0.912l-0.545,0.912
					c0,0-1.096-1.46-1.645-0.729c0,0-1.276-1.826-1.276-0.731l-1.642-0.091l2.918,1.736C-28.792-2.668-26.782-2.303-26.054-0.114z"
					/>
				<path fill="#179164" d="M-25.871-16.363c0,0,1.827,0,2.192,1.459c0,0,0.547,1.465,0.729,0.551l0.913,0.547
					c0,0,0.104,2.422-1.135,1.025c-1.238-1.393,0.222,0.436,0.222,0.436l-1.643-0.914l0.183,1.461l-1.462-0.914l-1.46-1.277
					l-2.372-0.914c0,0-2.556-0.546-3.104-1.094c-0.549-0.547,0.365-0.547,0.365-0.547l1.46,0.364c0,0,1.279,0.73,1.279,0.183
					l0.237-1.742c0,0,1.039,0.646,1.403,1.56c0,0,1.28,2.007,1.28,0.911c0-1.094,0.911,0,0.911,0V-16.363z"/>
				<path fill="#179164" d="M-24.409-5.227c0,0,0.058-1.434-1.105-2.021c-1.16-0.588-1.088,0.379-1.088,0.379l-0.729-0.914
					l-0.912-1.641c0,0-0.226-0.574-0.206,0.625l-1.461-0.896l-0.891-1.008l0.185,1.459l-1.462-0.729c0,0,2.353,3.768,4.097,3.984
					c0,0,0.491-1.608,1.666-0.422c1.176,1.184-0.102,0.455-0.102,0.455v0.547l0.729-0.184L-24.409-5.227z"/>
				<path fill="#179164" d="M-17.473-12.164c0,0,2.008,0.914,3.287,0.365l4.381-1.826c0,0,2.01-0.729,2.74-1.279
					c0.729-0.546,1.095-0.546-1.826,0.186l-2.098-0.283l-0.822,0.648l-0.403-1.362l-1.058,1.726l-1.097-0.184
					c0,0-0.731,0.184-0.549,1.098L-17.473-12.164z"/>
				<path fill="#179164" d="M-14.186-7.234c0,0,3.835-0.73,4.565-1.643c0.729-0.912-1.217-0.371-1.217-0.371l-0.793-0.725h-0.73
					v1.096c0,0-0.729,0.549-1.825,0.549l-0.548-0.73l-0.731,0.909C-15.465-8.149-17.859-5.615-14.186-7.234z"/>
				<path fill="#179164" d="M-30.437-19.468l-0.546-0.73c0,0-1.825,0-2.374-0.182c-0.547-0.181-2.555-1.642-2.555-1.642
					l-1.645-1.645c0,0-3.285-2.191-1.096-1.28c2.191,0.915,3.834,2.011,3.834,2.011l-0.363-1.279l1.094,0.365l0.914-0.548
					c0,0,0.467,1.306,1.645,1.827c1.174,0.521,0.546,0.182,0.546,0.182l3.469,0.549c0,0-2.823-1.051-3.694-1.713l-3.609-3.398
					c0,0-0.911-2.01,1.827,0.73l1.645,0.545l-0.183-0.91c0,0,1.092,1.824,2.736,1.64c0,0,3.287,1.646,3.834,2.376l-0.182,1.274
					c0,0-0.193,0.89,1.271,0.811c0,0-2.003,0.765-2.823-0.296l-2.491-0.242c0,0-0.799,0.25-0.155,0.463c0,0,1.095,2.189,2.556,2.189
					c1.46,0-1.096,0-2.375-0.549L-30.437-19.468z"/>
				<g>
					<path fill="#179164" d="M-16.011-24.579l1.277,0.913l-1.643,1.096c-0.184,0.912-3.651,4.016-3.651,4.016
						c-0.729-2.555,0.365-1.462,1.461-1.825c1.094-0.364,0.181-2.19,0.181-2.19L-16.011-24.579z"/>
					<path fill="#179164" d="M-11.382-26.338l-1.524,1.94c0,0-3.104,0.183-3.653-0.549c-0.547-0.729,1.46-0.181,2.739-0.729
						c1.278-0.545,1.278-1.643,1.278-2.19c0-0.549-0.276-2.286,0.41-0.958c0,0,0.686,0.047,1.051-0.502s0.699,0.693,0.911-0.182
						C-10.17-29.508-10.224-27-11.382-26.338z"/>
				</g>
				<path fill="#179164" d="M-21.853-21.84c0,0,3.103-1.646,3.467-2.558c0,0,0.185-1.46,0.73-1.46c0.549,0,1.871,0.508,2.578-0.752
					l0.526-4.727c0,0-0.643-0.17-0.914,0.73c-0.269,0.902-1.664,1.008-1.664,1.008l-0.526-0.641l-0.365,1.277l-1.069-0.92
					l-0.391,2.746c0,0-0.364,0.73-0.911,0.914c-0.549,0.18-0.549,2.006-0.549,2.006S-23.132-23.485-21.853-21.84z"/>
				<path fill="#179164" d="M-23.861-22.021l-4.382-6.027l-1.278-3.287c0,0,0.914,0,1.644,1.461c0.73,1.46,0.182-1.277,1.096,0.549
					l1.277,0.911c0,0,1.278,0.915,1.644,2.925l0.912,0.18C-22.949-25.311-22.401-19.468-23.861-22.021z"/>
				<path fill="#179164" d="M-19.662-13.99c0,0,3.47,0.365,5.477-1.279c2.01-1.641,6.573-4.929,6.573-4.929l3.104-3.103
					l-3.286,1.826l0.685-0.93l-1.962,1.66l-1.827,0.184l-1.276,1.641c0,0-1.096,0.549-1.461-0.182c0,0-1.644,0-0.914,1.643
					l-2.371,0.914C-16.922-16.545-21.853-15.814-19.662-13.99z"/>
			</g>
			<g>
				<g>
					<path fill="#035649" d="M27.112-54.601c0,0,1.082,7.979,0.912,9.544c-0.171,1.563-0.171,4.537-0.171,4.537l-0.376,4
						c0,0-0.309,2.258-0.105,2.793c0.204,0.533,0.378,1.94,0.378,1.94s0.189,3.854,0.157,4.728
						c-0.035,0.873,0.349,3.631,0.349,3.631l0.216,2.225c0,0,0.066,0.469,0.021,1.689c-0.028,0.742-0.136,5.355,0.331,4.854
						c0.466-0.5,0.716-5.895,0.716-5.895s0.19-0.515,0.116-1.566c-0.073-1.053-0.149-2.018-0.149-2.018l0.093-3.186l-0.486-4.918
						l-0.015-2.624l0.21-5.584c0,0,0.546-5.566,0.455-6.095c-0.093-0.529,0.722-8.209,0.722-8.209S27.655-55.03,27.112-54.601z"/>
					<path fill="#90543B" d="M27.564-54.846c0,0,1.002,7.311,0.954,8.59l-0.874,11.262l0.373,1.998l0.213,6.303
						c0,0,0.048,2.681,0.263,2.925c0.215,0.245,0.402,3.283,0.381,3.751c0,0-0.032,2.91,0.139,2.334
						c0.171-0.57,0.219-3.832,0.165-4.416c-0.052-0.586-0.07-2.104-0.052-2.568s0.205-1.506,0.079-2.094
						c-0.127-0.588-0.665-6.209-0.559-7.02c0.104-0.811,0.048-3.26,0.048-3.26s0.509-7.551,0.532-8.131
						c0.02-0.584,0.809-8.982,0.984-9.674c0.176-0.689-0.24-0.082-1.275-0.365C27.897-55.496,27.564-54.846,27.564-54.846z"/>
					<g>
						<path fill="#035649" d="M39.937-35.553l-0.242,0.389c1.105-0.09-0.767,1.309-0.767,1.309
							c-0.764,0.428-0.602,0.488-0.857,0.653c-0.665,0.438-1.8,1.249-1.4,0.868C36.438-32.114,35.499-32,35.499-32
							s-0.555-0.188-0.567,0.16c-0.015,0.35-0.254,0.805-0.254,0.805l-0.521,0.209c0.046,0.293,0.011,0.701-0.091,1.084
							c0.295-0.076,0.541-0.201,0.69-0.416c0.711-1.014,0.903-0.131,0.198,0.711l1.495-0.977l-0.026,0.699l1.39-1.155l1.483-0.626
							c0,0-0.243,0.514-1.166,1.166c-0.924,0.654-2.418,1.629-2.418,1.629s-2.372,0.406-2.735,1.088
							c-0.123,0.236-0.312,0.508-0.507,0.762c1.144-0.436,2.322-0.807,2.322-0.807l-1.53,0.975l-1.961,1.219l-0.988,1.098
							c-0.181,0.576-0.181,1.063-0.112,1.471c0.028-0.098,0.054-0.195,0.08-0.287c-0.033-0.629,0.251-1.041,0.251-1.041l0.447,1.354
							c0.002-0.006,0.005-0.01,0.008-0.017l-0.107-0.62c0,0,0.312-0.334,0.481-0.91c0.07-0.23,0.113-0.04,0.136,0.268
							c0.021-0.012,0.037-0.033,0.055-0.035c0.151-0.012,0.084,0.56-0.018,1.133c0,0.025,0,0.045,0,0.045l0.212-0.152l0.232-0.631
							c0,0,0.604-2.387,0.846-1.979c0.006,0.011,0.008,0.023,0.015,0.035c0.175-0.348,0.2,0.289,0.188,0.893
							c0.146-0.428,0.313-0.797,0.435-0.711c0.107,0.077-0.034,0.699-0.242,1.424l0.463-0.289c0,0,0.495-1.258,0.804-1.475
							c0.307-0.217-0.203,1.387-0.203,1.387l1.076-0.76c0,0,0.647-1.252,0.944-1.238c0.3,0.016-0.416,1.146-0.416,1.146l0.931-0.887
							c0.705-0.896,1.579-0.271,0.971,0.047c-0.611,0.32-2.625,2.201-2.625,2.201s-1.113,1.692-1.892,2.471
							c-0.249,0.252-0.659,0.42-1.101,0.535l-0.391,1.051c0.041,0.006,0.073,0.034,0.102,0.076l0.988-0.881l0.434,0.371l0.409-0.913
							l0.614-0.435l-0.034,0.932c0,0,0.306-0.219,0.549-0.674c0.24-0.453,0.844-0.541,0.844-0.541l-0.811,1.592l0.55-0.672
							c0.702-0.781,1.138-0.41,1.138-0.41l-0.495,1.257c0,0-1.459,0.978-2.442,1.28c-0.679,0.205-2.457,2.24-3.495,3.485
							c0,0.21-0.008,0.923-0.186,1.434c0.457-0.224,1.14-0.65,1.146-1.182c0.013-0.794,1.768-0.224,1.768-0.224l-0.719,1.188
							c0,0,0.908-0.306,1.251-0.46c0.342-0.159,0.789-0.138,0.789-0.138s-1.396,1.331-1.961,1.476
							c-0.428,0.111-2.275,2.621-3.167,3.861l-0.397,1.383l-0.539,2.42c0,0-0.582-1.427-0.479-2.236
							c0.106-0.813-1.118-3.102-1.118-3.102s-1.364-1.465-2.108-1.62c-0.742-0.151-1.453-1.118-1.453-1.118s-0.649-0.616-1.027-0.52
							c-0.378,0.1-0.728-0.5,0.088-0.345c0.816,0.159,1.186,0.292,1.186,0.292l-0.782-1.088c0,0,0.45,0.023,0.952,0.513
							c0.508,0.493,0.797,0.739,0.797,0.739l-0.396-1.416c0,0,0.598,0.029,0.804,0.504c0.207,0.479,0.706,1.201,0.706,1.201
							l0.415-1.145l1.313,0.174c-0.042-0.318-0.104-0.451-0.104-0.451s-2.609-2.226-3.498-2.502l-1.992-0.682l-1.293-1.461
							c0,0-0.052-0.586,0.531-0.209l0.651,0.617c0,0-0.999-1.332-0.479-1.192c0.518,0.146,1.014,0.866,1.014,0.866l0.738,0.271
							l-0.62-1.427c0,0,0.668,0.148,1.02,0.748c0.351,0.6,0.645,0.731,0.645,0.731l0.234-0.222l-0.484-1.072
							c0,0,0.435,0.369,0.793,0.738c0.134,0.135,0.604,0.176,1.147,0.176c-0.264-0.396-0.748-0.791-0.724-1.438
							c-0.313,0.095-0.334-0.437-0.842-0.462c0,0-2.587-0.828-3.017-1.314c0,0-0.687,0.314-1.424,0.047
							c-0.738-0.273-0.198-0.711,0.249-0.689l-0.875-0.625c0,0-1.649-1.83-0.464-1.54l0.86,0.978c0,0-0.269-0.83,0.387-0.332
							l0.861,0.977l-0.316-1.531c0,0,0.588,0.262,0.571,0.728l0.486,0.956c0,0-0.074-1.984,0.128-1.391
							c0.202,0.59,0.476,1.305,0.476,1.305s0.113-1.043,0.479-0.793c0.363,0.252,0.192,0.826,0.192,0.826l0.653,0.498l0.567-1.14
							c0,0,0.268,0.831,0.56,1.079c0.288,0.248,0.587,0.262,0.587,0.262l0.188-0.266l-0.057-0.197
							c-0.848-0.295-1.134-1.277-1.134-1.277l0.02-0.25c-2.938-0.92-4.492-1.873-4.957-2.193c-0.729-0.503-1.797-1.954-1.797-1.954
							s-0.854-1.089-0.334-1.063c0.523,0.025,0.722,0.734,0.722,0.734l0.798,0.623l-0.535-1.661c0,0,0.938,0.981,0.994,1.45
							c0.057,0.466,0.719,0.734,0.719,0.734l-0.082-1.752c0,0,0.145,0.123,0.501,0.607c0.354,0.484,0.322,1.299,0.549,1.309
							c0.224,0.01,0.813,0.273,0.813,0.273l-0.185-0.867c-0.048-0.007-0.1-0.023-0.155-0.08c-0.504-0.521-0.819-0.626-0.819-0.626
							s-0.261-0.478-0.477-0.722c0.372,0.42-1.218-0.439-1.3-1.23c-0.042-0.411-0.229,0.107-0.956-0.396c0,0-1.102-1.103-0.21-0.941
							l-0.78-1.088c0,0-1.631-2.412-1.033-2.381c0.597,0.028,1.002,1.215,1.002,1.215s-0.264-0.945,0.338-1.033
							c0.602-0.087,1.147,1.338,1.147,1.338l0.853,1.208c0,0-0.595-2.128,0-1.979c0.591,0.144,0.231,1.758,0.894,2.023
							c0.665,0.268,1.39,0.885,1.39,0.885s-0.452-1.887-0.096-1.402c0.354,0.482,1.109,2.268,1.482,2.287s-0.351-2.582,1.067-0.53
							c0.699,1.011,0.931,1.403,0.984,1.542l1.062-0.273c0.053-0.146,0.104-0.29,0.161-0.434l-0.763-0.498
							c0,0-0.334,0.012-0.393-0.502c-0.06-0.514-0.509-0.549-0.509-0.549s-0.391-0.305-0.573-0.602
							c0.271,0.438-0.768,0.229-0.673-0.957c-0.257-0.095-0.507-0.203-0.743-0.334c0,0-0.3-0.397-0.402-0.719
							c-0.124-0.162-0.224-0.322-0.279-0.467c-0.491-0.068-1.203-0.24-1.782-0.699l-1.366-1.738l-1.19-1.072
							c0,0-1.21-2.352,0.492-0.775l0.857,1.311l0.665-0.111l-1.047-1.307c0,0-1.327-1.971,0.631-0.203
							c0.595,0.537,1.084,1.402,1.084,1.402l0.741,0.408c-0.404-0.912-0.911-2.162-0.67-2.24c0.379-0.123,0.863,1.494,0.863,1.494
							s-0.348-1.307,0.011-1.6c0.361-0.294,0.555,1.584,0.555,1.584l0.185,0.174c0.118-0.186,0.246-0.361,0.367-0.486
							c-0.003-0.5,0.046-1.025,0.258-1c0.399,0.047,0.595,2.076,1.062,2.279c0.014,0.008,0.028,0.021,0.042,0.029
							c0.082-0.539,0.21-1.098,0.4-1.395c-0.287-1.137-0.76-3.127-0.556-3.245c0.284-0.165,0.611,1.88,0.611,1.88
							s-0.232-1.652,0.039-2.035c0.275-0.383,0.696,2.054,0.696,2.054l0.541,1.921c0,0-0.385-2.322-0.088-2.271
							c0.294,0.05,0.321,1.445,0.665,1.693c0.343,0.248,0.224,0.01,0.224,0.01s-0.05-1.879,0.174-1.119
							c0.123,0.43,0.248,1.182,0.362,1.742l0.255-0.83l0.132,0.055c0.06-0.665,0.195-0.938,0.622,0.842
							c0.34,1.416,0.437,1.857,0.437,1.857l0.708,0.238c0,0,0.22-0.125,0.313,0.38c0.114-0.327,0.269-0.757,0.479-1.332
							c1.078-2.917,0.4,0.895,0.643,0.907c0.242,0.012,0.871-2.58,1.139-3.264c0.267-0.688-0.177,2.088-0.177,2.088
							s0.516-0.85,0.961-1.178c0.449-0.324,0.349-2.779,0.741-2.934c0.391-0.156-0.161,2.964-0.161,2.964l0.646-1.717
							c0,0,0.465-2.073,0.844-1.88s0.133,1.579,0.133,1.579s0.356-1.731,0.741-1.712s-0.854,3.453-0.854,3.453l-0.589,1.545
							c0.586-0.145,0.447,1.551-0.06,2.225c-0.089,0.118-0.186,0.166-0.285,0.174c-0.041,0.139-0.071,0.231-0.071,0.231
							s0.768-0.544,1.449-0.743c0.679-0.199,0.443-1.845,1.044-1.93c0.603-0.086-0.149,1.974-0.149,1.974l0.94-1.118
							c0,0,0.65-1.367,1.244-1.219c0.592,0.145,0.258,1.061,0.258,1.061s0.492-1.141,1.09-1.111
							c0.597,0.029-1.209,2.271-1.209,2.271l-0.86,1.006c0.334-0.027,0.521,0.113,0.589,0.318c0.371-0.486,0.284-1.664,0.792-1.736
							c0.604-0.088-0.148,1.973-0.148,1.973l0.941-1.119c0,0,0.647-1.367,1.243-1.219c0.593,0.145,0.258,1.061,0.258,1.061
							s0.492-1.141,1.09-1.111C41.74-37.793,39.937-35.553,39.937-35.553z"/>
					</g>
				</g>
				<path fill="#179164" d="M33.059-14.133l-1.816,0.967l-1.7,2.488l-0.95,0.962l-0.503,2.493l-0.121-1.658
					c0-0.553-0.608-1.242-0.85-2.211c-0.244-0.967-1.82-1.522-1.82-1.522l-1.454-0.825l0.727-0.277l1.215,0.551l0.118-0.967
					c0-0.691,1.215,0.277,1.215,0.277c0.605,0.689,0.727-0.139,0.727-0.139c-0.121-0.555,0.363-0.414,0.363-0.414l0.486,1.381
					c0.447,0.754-0.727,1.105-0.727,1.105l0.57,0.748c0.264-0.631,0.762-0.748,0.762-0.748l0.122-1.244
					c0.365-0.551,0.483,0.277,0.483,0.277l0.676-0.768c0.553-0.215,1.145-0.615,1.145-0.615l-0.122,0.692L33.059-14.133z"/>
				<path fill="#179164" d="M28.314-17.031c0,0-1.561-0.282-1.196,0.412c0,0,0.605,0.965-0.728,0c0,0-1.697-1.66-2.547-1.66
					c0,0-1.939-0.277-2.427-0.968c0,0,0.972-0.136,1.455,0.138c0.487,0.277,1.457,0.139,1.457,0.139s0.364-1.105,1.211,0.414
					l0.729,0.832c0,0,0.971-0.832,1.333,0C27.968-16.897,28.314-17.031,28.314-17.031z"/>
				<path fill="#179164" d="M31.119-17.174c0,0,0.108-1.721-0.43-1.207l-0.957,1.42c0,0-1.372-0.398-0.72-0.723l0.718-0.914
					l0.783-1.34c0,0,0.552-1.006,0.362,0.277c-0.187,1.279,0.366,0.413,0.366,0.413l0.239-0.69l0.365,0.69
					c0,0,0.728-1.105,1.09-0.552c0,0,0.851-1.383,0.851-0.554l1.087-0.069l-1.938,1.313C32.937-19.109,31.604-18.832,31.119-17.174z
					"/>
				<path fill="#179164" d="M28.196-20.17c0,0-0.793,0.313-1.078-0.117c-0.287-0.426-0.19-0.961-0.19-0.961l-0.666-0.963
					c0,0-0.57-0.428-0.476-0.855l0.381-0.107c0,0-0.286-0.318-0.097-0.748c0.191-0.428,0.383,0.107,0.383,0.107l0.378-0.855
					c0,0,0.097,0.215,0.097,0.643c0,0.427,1.045-0.535,1.045-0.535s0.192,0.119-0.331,0.699c-0.523,0.581,0.808-0.164,0.808-0.164
					s-0.103,0.857-0.438,0.825c-0.335-0.028,0.344,0.351,0.058,0.884l0.189,1.07L28.196-20.17z"/>
				<path fill="#179164" d="M30.997-29.475c0,0-1.21,0-1.455,1.105c0,0-0.364,1.104-0.484,0.416l-0.606,0.412
					c0,0-0.068,1.834,0.754,0.779s-0.147,0.328-0.147,0.328l1.091-0.691l-0.121,1.107l0.97-0.693l0.972-0.97l1.576-0.688
					c0,0,1.698-0.414,2.061-0.829c0.365-0.413-0.24-0.413-0.24-0.413l-0.97,0.277c0,0-0.851,0.551-0.851,0.136l-0.157-1.319
					c0,0-0.691,0.49-0.936,1.184c0,0-0.849,1.518-0.849,0.689c0-0.83-0.606,0-0.606,0V-29.475z"/>
				<path fill="#179164" d="M30.027-21.045c0,0-0.037-1.084,0.732-1.527c0.773-0.445,0.722,0.285,0.722,0.285l0.487-0.691
					l0.605-1.244c0,0,0.15-0.434,0.136,0.475l0.971-0.68l0.592-0.762l-0.122,1.105l0.971-0.553c0,0-1.562,2.854-2.723,3.014
					c0,0-0.325-1.213-1.104-0.318c-0.78,0.896,0.066,0.344,0.066,0.344v0.416l-0.484-0.139L30.027-21.045z"/>
				<path fill="#179164" d="M25.42-26.296c0,0-1.333,0.692-2.183,0.278l-2.909-1.385c0,0-1.336-0.551-1.819-0.967
					c-0.484-0.414-0.728-0.414,1.211,0.139l1.396-0.213l0.546,0.49l0.267-1.031l0.704,1.304l0.728-0.136c0,0,0.484,0.136,0.362,0.83
					L25.42-26.296z"/>
				<g>
					<polygon fill="#179164" points="24.57,-22.149 24.936,-22.287 25.54,-20.906 					"/>
					<path fill="#179164" d="M23.237-22.563c0,0-2.547-0.555-3.031-1.244c-0.486-0.693,0.81-0.281,0.81-0.281l0.523-0.549h0.486
						v0.83c0,0,0.484,0.412,1.212,0.412l0.364-0.552l0.485,0.69C24.087-23.256,25.678-21.336,23.237-22.563z"/>
				</g>
				<path fill="#179164" d="M34.029-31.824l0.366-0.553c0,0,1.21,0,1.575-0.137c0.362-0.137,1.696-1.246,1.696-1.246l1.092-1.244
					c0,0,2.186-1.659,0.727-0.965c-1.454,0.691-2.547,1.519-2.547,1.519l0.243-0.966l-0.728,0.275l-0.605-0.414
					c0,0-0.312,0.988-1.093,1.381c-0.779,0.393-0.36,0.139-0.36,0.139l-2.306,0.412c0,0,1.874-0.793,2.454-1.293l2.395-2.574
					c0,0,0.607-1.52-1.212,0.551l-1.092,0.416l0.121-0.689c0,0-0.727,1.381-1.819,1.244c0,0-2.182,1.242-2.544,1.795l0.121,0.967
					c0,0,0.128,0.672-0.847,0.613c0,0,1.33,0.577,1.877-0.225l1.656-0.184c0,0,0.528,0.188,0.102,0.352c0,0-0.728,1.654-1.698,1.654
					c-0.97,0,0.728,0,1.576-0.412L34.029-31.824z"/>
				<path fill="#179164" d="M27.118-31.133c0,0-2.304-2.35-2.425-3.041l-1.092-0.83l0.848-0.689l1.576,1.52
					c0,0-0.605,1.383,0.122,1.66C26.874-32.238,27.602-33.069,27.118-31.133z"/>
				<path fill="#179164" d="M22.389-35.555c0,0,2.061,0.139,2.426-0.414c0.363-0.555-0.971-0.139-1.82-0.555
					c-0.849-0.416-0.849-1.245-0.849-1.658c0-0.412,0.184-1.733-0.273-0.727c0,0-0.455,0.037-0.696-0.379
					c-0.242-0.414-0.466,0.522-0.607-0.139c0,0,0.037,1.9,0.806,2.402L22.389-35.555z"/>
				<path fill="#179164" d="M28.329-33.623c0,0-2.061-1.243-2.304-1.932c0,0-0.122-1.108-0.485-1.108
					c-0.362,0-1.241,0.386-1.711-0.566l-0.35-3.579c0,0,0.428-0.129,0.607,0.553c0.178,0.686,1.106,0.762,1.106,0.762l0.347-0.484
					l0.245,0.969l0.71-0.697l0.259,2.078c0,0,0.242,0.553,0.605,0.689c0.364,0.141,0.364,1.523,0.364,1.523
					S29.178-34.866,28.329-33.623z"/>
				<path fill="#179164" d="M29.665-33.76l2.909-4.561l0.85-2.488c0,0-0.606,0-1.093,1.107c-0.484,1.107-0.12-0.969-0.728,0.414
					l-0.849,0.693c0,0-0.85,0.689-1.09,2.209l-0.607,0.138C29.058-36.247,28.694-31.824,29.665-33.76z"/>
				<path fill="#179164" d="M26.874-27.681c0,0-2.304,0.278-3.637-0.964c-1.333-1.244-4.366-3.732-4.366-3.732l-2.061-2.35
					l2.182,1.381l-0.452-0.702l1.302,1.257l1.214,0.141l0.849,1.242c0,0,0.728,0.412,0.968-0.14c0,0,1.093,0,0.607,1.245
					l1.576,0.691C25.056-29.611,28.329-29.061,26.874-27.681z"/>
			</g>
			<g>
				<g>
					<path fill="#035649" d="M2.06-54.198c0,0,2.218,15.31,1.764,18.933C3.367-31.645,3.37-24.765,3.37-24.765l-0.996,9.267
						c0,0-0.821,5.227-0.279,6.464c0.542,1.238,0.998,4.497,0.998,4.497S3.6,4.389,3.512,6.408s0.928,8.404,0.928,8.404l0.572,5.152
						c0,0,0.175,1.088,0.054,3.916c-0.074,1.713-0.362,12.396,0.88,11.235c1.239-1.161,1.903-13.647,1.903-13.647
						s0.497-1.191,0.305-3.627c-0.192-2.438-0.394-4.674-0.394-4.674l0.246-7.375L6.71-5.597l-0.036-6.071l0.56-12.93
						c0,0,1.449-12.888,1.202-14.113C8.192-39.936,9.35-52.973,9.35-52.973S8.996-57.17,2.06-54.198z"/>
					<path fill="#90543B" d="M3.546-54.198c0,0,1.715,13.192,1.587,16.153L2.818-11.969l0.99,4.631L4.369,7.253
						c0,0,0.13,6.214,0.699,6.778c0.571,0.564,1.061,7.602,1.015,8.678c0,0-0.093,6.742,0.362,5.411
						c0.454-1.327,0.581-8.878,0.442-10.234c-0.142-1.354-0.187-4.864-0.142-5.94c0.049-1.078,0.548-3.484,0.21-4.85
						C6.617,5.734,5.195-7.282,5.475-9.158c0.278-1.877,0.127-7.549,0.127-7.549S6.95-34.188,7.01-35.535
						c0.057-1.349,0.045-10.251,0.512-11.85c0.465-1.6,1.328-7.77-1.423-8.429C3.348-56.471,3.546-54.198,3.546-54.198z"/>
					<g>
						<path fill="#035649" d="M35.422-13.262l-0.646,0.898c2.938-0.205-2.021,3.032-2.021,3.032c-2.029,0.993-1.6,1.132-2.275,1.517
							c-1.77,1.012-4.78,2.889-3.717,2.004c-0.616,0.511-3.11,0.776-3.11,0.776S22.185-5.469,22.15-4.66
							c-0.036,0.809-0.676,1.861-0.676,1.861l-1.381,0.481c0.124,0.681,0.028,1.63-0.241,2.511c0.778-0.175,1.436-0.469,1.831-0.962
							c1.889-2.347,2.395-0.302,0.522,1.644l3.97-2.258l-0.07,1.614l3.688-2.673l3.933-1.449c0,0-0.648,1.186-3.094,2.701
							c-2.446,1.512-6.416,3.771-6.416,3.771s-6.291,0.941-7.252,2.517c-0.33,0.544-0.828,1.172-1.341,1.767
							C18.651,5.855,21.783,5,21.783,5l-4.067,2.253l-5.199,2.823l-2.623,2.543c-0.479,1.336-0.489,2.488-0.308,3.432
							c0.072-0.231,0.145-0.457,0.217-0.674c-0.095-1.469,0.671-2.43,0.671-2.43l1.188,3.137c0.005-0.012,0.015-0.023,0.02-0.037
							l-0.288-1.439c0,0,0.829-0.773,1.282-2.104c0.184-0.534,0.291-0.109,0.356,0.581c0.048-0.026,0.098-0.044,0.149-0.046
							c0.399-0.025,0.223,1.298-0.051,2.621c0,0.058,0,0.102,0,0.102l0.563-0.35l0.614-1.46c0,0,1.599-5.531,2.246-4.585
							c0.016,0.023,0.025,0.054,0.038,0.08c0.47-0.82,0.531,0.666,0.501,2.067c0.385-0.987,0.826-1.841,1.153-1.638
							c0.281,0.176-0.09,1.61-0.643,3.291l1.224-0.668c0,0,1.316-2.912,2.133-3.416s-0.536,3.217-0.536,3.217l2.855-1.769
							c0,0,1.712-2.895,2.505-2.86c0.792,0.035-1.107,2.652-1.107,2.652l2.471-2.051c1.876-2.078,4.194-0.629,2.576,0.108
							c-1.622,0.741-6.968,5.099-6.968,5.099s-2.949,3.919-5.011,5.719c-0.665,0.58-1.757,0.97-2.928,1.238l-1.033,2.428
							c0.108,0.016,0.195,0.087,0.271,0.182l2.618-2.039l1.154,0.859l1.084-2.114l1.629-1.007L20.45,20.9
							c0,0,0.816-0.504,1.457-1.557c0.64-1.049,2.236-1.25,2.236-1.25l-2.143,3.684l1.457-1.557
							c1.862-1.809,3.018-0.947,3.018-0.947l-1.316,2.91c0,0-3.869,2.26-6.479,2.959c-1.8,0.48-6.516,5.191-9.271,8.074
							c0.003,0.487-0.025,2.146-0.495,3.324c1.21-0.525,3.022-1.512,3.042-2.74c0.033-1.846,4.685-0.518,4.685-0.518l-1.904,2.753
							c0,0,2.412-0.708,3.322-1.073c0.908-0.363,2.097-0.313,2.097-0.313s-3.704,3.078-5.209,3.418
							c-1.13,0.254-6.032,6.068-8.398,8.936l-1.056,3.203L4.06,55.813c0,0-1.544-3.305-1.264-5.182
							c0.279-1.878-2.967-7.176-2.967-7.176s-3.624-3.396-5.592-3.751c-1.97-0.354-3.857-2.595-3.857-2.595
							s-1.727-1.424-2.729-1.197c-1.002,0.226-1.933-1.164,0.235-0.799c2.165,0.363,3.144,0.674,3.144,0.674l-2.074-2.518
							c0,0,1.188,0.05,2.53,1.189c1.339,1.137,2.108,1.71,2.108,1.71l-1.05-3.284c0,0,1.585,0.07,2.134,1.169
							c0.549,1.104,1.865,2.78,1.865,2.78l1.106-2.648l3.479,0.398c-0.11-0.733-0.276-1.037-0.276-1.037s-6.921-5.154-9.275-5.797
							l-5.29-1.576l-3.427-3.387c0,0-0.14-1.355,1.409-0.48l1.725,1.424c0,0-2.645-3.083-1.27-2.754
							c1.374,0.332,2.69,2.007,2.69,2.007l1.959,0.622l-1.644-3.307c0,0,1.771,0.346,2.703,1.736
							c0.933,1.386,1.712,1.693,1.712,1.693l0.62-0.516l-1.282-2.482c0,0,1.154,0.857,2.108,1.709
							c0.348,0.309,1.594,0.408,3.037,0.408c-0.699-0.917-1.984-1.829-1.919-3.329c-0.829,0.216-0.886-1.015-2.236-1.073
							c0,0-6.863-1.914-8.005-3.043c0,0-1.818,0.73-3.775,0.107c-1.957-0.625-0.523-1.643,0.664-1.592l-2.319-1.449
							c0,0-4.383-4.237-1.234-3.561l2.282,2.256c0,0-0.71-1.918,1.026-0.765l2.284,2.257l-0.84-3.543c0,0,1.563,0.607,1.515,1.684
							l1.295,2.217c0,0-0.201-4.598,0.338-3.225c0.535,1.371,1.26,3.023,1.26,3.023s0.301-2.418,1.268-1.834
							c0.968,0.58,0.514,1.91,0.514,1.91l1.736,1.154l1.503-2.635c0,0,0.71,1.92,1.48,2.494c0.77,0.57,1.562,0.605,1.562,0.605
							l0.495-0.617l-0.141-0.43c-2.265-0.678-3.009-2.984-3.009-2.984l0.048-0.574c-7.804-2.132-11.923-4.342-13.151-5.08
							c-1.933-1.162-4.768-4.521-4.768-4.521s-2.27-2.527-0.886-2.469c1.389,0.061,1.912,1.703,1.912,1.703l2.122,1.439
							l-1.424-3.838c0,0,2.482,2.263,2.636,3.35c0.151,1.088,1.91,1.703,1.91,1.703l-0.221-4.057c0,0,0.385,0.285,1.327,1.406
							c0.945,1.121,0.863,3.006,1.456,3.031c0.596,0.025,2.158,0.633,2.158,0.633l-0.484-2.006c-0.13-0.018-0.268-0.06-0.413-0.193
							c-1.339-1.206-2.171-1.443-2.171-1.443s-0.696-1.109-1.268-1.672c0.984,0.971-3.23-1.016-3.448-2.848
							c-0.115-0.953-0.608,0.243-2.544-0.921c0,0-2.913-2.554-0.549-2.181l-2.075-2.519c0,0-4.322-5.584-2.739-5.515
							c1.586,0.07,2.657,2.812,2.657,2.812s-0.698-2.187,0.898-2.388c1.596-0.201,3.041,3.098,3.041,3.098l2.243,2.773
							c0-0.008,0.002-0.015,0.005-0.02c-0.136-0.436-1.482-4.865,0.011-4.545c1.574,0.34,0.619,4.076,2.378,4.693
							c1.761,0.613,3.686,2.045,3.686,2.045s-1.203-4.369-0.258-3.248c0.943,1.121,2.949,5.255,3.939,5.297
							c0.987,0.043-0.934-5.977,2.83-1.227c1.854,2.335,2.467,3.246,2.615,3.568l2.813-0.637c0.137-0.334,0.279-0.668,0.423-0.998
							l-2.02-1.154c0,0-0.492,0.146-0.651-1.042C-5.744-8.25-6.683-8.34-6.683-8.34s-0.246-0.961-0.73-1.645
							c0.725,1.023-2.284-1.381-3.09-2.033c-0.725-0.227-1.436-0.498-2.106-0.822c0,0-1.056-1.215-1.148-1.991
							c-0.411-0.304-0.809-0.585-1.152-0.823c-1.257-0.195-2.884-0.615-4.233-1.551l-3.626-4.021l-3.158-2.486
							c0,0-3.209-5.445,1.304-1.793l2.276,3.031l1.769-0.252l-2.781-3.033c0,0-3.524-4.559,1.672-0.467
							c1.579,1.242,2.879,3.245,2.879,3.245l1.967,0.946c-1.076-2.111-2.42-5.01-1.783-5.188c1.011-0.283,2.295,3.461,2.295,3.461
							s-0.925-3.024,0.03-3.703c0.956-0.68,1.468,3.669,1.468,3.669l0.489,0.396c0.319-0.424,0.659-0.832,0.979-1.119
							c-0.006-1.158,0.118-2.379,0.682-2.318c1.062,0.113,1.573,4.808,2.816,5.281c0.036,0.014,0.072,0.037,0.112,0.053
							c0.219-1.243,0.553-2.548,1.058-3.232c-0.766-2.631-2.012-7.225-1.474-7.498c0.756-0.384,1.625,4.351,1.625,4.351
							s-0.618-3.825,0.107-4.713c0.725-0.889,1.843,4.759,1.843,4.759l1.432,4.449c0,0-1.016-5.38-0.231-5.262
							c0.786,0.119,0.857,3.35,1.766,3.924c0.911,0.572,0.594,0.023,0.594,0.023s-0.13-4.357,0.462-2.59
							c0.331,0.988,0.656,2.727,0.959,4.031l0.68-1.924l0.345,0.12c0.162-1.531,0.521-2.167,1.656,1.958
							c0.899,3.273,1.151,4.299,1.151,4.299l1.883,0.553c0,0,0.58-0.295,0.832,0.881c0.3-0.758,0.71-1.757,1.273-3.084
							c2.855-6.758,1.063,2.072,1.703,2.097c0.64,0.028,2.31-5.972,3.019-7.56s-0.466,4.838-0.466,4.838s1.367-1.968,2.554-2.723
							c1.187-0.76,0.919-6.436,1.961-6.795c1.041-0.362-0.425,6.861-0.425,6.861l1.71-3.976c0,0,1.233-4.802,2.238-4.354
							c1.008,0.449,0.356,3.658,0.356,3.658s0.941-4.008,1.964-3.965c1.025,0.045-2.267,7.997-2.267,7.997l-1.565,3.577
							c1.554-0.338,1.191,3.592-0.158,5.154c-0.232,0.269-0.489,0.379-0.753,0.395c-0.11,0.322-0.192,0.543-0.192,0.543
							s2.041-1.262,3.847-1.725c1.806-0.462,1.176-4.266,2.771-4.466c1.597-0.202-0.395,4.569-0.395,4.569l2.493-2.59
							c0,0,1.724-3.164,3.297-2.826c1.574,0.338,0.688,2.457,0.688,2.457s1.305-2.641,2.89-2.572
							c1.585,0.067-3.204,5.256-3.204,5.256l-2.284,2.332c0.894-0.063,1.396,0.263,1.566,0.75c0.983-1.125,0.749-3.863,2.099-4.033
							c1.597-0.201-0.396,4.57-0.396,4.57l2.493-2.591c0,0,1.724-3.161,3.298-2.825c1.572,0.335,0.687,2.457,0.687,2.457
							s1.306-2.641,2.889-2.572C40.211-18.453,35.422-13.262,35.422-13.262z"/>
					</g>
				</g>
				<path fill="#179164" d="M1.23,32.068l-5.111-2.92c0,0-4.141-2.191-5.114-2.436c0,0-4.381-1.703-2.677-1.703l-2.334-1.279
					c0,0-0.344-0.911,0.63-0.424l2.434,1.461h1.461c0,0-2.19-1.948-0.974-1.705c1.217,0.244,2.434,1.217,2.434,1.217l1.217,0.244
					l-0.43-1.311l1.403,0.58l2.437,0.486l1.459,1.704l-1.945,0.243c0,0-0.733,1.217,1.457,1.947
					C-0.23,28.903,3.421,33.284,1.23,32.068z"/>
				<path fill="#179164" d="M2.447,39.859c0,0,1.461,1.217,2.19,2.922c0.73,1.703,1.947-1.462,1.947-1.462s2.896-1.724,1.447,0.599
					l3.667-3.032L6.342,44.97c0,0-1.218,2.923-1.461,4.14s0,3.408-1.46-0.244L0.5,43.023l-1.948-1.947c0,0-3.166-1.459-4.383-1.947
					c-1.217-0.486-3.407-2.678-3.407-2.678s-0.243-1.947,1.217-0.244c1.461,1.705,2.19,1.461,2.19,1.461l0.974-0.244l1.95,1.219
					L0.5,39.617c0,0-0.974-1.949,0-1.463C1.474,38.643,2.447,39.859,2.447,39.859z"/>
				<path fill="#179164" d="M4.495,31.584c0,0,0.143-2.436,2.09-2.924c1.947-0.486-0.243,1.852-0.243,1.852l2.015-0.721
					c0,0,4.005-2.248,2.822-0.959c-1.187,1.288-2.518,3.129-2.518,3.129s-2.764,1.777-1.566,0.334
					c1.194-1.444-2.827,0.285-2.827,0.285L4.495,31.584z"/>
				<path fill="#179164" d="M12.186,27.931c0,0,4.382-2.921,6.085-3.407c1.704-0.487,5.111-1.949,5.599-2.68
					c0.486-0.729,1.384-1.393-0.245-0.729c-1.623,0.662-2.433,0.973-2.433,0.973l1.217-1.947l-2.434,2.191l-0.487-1.461
					l-1.217,2.191l-1.947-0.73l-2.435,2.191l-5.356,2.189l0.243,1.218C8.775,27.931,12.67,24.768,12.186,27.931z"/>
				<path fill="#179164" d="M6.964,20.939c0,0-4.372-0.457-4.021,0.761l-0.627-1.675l-1.467,0.611l-1.713-0.611
					c0,0,0-1.371,0.486-0.76l1.47-0.154c0,0-1.47-0.152-1.956-1.219c-0.489-1.066,0.979,0,0.979,0l-0.979-1.524
					c0,0-0.489-1.067,1.223,0.304c1.713,1.373,0.49-1.22,0.49-1.22s0.489-0.913,0.978,0.153c0.489,1.066,1.468,0.763,2.446,0.152
					c0.979-0.607,2.202-3.352,1.957-1.372l-1.034,1.968c0,0,2.259-1.357,2.259-1.968c0-0.608,1.466,0.306-0.49,2.136
					c0,0,1.713,0.457,0.244,1.371L6.401,18.84l1.296-0.488c0,0,0.116,0.412-1.223,1.064l-0.489,0.916
					C5.985,20.332,8.736,19.361,6.964,20.939z"/>
				<path fill="#179164" d="M-3.15,18.191l-3.167-2.677l-1.461,0.729c0,0-2.19-2.434-2.434-1.459
					c-0.243,0.973,3.651,3.406,3.651,3.406H-3.15z"/>
				<path fill="#179164" d="M-10.942,16.487l-3.164-1.946l-1.46-1.704l-0.73,0.974l-2.677-2.19c0,0-2.438,0,0,1.704
					C-16.542,15.027-10.942,16.487-10.942,16.487z"/>
				<path fill="#179164" d="M-15.81,14.785c0,0-4.628,0.973-2.193-0.486L-15.81,14.785z"/>
				<path fill="#179164" d="M-8.021,8.699c0,0-6.571-1.217-7.302-1.947s-4.383-1.947-1.95-1.947h4.628l8.275,4.139L-8.021,8.699z"/>
				<path fill="#179164" d="M-3.395,8.699l-11.441-8.521c0,0-2.192-0.73-2.681-1.703c-0.486-0.973-2.921-0.973-3.164-2.191
					l-0.73-1.946c0,0-1.864-0.038-2.92-1.218l-0.487-1.703l-3.164-3.654c0,0,0-0.729,1.947,0.73c0,0-1.218-4.381,1.947,0.243
					l2.677,2.681c0,0-0.243-3.408,0.487-1.947l1.218,1.947l3.896,1.703l1.217,0.488l0.243-0.975l1.947,2.921l1.217,5.112
					c0,0,1.704,1.459,2.921,1.217c1.217-0.245,0.973,1.702,0.973,1.702s6.089,1.95,3.168,2.192l-1.95-0.242
					C-6.074,5.535-0.474,10.646-3.395,8.699z"/>
				<path fill="#179164" d="M3.319,8.515L0.106,6.336c0,0-1.514-0.738,0.17-0.8c1.682-0.062,0.529-0.138,0.529-0.138L0.175,4.432
					c0,0-2.896-1.697-1.919-1.574c0.974,0.123,1.106-0.102,1.106-0.102L-2.03,1.045c0,0-1.39-1.713-0.322-1.238l-0.77-1.496
					c0,0-0.368-1.414,0.837-0.408l1.745,1.621l-1.323-3.62c0,0-0.367-1.411,0.892,0.524c1.261,1.936,1.269,2.688,1.269,2.688
					L0.119-5.176c0,0,0.698-0.939,1.077,1.229L1.663-1.43c0,0,1.384,0.959,1.499-0.77c0.114-1.729,0.997-1.959,0.675,1.145
					L3.546,0.723c0,0,2.312-3.438,1.46-0.193c0,0,0.659-0.361,0.022,2.256c0,0,1.401,0.688,0.954,2.205L5.535,6.508
					c0,0-1.818-2.246-2.018-0.119l1.706,2.196c0,0-1.337-0.783-0.653,1.114c0,0-2.313-0.906-2.08-0.023l-1.43-1.137
					C1.061,8.539,0.913,7.256,3.319,8.515z"/>
				<path fill="#179164" d="M9.019,5.9c0,0,5.845-0.914,7.121-2.01c1.279-1.094,2.922-3.65,2.922-5.113c0,0-0.933-1.303-1.015-0.378
					l-0.993-1.81c0,0-0.73,0.912-0.914,1.641c-0.182,0.73-1.825-0.729-1.825-0.729s-0.913,0,0,2.008
					c0.914,2.008-0.532,1.088-1.279,0c-0.743-1.086-0.911-0.184-0.365,1.096c0.549,1.277-0.546,1.643-0.546,1.643
					s-1.826-2.191-1.461-0.914s0.545,1.463,0.545,1.463s-0.18,1.459-1.274,1.823C8.838,4.986,9.019,5.9,9.019,5.9z"/>
				<path fill="#179164" d="M9.203,9.002c0,0,2.19-1.094,2.374-1.824c0.182-0.73-0.914-0.547-0.914-0.547L9.203,9.002z"/>
				<path fill="#179164" d="M12.67,8.092c0,0,3.104-0.184-0.182,1.095c-3.285,1.276-1.644,0-1.644,0L12.67,8.092z"/>
				<path fill="#179164" d="M5.475-9.158c0,0-7.41-0.461-9.233-2.834c-1.829-2.375-4.384-10.59-4.384-10.59l-0.547-4.383
					c0,0,0.547-2.373,0.911,0.364c0,0,1.947,4.233,2.615,3.212c0,0,0.631-1.717,1.475,1.006c0.841,2.723-0.255-0.383-0.255-0.383
					l0.73-0.548c0,0,0.365-3.103,1.277,1.097l1.644-1.097l-0.182,5.661c0,0,0.73,6.025,1.096,4.746c0,0,0.545-4.199,1.095-2.922
					c0.547,1.279,0.364,3.471,0.364,3.471s2.191-2.01,2.374,0.182l-0.731,0.911l2.01,0.367l-0.548,0.729L5.475-9.158z"/>
				<path fill="#179164" d="M-21.167-20.514c0,0,2.13,3.651,3.65,3.895c1.522,0.244,3.818-0.278,4.314,1.169
					c0.494,1.45,1.043,1.752,2.26,2.239c1.218,0.486,3.65,2.68,3.65,2.68s1.948,2.922,1.461,0.486c0,0-0.729-3.41-2.19-4.141
					c-1.46-0.729-1.703,0-1.703,0l-0.974-3.406c0,0-1.219-0.73-0.974,0.729c0.243,1.46-1.461-3.407-1.461-3.407
					s-1.703,0.244-1.217,1.703C-13.863-17.105-16.542-21-16.542-21l-2.188-0.486c0,0,0.486,1.461,0.971,2.19
					c0.486,0.729-1.739-1.692-3.164-2.435c-1.424-0.744-2.921-0.973-3.895-2.436C-24.818-24.166-23.113-21.486-21.167-20.514z"/>
				<path fill="#179164" d="M10.479-6.334c0,0,10.771-5.112,12.965-6.936c2.19-1.827,5.659-4.933,5.659-4.933
					s0.182-0.729-1.824,0.731c0,0,2.188-2.375,0.911-2.738c0,0-1.096,1.643-3.65,3.652c-2.556,2.008-3.105,1.096-3.105,1.096
					l0.365-2.01c0,0-1.095,2.374-3.104,3.65c0,0,0.366,1.096-1.276,2.01C15.774-10.897,10.479-6.334,10.479-6.334z"/>
				<path fill="#179164" d="M19.792-7.065c0,0,6.573,0.915,10.224-1.458l5.295-5.662l2.372-2.736c0,0,0-0.184-2.007,1.643
					l-1.095,0.549c0,0,0.549-2.557,0-1.645c0,0-1.645,1.645-2.739,3.834c-1.096,2.191-2.191,1.825-2.191,1.825h-1.825
					c0,0,1.643-2.92,1.46-3.833c-0.182-0.912-1.095,2.191-1.095,2.191l-1.825,2.373l-3.651,0.73L21.8-8.16
					c0,0-4.183,1.043-5.104,1.984L19.792-7.065z"/>
				<path fill="#179164" d="M19.609,2.432c0,0,4.381,0,5.111-0.549l2.374-1.462L25.27,0.787l-0.184-0.73l-2.737,1.277
					c0,0-0.914,0-0.364-0.913l-1.098,0.366l-2.373,2.01l-0.729,0.73L19.609,2.432z"/>
				<path fill="#179164" d="M9.749-14.186c0,0,0.549-3.832,1.279-4.381c0.73-0.545,3.651-3.104,3.286-2.008
					s-1.461,3.104-1.461,3.104L9.749-14.186z"/>
				<path fill="#179164" d="M15.409-21.305c0,0-0.365-2.922,0.73-4.016c1.095-1.096,1.825-3.469,1.825-3.469
					s0.914,0.182,0.549,1.643L15.409-21.305z"/>
			</g>
		</g>
	</g>
</symbol>
<rect x="-17" y="-10" fill="#3FA9F5" width="977" height="584"/>
<g>
	<path fill="#FFFFFF" d="M297.832,86.813c0,8.593-4.059,11.279-23.179,17.011c-10.959,3.286-23.214,7.368-38.181,9.055
		c-12.401,1.398-25.484-2.042-39.596-2.042c-14.111,0-26.979,1.551-39.379,0.153c-14.967-1.687-30.527,6.429-41.487,3.144
		c-19.12-5.731-35.241-18.727-35.241-27.32s19.711-9.616,38.83-15.347c10.959-3.286,21.477-20.018,36.443-21.706
		c12.401-1.398,26.722-4.105,40.834-4.105c14.111,0,26.48,20.015,38.88,21.413c14.968,1.688,30.044-7.583,41.004-4.297
		C295.88,68.503,297.832,78.22,297.832,86.813z"/>
</g>
<g>
	<path fill="#FFFFFF" d="M774.102,87.268c0,6.896-6.731,9.945-24.067,13.463c-10.008,2.031-21.364,4.12-34.226,4.12
		c-12.86,0-23.93-3.506-33.937-5.538c-17.335-3.518-26.474-5.148-26.474-12.045s7.615-16.035,24.95-19.554
		c10.007-2.031,22.6-3.56,35.46-3.56c12.861,0,24.019,8.602,34.026,10.633C767.171,78.306,774.102,80.372,774.102,87.268z"/>
</g>
<g>
	<polygon fill="#4D4D4D" points="345.864,234.437 447.409,238.885 444.1,303.168 340.116,305.464 	"/>
	<polygon fill="#808080" points="454.369,283.588 453.631,300.975 681.653,316.219 682.421,283.51 	"/>
	<polyline fill="#CCCCCC" points="221.843,232.595 333.428,232.428 329.115,301.767 221.369,308.826 	"/>
	<g id="XMLID_1_">
		<g>
			<path d="M738.771,144.244l7.142,18.045l-0.181,0.086c0.014-0.104,0.027-0.201,0.041-0.304l-1.393-0.098l-0.146-0.224
				l-6.766-17.087l-16.185-22.103l-17.563-17.184c-1.296-0.815-22.379-14.125-37.602-25.191
				c-15.446-11.227-60.935-15.508-61.388-15.548L567.38,63.11h-32.71l-63.38,1.722h-52.274l-88.19,3.444h-0.522
				c-3.95,0-25.144,0.362-54.559,7.284c-30.83,7.255-99.274,66.946-104.723,71.727l2.223,3.421l-0.731,0.31
				c-0.216-0.281-0.418-0.563-0.627-0.844c-0.341-0.477-0.676-0.936-1.003-1.372l-0.341,0.178l-1.212-1.883l0.334-0.298
				c2.982-2.64,73.371-64.731,105.698-72.341c29.596-6.968,50.958-7.33,54.942-7.33c0.334,0,0.502,0,0.502,0l88.175-3.444h52.288
				l63.379-1.722h32.767l37.428,1.533c1.923,0.172,46.421,4.362,62.195,15.83c15.599,11.335,37.371,25.042,37.587,25.179
				l0.111,0.086l17.711,17.339l16.296,22.252L738.771,144.244z"/>
			<path d="M745.772,162.071c-0.014,0.104-0.027,0.201-0.041,0.304l-1.491,0.689c0.056-0.356,0.104-0.724,0.14-1.091
				L745.772,162.071z"/>
			<path d="M744.24,163.064l1.491-0.689c-1.533,13.287-11.872,19.732-12.318,20.002l-0.188,0.086l-31.094,8.799l-0.195-0.471v-0.006
				c0.007-0.229,0.015-0.453,0.021-0.688l30.711-8.69C733.608,180.794,742.533,174.704,744.24,163.064z"/>
			<path d="M744.233,161.75l0.146,0.224c-0.035,0.367-0.084,0.735-0.14,1.091l-2.773,1.286l-0.258-0.046
				c-0.194-0.035-20.1-3.622-37.009-3.622c-0.146,0.012-19.152,1.056-31.554,1.435c-12.388,0.379-39.19,1.992-39.455,2.009h-21.884
				l-18.205,0.189l-0.09-0.029c-0.202-0.046-20.003-4.419-24.12-5.171c-1.282-0.235-3.547-0.384-6.724-0.384
				c-4.696,0-9.754,0.229-9.803,0.229h-0.091l-14.889-2.296h-22.922l-35.093-0.958l-107.739-0.763
				c-6.486-0.258-38.821-1.579-40.716-2.354c0-0.005-0.049-0.023-0.188-0.023c-1.714,0-6.918,2.571-9.789,4.19l-0.167,0.098
				l-18.791,0.385l-27.903-0.764l-50.776-3.845l-5.407-1.114l-9.252,1.906l-13.6-1.544l-10.13-0.758l-11.761,0.746
				c-0.223-0.281-0.432-0.563-0.641-0.849l0.731-0.31l11.684-0.74l10.276,0.769l13.363,1.521l9.329-1.923l5.692,1.171l50.574,3.822
				l27.827,0.764l18.337-0.379c1.337-0.746,7.831-4.293,10.402-4.293c0.313,0,0.585,0.046,0.815,0.144
				c1.561,0.528,24.858,1.63,40.13,2.233l107.726,0.763l35.086,0.958h23.04l14.84,2.388c0.704-0.034,5.413-0.27,9.803-0.27
				c3.281,0,5.644,0.132,7.022,0.384c3.999,0.729,22.602,4.821,24.086,5.148l18.023-0.189h21.835
				c0.223-0.017,27.046-1.63,39.455-2.009c12.387-0.379,31.372-1.435,31.561-1.435c0.007,0,0.014,0,0.014,0
				c16.046,0,34.669,3.18,37.086,3.604L744.233,161.75z"/>
			<path fill="#9E6332" d="M741.467,164.35l2.773-1.286c-1.707,11.64-10.632,17.729-11.572,18.343l-30.711,8.69
				c0.16-5.986,0.355-11.961,0.62-17.913l0.027-0.666l-0.927,0.081c-0.285,0.028-0.62,0.051-0.954,0.161
				c-4.459-0.012-8.987-0.006-13.446,0.011l-0.467-0.023c0,0.006,0,0.018,0,0.023c-1.338,0.006-2.676,0.012-3.999,0.018
				c-30.628,0.12-62.3,0.241-92.238-5.923l-0.104-0.017c-9.726-0.764-19.862-1.022-29.665-1.269
				c-4.933-0.132-10.033-0.258-14.959-0.454c-52.58-1.538-116.232-3.254-184.314-4.437l-0.25-0.425l-0.049,0.023l-0.014-0.023
				l-0.913,0.408h-0.007c-0.934-0.018-1.867-0.035-2.808-0.046c-0.529-0.012-1.066-0.023-1.602-0.029
				c-0.132-0.006-0.272-0.006-0.411-0.012c-0.195-0.005-0.383-0.005-0.558-0.011v-0.006l-1.505-0.069l-0.125,0.052
				c-5.079-0.086-10.186-0.167-15.313-0.241c-11.907-0.184-23.925-0.344-36.02-0.482l0.028-1.59l18.791-0.385l0.167-0.098
				c2.871-1.619,8.075-4.19,9.789-4.19c0.139,0,0.188,0.018,0.188,0.023c1.895,0.775,34.229,2.095,40.716,2.354l107.739,0.763
				l35.093,0.958h22.922l14.889,2.394h0.091c0.049-0.006,5.106-0.275,9.803-0.275c3.177,0,5.441,0.12,6.724,0.355
				c4.117,0.752,23.918,5.114,24.12,5.16l0.09,0.023l18.205-0.195h21.884c0.265-0.017,27.067-1.63,39.455-2.009
				c12.401-0.379,31.407-1.423,31.554-1.435c16.909,0,36.814,3.587,37.009,3.622L741.467,164.35z"/>
			<path fill="#F7AA63" d="M737.468,144.663l6.766,17.087l-2.982,1.389c-2.417-0.424-21.04-3.604-37.086-3.604c0,0-0.007,0-0.014,0
				c-0.188,0-19.174,1.056-31.561,1.435c-12.409,0.379-39.232,1.992-39.455,2.009h-21.835l-18.023,0.189
				c-1.484-0.327-20.087-4.419-24.086-5.148c-1.379-0.252-3.741-0.384-7.022-0.384c-4.39,0-9.099,0.235-9.803,0.27l-14.84-2.388
				h-23.04l-35.086-0.958l-107.726-0.763c-15.272-0.603-38.57-1.705-40.13-2.233c-0.23-0.097-0.501-0.144-0.815-0.144
				c-2.571,0-9.064,3.547-10.402,4.293l-18.337,0.379l-27.827-0.764l-50.574-3.822l-5.692-1.171l-9.329,1.923l-13.363-1.521
				l-10.276-0.769l-11.684,0.74l-2.223-3.421c5.448-4.781,73.893-64.472,104.723-71.727c29.415-6.922,50.609-7.284,54.559-7.284
				h0.522l88.19-3.444h52.274l63.38-1.722h32.71l37.351,1.527c0.453,0.04,45.941,4.322,61.388,15.548
				c15.223,11.066,36.306,24.376,37.602,25.191l17.563,17.184L737.468,144.663z"/>
			<path d="M702.604,171.519l-0.027,0.666c-0.265,5.952-0.46,11.927-0.62,17.913l-0.279,0.075v0.005l0.258,0.608v0.006
				c-0.878,33.571-0.32,67.497,0.237,100.488c0.132,8.047,0.265,16.065,0.383,24.077l-1.394-0.017
				c-0.118-8.007-0.25-16.088-0.383-24.135c-0.655-38.857-1.324-78.868,0.369-118.471c-0.042,0-0.083,0-0.125,0H700.8l-2.592,0.109
				l0.091,0.058c-3.386-0.006-6.793,0-10.172,0.012c0.028-0.368,0.049-0.735,0.077-1.102l-0.927-0.041
				c4.459-0.017,8.987-0.023,13.446-0.011c0.334-0.109,0.669-0.132,0.954-0.161L702.604,171.519z"/>
			<path d="M701.957,190.098c-0.007,0.235-0.015,0.459-0.021,0.688l-0.258-0.608L701.957,190.098z"/>
			<path d="M688.204,171.812c-0.028,0.367-0.049,0.734-0.077,1.102c-0.46,0.005-0.927,0.005-1.394,0.005
				c0.028-0.379,0.049-0.763,0.077-1.148c0.153,0,0.307,0,0.467,0L688.204,171.812z"/>
			<path d="M686.733,172.919c0.467,0,0.934,0,1.394-0.005c-1.122,17.374-2.229,35.131-3.31,52.316
				c-0.718,11.485-1.442,23.119-2.188,34.799L681.968,260v-0.023l0.021-1.125v-0.046l-0.669-0.057
				c0.014-0.241,0.027-0.477,0.042-0.718c0.041-0.648,0.083-1.286,0.125-1.917c0.111-1.739,0.223-3.461,0.335-5.309
				c0.027-0.459,0.056-0.93,0.083-1.412c0.028-0.431,0.056-0.855,0.084-1.28h0.021l-0.007-0.138v-0.051h0.007l-0.007-0.046
				c0.48-7.646,0.954-15.164,1.429-22.706C684.504,208.005,685.612,190.275,686.733,172.919z"/>
			<path d="M687.277,171.771c-0.16,0-0.313,0-0.467,0c0-0.005,0-0.017,0-0.023L687.277,171.771z"/>
			<path d="M686.811,171.771c-0.028,0.385-0.049,0.769-0.077,1.148c-1.31,0.006-2.619,0.012-3.915,0.018
				c-30.697,0.115-62.433,0.241-92.53-5.946c-9.663-0.758-19.766-1.016-29.526-1.269c-4.939-0.126-10.047-0.252-14.979-0.448
				c-26.085-0.763-54.9-1.573-85.633-2.336c-3.26-0.081-6.549-0.161-9.858-0.241c-28.056-0.677-57.597-1.314-88.036-1.842
				l-0.752-1.165c0.007,0,0.021,0,0.028,0c68.083,1.182,131.734,2.898,184.314,4.437c4.926,0.195,10.026,0.321,14.959,0.454
				c9.803,0.247,19.939,0.505,29.665,1.269l0.104,0.017c29.938,6.164,61.61,6.043,92.238,5.923
				C684.135,171.783,685.473,171.777,686.811,171.771z"/>
			<path fill="#F4DFD0" d="M686.733,172.919c-1.121,17.356-2.229,35.086-3.302,52.253c-0.475,7.542-0.948,15.061-1.429,22.706
				l0.007,0.046h-0.007l-0.063-0.958l-39.448,1.549l-7.183,9.717l-99.023-1.309l-55.98-0.741l-0.927-8.879l-5.665-5.361
				l-16.609-1.842l4.41-76.331l-1.394-0.051l0.028-0.781c30.732,0.763,59.548,1.573,85.633,2.336
				c4.933,0.195,10.04,0.321,14.979,0.448c9.761,0.252,19.863,0.511,29.526,1.269c30.098,6.187,61.833,6.061,92.53,5.946
				C684.114,172.931,685.424,172.925,686.733,172.919z"/>
			<path d="M681.968,260l0.662,0.029c-0.313,5.022-0.634,10.056-0.961,15.089L681,275.089l0.021-1.148l-0.438-0.006l-0.237-0.005
				c0.307-4.649,0.6-9.304,0.898-13.941L681.968,260z"/>
			<path d="M682.003,247.975l0.007,0.138h-0.021C681.996,248.067,681.996,248.021,682.003,247.975z"/>
			<path d="M682.003,247.924v0.051c-0.007,0.046-0.007,0.092-0.014,0.138h-0.015c0.008-0.063,0.008-0.126,0.015-0.189H682.003z"/>
			<path d="M681.94,246.965l0.063,0.958h-0.014c-0.007,0.063-0.007,0.126-0.015,0.189l-38.681,1.516l-6.368,8.626l-1.616-0.023
				l7.183-9.717L681.94,246.965z"/>
			<path d="M681.989,248.113c-0.028,0.425-0.056,0.85-0.084,1.28c0.021-0.419,0.049-0.844,0.069-1.28H681.989z"/>
			<path d="M681.989,258.852l-0.021,1.125h-0.725c0.021-0.373,0.049-0.757,0.07-1.136L681.989,258.852z"/>
			<path fill="#999999" d="M643.294,249.628l38.681-1.516c-0.021,0.437-0.048,0.861-0.069,1.28
				c-0.027,0.482-0.056,0.953-0.083,1.412c-0.112,1.768-0.224,3.536-0.335,5.309c-0.042,0.631-0.084,1.269-0.125,1.917
				c-0.015,0.235-0.035,0.477-0.049,0.718h0.007c0,0.029-0.007,0.063-0.007,0.092l-44.388-0.585L643.294,249.628z"/>
			<path d="M681.968,259.977V260l-0.725-0.011c0-0.006,0-0.006,0-0.012H681.968z"/>
			<path d="M681,275.089l0.669,0.029c-0.822,12.742-1.666,25.49-2.536,38.093l-1.394-0.063c0.585-8.432,1.149-16.927,1.714-25.438
				c0.432,0.012,0.683,0.018,0.711,0.018l0.041-1.148c-0.097,0-0.334-0.005-0.676-0.017c0.251-3.822,0.495-7.651,0.746-11.485
				L681,275.089z"/>
			<path d="M681.362,258.031c-0.015,0.241-0.028,0.477-0.042,0.718h-0.007C681.327,258.507,681.348,258.266,681.362,258.031z"/>
			<path d="M681.313,258.84c-0.021,0.379-0.049,0.763-0.07,1.136c0,0.006,0,0.006,0,0.012l-44.958-0.591l0.007-0.287l0.634-0.855
				L681.313,258.84z"/>
			<path fill="#999999" d="M681.243,259.988c-0.299,4.637-0.592,9.292-0.898,13.941v0.005l-52.824-0.855
				c1.818-6.543,0.613-11.881,0.034-13.798l8.73,0.115L681.243,259.988z"/>
			<path d="M681.021,273.941L681,275.089l-0.725-0.011c0.021-0.379,0.049-0.764,0.069-1.143h0.237L681.021,273.941z"/>
			<path d="M680.345,273.935c-0.021,0.379-0.049,0.764-0.069,1.143l-52.971-0.85l0.014-0.448c0.069-0.235,0.14-0.465,0.202-0.7
				L680.345,273.935z"/>
			<path fill="#999999" d="M680.275,275.078c-0.251,3.834-0.495,7.663-0.746,11.485c-5.838-0.138-44.771-0.965-56.781,1.556
				c-2.48,0.521-10.541,0.774-21.891,0.849c-20.553,0.138-51.884-0.321-80.366-0.866h0.941v-4.735l-4.181-6.313v-4.597l19.014,0.304
				l91.039,1.469L680.275,275.078z"/>
			<path d="M680.205,286.579l-0.041,1.148c-0.028,0-0.279-0.006-0.711-0.018c0.021-0.379,0.049-0.763,0.076-1.147
				C679.871,286.574,680.108,286.579,680.205,286.579z"/>
			<path d="M679.529,286.563c-0.027,0.385-0.056,0.769-0.076,1.147c-5.748-0.132-44.708-0.924-56.364,1.521
				c-2.466,0.517-10.13,0.786-20.922,0.878l0.076-0.459l-1.379-0.161l-0.007-0.522c11.35-0.074,19.41-0.327,21.891-0.849
				C634.759,285.598,673.691,286.425,679.529,286.563z"/>
			<polygon points="636.926,258.255 636.292,259.11 635.101,258.513 635.31,258.232 			"/>
			<path d="M636.292,259.11l-0.007,0.287l-8.73-0.115c-0.132-0.448-0.229-0.712-0.25-0.763l-1.324,0.35
				c0,0.005,0.049,0.143,0.133,0.39l-89.632-1.188c-0.111-0.419-0.188-0.677-0.202-0.729l0.007-0.419l99.023,1.309l-0.209,0.281
				L636.292,259.11z"/>
			<path d="M627.555,259.282c0.579,1.917,1.784,7.255-0.034,13.798l-1.429-0.023c1.944-6.755,0.488-12.312,0.021-13.798
				L627.555,259.282z"/>
			<path d="M627.555,259.282l-1.441-0.023c-0.084-0.247-0.133-0.385-0.133-0.39l1.324-0.35
				C627.325,258.57,627.423,258.834,627.555,259.282z"/>
			<path d="M627.521,273.08c-0.063,0.235-0.133,0.465-0.202,0.7l-1.352-0.281c0.042-0.149,0.083-0.292,0.125-0.442L627.521,273.08z"
				/>
			<path d="M627.318,273.78l-0.014,0.448l-91.039-1.469l0.014-0.442c0.076-0.235,0.146-0.471,0.209-0.7l89.604,1.44
				c-0.042,0.149-0.083,0.293-0.125,0.442L627.318,273.78z"/>
			<path fill="#999999" d="M626.113,259.259c0.467,1.486,1.923,7.042-0.021,13.798l-89.604-1.44
				c1.645-5.883,0.494-11.565-0.007-13.545L626.113,259.259z"/>
			<path d="M602.243,289.65l-0.076,0.459c-0.467,0-0.934,0.006-1.407,0.012l0.104-0.632L602.243,289.65z"/>
			<path d="M602.167,290.109l-2.759,16.197l-1.38-0.155l2.731-16.03C601.233,290.115,601.7,290.109,602.167,290.109z"/>
			<path d="M600.857,288.967l0.007,0.522l-0.104,0.632c-2.634,0.017-5.441,0.022-8.389,0.022c-22.649,0-53.82-0.511-80.895-1.062
				l-1.422-1.051l0.007-0.138c3.268,0.063,6.605,0.133,9.978,0.195v0.012h0.452C548.974,288.646,580.305,289.104,600.857,288.967z"
				/>
			<path d="M536.481,258.071c0.501,1.98,1.651,7.662,0.007,13.545l-1.429-0.023c1.742-5.963,0.411-11.933-0.014-13.54
				L536.481,258.071z"/>
			<path d="M536.488,271.617c-0.063,0.229-0.133,0.465-0.209,0.7l-1.352-0.287c0.049-0.149,0.091-0.293,0.132-0.436L536.488,271.617
				z"/>
			<path d="M536.481,258.071l-1.436-0.018c-0.069-0.264-0.111-0.413-0.118-0.419l1.352-0.292
				C536.293,257.394,536.37,257.652,536.481,258.071z"/>
			<path d="M536.286,256.923l-0.007,0.419l-1.352,0.292c0.007,0.006,0.049,0.155,0.118,0.419l-78.917-1.044l0.063-1.148
				l22.713,0.304l0.028,0.31l1.393-0.098l-0.021-0.195L536.286,256.923z"/>
			<path d="M536.279,272.317l-0.014,0.442l-19.014-0.304v-0.425h-1.394v0.402l-60.412-0.976l0.028-1.147l79.585,1.286
				c-0.041,0.143-0.083,0.287-0.132,0.436L536.279,272.317z"/>
			<path fill="#999999" d="M535.046,258.054c0.425,1.607,1.756,7.577,0.014,13.54l-79.585-1.286l-0.118-0.006l0.773-13.293
				L535.046,258.054z"/>
			<path d="M521.433,283.365v4.735h-0.941c-0.152,0-0.299-0.006-0.452-0.012v-4.437l-4.181-6.313v-4.907l1.394,0.023v4.597
				L521.433,283.365z"/>
			<path d="M520.491,288.101h-0.452v-0.012C520.192,288.095,520.339,288.101,520.491,288.101z"/>
			<path fill="#999999" d="M520.039,283.652v4.437c-3.372-0.063-6.71-0.132-9.978-0.195c-28.021-0.573-51.333-1.176-55.646-1.291
				l0.941-16.3l0.118,0.006l-0.028,1.147l60.412,0.976v4.907L520.039,283.652z"/>
			<polygon points="517.252,272.03 517.252,272.455 515.858,272.432 515.858,272.03 			"/>
			<path d="M514.465,291.286v6.096l-2.132,4.872l-1.31-0.39l2.048-4.678v-5.384l-3.748-2.767c0.711,0.018,1.429,0.028,2.153,0.046
				L514.465,291.286z"/>
			<path d="M511.477,289.082c-0.725-0.018-1.442-0.028-2.153-0.046l-0.202-0.149l0.934-0.855L511.477,289.082z"/>
			<path d="M510.062,287.894l-0.007,0.138l-0.934,0.855l0.202,0.149c-27.437-0.568-50.247-1.165-54.97-1.291l0.063-1.143
				C458.729,286.718,482.04,287.32,510.062,287.894z"/>
			<polygon points="480.306,256.183 480.326,256.378 478.933,256.476 478.905,256.166 			"/>
			<polygon points="479.379,247.304 480.306,256.183 478.905,256.166 478.027,247.774 473.004,243.022 457.035,241.249 
				457.105,240.101 473.714,241.943 			"/>
			<polygon fill="#999999" points="478.027,247.774 478.905,256.166 456.192,255.861 457.035,241.249 473.004,243.022 			"/>
			<polygon points="461.515,163.77 457.105,240.101 456.966,240.083 456.785,241.22 457.035,241.249 456.192,255.861 
				455.475,255.855 454.799,255.827 460.122,163.719 			"/>
			<polygon points="457.105,240.101 457.035,241.249 456.785,241.22 456.966,240.083 			"/>
			<polygon points="456.192,255.861 456.129,257.009 455.454,257.003 455.475,255.855 			"/>
			<path d="M456.129,257.009l-0.773,13.293l-0.941,16.3c-0.404-0.012-0.648-0.018-0.704-0.023l-0.049,1.148
				c0.153,0.006,0.383,0.012,0.69,0.018l-0.725,12.575l-1.394-0.052l2.564-44.441l0.676,0.028l-0.021,1.148L456.129,257.009z"/>
			<path d="M454.416,286.603l-0.063,1.143c-0.307-0.006-0.537-0.012-0.69-0.018l0.049-1.148
				C453.768,286.585,454.012,286.591,454.416,286.603z"/>
			<polygon points="451.643,163.776 444.397,271.467 444.098,271.456 444.098,270.308 443.087,270.308 449.727,171.587 
				450.368,171.587 450.368,170.439 449.804,170.439 450.256,163.713 			"/>
			<polygon points="450.368,170.439 450.368,171.587 449.727,171.587 449.804,170.439 			"/>
			<path fill="#603813" d="M450.291,162.697l-0.035,1.016l-0.453,6.727h-81.285l-6.264-9.585
				C392.694,161.382,422.235,162.02,450.291,162.697z"/>
			<polygon points="449.804,170.439 449.727,171.587 368.637,171.587 368.679,170.847 368.686,170.692 368.519,170.439 			"/>
			<path fill="#F4DFD0" d="M449.727,171.587l-6.64,98.721h-48.457v-14.085c3.686-0.419,6.368-1.039,7.357-1.923
				c0.543-0.482,0.585-0.97,0.529-1.292c-0.947-5.481-3.79-7.88-3.908-7.978l-0.125-0.103L364.93,236.6l3.707-65.012H449.727z"/>
			<polygon points="444.397,271.467 442.467,300.205 441.081,300.143 441.617,292.118 442.007,292.118 442.007,290.971 
				441.694,290.971 443.011,271.456 444.098,271.456 			"/>
			<polygon points="444.098,270.308 444.098,271.456 443.011,271.456 443.087,270.308 			"/>
			<polygon points="443.087,270.308 443.011,271.456 394.631,271.456 394.631,270.308 			"/>
			<polygon points="442.007,290.971 442.007,292.118 441.617,292.118 441.694,290.971 			"/>
			<polygon points="441.694,290.971 441.617,292.118 394.631,292.118 394.631,290.971 			"/>
			<path d="M402.518,253.009c0.056,0.321,0.014,0.81-0.529,1.292c-0.989,0.884-3.672,1.504-7.357,1.923v-0.838h-1.393l-0.021-0.149
				c4.041-0.373,6.862-0.924,7.748-1.716c0.202-0.178,0.181-0.298,0.174-0.35c-0.773-4.477-2.905-6.744-3.414-7.232l-33.616-8.345
				h0.766l0.056-0.993l33.554,8.328l0.125,0.103C398.728,245.128,401.57,247.527,402.518,253.009z"/>
			<polygon points="394.631,292.118 394.631,300.728 393.238,300.728 393.238,271.456 393.935,271.456 394.631,271.456 
				394.631,290.971 393.935,290.971 393.935,292.118 			"/>
			<rect x="393.935" y="290.971" width="0.696" height="1.147"/>
			<rect x="393.935" y="270.308" width="0.696" height="1.147"/>
			<path d="M394.631,256.223v14.085h-0.696v1.147h-0.697v-15.089C393.718,256.326,394.178,256.275,394.631,256.223z"/>
			<path d="M394.631,255.385v0.838c-0.453,0.052-0.913,0.103-1.393,0.144v-0.981H394.631z"/>
			<path d="M393.238,255.385v0.981c-5.121,0.488-11.795,0.654-18.498,0.654c-11.649,0-23.354-0.5-27.011-0.666l0.083-1.148
				c14.499,0.683,34.438,1.033,45.405,0.029L393.238,255.385z"/>
			<polygon points="368.519,170.439 368.686,170.692 368.679,170.847 368.637,171.587 368.156,171.587 368.156,170.439 			"/>
			<path d="M368.637,171.587L364.93,236.6l-0.522-0.132l-0.404,1.102l0.104,0.023h-15.035l0.083-1.148h14.387l3.734-65.488
				l-6.619-10.13c0.529,0.006,1.066,0.018,1.595,0.029l6.264,9.585h-0.362v1.148H368.637z"/>
			<path fill="#603813" d="M360.66,160.826l6.619,10.13l-3.734,65.488h-14.387l5.441-75.722
				C356.625,160.757,358.646,160.792,360.66,160.826z"/>
			<polygon points="364.93,236.6 364.875,237.592 364.108,237.592 364.004,237.569 364.408,236.467 			"/>
			<path d="M361.502,159.689l0.752,1.165c-0.529-0.011-1.066-0.023-1.595-0.029l-0.669-1.021l0.307-0.132h0.007
				c0.035,0,0.077,0,0.111,0C360.778,159.678,361.14,159.684,361.502,159.689z"/>
			<path d="M361.231,159.288l0.271,0.402c-0.362-0.006-0.725-0.012-1.087-0.017L361.231,159.288z"/>
			<path d="M361.217,159.265l0.014,0.023l-0.815,0.385c-0.035,0-0.077,0-0.111,0L361.217,159.265z"/>
			<path d="M359.991,159.804l0.669,1.021c-2.014-0.034-4.034-0.069-6.062-0.103l0.083-1.148c0.265,0.006,0.53,0.011,0.794,0.011
				c0.139,0.006,0.279,0.006,0.411,0.012c0.495,0.006,1.038,0.017,1.602,0.029c0.941,0.011,1.875,0.028,2.808,0.046L359.991,159.804
				z"/>
			<path d="M355.887,159.598c0.536,0.006,1.073,0.017,1.602,0.029C356.925,159.615,356.382,159.604,355.887,159.598z"/>
			<path d="M354.918,159.569v0.006c-0.174,0-0.32-0.006-0.453-0.006c-0.119,0-0.237,0-0.362-0.006
				c-0.216-0.005-0.404-0.005-0.634-0.011l-0.056-0.052L354.918,159.569z"/>
			<path d="M354.682,159.575l-0.083,1.148c-0.46-0.006-0.927-0.018-1.394-0.023l0.083-1.148c0.272,0.006,0.543,0.011,0.815,0.011
				c0.125,0.006,0.244,0.006,0.362,0.006C354.542,159.575,354.612,159.575,354.682,159.575z"/>
			<path d="M354.598,160.723l-5.441,75.722h-0.508v1.148h0.425l-1.261,17.615c-0.237-0.011-0.467-0.023-0.697-0.034l-0.696-0.035
				l6.786-94.438C353.671,160.705,354.138,160.717,354.598,160.723z"/>
			<path d="M353.288,159.552l-0.083,1.148c-4.612-0.075-9.252-0.149-13.906-0.224v-0.011l0.056-0.901l-1.386-0.057l0.007-0.195
				C343.103,159.385,348.209,159.465,353.288,159.552z"/>
			<polygon points="349.157,236.444 349.073,237.592 348.648,237.592 348.648,236.444 			"/>
			<path d="M347.812,255.207l-0.083,1.148c-0.279-0.011-0.516-0.023-0.697-0.034l0.083-1.148
				C347.345,255.184,347.575,255.196,347.812,255.207z"/>
			<path d="M347.729,256.355l-3.24,45.084l-1.394-0.069l3.324-46.232l0.696,0.035l-0.083,1.148
				C347.213,256.332,347.45,256.344,347.729,256.355z"/>
			<path d="M339.354,159.563l-0.056,0.901c-0.46-0.006-0.919-0.063-1.386-0.069l0.056-0.89L339.354,159.563z"/>
			<path d="M339.298,160.464v0.011c-0.46-0.006-0.927-0.011-1.394-0.017l0.007-0.063
				C338.379,160.401,338.838,160.458,339.298,160.464z"/>
			<path d="M339.298,160.476l-4.48,71.986l-0.801-0.035v-1.148h-0.515l4.403-70.82C338.372,160.464,338.838,160.47,339.298,160.476z
				"/>
			<path d="M337.975,159.311l-0.007,0.195l-0.056,0.89h-0.007l-0.007,0.063c-28.238-0.431-57.082-0.752-86.1-0.924
				c-1.344,0-2.738,0.144-4.089,0.281c-1.373,0.144-2.794,0.287-4.215,0.293c-7.775,0.936-11.363,6.836-14.833,12.541
				c-0.689,1.13-1.337,2.198-2.021,3.231c-0.961,1.578-2.612,2.531-4.654,2.755c-0.049-0.258-0.09-0.517-0.139-0.775
				c0-0.017-0.007-0.035-0.007-0.052l-0.216,0.017l-0.042-0.315c1.352-0.104,2.877-0.614,3.825-2.164
				c0.683-1.033,1.324-2.089,2.006-3.214c3.47-5.699,7.399-12.162,15.934-13.167l0.097-0.006c1.352,0,2.745-0.144,4.097-0.281
				c1.387-0.144,2.829-0.292,4.264-0.292c16.797,0.103,33.546,0.247,50.149,0.442C314.05,158.966,326.068,159.127,337.975,159.311z"
				/>
			
				<rect x="337.873" y="160.424" transform="matrix(0.1155 -0.9933 0.9933 0.1155 139.5234 477.5411)" width="0.063" height="0.007"/>
			<rect x="300.221" y="195.865" transform="matrix(0.062 -0.9981 0.9981 0.062 119.3786 518.768)" width="70.957" height="0.007"/>
			<path fill="#F4DFD0" d="M337.898,160.458l-4.403,70.82l-0.007,0.109l-111.704,0.057c0-0.057,0-0.109,0-0.167
				c-0.007-4.069-0.028-8.116-0.042-12.116c-0.049-12.392-0.104-25.168,0.056-37.795h0.083c-0.014-0.379-0.021-0.758-0.028-1.136
				h0.07c0-0.144,0-0.287,0-0.431l0.265-0.034c-0.063-0.379-0.132-0.758-0.202-1.131c2.042-0.224,3.692-1.177,4.654-2.755
				c0.683-1.033,1.331-2.101,2.021-3.231c3.47-5.705,7.058-11.605,14.833-12.541c1.421-0.006,2.843-0.149,4.215-0.293
				c1.352-0.138,2.745-0.281,4.089-0.281C280.816,159.707,309.66,160.028,337.898,160.458z"/>
			<polygon points="334.818,232.461 330.499,301.853 329.112,301.767 333.418,232.536 333.425,232.536 333.432,232.427 
				334.017,232.427 			"/>
			<polygon points="334.017,231.279 334.017,232.427 333.432,232.427 333.495,231.388 333.502,231.279 			"/>
			<rect x="333.44" y="231.33" transform="matrix(0.0668 -0.9978 0.9978 0.0668 80.396 548.6267)" width="0.11" height="0.007"/>
			<rect x="332.94" y="231.904" transform="matrix(0.0601 -0.9982 0.9982 0.0601 81.9404 550.8346)" width="1.04" height="0.007"/>
			<path d="M333.488,231.388l-0.063,1.039l-0.007,0.109l-111.626,0.058c0-0.058,0-0.109,0-0.167c0,0-0.007-0.029,0-0.075
				c-0.007-0.304-0.007-0.603-0.007-0.907L333.488,231.388z"/>
			<rect x="333.37" y="232.478" transform="matrix(0.0627 -0.998 0.998 0.0627 80.5093 550.6846)" width="0.109" height="0.007"/>
			<path fill="#9E6332" d="M301.982,157.239l-0.028,1.59c-16.603-0.195-33.352-0.339-50.149-0.442c-1.436,0-2.877,0.149-4.264,0.292
				c-1.352,0.138-2.745,0.281-4.097,0.281l-0.097,0.006c-8.535,1.004-12.464,7.467-15.934,13.167
				c-0.683,1.125-1.324,2.181-2.006,3.214c-0.948,1.55-2.473,2.061-3.825,2.164c-0.934,0.075-1.776-0.052-2.299-0.155
				c-4.954-1.36-9.016-3.077-13.314-4.89c-1.086-0.459-2.188-0.924-3.316-1.389l-0.091-0.035c-0.731-0.201-1.456-0.333-2.16-0.459
				c-1.373-0.252-2.662-0.488-3.909-1.171c-2.641-1.693-5.065-3.513-7.406-5.269c-3.247-2.439-6.313-4.741-9.9-6.727
				c-0.522-0.775-1.303-1.303-2.125-1.859c-0.46-0.31-0.934-0.631-1.4-1.022c-0.968-0.792-1.77-1.716-2.508-2.669l11.761-0.746
				l10.13,0.758l13.6,1.544l9.252-1.906l5.407,1.114l50.776,3.845L301.982,157.239z"/>
			<path d="M221.986,178.636c0.07,0.373,0.139,0.752,0.202,1.131l-0.265,0.034c0-0.006,0-0.006,0-0.011
				c-0.007-0.385-0.014-0.77-0.035-1.148C221.924,178.642,221.952,178.636,221.986,178.636z"/>
			<path d="M221.847,177.861c0.049,0.258,0.09,0.517,0.139,0.775c-0.035,0-0.063,0.006-0.098,0.006
				C221.875,178.383,221.868,178.119,221.847,177.861z"/>
			<path d="M221.924,179.801c0,0.144,0,0.287,0,0.431h-0.07c0-0.012,0-0.023,0-0.035c0,0-0.007-0.247-0.014-0.39L221.924,179.801z"
				/>
			<path d="M221.889,178.642c0.021,0.378,0.028,0.763,0.035,1.148h-0.084c0,0.005,0,0.011,0,0.017
				c0.007,0.144,0.014,0.39,0.014,0.39h-0.042c0,0.012,0,0.023,0,0.035c-0.007,0.534-0.007,0.74-0.014,1.096l-1.31-0.035
				c-0.042-0.878-0.042-1.756-0.035-2.628c0.07,0.005,0.139,0.005,0.202,0.005C221.081,178.693,221.492,178.682,221.889,178.642z"/>
			<path d="M221.889,178.642c-0.397,0.04-0.808,0.051-1.233,0.028c-0.07-0.005-0.132-0.005-0.202-0.011c0-0.063,0-0.121,0-0.184
				c0-0.075,0-0.149,0-0.224c0-0.103,0-0.212,0-0.315l0.627-0.058l0.767-0.017C221.868,178.119,221.875,178.383,221.889,178.642z"/>
			<path d="M221.854,180.231c0.007,0.378,0.014,0.757,0.028,1.136h-0.083c0-0.006,0-0.011,0-0.017s0-0.017,0-0.023
				c0.007-0.356,0.007-0.563,0.014-1.096H221.854z"/>
			<path d="M221.84,177.809c0,0.017,0.007,0.035,0.007,0.052l-0.767,0.017l0.543-0.052L221.84,177.809z"/>
			<path d="M221.798,181.328c0,0.006,0,0.017,0,0.023l-1.31,0.057c0-0.04,0-0.074,0-0.115L221.798,181.328z"/>
			<path d="M221.798,181.368c-0.16,12.627-0.104,25.403-0.056,37.795c0.014,4,0.035,8.047,0.042,12.116h-0.634v1.148h0.641
				c0,0.058,0,0.109,0,0.167c0.014,8.552,0,16.897-0.119,25.271c-0.265,19.646-1.031,35.895-2.396,50.961
				c0,0,0.738-31.31,1.003-50.933c0.174-12.925,0.125-26.109,0.07-38.822c-0.056-13.212-0.111-26.695,0.098-40.406c0,0,0,0,0.007,0
				c-0.007,0.872-0.007,1.75,0.035,2.628c0,0.041,0,0.075,0,0.115l1.31-0.057C221.798,181.356,221.798,181.362,221.798,181.368z"/>
			<path d="M221.784,231.445c0,0.39,0,0.752,0.007,0.907c-0.007,0.046,0,0.075,0,0.075h-0.641v-1.148h0.634
				C221.784,231.336,221.784,231.388,221.784,231.445z"/>
			<path d="M221.582,177.511l0.042,0.315l-0.543,0.052l-0.627,0.018c0,0.011,0,0.028,0,0.04c0,0.103,0,0.212,0,0.315
				c-0.007,0.075-0.007,0.149-0.007,0.224c0,0.063,0,0.126,0,0.189c-0.509-0.035-1.024-0.098-1.554-0.207
				c-5.107-1.4-9.21-3.134-13.565-4.97c-1.066-0.454-2.146-0.913-3.254-1.366c-0.648-0.178-1.296-0.292-1.979-0.419
				c-1.428-0.264-2.912-0.534-4.41-1.36c-2.731-1.745-5.169-3.576-7.539-5.349c-3.247-2.439-6.319-4.747-9.879-6.704l-0.16-0.086
				l-0.077-0.132c-0.39-0.631-1.038-1.073-1.853-1.63c-0.467-0.31-0.982-0.666-1.505-1.091c-1.658-1.366-2.892-3.082-3.985-4.591
				c-0.334-0.465-0.662-0.918-0.982-1.343l0.836-0.436l1.902,2.927l0.71-0.041c0.739,0.953,1.54,1.877,2.508,2.669
				c0.467,0.391,0.94,0.712,1.4,1.022c0.822,0.557,1.603,1.084,2.125,1.859c3.588,1.986,6.653,4.288,9.9,6.727
				c2.341,1.756,4.765,3.576,7.406,5.269c1.247,0.683,2.536,0.918,3.909,1.171c0.704,0.126,1.428,0.258,2.16,0.459l0.091,0.035
				c1.128,0.465,2.229,0.93,3.316,1.389c4.299,1.813,8.361,3.53,13.314,4.89C219.806,177.459,220.648,177.585,221.582,177.511z"/>
			<path d="M221.081,177.878l-0.627,0.058c0-0.012,0-0.029,0-0.04L221.081,177.878z"/>
			<path d="M220.656,178.67c-0.063,0-0.132,0-0.202-0.005v-0.006C220.523,178.665,220.586,178.665,220.656,178.67z"/>
			<path d="M220.454,178.659v0.006c-0.007,0-0.007,0-0.007,0c0-0.063,0-0.126,0-0.189c0,0,0,0,0.007,0
				C220.454,178.538,220.454,178.596,220.454,178.659z"/>
			<path d="M220.454,178.251c0,0.075,0,0.149,0,0.224c-0.007,0-0.007,0-0.007,0C220.447,178.4,220.447,178.326,220.454,178.251z"/>
			<path d="M172.513,151.017c0.209,0.287,0.418,0.568,0.641,0.849l-0.71,0.041l-1.902-2.927l0.341-0.178
				c0.327,0.437,0.662,0.896,1.003,1.372C172.095,150.455,172.297,150.736,172.513,151.017z"/>
		</g>
		<g>
		</g>
	</g>
	
		<line fill="none" stroke="#000000" stroke-width="2" stroke-miterlimit="10" x1="725.804" y1="154.531" x2="730.913" y2="162.733"/>
	<path fill="none" stroke="#000000" stroke-width="2" stroke-miterlimit="10" d="M479.619,64.606c0,0-3.705,88.78-4.17,89.925"/>
	<path fill="none" stroke="#000000" stroke-width="2" stroke-miterlimit="10" d="M560.916,63.111c0,0,30.178,47.447,50.389,99.868"
		/>
	<path fill="none" stroke="#000000" stroke-width="2" stroke-miterlimit="10" d="M266.793,78.625c0,0,352.122-4.361,406.033,6.324"
		/>
	<line fill="none" stroke="#000000" stroke-width="2" stroke-miterlimit="10" x1="238.396" y1="94.781" x2="704.738" y2="104.591"/>
	<path fill="none" stroke="#000000" stroke-width="2" stroke-miterlimit="10" d="M212.833,113.14c0,0,475.673,3.84,514.063,17.083"
		/>
	
		<line fill="none" stroke="#000000" stroke-width="2" stroke-miterlimit="10" x1="212.833" y1="128.159" x2="184.931" y2="149.968"/>
	<line fill="none" stroke="#000000" stroke-width="2" stroke-miterlimit="10" x1="220.457" y1="139.063" x2="208.57" y2="152.257"/>
	
		<line fill="none" stroke="#000000" stroke-width="2" stroke-miterlimit="10" x1="245.072" y1="136.577" x2="228.908" y2="151.908"/>
	
		<line fill="none" stroke="#000000" stroke-width="2" stroke-miterlimit="10" x1="261.499" y1="136.577" x2="247.365" y2="153.302"/>
	
		<line fill="none" stroke="#000000" stroke-width="2" stroke-miterlimit="10" x1="277.643" y1="132.368" x2="263.621" y2="154.531"/>
	
		<line fill="none" stroke="#000000" stroke-width="2" stroke-miterlimit="10" x1="364.934" y1="132.368" x2="347.732" y2="153.302"/>
	
		<line fill="none" stroke="#000000" stroke-width="2" stroke-miterlimit="10" x1="371.409" y1="142.836" x2="367.281" y2="153.302"/>
	<path fill="none" stroke="#000000" stroke-width="2" stroke-miterlimit="10" d="M430.398,136.577c0,0-9.293,16.422-6.038,17.593"/>
	<path fill="none" stroke="#000000" stroke-width="2" stroke-miterlimit="10" d="M437.829,145.661c0,0-4.195,7.268-2.322,8.508"/>
	
		<line fill="none" stroke="#000000" stroke-width="2" stroke-miterlimit="10" x1="449.729" y1="142.836" x2="446.365" y2="154.531"/>
	<line fill="none" stroke="#000000" stroke-width="2" stroke-miterlimit="10" x1="461.518" y1="142.7" x2="458.7" y2="154.531"/>
	<line fill="none" stroke="#000000" stroke-width="2" stroke-miterlimit="10" x1="511.898" y1="139.063" x2="510.966" y2="156.57"/>
	<line fill="none" stroke="#000000" stroke-width="2" stroke-miterlimit="10" x1="522" y1="145" x2="522" y2="155"/>
	<line fill="none" stroke="#000000" stroke-width="2" stroke-miterlimit="10" x1="537.458" y1="147.817" x2="536.297" y2="156.57"/>
	<path fill="none" stroke="#000000" stroke-width="2" stroke-miterlimit="10" d="M556.968,137.343c0,0,5.109,14.962,3.948,20.3"/>
	<path fill="none" stroke="#000000" stroke-width="2" stroke-miterlimit="10" d="M569.275,150.353c0,0,1.86,5.91,1.744,8.024"/>
	<line fill="none" stroke="#000000" stroke-width="2" stroke-miterlimit="10" x1="580" y1="155" x2="580" y2="161"/>
	<path fill="none" stroke="#000000" stroke-width="2" stroke-miterlimit="10" d="M645.914,146.526c0,0,4.228,15.01,3.717,15.851"/>
	<path fill="none" stroke="#000000" stroke-width="2" stroke-miterlimit="10" d="M652.188,148.615c0,0,9.063,10.083,7.665,12.893"/>
	<line fill="none" stroke="#000000" stroke-width="2" stroke-miterlimit="10" x1="664.725" y1="143.656" x2="672.595" y2="160.97"/>
	<line fill="none" stroke="#000000" stroke-width="2" stroke-miterlimit="10" x1="670.765" y1="142.7" x2="686.227" y2="161.583"/>
	<line fill="none" stroke="#000000" stroke-width="2" stroke-miterlimit="10" x1="691.201" y1="145.187" x2="699.55" y2="159.776"/>
	
		<line fill="none" stroke="#000000" stroke-width="2" stroke-miterlimit="10" x1="712.565" y1="150.353" x2="715.586" y2="160.301"/>
	
		<line fill="none" stroke="#000000" stroke-width="2" stroke-miterlimit="10" x1="725.804" y1="154.531" x2="730.913" y2="162.733"/>
	<path fill="none" stroke="#000000" stroke-width="2" stroke-miterlimit="10" d="M374.479,66.571c0,0-50.071,69.02-49.445,86.73"/>
	
		<line fill="none" stroke="#000000" stroke-width="2" stroke-miterlimit="10" x1="307.546" y1="139.063" x2="301.992" y2="156.092"/>
	<polyline fill="#42210B" points="339.301,160.477 353.208,160.701 344.492,301.44 330.05,302.393 	"/>
	<polyline fill="#42210B" points="450,162 461.518,162 452.237,300.666 441.782,301.137 	"/>
	<polyline fill="#42210B" points="677.742,313.149 702.558,315.358 702.579,172.186 686.736,172.92 	"/>
	<polyline fill="#42210B" points="222.547,178.666 221.369,308.826 206.787,309.43 210.66,174.844 	"/>
</g>
<path fill="#C69C6D" stroke="#000000" stroke-width="2" stroke-miterlimit="10" d="M-27.356,348.236
	c0,0,511.667-132.033,1048.356,30.94v269.071L-44.944,659.013L-27.356,348.236z"/>
<g>
	
		<use xlink:href="#Grass_4"  width="44.766" height="23.829" x="-22.384" y="-11.915" transform="matrix(1 0 0 -1 66 419)" overflow="visible"/>
	
		<use xlink:href="#Grass_4"  width="44.766" height="23.829" x="-22.384" y="-11.915" transform="matrix(1 0 0 -1 83 415)" overflow="visible"/>
	
		<use xlink:href="#Grass_4"  width="44.766" height="23.829" x="-22.384" y="-11.915" transform="matrix(1 0 0 -1 72 488)" overflow="visible"/>
	
		<use xlink:href="#Grass_4"  width="44.766" height="23.829" x="-22.384" y="-11.915" transform="matrix(1 0 0 -1 120 511)" overflow="visible"/>
	
		<use xlink:href="#Grass_4"  width="44.766" height="23.829" x="-22.384" y="-11.915" transform="matrix(1 0 0 -1 178 431)" overflow="visible"/>
	
		<use xlink:href="#Grass_4"  width="44.766" height="23.829" x="-22.384" y="-11.915" transform="matrix(1 0 0 -1 178 377)" overflow="visible"/>
	
		<use xlink:href="#Grass_4"  width="44.766" height="23.829" x="-22.384" y="-11.915" transform="matrix(1 0 0 -1 266 368)" overflow="visible"/>
	
		<use xlink:href="#Grass_4"  width="44.766" height="23.829" x="-22.384" y="-11.915" transform="matrix(1 0 0 -1 313 457)" overflow="visible"/>
	
		<use xlink:href="#Grass_4"  width="44.766" height="23.829" x="-22.384" y="-11.915" transform="matrix(1 0 0 -1 377 531)" overflow="visible"/>
	
		<use xlink:href="#Grass_4"  width="44.766" height="23.829" x="-22.384" y="-11.915" transform="matrix(1 0 0 -1 476 450)" overflow="visible"/>
	
		<use xlink:href="#Grass_4"  width="44.766" height="23.829" x="-22.384" y="-11.915" transform="matrix(1 0 0 -1 401 332)" overflow="visible"/>
	
		<use xlink:href="#Grass_4"  width="44.766" height="23.829" x="-22.384" y="-11.915" transform="matrix(1 0 0 -1 502 382)" overflow="visible"/>
	
		<use xlink:href="#Grass_4"  width="44.766" height="23.829" x="-22.384" y="-11.915" transform="matrix(1 0 0 -1 413 429)" overflow="visible"/>
	
		<use xlink:href="#Grass_4"  width="44.766" height="23.829" x="-22.384" y="-11.915" transform="matrix(1 0 0 -1 684 517)" overflow="visible"/>
	
		<use xlink:href="#Grass_4"  width="44.766" height="23.829" x="-22.384" y="-11.915" transform="matrix(1 0 0 -1 541 558)" overflow="visible"/>
	
		<use xlink:href="#Grass_4"  width="44.766" height="23.829" x="-22.384" y="-11.915" transform="matrix(1 0 0 -1 572 502)" overflow="visible"/>
	
		<use xlink:href="#Grass_4"  width="44.766" height="23.829" x="-22.384" y="-11.915" transform="matrix(1 0 0 -1 594 379)" overflow="visible"/>
	
		<use xlink:href="#Grass_4"  width="44.766" height="23.829" x="-22.384" y="-11.915" transform="matrix(1 0 0 -1 668 428)" overflow="visible"/>
	
		<use xlink:href="#Grass_4"  width="44.766" height="23.829" x="-22.384" y="-11.915" transform="matrix(1 0 0 -1 550 422)" overflow="visible"/>
	
		<use xlink:href="#Grass_4"  width="44.766" height="23.829" x="-22.384" y="-11.915" transform="matrix(1 0 0 -1 636 341)" overflow="visible"/>
	
		<use xlink:href="#Grass_4"  width="44.766" height="23.829" x="-22.384" y="-11.915" transform="matrix(1 0 0 -1 525 312)" overflow="visible"/>
	
		<use xlink:href="#Grass_4"  width="44.766" height="23.829" x="-22.384" y="-11.915" transform="matrix(1 0 0 -1 763 378)" overflow="visible"/>
	
		<use xlink:href="#Grass_4"  width="44.766" height="23.829" x="-22.384" y="-11.915" transform="matrix(1 0 0 -1 730 399)" overflow="visible"/>
	
		<use xlink:href="#Grass_4"  width="44.766" height="23.829" x="-22.384" y="-11.915" transform="matrix(1 0 0 -1 829 478)" overflow="visible"/>
	
		<use xlink:href="#Grass_4"  width="44.766" height="23.829" x="-22.384" y="-11.915" transform="matrix(1 0 0 -1 785 517)" overflow="visible"/>
	
		<use xlink:href="#Grass_4"  width="44.766" height="23.829" x="-22.384" y="-11.915" transform="matrix(1 0 0 -1 829 587)" overflow="visible"/>
	
		<use xlink:href="#Grass_4"  width="44.766" height="23.829" x="-22.384" y="-11.915" transform="matrix(1 0 0 -1 932 465)" overflow="visible"/>
	
		<use xlink:href="#Grass_4"  width="44.766" height="23.829" x="-22.384" y="-11.915" transform="matrix(1 0 0 -1 897 402)" overflow="visible"/>
	
		<use xlink:href="#Grass_4"  width="44.766" height="23.829" x="-22.384" y="-11.915" transform="matrix(1 0 0 -1 821 398)" overflow="visible"/>
	
		<use xlink:href="#Grass_4"  width="44.766" height="23.829" x="-22.384" y="-11.915" transform="matrix(1 0 0 -1 923 527)" overflow="visible"/>
	
		<use xlink:href="#Trees_1"  width="82.59" height="111.745" x="-41.326" y="-55.933" transform="matrix(1 0 0 -1 779 277)" overflow="visible"/>
	
		<use xlink:href="#Trees_1"  width="82.59" height="111.745" x="-41.326" y="-55.933" transform="matrix(1 0 0 -1 100 289)" overflow="visible"/>
</g>
</svg>
